%TF.GenerationSoftware,KiCad,Pcbnew,(5.1.6)-1*%
%TF.CreationDate,2021-07-30T18:23:22-07:00*%
%TF.ProjectId,WPT Receiver,57505420-5265-4636-9569-7665722e6b69,rev?*%
%TF.SameCoordinates,Original*%
%TF.FileFunction,Legend,Top*%
%TF.FilePolarity,Positive*%
%FSLAX46Y46*%
G04 Gerber Fmt 4.6, Leading zero omitted, Abs format (unit mm)*
G04 Created by KiCad (PCBNEW (5.1.6)-1) date 2021-07-30 18:23:22*
%MOMM*%
%LPD*%
G01*
G04 APERTURE LIST*
%ADD10C,0.150000*%
%ADD11C,0.127000*%
%ADD12C,0.254000*%
%ADD13C,0.120000*%
G04 APERTURE END LIST*
D10*
X130209523Y-123552380D02*
X130704761Y-123552380D01*
X130438095Y-123933333D01*
X130552380Y-123933333D01*
X130628571Y-123980952D01*
X130666666Y-124028571D01*
X130704761Y-124123809D01*
X130704761Y-124361904D01*
X130666666Y-124457142D01*
X130628571Y-124504761D01*
X130552380Y-124552380D01*
X130323809Y-124552380D01*
X130247619Y-124504761D01*
X130209523Y-124457142D01*
X130933333Y-123552380D02*
X131200000Y-124552380D01*
X131466666Y-123552380D01*
X131657142Y-123552380D02*
X132152380Y-123552380D01*
X131885714Y-123933333D01*
X132000000Y-123933333D01*
X132076190Y-123980952D01*
X132114285Y-124028571D01*
X132152380Y-124123809D01*
X132152380Y-124361904D01*
X132114285Y-124457142D01*
X132076190Y-124504761D01*
X132000000Y-124552380D01*
X131771428Y-124552380D01*
X131695238Y-124504761D01*
X131657142Y-124457142D01*
X130666666Y-122052380D02*
X130285714Y-122052380D01*
X130285714Y-121052380D01*
X130933333Y-122052380D02*
X130933333Y-121052380D01*
X131123809Y-121052380D01*
X131238095Y-121100000D01*
X131314285Y-121195238D01*
X131352380Y-121290476D01*
X131390476Y-121480952D01*
X131390476Y-121623809D01*
X131352380Y-121814285D01*
X131314285Y-121909523D01*
X131238095Y-122004761D01*
X131123809Y-122052380D01*
X130933333Y-122052380D01*
X132152380Y-122052380D02*
X131695238Y-122052380D01*
X131923809Y-122052380D02*
X131923809Y-121052380D01*
X131847619Y-121195238D01*
X131771428Y-121290476D01*
X131695238Y-121338095D01*
X130666666Y-119452380D02*
X130285714Y-119452380D01*
X130285714Y-118452380D01*
X130933333Y-119452380D02*
X130933333Y-118452380D01*
X131123809Y-118452380D01*
X131238095Y-118500000D01*
X131314285Y-118595238D01*
X131352380Y-118690476D01*
X131390476Y-118880952D01*
X131390476Y-119023809D01*
X131352380Y-119214285D01*
X131314285Y-119309523D01*
X131238095Y-119404761D01*
X131123809Y-119452380D01*
X130933333Y-119452380D01*
X131695238Y-118547619D02*
X131733333Y-118500000D01*
X131809523Y-118452380D01*
X132000000Y-118452380D01*
X132076190Y-118500000D01*
X132114285Y-118547619D01*
X132152380Y-118642857D01*
X132152380Y-118738095D01*
X132114285Y-118880952D01*
X131657142Y-119452380D01*
X132152380Y-119452380D01*
X130666666Y-116952380D02*
X130285714Y-116952380D01*
X130285714Y-115952380D01*
X130933333Y-116952380D02*
X130933333Y-115952380D01*
X131123809Y-115952380D01*
X131238095Y-116000000D01*
X131314285Y-116095238D01*
X131352380Y-116190476D01*
X131390476Y-116380952D01*
X131390476Y-116523809D01*
X131352380Y-116714285D01*
X131314285Y-116809523D01*
X131238095Y-116904761D01*
X131123809Y-116952380D01*
X130933333Y-116952380D01*
X131657142Y-115952380D02*
X132152380Y-115952380D01*
X131885714Y-116333333D01*
X132000000Y-116333333D01*
X132076190Y-116380952D01*
X132114285Y-116428571D01*
X132152380Y-116523809D01*
X132152380Y-116761904D01*
X132114285Y-116857142D01*
X132076190Y-116904761D01*
X132000000Y-116952380D01*
X131771428Y-116952380D01*
X131695238Y-116904761D01*
X131657142Y-116857142D01*
X130590476Y-113400000D02*
X130514285Y-113352380D01*
X130400000Y-113352380D01*
X130285714Y-113400000D01*
X130209523Y-113495238D01*
X130171428Y-113590476D01*
X130133333Y-113780952D01*
X130133333Y-113923809D01*
X130171428Y-114114285D01*
X130209523Y-114209523D01*
X130285714Y-114304761D01*
X130400000Y-114352380D01*
X130476190Y-114352380D01*
X130590476Y-114304761D01*
X130628571Y-114257142D01*
X130628571Y-113923809D01*
X130476190Y-113923809D01*
X130971428Y-114352380D02*
X130971428Y-113352380D01*
X131428571Y-114352380D01*
X131428571Y-113352380D01*
X131809523Y-114352380D02*
X131809523Y-113352380D01*
X132000000Y-113352380D01*
X132114285Y-113400000D01*
X132190476Y-113495238D01*
X132228571Y-113590476D01*
X132266666Y-113780952D01*
X132266666Y-113923809D01*
X132228571Y-114114285D01*
X132190476Y-114209523D01*
X132114285Y-114304761D01*
X132000000Y-114352380D01*
X131809523Y-114352380D01*
X113700000Y-125061904D02*
X113652380Y-125157142D01*
X113652380Y-125300000D01*
X113700000Y-125442857D01*
X113795238Y-125538095D01*
X113890476Y-125585714D01*
X114080952Y-125633333D01*
X114223809Y-125633333D01*
X114414285Y-125585714D01*
X114509523Y-125538095D01*
X114604761Y-125442857D01*
X114652380Y-125300000D01*
X114652380Y-125204761D01*
X114604761Y-125061904D01*
X114557142Y-125014285D01*
X114223809Y-125014285D01*
X114223809Y-125204761D01*
X114652380Y-124585714D02*
X113652380Y-124585714D01*
X114652380Y-124014285D01*
X113652380Y-124014285D01*
X114652380Y-123538095D02*
X113652380Y-123538095D01*
X113652380Y-123300000D01*
X113700000Y-123157142D01*
X113795238Y-123061904D01*
X113890476Y-123014285D01*
X114080952Y-122966666D01*
X114223809Y-122966666D01*
X114414285Y-123014285D01*
X114509523Y-123061904D01*
X114604761Y-123157142D01*
X114652380Y-123300000D01*
X114652380Y-123538095D01*
X111152380Y-125561904D02*
X111152380Y-124990476D01*
X112152380Y-125276190D02*
X111152380Y-125276190D01*
X111152380Y-124752380D02*
X112152380Y-124085714D01*
X111152380Y-124085714D02*
X112152380Y-124752380D01*
X109552380Y-124966666D02*
X109076190Y-125300000D01*
X109552380Y-125538095D02*
X108552380Y-125538095D01*
X108552380Y-125157142D01*
X108600000Y-125061904D01*
X108647619Y-125014285D01*
X108742857Y-124966666D01*
X108885714Y-124966666D01*
X108980952Y-125014285D01*
X109028571Y-125061904D01*
X109076190Y-125157142D01*
X109076190Y-125538095D01*
X108552380Y-124633333D02*
X109552380Y-123966666D01*
X108552380Y-123966666D02*
X109552380Y-124633333D01*
X106052380Y-125538095D02*
X106052380Y-124919047D01*
X106433333Y-125252380D01*
X106433333Y-125109523D01*
X106480952Y-125014285D01*
X106528571Y-124966666D01*
X106623809Y-124919047D01*
X106861904Y-124919047D01*
X106957142Y-124966666D01*
X107004761Y-125014285D01*
X107052380Y-125109523D01*
X107052380Y-125395238D01*
X107004761Y-125490476D01*
X106957142Y-125538095D01*
X106052380Y-124633333D02*
X107052380Y-124300000D01*
X106052380Y-123966666D01*
X106052380Y-123728571D02*
X106052380Y-123109523D01*
X106433333Y-123442857D01*
X106433333Y-123300000D01*
X106480952Y-123204761D01*
X106528571Y-123157142D01*
X106623809Y-123109523D01*
X106861904Y-123109523D01*
X106957142Y-123157142D01*
X107004761Y-123204761D01*
X107052380Y-123300000D01*
X107052380Y-123585714D01*
X107004761Y-123680952D01*
X106957142Y-123728571D01*
X130452380Y-148952380D02*
X130119047Y-148476190D01*
X129880952Y-148952380D02*
X129880952Y-147952380D01*
X130261904Y-147952380D01*
X130357142Y-148000000D01*
X130404761Y-148047619D01*
X130452380Y-148142857D01*
X130452380Y-148285714D01*
X130404761Y-148380952D01*
X130357142Y-148428571D01*
X130261904Y-148476190D01*
X129880952Y-148476190D01*
X130833333Y-148904761D02*
X130976190Y-148952380D01*
X131214285Y-148952380D01*
X131309523Y-148904761D01*
X131357142Y-148857142D01*
X131404761Y-148761904D01*
X131404761Y-148666666D01*
X131357142Y-148571428D01*
X131309523Y-148523809D01*
X131214285Y-148476190D01*
X131023809Y-148428571D01*
X130928571Y-148380952D01*
X130880952Y-148333333D01*
X130833333Y-148238095D01*
X130833333Y-148142857D01*
X130880952Y-148047619D01*
X130928571Y-148000000D01*
X131023809Y-147952380D01*
X131261904Y-147952380D01*
X131404761Y-148000000D01*
X131690476Y-147952380D02*
X132261904Y-147952380D01*
X131976190Y-148952380D02*
X131976190Y-147952380D01*
X103738095Y-108452380D02*
X103738095Y-109261904D01*
X103785714Y-109357142D01*
X103833333Y-109404761D01*
X103928571Y-109452380D01*
X104119047Y-109452380D01*
X104214285Y-109404761D01*
X104261904Y-109357142D01*
X104309523Y-109261904D01*
X104309523Y-108452380D01*
X105119047Y-108928571D02*
X105261904Y-108976190D01*
X105309523Y-109023809D01*
X105357142Y-109119047D01*
X105357142Y-109261904D01*
X105309523Y-109357142D01*
X105261904Y-109404761D01*
X105166666Y-109452380D01*
X104785714Y-109452380D01*
X104785714Y-108452380D01*
X105119047Y-108452380D01*
X105214285Y-108500000D01*
X105261904Y-108547619D01*
X105309523Y-108642857D01*
X105309523Y-108738095D01*
X105261904Y-108833333D01*
X105214285Y-108880952D01*
X105119047Y-108928571D01*
X104785714Y-108928571D01*
X105738095Y-108547619D02*
X105785714Y-108500000D01*
X105880952Y-108452380D01*
X106119047Y-108452380D01*
X106214285Y-108500000D01*
X106261904Y-108547619D01*
X106309523Y-108642857D01*
X106309523Y-108738095D01*
X106261904Y-108880952D01*
X105690476Y-109452380D01*
X106309523Y-109452380D01*
X88738095Y-108452380D02*
X88738095Y-109261904D01*
X88785714Y-109357142D01*
X88833333Y-109404761D01*
X88928571Y-109452380D01*
X89119047Y-109452380D01*
X89214285Y-109404761D01*
X89261904Y-109357142D01*
X89309523Y-109261904D01*
X89309523Y-108452380D01*
X90119047Y-108928571D02*
X90261904Y-108976190D01*
X90309523Y-109023809D01*
X90357142Y-109119047D01*
X90357142Y-109261904D01*
X90309523Y-109357142D01*
X90261904Y-109404761D01*
X90166666Y-109452380D01*
X89785714Y-109452380D01*
X89785714Y-108452380D01*
X90119047Y-108452380D01*
X90214285Y-108500000D01*
X90261904Y-108547619D01*
X90309523Y-108642857D01*
X90309523Y-108738095D01*
X90261904Y-108833333D01*
X90214285Y-108880952D01*
X90119047Y-108928571D01*
X89785714Y-108928571D01*
X91309523Y-109452380D02*
X90738095Y-109452380D01*
X91023809Y-109452380D02*
X91023809Y-108452380D01*
X90928571Y-108595238D01*
X90833333Y-108690476D01*
X90738095Y-108738095D01*
X59440357Y-53402380D02*
X59678452Y-54402380D01*
X59868928Y-53688095D01*
X60059404Y-54402380D01*
X60297500Y-53402380D01*
X60678452Y-54402380D02*
X60678452Y-53402380D01*
X61059404Y-53402380D01*
X61154642Y-53450000D01*
X61202261Y-53497619D01*
X61249880Y-53592857D01*
X61249880Y-53735714D01*
X61202261Y-53830952D01*
X61154642Y-53878571D01*
X61059404Y-53926190D01*
X60678452Y-53926190D01*
X61535595Y-53402380D02*
X62107023Y-53402380D01*
X61821309Y-54402380D02*
X61821309Y-53402380D01*
X63773690Y-54402380D02*
X63440357Y-53926190D01*
X63202261Y-54402380D02*
X63202261Y-53402380D01*
X63583214Y-53402380D01*
X63678452Y-53450000D01*
X63726071Y-53497619D01*
X63773690Y-53592857D01*
X63773690Y-53735714D01*
X63726071Y-53830952D01*
X63678452Y-53878571D01*
X63583214Y-53926190D01*
X63202261Y-53926190D01*
X64583214Y-54354761D02*
X64487976Y-54402380D01*
X64297500Y-54402380D01*
X64202261Y-54354761D01*
X64154642Y-54259523D01*
X64154642Y-53878571D01*
X64202261Y-53783333D01*
X64297500Y-53735714D01*
X64487976Y-53735714D01*
X64583214Y-53783333D01*
X64630833Y-53878571D01*
X64630833Y-53973809D01*
X64154642Y-54069047D01*
X65487976Y-54354761D02*
X65392738Y-54402380D01*
X65202261Y-54402380D01*
X65107023Y-54354761D01*
X65059404Y-54307142D01*
X65011785Y-54211904D01*
X65011785Y-53926190D01*
X65059404Y-53830952D01*
X65107023Y-53783333D01*
X65202261Y-53735714D01*
X65392738Y-53735714D01*
X65487976Y-53783333D01*
X66297500Y-54354761D02*
X66202261Y-54402380D01*
X66011785Y-54402380D01*
X65916547Y-54354761D01*
X65868928Y-54259523D01*
X65868928Y-53878571D01*
X65916547Y-53783333D01*
X66011785Y-53735714D01*
X66202261Y-53735714D01*
X66297500Y-53783333D01*
X66345119Y-53878571D01*
X66345119Y-53973809D01*
X65868928Y-54069047D01*
X66773690Y-54402380D02*
X66773690Y-53735714D01*
X66773690Y-53402380D02*
X66726071Y-53450000D01*
X66773690Y-53497619D01*
X66821309Y-53450000D01*
X66773690Y-53402380D01*
X66773690Y-53497619D01*
X67154642Y-53735714D02*
X67392738Y-54402380D01*
X67630833Y-53735714D01*
X68392738Y-54354761D02*
X68297500Y-54402380D01*
X68107023Y-54402380D01*
X68011785Y-54354761D01*
X67964166Y-54259523D01*
X67964166Y-53878571D01*
X68011785Y-53783333D01*
X68107023Y-53735714D01*
X68297500Y-53735714D01*
X68392738Y-53783333D01*
X68440357Y-53878571D01*
X68440357Y-53973809D01*
X67964166Y-54069047D01*
X68868928Y-54402380D02*
X68868928Y-53735714D01*
X68868928Y-53926190D02*
X68916547Y-53830952D01*
X68964166Y-53783333D01*
X69059404Y-53735714D01*
X69154642Y-53735714D01*
X70107023Y-53402380D02*
X70440357Y-54402380D01*
X70773690Y-53402380D01*
X71630833Y-54402380D02*
X71059404Y-54402380D01*
X71345119Y-54402380D02*
X71345119Y-53402380D01*
X71249880Y-53545238D01*
X71154642Y-53640476D01*
X71059404Y-53688095D01*
X72059404Y-54307142D02*
X72107023Y-54354761D01*
X72059404Y-54402380D01*
X72011785Y-54354761D01*
X72059404Y-54307142D01*
X72059404Y-54402380D01*
X72726071Y-53402380D02*
X72821309Y-53402380D01*
X72916547Y-53450000D01*
X72964166Y-53497619D01*
X73011785Y-53592857D01*
X73059404Y-53783333D01*
X73059404Y-54021428D01*
X73011785Y-54211904D01*
X72964166Y-54307142D01*
X72916547Y-54354761D01*
X72821309Y-54402380D01*
X72726071Y-54402380D01*
X72630833Y-54354761D01*
X72583214Y-54307142D01*
X72535595Y-54211904D01*
X72487976Y-54021428D01*
X72487976Y-53783333D01*
X72535595Y-53592857D01*
X72583214Y-53497619D01*
X72630833Y-53450000D01*
X72726071Y-53402380D01*
X59487976Y-55766666D02*
X59964166Y-55766666D01*
X59392738Y-56052380D02*
X59726071Y-55052380D01*
X60059404Y-56052380D01*
X60392738Y-55957142D02*
X60440357Y-56004761D01*
X60392738Y-56052380D01*
X60345119Y-56004761D01*
X60392738Y-55957142D01*
X60392738Y-56052380D01*
X62154642Y-55100000D02*
X62059404Y-55052380D01*
X61916547Y-55052380D01*
X61773690Y-55100000D01*
X61678452Y-55195238D01*
X61630833Y-55290476D01*
X61583214Y-55480952D01*
X61583214Y-55623809D01*
X61630833Y-55814285D01*
X61678452Y-55909523D01*
X61773690Y-56004761D01*
X61916547Y-56052380D01*
X62011785Y-56052380D01*
X62154642Y-56004761D01*
X62202261Y-55957142D01*
X62202261Y-55623809D01*
X62011785Y-55623809D01*
X63011785Y-56004761D02*
X62916547Y-56052380D01*
X62726071Y-56052380D01*
X62630833Y-56004761D01*
X62583214Y-55909523D01*
X62583214Y-55528571D01*
X62630833Y-55433333D01*
X62726071Y-55385714D01*
X62916547Y-55385714D01*
X63011785Y-55433333D01*
X63059404Y-55528571D01*
X63059404Y-55623809D01*
X62583214Y-55719047D01*
X59726071Y-56702380D02*
X59821309Y-56702380D01*
X59916547Y-56750000D01*
X59964166Y-56797619D01*
X60011785Y-56892857D01*
X60059404Y-57083333D01*
X60059404Y-57321428D01*
X60011785Y-57511904D01*
X59964166Y-57607142D01*
X59916547Y-57654761D01*
X59821309Y-57702380D01*
X59726071Y-57702380D01*
X59630833Y-57654761D01*
X59583214Y-57607142D01*
X59535595Y-57511904D01*
X59487976Y-57321428D01*
X59487976Y-57083333D01*
X59535595Y-56892857D01*
X59583214Y-56797619D01*
X59630833Y-56750000D01*
X59726071Y-56702380D01*
X60392738Y-56702380D02*
X61059404Y-56702380D01*
X60630833Y-57702380D01*
X62154642Y-56654761D02*
X61297500Y-57940476D01*
X62440357Y-56797619D02*
X62487976Y-56750000D01*
X62583214Y-56702380D01*
X62821309Y-56702380D01*
X62916547Y-56750000D01*
X62964166Y-56797619D01*
X63011785Y-56892857D01*
X63011785Y-56988095D01*
X62964166Y-57130952D01*
X62392738Y-57702380D01*
X63011785Y-57702380D01*
X63630833Y-56702380D02*
X63726071Y-56702380D01*
X63821309Y-56750000D01*
X63868928Y-56797619D01*
X63916547Y-56892857D01*
X63964166Y-57083333D01*
X63964166Y-57321428D01*
X63916547Y-57511904D01*
X63868928Y-57607142D01*
X63821309Y-57654761D01*
X63726071Y-57702380D01*
X63630833Y-57702380D01*
X63535595Y-57654761D01*
X63487976Y-57607142D01*
X63440357Y-57511904D01*
X63392738Y-57321428D01*
X63392738Y-57083333D01*
X63440357Y-56892857D01*
X63487976Y-56797619D01*
X63535595Y-56750000D01*
X63630833Y-56702380D01*
X64345119Y-56797619D02*
X64392738Y-56750000D01*
X64487976Y-56702380D01*
X64726071Y-56702380D01*
X64821309Y-56750000D01*
X64868928Y-56797619D01*
X64916547Y-56892857D01*
X64916547Y-56988095D01*
X64868928Y-57130952D01*
X64297500Y-57702380D01*
X64916547Y-57702380D01*
X65868928Y-57702380D02*
X65297500Y-57702380D01*
X65583214Y-57702380D02*
X65583214Y-56702380D01*
X65487976Y-56845238D01*
X65392738Y-56940476D01*
X65297500Y-56988095D01*
D11*
%TO.C,REF\u002A\u002A*%
X52523500Y-56552000D02*
G75*
G02*
X57476500Y-56552000I2476500J0D01*
G01*
X55508000Y-57949000D02*
G75*
G02*
X55000000Y-57441000I0J508000D01*
G01*
X55000000Y-57441000D02*
G75*
G02*
X54492000Y-57949000I-508000J0D01*
G01*
X57476500Y-59600000D02*
X57476500Y-56552000D01*
X57476500Y-59600000D02*
X52523500Y-59600000D01*
X52523500Y-59600000D02*
X52523500Y-56552000D01*
X56905000Y-54901000D02*
X56397000Y-53123000D01*
X56397000Y-53123000D02*
X55889000Y-54139000D01*
X53222000Y-54774000D02*
X53730000Y-53123000D01*
X53730000Y-53123000D02*
X54238000Y-54139000D01*
D12*
X56016000Y-55536000D02*
G75*
G03*
X56016000Y-55536000I-127000J0D01*
G01*
X54365000Y-55536000D02*
G75*
G03*
X54365000Y-55536000I-127000J0D01*
G01*
D11*
X55000000Y-56425000D02*
X54492000Y-57060000D01*
X55000000Y-56425000D02*
X55508000Y-57060000D01*
X55000000Y-56552000D02*
X55000000Y-57441000D01*
D13*
%TO.C,R61*%
X142617221Y-114490000D02*
X142942779Y-114490000D01*
X142617221Y-115510000D02*
X142942779Y-115510000D01*
%TO.C,R60*%
X142617221Y-118490000D02*
X142942779Y-118490000D01*
X142617221Y-119510000D02*
X142942779Y-119510000D01*
%TO.C,R59*%
X142617221Y-122490000D02*
X142942779Y-122490000D01*
X142617221Y-123510000D02*
X142942779Y-123510000D01*
%TO.C,D50*%
X138200000Y-115685000D02*
X140685000Y-115685000D01*
X140685000Y-115685000D02*
X140685000Y-114315000D01*
X140685000Y-114315000D02*
X138200000Y-114315000D01*
%TO.C,D49*%
X138200000Y-119685000D02*
X140685000Y-119685000D01*
X140685000Y-119685000D02*
X140685000Y-118315000D01*
X140685000Y-118315000D02*
X138200000Y-118315000D01*
%TO.C,D48*%
X138200000Y-123685000D02*
X140685000Y-123685000D01*
X140685000Y-123685000D02*
X140685000Y-122315000D01*
X140685000Y-122315000D02*
X138200000Y-122315000D01*
%TO.C,R58*%
X120110000Y-122324721D02*
X120110000Y-122650279D01*
X119090000Y-122324721D02*
X119090000Y-122650279D01*
%TO.C,L2*%
X66100000Y-117950000D02*
X72200000Y-117950000D01*
X72200000Y-117950000D02*
X72200000Y-124350000D01*
D10*
X69225000Y-124650000D02*
G75*
G03*
X69225000Y-124650000I-75000J0D01*
G01*
D13*
X72200000Y-124350000D02*
X66100000Y-124350000D01*
X66100000Y-124350000D02*
X66100000Y-117950000D01*
%TO.C,Y1*%
X117600000Y-107900000D02*
X117600000Y-113650000D01*
X121200000Y-107900000D02*
X117600000Y-107900000D01*
X121200000Y-113650000D02*
X121200000Y-107900000D01*
%TO.C,U10*%
X68060000Y-91000000D02*
X68060000Y-87550000D01*
X68060000Y-91000000D02*
X68060000Y-92950000D01*
X57940000Y-91000000D02*
X57940000Y-89050000D01*
X57940000Y-91000000D02*
X57940000Y-92950000D01*
%TO.C,U9*%
X83060000Y-91000000D02*
X83060000Y-87550000D01*
X83060000Y-91000000D02*
X83060000Y-92950000D01*
X72940000Y-91000000D02*
X72940000Y-89050000D01*
X72940000Y-91000000D02*
X72940000Y-92950000D01*
%TO.C,U8*%
X98060000Y-91000000D02*
X98060000Y-87550000D01*
X98060000Y-91000000D02*
X98060000Y-92950000D01*
X87940000Y-91000000D02*
X87940000Y-89050000D01*
X87940000Y-91000000D02*
X87940000Y-92950000D01*
%TO.C,U7*%
X139300000Y-135250000D02*
X140250000Y-135250000D01*
X140250000Y-139500000D02*
X139300000Y-139500000D01*
X141050000Y-138650000D02*
X141050000Y-136050000D01*
X141050000Y-136050000D02*
X140800000Y-135800000D01*
X140400000Y-135400000D02*
X140250000Y-135250000D01*
X141050000Y-138650000D02*
X140800000Y-138900000D01*
X140400000Y-139350000D02*
X140250000Y-139500000D01*
%TO.C,U6*%
X122560000Y-133000000D02*
X122560000Y-129550000D01*
X122560000Y-133000000D02*
X122560000Y-134950000D01*
X117440000Y-133000000D02*
X117440000Y-131050000D01*
X117440000Y-133000000D02*
X117440000Y-134950000D01*
%TO.C,U5*%
X113060000Y-91000000D02*
X113060000Y-87550000D01*
X113060000Y-91000000D02*
X113060000Y-92950000D01*
X102940000Y-91000000D02*
X102940000Y-89050000D01*
X102940000Y-91000000D02*
X102940000Y-92950000D01*
%TO.C,U4*%
X128060000Y-91000000D02*
X128060000Y-87550000D01*
X128060000Y-91000000D02*
X128060000Y-92950000D01*
X117940000Y-91000000D02*
X117940000Y-89050000D01*
X117940000Y-91000000D02*
X117940000Y-92950000D01*
%TO.C,U3*%
X68800000Y-128490000D02*
X66350000Y-128490000D01*
X67000000Y-131710000D02*
X68800000Y-131710000D01*
%TO.C,U2*%
X75700000Y-144910000D02*
X78150000Y-144910000D01*
X77500000Y-141690000D02*
X75700000Y-141690000D01*
%TO.C,U1*%
X129310000Y-115265000D02*
X129310000Y-114790000D01*
X122090000Y-122010000D02*
X122565000Y-122010000D01*
X122090000Y-121535000D02*
X122090000Y-122010000D01*
X122090000Y-114790000D02*
X122565000Y-114790000D01*
X122090000Y-115265000D02*
X122090000Y-114790000D01*
X129310000Y-122010000D02*
X128835000Y-122010000D01*
X129310000Y-121535000D02*
X129310000Y-122010000D01*
%TO.C,TP1*%
X53650000Y-94950000D02*
X53650000Y-92050000D01*
X56550000Y-94950000D02*
X53650000Y-94950000D01*
X56550000Y-92050000D02*
X56550000Y-94950000D01*
X53650000Y-92050000D02*
X56550000Y-92050000D01*
%TO.C,R57*%
X74837221Y-81510000D02*
X75162779Y-81510000D01*
X74837221Y-80490000D02*
X75162779Y-80490000D01*
%TO.C,R56*%
X89837221Y-81510000D02*
X90162779Y-81510000D01*
X89837221Y-80490000D02*
X90162779Y-80490000D01*
%TO.C,R55*%
X104837221Y-81510000D02*
X105162779Y-81510000D01*
X104837221Y-80490000D02*
X105162779Y-80490000D01*
%TO.C,R54*%
X74837221Y-78510000D02*
X75162779Y-78510000D01*
X74837221Y-77490000D02*
X75162779Y-77490000D01*
%TO.C,R53*%
X89837221Y-78710000D02*
X90162779Y-78710000D01*
X89837221Y-77690000D02*
X90162779Y-77690000D01*
%TO.C,R52*%
X104837221Y-78510000D02*
X105162779Y-78510000D01*
X104837221Y-77490000D02*
X105162779Y-77490000D01*
%TO.C,R51*%
X74837221Y-75510000D02*
X75162779Y-75510000D01*
X74837221Y-74490000D02*
X75162779Y-74490000D01*
%TO.C,R50*%
X89837221Y-75510000D02*
X90162779Y-75510000D01*
X89837221Y-74490000D02*
X90162779Y-74490000D01*
%TO.C,R49*%
X104837221Y-75510000D02*
X105162779Y-75510000D01*
X104837221Y-74490000D02*
X105162779Y-74490000D01*
%TO.C,R48*%
X74837221Y-72510000D02*
X75162779Y-72510000D01*
X74837221Y-71490000D02*
X75162779Y-71490000D01*
%TO.C,R47*%
X89837221Y-72510000D02*
X90162779Y-72510000D01*
X89837221Y-71490000D02*
X90162779Y-71490000D01*
%TO.C,R46*%
X104837221Y-72510000D02*
X105162779Y-72510000D01*
X104837221Y-71490000D02*
X105162779Y-71490000D01*
%TO.C,R45*%
X74837221Y-69510000D02*
X75162779Y-69510000D01*
X74837221Y-68490000D02*
X75162779Y-68490000D01*
%TO.C,R44*%
X89837221Y-69510000D02*
X90162779Y-69510000D01*
X89837221Y-68490000D02*
X90162779Y-68490000D01*
%TO.C,R43*%
X104837221Y-69510000D02*
X105162779Y-69510000D01*
X104837221Y-68490000D02*
X105162779Y-68490000D01*
%TO.C,R42*%
X74837221Y-66510000D02*
X75162779Y-66510000D01*
X74837221Y-65490000D02*
X75162779Y-65490000D01*
%TO.C,R41*%
X89837221Y-66510000D02*
X90162779Y-66510000D01*
X89837221Y-65490000D02*
X90162779Y-65490000D01*
%TO.C,R40*%
X104837221Y-66510000D02*
X105162779Y-66510000D01*
X104837221Y-65490000D02*
X105162779Y-65490000D01*
%TO.C,R39*%
X74837221Y-63510000D02*
X75162779Y-63510000D01*
X74837221Y-62490000D02*
X75162779Y-62490000D01*
%TO.C,R38*%
X89837221Y-63510000D02*
X90162779Y-63510000D01*
X89837221Y-62490000D02*
X90162779Y-62490000D01*
%TO.C,R37*%
X104837221Y-63510000D02*
X105162779Y-63510000D01*
X104837221Y-62490000D02*
X105162779Y-62490000D01*
%TO.C,R36*%
X74837221Y-60510000D02*
X75162779Y-60510000D01*
X74837221Y-59490000D02*
X75162779Y-59490000D01*
%TO.C,R35*%
X89837221Y-60510000D02*
X90162779Y-60510000D01*
X89837221Y-59490000D02*
X90162779Y-59490000D01*
%TO.C,R34*%
X104837221Y-60510000D02*
X105162779Y-60510000D01*
X104837221Y-59490000D02*
X105162779Y-59490000D01*
%TO.C,R33*%
X119837221Y-81510000D02*
X120162779Y-81510000D01*
X119837221Y-80490000D02*
X120162779Y-80490000D01*
%TO.C,R32*%
X134837221Y-80490000D02*
X135162779Y-80490000D01*
X134837221Y-81510000D02*
X135162779Y-81510000D01*
%TO.C,R31*%
X119837221Y-78510000D02*
X120162779Y-78510000D01*
X119837221Y-77490000D02*
X120162779Y-77490000D01*
%TO.C,R30*%
X134837221Y-77490000D02*
X135162779Y-77490000D01*
X134837221Y-78510000D02*
X135162779Y-78510000D01*
%TO.C,R29*%
X119837221Y-75510000D02*
X120162779Y-75510000D01*
X119837221Y-74490000D02*
X120162779Y-74490000D01*
%TO.C,R28*%
X134837221Y-74490000D02*
X135162779Y-74490000D01*
X134837221Y-75510000D02*
X135162779Y-75510000D01*
%TO.C,R27*%
X119837221Y-72510000D02*
X120162779Y-72510000D01*
X119837221Y-71490000D02*
X120162779Y-71490000D01*
%TO.C,R26*%
X134837221Y-71490000D02*
X135162779Y-71490000D01*
X134837221Y-72510000D02*
X135162779Y-72510000D01*
%TO.C,R25*%
X119837221Y-69510000D02*
X120162779Y-69510000D01*
X119837221Y-68490000D02*
X120162779Y-68490000D01*
%TO.C,R24*%
X134837221Y-68490000D02*
X135162779Y-68490000D01*
X134837221Y-69510000D02*
X135162779Y-69510000D01*
%TO.C,R23*%
X140574721Y-134710000D02*
X140900279Y-134710000D01*
X140574721Y-133690000D02*
X140900279Y-133690000D01*
%TO.C,R22*%
X119837221Y-66510000D02*
X120162779Y-66510000D01*
X119837221Y-65490000D02*
X120162779Y-65490000D01*
%TO.C,R21*%
X134837221Y-65490000D02*
X135162779Y-65490000D01*
X134837221Y-66510000D02*
X135162779Y-66510000D01*
%TO.C,R20*%
X119837221Y-63510000D02*
X120162779Y-63510000D01*
X119837221Y-62490000D02*
X120162779Y-62490000D01*
%TO.C,R19*%
X134837221Y-62490000D02*
X135162779Y-62490000D01*
X134837221Y-63510000D02*
X135162779Y-63510000D01*
%TO.C,R18*%
X119837221Y-60510000D02*
X120162779Y-60510000D01*
X119837221Y-59490000D02*
X120162779Y-59490000D01*
%TO.C,R17*%
X134837221Y-59490000D02*
X135162779Y-59490000D01*
X134837221Y-60510000D02*
X135162779Y-60510000D01*
%TO.C,R16*%
X114837221Y-130510000D02*
X115162779Y-130510000D01*
X114837221Y-129490000D02*
X115162779Y-129490000D01*
%TO.C,R15*%
X114837221Y-134510000D02*
X115162779Y-134510000D01*
X114837221Y-133490000D02*
X115162779Y-133490000D01*
%TO.C,R14*%
X114837221Y-132510000D02*
X115162779Y-132510000D01*
X114837221Y-131490000D02*
X115162779Y-131490000D01*
%TO.C,R13*%
X101349721Y-117610000D02*
X101675279Y-117610000D01*
X101349721Y-116590000D02*
X101675279Y-116590000D01*
%TO.C,R12*%
X63910000Y-130412779D02*
X63910000Y-130087221D01*
X62890000Y-130412779D02*
X62890000Y-130087221D01*
%TO.C,R11*%
X60837221Y-131560000D02*
X61162779Y-131560000D01*
X60837221Y-130540000D02*
X61162779Y-130540000D01*
%TO.C,R10*%
X86449721Y-117610000D02*
X86775279Y-117610000D01*
X86449721Y-116590000D02*
X86775279Y-116590000D01*
%TO.C,R9*%
X68087221Y-133210000D02*
X68412779Y-133210000D01*
X68087221Y-132190000D02*
X68412779Y-132190000D01*
%TO.C,R8*%
X77202064Y-138090000D02*
X75997936Y-138090000D01*
X77202064Y-139910000D02*
X75997936Y-139910000D01*
%TO.C,R7*%
X129650279Y-126890000D02*
X129324721Y-126890000D01*
X129650279Y-127910000D02*
X129324721Y-127910000D01*
%TO.C,R6*%
X129324721Y-125910000D02*
X129650279Y-125910000D01*
X129324721Y-124890000D02*
X129650279Y-124890000D01*
%TO.C,R5*%
X131049721Y-137510000D02*
X131375279Y-137510000D01*
X131049721Y-136490000D02*
X131375279Y-136490000D01*
%TO.C,R4*%
X55037221Y-140860000D02*
X55362779Y-140860000D01*
X55037221Y-139840000D02*
X55362779Y-139840000D01*
%TO.C,R3*%
X55362779Y-141540000D02*
X55037221Y-141540000D01*
X55362779Y-142560000D02*
X55037221Y-142560000D01*
%TO.C,R2*%
X55037221Y-139160000D02*
X55362779Y-139160000D01*
X55037221Y-138140000D02*
X55362779Y-138140000D01*
%TO.C,R1*%
X131375279Y-138140000D02*
X131049721Y-138140000D01*
X131375279Y-139160000D02*
X131049721Y-139160000D01*
%TO.C,L1*%
X97370000Y-143670000D02*
X98700000Y-143670000D01*
X97370000Y-145000000D02*
X97370000Y-143670000D01*
X99970000Y-143670000D02*
X102570000Y-143670000D01*
X99970000Y-146270000D02*
X99970000Y-143670000D01*
X97370000Y-146270000D02*
X99970000Y-146270000D01*
X102570000Y-143670000D02*
X102570000Y-146330000D01*
X97370000Y-146270000D02*
X97370000Y-146330000D01*
X97370000Y-146330000D02*
X102570000Y-146330000D01*
%TO.C,J4*%
X115530000Y-126070000D02*
X115530000Y-127400000D01*
X114200000Y-126070000D02*
X115530000Y-126070000D01*
X112930000Y-126070000D02*
X112930000Y-128730000D01*
X112930000Y-128730000D02*
X105250000Y-128730000D01*
X112930000Y-126070000D02*
X105250000Y-126070000D01*
X105250000Y-126070000D02*
X105250000Y-128730000D01*
%TO.C,J3*%
X135330000Y-125410000D02*
X134000000Y-125410000D01*
X135330000Y-124080000D02*
X135330000Y-125410000D01*
X135330000Y-122810000D02*
X132670000Y-122810000D01*
X132670000Y-122810000D02*
X132670000Y-112590000D01*
X135330000Y-122810000D02*
X135330000Y-112590000D01*
X135330000Y-112590000D02*
X132670000Y-112590000D01*
%TO.C,J1*%
X92770000Y-136470000D02*
X94100000Y-136470000D01*
X92770000Y-137800000D02*
X92770000Y-136470000D01*
X92770000Y-139070000D02*
X95430000Y-139070000D01*
X95430000Y-139070000D02*
X95430000Y-141670000D01*
X92770000Y-139070000D02*
X92770000Y-141670000D01*
X92770000Y-141670000D02*
X95430000Y-141670000D01*
%TO.C,FB1*%
X81049721Y-139510000D02*
X81375279Y-139510000D01*
X81049721Y-138490000D02*
X81375279Y-138490000D01*
%TO.C,D47*%
X71685000Y-80315000D02*
X69200000Y-80315000D01*
X71685000Y-81685000D02*
X71685000Y-80315000D01*
X69200000Y-81685000D02*
X71685000Y-81685000D01*
%TO.C,D46*%
X86685000Y-80315000D02*
X84200000Y-80315000D01*
X86685000Y-81685000D02*
X86685000Y-80315000D01*
X84200000Y-81685000D02*
X86685000Y-81685000D01*
%TO.C,D45*%
X101685000Y-80315000D02*
X99200000Y-80315000D01*
X101685000Y-81685000D02*
X101685000Y-80315000D01*
X99200000Y-81685000D02*
X101685000Y-81685000D01*
%TO.C,D44*%
X71685000Y-77315000D02*
X69200000Y-77315000D01*
X71685000Y-78685000D02*
X71685000Y-77315000D01*
X69200000Y-78685000D02*
X71685000Y-78685000D01*
%TO.C,D43*%
X86685000Y-77315000D02*
X84200000Y-77315000D01*
X86685000Y-78685000D02*
X86685000Y-77315000D01*
X84200000Y-78685000D02*
X86685000Y-78685000D01*
%TO.C,D42*%
X101685000Y-77315000D02*
X99200000Y-77315000D01*
X101685000Y-78685000D02*
X101685000Y-77315000D01*
X99200000Y-78685000D02*
X101685000Y-78685000D01*
%TO.C,D41*%
X71685000Y-74315000D02*
X69200000Y-74315000D01*
X71685000Y-75685000D02*
X71685000Y-74315000D01*
X69200000Y-75685000D02*
X71685000Y-75685000D01*
%TO.C,D40*%
X86685000Y-74315000D02*
X84200000Y-74315000D01*
X86685000Y-75685000D02*
X86685000Y-74315000D01*
X84200000Y-75685000D02*
X86685000Y-75685000D01*
%TO.C,D39*%
X101685000Y-74315000D02*
X99200000Y-74315000D01*
X101685000Y-75685000D02*
X101685000Y-74315000D01*
X99200000Y-75685000D02*
X101685000Y-75685000D01*
%TO.C,D38*%
X71685000Y-71315000D02*
X69200000Y-71315000D01*
X71685000Y-72685000D02*
X71685000Y-71315000D01*
X69200000Y-72685000D02*
X71685000Y-72685000D01*
%TO.C,D37*%
X86685000Y-71315000D02*
X84200000Y-71315000D01*
X86685000Y-72685000D02*
X86685000Y-71315000D01*
X84200000Y-72685000D02*
X86685000Y-72685000D01*
%TO.C,D36*%
X101685000Y-71315000D02*
X99200000Y-71315000D01*
X101685000Y-72685000D02*
X101685000Y-71315000D01*
X99200000Y-72685000D02*
X101685000Y-72685000D01*
%TO.C,D35*%
X71685000Y-68315000D02*
X69200000Y-68315000D01*
X71685000Y-69685000D02*
X71685000Y-68315000D01*
X69200000Y-69685000D02*
X71685000Y-69685000D01*
%TO.C,D34*%
X86685000Y-68315000D02*
X84200000Y-68315000D01*
X86685000Y-69685000D02*
X86685000Y-68315000D01*
X84200000Y-69685000D02*
X86685000Y-69685000D01*
%TO.C,D33*%
X101685000Y-68315000D02*
X99200000Y-68315000D01*
X101685000Y-69685000D02*
X101685000Y-68315000D01*
X99200000Y-69685000D02*
X101685000Y-69685000D01*
%TO.C,D32*%
X71685000Y-65315000D02*
X69200000Y-65315000D01*
X71685000Y-66685000D02*
X71685000Y-65315000D01*
X69200000Y-66685000D02*
X71685000Y-66685000D01*
%TO.C,D31*%
X86685000Y-65315000D02*
X84200000Y-65315000D01*
X86685000Y-66685000D02*
X86685000Y-65315000D01*
X84200000Y-66685000D02*
X86685000Y-66685000D01*
%TO.C,D30*%
X101685000Y-65315000D02*
X99200000Y-65315000D01*
X101685000Y-66685000D02*
X101685000Y-65315000D01*
X99200000Y-66685000D02*
X101685000Y-66685000D01*
%TO.C,D29*%
X71685000Y-62315000D02*
X69200000Y-62315000D01*
X71685000Y-63685000D02*
X71685000Y-62315000D01*
X69200000Y-63685000D02*
X71685000Y-63685000D01*
%TO.C,D28*%
X86685000Y-62315000D02*
X84200000Y-62315000D01*
X86685000Y-63685000D02*
X86685000Y-62315000D01*
X84200000Y-63685000D02*
X86685000Y-63685000D01*
%TO.C,D27*%
X101685000Y-62315000D02*
X99200000Y-62315000D01*
X101685000Y-63685000D02*
X101685000Y-62315000D01*
X99200000Y-63685000D02*
X101685000Y-63685000D01*
%TO.C,D26*%
X71685000Y-59315000D02*
X69200000Y-59315000D01*
X71685000Y-60685000D02*
X71685000Y-59315000D01*
X69200000Y-60685000D02*
X71685000Y-60685000D01*
%TO.C,D25*%
X86685000Y-59315000D02*
X84200000Y-59315000D01*
X86685000Y-60685000D02*
X86685000Y-59315000D01*
X84200000Y-60685000D02*
X86685000Y-60685000D01*
%TO.C,D24*%
X101685000Y-59315000D02*
X99200000Y-59315000D01*
X101685000Y-60685000D02*
X101685000Y-59315000D01*
X99200000Y-60685000D02*
X101685000Y-60685000D01*
%TO.C,D23*%
X116685000Y-80315000D02*
X114200000Y-80315000D01*
X116685000Y-81685000D02*
X116685000Y-80315000D01*
X114200000Y-81685000D02*
X116685000Y-81685000D01*
%TO.C,D22*%
X129200000Y-81685000D02*
X131685000Y-81685000D01*
X131685000Y-81685000D02*
X131685000Y-80315000D01*
X131685000Y-80315000D02*
X129200000Y-80315000D01*
%TO.C,D21*%
X116685000Y-77315000D02*
X114200000Y-77315000D01*
X116685000Y-78685000D02*
X116685000Y-77315000D01*
X114200000Y-78685000D02*
X116685000Y-78685000D01*
%TO.C,D20*%
X129200000Y-78685000D02*
X131685000Y-78685000D01*
X131685000Y-78685000D02*
X131685000Y-77315000D01*
X131685000Y-77315000D02*
X129200000Y-77315000D01*
%TO.C,D19*%
X116685000Y-74315000D02*
X114200000Y-74315000D01*
X116685000Y-75685000D02*
X116685000Y-74315000D01*
X114200000Y-75685000D02*
X116685000Y-75685000D01*
%TO.C,D18*%
X129200000Y-75685000D02*
X131685000Y-75685000D01*
X131685000Y-75685000D02*
X131685000Y-74315000D01*
X131685000Y-74315000D02*
X129200000Y-74315000D01*
%TO.C,D17*%
X116685000Y-71315000D02*
X114200000Y-71315000D01*
X116685000Y-72685000D02*
X116685000Y-71315000D01*
X114200000Y-72685000D02*
X116685000Y-72685000D01*
%TO.C,D16*%
X129200000Y-72685000D02*
X131685000Y-72685000D01*
X131685000Y-72685000D02*
X131685000Y-71315000D01*
X131685000Y-71315000D02*
X129200000Y-71315000D01*
%TO.C,D15*%
X116685000Y-68315000D02*
X114200000Y-68315000D01*
X116685000Y-69685000D02*
X116685000Y-68315000D01*
X114200000Y-69685000D02*
X116685000Y-69685000D01*
%TO.C,D14*%
X129200000Y-69685000D02*
X131685000Y-69685000D01*
X131685000Y-69685000D02*
X131685000Y-68315000D01*
X131685000Y-68315000D02*
X129200000Y-68315000D01*
%TO.C,D13*%
X116685000Y-65315000D02*
X114200000Y-65315000D01*
X116685000Y-66685000D02*
X116685000Y-65315000D01*
X114200000Y-66685000D02*
X116685000Y-66685000D01*
%TO.C,D12*%
X129200000Y-66685000D02*
X131685000Y-66685000D01*
X131685000Y-66685000D02*
X131685000Y-65315000D01*
X131685000Y-65315000D02*
X129200000Y-65315000D01*
%TO.C,D11*%
X116685000Y-62315000D02*
X114200000Y-62315000D01*
X116685000Y-63685000D02*
X116685000Y-62315000D01*
X114200000Y-63685000D02*
X116685000Y-63685000D01*
%TO.C,D10*%
X129200000Y-63685000D02*
X131685000Y-63685000D01*
X131685000Y-63685000D02*
X131685000Y-62315000D01*
X131685000Y-62315000D02*
X129200000Y-62315000D01*
%TO.C,D9*%
X116685000Y-59315000D02*
X114200000Y-59315000D01*
X116685000Y-60685000D02*
X116685000Y-59315000D01*
X114200000Y-60685000D02*
X116685000Y-60685000D01*
%TO.C,D8*%
X129200000Y-60685000D02*
X131685000Y-60685000D01*
X131685000Y-60685000D02*
X131685000Y-59315000D01*
X131685000Y-59315000D02*
X129200000Y-59315000D01*
%TO.C,D7*%
X67600000Y-124650000D02*
X73000000Y-124650000D01*
X67600000Y-127950000D02*
X73000000Y-127950000D01*
X67600000Y-124650000D02*
X67600000Y-127950000D01*
%TO.C,D6*%
X63800000Y-128250000D02*
X63800000Y-124350000D01*
X65800000Y-128250000D02*
X65800000Y-124350000D01*
X63800000Y-128250000D02*
X65800000Y-128250000D01*
%TO.C,D5*%
X53950000Y-135900000D02*
X56500000Y-135900000D01*
X53950000Y-137600000D02*
X56500000Y-137600000D01*
X53950000Y-135900000D02*
X53950000Y-137600000D01*
%TO.C,D4*%
X91300000Y-146650000D02*
X85900000Y-146650000D01*
X91300000Y-143350000D02*
X85900000Y-143350000D01*
X91300000Y-146650000D02*
X91300000Y-143350000D01*
%TO.C,D3*%
X91300000Y-134650000D02*
X85900000Y-134650000D01*
X91300000Y-131350000D02*
X85900000Y-131350000D01*
X91300000Y-134650000D02*
X91300000Y-131350000D01*
%TO.C,D2*%
X84500000Y-139350000D02*
X89900000Y-139350000D01*
X84500000Y-142650000D02*
X89900000Y-142650000D01*
X84500000Y-139350000D02*
X84500000Y-142650000D01*
%TO.C,D1*%
X84500000Y-135350000D02*
X89900000Y-135350000D01*
X84500000Y-138650000D02*
X89900000Y-138650000D01*
X84500000Y-135350000D02*
X84500000Y-138650000D01*
%TO.C,C18*%
X74840000Y-122437221D02*
X74840000Y-122762779D01*
X75860000Y-122437221D02*
X75860000Y-122762779D01*
%TO.C,C17*%
X73240000Y-122437221D02*
X73240000Y-122762779D01*
X74260000Y-122437221D02*
X74260000Y-122762779D01*
%TO.C,C10*%
X71624721Y-130610000D02*
X71950279Y-130610000D01*
X71624721Y-129590000D02*
X71950279Y-129590000D01*
%TO.C,C9*%
X73125000Y-142385000D02*
X73125000Y-141135000D01*
X73750000Y-141760000D02*
X72500000Y-141760000D01*
X72260000Y-134804437D02*
X71195563Y-133740000D01*
X72260000Y-143195563D02*
X71195563Y-144260000D01*
X72260000Y-143195563D02*
X72260000Y-140510000D01*
X72260000Y-134804437D02*
X72260000Y-137490000D01*
X71195563Y-133740000D02*
X61740000Y-133740000D01*
X71195563Y-144260000D02*
X61740000Y-144260000D01*
X61740000Y-144260000D02*
X61740000Y-140510000D01*
X61740000Y-133740000D02*
X61740000Y-137490000D01*
%TO.C,C5*%
X125575279Y-110490000D02*
X125249721Y-110490000D01*
X125575279Y-111510000D02*
X125249721Y-111510000D01*
%TO.C,C4*%
X128324721Y-111510000D02*
X128650279Y-111510000D01*
X128324721Y-110490000D02*
X128650279Y-110490000D01*
%TO.C,C1*%
X96280000Y-142170000D02*
X96280000Y-133430000D01*
X103720000Y-142170000D02*
X103720000Y-133430000D01*
X103720000Y-133430000D02*
X96280000Y-133430000D01*
X103720000Y-142170000D02*
X96280000Y-142170000D01*
%TO.C,R61*%
D10*
X142137142Y-116952380D02*
X141803809Y-116476190D01*
X141565714Y-116952380D02*
X141565714Y-115952380D01*
X141946666Y-115952380D01*
X142041904Y-116000000D01*
X142089523Y-116047619D01*
X142137142Y-116142857D01*
X142137142Y-116285714D01*
X142089523Y-116380952D01*
X142041904Y-116428571D01*
X141946666Y-116476190D01*
X141565714Y-116476190D01*
X142994285Y-115952380D02*
X142803809Y-115952380D01*
X142708571Y-116000000D01*
X142660952Y-116047619D01*
X142565714Y-116190476D01*
X142518095Y-116380952D01*
X142518095Y-116761904D01*
X142565714Y-116857142D01*
X142613333Y-116904761D01*
X142708571Y-116952380D01*
X142899047Y-116952380D01*
X142994285Y-116904761D01*
X143041904Y-116857142D01*
X143089523Y-116761904D01*
X143089523Y-116523809D01*
X143041904Y-116428571D01*
X142994285Y-116380952D01*
X142899047Y-116333333D01*
X142708571Y-116333333D01*
X142613333Y-116380952D01*
X142565714Y-116428571D01*
X142518095Y-116523809D01*
X144041904Y-116952380D02*
X143470476Y-116952380D01*
X143756190Y-116952380D02*
X143756190Y-115952380D01*
X143660952Y-116095238D01*
X143565714Y-116190476D01*
X143470476Y-116238095D01*
%TO.C,R60*%
X142137142Y-120952380D02*
X141803809Y-120476190D01*
X141565714Y-120952380D02*
X141565714Y-119952380D01*
X141946666Y-119952380D01*
X142041904Y-120000000D01*
X142089523Y-120047619D01*
X142137142Y-120142857D01*
X142137142Y-120285714D01*
X142089523Y-120380952D01*
X142041904Y-120428571D01*
X141946666Y-120476190D01*
X141565714Y-120476190D01*
X142994285Y-119952380D02*
X142803809Y-119952380D01*
X142708571Y-120000000D01*
X142660952Y-120047619D01*
X142565714Y-120190476D01*
X142518095Y-120380952D01*
X142518095Y-120761904D01*
X142565714Y-120857142D01*
X142613333Y-120904761D01*
X142708571Y-120952380D01*
X142899047Y-120952380D01*
X142994285Y-120904761D01*
X143041904Y-120857142D01*
X143089523Y-120761904D01*
X143089523Y-120523809D01*
X143041904Y-120428571D01*
X142994285Y-120380952D01*
X142899047Y-120333333D01*
X142708571Y-120333333D01*
X142613333Y-120380952D01*
X142565714Y-120428571D01*
X142518095Y-120523809D01*
X143708571Y-119952380D02*
X143803809Y-119952380D01*
X143899047Y-120000000D01*
X143946666Y-120047619D01*
X143994285Y-120142857D01*
X144041904Y-120333333D01*
X144041904Y-120571428D01*
X143994285Y-120761904D01*
X143946666Y-120857142D01*
X143899047Y-120904761D01*
X143803809Y-120952380D01*
X143708571Y-120952380D01*
X143613333Y-120904761D01*
X143565714Y-120857142D01*
X143518095Y-120761904D01*
X143470476Y-120571428D01*
X143470476Y-120333333D01*
X143518095Y-120142857D01*
X143565714Y-120047619D01*
X143613333Y-120000000D01*
X143708571Y-119952380D01*
%TO.C,R59*%
X142137142Y-124952380D02*
X141803809Y-124476190D01*
X141565714Y-124952380D02*
X141565714Y-123952380D01*
X141946666Y-123952380D01*
X142041904Y-124000000D01*
X142089523Y-124047619D01*
X142137142Y-124142857D01*
X142137142Y-124285714D01*
X142089523Y-124380952D01*
X142041904Y-124428571D01*
X141946666Y-124476190D01*
X141565714Y-124476190D01*
X143041904Y-123952380D02*
X142565714Y-123952380D01*
X142518095Y-124428571D01*
X142565714Y-124380952D01*
X142660952Y-124333333D01*
X142899047Y-124333333D01*
X142994285Y-124380952D01*
X143041904Y-124428571D01*
X143089523Y-124523809D01*
X143089523Y-124761904D01*
X143041904Y-124857142D01*
X142994285Y-124904761D01*
X142899047Y-124952380D01*
X142660952Y-124952380D01*
X142565714Y-124904761D01*
X142518095Y-124857142D01*
X143565714Y-124952380D02*
X143756190Y-124952380D01*
X143851428Y-124904761D01*
X143899047Y-124857142D01*
X143994285Y-124714285D01*
X144041904Y-124523809D01*
X144041904Y-124142857D01*
X143994285Y-124047619D01*
X143946666Y-124000000D01*
X143851428Y-123952380D01*
X143660952Y-123952380D01*
X143565714Y-124000000D01*
X143518095Y-124047619D01*
X143470476Y-124142857D01*
X143470476Y-124380952D01*
X143518095Y-124476190D01*
X143565714Y-124523809D01*
X143660952Y-124571428D01*
X143851428Y-124571428D01*
X143946666Y-124523809D01*
X143994285Y-124476190D01*
X144041904Y-124380952D01*
%TO.C,D50*%
X137785714Y-116952380D02*
X137785714Y-115952380D01*
X138023809Y-115952380D01*
X138166666Y-116000000D01*
X138261904Y-116095238D01*
X138309523Y-116190476D01*
X138357142Y-116380952D01*
X138357142Y-116523809D01*
X138309523Y-116714285D01*
X138261904Y-116809523D01*
X138166666Y-116904761D01*
X138023809Y-116952380D01*
X137785714Y-116952380D01*
X139261904Y-115952380D02*
X138785714Y-115952380D01*
X138738095Y-116428571D01*
X138785714Y-116380952D01*
X138880952Y-116333333D01*
X139119047Y-116333333D01*
X139214285Y-116380952D01*
X139261904Y-116428571D01*
X139309523Y-116523809D01*
X139309523Y-116761904D01*
X139261904Y-116857142D01*
X139214285Y-116904761D01*
X139119047Y-116952380D01*
X138880952Y-116952380D01*
X138785714Y-116904761D01*
X138738095Y-116857142D01*
X139928571Y-115952380D02*
X140023809Y-115952380D01*
X140119047Y-116000000D01*
X140166666Y-116047619D01*
X140214285Y-116142857D01*
X140261904Y-116333333D01*
X140261904Y-116571428D01*
X140214285Y-116761904D01*
X140166666Y-116857142D01*
X140119047Y-116904761D01*
X140023809Y-116952380D01*
X139928571Y-116952380D01*
X139833333Y-116904761D01*
X139785714Y-116857142D01*
X139738095Y-116761904D01*
X139690476Y-116571428D01*
X139690476Y-116333333D01*
X139738095Y-116142857D01*
X139785714Y-116047619D01*
X139833333Y-116000000D01*
X139928571Y-115952380D01*
%TO.C,D49*%
X137785714Y-120952380D02*
X137785714Y-119952380D01*
X138023809Y-119952380D01*
X138166666Y-120000000D01*
X138261904Y-120095238D01*
X138309523Y-120190476D01*
X138357142Y-120380952D01*
X138357142Y-120523809D01*
X138309523Y-120714285D01*
X138261904Y-120809523D01*
X138166666Y-120904761D01*
X138023809Y-120952380D01*
X137785714Y-120952380D01*
X139214285Y-120285714D02*
X139214285Y-120952380D01*
X138976190Y-119904761D02*
X138738095Y-120619047D01*
X139357142Y-120619047D01*
X139785714Y-120952380D02*
X139976190Y-120952380D01*
X140071428Y-120904761D01*
X140119047Y-120857142D01*
X140214285Y-120714285D01*
X140261904Y-120523809D01*
X140261904Y-120142857D01*
X140214285Y-120047619D01*
X140166666Y-120000000D01*
X140071428Y-119952380D01*
X139880952Y-119952380D01*
X139785714Y-120000000D01*
X139738095Y-120047619D01*
X139690476Y-120142857D01*
X139690476Y-120380952D01*
X139738095Y-120476190D01*
X139785714Y-120523809D01*
X139880952Y-120571428D01*
X140071428Y-120571428D01*
X140166666Y-120523809D01*
X140214285Y-120476190D01*
X140261904Y-120380952D01*
%TO.C,D48*%
X137785714Y-124952380D02*
X137785714Y-123952380D01*
X138023809Y-123952380D01*
X138166666Y-124000000D01*
X138261904Y-124095238D01*
X138309523Y-124190476D01*
X138357142Y-124380952D01*
X138357142Y-124523809D01*
X138309523Y-124714285D01*
X138261904Y-124809523D01*
X138166666Y-124904761D01*
X138023809Y-124952380D01*
X137785714Y-124952380D01*
X139214285Y-124285714D02*
X139214285Y-124952380D01*
X138976190Y-123904761D02*
X138738095Y-124619047D01*
X139357142Y-124619047D01*
X139880952Y-124380952D02*
X139785714Y-124333333D01*
X139738095Y-124285714D01*
X139690476Y-124190476D01*
X139690476Y-124142857D01*
X139738095Y-124047619D01*
X139785714Y-124000000D01*
X139880952Y-123952380D01*
X140071428Y-123952380D01*
X140166666Y-124000000D01*
X140214285Y-124047619D01*
X140261904Y-124142857D01*
X140261904Y-124190476D01*
X140214285Y-124285714D01*
X140166666Y-124333333D01*
X140071428Y-124380952D01*
X139880952Y-124380952D01*
X139785714Y-124428571D01*
X139738095Y-124476190D01*
X139690476Y-124571428D01*
X139690476Y-124761904D01*
X139738095Y-124857142D01*
X139785714Y-124904761D01*
X139880952Y-124952380D01*
X140071428Y-124952380D01*
X140166666Y-124904761D01*
X140214285Y-124857142D01*
X140261904Y-124761904D01*
X140261904Y-124571428D01*
X140214285Y-124476190D01*
X140166666Y-124428571D01*
X140071428Y-124380952D01*
%TO.C,R58*%
X120052380Y-120242857D02*
X119576190Y-120576190D01*
X120052380Y-120814285D02*
X119052380Y-120814285D01*
X119052380Y-120433333D01*
X119100000Y-120338095D01*
X119147619Y-120290476D01*
X119242857Y-120242857D01*
X119385714Y-120242857D01*
X119480952Y-120290476D01*
X119528571Y-120338095D01*
X119576190Y-120433333D01*
X119576190Y-120814285D01*
X119052380Y-119338095D02*
X119052380Y-119814285D01*
X119528571Y-119861904D01*
X119480952Y-119814285D01*
X119433333Y-119719047D01*
X119433333Y-119480952D01*
X119480952Y-119385714D01*
X119528571Y-119338095D01*
X119623809Y-119290476D01*
X119861904Y-119290476D01*
X119957142Y-119338095D01*
X120004761Y-119385714D01*
X120052380Y-119480952D01*
X120052380Y-119719047D01*
X120004761Y-119814285D01*
X119957142Y-119861904D01*
X119480952Y-118719047D02*
X119433333Y-118814285D01*
X119385714Y-118861904D01*
X119290476Y-118909523D01*
X119242857Y-118909523D01*
X119147619Y-118861904D01*
X119100000Y-118814285D01*
X119052380Y-118719047D01*
X119052380Y-118528571D01*
X119100000Y-118433333D01*
X119147619Y-118385714D01*
X119242857Y-118338095D01*
X119290476Y-118338095D01*
X119385714Y-118385714D01*
X119433333Y-118433333D01*
X119480952Y-118528571D01*
X119480952Y-118719047D01*
X119528571Y-118814285D01*
X119576190Y-118861904D01*
X119671428Y-118909523D01*
X119861904Y-118909523D01*
X119957142Y-118861904D01*
X120004761Y-118814285D01*
X120052380Y-118719047D01*
X120052380Y-118528571D01*
X120004761Y-118433333D01*
X119957142Y-118385714D01*
X119861904Y-118338095D01*
X119671428Y-118338095D01*
X119576190Y-118385714D01*
X119528571Y-118433333D01*
X119480952Y-118528571D01*
%TO.C,L2*%
X68983333Y-117652380D02*
X68507142Y-117652380D01*
X68507142Y-116652380D01*
X69269047Y-116747619D02*
X69316666Y-116700000D01*
X69411904Y-116652380D01*
X69650000Y-116652380D01*
X69745238Y-116700000D01*
X69792857Y-116747619D01*
X69840476Y-116842857D01*
X69840476Y-116938095D01*
X69792857Y-117080952D01*
X69221428Y-117652380D01*
X69840476Y-117652380D01*
%TO.C,J2*%
X136066666Y-133452380D02*
X136066666Y-134166666D01*
X136019047Y-134309523D01*
X135923809Y-134404761D01*
X135780952Y-134452380D01*
X135685714Y-134452380D01*
X136495238Y-133547619D02*
X136542857Y-133500000D01*
X136638095Y-133452380D01*
X136876190Y-133452380D01*
X136971428Y-133500000D01*
X137019047Y-133547619D01*
X137066666Y-133642857D01*
X137066666Y-133738095D01*
X137019047Y-133880952D01*
X136447619Y-134452380D01*
X137066666Y-134452380D01*
%TO.C,C24*%
X118557142Y-120242857D02*
X118604761Y-120290476D01*
X118652380Y-120433333D01*
X118652380Y-120528571D01*
X118604761Y-120671428D01*
X118509523Y-120766666D01*
X118414285Y-120814285D01*
X118223809Y-120861904D01*
X118080952Y-120861904D01*
X117890476Y-120814285D01*
X117795238Y-120766666D01*
X117700000Y-120671428D01*
X117652380Y-120528571D01*
X117652380Y-120433333D01*
X117700000Y-120290476D01*
X117747619Y-120242857D01*
X117747619Y-119861904D02*
X117700000Y-119814285D01*
X117652380Y-119719047D01*
X117652380Y-119480952D01*
X117700000Y-119385714D01*
X117747619Y-119338095D01*
X117842857Y-119290476D01*
X117938095Y-119290476D01*
X118080952Y-119338095D01*
X118652380Y-119909523D01*
X118652380Y-119290476D01*
X117985714Y-118433333D02*
X118652380Y-118433333D01*
X117604761Y-118671428D02*
X118319047Y-118909523D01*
X118319047Y-118290476D01*
%TO.C,Y1*%
X122176190Y-111426190D02*
X122652380Y-111426190D01*
X121652380Y-111759523D02*
X122176190Y-111426190D01*
X121652380Y-111092857D01*
X122652380Y-110235714D02*
X122652380Y-110807142D01*
X122652380Y-110521428D02*
X121652380Y-110521428D01*
X121795238Y-110616666D01*
X121890476Y-110711904D01*
X121938095Y-110807142D01*
%TO.C,U10*%
X68352380Y-92238095D02*
X69161904Y-92238095D01*
X69257142Y-92190476D01*
X69304761Y-92142857D01*
X69352380Y-92047619D01*
X69352380Y-91857142D01*
X69304761Y-91761904D01*
X69257142Y-91714285D01*
X69161904Y-91666666D01*
X68352380Y-91666666D01*
X69352380Y-90666666D02*
X69352380Y-91238095D01*
X69352380Y-90952380D02*
X68352380Y-90952380D01*
X68495238Y-91047619D01*
X68590476Y-91142857D01*
X68638095Y-91238095D01*
X68352380Y-90047619D02*
X68352380Y-89952380D01*
X68400000Y-89857142D01*
X68447619Y-89809523D01*
X68542857Y-89761904D01*
X68733333Y-89714285D01*
X68971428Y-89714285D01*
X69161904Y-89761904D01*
X69257142Y-89809523D01*
X69304761Y-89857142D01*
X69352380Y-89952380D01*
X69352380Y-90047619D01*
X69304761Y-90142857D01*
X69257142Y-90190476D01*
X69161904Y-90238095D01*
X68971428Y-90285714D01*
X68733333Y-90285714D01*
X68542857Y-90238095D01*
X68447619Y-90190476D01*
X68400000Y-90142857D01*
X68352380Y-90047619D01*
%TO.C,U9*%
X83352380Y-91761904D02*
X84161904Y-91761904D01*
X84257142Y-91714285D01*
X84304761Y-91666666D01*
X84352380Y-91571428D01*
X84352380Y-91380952D01*
X84304761Y-91285714D01*
X84257142Y-91238095D01*
X84161904Y-91190476D01*
X83352380Y-91190476D01*
X84352380Y-90666666D02*
X84352380Y-90476190D01*
X84304761Y-90380952D01*
X84257142Y-90333333D01*
X84114285Y-90238095D01*
X83923809Y-90190476D01*
X83542857Y-90190476D01*
X83447619Y-90238095D01*
X83400000Y-90285714D01*
X83352380Y-90380952D01*
X83352380Y-90571428D01*
X83400000Y-90666666D01*
X83447619Y-90714285D01*
X83542857Y-90761904D01*
X83780952Y-90761904D01*
X83876190Y-90714285D01*
X83923809Y-90666666D01*
X83971428Y-90571428D01*
X83971428Y-90380952D01*
X83923809Y-90285714D01*
X83876190Y-90238095D01*
X83780952Y-90190476D01*
%TO.C,U8*%
X98352380Y-91761904D02*
X99161904Y-91761904D01*
X99257142Y-91714285D01*
X99304761Y-91666666D01*
X99352380Y-91571428D01*
X99352380Y-91380952D01*
X99304761Y-91285714D01*
X99257142Y-91238095D01*
X99161904Y-91190476D01*
X98352380Y-91190476D01*
X98780952Y-90571428D02*
X98733333Y-90666666D01*
X98685714Y-90714285D01*
X98590476Y-90761904D01*
X98542857Y-90761904D01*
X98447619Y-90714285D01*
X98400000Y-90666666D01*
X98352380Y-90571428D01*
X98352380Y-90380952D01*
X98400000Y-90285714D01*
X98447619Y-90238095D01*
X98542857Y-90190476D01*
X98590476Y-90190476D01*
X98685714Y-90238095D01*
X98733333Y-90285714D01*
X98780952Y-90380952D01*
X98780952Y-90571428D01*
X98828571Y-90666666D01*
X98876190Y-90714285D01*
X98971428Y-90761904D01*
X99161904Y-90761904D01*
X99257142Y-90714285D01*
X99304761Y-90666666D01*
X99352380Y-90571428D01*
X99352380Y-90380952D01*
X99304761Y-90285714D01*
X99257142Y-90238095D01*
X99161904Y-90190476D01*
X98971428Y-90190476D01*
X98876190Y-90238095D01*
X98828571Y-90285714D01*
X98780952Y-90380952D01*
%TO.C,U7*%
X137952380Y-138131904D02*
X138761904Y-138131904D01*
X138857142Y-138084285D01*
X138904761Y-138036666D01*
X138952380Y-137941428D01*
X138952380Y-137750952D01*
X138904761Y-137655714D01*
X138857142Y-137608095D01*
X138761904Y-137560476D01*
X137952380Y-137560476D01*
X137952380Y-137179523D02*
X137952380Y-136512857D01*
X138952380Y-136941428D01*
%TO.C,U6*%
X122852380Y-133761904D02*
X123661904Y-133761904D01*
X123757142Y-133714285D01*
X123804761Y-133666666D01*
X123852380Y-133571428D01*
X123852380Y-133380952D01*
X123804761Y-133285714D01*
X123757142Y-133238095D01*
X123661904Y-133190476D01*
X122852380Y-133190476D01*
X122852380Y-132285714D02*
X122852380Y-132476190D01*
X122900000Y-132571428D01*
X122947619Y-132619047D01*
X123090476Y-132714285D01*
X123280952Y-132761904D01*
X123661904Y-132761904D01*
X123757142Y-132714285D01*
X123804761Y-132666666D01*
X123852380Y-132571428D01*
X123852380Y-132380952D01*
X123804761Y-132285714D01*
X123757142Y-132238095D01*
X123661904Y-132190476D01*
X123423809Y-132190476D01*
X123328571Y-132238095D01*
X123280952Y-132285714D01*
X123233333Y-132380952D01*
X123233333Y-132571428D01*
X123280952Y-132666666D01*
X123328571Y-132714285D01*
X123423809Y-132761904D01*
%TO.C,U5*%
X113352380Y-91761904D02*
X114161904Y-91761904D01*
X114257142Y-91714285D01*
X114304761Y-91666666D01*
X114352380Y-91571428D01*
X114352380Y-91380952D01*
X114304761Y-91285714D01*
X114257142Y-91238095D01*
X114161904Y-91190476D01*
X113352380Y-91190476D01*
X113352380Y-90238095D02*
X113352380Y-90714285D01*
X113828571Y-90761904D01*
X113780952Y-90714285D01*
X113733333Y-90619047D01*
X113733333Y-90380952D01*
X113780952Y-90285714D01*
X113828571Y-90238095D01*
X113923809Y-90190476D01*
X114161904Y-90190476D01*
X114257142Y-90238095D01*
X114304761Y-90285714D01*
X114352380Y-90380952D01*
X114352380Y-90619047D01*
X114304761Y-90714285D01*
X114257142Y-90761904D01*
%TO.C,U4*%
X128352380Y-91761904D02*
X129161904Y-91761904D01*
X129257142Y-91714285D01*
X129304761Y-91666666D01*
X129352380Y-91571428D01*
X129352380Y-91380952D01*
X129304761Y-91285714D01*
X129257142Y-91238095D01*
X129161904Y-91190476D01*
X128352380Y-91190476D01*
X128685714Y-90285714D02*
X129352380Y-90285714D01*
X128304761Y-90523809D02*
X129019047Y-90761904D01*
X129019047Y-90142857D01*
%TO.C,U3*%
X70038095Y-128152380D02*
X70038095Y-128961904D01*
X70085714Y-129057142D01*
X70133333Y-129104761D01*
X70228571Y-129152380D01*
X70419047Y-129152380D01*
X70514285Y-129104761D01*
X70561904Y-129057142D01*
X70609523Y-128961904D01*
X70609523Y-128152380D01*
X70990476Y-128152380D02*
X71609523Y-128152380D01*
X71276190Y-128533333D01*
X71419047Y-128533333D01*
X71514285Y-128580952D01*
X71561904Y-128628571D01*
X71609523Y-128723809D01*
X71609523Y-128961904D01*
X71561904Y-129057142D01*
X71514285Y-129104761D01*
X71419047Y-129152380D01*
X71133333Y-129152380D01*
X71038095Y-129104761D01*
X70990476Y-129057142D01*
%TO.C,U2*%
X75838095Y-140352380D02*
X75838095Y-141161904D01*
X75885714Y-141257142D01*
X75933333Y-141304761D01*
X76028571Y-141352380D01*
X76219047Y-141352380D01*
X76314285Y-141304761D01*
X76361904Y-141257142D01*
X76409523Y-141161904D01*
X76409523Y-140352380D01*
X76838095Y-140447619D02*
X76885714Y-140400000D01*
X76980952Y-140352380D01*
X77219047Y-140352380D01*
X77314285Y-140400000D01*
X77361904Y-140447619D01*
X77409523Y-140542857D01*
X77409523Y-140638095D01*
X77361904Y-140780952D01*
X76790476Y-141352380D01*
X77409523Y-141352380D01*
%TO.C,U1*%
X121738095Y-122752380D02*
X121738095Y-123561904D01*
X121785714Y-123657142D01*
X121833333Y-123704761D01*
X121928571Y-123752380D01*
X122119047Y-123752380D01*
X122214285Y-123704761D01*
X122261904Y-123657142D01*
X122309523Y-123561904D01*
X122309523Y-122752380D01*
X123309523Y-123752380D02*
X122738095Y-123752380D01*
X123023809Y-123752380D02*
X123023809Y-122752380D01*
X122928571Y-122895238D01*
X122833333Y-122990476D01*
X122738095Y-123038095D01*
%TO.C,TP1*%
X53838095Y-90804380D02*
X54409523Y-90804380D01*
X54123809Y-91804380D02*
X54123809Y-90804380D01*
X54742857Y-91804380D02*
X54742857Y-90804380D01*
X55123809Y-90804380D01*
X55219047Y-90852000D01*
X55266666Y-90899619D01*
X55314285Y-90994857D01*
X55314285Y-91137714D01*
X55266666Y-91232952D01*
X55219047Y-91280571D01*
X55123809Y-91328190D01*
X54742857Y-91328190D01*
X56266666Y-91804380D02*
X55695238Y-91804380D01*
X55980952Y-91804380D02*
X55980952Y-90804380D01*
X55885714Y-90947238D01*
X55790476Y-91042476D01*
X55695238Y-91090095D01*
%TO.C,SW3*%
X103666666Y-110804761D02*
X103809523Y-110852380D01*
X104047619Y-110852380D01*
X104142857Y-110804761D01*
X104190476Y-110757142D01*
X104238095Y-110661904D01*
X104238095Y-110566666D01*
X104190476Y-110471428D01*
X104142857Y-110423809D01*
X104047619Y-110376190D01*
X103857142Y-110328571D01*
X103761904Y-110280952D01*
X103714285Y-110233333D01*
X103666666Y-110138095D01*
X103666666Y-110042857D01*
X103714285Y-109947619D01*
X103761904Y-109900000D01*
X103857142Y-109852380D01*
X104095238Y-109852380D01*
X104238095Y-109900000D01*
X104571428Y-109852380D02*
X104809523Y-110852380D01*
X105000000Y-110138095D01*
X105190476Y-110852380D01*
X105428571Y-109852380D01*
X105714285Y-109852380D02*
X106333333Y-109852380D01*
X106000000Y-110233333D01*
X106142857Y-110233333D01*
X106238095Y-110280952D01*
X106285714Y-110328571D01*
X106333333Y-110423809D01*
X106333333Y-110661904D01*
X106285714Y-110757142D01*
X106238095Y-110804761D01*
X106142857Y-110852380D01*
X105857142Y-110852380D01*
X105761904Y-110804761D01*
X105714285Y-110757142D01*
%TO.C,SW2*%
X88666666Y-110904761D02*
X88809523Y-110952380D01*
X89047619Y-110952380D01*
X89142857Y-110904761D01*
X89190476Y-110857142D01*
X89238095Y-110761904D01*
X89238095Y-110666666D01*
X89190476Y-110571428D01*
X89142857Y-110523809D01*
X89047619Y-110476190D01*
X88857142Y-110428571D01*
X88761904Y-110380952D01*
X88714285Y-110333333D01*
X88666666Y-110238095D01*
X88666666Y-110142857D01*
X88714285Y-110047619D01*
X88761904Y-110000000D01*
X88857142Y-109952380D01*
X89095238Y-109952380D01*
X89238095Y-110000000D01*
X89571428Y-109952380D02*
X89809523Y-110952380D01*
X90000000Y-110238095D01*
X90190476Y-110952380D01*
X90428571Y-109952380D01*
X90761904Y-110047619D02*
X90809523Y-110000000D01*
X90904761Y-109952380D01*
X91142857Y-109952380D01*
X91238095Y-110000000D01*
X91285714Y-110047619D01*
X91333333Y-110142857D01*
X91333333Y-110238095D01*
X91285714Y-110380952D01*
X90714285Y-110952380D01*
X91333333Y-110952380D01*
%TO.C,SW1*%
X129666666Y-147504761D02*
X129809523Y-147552380D01*
X130047619Y-147552380D01*
X130142857Y-147504761D01*
X130190476Y-147457142D01*
X130238095Y-147361904D01*
X130238095Y-147266666D01*
X130190476Y-147171428D01*
X130142857Y-147123809D01*
X130047619Y-147076190D01*
X129857142Y-147028571D01*
X129761904Y-146980952D01*
X129714285Y-146933333D01*
X129666666Y-146838095D01*
X129666666Y-146742857D01*
X129714285Y-146647619D01*
X129761904Y-146600000D01*
X129857142Y-146552380D01*
X130095238Y-146552380D01*
X130238095Y-146600000D01*
X130571428Y-146552380D02*
X130809523Y-147552380D01*
X131000000Y-146838095D01*
X131190476Y-147552380D01*
X131428571Y-146552380D01*
X132333333Y-147552380D02*
X131761904Y-147552380D01*
X132047619Y-147552380D02*
X132047619Y-146552380D01*
X131952380Y-146695238D01*
X131857142Y-146790476D01*
X131761904Y-146838095D01*
%TO.C,R57*%
X74357142Y-80022380D02*
X74023809Y-79546190D01*
X73785714Y-80022380D02*
X73785714Y-79022380D01*
X74166666Y-79022380D01*
X74261904Y-79070000D01*
X74309523Y-79117619D01*
X74357142Y-79212857D01*
X74357142Y-79355714D01*
X74309523Y-79450952D01*
X74261904Y-79498571D01*
X74166666Y-79546190D01*
X73785714Y-79546190D01*
X75261904Y-79022380D02*
X74785714Y-79022380D01*
X74738095Y-79498571D01*
X74785714Y-79450952D01*
X74880952Y-79403333D01*
X75119047Y-79403333D01*
X75214285Y-79450952D01*
X75261904Y-79498571D01*
X75309523Y-79593809D01*
X75309523Y-79831904D01*
X75261904Y-79927142D01*
X75214285Y-79974761D01*
X75119047Y-80022380D01*
X74880952Y-80022380D01*
X74785714Y-79974761D01*
X74738095Y-79927142D01*
X75642857Y-79022380D02*
X76309523Y-79022380D01*
X75880952Y-80022380D01*
%TO.C,R56*%
X89357142Y-80022380D02*
X89023809Y-79546190D01*
X88785714Y-80022380D02*
X88785714Y-79022380D01*
X89166666Y-79022380D01*
X89261904Y-79070000D01*
X89309523Y-79117619D01*
X89357142Y-79212857D01*
X89357142Y-79355714D01*
X89309523Y-79450952D01*
X89261904Y-79498571D01*
X89166666Y-79546190D01*
X88785714Y-79546190D01*
X90261904Y-79022380D02*
X89785714Y-79022380D01*
X89738095Y-79498571D01*
X89785714Y-79450952D01*
X89880952Y-79403333D01*
X90119047Y-79403333D01*
X90214285Y-79450952D01*
X90261904Y-79498571D01*
X90309523Y-79593809D01*
X90309523Y-79831904D01*
X90261904Y-79927142D01*
X90214285Y-79974761D01*
X90119047Y-80022380D01*
X89880952Y-80022380D01*
X89785714Y-79974761D01*
X89738095Y-79927142D01*
X91166666Y-79022380D02*
X90976190Y-79022380D01*
X90880952Y-79070000D01*
X90833333Y-79117619D01*
X90738095Y-79260476D01*
X90690476Y-79450952D01*
X90690476Y-79831904D01*
X90738095Y-79927142D01*
X90785714Y-79974761D01*
X90880952Y-80022380D01*
X91071428Y-80022380D01*
X91166666Y-79974761D01*
X91214285Y-79927142D01*
X91261904Y-79831904D01*
X91261904Y-79593809D01*
X91214285Y-79498571D01*
X91166666Y-79450952D01*
X91071428Y-79403333D01*
X90880952Y-79403333D01*
X90785714Y-79450952D01*
X90738095Y-79498571D01*
X90690476Y-79593809D01*
%TO.C,R55*%
X104357142Y-80022380D02*
X104023809Y-79546190D01*
X103785714Y-80022380D02*
X103785714Y-79022380D01*
X104166666Y-79022380D01*
X104261904Y-79070000D01*
X104309523Y-79117619D01*
X104357142Y-79212857D01*
X104357142Y-79355714D01*
X104309523Y-79450952D01*
X104261904Y-79498571D01*
X104166666Y-79546190D01*
X103785714Y-79546190D01*
X105261904Y-79022380D02*
X104785714Y-79022380D01*
X104738095Y-79498571D01*
X104785714Y-79450952D01*
X104880952Y-79403333D01*
X105119047Y-79403333D01*
X105214285Y-79450952D01*
X105261904Y-79498571D01*
X105309523Y-79593809D01*
X105309523Y-79831904D01*
X105261904Y-79927142D01*
X105214285Y-79974761D01*
X105119047Y-80022380D01*
X104880952Y-80022380D01*
X104785714Y-79974761D01*
X104738095Y-79927142D01*
X106214285Y-79022380D02*
X105738095Y-79022380D01*
X105690476Y-79498571D01*
X105738095Y-79450952D01*
X105833333Y-79403333D01*
X106071428Y-79403333D01*
X106166666Y-79450952D01*
X106214285Y-79498571D01*
X106261904Y-79593809D01*
X106261904Y-79831904D01*
X106214285Y-79927142D01*
X106166666Y-79974761D01*
X106071428Y-80022380D01*
X105833333Y-80022380D01*
X105738095Y-79974761D01*
X105690476Y-79927142D01*
%TO.C,R54*%
X74357142Y-77022380D02*
X74023809Y-76546190D01*
X73785714Y-77022380D02*
X73785714Y-76022380D01*
X74166666Y-76022380D01*
X74261904Y-76070000D01*
X74309523Y-76117619D01*
X74357142Y-76212857D01*
X74357142Y-76355714D01*
X74309523Y-76450952D01*
X74261904Y-76498571D01*
X74166666Y-76546190D01*
X73785714Y-76546190D01*
X75261904Y-76022380D02*
X74785714Y-76022380D01*
X74738095Y-76498571D01*
X74785714Y-76450952D01*
X74880952Y-76403333D01*
X75119047Y-76403333D01*
X75214285Y-76450952D01*
X75261904Y-76498571D01*
X75309523Y-76593809D01*
X75309523Y-76831904D01*
X75261904Y-76927142D01*
X75214285Y-76974761D01*
X75119047Y-77022380D01*
X74880952Y-77022380D01*
X74785714Y-76974761D01*
X74738095Y-76927142D01*
X76166666Y-76355714D02*
X76166666Y-77022380D01*
X75928571Y-75974761D02*
X75690476Y-76689047D01*
X76309523Y-76689047D01*
%TO.C,R53*%
X89357142Y-77222380D02*
X89023809Y-76746190D01*
X88785714Y-77222380D02*
X88785714Y-76222380D01*
X89166666Y-76222380D01*
X89261904Y-76270000D01*
X89309523Y-76317619D01*
X89357142Y-76412857D01*
X89357142Y-76555714D01*
X89309523Y-76650952D01*
X89261904Y-76698571D01*
X89166666Y-76746190D01*
X88785714Y-76746190D01*
X90261904Y-76222380D02*
X89785714Y-76222380D01*
X89738095Y-76698571D01*
X89785714Y-76650952D01*
X89880952Y-76603333D01*
X90119047Y-76603333D01*
X90214285Y-76650952D01*
X90261904Y-76698571D01*
X90309523Y-76793809D01*
X90309523Y-77031904D01*
X90261904Y-77127142D01*
X90214285Y-77174761D01*
X90119047Y-77222380D01*
X89880952Y-77222380D01*
X89785714Y-77174761D01*
X89738095Y-77127142D01*
X90642857Y-76222380D02*
X91261904Y-76222380D01*
X90928571Y-76603333D01*
X91071428Y-76603333D01*
X91166666Y-76650952D01*
X91214285Y-76698571D01*
X91261904Y-76793809D01*
X91261904Y-77031904D01*
X91214285Y-77127142D01*
X91166666Y-77174761D01*
X91071428Y-77222380D01*
X90785714Y-77222380D01*
X90690476Y-77174761D01*
X90642857Y-77127142D01*
%TO.C,R52*%
X104357142Y-77022380D02*
X104023809Y-76546190D01*
X103785714Y-77022380D02*
X103785714Y-76022380D01*
X104166666Y-76022380D01*
X104261904Y-76070000D01*
X104309523Y-76117619D01*
X104357142Y-76212857D01*
X104357142Y-76355714D01*
X104309523Y-76450952D01*
X104261904Y-76498571D01*
X104166666Y-76546190D01*
X103785714Y-76546190D01*
X105261904Y-76022380D02*
X104785714Y-76022380D01*
X104738095Y-76498571D01*
X104785714Y-76450952D01*
X104880952Y-76403333D01*
X105119047Y-76403333D01*
X105214285Y-76450952D01*
X105261904Y-76498571D01*
X105309523Y-76593809D01*
X105309523Y-76831904D01*
X105261904Y-76927142D01*
X105214285Y-76974761D01*
X105119047Y-77022380D01*
X104880952Y-77022380D01*
X104785714Y-76974761D01*
X104738095Y-76927142D01*
X105690476Y-76117619D02*
X105738095Y-76070000D01*
X105833333Y-76022380D01*
X106071428Y-76022380D01*
X106166666Y-76070000D01*
X106214285Y-76117619D01*
X106261904Y-76212857D01*
X106261904Y-76308095D01*
X106214285Y-76450952D01*
X105642857Y-77022380D01*
X106261904Y-77022380D01*
%TO.C,R51*%
X74357142Y-74022380D02*
X74023809Y-73546190D01*
X73785714Y-74022380D02*
X73785714Y-73022380D01*
X74166666Y-73022380D01*
X74261904Y-73070000D01*
X74309523Y-73117619D01*
X74357142Y-73212857D01*
X74357142Y-73355714D01*
X74309523Y-73450952D01*
X74261904Y-73498571D01*
X74166666Y-73546190D01*
X73785714Y-73546190D01*
X75261904Y-73022380D02*
X74785714Y-73022380D01*
X74738095Y-73498571D01*
X74785714Y-73450952D01*
X74880952Y-73403333D01*
X75119047Y-73403333D01*
X75214285Y-73450952D01*
X75261904Y-73498571D01*
X75309523Y-73593809D01*
X75309523Y-73831904D01*
X75261904Y-73927142D01*
X75214285Y-73974761D01*
X75119047Y-74022380D01*
X74880952Y-74022380D01*
X74785714Y-73974761D01*
X74738095Y-73927142D01*
X76261904Y-74022380D02*
X75690476Y-74022380D01*
X75976190Y-74022380D02*
X75976190Y-73022380D01*
X75880952Y-73165238D01*
X75785714Y-73260476D01*
X75690476Y-73308095D01*
%TO.C,R50*%
X89357142Y-74022380D02*
X89023809Y-73546190D01*
X88785714Y-74022380D02*
X88785714Y-73022380D01*
X89166666Y-73022380D01*
X89261904Y-73070000D01*
X89309523Y-73117619D01*
X89357142Y-73212857D01*
X89357142Y-73355714D01*
X89309523Y-73450952D01*
X89261904Y-73498571D01*
X89166666Y-73546190D01*
X88785714Y-73546190D01*
X90261904Y-73022380D02*
X89785714Y-73022380D01*
X89738095Y-73498571D01*
X89785714Y-73450952D01*
X89880952Y-73403333D01*
X90119047Y-73403333D01*
X90214285Y-73450952D01*
X90261904Y-73498571D01*
X90309523Y-73593809D01*
X90309523Y-73831904D01*
X90261904Y-73927142D01*
X90214285Y-73974761D01*
X90119047Y-74022380D01*
X89880952Y-74022380D01*
X89785714Y-73974761D01*
X89738095Y-73927142D01*
X90928571Y-73022380D02*
X91023809Y-73022380D01*
X91119047Y-73070000D01*
X91166666Y-73117619D01*
X91214285Y-73212857D01*
X91261904Y-73403333D01*
X91261904Y-73641428D01*
X91214285Y-73831904D01*
X91166666Y-73927142D01*
X91119047Y-73974761D01*
X91023809Y-74022380D01*
X90928571Y-74022380D01*
X90833333Y-73974761D01*
X90785714Y-73927142D01*
X90738095Y-73831904D01*
X90690476Y-73641428D01*
X90690476Y-73403333D01*
X90738095Y-73212857D01*
X90785714Y-73117619D01*
X90833333Y-73070000D01*
X90928571Y-73022380D01*
%TO.C,R49*%
X104357142Y-74022380D02*
X104023809Y-73546190D01*
X103785714Y-74022380D02*
X103785714Y-73022380D01*
X104166666Y-73022380D01*
X104261904Y-73070000D01*
X104309523Y-73117619D01*
X104357142Y-73212857D01*
X104357142Y-73355714D01*
X104309523Y-73450952D01*
X104261904Y-73498571D01*
X104166666Y-73546190D01*
X103785714Y-73546190D01*
X105214285Y-73355714D02*
X105214285Y-74022380D01*
X104976190Y-72974761D02*
X104738095Y-73689047D01*
X105357142Y-73689047D01*
X105785714Y-74022380D02*
X105976190Y-74022380D01*
X106071428Y-73974761D01*
X106119047Y-73927142D01*
X106214285Y-73784285D01*
X106261904Y-73593809D01*
X106261904Y-73212857D01*
X106214285Y-73117619D01*
X106166666Y-73070000D01*
X106071428Y-73022380D01*
X105880952Y-73022380D01*
X105785714Y-73070000D01*
X105738095Y-73117619D01*
X105690476Y-73212857D01*
X105690476Y-73450952D01*
X105738095Y-73546190D01*
X105785714Y-73593809D01*
X105880952Y-73641428D01*
X106071428Y-73641428D01*
X106166666Y-73593809D01*
X106214285Y-73546190D01*
X106261904Y-73450952D01*
%TO.C,R48*%
X74357142Y-71022380D02*
X74023809Y-70546190D01*
X73785714Y-71022380D02*
X73785714Y-70022380D01*
X74166666Y-70022380D01*
X74261904Y-70070000D01*
X74309523Y-70117619D01*
X74357142Y-70212857D01*
X74357142Y-70355714D01*
X74309523Y-70450952D01*
X74261904Y-70498571D01*
X74166666Y-70546190D01*
X73785714Y-70546190D01*
X75214285Y-70355714D02*
X75214285Y-71022380D01*
X74976190Y-69974761D02*
X74738095Y-70689047D01*
X75357142Y-70689047D01*
X75880952Y-70450952D02*
X75785714Y-70403333D01*
X75738095Y-70355714D01*
X75690476Y-70260476D01*
X75690476Y-70212857D01*
X75738095Y-70117619D01*
X75785714Y-70070000D01*
X75880952Y-70022380D01*
X76071428Y-70022380D01*
X76166666Y-70070000D01*
X76214285Y-70117619D01*
X76261904Y-70212857D01*
X76261904Y-70260476D01*
X76214285Y-70355714D01*
X76166666Y-70403333D01*
X76071428Y-70450952D01*
X75880952Y-70450952D01*
X75785714Y-70498571D01*
X75738095Y-70546190D01*
X75690476Y-70641428D01*
X75690476Y-70831904D01*
X75738095Y-70927142D01*
X75785714Y-70974761D01*
X75880952Y-71022380D01*
X76071428Y-71022380D01*
X76166666Y-70974761D01*
X76214285Y-70927142D01*
X76261904Y-70831904D01*
X76261904Y-70641428D01*
X76214285Y-70546190D01*
X76166666Y-70498571D01*
X76071428Y-70450952D01*
%TO.C,R47*%
X89357142Y-71022380D02*
X89023809Y-70546190D01*
X88785714Y-71022380D02*
X88785714Y-70022380D01*
X89166666Y-70022380D01*
X89261904Y-70070000D01*
X89309523Y-70117619D01*
X89357142Y-70212857D01*
X89357142Y-70355714D01*
X89309523Y-70450952D01*
X89261904Y-70498571D01*
X89166666Y-70546190D01*
X88785714Y-70546190D01*
X90214285Y-70355714D02*
X90214285Y-71022380D01*
X89976190Y-69974761D02*
X89738095Y-70689047D01*
X90357142Y-70689047D01*
X90642857Y-70022380D02*
X91309523Y-70022380D01*
X90880952Y-71022380D01*
%TO.C,R46*%
X104357142Y-71022380D02*
X104023809Y-70546190D01*
X103785714Y-71022380D02*
X103785714Y-70022380D01*
X104166666Y-70022380D01*
X104261904Y-70070000D01*
X104309523Y-70117619D01*
X104357142Y-70212857D01*
X104357142Y-70355714D01*
X104309523Y-70450952D01*
X104261904Y-70498571D01*
X104166666Y-70546190D01*
X103785714Y-70546190D01*
X105214285Y-70355714D02*
X105214285Y-71022380D01*
X104976190Y-69974761D02*
X104738095Y-70689047D01*
X105357142Y-70689047D01*
X106166666Y-70022380D02*
X105976190Y-70022380D01*
X105880952Y-70070000D01*
X105833333Y-70117619D01*
X105738095Y-70260476D01*
X105690476Y-70450952D01*
X105690476Y-70831904D01*
X105738095Y-70927142D01*
X105785714Y-70974761D01*
X105880952Y-71022380D01*
X106071428Y-71022380D01*
X106166666Y-70974761D01*
X106214285Y-70927142D01*
X106261904Y-70831904D01*
X106261904Y-70593809D01*
X106214285Y-70498571D01*
X106166666Y-70450952D01*
X106071428Y-70403333D01*
X105880952Y-70403333D01*
X105785714Y-70450952D01*
X105738095Y-70498571D01*
X105690476Y-70593809D01*
%TO.C,R45*%
X74357142Y-68022380D02*
X74023809Y-67546190D01*
X73785714Y-68022380D02*
X73785714Y-67022380D01*
X74166666Y-67022380D01*
X74261904Y-67070000D01*
X74309523Y-67117619D01*
X74357142Y-67212857D01*
X74357142Y-67355714D01*
X74309523Y-67450952D01*
X74261904Y-67498571D01*
X74166666Y-67546190D01*
X73785714Y-67546190D01*
X75214285Y-67355714D02*
X75214285Y-68022380D01*
X74976190Y-66974761D02*
X74738095Y-67689047D01*
X75357142Y-67689047D01*
X76214285Y-67022380D02*
X75738095Y-67022380D01*
X75690476Y-67498571D01*
X75738095Y-67450952D01*
X75833333Y-67403333D01*
X76071428Y-67403333D01*
X76166666Y-67450952D01*
X76214285Y-67498571D01*
X76261904Y-67593809D01*
X76261904Y-67831904D01*
X76214285Y-67927142D01*
X76166666Y-67974761D01*
X76071428Y-68022380D01*
X75833333Y-68022380D01*
X75738095Y-67974761D01*
X75690476Y-67927142D01*
%TO.C,R44*%
X89357142Y-68022380D02*
X89023809Y-67546190D01*
X88785714Y-68022380D02*
X88785714Y-67022380D01*
X89166666Y-67022380D01*
X89261904Y-67070000D01*
X89309523Y-67117619D01*
X89357142Y-67212857D01*
X89357142Y-67355714D01*
X89309523Y-67450952D01*
X89261904Y-67498571D01*
X89166666Y-67546190D01*
X88785714Y-67546190D01*
X90214285Y-67355714D02*
X90214285Y-68022380D01*
X89976190Y-66974761D02*
X89738095Y-67689047D01*
X90357142Y-67689047D01*
X91166666Y-67355714D02*
X91166666Y-68022380D01*
X90928571Y-66974761D02*
X90690476Y-67689047D01*
X91309523Y-67689047D01*
%TO.C,R43*%
X104357142Y-68022380D02*
X104023809Y-67546190D01*
X103785714Y-68022380D02*
X103785714Y-67022380D01*
X104166666Y-67022380D01*
X104261904Y-67070000D01*
X104309523Y-67117619D01*
X104357142Y-67212857D01*
X104357142Y-67355714D01*
X104309523Y-67450952D01*
X104261904Y-67498571D01*
X104166666Y-67546190D01*
X103785714Y-67546190D01*
X105214285Y-67355714D02*
X105214285Y-68022380D01*
X104976190Y-66974761D02*
X104738095Y-67689047D01*
X105357142Y-67689047D01*
X105642857Y-67022380D02*
X106261904Y-67022380D01*
X105928571Y-67403333D01*
X106071428Y-67403333D01*
X106166666Y-67450952D01*
X106214285Y-67498571D01*
X106261904Y-67593809D01*
X106261904Y-67831904D01*
X106214285Y-67927142D01*
X106166666Y-67974761D01*
X106071428Y-68022380D01*
X105785714Y-68022380D01*
X105690476Y-67974761D01*
X105642857Y-67927142D01*
%TO.C,R42*%
X74357142Y-65022380D02*
X74023809Y-64546190D01*
X73785714Y-65022380D02*
X73785714Y-64022380D01*
X74166666Y-64022380D01*
X74261904Y-64070000D01*
X74309523Y-64117619D01*
X74357142Y-64212857D01*
X74357142Y-64355714D01*
X74309523Y-64450952D01*
X74261904Y-64498571D01*
X74166666Y-64546190D01*
X73785714Y-64546190D01*
X75214285Y-64355714D02*
X75214285Y-65022380D01*
X74976190Y-63974761D02*
X74738095Y-64689047D01*
X75357142Y-64689047D01*
X75690476Y-64117619D02*
X75738095Y-64070000D01*
X75833333Y-64022380D01*
X76071428Y-64022380D01*
X76166666Y-64070000D01*
X76214285Y-64117619D01*
X76261904Y-64212857D01*
X76261904Y-64308095D01*
X76214285Y-64450952D01*
X75642857Y-65022380D01*
X76261904Y-65022380D01*
%TO.C,R41*%
X89357142Y-65022380D02*
X89023809Y-64546190D01*
X88785714Y-65022380D02*
X88785714Y-64022380D01*
X89166666Y-64022380D01*
X89261904Y-64070000D01*
X89309523Y-64117619D01*
X89357142Y-64212857D01*
X89357142Y-64355714D01*
X89309523Y-64450952D01*
X89261904Y-64498571D01*
X89166666Y-64546190D01*
X88785714Y-64546190D01*
X90214285Y-64355714D02*
X90214285Y-65022380D01*
X89976190Y-63974761D02*
X89738095Y-64689047D01*
X90357142Y-64689047D01*
X91261904Y-65022380D02*
X90690476Y-65022380D01*
X90976190Y-65022380D02*
X90976190Y-64022380D01*
X90880952Y-64165238D01*
X90785714Y-64260476D01*
X90690476Y-64308095D01*
%TO.C,R40*%
X104357142Y-65022380D02*
X104023809Y-64546190D01*
X103785714Y-65022380D02*
X103785714Y-64022380D01*
X104166666Y-64022380D01*
X104261904Y-64070000D01*
X104309523Y-64117619D01*
X104357142Y-64212857D01*
X104357142Y-64355714D01*
X104309523Y-64450952D01*
X104261904Y-64498571D01*
X104166666Y-64546190D01*
X103785714Y-64546190D01*
X105214285Y-64355714D02*
X105214285Y-65022380D01*
X104976190Y-63974761D02*
X104738095Y-64689047D01*
X105357142Y-64689047D01*
X105928571Y-64022380D02*
X106023809Y-64022380D01*
X106119047Y-64070000D01*
X106166666Y-64117619D01*
X106214285Y-64212857D01*
X106261904Y-64403333D01*
X106261904Y-64641428D01*
X106214285Y-64831904D01*
X106166666Y-64927142D01*
X106119047Y-64974761D01*
X106023809Y-65022380D01*
X105928571Y-65022380D01*
X105833333Y-64974761D01*
X105785714Y-64927142D01*
X105738095Y-64831904D01*
X105690476Y-64641428D01*
X105690476Y-64403333D01*
X105738095Y-64212857D01*
X105785714Y-64117619D01*
X105833333Y-64070000D01*
X105928571Y-64022380D01*
%TO.C,R39*%
X74357142Y-62022380D02*
X74023809Y-61546190D01*
X73785714Y-62022380D02*
X73785714Y-61022380D01*
X74166666Y-61022380D01*
X74261904Y-61070000D01*
X74309523Y-61117619D01*
X74357142Y-61212857D01*
X74357142Y-61355714D01*
X74309523Y-61450952D01*
X74261904Y-61498571D01*
X74166666Y-61546190D01*
X73785714Y-61546190D01*
X74690476Y-61022380D02*
X75309523Y-61022380D01*
X74976190Y-61403333D01*
X75119047Y-61403333D01*
X75214285Y-61450952D01*
X75261904Y-61498571D01*
X75309523Y-61593809D01*
X75309523Y-61831904D01*
X75261904Y-61927142D01*
X75214285Y-61974761D01*
X75119047Y-62022380D01*
X74833333Y-62022380D01*
X74738095Y-61974761D01*
X74690476Y-61927142D01*
X75785714Y-62022380D02*
X75976190Y-62022380D01*
X76071428Y-61974761D01*
X76119047Y-61927142D01*
X76214285Y-61784285D01*
X76261904Y-61593809D01*
X76261904Y-61212857D01*
X76214285Y-61117619D01*
X76166666Y-61070000D01*
X76071428Y-61022380D01*
X75880952Y-61022380D01*
X75785714Y-61070000D01*
X75738095Y-61117619D01*
X75690476Y-61212857D01*
X75690476Y-61450952D01*
X75738095Y-61546190D01*
X75785714Y-61593809D01*
X75880952Y-61641428D01*
X76071428Y-61641428D01*
X76166666Y-61593809D01*
X76214285Y-61546190D01*
X76261904Y-61450952D01*
%TO.C,R38*%
X89357142Y-62022380D02*
X89023809Y-61546190D01*
X88785714Y-62022380D02*
X88785714Y-61022380D01*
X89166666Y-61022380D01*
X89261904Y-61070000D01*
X89309523Y-61117619D01*
X89357142Y-61212857D01*
X89357142Y-61355714D01*
X89309523Y-61450952D01*
X89261904Y-61498571D01*
X89166666Y-61546190D01*
X88785714Y-61546190D01*
X89690476Y-61022380D02*
X90309523Y-61022380D01*
X89976190Y-61403333D01*
X90119047Y-61403333D01*
X90214285Y-61450952D01*
X90261904Y-61498571D01*
X90309523Y-61593809D01*
X90309523Y-61831904D01*
X90261904Y-61927142D01*
X90214285Y-61974761D01*
X90119047Y-62022380D01*
X89833333Y-62022380D01*
X89738095Y-61974761D01*
X89690476Y-61927142D01*
X90880952Y-61450952D02*
X90785714Y-61403333D01*
X90738095Y-61355714D01*
X90690476Y-61260476D01*
X90690476Y-61212857D01*
X90738095Y-61117619D01*
X90785714Y-61070000D01*
X90880952Y-61022380D01*
X91071428Y-61022380D01*
X91166666Y-61070000D01*
X91214285Y-61117619D01*
X91261904Y-61212857D01*
X91261904Y-61260476D01*
X91214285Y-61355714D01*
X91166666Y-61403333D01*
X91071428Y-61450952D01*
X90880952Y-61450952D01*
X90785714Y-61498571D01*
X90738095Y-61546190D01*
X90690476Y-61641428D01*
X90690476Y-61831904D01*
X90738095Y-61927142D01*
X90785714Y-61974761D01*
X90880952Y-62022380D01*
X91071428Y-62022380D01*
X91166666Y-61974761D01*
X91214285Y-61927142D01*
X91261904Y-61831904D01*
X91261904Y-61641428D01*
X91214285Y-61546190D01*
X91166666Y-61498571D01*
X91071428Y-61450952D01*
%TO.C,R37*%
X104357142Y-62022380D02*
X104023809Y-61546190D01*
X103785714Y-62022380D02*
X103785714Y-61022380D01*
X104166666Y-61022380D01*
X104261904Y-61070000D01*
X104309523Y-61117619D01*
X104357142Y-61212857D01*
X104357142Y-61355714D01*
X104309523Y-61450952D01*
X104261904Y-61498571D01*
X104166666Y-61546190D01*
X103785714Y-61546190D01*
X104690476Y-61022380D02*
X105309523Y-61022380D01*
X104976190Y-61403333D01*
X105119047Y-61403333D01*
X105214285Y-61450952D01*
X105261904Y-61498571D01*
X105309523Y-61593809D01*
X105309523Y-61831904D01*
X105261904Y-61927142D01*
X105214285Y-61974761D01*
X105119047Y-62022380D01*
X104833333Y-62022380D01*
X104738095Y-61974761D01*
X104690476Y-61927142D01*
X105642857Y-61022380D02*
X106309523Y-61022380D01*
X105880952Y-62022380D01*
%TO.C,R36*%
X74357142Y-59022380D02*
X74023809Y-58546190D01*
X73785714Y-59022380D02*
X73785714Y-58022380D01*
X74166666Y-58022380D01*
X74261904Y-58070000D01*
X74309523Y-58117619D01*
X74357142Y-58212857D01*
X74357142Y-58355714D01*
X74309523Y-58450952D01*
X74261904Y-58498571D01*
X74166666Y-58546190D01*
X73785714Y-58546190D01*
X74690476Y-58022380D02*
X75309523Y-58022380D01*
X74976190Y-58403333D01*
X75119047Y-58403333D01*
X75214285Y-58450952D01*
X75261904Y-58498571D01*
X75309523Y-58593809D01*
X75309523Y-58831904D01*
X75261904Y-58927142D01*
X75214285Y-58974761D01*
X75119047Y-59022380D01*
X74833333Y-59022380D01*
X74738095Y-58974761D01*
X74690476Y-58927142D01*
X76166666Y-58022380D02*
X75976190Y-58022380D01*
X75880952Y-58070000D01*
X75833333Y-58117619D01*
X75738095Y-58260476D01*
X75690476Y-58450952D01*
X75690476Y-58831904D01*
X75738095Y-58927142D01*
X75785714Y-58974761D01*
X75880952Y-59022380D01*
X76071428Y-59022380D01*
X76166666Y-58974761D01*
X76214285Y-58927142D01*
X76261904Y-58831904D01*
X76261904Y-58593809D01*
X76214285Y-58498571D01*
X76166666Y-58450952D01*
X76071428Y-58403333D01*
X75880952Y-58403333D01*
X75785714Y-58450952D01*
X75738095Y-58498571D01*
X75690476Y-58593809D01*
%TO.C,R35*%
X89357142Y-59022380D02*
X89023809Y-58546190D01*
X88785714Y-59022380D02*
X88785714Y-58022380D01*
X89166666Y-58022380D01*
X89261904Y-58070000D01*
X89309523Y-58117619D01*
X89357142Y-58212857D01*
X89357142Y-58355714D01*
X89309523Y-58450952D01*
X89261904Y-58498571D01*
X89166666Y-58546190D01*
X88785714Y-58546190D01*
X89690476Y-58022380D02*
X90309523Y-58022380D01*
X89976190Y-58403333D01*
X90119047Y-58403333D01*
X90214285Y-58450952D01*
X90261904Y-58498571D01*
X90309523Y-58593809D01*
X90309523Y-58831904D01*
X90261904Y-58927142D01*
X90214285Y-58974761D01*
X90119047Y-59022380D01*
X89833333Y-59022380D01*
X89738095Y-58974761D01*
X89690476Y-58927142D01*
X91214285Y-58022380D02*
X90738095Y-58022380D01*
X90690476Y-58498571D01*
X90738095Y-58450952D01*
X90833333Y-58403333D01*
X91071428Y-58403333D01*
X91166666Y-58450952D01*
X91214285Y-58498571D01*
X91261904Y-58593809D01*
X91261904Y-58831904D01*
X91214285Y-58927142D01*
X91166666Y-58974761D01*
X91071428Y-59022380D01*
X90833333Y-59022380D01*
X90738095Y-58974761D01*
X90690476Y-58927142D01*
%TO.C,R34*%
X104357142Y-59022380D02*
X104023809Y-58546190D01*
X103785714Y-59022380D02*
X103785714Y-58022380D01*
X104166666Y-58022380D01*
X104261904Y-58070000D01*
X104309523Y-58117619D01*
X104357142Y-58212857D01*
X104357142Y-58355714D01*
X104309523Y-58450952D01*
X104261904Y-58498571D01*
X104166666Y-58546190D01*
X103785714Y-58546190D01*
X104690476Y-58022380D02*
X105309523Y-58022380D01*
X104976190Y-58403333D01*
X105119047Y-58403333D01*
X105214285Y-58450952D01*
X105261904Y-58498571D01*
X105309523Y-58593809D01*
X105309523Y-58831904D01*
X105261904Y-58927142D01*
X105214285Y-58974761D01*
X105119047Y-59022380D01*
X104833333Y-59022380D01*
X104738095Y-58974761D01*
X104690476Y-58927142D01*
X106166666Y-58355714D02*
X106166666Y-59022380D01*
X105928571Y-57974761D02*
X105690476Y-58689047D01*
X106309523Y-58689047D01*
%TO.C,R33*%
X119357142Y-80022380D02*
X119023809Y-79546190D01*
X118785714Y-80022380D02*
X118785714Y-79022380D01*
X119166666Y-79022380D01*
X119261904Y-79070000D01*
X119309523Y-79117619D01*
X119357142Y-79212857D01*
X119357142Y-79355714D01*
X119309523Y-79450952D01*
X119261904Y-79498571D01*
X119166666Y-79546190D01*
X118785714Y-79546190D01*
X119690476Y-79022380D02*
X120309523Y-79022380D01*
X119976190Y-79403333D01*
X120119047Y-79403333D01*
X120214285Y-79450952D01*
X120261904Y-79498571D01*
X120309523Y-79593809D01*
X120309523Y-79831904D01*
X120261904Y-79927142D01*
X120214285Y-79974761D01*
X120119047Y-80022380D01*
X119833333Y-80022380D01*
X119738095Y-79974761D01*
X119690476Y-79927142D01*
X120642857Y-79022380D02*
X121261904Y-79022380D01*
X120928571Y-79403333D01*
X121071428Y-79403333D01*
X121166666Y-79450952D01*
X121214285Y-79498571D01*
X121261904Y-79593809D01*
X121261904Y-79831904D01*
X121214285Y-79927142D01*
X121166666Y-79974761D01*
X121071428Y-80022380D01*
X120785714Y-80022380D01*
X120690476Y-79974761D01*
X120642857Y-79927142D01*
%TO.C,R32*%
X134357142Y-80022380D02*
X134023809Y-79546190D01*
X133785714Y-80022380D02*
X133785714Y-79022380D01*
X134166666Y-79022380D01*
X134261904Y-79070000D01*
X134309523Y-79117619D01*
X134357142Y-79212857D01*
X134357142Y-79355714D01*
X134309523Y-79450952D01*
X134261904Y-79498571D01*
X134166666Y-79546190D01*
X133785714Y-79546190D01*
X134690476Y-79022380D02*
X135309523Y-79022380D01*
X134976190Y-79403333D01*
X135119047Y-79403333D01*
X135214285Y-79450952D01*
X135261904Y-79498571D01*
X135309523Y-79593809D01*
X135309523Y-79831904D01*
X135261904Y-79927142D01*
X135214285Y-79974761D01*
X135119047Y-80022380D01*
X134833333Y-80022380D01*
X134738095Y-79974761D01*
X134690476Y-79927142D01*
X135690476Y-79117619D02*
X135738095Y-79070000D01*
X135833333Y-79022380D01*
X136071428Y-79022380D01*
X136166666Y-79070000D01*
X136214285Y-79117619D01*
X136261904Y-79212857D01*
X136261904Y-79308095D01*
X136214285Y-79450952D01*
X135642857Y-80022380D01*
X136261904Y-80022380D01*
%TO.C,R31*%
X119357142Y-77022380D02*
X119023809Y-76546190D01*
X118785714Y-77022380D02*
X118785714Y-76022380D01*
X119166666Y-76022380D01*
X119261904Y-76070000D01*
X119309523Y-76117619D01*
X119357142Y-76212857D01*
X119357142Y-76355714D01*
X119309523Y-76450952D01*
X119261904Y-76498571D01*
X119166666Y-76546190D01*
X118785714Y-76546190D01*
X119690476Y-76022380D02*
X120309523Y-76022380D01*
X119976190Y-76403333D01*
X120119047Y-76403333D01*
X120214285Y-76450952D01*
X120261904Y-76498571D01*
X120309523Y-76593809D01*
X120309523Y-76831904D01*
X120261904Y-76927142D01*
X120214285Y-76974761D01*
X120119047Y-77022380D01*
X119833333Y-77022380D01*
X119738095Y-76974761D01*
X119690476Y-76927142D01*
X121261904Y-77022380D02*
X120690476Y-77022380D01*
X120976190Y-77022380D02*
X120976190Y-76022380D01*
X120880952Y-76165238D01*
X120785714Y-76260476D01*
X120690476Y-76308095D01*
%TO.C,R30*%
X134357142Y-77022380D02*
X134023809Y-76546190D01*
X133785714Y-77022380D02*
X133785714Y-76022380D01*
X134166666Y-76022380D01*
X134261904Y-76070000D01*
X134309523Y-76117619D01*
X134357142Y-76212857D01*
X134357142Y-76355714D01*
X134309523Y-76450952D01*
X134261904Y-76498571D01*
X134166666Y-76546190D01*
X133785714Y-76546190D01*
X134690476Y-76022380D02*
X135309523Y-76022380D01*
X134976190Y-76403333D01*
X135119047Y-76403333D01*
X135214285Y-76450952D01*
X135261904Y-76498571D01*
X135309523Y-76593809D01*
X135309523Y-76831904D01*
X135261904Y-76927142D01*
X135214285Y-76974761D01*
X135119047Y-77022380D01*
X134833333Y-77022380D01*
X134738095Y-76974761D01*
X134690476Y-76927142D01*
X135928571Y-76022380D02*
X136023809Y-76022380D01*
X136119047Y-76070000D01*
X136166666Y-76117619D01*
X136214285Y-76212857D01*
X136261904Y-76403333D01*
X136261904Y-76641428D01*
X136214285Y-76831904D01*
X136166666Y-76927142D01*
X136119047Y-76974761D01*
X136023809Y-77022380D01*
X135928571Y-77022380D01*
X135833333Y-76974761D01*
X135785714Y-76927142D01*
X135738095Y-76831904D01*
X135690476Y-76641428D01*
X135690476Y-76403333D01*
X135738095Y-76212857D01*
X135785714Y-76117619D01*
X135833333Y-76070000D01*
X135928571Y-76022380D01*
%TO.C,R29*%
X119357142Y-74022380D02*
X119023809Y-73546190D01*
X118785714Y-74022380D02*
X118785714Y-73022380D01*
X119166666Y-73022380D01*
X119261904Y-73070000D01*
X119309523Y-73117619D01*
X119357142Y-73212857D01*
X119357142Y-73355714D01*
X119309523Y-73450952D01*
X119261904Y-73498571D01*
X119166666Y-73546190D01*
X118785714Y-73546190D01*
X119738095Y-73117619D02*
X119785714Y-73070000D01*
X119880952Y-73022380D01*
X120119047Y-73022380D01*
X120214285Y-73070000D01*
X120261904Y-73117619D01*
X120309523Y-73212857D01*
X120309523Y-73308095D01*
X120261904Y-73450952D01*
X119690476Y-74022380D01*
X120309523Y-74022380D01*
X120785714Y-74022380D02*
X120976190Y-74022380D01*
X121071428Y-73974761D01*
X121119047Y-73927142D01*
X121214285Y-73784285D01*
X121261904Y-73593809D01*
X121261904Y-73212857D01*
X121214285Y-73117619D01*
X121166666Y-73070000D01*
X121071428Y-73022380D01*
X120880952Y-73022380D01*
X120785714Y-73070000D01*
X120738095Y-73117619D01*
X120690476Y-73212857D01*
X120690476Y-73450952D01*
X120738095Y-73546190D01*
X120785714Y-73593809D01*
X120880952Y-73641428D01*
X121071428Y-73641428D01*
X121166666Y-73593809D01*
X121214285Y-73546190D01*
X121261904Y-73450952D01*
%TO.C,R28*%
X134357142Y-74022380D02*
X134023809Y-73546190D01*
X133785714Y-74022380D02*
X133785714Y-73022380D01*
X134166666Y-73022380D01*
X134261904Y-73070000D01*
X134309523Y-73117619D01*
X134357142Y-73212857D01*
X134357142Y-73355714D01*
X134309523Y-73450952D01*
X134261904Y-73498571D01*
X134166666Y-73546190D01*
X133785714Y-73546190D01*
X134738095Y-73117619D02*
X134785714Y-73070000D01*
X134880952Y-73022380D01*
X135119047Y-73022380D01*
X135214285Y-73070000D01*
X135261904Y-73117619D01*
X135309523Y-73212857D01*
X135309523Y-73308095D01*
X135261904Y-73450952D01*
X134690476Y-74022380D01*
X135309523Y-74022380D01*
X135880952Y-73450952D02*
X135785714Y-73403333D01*
X135738095Y-73355714D01*
X135690476Y-73260476D01*
X135690476Y-73212857D01*
X135738095Y-73117619D01*
X135785714Y-73070000D01*
X135880952Y-73022380D01*
X136071428Y-73022380D01*
X136166666Y-73070000D01*
X136214285Y-73117619D01*
X136261904Y-73212857D01*
X136261904Y-73260476D01*
X136214285Y-73355714D01*
X136166666Y-73403333D01*
X136071428Y-73450952D01*
X135880952Y-73450952D01*
X135785714Y-73498571D01*
X135738095Y-73546190D01*
X135690476Y-73641428D01*
X135690476Y-73831904D01*
X135738095Y-73927142D01*
X135785714Y-73974761D01*
X135880952Y-74022380D01*
X136071428Y-74022380D01*
X136166666Y-73974761D01*
X136214285Y-73927142D01*
X136261904Y-73831904D01*
X136261904Y-73641428D01*
X136214285Y-73546190D01*
X136166666Y-73498571D01*
X136071428Y-73450952D01*
%TO.C,R27*%
X119357142Y-71022380D02*
X119023809Y-70546190D01*
X118785714Y-71022380D02*
X118785714Y-70022380D01*
X119166666Y-70022380D01*
X119261904Y-70070000D01*
X119309523Y-70117619D01*
X119357142Y-70212857D01*
X119357142Y-70355714D01*
X119309523Y-70450952D01*
X119261904Y-70498571D01*
X119166666Y-70546190D01*
X118785714Y-70546190D01*
X119738095Y-70117619D02*
X119785714Y-70070000D01*
X119880952Y-70022380D01*
X120119047Y-70022380D01*
X120214285Y-70070000D01*
X120261904Y-70117619D01*
X120309523Y-70212857D01*
X120309523Y-70308095D01*
X120261904Y-70450952D01*
X119690476Y-71022380D01*
X120309523Y-71022380D01*
X120642857Y-70022380D02*
X121309523Y-70022380D01*
X120880952Y-71022380D01*
%TO.C,R26*%
X134357142Y-71022380D02*
X134023809Y-70546190D01*
X133785714Y-71022380D02*
X133785714Y-70022380D01*
X134166666Y-70022380D01*
X134261904Y-70070000D01*
X134309523Y-70117619D01*
X134357142Y-70212857D01*
X134357142Y-70355714D01*
X134309523Y-70450952D01*
X134261904Y-70498571D01*
X134166666Y-70546190D01*
X133785714Y-70546190D01*
X134738095Y-70117619D02*
X134785714Y-70070000D01*
X134880952Y-70022380D01*
X135119047Y-70022380D01*
X135214285Y-70070000D01*
X135261904Y-70117619D01*
X135309523Y-70212857D01*
X135309523Y-70308095D01*
X135261904Y-70450952D01*
X134690476Y-71022380D01*
X135309523Y-71022380D01*
X136166666Y-70022380D02*
X135976190Y-70022380D01*
X135880952Y-70070000D01*
X135833333Y-70117619D01*
X135738095Y-70260476D01*
X135690476Y-70450952D01*
X135690476Y-70831904D01*
X135738095Y-70927142D01*
X135785714Y-70974761D01*
X135880952Y-71022380D01*
X136071428Y-71022380D01*
X136166666Y-70974761D01*
X136214285Y-70927142D01*
X136261904Y-70831904D01*
X136261904Y-70593809D01*
X136214285Y-70498571D01*
X136166666Y-70450952D01*
X136071428Y-70403333D01*
X135880952Y-70403333D01*
X135785714Y-70450952D01*
X135738095Y-70498571D01*
X135690476Y-70593809D01*
%TO.C,R25*%
X119357142Y-68022380D02*
X119023809Y-67546190D01*
X118785714Y-68022380D02*
X118785714Y-67022380D01*
X119166666Y-67022380D01*
X119261904Y-67070000D01*
X119309523Y-67117619D01*
X119357142Y-67212857D01*
X119357142Y-67355714D01*
X119309523Y-67450952D01*
X119261904Y-67498571D01*
X119166666Y-67546190D01*
X118785714Y-67546190D01*
X119738095Y-67117619D02*
X119785714Y-67070000D01*
X119880952Y-67022380D01*
X120119047Y-67022380D01*
X120214285Y-67070000D01*
X120261904Y-67117619D01*
X120309523Y-67212857D01*
X120309523Y-67308095D01*
X120261904Y-67450952D01*
X119690476Y-68022380D01*
X120309523Y-68022380D01*
X121214285Y-67022380D02*
X120738095Y-67022380D01*
X120690476Y-67498571D01*
X120738095Y-67450952D01*
X120833333Y-67403333D01*
X121071428Y-67403333D01*
X121166666Y-67450952D01*
X121214285Y-67498571D01*
X121261904Y-67593809D01*
X121261904Y-67831904D01*
X121214285Y-67927142D01*
X121166666Y-67974761D01*
X121071428Y-68022380D01*
X120833333Y-68022380D01*
X120738095Y-67974761D01*
X120690476Y-67927142D01*
%TO.C,R24*%
X134357142Y-68022380D02*
X134023809Y-67546190D01*
X133785714Y-68022380D02*
X133785714Y-67022380D01*
X134166666Y-67022380D01*
X134261904Y-67070000D01*
X134309523Y-67117619D01*
X134357142Y-67212857D01*
X134357142Y-67355714D01*
X134309523Y-67450952D01*
X134261904Y-67498571D01*
X134166666Y-67546190D01*
X133785714Y-67546190D01*
X134738095Y-67117619D02*
X134785714Y-67070000D01*
X134880952Y-67022380D01*
X135119047Y-67022380D01*
X135214285Y-67070000D01*
X135261904Y-67117619D01*
X135309523Y-67212857D01*
X135309523Y-67308095D01*
X135261904Y-67450952D01*
X134690476Y-68022380D01*
X135309523Y-68022380D01*
X136166666Y-67355714D02*
X136166666Y-68022380D01*
X135928571Y-66974761D02*
X135690476Y-67689047D01*
X136309523Y-67689047D01*
%TO.C,R23*%
X140094642Y-133222380D02*
X139761309Y-132746190D01*
X139523214Y-133222380D02*
X139523214Y-132222380D01*
X139904166Y-132222380D01*
X139999404Y-132270000D01*
X140047023Y-132317619D01*
X140094642Y-132412857D01*
X140094642Y-132555714D01*
X140047023Y-132650952D01*
X139999404Y-132698571D01*
X139904166Y-132746190D01*
X139523214Y-132746190D01*
X140475595Y-132317619D02*
X140523214Y-132270000D01*
X140618452Y-132222380D01*
X140856547Y-132222380D01*
X140951785Y-132270000D01*
X140999404Y-132317619D01*
X141047023Y-132412857D01*
X141047023Y-132508095D01*
X140999404Y-132650952D01*
X140427976Y-133222380D01*
X141047023Y-133222380D01*
X141380357Y-132222380D02*
X141999404Y-132222380D01*
X141666071Y-132603333D01*
X141808928Y-132603333D01*
X141904166Y-132650952D01*
X141951785Y-132698571D01*
X141999404Y-132793809D01*
X141999404Y-133031904D01*
X141951785Y-133127142D01*
X141904166Y-133174761D01*
X141808928Y-133222380D01*
X141523214Y-133222380D01*
X141427976Y-133174761D01*
X141380357Y-133127142D01*
%TO.C,R22*%
X119357142Y-65022380D02*
X119023809Y-64546190D01*
X118785714Y-65022380D02*
X118785714Y-64022380D01*
X119166666Y-64022380D01*
X119261904Y-64070000D01*
X119309523Y-64117619D01*
X119357142Y-64212857D01*
X119357142Y-64355714D01*
X119309523Y-64450952D01*
X119261904Y-64498571D01*
X119166666Y-64546190D01*
X118785714Y-64546190D01*
X119738095Y-64117619D02*
X119785714Y-64070000D01*
X119880952Y-64022380D01*
X120119047Y-64022380D01*
X120214285Y-64070000D01*
X120261904Y-64117619D01*
X120309523Y-64212857D01*
X120309523Y-64308095D01*
X120261904Y-64450952D01*
X119690476Y-65022380D01*
X120309523Y-65022380D01*
X120690476Y-64117619D02*
X120738095Y-64070000D01*
X120833333Y-64022380D01*
X121071428Y-64022380D01*
X121166666Y-64070000D01*
X121214285Y-64117619D01*
X121261904Y-64212857D01*
X121261904Y-64308095D01*
X121214285Y-64450952D01*
X120642857Y-65022380D01*
X121261904Y-65022380D01*
%TO.C,R21*%
X134357142Y-65022380D02*
X134023809Y-64546190D01*
X133785714Y-65022380D02*
X133785714Y-64022380D01*
X134166666Y-64022380D01*
X134261904Y-64070000D01*
X134309523Y-64117619D01*
X134357142Y-64212857D01*
X134357142Y-64355714D01*
X134309523Y-64450952D01*
X134261904Y-64498571D01*
X134166666Y-64546190D01*
X133785714Y-64546190D01*
X134738095Y-64117619D02*
X134785714Y-64070000D01*
X134880952Y-64022380D01*
X135119047Y-64022380D01*
X135214285Y-64070000D01*
X135261904Y-64117619D01*
X135309523Y-64212857D01*
X135309523Y-64308095D01*
X135261904Y-64450952D01*
X134690476Y-65022380D01*
X135309523Y-65022380D01*
X136261904Y-65022380D02*
X135690476Y-65022380D01*
X135976190Y-65022380D02*
X135976190Y-64022380D01*
X135880952Y-64165238D01*
X135785714Y-64260476D01*
X135690476Y-64308095D01*
%TO.C,R20*%
X119357142Y-62022380D02*
X119023809Y-61546190D01*
X118785714Y-62022380D02*
X118785714Y-61022380D01*
X119166666Y-61022380D01*
X119261904Y-61070000D01*
X119309523Y-61117619D01*
X119357142Y-61212857D01*
X119357142Y-61355714D01*
X119309523Y-61450952D01*
X119261904Y-61498571D01*
X119166666Y-61546190D01*
X118785714Y-61546190D01*
X119738095Y-61117619D02*
X119785714Y-61070000D01*
X119880952Y-61022380D01*
X120119047Y-61022380D01*
X120214285Y-61070000D01*
X120261904Y-61117619D01*
X120309523Y-61212857D01*
X120309523Y-61308095D01*
X120261904Y-61450952D01*
X119690476Y-62022380D01*
X120309523Y-62022380D01*
X120928571Y-61022380D02*
X121023809Y-61022380D01*
X121119047Y-61070000D01*
X121166666Y-61117619D01*
X121214285Y-61212857D01*
X121261904Y-61403333D01*
X121261904Y-61641428D01*
X121214285Y-61831904D01*
X121166666Y-61927142D01*
X121119047Y-61974761D01*
X121023809Y-62022380D01*
X120928571Y-62022380D01*
X120833333Y-61974761D01*
X120785714Y-61927142D01*
X120738095Y-61831904D01*
X120690476Y-61641428D01*
X120690476Y-61403333D01*
X120738095Y-61212857D01*
X120785714Y-61117619D01*
X120833333Y-61070000D01*
X120928571Y-61022380D01*
%TO.C,R19*%
X134357142Y-62022380D02*
X134023809Y-61546190D01*
X133785714Y-62022380D02*
X133785714Y-61022380D01*
X134166666Y-61022380D01*
X134261904Y-61070000D01*
X134309523Y-61117619D01*
X134357142Y-61212857D01*
X134357142Y-61355714D01*
X134309523Y-61450952D01*
X134261904Y-61498571D01*
X134166666Y-61546190D01*
X133785714Y-61546190D01*
X135309523Y-62022380D02*
X134738095Y-62022380D01*
X135023809Y-62022380D02*
X135023809Y-61022380D01*
X134928571Y-61165238D01*
X134833333Y-61260476D01*
X134738095Y-61308095D01*
X135785714Y-62022380D02*
X135976190Y-62022380D01*
X136071428Y-61974761D01*
X136119047Y-61927142D01*
X136214285Y-61784285D01*
X136261904Y-61593809D01*
X136261904Y-61212857D01*
X136214285Y-61117619D01*
X136166666Y-61070000D01*
X136071428Y-61022380D01*
X135880952Y-61022380D01*
X135785714Y-61070000D01*
X135738095Y-61117619D01*
X135690476Y-61212857D01*
X135690476Y-61450952D01*
X135738095Y-61546190D01*
X135785714Y-61593809D01*
X135880952Y-61641428D01*
X136071428Y-61641428D01*
X136166666Y-61593809D01*
X136214285Y-61546190D01*
X136261904Y-61450952D01*
%TO.C,R18*%
X119357142Y-59022380D02*
X119023809Y-58546190D01*
X118785714Y-59022380D02*
X118785714Y-58022380D01*
X119166666Y-58022380D01*
X119261904Y-58070000D01*
X119309523Y-58117619D01*
X119357142Y-58212857D01*
X119357142Y-58355714D01*
X119309523Y-58450952D01*
X119261904Y-58498571D01*
X119166666Y-58546190D01*
X118785714Y-58546190D01*
X120309523Y-59022380D02*
X119738095Y-59022380D01*
X120023809Y-59022380D02*
X120023809Y-58022380D01*
X119928571Y-58165238D01*
X119833333Y-58260476D01*
X119738095Y-58308095D01*
X120880952Y-58450952D02*
X120785714Y-58403333D01*
X120738095Y-58355714D01*
X120690476Y-58260476D01*
X120690476Y-58212857D01*
X120738095Y-58117619D01*
X120785714Y-58070000D01*
X120880952Y-58022380D01*
X121071428Y-58022380D01*
X121166666Y-58070000D01*
X121214285Y-58117619D01*
X121261904Y-58212857D01*
X121261904Y-58260476D01*
X121214285Y-58355714D01*
X121166666Y-58403333D01*
X121071428Y-58450952D01*
X120880952Y-58450952D01*
X120785714Y-58498571D01*
X120738095Y-58546190D01*
X120690476Y-58641428D01*
X120690476Y-58831904D01*
X120738095Y-58927142D01*
X120785714Y-58974761D01*
X120880952Y-59022380D01*
X121071428Y-59022380D01*
X121166666Y-58974761D01*
X121214285Y-58927142D01*
X121261904Y-58831904D01*
X121261904Y-58641428D01*
X121214285Y-58546190D01*
X121166666Y-58498571D01*
X121071428Y-58450952D01*
%TO.C,R17*%
X134357142Y-59022380D02*
X134023809Y-58546190D01*
X133785714Y-59022380D02*
X133785714Y-58022380D01*
X134166666Y-58022380D01*
X134261904Y-58070000D01*
X134309523Y-58117619D01*
X134357142Y-58212857D01*
X134357142Y-58355714D01*
X134309523Y-58450952D01*
X134261904Y-58498571D01*
X134166666Y-58546190D01*
X133785714Y-58546190D01*
X135309523Y-59022380D02*
X134738095Y-59022380D01*
X135023809Y-59022380D02*
X135023809Y-58022380D01*
X134928571Y-58165238D01*
X134833333Y-58260476D01*
X134738095Y-58308095D01*
X135642857Y-58022380D02*
X136309523Y-58022380D01*
X135880952Y-59022380D01*
%TO.C,R16*%
X111157142Y-130452380D02*
X110823809Y-129976190D01*
X110585714Y-130452380D02*
X110585714Y-129452380D01*
X110966666Y-129452380D01*
X111061904Y-129500000D01*
X111109523Y-129547619D01*
X111157142Y-129642857D01*
X111157142Y-129785714D01*
X111109523Y-129880952D01*
X111061904Y-129928571D01*
X110966666Y-129976190D01*
X110585714Y-129976190D01*
X112109523Y-130452380D02*
X111538095Y-130452380D01*
X111823809Y-130452380D02*
X111823809Y-129452380D01*
X111728571Y-129595238D01*
X111633333Y-129690476D01*
X111538095Y-129738095D01*
X112966666Y-129452380D02*
X112776190Y-129452380D01*
X112680952Y-129500000D01*
X112633333Y-129547619D01*
X112538095Y-129690476D01*
X112490476Y-129880952D01*
X112490476Y-130261904D01*
X112538095Y-130357142D01*
X112585714Y-130404761D01*
X112680952Y-130452380D01*
X112871428Y-130452380D01*
X112966666Y-130404761D01*
X113014285Y-130357142D01*
X113061904Y-130261904D01*
X113061904Y-130023809D01*
X113014285Y-129928571D01*
X112966666Y-129880952D01*
X112871428Y-129833333D01*
X112680952Y-129833333D01*
X112585714Y-129880952D01*
X112538095Y-129928571D01*
X112490476Y-130023809D01*
%TO.C,R15*%
X111157142Y-134452380D02*
X110823809Y-133976190D01*
X110585714Y-134452380D02*
X110585714Y-133452380D01*
X110966666Y-133452380D01*
X111061904Y-133500000D01*
X111109523Y-133547619D01*
X111157142Y-133642857D01*
X111157142Y-133785714D01*
X111109523Y-133880952D01*
X111061904Y-133928571D01*
X110966666Y-133976190D01*
X110585714Y-133976190D01*
X112109523Y-134452380D02*
X111538095Y-134452380D01*
X111823809Y-134452380D02*
X111823809Y-133452380D01*
X111728571Y-133595238D01*
X111633333Y-133690476D01*
X111538095Y-133738095D01*
X113014285Y-133452380D02*
X112538095Y-133452380D01*
X112490476Y-133928571D01*
X112538095Y-133880952D01*
X112633333Y-133833333D01*
X112871428Y-133833333D01*
X112966666Y-133880952D01*
X113014285Y-133928571D01*
X113061904Y-134023809D01*
X113061904Y-134261904D01*
X113014285Y-134357142D01*
X112966666Y-134404761D01*
X112871428Y-134452380D01*
X112633333Y-134452380D01*
X112538095Y-134404761D01*
X112490476Y-134357142D01*
%TO.C,R14*%
X111157142Y-132452380D02*
X110823809Y-131976190D01*
X110585714Y-132452380D02*
X110585714Y-131452380D01*
X110966666Y-131452380D01*
X111061904Y-131500000D01*
X111109523Y-131547619D01*
X111157142Y-131642857D01*
X111157142Y-131785714D01*
X111109523Y-131880952D01*
X111061904Y-131928571D01*
X110966666Y-131976190D01*
X110585714Y-131976190D01*
X112109523Y-132452380D02*
X111538095Y-132452380D01*
X111823809Y-132452380D02*
X111823809Y-131452380D01*
X111728571Y-131595238D01*
X111633333Y-131690476D01*
X111538095Y-131738095D01*
X112966666Y-131785714D02*
X112966666Y-132452380D01*
X112728571Y-131404761D02*
X112490476Y-132119047D01*
X113109523Y-132119047D01*
%TO.C,R13*%
X103757142Y-117552380D02*
X103423809Y-117076190D01*
X103185714Y-117552380D02*
X103185714Y-116552380D01*
X103566666Y-116552380D01*
X103661904Y-116600000D01*
X103709523Y-116647619D01*
X103757142Y-116742857D01*
X103757142Y-116885714D01*
X103709523Y-116980952D01*
X103661904Y-117028571D01*
X103566666Y-117076190D01*
X103185714Y-117076190D01*
X104709523Y-117552380D02*
X104138095Y-117552380D01*
X104423809Y-117552380D02*
X104423809Y-116552380D01*
X104328571Y-116695238D01*
X104233333Y-116790476D01*
X104138095Y-116838095D01*
X105042857Y-116552380D02*
X105661904Y-116552380D01*
X105328571Y-116933333D01*
X105471428Y-116933333D01*
X105566666Y-116980952D01*
X105614285Y-117028571D01*
X105661904Y-117123809D01*
X105661904Y-117361904D01*
X105614285Y-117457142D01*
X105566666Y-117504761D01*
X105471428Y-117552380D01*
X105185714Y-117552380D01*
X105090476Y-117504761D01*
X105042857Y-117457142D01*
%TO.C,R12*%
X65452380Y-130842857D02*
X64976190Y-131176190D01*
X65452380Y-131414285D02*
X64452380Y-131414285D01*
X64452380Y-131033333D01*
X64500000Y-130938095D01*
X64547619Y-130890476D01*
X64642857Y-130842857D01*
X64785714Y-130842857D01*
X64880952Y-130890476D01*
X64928571Y-130938095D01*
X64976190Y-131033333D01*
X64976190Y-131414285D01*
X65452380Y-129890476D02*
X65452380Y-130461904D01*
X65452380Y-130176190D02*
X64452380Y-130176190D01*
X64595238Y-130271428D01*
X64690476Y-130366666D01*
X64738095Y-130461904D01*
X64547619Y-129509523D02*
X64500000Y-129461904D01*
X64452380Y-129366666D01*
X64452380Y-129128571D01*
X64500000Y-129033333D01*
X64547619Y-128985714D01*
X64642857Y-128938095D01*
X64738095Y-128938095D01*
X64880952Y-128985714D01*
X65452380Y-129557142D01*
X65452380Y-128938095D01*
%TO.C,R11*%
X57557142Y-131552380D02*
X57223809Y-131076190D01*
X56985714Y-131552380D02*
X56985714Y-130552380D01*
X57366666Y-130552380D01*
X57461904Y-130600000D01*
X57509523Y-130647619D01*
X57557142Y-130742857D01*
X57557142Y-130885714D01*
X57509523Y-130980952D01*
X57461904Y-131028571D01*
X57366666Y-131076190D01*
X56985714Y-131076190D01*
X58509523Y-131552380D02*
X57938095Y-131552380D01*
X58223809Y-131552380D02*
X58223809Y-130552380D01*
X58128571Y-130695238D01*
X58033333Y-130790476D01*
X57938095Y-130838095D01*
X59461904Y-131552380D02*
X58890476Y-131552380D01*
X59176190Y-131552380D02*
X59176190Y-130552380D01*
X59080952Y-130695238D01*
X58985714Y-130790476D01*
X58890476Y-130838095D01*
%TO.C,R10*%
X88957142Y-117552380D02*
X88623809Y-117076190D01*
X88385714Y-117552380D02*
X88385714Y-116552380D01*
X88766666Y-116552380D01*
X88861904Y-116600000D01*
X88909523Y-116647619D01*
X88957142Y-116742857D01*
X88957142Y-116885714D01*
X88909523Y-116980952D01*
X88861904Y-117028571D01*
X88766666Y-117076190D01*
X88385714Y-117076190D01*
X89909523Y-117552380D02*
X89338095Y-117552380D01*
X89623809Y-117552380D02*
X89623809Y-116552380D01*
X89528571Y-116695238D01*
X89433333Y-116790476D01*
X89338095Y-116838095D01*
X90528571Y-116552380D02*
X90623809Y-116552380D01*
X90719047Y-116600000D01*
X90766666Y-116647619D01*
X90814285Y-116742857D01*
X90861904Y-116933333D01*
X90861904Y-117171428D01*
X90814285Y-117361904D01*
X90766666Y-117457142D01*
X90719047Y-117504761D01*
X90623809Y-117552380D01*
X90528571Y-117552380D01*
X90433333Y-117504761D01*
X90385714Y-117457142D01*
X90338095Y-117361904D01*
X90290476Y-117171428D01*
X90290476Y-116933333D01*
X90338095Y-116742857D01*
X90385714Y-116647619D01*
X90433333Y-116600000D01*
X90528571Y-116552380D01*
%TO.C,R9*%
X70633333Y-133152380D02*
X70300000Y-132676190D01*
X70061904Y-133152380D02*
X70061904Y-132152380D01*
X70442857Y-132152380D01*
X70538095Y-132200000D01*
X70585714Y-132247619D01*
X70633333Y-132342857D01*
X70633333Y-132485714D01*
X70585714Y-132580952D01*
X70538095Y-132628571D01*
X70442857Y-132676190D01*
X70061904Y-132676190D01*
X71109523Y-133152380D02*
X71300000Y-133152380D01*
X71395238Y-133104761D01*
X71442857Y-133057142D01*
X71538095Y-132914285D01*
X71585714Y-132723809D01*
X71585714Y-132342857D01*
X71538095Y-132247619D01*
X71490476Y-132200000D01*
X71395238Y-132152380D01*
X71204761Y-132152380D01*
X71109523Y-132200000D01*
X71061904Y-132247619D01*
X71014285Y-132342857D01*
X71014285Y-132580952D01*
X71061904Y-132676190D01*
X71109523Y-132723809D01*
X71204761Y-132771428D01*
X71395238Y-132771428D01*
X71490476Y-132723809D01*
X71538095Y-132676190D01*
X71585714Y-132580952D01*
%TO.C,R8*%
X76433333Y-137452380D02*
X76100000Y-136976190D01*
X75861904Y-137452380D02*
X75861904Y-136452380D01*
X76242857Y-136452380D01*
X76338095Y-136500000D01*
X76385714Y-136547619D01*
X76433333Y-136642857D01*
X76433333Y-136785714D01*
X76385714Y-136880952D01*
X76338095Y-136928571D01*
X76242857Y-136976190D01*
X75861904Y-136976190D01*
X77004761Y-136880952D02*
X76909523Y-136833333D01*
X76861904Y-136785714D01*
X76814285Y-136690476D01*
X76814285Y-136642857D01*
X76861904Y-136547619D01*
X76909523Y-136500000D01*
X77004761Y-136452380D01*
X77195238Y-136452380D01*
X77290476Y-136500000D01*
X77338095Y-136547619D01*
X77385714Y-136642857D01*
X77385714Y-136690476D01*
X77338095Y-136785714D01*
X77290476Y-136833333D01*
X77195238Y-136880952D01*
X77004761Y-136880952D01*
X76909523Y-136928571D01*
X76861904Y-136976190D01*
X76814285Y-137071428D01*
X76814285Y-137261904D01*
X76861904Y-137357142D01*
X76909523Y-137404761D01*
X77004761Y-137452380D01*
X77195238Y-137452380D01*
X77290476Y-137404761D01*
X77338095Y-137357142D01*
X77385714Y-137261904D01*
X77385714Y-137071428D01*
X77338095Y-136976190D01*
X77290476Y-136928571D01*
X77195238Y-136880952D01*
%TO.C,R7*%
X126633333Y-127852380D02*
X126300000Y-127376190D01*
X126061904Y-127852380D02*
X126061904Y-126852380D01*
X126442857Y-126852380D01*
X126538095Y-126900000D01*
X126585714Y-126947619D01*
X126633333Y-127042857D01*
X126633333Y-127185714D01*
X126585714Y-127280952D01*
X126538095Y-127328571D01*
X126442857Y-127376190D01*
X126061904Y-127376190D01*
X126966666Y-126852380D02*
X127633333Y-126852380D01*
X127204761Y-127852380D01*
%TO.C,R6*%
X126633333Y-125852380D02*
X126300000Y-125376190D01*
X126061904Y-125852380D02*
X126061904Y-124852380D01*
X126442857Y-124852380D01*
X126538095Y-124900000D01*
X126585714Y-124947619D01*
X126633333Y-125042857D01*
X126633333Y-125185714D01*
X126585714Y-125280952D01*
X126538095Y-125328571D01*
X126442857Y-125376190D01*
X126061904Y-125376190D01*
X127490476Y-124852380D02*
X127300000Y-124852380D01*
X127204761Y-124900000D01*
X127157142Y-124947619D01*
X127061904Y-125090476D01*
X127014285Y-125280952D01*
X127014285Y-125661904D01*
X127061904Y-125757142D01*
X127109523Y-125804761D01*
X127204761Y-125852380D01*
X127395238Y-125852380D01*
X127490476Y-125804761D01*
X127538095Y-125757142D01*
X127585714Y-125661904D01*
X127585714Y-125423809D01*
X127538095Y-125328571D01*
X127490476Y-125280952D01*
X127395238Y-125233333D01*
X127204761Y-125233333D01*
X127109523Y-125280952D01*
X127061904Y-125328571D01*
X127014285Y-125423809D01*
%TO.C,R5*%
X128633333Y-137452380D02*
X128300000Y-136976190D01*
X128061904Y-137452380D02*
X128061904Y-136452380D01*
X128442857Y-136452380D01*
X128538095Y-136500000D01*
X128585714Y-136547619D01*
X128633333Y-136642857D01*
X128633333Y-136785714D01*
X128585714Y-136880952D01*
X128538095Y-136928571D01*
X128442857Y-136976190D01*
X128061904Y-136976190D01*
X129538095Y-136452380D02*
X129061904Y-136452380D01*
X129014285Y-136928571D01*
X129061904Y-136880952D01*
X129157142Y-136833333D01*
X129395238Y-136833333D01*
X129490476Y-136880952D01*
X129538095Y-136928571D01*
X129585714Y-137023809D01*
X129585714Y-137261904D01*
X129538095Y-137357142D01*
X129490476Y-137404761D01*
X129395238Y-137452380D01*
X129157142Y-137452380D01*
X129061904Y-137404761D01*
X129014285Y-137357142D01*
%TO.C,R4*%
X52533333Y-140852380D02*
X52200000Y-140376190D01*
X51961904Y-140852380D02*
X51961904Y-139852380D01*
X52342857Y-139852380D01*
X52438095Y-139900000D01*
X52485714Y-139947619D01*
X52533333Y-140042857D01*
X52533333Y-140185714D01*
X52485714Y-140280952D01*
X52438095Y-140328571D01*
X52342857Y-140376190D01*
X51961904Y-140376190D01*
X53390476Y-140185714D02*
X53390476Y-140852380D01*
X53152380Y-139804761D02*
X52914285Y-140519047D01*
X53533333Y-140519047D01*
%TO.C,R3*%
X52533333Y-142552380D02*
X52200000Y-142076190D01*
X51961904Y-142552380D02*
X51961904Y-141552380D01*
X52342857Y-141552380D01*
X52438095Y-141600000D01*
X52485714Y-141647619D01*
X52533333Y-141742857D01*
X52533333Y-141885714D01*
X52485714Y-141980952D01*
X52438095Y-142028571D01*
X52342857Y-142076190D01*
X51961904Y-142076190D01*
X52866666Y-141552380D02*
X53485714Y-141552380D01*
X53152380Y-141933333D01*
X53295238Y-141933333D01*
X53390476Y-141980952D01*
X53438095Y-142028571D01*
X53485714Y-142123809D01*
X53485714Y-142361904D01*
X53438095Y-142457142D01*
X53390476Y-142504761D01*
X53295238Y-142552380D01*
X53009523Y-142552380D01*
X52914285Y-142504761D01*
X52866666Y-142457142D01*
%TO.C,R2*%
X52533333Y-139052380D02*
X52200000Y-138576190D01*
X51961904Y-139052380D02*
X51961904Y-138052380D01*
X52342857Y-138052380D01*
X52438095Y-138100000D01*
X52485714Y-138147619D01*
X52533333Y-138242857D01*
X52533333Y-138385714D01*
X52485714Y-138480952D01*
X52438095Y-138528571D01*
X52342857Y-138576190D01*
X51961904Y-138576190D01*
X52914285Y-138147619D02*
X52961904Y-138100000D01*
X53057142Y-138052380D01*
X53295238Y-138052380D01*
X53390476Y-138100000D01*
X53438095Y-138147619D01*
X53485714Y-138242857D01*
X53485714Y-138338095D01*
X53438095Y-138480952D01*
X52866666Y-139052380D01*
X53485714Y-139052380D01*
%TO.C,R1*%
X128833333Y-140532380D02*
X128500000Y-140056190D01*
X128261904Y-140532380D02*
X128261904Y-139532380D01*
X128642857Y-139532380D01*
X128738095Y-139580000D01*
X128785714Y-139627619D01*
X128833333Y-139722857D01*
X128833333Y-139865714D01*
X128785714Y-139960952D01*
X128738095Y-140008571D01*
X128642857Y-140056190D01*
X128261904Y-140056190D01*
X129785714Y-140532380D02*
X129214285Y-140532380D01*
X129500000Y-140532380D02*
X129500000Y-139532380D01*
X129404761Y-139675238D01*
X129309523Y-139770476D01*
X129214285Y-139818095D01*
%TO.C,L1*%
X99833333Y-147652380D02*
X99357142Y-147652380D01*
X99357142Y-146652380D01*
X100690476Y-147652380D02*
X100119047Y-147652380D01*
X100404761Y-147652380D02*
X100404761Y-146652380D01*
X100309523Y-146795238D01*
X100214285Y-146890476D01*
X100119047Y-146938095D01*
%TO.C,J4*%
X115982380Y-127733333D02*
X116696666Y-127733333D01*
X116839523Y-127780952D01*
X116934761Y-127876190D01*
X116982380Y-128019047D01*
X116982380Y-128114285D01*
X116315714Y-126828571D02*
X116982380Y-126828571D01*
X115934761Y-127066666D02*
X116649047Y-127304761D01*
X116649047Y-126685714D01*
%TO.C,J3*%
X133666666Y-125862380D02*
X133666666Y-126576666D01*
X133619047Y-126719523D01*
X133523809Y-126814761D01*
X133380952Y-126862380D01*
X133285714Y-126862380D01*
X134047619Y-125862380D02*
X134666666Y-125862380D01*
X134333333Y-126243333D01*
X134476190Y-126243333D01*
X134571428Y-126290952D01*
X134619047Y-126338571D01*
X134666666Y-126433809D01*
X134666666Y-126671904D01*
X134619047Y-126767142D01*
X134571428Y-126814761D01*
X134476190Y-126862380D01*
X134190476Y-126862380D01*
X134095238Y-126814761D01*
X134047619Y-126767142D01*
%TO.C,J1*%
X93766666Y-134922380D02*
X93766666Y-135636666D01*
X93719047Y-135779523D01*
X93623809Y-135874761D01*
X93480952Y-135922380D01*
X93385714Y-135922380D01*
X94766666Y-135922380D02*
X94195238Y-135922380D01*
X94480952Y-135922380D02*
X94480952Y-134922380D01*
X94385714Y-135065238D01*
X94290476Y-135160476D01*
X94195238Y-135208095D01*
%TO.C,FB1*%
X80379166Y-137498571D02*
X80045833Y-137498571D01*
X80045833Y-138022380D02*
X80045833Y-137022380D01*
X80522023Y-137022380D01*
X81236309Y-137498571D02*
X81379166Y-137546190D01*
X81426785Y-137593809D01*
X81474404Y-137689047D01*
X81474404Y-137831904D01*
X81426785Y-137927142D01*
X81379166Y-137974761D01*
X81283928Y-138022380D01*
X80902976Y-138022380D01*
X80902976Y-137022380D01*
X81236309Y-137022380D01*
X81331547Y-137070000D01*
X81379166Y-137117619D01*
X81426785Y-137212857D01*
X81426785Y-137308095D01*
X81379166Y-137403333D01*
X81331547Y-137450952D01*
X81236309Y-137498571D01*
X80902976Y-137498571D01*
X82426785Y-138022380D02*
X81855357Y-138022380D01*
X82141071Y-138022380D02*
X82141071Y-137022380D01*
X82045833Y-137165238D01*
X81950595Y-137260476D01*
X81855357Y-137308095D01*
%TO.C,D47*%
X68785714Y-80032380D02*
X68785714Y-79032380D01*
X69023809Y-79032380D01*
X69166666Y-79080000D01*
X69261904Y-79175238D01*
X69309523Y-79270476D01*
X69357142Y-79460952D01*
X69357142Y-79603809D01*
X69309523Y-79794285D01*
X69261904Y-79889523D01*
X69166666Y-79984761D01*
X69023809Y-80032380D01*
X68785714Y-80032380D01*
X70214285Y-79365714D02*
X70214285Y-80032380D01*
X69976190Y-78984761D02*
X69738095Y-79699047D01*
X70357142Y-79699047D01*
X70642857Y-79032380D02*
X71309523Y-79032380D01*
X70880952Y-80032380D01*
%TO.C,D46*%
X83785714Y-80032380D02*
X83785714Y-79032380D01*
X84023809Y-79032380D01*
X84166666Y-79080000D01*
X84261904Y-79175238D01*
X84309523Y-79270476D01*
X84357142Y-79460952D01*
X84357142Y-79603809D01*
X84309523Y-79794285D01*
X84261904Y-79889523D01*
X84166666Y-79984761D01*
X84023809Y-80032380D01*
X83785714Y-80032380D01*
X85214285Y-79365714D02*
X85214285Y-80032380D01*
X84976190Y-78984761D02*
X84738095Y-79699047D01*
X85357142Y-79699047D01*
X86166666Y-79032380D02*
X85976190Y-79032380D01*
X85880952Y-79080000D01*
X85833333Y-79127619D01*
X85738095Y-79270476D01*
X85690476Y-79460952D01*
X85690476Y-79841904D01*
X85738095Y-79937142D01*
X85785714Y-79984761D01*
X85880952Y-80032380D01*
X86071428Y-80032380D01*
X86166666Y-79984761D01*
X86214285Y-79937142D01*
X86261904Y-79841904D01*
X86261904Y-79603809D01*
X86214285Y-79508571D01*
X86166666Y-79460952D01*
X86071428Y-79413333D01*
X85880952Y-79413333D01*
X85785714Y-79460952D01*
X85738095Y-79508571D01*
X85690476Y-79603809D01*
%TO.C,D45*%
X98785714Y-80032380D02*
X98785714Y-79032380D01*
X99023809Y-79032380D01*
X99166666Y-79080000D01*
X99261904Y-79175238D01*
X99309523Y-79270476D01*
X99357142Y-79460952D01*
X99357142Y-79603809D01*
X99309523Y-79794285D01*
X99261904Y-79889523D01*
X99166666Y-79984761D01*
X99023809Y-80032380D01*
X98785714Y-80032380D01*
X100214285Y-79365714D02*
X100214285Y-80032380D01*
X99976190Y-78984761D02*
X99738095Y-79699047D01*
X100357142Y-79699047D01*
X101214285Y-79032380D02*
X100738095Y-79032380D01*
X100690476Y-79508571D01*
X100738095Y-79460952D01*
X100833333Y-79413333D01*
X101071428Y-79413333D01*
X101166666Y-79460952D01*
X101214285Y-79508571D01*
X101261904Y-79603809D01*
X101261904Y-79841904D01*
X101214285Y-79937142D01*
X101166666Y-79984761D01*
X101071428Y-80032380D01*
X100833333Y-80032380D01*
X100738095Y-79984761D01*
X100690476Y-79937142D01*
%TO.C,D44*%
X68785714Y-77032380D02*
X68785714Y-76032380D01*
X69023809Y-76032380D01*
X69166666Y-76080000D01*
X69261904Y-76175238D01*
X69309523Y-76270476D01*
X69357142Y-76460952D01*
X69357142Y-76603809D01*
X69309523Y-76794285D01*
X69261904Y-76889523D01*
X69166666Y-76984761D01*
X69023809Y-77032380D01*
X68785714Y-77032380D01*
X70214285Y-76365714D02*
X70214285Y-77032380D01*
X69976190Y-75984761D02*
X69738095Y-76699047D01*
X70357142Y-76699047D01*
X71166666Y-76365714D02*
X71166666Y-77032380D01*
X70928571Y-75984761D02*
X70690476Y-76699047D01*
X71309523Y-76699047D01*
%TO.C,D43*%
X83785714Y-77032380D02*
X83785714Y-76032380D01*
X84023809Y-76032380D01*
X84166666Y-76080000D01*
X84261904Y-76175238D01*
X84309523Y-76270476D01*
X84357142Y-76460952D01*
X84357142Y-76603809D01*
X84309523Y-76794285D01*
X84261904Y-76889523D01*
X84166666Y-76984761D01*
X84023809Y-77032380D01*
X83785714Y-77032380D01*
X85214285Y-76365714D02*
X85214285Y-77032380D01*
X84976190Y-75984761D02*
X84738095Y-76699047D01*
X85357142Y-76699047D01*
X85642857Y-76032380D02*
X86261904Y-76032380D01*
X85928571Y-76413333D01*
X86071428Y-76413333D01*
X86166666Y-76460952D01*
X86214285Y-76508571D01*
X86261904Y-76603809D01*
X86261904Y-76841904D01*
X86214285Y-76937142D01*
X86166666Y-76984761D01*
X86071428Y-77032380D01*
X85785714Y-77032380D01*
X85690476Y-76984761D01*
X85642857Y-76937142D01*
%TO.C,D42*%
X98785714Y-77032380D02*
X98785714Y-76032380D01*
X99023809Y-76032380D01*
X99166666Y-76080000D01*
X99261904Y-76175238D01*
X99309523Y-76270476D01*
X99357142Y-76460952D01*
X99357142Y-76603809D01*
X99309523Y-76794285D01*
X99261904Y-76889523D01*
X99166666Y-76984761D01*
X99023809Y-77032380D01*
X98785714Y-77032380D01*
X100214285Y-76365714D02*
X100214285Y-77032380D01*
X99976190Y-75984761D02*
X99738095Y-76699047D01*
X100357142Y-76699047D01*
X100690476Y-76127619D02*
X100738095Y-76080000D01*
X100833333Y-76032380D01*
X101071428Y-76032380D01*
X101166666Y-76080000D01*
X101214285Y-76127619D01*
X101261904Y-76222857D01*
X101261904Y-76318095D01*
X101214285Y-76460952D01*
X100642857Y-77032380D01*
X101261904Y-77032380D01*
%TO.C,D41*%
X68785714Y-74032380D02*
X68785714Y-73032380D01*
X69023809Y-73032380D01*
X69166666Y-73080000D01*
X69261904Y-73175238D01*
X69309523Y-73270476D01*
X69357142Y-73460952D01*
X69357142Y-73603809D01*
X69309523Y-73794285D01*
X69261904Y-73889523D01*
X69166666Y-73984761D01*
X69023809Y-74032380D01*
X68785714Y-74032380D01*
X70214285Y-73365714D02*
X70214285Y-74032380D01*
X69976190Y-72984761D02*
X69738095Y-73699047D01*
X70357142Y-73699047D01*
X71261904Y-74032380D02*
X70690476Y-74032380D01*
X70976190Y-74032380D02*
X70976190Y-73032380D01*
X70880952Y-73175238D01*
X70785714Y-73270476D01*
X70690476Y-73318095D01*
%TO.C,D40*%
X83785714Y-74032380D02*
X83785714Y-73032380D01*
X84023809Y-73032380D01*
X84166666Y-73080000D01*
X84261904Y-73175238D01*
X84309523Y-73270476D01*
X84357142Y-73460952D01*
X84357142Y-73603809D01*
X84309523Y-73794285D01*
X84261904Y-73889523D01*
X84166666Y-73984761D01*
X84023809Y-74032380D01*
X83785714Y-74032380D01*
X85214285Y-73365714D02*
X85214285Y-74032380D01*
X84976190Y-72984761D02*
X84738095Y-73699047D01*
X85357142Y-73699047D01*
X85928571Y-73032380D02*
X86023809Y-73032380D01*
X86119047Y-73080000D01*
X86166666Y-73127619D01*
X86214285Y-73222857D01*
X86261904Y-73413333D01*
X86261904Y-73651428D01*
X86214285Y-73841904D01*
X86166666Y-73937142D01*
X86119047Y-73984761D01*
X86023809Y-74032380D01*
X85928571Y-74032380D01*
X85833333Y-73984761D01*
X85785714Y-73937142D01*
X85738095Y-73841904D01*
X85690476Y-73651428D01*
X85690476Y-73413333D01*
X85738095Y-73222857D01*
X85785714Y-73127619D01*
X85833333Y-73080000D01*
X85928571Y-73032380D01*
%TO.C,D39*%
X98785714Y-74032380D02*
X98785714Y-73032380D01*
X99023809Y-73032380D01*
X99166666Y-73080000D01*
X99261904Y-73175238D01*
X99309523Y-73270476D01*
X99357142Y-73460952D01*
X99357142Y-73603809D01*
X99309523Y-73794285D01*
X99261904Y-73889523D01*
X99166666Y-73984761D01*
X99023809Y-74032380D01*
X98785714Y-74032380D01*
X99690476Y-73032380D02*
X100309523Y-73032380D01*
X99976190Y-73413333D01*
X100119047Y-73413333D01*
X100214285Y-73460952D01*
X100261904Y-73508571D01*
X100309523Y-73603809D01*
X100309523Y-73841904D01*
X100261904Y-73937142D01*
X100214285Y-73984761D01*
X100119047Y-74032380D01*
X99833333Y-74032380D01*
X99738095Y-73984761D01*
X99690476Y-73937142D01*
X100785714Y-74032380D02*
X100976190Y-74032380D01*
X101071428Y-73984761D01*
X101119047Y-73937142D01*
X101214285Y-73794285D01*
X101261904Y-73603809D01*
X101261904Y-73222857D01*
X101214285Y-73127619D01*
X101166666Y-73080000D01*
X101071428Y-73032380D01*
X100880952Y-73032380D01*
X100785714Y-73080000D01*
X100738095Y-73127619D01*
X100690476Y-73222857D01*
X100690476Y-73460952D01*
X100738095Y-73556190D01*
X100785714Y-73603809D01*
X100880952Y-73651428D01*
X101071428Y-73651428D01*
X101166666Y-73603809D01*
X101214285Y-73556190D01*
X101261904Y-73460952D01*
%TO.C,D38*%
X68785714Y-71032380D02*
X68785714Y-70032380D01*
X69023809Y-70032380D01*
X69166666Y-70080000D01*
X69261904Y-70175238D01*
X69309523Y-70270476D01*
X69357142Y-70460952D01*
X69357142Y-70603809D01*
X69309523Y-70794285D01*
X69261904Y-70889523D01*
X69166666Y-70984761D01*
X69023809Y-71032380D01*
X68785714Y-71032380D01*
X69690476Y-70032380D02*
X70309523Y-70032380D01*
X69976190Y-70413333D01*
X70119047Y-70413333D01*
X70214285Y-70460952D01*
X70261904Y-70508571D01*
X70309523Y-70603809D01*
X70309523Y-70841904D01*
X70261904Y-70937142D01*
X70214285Y-70984761D01*
X70119047Y-71032380D01*
X69833333Y-71032380D01*
X69738095Y-70984761D01*
X69690476Y-70937142D01*
X70880952Y-70460952D02*
X70785714Y-70413333D01*
X70738095Y-70365714D01*
X70690476Y-70270476D01*
X70690476Y-70222857D01*
X70738095Y-70127619D01*
X70785714Y-70080000D01*
X70880952Y-70032380D01*
X71071428Y-70032380D01*
X71166666Y-70080000D01*
X71214285Y-70127619D01*
X71261904Y-70222857D01*
X71261904Y-70270476D01*
X71214285Y-70365714D01*
X71166666Y-70413333D01*
X71071428Y-70460952D01*
X70880952Y-70460952D01*
X70785714Y-70508571D01*
X70738095Y-70556190D01*
X70690476Y-70651428D01*
X70690476Y-70841904D01*
X70738095Y-70937142D01*
X70785714Y-70984761D01*
X70880952Y-71032380D01*
X71071428Y-71032380D01*
X71166666Y-70984761D01*
X71214285Y-70937142D01*
X71261904Y-70841904D01*
X71261904Y-70651428D01*
X71214285Y-70556190D01*
X71166666Y-70508571D01*
X71071428Y-70460952D01*
%TO.C,D37*%
X83785714Y-71032380D02*
X83785714Y-70032380D01*
X84023809Y-70032380D01*
X84166666Y-70080000D01*
X84261904Y-70175238D01*
X84309523Y-70270476D01*
X84357142Y-70460952D01*
X84357142Y-70603809D01*
X84309523Y-70794285D01*
X84261904Y-70889523D01*
X84166666Y-70984761D01*
X84023809Y-71032380D01*
X83785714Y-71032380D01*
X84690476Y-70032380D02*
X85309523Y-70032380D01*
X84976190Y-70413333D01*
X85119047Y-70413333D01*
X85214285Y-70460952D01*
X85261904Y-70508571D01*
X85309523Y-70603809D01*
X85309523Y-70841904D01*
X85261904Y-70937142D01*
X85214285Y-70984761D01*
X85119047Y-71032380D01*
X84833333Y-71032380D01*
X84738095Y-70984761D01*
X84690476Y-70937142D01*
X85642857Y-70032380D02*
X86309523Y-70032380D01*
X85880952Y-71032380D01*
%TO.C,D36*%
X98785714Y-71032380D02*
X98785714Y-70032380D01*
X99023809Y-70032380D01*
X99166666Y-70080000D01*
X99261904Y-70175238D01*
X99309523Y-70270476D01*
X99357142Y-70460952D01*
X99357142Y-70603809D01*
X99309523Y-70794285D01*
X99261904Y-70889523D01*
X99166666Y-70984761D01*
X99023809Y-71032380D01*
X98785714Y-71032380D01*
X99690476Y-70032380D02*
X100309523Y-70032380D01*
X99976190Y-70413333D01*
X100119047Y-70413333D01*
X100214285Y-70460952D01*
X100261904Y-70508571D01*
X100309523Y-70603809D01*
X100309523Y-70841904D01*
X100261904Y-70937142D01*
X100214285Y-70984761D01*
X100119047Y-71032380D01*
X99833333Y-71032380D01*
X99738095Y-70984761D01*
X99690476Y-70937142D01*
X101166666Y-70032380D02*
X100976190Y-70032380D01*
X100880952Y-70080000D01*
X100833333Y-70127619D01*
X100738095Y-70270476D01*
X100690476Y-70460952D01*
X100690476Y-70841904D01*
X100738095Y-70937142D01*
X100785714Y-70984761D01*
X100880952Y-71032380D01*
X101071428Y-71032380D01*
X101166666Y-70984761D01*
X101214285Y-70937142D01*
X101261904Y-70841904D01*
X101261904Y-70603809D01*
X101214285Y-70508571D01*
X101166666Y-70460952D01*
X101071428Y-70413333D01*
X100880952Y-70413333D01*
X100785714Y-70460952D01*
X100738095Y-70508571D01*
X100690476Y-70603809D01*
%TO.C,D35*%
X68785714Y-68032380D02*
X68785714Y-67032380D01*
X69023809Y-67032380D01*
X69166666Y-67080000D01*
X69261904Y-67175238D01*
X69309523Y-67270476D01*
X69357142Y-67460952D01*
X69357142Y-67603809D01*
X69309523Y-67794285D01*
X69261904Y-67889523D01*
X69166666Y-67984761D01*
X69023809Y-68032380D01*
X68785714Y-68032380D01*
X69690476Y-67032380D02*
X70309523Y-67032380D01*
X69976190Y-67413333D01*
X70119047Y-67413333D01*
X70214285Y-67460952D01*
X70261904Y-67508571D01*
X70309523Y-67603809D01*
X70309523Y-67841904D01*
X70261904Y-67937142D01*
X70214285Y-67984761D01*
X70119047Y-68032380D01*
X69833333Y-68032380D01*
X69738095Y-67984761D01*
X69690476Y-67937142D01*
X71214285Y-67032380D02*
X70738095Y-67032380D01*
X70690476Y-67508571D01*
X70738095Y-67460952D01*
X70833333Y-67413333D01*
X71071428Y-67413333D01*
X71166666Y-67460952D01*
X71214285Y-67508571D01*
X71261904Y-67603809D01*
X71261904Y-67841904D01*
X71214285Y-67937142D01*
X71166666Y-67984761D01*
X71071428Y-68032380D01*
X70833333Y-68032380D01*
X70738095Y-67984761D01*
X70690476Y-67937142D01*
%TO.C,D34*%
X83785714Y-68032380D02*
X83785714Y-67032380D01*
X84023809Y-67032380D01*
X84166666Y-67080000D01*
X84261904Y-67175238D01*
X84309523Y-67270476D01*
X84357142Y-67460952D01*
X84357142Y-67603809D01*
X84309523Y-67794285D01*
X84261904Y-67889523D01*
X84166666Y-67984761D01*
X84023809Y-68032380D01*
X83785714Y-68032380D01*
X84690476Y-67032380D02*
X85309523Y-67032380D01*
X84976190Y-67413333D01*
X85119047Y-67413333D01*
X85214285Y-67460952D01*
X85261904Y-67508571D01*
X85309523Y-67603809D01*
X85309523Y-67841904D01*
X85261904Y-67937142D01*
X85214285Y-67984761D01*
X85119047Y-68032380D01*
X84833333Y-68032380D01*
X84738095Y-67984761D01*
X84690476Y-67937142D01*
X86166666Y-67365714D02*
X86166666Y-68032380D01*
X85928571Y-66984761D02*
X85690476Y-67699047D01*
X86309523Y-67699047D01*
%TO.C,D33*%
X98785714Y-68032380D02*
X98785714Y-67032380D01*
X99023809Y-67032380D01*
X99166666Y-67080000D01*
X99261904Y-67175238D01*
X99309523Y-67270476D01*
X99357142Y-67460952D01*
X99357142Y-67603809D01*
X99309523Y-67794285D01*
X99261904Y-67889523D01*
X99166666Y-67984761D01*
X99023809Y-68032380D01*
X98785714Y-68032380D01*
X99690476Y-67032380D02*
X100309523Y-67032380D01*
X99976190Y-67413333D01*
X100119047Y-67413333D01*
X100214285Y-67460952D01*
X100261904Y-67508571D01*
X100309523Y-67603809D01*
X100309523Y-67841904D01*
X100261904Y-67937142D01*
X100214285Y-67984761D01*
X100119047Y-68032380D01*
X99833333Y-68032380D01*
X99738095Y-67984761D01*
X99690476Y-67937142D01*
X100642857Y-67032380D02*
X101261904Y-67032380D01*
X100928571Y-67413333D01*
X101071428Y-67413333D01*
X101166666Y-67460952D01*
X101214285Y-67508571D01*
X101261904Y-67603809D01*
X101261904Y-67841904D01*
X101214285Y-67937142D01*
X101166666Y-67984761D01*
X101071428Y-68032380D01*
X100785714Y-68032380D01*
X100690476Y-67984761D01*
X100642857Y-67937142D01*
%TO.C,D32*%
X68785714Y-65032380D02*
X68785714Y-64032380D01*
X69023809Y-64032380D01*
X69166666Y-64080000D01*
X69261904Y-64175238D01*
X69309523Y-64270476D01*
X69357142Y-64460952D01*
X69357142Y-64603809D01*
X69309523Y-64794285D01*
X69261904Y-64889523D01*
X69166666Y-64984761D01*
X69023809Y-65032380D01*
X68785714Y-65032380D01*
X69690476Y-64032380D02*
X70309523Y-64032380D01*
X69976190Y-64413333D01*
X70119047Y-64413333D01*
X70214285Y-64460952D01*
X70261904Y-64508571D01*
X70309523Y-64603809D01*
X70309523Y-64841904D01*
X70261904Y-64937142D01*
X70214285Y-64984761D01*
X70119047Y-65032380D01*
X69833333Y-65032380D01*
X69738095Y-64984761D01*
X69690476Y-64937142D01*
X70690476Y-64127619D02*
X70738095Y-64080000D01*
X70833333Y-64032380D01*
X71071428Y-64032380D01*
X71166666Y-64080000D01*
X71214285Y-64127619D01*
X71261904Y-64222857D01*
X71261904Y-64318095D01*
X71214285Y-64460952D01*
X70642857Y-65032380D01*
X71261904Y-65032380D01*
%TO.C,D31*%
X83785714Y-65032380D02*
X83785714Y-64032380D01*
X84023809Y-64032380D01*
X84166666Y-64080000D01*
X84261904Y-64175238D01*
X84309523Y-64270476D01*
X84357142Y-64460952D01*
X84357142Y-64603809D01*
X84309523Y-64794285D01*
X84261904Y-64889523D01*
X84166666Y-64984761D01*
X84023809Y-65032380D01*
X83785714Y-65032380D01*
X84690476Y-64032380D02*
X85309523Y-64032380D01*
X84976190Y-64413333D01*
X85119047Y-64413333D01*
X85214285Y-64460952D01*
X85261904Y-64508571D01*
X85309523Y-64603809D01*
X85309523Y-64841904D01*
X85261904Y-64937142D01*
X85214285Y-64984761D01*
X85119047Y-65032380D01*
X84833333Y-65032380D01*
X84738095Y-64984761D01*
X84690476Y-64937142D01*
X86261904Y-65032380D02*
X85690476Y-65032380D01*
X85976190Y-65032380D02*
X85976190Y-64032380D01*
X85880952Y-64175238D01*
X85785714Y-64270476D01*
X85690476Y-64318095D01*
%TO.C,D30*%
X98785714Y-65032380D02*
X98785714Y-64032380D01*
X99023809Y-64032380D01*
X99166666Y-64080000D01*
X99261904Y-64175238D01*
X99309523Y-64270476D01*
X99357142Y-64460952D01*
X99357142Y-64603809D01*
X99309523Y-64794285D01*
X99261904Y-64889523D01*
X99166666Y-64984761D01*
X99023809Y-65032380D01*
X98785714Y-65032380D01*
X99690476Y-64032380D02*
X100309523Y-64032380D01*
X99976190Y-64413333D01*
X100119047Y-64413333D01*
X100214285Y-64460952D01*
X100261904Y-64508571D01*
X100309523Y-64603809D01*
X100309523Y-64841904D01*
X100261904Y-64937142D01*
X100214285Y-64984761D01*
X100119047Y-65032380D01*
X99833333Y-65032380D01*
X99738095Y-64984761D01*
X99690476Y-64937142D01*
X100928571Y-64032380D02*
X101023809Y-64032380D01*
X101119047Y-64080000D01*
X101166666Y-64127619D01*
X101214285Y-64222857D01*
X101261904Y-64413333D01*
X101261904Y-64651428D01*
X101214285Y-64841904D01*
X101166666Y-64937142D01*
X101119047Y-64984761D01*
X101023809Y-65032380D01*
X100928571Y-65032380D01*
X100833333Y-64984761D01*
X100785714Y-64937142D01*
X100738095Y-64841904D01*
X100690476Y-64651428D01*
X100690476Y-64413333D01*
X100738095Y-64222857D01*
X100785714Y-64127619D01*
X100833333Y-64080000D01*
X100928571Y-64032380D01*
%TO.C,D29*%
X68785714Y-62032380D02*
X68785714Y-61032380D01*
X69023809Y-61032380D01*
X69166666Y-61080000D01*
X69261904Y-61175238D01*
X69309523Y-61270476D01*
X69357142Y-61460952D01*
X69357142Y-61603809D01*
X69309523Y-61794285D01*
X69261904Y-61889523D01*
X69166666Y-61984761D01*
X69023809Y-62032380D01*
X68785714Y-62032380D01*
X69738095Y-61127619D02*
X69785714Y-61080000D01*
X69880952Y-61032380D01*
X70119047Y-61032380D01*
X70214285Y-61080000D01*
X70261904Y-61127619D01*
X70309523Y-61222857D01*
X70309523Y-61318095D01*
X70261904Y-61460952D01*
X69690476Y-62032380D01*
X70309523Y-62032380D01*
X70785714Y-62032380D02*
X70976190Y-62032380D01*
X71071428Y-61984761D01*
X71119047Y-61937142D01*
X71214285Y-61794285D01*
X71261904Y-61603809D01*
X71261904Y-61222857D01*
X71214285Y-61127619D01*
X71166666Y-61080000D01*
X71071428Y-61032380D01*
X70880952Y-61032380D01*
X70785714Y-61080000D01*
X70738095Y-61127619D01*
X70690476Y-61222857D01*
X70690476Y-61460952D01*
X70738095Y-61556190D01*
X70785714Y-61603809D01*
X70880952Y-61651428D01*
X71071428Y-61651428D01*
X71166666Y-61603809D01*
X71214285Y-61556190D01*
X71261904Y-61460952D01*
%TO.C,D28*%
X83785714Y-62032380D02*
X83785714Y-61032380D01*
X84023809Y-61032380D01*
X84166666Y-61080000D01*
X84261904Y-61175238D01*
X84309523Y-61270476D01*
X84357142Y-61460952D01*
X84357142Y-61603809D01*
X84309523Y-61794285D01*
X84261904Y-61889523D01*
X84166666Y-61984761D01*
X84023809Y-62032380D01*
X83785714Y-62032380D01*
X84738095Y-61127619D02*
X84785714Y-61080000D01*
X84880952Y-61032380D01*
X85119047Y-61032380D01*
X85214285Y-61080000D01*
X85261904Y-61127619D01*
X85309523Y-61222857D01*
X85309523Y-61318095D01*
X85261904Y-61460952D01*
X84690476Y-62032380D01*
X85309523Y-62032380D01*
X85880952Y-61460952D02*
X85785714Y-61413333D01*
X85738095Y-61365714D01*
X85690476Y-61270476D01*
X85690476Y-61222857D01*
X85738095Y-61127619D01*
X85785714Y-61080000D01*
X85880952Y-61032380D01*
X86071428Y-61032380D01*
X86166666Y-61080000D01*
X86214285Y-61127619D01*
X86261904Y-61222857D01*
X86261904Y-61270476D01*
X86214285Y-61365714D01*
X86166666Y-61413333D01*
X86071428Y-61460952D01*
X85880952Y-61460952D01*
X85785714Y-61508571D01*
X85738095Y-61556190D01*
X85690476Y-61651428D01*
X85690476Y-61841904D01*
X85738095Y-61937142D01*
X85785714Y-61984761D01*
X85880952Y-62032380D01*
X86071428Y-62032380D01*
X86166666Y-61984761D01*
X86214285Y-61937142D01*
X86261904Y-61841904D01*
X86261904Y-61651428D01*
X86214285Y-61556190D01*
X86166666Y-61508571D01*
X86071428Y-61460952D01*
%TO.C,D27*%
X98785714Y-62032380D02*
X98785714Y-61032380D01*
X99023809Y-61032380D01*
X99166666Y-61080000D01*
X99261904Y-61175238D01*
X99309523Y-61270476D01*
X99357142Y-61460952D01*
X99357142Y-61603809D01*
X99309523Y-61794285D01*
X99261904Y-61889523D01*
X99166666Y-61984761D01*
X99023809Y-62032380D01*
X98785714Y-62032380D01*
X99738095Y-61127619D02*
X99785714Y-61080000D01*
X99880952Y-61032380D01*
X100119047Y-61032380D01*
X100214285Y-61080000D01*
X100261904Y-61127619D01*
X100309523Y-61222857D01*
X100309523Y-61318095D01*
X100261904Y-61460952D01*
X99690476Y-62032380D01*
X100309523Y-62032380D01*
X100642857Y-61032380D02*
X101309523Y-61032380D01*
X100880952Y-62032380D01*
%TO.C,D26*%
X68785714Y-59032380D02*
X68785714Y-58032380D01*
X69023809Y-58032380D01*
X69166666Y-58080000D01*
X69261904Y-58175238D01*
X69309523Y-58270476D01*
X69357142Y-58460952D01*
X69357142Y-58603809D01*
X69309523Y-58794285D01*
X69261904Y-58889523D01*
X69166666Y-58984761D01*
X69023809Y-59032380D01*
X68785714Y-59032380D01*
X69738095Y-58127619D02*
X69785714Y-58080000D01*
X69880952Y-58032380D01*
X70119047Y-58032380D01*
X70214285Y-58080000D01*
X70261904Y-58127619D01*
X70309523Y-58222857D01*
X70309523Y-58318095D01*
X70261904Y-58460952D01*
X69690476Y-59032380D01*
X70309523Y-59032380D01*
X71166666Y-58032380D02*
X70976190Y-58032380D01*
X70880952Y-58080000D01*
X70833333Y-58127619D01*
X70738095Y-58270476D01*
X70690476Y-58460952D01*
X70690476Y-58841904D01*
X70738095Y-58937142D01*
X70785714Y-58984761D01*
X70880952Y-59032380D01*
X71071428Y-59032380D01*
X71166666Y-58984761D01*
X71214285Y-58937142D01*
X71261904Y-58841904D01*
X71261904Y-58603809D01*
X71214285Y-58508571D01*
X71166666Y-58460952D01*
X71071428Y-58413333D01*
X70880952Y-58413333D01*
X70785714Y-58460952D01*
X70738095Y-58508571D01*
X70690476Y-58603809D01*
%TO.C,D25*%
X83785714Y-59032380D02*
X83785714Y-58032380D01*
X84023809Y-58032380D01*
X84166666Y-58080000D01*
X84261904Y-58175238D01*
X84309523Y-58270476D01*
X84357142Y-58460952D01*
X84357142Y-58603809D01*
X84309523Y-58794285D01*
X84261904Y-58889523D01*
X84166666Y-58984761D01*
X84023809Y-59032380D01*
X83785714Y-59032380D01*
X84738095Y-58127619D02*
X84785714Y-58080000D01*
X84880952Y-58032380D01*
X85119047Y-58032380D01*
X85214285Y-58080000D01*
X85261904Y-58127619D01*
X85309523Y-58222857D01*
X85309523Y-58318095D01*
X85261904Y-58460952D01*
X84690476Y-59032380D01*
X85309523Y-59032380D01*
X86214285Y-58032380D02*
X85738095Y-58032380D01*
X85690476Y-58508571D01*
X85738095Y-58460952D01*
X85833333Y-58413333D01*
X86071428Y-58413333D01*
X86166666Y-58460952D01*
X86214285Y-58508571D01*
X86261904Y-58603809D01*
X86261904Y-58841904D01*
X86214285Y-58937142D01*
X86166666Y-58984761D01*
X86071428Y-59032380D01*
X85833333Y-59032380D01*
X85738095Y-58984761D01*
X85690476Y-58937142D01*
%TO.C,D24*%
X98785714Y-59032380D02*
X98785714Y-58032380D01*
X99023809Y-58032380D01*
X99166666Y-58080000D01*
X99261904Y-58175238D01*
X99309523Y-58270476D01*
X99357142Y-58460952D01*
X99357142Y-58603809D01*
X99309523Y-58794285D01*
X99261904Y-58889523D01*
X99166666Y-58984761D01*
X99023809Y-59032380D01*
X98785714Y-59032380D01*
X99738095Y-58127619D02*
X99785714Y-58080000D01*
X99880952Y-58032380D01*
X100119047Y-58032380D01*
X100214285Y-58080000D01*
X100261904Y-58127619D01*
X100309523Y-58222857D01*
X100309523Y-58318095D01*
X100261904Y-58460952D01*
X99690476Y-59032380D01*
X100309523Y-59032380D01*
X101166666Y-58365714D02*
X101166666Y-59032380D01*
X100928571Y-57984761D02*
X100690476Y-58699047D01*
X101309523Y-58699047D01*
%TO.C,D23*%
X113785714Y-80032380D02*
X113785714Y-79032380D01*
X114023809Y-79032380D01*
X114166666Y-79080000D01*
X114261904Y-79175238D01*
X114309523Y-79270476D01*
X114357142Y-79460952D01*
X114357142Y-79603809D01*
X114309523Y-79794285D01*
X114261904Y-79889523D01*
X114166666Y-79984761D01*
X114023809Y-80032380D01*
X113785714Y-80032380D01*
X114738095Y-79127619D02*
X114785714Y-79080000D01*
X114880952Y-79032380D01*
X115119047Y-79032380D01*
X115214285Y-79080000D01*
X115261904Y-79127619D01*
X115309523Y-79222857D01*
X115309523Y-79318095D01*
X115261904Y-79460952D01*
X114690476Y-80032380D01*
X115309523Y-80032380D01*
X115642857Y-79032380D02*
X116261904Y-79032380D01*
X115928571Y-79413333D01*
X116071428Y-79413333D01*
X116166666Y-79460952D01*
X116214285Y-79508571D01*
X116261904Y-79603809D01*
X116261904Y-79841904D01*
X116214285Y-79937142D01*
X116166666Y-79984761D01*
X116071428Y-80032380D01*
X115785714Y-80032380D01*
X115690476Y-79984761D01*
X115642857Y-79937142D01*
%TO.C,D22*%
X128785714Y-80032380D02*
X128785714Y-79032380D01*
X129023809Y-79032380D01*
X129166666Y-79080000D01*
X129261904Y-79175238D01*
X129309523Y-79270476D01*
X129357142Y-79460952D01*
X129357142Y-79603809D01*
X129309523Y-79794285D01*
X129261904Y-79889523D01*
X129166666Y-79984761D01*
X129023809Y-80032380D01*
X128785714Y-80032380D01*
X129738095Y-79127619D02*
X129785714Y-79080000D01*
X129880952Y-79032380D01*
X130119047Y-79032380D01*
X130214285Y-79080000D01*
X130261904Y-79127619D01*
X130309523Y-79222857D01*
X130309523Y-79318095D01*
X130261904Y-79460952D01*
X129690476Y-80032380D01*
X130309523Y-80032380D01*
X130690476Y-79127619D02*
X130738095Y-79080000D01*
X130833333Y-79032380D01*
X131071428Y-79032380D01*
X131166666Y-79080000D01*
X131214285Y-79127619D01*
X131261904Y-79222857D01*
X131261904Y-79318095D01*
X131214285Y-79460952D01*
X130642857Y-80032380D01*
X131261904Y-80032380D01*
%TO.C,D21*%
X113785714Y-77032380D02*
X113785714Y-76032380D01*
X114023809Y-76032380D01*
X114166666Y-76080000D01*
X114261904Y-76175238D01*
X114309523Y-76270476D01*
X114357142Y-76460952D01*
X114357142Y-76603809D01*
X114309523Y-76794285D01*
X114261904Y-76889523D01*
X114166666Y-76984761D01*
X114023809Y-77032380D01*
X113785714Y-77032380D01*
X114738095Y-76127619D02*
X114785714Y-76080000D01*
X114880952Y-76032380D01*
X115119047Y-76032380D01*
X115214285Y-76080000D01*
X115261904Y-76127619D01*
X115309523Y-76222857D01*
X115309523Y-76318095D01*
X115261904Y-76460952D01*
X114690476Y-77032380D01*
X115309523Y-77032380D01*
X116261904Y-77032380D02*
X115690476Y-77032380D01*
X115976190Y-77032380D02*
X115976190Y-76032380D01*
X115880952Y-76175238D01*
X115785714Y-76270476D01*
X115690476Y-76318095D01*
%TO.C,D20*%
X128785714Y-77032380D02*
X128785714Y-76032380D01*
X129023809Y-76032380D01*
X129166666Y-76080000D01*
X129261904Y-76175238D01*
X129309523Y-76270476D01*
X129357142Y-76460952D01*
X129357142Y-76603809D01*
X129309523Y-76794285D01*
X129261904Y-76889523D01*
X129166666Y-76984761D01*
X129023809Y-77032380D01*
X128785714Y-77032380D01*
X129738095Y-76127619D02*
X129785714Y-76080000D01*
X129880952Y-76032380D01*
X130119047Y-76032380D01*
X130214285Y-76080000D01*
X130261904Y-76127619D01*
X130309523Y-76222857D01*
X130309523Y-76318095D01*
X130261904Y-76460952D01*
X129690476Y-77032380D01*
X130309523Y-77032380D01*
X130928571Y-76032380D02*
X131023809Y-76032380D01*
X131119047Y-76080000D01*
X131166666Y-76127619D01*
X131214285Y-76222857D01*
X131261904Y-76413333D01*
X131261904Y-76651428D01*
X131214285Y-76841904D01*
X131166666Y-76937142D01*
X131119047Y-76984761D01*
X131023809Y-77032380D01*
X130928571Y-77032380D01*
X130833333Y-76984761D01*
X130785714Y-76937142D01*
X130738095Y-76841904D01*
X130690476Y-76651428D01*
X130690476Y-76413333D01*
X130738095Y-76222857D01*
X130785714Y-76127619D01*
X130833333Y-76080000D01*
X130928571Y-76032380D01*
%TO.C,D19*%
X113785714Y-74032380D02*
X113785714Y-73032380D01*
X114023809Y-73032380D01*
X114166666Y-73080000D01*
X114261904Y-73175238D01*
X114309523Y-73270476D01*
X114357142Y-73460952D01*
X114357142Y-73603809D01*
X114309523Y-73794285D01*
X114261904Y-73889523D01*
X114166666Y-73984761D01*
X114023809Y-74032380D01*
X113785714Y-74032380D01*
X115309523Y-74032380D02*
X114738095Y-74032380D01*
X115023809Y-74032380D02*
X115023809Y-73032380D01*
X114928571Y-73175238D01*
X114833333Y-73270476D01*
X114738095Y-73318095D01*
X115785714Y-74032380D02*
X115976190Y-74032380D01*
X116071428Y-73984761D01*
X116119047Y-73937142D01*
X116214285Y-73794285D01*
X116261904Y-73603809D01*
X116261904Y-73222857D01*
X116214285Y-73127619D01*
X116166666Y-73080000D01*
X116071428Y-73032380D01*
X115880952Y-73032380D01*
X115785714Y-73080000D01*
X115738095Y-73127619D01*
X115690476Y-73222857D01*
X115690476Y-73460952D01*
X115738095Y-73556190D01*
X115785714Y-73603809D01*
X115880952Y-73651428D01*
X116071428Y-73651428D01*
X116166666Y-73603809D01*
X116214285Y-73556190D01*
X116261904Y-73460952D01*
%TO.C,D18*%
X128785714Y-74032380D02*
X128785714Y-73032380D01*
X129023809Y-73032380D01*
X129166666Y-73080000D01*
X129261904Y-73175238D01*
X129309523Y-73270476D01*
X129357142Y-73460952D01*
X129357142Y-73603809D01*
X129309523Y-73794285D01*
X129261904Y-73889523D01*
X129166666Y-73984761D01*
X129023809Y-74032380D01*
X128785714Y-74032380D01*
X130309523Y-74032380D02*
X129738095Y-74032380D01*
X130023809Y-74032380D02*
X130023809Y-73032380D01*
X129928571Y-73175238D01*
X129833333Y-73270476D01*
X129738095Y-73318095D01*
X130880952Y-73460952D02*
X130785714Y-73413333D01*
X130738095Y-73365714D01*
X130690476Y-73270476D01*
X130690476Y-73222857D01*
X130738095Y-73127619D01*
X130785714Y-73080000D01*
X130880952Y-73032380D01*
X131071428Y-73032380D01*
X131166666Y-73080000D01*
X131214285Y-73127619D01*
X131261904Y-73222857D01*
X131261904Y-73270476D01*
X131214285Y-73365714D01*
X131166666Y-73413333D01*
X131071428Y-73460952D01*
X130880952Y-73460952D01*
X130785714Y-73508571D01*
X130738095Y-73556190D01*
X130690476Y-73651428D01*
X130690476Y-73841904D01*
X130738095Y-73937142D01*
X130785714Y-73984761D01*
X130880952Y-74032380D01*
X131071428Y-74032380D01*
X131166666Y-73984761D01*
X131214285Y-73937142D01*
X131261904Y-73841904D01*
X131261904Y-73651428D01*
X131214285Y-73556190D01*
X131166666Y-73508571D01*
X131071428Y-73460952D01*
%TO.C,D17*%
X113785714Y-71032380D02*
X113785714Y-70032380D01*
X114023809Y-70032380D01*
X114166666Y-70080000D01*
X114261904Y-70175238D01*
X114309523Y-70270476D01*
X114357142Y-70460952D01*
X114357142Y-70603809D01*
X114309523Y-70794285D01*
X114261904Y-70889523D01*
X114166666Y-70984761D01*
X114023809Y-71032380D01*
X113785714Y-71032380D01*
X115309523Y-71032380D02*
X114738095Y-71032380D01*
X115023809Y-71032380D02*
X115023809Y-70032380D01*
X114928571Y-70175238D01*
X114833333Y-70270476D01*
X114738095Y-70318095D01*
X115642857Y-70032380D02*
X116309523Y-70032380D01*
X115880952Y-71032380D01*
%TO.C,D16*%
X128785714Y-71032380D02*
X128785714Y-70032380D01*
X129023809Y-70032380D01*
X129166666Y-70080000D01*
X129261904Y-70175238D01*
X129309523Y-70270476D01*
X129357142Y-70460952D01*
X129357142Y-70603809D01*
X129309523Y-70794285D01*
X129261904Y-70889523D01*
X129166666Y-70984761D01*
X129023809Y-71032380D01*
X128785714Y-71032380D01*
X130309523Y-71032380D02*
X129738095Y-71032380D01*
X130023809Y-71032380D02*
X130023809Y-70032380D01*
X129928571Y-70175238D01*
X129833333Y-70270476D01*
X129738095Y-70318095D01*
X131166666Y-70032380D02*
X130976190Y-70032380D01*
X130880952Y-70080000D01*
X130833333Y-70127619D01*
X130738095Y-70270476D01*
X130690476Y-70460952D01*
X130690476Y-70841904D01*
X130738095Y-70937142D01*
X130785714Y-70984761D01*
X130880952Y-71032380D01*
X131071428Y-71032380D01*
X131166666Y-70984761D01*
X131214285Y-70937142D01*
X131261904Y-70841904D01*
X131261904Y-70603809D01*
X131214285Y-70508571D01*
X131166666Y-70460952D01*
X131071428Y-70413333D01*
X130880952Y-70413333D01*
X130785714Y-70460952D01*
X130738095Y-70508571D01*
X130690476Y-70603809D01*
%TO.C,D15*%
X113785714Y-68032380D02*
X113785714Y-67032380D01*
X114023809Y-67032380D01*
X114166666Y-67080000D01*
X114261904Y-67175238D01*
X114309523Y-67270476D01*
X114357142Y-67460952D01*
X114357142Y-67603809D01*
X114309523Y-67794285D01*
X114261904Y-67889523D01*
X114166666Y-67984761D01*
X114023809Y-68032380D01*
X113785714Y-68032380D01*
X115309523Y-68032380D02*
X114738095Y-68032380D01*
X115023809Y-68032380D02*
X115023809Y-67032380D01*
X114928571Y-67175238D01*
X114833333Y-67270476D01*
X114738095Y-67318095D01*
X116214285Y-67032380D02*
X115738095Y-67032380D01*
X115690476Y-67508571D01*
X115738095Y-67460952D01*
X115833333Y-67413333D01*
X116071428Y-67413333D01*
X116166666Y-67460952D01*
X116214285Y-67508571D01*
X116261904Y-67603809D01*
X116261904Y-67841904D01*
X116214285Y-67937142D01*
X116166666Y-67984761D01*
X116071428Y-68032380D01*
X115833333Y-68032380D01*
X115738095Y-67984761D01*
X115690476Y-67937142D01*
%TO.C,D14*%
X128785714Y-68032380D02*
X128785714Y-67032380D01*
X129023809Y-67032380D01*
X129166666Y-67080000D01*
X129261904Y-67175238D01*
X129309523Y-67270476D01*
X129357142Y-67460952D01*
X129357142Y-67603809D01*
X129309523Y-67794285D01*
X129261904Y-67889523D01*
X129166666Y-67984761D01*
X129023809Y-68032380D01*
X128785714Y-68032380D01*
X130309523Y-68032380D02*
X129738095Y-68032380D01*
X130023809Y-68032380D02*
X130023809Y-67032380D01*
X129928571Y-67175238D01*
X129833333Y-67270476D01*
X129738095Y-67318095D01*
X131166666Y-67365714D02*
X131166666Y-68032380D01*
X130928571Y-66984761D02*
X130690476Y-67699047D01*
X131309523Y-67699047D01*
%TO.C,D13*%
X113785714Y-65032380D02*
X113785714Y-64032380D01*
X114023809Y-64032380D01*
X114166666Y-64080000D01*
X114261904Y-64175238D01*
X114309523Y-64270476D01*
X114357142Y-64460952D01*
X114357142Y-64603809D01*
X114309523Y-64794285D01*
X114261904Y-64889523D01*
X114166666Y-64984761D01*
X114023809Y-65032380D01*
X113785714Y-65032380D01*
X115309523Y-65032380D02*
X114738095Y-65032380D01*
X115023809Y-65032380D02*
X115023809Y-64032380D01*
X114928571Y-64175238D01*
X114833333Y-64270476D01*
X114738095Y-64318095D01*
X115642857Y-64032380D02*
X116261904Y-64032380D01*
X115928571Y-64413333D01*
X116071428Y-64413333D01*
X116166666Y-64460952D01*
X116214285Y-64508571D01*
X116261904Y-64603809D01*
X116261904Y-64841904D01*
X116214285Y-64937142D01*
X116166666Y-64984761D01*
X116071428Y-65032380D01*
X115785714Y-65032380D01*
X115690476Y-64984761D01*
X115642857Y-64937142D01*
%TO.C,D12*%
X128785714Y-65032380D02*
X128785714Y-64032380D01*
X129023809Y-64032380D01*
X129166666Y-64080000D01*
X129261904Y-64175238D01*
X129309523Y-64270476D01*
X129357142Y-64460952D01*
X129357142Y-64603809D01*
X129309523Y-64794285D01*
X129261904Y-64889523D01*
X129166666Y-64984761D01*
X129023809Y-65032380D01*
X128785714Y-65032380D01*
X130309523Y-65032380D02*
X129738095Y-65032380D01*
X130023809Y-65032380D02*
X130023809Y-64032380D01*
X129928571Y-64175238D01*
X129833333Y-64270476D01*
X129738095Y-64318095D01*
X130690476Y-64127619D02*
X130738095Y-64080000D01*
X130833333Y-64032380D01*
X131071428Y-64032380D01*
X131166666Y-64080000D01*
X131214285Y-64127619D01*
X131261904Y-64222857D01*
X131261904Y-64318095D01*
X131214285Y-64460952D01*
X130642857Y-65032380D01*
X131261904Y-65032380D01*
%TO.C,D11*%
X113785714Y-62032380D02*
X113785714Y-61032380D01*
X114023809Y-61032380D01*
X114166666Y-61080000D01*
X114261904Y-61175238D01*
X114309523Y-61270476D01*
X114357142Y-61460952D01*
X114357142Y-61603809D01*
X114309523Y-61794285D01*
X114261904Y-61889523D01*
X114166666Y-61984761D01*
X114023809Y-62032380D01*
X113785714Y-62032380D01*
X115309523Y-62032380D02*
X114738095Y-62032380D01*
X115023809Y-62032380D02*
X115023809Y-61032380D01*
X114928571Y-61175238D01*
X114833333Y-61270476D01*
X114738095Y-61318095D01*
X116261904Y-62032380D02*
X115690476Y-62032380D01*
X115976190Y-62032380D02*
X115976190Y-61032380D01*
X115880952Y-61175238D01*
X115785714Y-61270476D01*
X115690476Y-61318095D01*
%TO.C,D10*%
X128785714Y-62032380D02*
X128785714Y-61032380D01*
X129023809Y-61032380D01*
X129166666Y-61080000D01*
X129261904Y-61175238D01*
X129309523Y-61270476D01*
X129357142Y-61460952D01*
X129357142Y-61603809D01*
X129309523Y-61794285D01*
X129261904Y-61889523D01*
X129166666Y-61984761D01*
X129023809Y-62032380D01*
X128785714Y-62032380D01*
X130309523Y-62032380D02*
X129738095Y-62032380D01*
X130023809Y-62032380D02*
X130023809Y-61032380D01*
X129928571Y-61175238D01*
X129833333Y-61270476D01*
X129738095Y-61318095D01*
X130928571Y-61032380D02*
X131023809Y-61032380D01*
X131119047Y-61080000D01*
X131166666Y-61127619D01*
X131214285Y-61222857D01*
X131261904Y-61413333D01*
X131261904Y-61651428D01*
X131214285Y-61841904D01*
X131166666Y-61937142D01*
X131119047Y-61984761D01*
X131023809Y-62032380D01*
X130928571Y-62032380D01*
X130833333Y-61984761D01*
X130785714Y-61937142D01*
X130738095Y-61841904D01*
X130690476Y-61651428D01*
X130690476Y-61413333D01*
X130738095Y-61222857D01*
X130785714Y-61127619D01*
X130833333Y-61080000D01*
X130928571Y-61032380D01*
%TO.C,D9*%
X114261904Y-59032380D02*
X114261904Y-58032380D01*
X114500000Y-58032380D01*
X114642857Y-58080000D01*
X114738095Y-58175238D01*
X114785714Y-58270476D01*
X114833333Y-58460952D01*
X114833333Y-58603809D01*
X114785714Y-58794285D01*
X114738095Y-58889523D01*
X114642857Y-58984761D01*
X114500000Y-59032380D01*
X114261904Y-59032380D01*
X115309523Y-59032380D02*
X115500000Y-59032380D01*
X115595238Y-58984761D01*
X115642857Y-58937142D01*
X115738095Y-58794285D01*
X115785714Y-58603809D01*
X115785714Y-58222857D01*
X115738095Y-58127619D01*
X115690476Y-58080000D01*
X115595238Y-58032380D01*
X115404761Y-58032380D01*
X115309523Y-58080000D01*
X115261904Y-58127619D01*
X115214285Y-58222857D01*
X115214285Y-58460952D01*
X115261904Y-58556190D01*
X115309523Y-58603809D01*
X115404761Y-58651428D01*
X115595238Y-58651428D01*
X115690476Y-58603809D01*
X115738095Y-58556190D01*
X115785714Y-58460952D01*
%TO.C,D8*%
X129261904Y-59032380D02*
X129261904Y-58032380D01*
X129500000Y-58032380D01*
X129642857Y-58080000D01*
X129738095Y-58175238D01*
X129785714Y-58270476D01*
X129833333Y-58460952D01*
X129833333Y-58603809D01*
X129785714Y-58794285D01*
X129738095Y-58889523D01*
X129642857Y-58984761D01*
X129500000Y-59032380D01*
X129261904Y-59032380D01*
X130404761Y-58460952D02*
X130309523Y-58413333D01*
X130261904Y-58365714D01*
X130214285Y-58270476D01*
X130214285Y-58222857D01*
X130261904Y-58127619D01*
X130309523Y-58080000D01*
X130404761Y-58032380D01*
X130595238Y-58032380D01*
X130690476Y-58080000D01*
X130738095Y-58127619D01*
X130785714Y-58222857D01*
X130785714Y-58270476D01*
X130738095Y-58365714D01*
X130690476Y-58413333D01*
X130595238Y-58460952D01*
X130404761Y-58460952D01*
X130309523Y-58508571D01*
X130261904Y-58556190D01*
X130214285Y-58651428D01*
X130214285Y-58841904D01*
X130261904Y-58937142D01*
X130309523Y-58984761D01*
X130404761Y-59032380D01*
X130595238Y-59032380D01*
X130690476Y-58984761D01*
X130738095Y-58937142D01*
X130785714Y-58841904D01*
X130785714Y-58651428D01*
X130738095Y-58556190D01*
X130690476Y-58508571D01*
X130595238Y-58460952D01*
%TO.C,D7*%
X74861904Y-126752380D02*
X74861904Y-125752380D01*
X75100000Y-125752380D01*
X75242857Y-125800000D01*
X75338095Y-125895238D01*
X75385714Y-125990476D01*
X75433333Y-126180952D01*
X75433333Y-126323809D01*
X75385714Y-126514285D01*
X75338095Y-126609523D01*
X75242857Y-126704761D01*
X75100000Y-126752380D01*
X74861904Y-126752380D01*
X75766666Y-125752380D02*
X76433333Y-125752380D01*
X76004761Y-126752380D01*
%TO.C,D6*%
X61852380Y-126738095D02*
X60852380Y-126738095D01*
X60852380Y-126500000D01*
X60900000Y-126357142D01*
X60995238Y-126261904D01*
X61090476Y-126214285D01*
X61280952Y-126166666D01*
X61423809Y-126166666D01*
X61614285Y-126214285D01*
X61709523Y-126261904D01*
X61804761Y-126357142D01*
X61852380Y-126500000D01*
X61852380Y-126738095D01*
X60852380Y-125309523D02*
X60852380Y-125500000D01*
X60900000Y-125595238D01*
X60947619Y-125642857D01*
X61090476Y-125738095D01*
X61280952Y-125785714D01*
X61661904Y-125785714D01*
X61757142Y-125738095D01*
X61804761Y-125690476D01*
X61852380Y-125595238D01*
X61852380Y-125404761D01*
X61804761Y-125309523D01*
X61757142Y-125261904D01*
X61661904Y-125214285D01*
X61423809Y-125214285D01*
X61328571Y-125261904D01*
X61280952Y-125309523D01*
X61233333Y-125404761D01*
X61233333Y-125595238D01*
X61280952Y-125690476D01*
X61328571Y-125738095D01*
X61423809Y-125785714D01*
%TO.C,D5*%
X51961904Y-137252380D02*
X51961904Y-136252380D01*
X52200000Y-136252380D01*
X52342857Y-136300000D01*
X52438095Y-136395238D01*
X52485714Y-136490476D01*
X52533333Y-136680952D01*
X52533333Y-136823809D01*
X52485714Y-137014285D01*
X52438095Y-137109523D01*
X52342857Y-137204761D01*
X52200000Y-137252380D01*
X51961904Y-137252380D01*
X53438095Y-136252380D02*
X52961904Y-136252380D01*
X52914285Y-136728571D01*
X52961904Y-136680952D01*
X53057142Y-136633333D01*
X53295238Y-136633333D01*
X53390476Y-136680952D01*
X53438095Y-136728571D01*
X53485714Y-136823809D01*
X53485714Y-137061904D01*
X53438095Y-137157142D01*
X53390476Y-137204761D01*
X53295238Y-137252380D01*
X53057142Y-137252380D01*
X52961904Y-137204761D01*
X52914285Y-137157142D01*
%TO.C,D4*%
X82561904Y-145452380D02*
X82561904Y-144452380D01*
X82800000Y-144452380D01*
X82942857Y-144500000D01*
X83038095Y-144595238D01*
X83085714Y-144690476D01*
X83133333Y-144880952D01*
X83133333Y-145023809D01*
X83085714Y-145214285D01*
X83038095Y-145309523D01*
X82942857Y-145404761D01*
X82800000Y-145452380D01*
X82561904Y-145452380D01*
X83990476Y-144785714D02*
X83990476Y-145452380D01*
X83752380Y-144404761D02*
X83514285Y-145119047D01*
X84133333Y-145119047D01*
%TO.C,D3*%
X82561904Y-133452380D02*
X82561904Y-132452380D01*
X82800000Y-132452380D01*
X82942857Y-132500000D01*
X83038095Y-132595238D01*
X83085714Y-132690476D01*
X83133333Y-132880952D01*
X83133333Y-133023809D01*
X83085714Y-133214285D01*
X83038095Y-133309523D01*
X82942857Y-133404761D01*
X82800000Y-133452380D01*
X82561904Y-133452380D01*
X83466666Y-132452380D02*
X84085714Y-132452380D01*
X83752380Y-132833333D01*
X83895238Y-132833333D01*
X83990476Y-132880952D01*
X84038095Y-132928571D01*
X84085714Y-133023809D01*
X84085714Y-133261904D01*
X84038095Y-133357142D01*
X83990476Y-133404761D01*
X83895238Y-133452380D01*
X83609523Y-133452380D01*
X83514285Y-133404761D01*
X83466666Y-133357142D01*
%TO.C,D2*%
X82561904Y-141452380D02*
X82561904Y-140452380D01*
X82800000Y-140452380D01*
X82942857Y-140500000D01*
X83038095Y-140595238D01*
X83085714Y-140690476D01*
X83133333Y-140880952D01*
X83133333Y-141023809D01*
X83085714Y-141214285D01*
X83038095Y-141309523D01*
X82942857Y-141404761D01*
X82800000Y-141452380D01*
X82561904Y-141452380D01*
X83514285Y-140547619D02*
X83561904Y-140500000D01*
X83657142Y-140452380D01*
X83895238Y-140452380D01*
X83990476Y-140500000D01*
X84038095Y-140547619D01*
X84085714Y-140642857D01*
X84085714Y-140738095D01*
X84038095Y-140880952D01*
X83466666Y-141452380D01*
X84085714Y-141452380D01*
%TO.C,D1*%
X82661904Y-137452380D02*
X82661904Y-136452380D01*
X82900000Y-136452380D01*
X83042857Y-136500000D01*
X83138095Y-136595238D01*
X83185714Y-136690476D01*
X83233333Y-136880952D01*
X83233333Y-137023809D01*
X83185714Y-137214285D01*
X83138095Y-137309523D01*
X83042857Y-137404761D01*
X82900000Y-137452380D01*
X82661904Y-137452380D01*
X84185714Y-137452380D02*
X83614285Y-137452380D01*
X83900000Y-137452380D02*
X83900000Y-136452380D01*
X83804761Y-136595238D01*
X83709523Y-136690476D01*
X83614285Y-136738095D01*
%TO.C,C23*%
X70857142Y-93642857D02*
X70904761Y-93690476D01*
X70952380Y-93833333D01*
X70952380Y-93928571D01*
X70904761Y-94071428D01*
X70809523Y-94166666D01*
X70714285Y-94214285D01*
X70523809Y-94261904D01*
X70380952Y-94261904D01*
X70190476Y-94214285D01*
X70095238Y-94166666D01*
X70000000Y-94071428D01*
X69952380Y-93928571D01*
X69952380Y-93833333D01*
X70000000Y-93690476D01*
X70047619Y-93642857D01*
X70047619Y-93261904D02*
X70000000Y-93214285D01*
X69952380Y-93119047D01*
X69952380Y-92880952D01*
X70000000Y-92785714D01*
X70047619Y-92738095D01*
X70142857Y-92690476D01*
X70238095Y-92690476D01*
X70380952Y-92738095D01*
X70952380Y-93309523D01*
X70952380Y-92690476D01*
X69952380Y-92357142D02*
X69952380Y-91738095D01*
X70333333Y-92071428D01*
X70333333Y-91928571D01*
X70380952Y-91833333D01*
X70428571Y-91785714D01*
X70523809Y-91738095D01*
X70761904Y-91738095D01*
X70857142Y-91785714D01*
X70904761Y-91833333D01*
X70952380Y-91928571D01*
X70952380Y-92214285D01*
X70904761Y-92309523D01*
X70857142Y-92357142D01*
%TO.C,C22*%
X85857142Y-93642857D02*
X85904761Y-93690476D01*
X85952380Y-93833333D01*
X85952380Y-93928571D01*
X85904761Y-94071428D01*
X85809523Y-94166666D01*
X85714285Y-94214285D01*
X85523809Y-94261904D01*
X85380952Y-94261904D01*
X85190476Y-94214285D01*
X85095238Y-94166666D01*
X85000000Y-94071428D01*
X84952380Y-93928571D01*
X84952380Y-93833333D01*
X85000000Y-93690476D01*
X85047619Y-93642857D01*
X85047619Y-93261904D02*
X85000000Y-93214285D01*
X84952380Y-93119047D01*
X84952380Y-92880952D01*
X85000000Y-92785714D01*
X85047619Y-92738095D01*
X85142857Y-92690476D01*
X85238095Y-92690476D01*
X85380952Y-92738095D01*
X85952380Y-93309523D01*
X85952380Y-92690476D01*
X85047619Y-92309523D02*
X85000000Y-92261904D01*
X84952380Y-92166666D01*
X84952380Y-91928571D01*
X85000000Y-91833333D01*
X85047619Y-91785714D01*
X85142857Y-91738095D01*
X85238095Y-91738095D01*
X85380952Y-91785714D01*
X85952380Y-92357142D01*
X85952380Y-91738095D01*
%TO.C,C21*%
X100957142Y-93642857D02*
X101004761Y-93690476D01*
X101052380Y-93833333D01*
X101052380Y-93928571D01*
X101004761Y-94071428D01*
X100909523Y-94166666D01*
X100814285Y-94214285D01*
X100623809Y-94261904D01*
X100480952Y-94261904D01*
X100290476Y-94214285D01*
X100195238Y-94166666D01*
X100100000Y-94071428D01*
X100052380Y-93928571D01*
X100052380Y-93833333D01*
X100100000Y-93690476D01*
X100147619Y-93642857D01*
X100147619Y-93261904D02*
X100100000Y-93214285D01*
X100052380Y-93119047D01*
X100052380Y-92880952D01*
X100100000Y-92785714D01*
X100147619Y-92738095D01*
X100242857Y-92690476D01*
X100338095Y-92690476D01*
X100480952Y-92738095D01*
X101052380Y-93309523D01*
X101052380Y-92690476D01*
X101052380Y-91738095D02*
X101052380Y-92309523D01*
X101052380Y-92023809D02*
X100052380Y-92023809D01*
X100195238Y-92119047D01*
X100290476Y-92214285D01*
X100338095Y-92309523D01*
%TO.C,C20*%
X138822142Y-141827142D02*
X138774523Y-141874761D01*
X138631666Y-141922380D01*
X138536428Y-141922380D01*
X138393571Y-141874761D01*
X138298333Y-141779523D01*
X138250714Y-141684285D01*
X138203095Y-141493809D01*
X138203095Y-141350952D01*
X138250714Y-141160476D01*
X138298333Y-141065238D01*
X138393571Y-140970000D01*
X138536428Y-140922380D01*
X138631666Y-140922380D01*
X138774523Y-140970000D01*
X138822142Y-141017619D01*
X139203095Y-141017619D02*
X139250714Y-140970000D01*
X139345952Y-140922380D01*
X139584047Y-140922380D01*
X139679285Y-140970000D01*
X139726904Y-141017619D01*
X139774523Y-141112857D01*
X139774523Y-141208095D01*
X139726904Y-141350952D01*
X139155476Y-141922380D01*
X139774523Y-141922380D01*
X140393571Y-140922380D02*
X140488809Y-140922380D01*
X140584047Y-140970000D01*
X140631666Y-141017619D01*
X140679285Y-141112857D01*
X140726904Y-141303333D01*
X140726904Y-141541428D01*
X140679285Y-141731904D01*
X140631666Y-141827142D01*
X140584047Y-141874761D01*
X140488809Y-141922380D01*
X140393571Y-141922380D01*
X140298333Y-141874761D01*
X140250714Y-141827142D01*
X140203095Y-141731904D01*
X140155476Y-141541428D01*
X140155476Y-141303333D01*
X140203095Y-141112857D01*
X140250714Y-141017619D01*
X140298333Y-140970000D01*
X140393571Y-140922380D01*
%TO.C,C19*%
X120772142Y-138927142D02*
X120724523Y-138974761D01*
X120581666Y-139022380D01*
X120486428Y-139022380D01*
X120343571Y-138974761D01*
X120248333Y-138879523D01*
X120200714Y-138784285D01*
X120153095Y-138593809D01*
X120153095Y-138450952D01*
X120200714Y-138260476D01*
X120248333Y-138165238D01*
X120343571Y-138070000D01*
X120486428Y-138022380D01*
X120581666Y-138022380D01*
X120724523Y-138070000D01*
X120772142Y-138117619D01*
X121724523Y-139022380D02*
X121153095Y-139022380D01*
X121438809Y-139022380D02*
X121438809Y-138022380D01*
X121343571Y-138165238D01*
X121248333Y-138260476D01*
X121153095Y-138308095D01*
X122200714Y-139022380D02*
X122391190Y-139022380D01*
X122486428Y-138974761D01*
X122534047Y-138927142D01*
X122629285Y-138784285D01*
X122676904Y-138593809D01*
X122676904Y-138212857D01*
X122629285Y-138117619D01*
X122581666Y-138070000D01*
X122486428Y-138022380D01*
X122295952Y-138022380D01*
X122200714Y-138070000D01*
X122153095Y-138117619D01*
X122105476Y-138212857D01*
X122105476Y-138450952D01*
X122153095Y-138546190D01*
X122200714Y-138593809D01*
X122295952Y-138641428D01*
X122486428Y-138641428D01*
X122581666Y-138593809D01*
X122629285Y-138546190D01*
X122676904Y-138450952D01*
%TO.C,C18*%
X75757142Y-120342857D02*
X75804761Y-120390476D01*
X75852380Y-120533333D01*
X75852380Y-120628571D01*
X75804761Y-120771428D01*
X75709523Y-120866666D01*
X75614285Y-120914285D01*
X75423809Y-120961904D01*
X75280952Y-120961904D01*
X75090476Y-120914285D01*
X74995238Y-120866666D01*
X74900000Y-120771428D01*
X74852380Y-120628571D01*
X74852380Y-120533333D01*
X74900000Y-120390476D01*
X74947619Y-120342857D01*
X75852380Y-119390476D02*
X75852380Y-119961904D01*
X75852380Y-119676190D02*
X74852380Y-119676190D01*
X74995238Y-119771428D01*
X75090476Y-119866666D01*
X75138095Y-119961904D01*
X75280952Y-118819047D02*
X75233333Y-118914285D01*
X75185714Y-118961904D01*
X75090476Y-119009523D01*
X75042857Y-119009523D01*
X74947619Y-118961904D01*
X74900000Y-118914285D01*
X74852380Y-118819047D01*
X74852380Y-118628571D01*
X74900000Y-118533333D01*
X74947619Y-118485714D01*
X75042857Y-118438095D01*
X75090476Y-118438095D01*
X75185714Y-118485714D01*
X75233333Y-118533333D01*
X75280952Y-118628571D01*
X75280952Y-118819047D01*
X75328571Y-118914285D01*
X75376190Y-118961904D01*
X75471428Y-119009523D01*
X75661904Y-119009523D01*
X75757142Y-118961904D01*
X75804761Y-118914285D01*
X75852380Y-118819047D01*
X75852380Y-118628571D01*
X75804761Y-118533333D01*
X75757142Y-118485714D01*
X75661904Y-118438095D01*
X75471428Y-118438095D01*
X75376190Y-118485714D01*
X75328571Y-118533333D01*
X75280952Y-118628571D01*
%TO.C,C17*%
X74157142Y-120342857D02*
X74204761Y-120390476D01*
X74252380Y-120533333D01*
X74252380Y-120628571D01*
X74204761Y-120771428D01*
X74109523Y-120866666D01*
X74014285Y-120914285D01*
X73823809Y-120961904D01*
X73680952Y-120961904D01*
X73490476Y-120914285D01*
X73395238Y-120866666D01*
X73300000Y-120771428D01*
X73252380Y-120628571D01*
X73252380Y-120533333D01*
X73300000Y-120390476D01*
X73347619Y-120342857D01*
X74252380Y-119390476D02*
X74252380Y-119961904D01*
X74252380Y-119676190D02*
X73252380Y-119676190D01*
X73395238Y-119771428D01*
X73490476Y-119866666D01*
X73538095Y-119961904D01*
X73252380Y-119057142D02*
X73252380Y-118390476D01*
X74252380Y-118819047D01*
%TO.C,C16*%
X103757142Y-118857142D02*
X103709523Y-118904761D01*
X103566666Y-118952380D01*
X103471428Y-118952380D01*
X103328571Y-118904761D01*
X103233333Y-118809523D01*
X103185714Y-118714285D01*
X103138095Y-118523809D01*
X103138095Y-118380952D01*
X103185714Y-118190476D01*
X103233333Y-118095238D01*
X103328571Y-118000000D01*
X103471428Y-117952380D01*
X103566666Y-117952380D01*
X103709523Y-118000000D01*
X103757142Y-118047619D01*
X104709523Y-118952380D02*
X104138095Y-118952380D01*
X104423809Y-118952380D02*
X104423809Y-117952380D01*
X104328571Y-118095238D01*
X104233333Y-118190476D01*
X104138095Y-118238095D01*
X105566666Y-117952380D02*
X105376190Y-117952380D01*
X105280952Y-118000000D01*
X105233333Y-118047619D01*
X105138095Y-118190476D01*
X105090476Y-118380952D01*
X105090476Y-118761904D01*
X105138095Y-118857142D01*
X105185714Y-118904761D01*
X105280952Y-118952380D01*
X105471428Y-118952380D01*
X105566666Y-118904761D01*
X105614285Y-118857142D01*
X105661904Y-118761904D01*
X105661904Y-118523809D01*
X105614285Y-118428571D01*
X105566666Y-118380952D01*
X105471428Y-118333333D01*
X105280952Y-118333333D01*
X105185714Y-118380952D01*
X105138095Y-118428571D01*
X105090476Y-118523809D01*
%TO.C,C15*%
X115857142Y-93642857D02*
X115904761Y-93690476D01*
X115952380Y-93833333D01*
X115952380Y-93928571D01*
X115904761Y-94071428D01*
X115809523Y-94166666D01*
X115714285Y-94214285D01*
X115523809Y-94261904D01*
X115380952Y-94261904D01*
X115190476Y-94214285D01*
X115095238Y-94166666D01*
X115000000Y-94071428D01*
X114952380Y-93928571D01*
X114952380Y-93833333D01*
X115000000Y-93690476D01*
X115047619Y-93642857D01*
X115952380Y-92690476D02*
X115952380Y-93261904D01*
X115952380Y-92976190D02*
X114952380Y-92976190D01*
X115095238Y-93071428D01*
X115190476Y-93166666D01*
X115238095Y-93261904D01*
X114952380Y-91785714D02*
X114952380Y-92261904D01*
X115428571Y-92309523D01*
X115380952Y-92261904D01*
X115333333Y-92166666D01*
X115333333Y-91928571D01*
X115380952Y-91833333D01*
X115428571Y-91785714D01*
X115523809Y-91738095D01*
X115761904Y-91738095D01*
X115857142Y-91785714D01*
X115904761Y-91833333D01*
X115952380Y-91928571D01*
X115952380Y-92166666D01*
X115904761Y-92261904D01*
X115857142Y-92309523D01*
%TO.C,C14*%
X130857142Y-93642857D02*
X130904761Y-93690476D01*
X130952380Y-93833333D01*
X130952380Y-93928571D01*
X130904761Y-94071428D01*
X130809523Y-94166666D01*
X130714285Y-94214285D01*
X130523809Y-94261904D01*
X130380952Y-94261904D01*
X130190476Y-94214285D01*
X130095238Y-94166666D01*
X130000000Y-94071428D01*
X129952380Y-93928571D01*
X129952380Y-93833333D01*
X130000000Y-93690476D01*
X130047619Y-93642857D01*
X130952380Y-92690476D02*
X130952380Y-93261904D01*
X130952380Y-92976190D02*
X129952380Y-92976190D01*
X130095238Y-93071428D01*
X130190476Y-93166666D01*
X130238095Y-93261904D01*
X130285714Y-91833333D02*
X130952380Y-91833333D01*
X129904761Y-92071428D02*
X130619047Y-92309523D01*
X130619047Y-91690476D01*
%TO.C,C13*%
X63257142Y-127542857D02*
X63304761Y-127590476D01*
X63352380Y-127733333D01*
X63352380Y-127828571D01*
X63304761Y-127971428D01*
X63209523Y-128066666D01*
X63114285Y-128114285D01*
X62923809Y-128161904D01*
X62780952Y-128161904D01*
X62590476Y-128114285D01*
X62495238Y-128066666D01*
X62400000Y-127971428D01*
X62352380Y-127828571D01*
X62352380Y-127733333D01*
X62400000Y-127590476D01*
X62447619Y-127542857D01*
X63352380Y-126590476D02*
X63352380Y-127161904D01*
X63352380Y-126876190D02*
X62352380Y-126876190D01*
X62495238Y-126971428D01*
X62590476Y-127066666D01*
X62638095Y-127161904D01*
X62352380Y-126257142D02*
X62352380Y-125638095D01*
X62733333Y-125971428D01*
X62733333Y-125828571D01*
X62780952Y-125733333D01*
X62828571Y-125685714D01*
X62923809Y-125638095D01*
X63161904Y-125638095D01*
X63257142Y-125685714D01*
X63304761Y-125733333D01*
X63352380Y-125828571D01*
X63352380Y-126114285D01*
X63304761Y-126209523D01*
X63257142Y-126257142D01*
%TO.C,C12*%
X88957142Y-118857142D02*
X88909523Y-118904761D01*
X88766666Y-118952380D01*
X88671428Y-118952380D01*
X88528571Y-118904761D01*
X88433333Y-118809523D01*
X88385714Y-118714285D01*
X88338095Y-118523809D01*
X88338095Y-118380952D01*
X88385714Y-118190476D01*
X88433333Y-118095238D01*
X88528571Y-118000000D01*
X88671428Y-117952380D01*
X88766666Y-117952380D01*
X88909523Y-118000000D01*
X88957142Y-118047619D01*
X89909523Y-118952380D02*
X89338095Y-118952380D01*
X89623809Y-118952380D02*
X89623809Y-117952380D01*
X89528571Y-118095238D01*
X89433333Y-118190476D01*
X89338095Y-118238095D01*
X90290476Y-118047619D02*
X90338095Y-118000000D01*
X90433333Y-117952380D01*
X90671428Y-117952380D01*
X90766666Y-118000000D01*
X90814285Y-118047619D01*
X90861904Y-118142857D01*
X90861904Y-118238095D01*
X90814285Y-118380952D01*
X90242857Y-118952380D01*
X90861904Y-118952380D01*
%TO.C,C11*%
X75357142Y-147257142D02*
X75309523Y-147304761D01*
X75166666Y-147352380D01*
X75071428Y-147352380D01*
X74928571Y-147304761D01*
X74833333Y-147209523D01*
X74785714Y-147114285D01*
X74738095Y-146923809D01*
X74738095Y-146780952D01*
X74785714Y-146590476D01*
X74833333Y-146495238D01*
X74928571Y-146400000D01*
X75071428Y-146352380D01*
X75166666Y-146352380D01*
X75309523Y-146400000D01*
X75357142Y-146447619D01*
X76309523Y-147352380D02*
X75738095Y-147352380D01*
X76023809Y-147352380D02*
X76023809Y-146352380D01*
X75928571Y-146495238D01*
X75833333Y-146590476D01*
X75738095Y-146638095D01*
X77261904Y-147352380D02*
X76690476Y-147352380D01*
X76976190Y-147352380D02*
X76976190Y-146352380D01*
X76880952Y-146495238D01*
X76785714Y-146590476D01*
X76690476Y-146638095D01*
%TO.C,C10*%
X74457142Y-130457142D02*
X74409523Y-130504761D01*
X74266666Y-130552380D01*
X74171428Y-130552380D01*
X74028571Y-130504761D01*
X73933333Y-130409523D01*
X73885714Y-130314285D01*
X73838095Y-130123809D01*
X73838095Y-129980952D01*
X73885714Y-129790476D01*
X73933333Y-129695238D01*
X74028571Y-129600000D01*
X74171428Y-129552380D01*
X74266666Y-129552380D01*
X74409523Y-129600000D01*
X74457142Y-129647619D01*
X75409523Y-130552380D02*
X74838095Y-130552380D01*
X75123809Y-130552380D02*
X75123809Y-129552380D01*
X75028571Y-129695238D01*
X74933333Y-129790476D01*
X74838095Y-129838095D01*
X76028571Y-129552380D02*
X76123809Y-129552380D01*
X76219047Y-129600000D01*
X76266666Y-129647619D01*
X76314285Y-129742857D01*
X76361904Y-129933333D01*
X76361904Y-130171428D01*
X76314285Y-130361904D01*
X76266666Y-130457142D01*
X76219047Y-130504761D01*
X76123809Y-130552380D01*
X76028571Y-130552380D01*
X75933333Y-130504761D01*
X75885714Y-130457142D01*
X75838095Y-130361904D01*
X75790476Y-130171428D01*
X75790476Y-129933333D01*
X75838095Y-129742857D01*
X75885714Y-129647619D01*
X75933333Y-129600000D01*
X76028571Y-129552380D01*
%TO.C,C9*%
X66833333Y-145557142D02*
X66785714Y-145604761D01*
X66642857Y-145652380D01*
X66547619Y-145652380D01*
X66404761Y-145604761D01*
X66309523Y-145509523D01*
X66261904Y-145414285D01*
X66214285Y-145223809D01*
X66214285Y-145080952D01*
X66261904Y-144890476D01*
X66309523Y-144795238D01*
X66404761Y-144700000D01*
X66547619Y-144652380D01*
X66642857Y-144652380D01*
X66785714Y-144700000D01*
X66833333Y-144747619D01*
X67309523Y-145652380D02*
X67500000Y-145652380D01*
X67595238Y-145604761D01*
X67642857Y-145557142D01*
X67738095Y-145414285D01*
X67785714Y-145223809D01*
X67785714Y-144842857D01*
X67738095Y-144747619D01*
X67690476Y-144700000D01*
X67595238Y-144652380D01*
X67404761Y-144652380D01*
X67309523Y-144700000D01*
X67261904Y-144747619D01*
X67214285Y-144842857D01*
X67214285Y-145080952D01*
X67261904Y-145176190D01*
X67309523Y-145223809D01*
X67404761Y-145271428D01*
X67595238Y-145271428D01*
X67690476Y-145223809D01*
X67738095Y-145176190D01*
X67785714Y-145080952D01*
%TO.C,C8*%
X123733333Y-112757142D02*
X123685714Y-112804761D01*
X123542857Y-112852380D01*
X123447619Y-112852380D01*
X123304761Y-112804761D01*
X123209523Y-112709523D01*
X123161904Y-112614285D01*
X123114285Y-112423809D01*
X123114285Y-112280952D01*
X123161904Y-112090476D01*
X123209523Y-111995238D01*
X123304761Y-111900000D01*
X123447619Y-111852380D01*
X123542857Y-111852380D01*
X123685714Y-111900000D01*
X123733333Y-111947619D01*
X124304761Y-112280952D02*
X124209523Y-112233333D01*
X124161904Y-112185714D01*
X124114285Y-112090476D01*
X124114285Y-112042857D01*
X124161904Y-111947619D01*
X124209523Y-111900000D01*
X124304761Y-111852380D01*
X124495238Y-111852380D01*
X124590476Y-111900000D01*
X124638095Y-111947619D01*
X124685714Y-112042857D01*
X124685714Y-112090476D01*
X124638095Y-112185714D01*
X124590476Y-112233333D01*
X124495238Y-112280952D01*
X124304761Y-112280952D01*
X124209523Y-112328571D01*
X124161904Y-112376190D01*
X124114285Y-112471428D01*
X124114285Y-112661904D01*
X124161904Y-112757142D01*
X124209523Y-112804761D01*
X124304761Y-112852380D01*
X124495238Y-112852380D01*
X124590476Y-112804761D01*
X124638095Y-112757142D01*
X124685714Y-112661904D01*
X124685714Y-112471428D01*
X124638095Y-112376190D01*
X124590476Y-112328571D01*
X124495238Y-112280952D01*
%TO.C,C7*%
X129833333Y-112757142D02*
X129785714Y-112804761D01*
X129642857Y-112852380D01*
X129547619Y-112852380D01*
X129404761Y-112804761D01*
X129309523Y-112709523D01*
X129261904Y-112614285D01*
X129214285Y-112423809D01*
X129214285Y-112280952D01*
X129261904Y-112090476D01*
X129309523Y-111995238D01*
X129404761Y-111900000D01*
X129547619Y-111852380D01*
X129642857Y-111852380D01*
X129785714Y-111900000D01*
X129833333Y-111947619D01*
X130166666Y-111852380D02*
X130833333Y-111852380D01*
X130404761Y-112852380D01*
%TO.C,C6*%
X128633333Y-139057142D02*
X128585714Y-139104761D01*
X128442857Y-139152380D01*
X128347619Y-139152380D01*
X128204761Y-139104761D01*
X128109523Y-139009523D01*
X128061904Y-138914285D01*
X128014285Y-138723809D01*
X128014285Y-138580952D01*
X128061904Y-138390476D01*
X128109523Y-138295238D01*
X128204761Y-138200000D01*
X128347619Y-138152380D01*
X128442857Y-138152380D01*
X128585714Y-138200000D01*
X128633333Y-138247619D01*
X129490476Y-138152380D02*
X129300000Y-138152380D01*
X129204761Y-138200000D01*
X129157142Y-138247619D01*
X129061904Y-138390476D01*
X129014285Y-138580952D01*
X129014285Y-138961904D01*
X129061904Y-139057142D01*
X129109523Y-139104761D01*
X129204761Y-139152380D01*
X129395238Y-139152380D01*
X129490476Y-139104761D01*
X129538095Y-139057142D01*
X129585714Y-138961904D01*
X129585714Y-138723809D01*
X129538095Y-138628571D01*
X129490476Y-138580952D01*
X129395238Y-138533333D01*
X129204761Y-138533333D01*
X129109523Y-138580952D01*
X129061904Y-138628571D01*
X129014285Y-138723809D01*
%TO.C,C5*%
X125233333Y-109757142D02*
X125185714Y-109804761D01*
X125042857Y-109852380D01*
X124947619Y-109852380D01*
X124804761Y-109804761D01*
X124709523Y-109709523D01*
X124661904Y-109614285D01*
X124614285Y-109423809D01*
X124614285Y-109280952D01*
X124661904Y-109090476D01*
X124709523Y-108995238D01*
X124804761Y-108900000D01*
X124947619Y-108852380D01*
X125042857Y-108852380D01*
X125185714Y-108900000D01*
X125233333Y-108947619D01*
X126138095Y-108852380D02*
X125661904Y-108852380D01*
X125614285Y-109328571D01*
X125661904Y-109280952D01*
X125757142Y-109233333D01*
X125995238Y-109233333D01*
X126090476Y-109280952D01*
X126138095Y-109328571D01*
X126185714Y-109423809D01*
X126185714Y-109661904D01*
X126138095Y-109757142D01*
X126090476Y-109804761D01*
X125995238Y-109852380D01*
X125757142Y-109852380D01*
X125661904Y-109804761D01*
X125614285Y-109757142D01*
%TO.C,C4*%
X128333333Y-109757142D02*
X128285714Y-109804761D01*
X128142857Y-109852380D01*
X128047619Y-109852380D01*
X127904761Y-109804761D01*
X127809523Y-109709523D01*
X127761904Y-109614285D01*
X127714285Y-109423809D01*
X127714285Y-109280952D01*
X127761904Y-109090476D01*
X127809523Y-108995238D01*
X127904761Y-108900000D01*
X128047619Y-108852380D01*
X128142857Y-108852380D01*
X128285714Y-108900000D01*
X128333333Y-108947619D01*
X129190476Y-109185714D02*
X129190476Y-109852380D01*
X128952380Y-108804761D02*
X128714285Y-109519047D01*
X129333333Y-109519047D01*
%TO.C,C3*%
X116087142Y-112481666D02*
X116134761Y-112529285D01*
X116182380Y-112672142D01*
X116182380Y-112767380D01*
X116134761Y-112910238D01*
X116039523Y-113005476D01*
X115944285Y-113053095D01*
X115753809Y-113100714D01*
X115610952Y-113100714D01*
X115420476Y-113053095D01*
X115325238Y-113005476D01*
X115230000Y-112910238D01*
X115182380Y-112767380D01*
X115182380Y-112672142D01*
X115230000Y-112529285D01*
X115277619Y-112481666D01*
X115182380Y-112148333D02*
X115182380Y-111529285D01*
X115563333Y-111862619D01*
X115563333Y-111719761D01*
X115610952Y-111624523D01*
X115658571Y-111576904D01*
X115753809Y-111529285D01*
X115991904Y-111529285D01*
X116087142Y-111576904D01*
X116134761Y-111624523D01*
X116182380Y-111719761D01*
X116182380Y-112005476D01*
X116134761Y-112100714D01*
X116087142Y-112148333D01*
%TO.C,C2*%
X115957142Y-109751666D02*
X116004761Y-109799285D01*
X116052380Y-109942142D01*
X116052380Y-110037380D01*
X116004761Y-110180238D01*
X115909523Y-110275476D01*
X115814285Y-110323095D01*
X115623809Y-110370714D01*
X115480952Y-110370714D01*
X115290476Y-110323095D01*
X115195238Y-110275476D01*
X115100000Y-110180238D01*
X115052380Y-110037380D01*
X115052380Y-109942142D01*
X115100000Y-109799285D01*
X115147619Y-109751666D01*
X115147619Y-109370714D02*
X115100000Y-109323095D01*
X115052380Y-109227857D01*
X115052380Y-108989761D01*
X115100000Y-108894523D01*
X115147619Y-108846904D01*
X115242857Y-108799285D01*
X115338095Y-108799285D01*
X115480952Y-108846904D01*
X116052380Y-109418333D01*
X116052380Y-108799285D01*
%TO.C,C1*%
X99633333Y-132957142D02*
X99585714Y-133004761D01*
X99442857Y-133052380D01*
X99347619Y-133052380D01*
X99204761Y-133004761D01*
X99109523Y-132909523D01*
X99061904Y-132814285D01*
X99014285Y-132623809D01*
X99014285Y-132480952D01*
X99061904Y-132290476D01*
X99109523Y-132195238D01*
X99204761Y-132100000D01*
X99347619Y-132052380D01*
X99442857Y-132052380D01*
X99585714Y-132100000D01*
X99633333Y-132147619D01*
X100585714Y-133052380D02*
X100014285Y-133052380D01*
X100300000Y-133052380D02*
X100300000Y-132052380D01*
X100204761Y-132195238D01*
X100109523Y-132290476D01*
X100014285Y-132338095D01*
%TD*%
M02*
