%TF.GenerationSoftware,KiCad,Pcbnew,(5.1.6)-1*%
%TF.CreationDate,2021-07-30T18:23:22-07:00*%
%TF.ProjectId,WPT Receiver,57505420-5265-4636-9569-7665722e6b69,rev?*%
%TF.SameCoordinates,Original*%
%TF.FileFunction,Copper,L2,Bot*%
%TF.FilePolarity,Positive*%
%FSLAX46Y46*%
G04 Gerber Fmt 4.6, Leading zero omitted, Abs format (unit mm)*
G04 Created by KiCad (PCBNEW (5.1.6)-1) date 2021-07-30 18:23:22*
%MOMM*%
%LPD*%
G01*
G04 APERTURE LIST*
%TA.AperFunction,ComponentPad*%
%ADD10O,1.300000X1.050000*%
%TD*%
%TA.AperFunction,ComponentPad*%
%ADD11O,1.700000X1.700000*%
%TD*%
%TA.AperFunction,ComponentPad*%
%ADD12R,1.700000X1.700000*%
%TD*%
%TA.AperFunction,ComponentPad*%
%ADD13C,1.600000*%
%TD*%
%TA.AperFunction,ViaPad*%
%ADD14C,0.600000*%
%TD*%
%TA.AperFunction,Conductor*%
%ADD15C,0.152400*%
%TD*%
%TA.AperFunction,Conductor*%
%ADD16C,0.254000*%
%TD*%
G04 APERTURE END LIST*
%TO.P,U7,1*%
%TO.N,+3V3*%
%TA.AperFunction,ComponentPad*%
G36*
G01*
X140350100Y-139165000D02*
X139549900Y-139165000D01*
G75*
G02*
X139300000Y-138915100I0J249900D01*
G01*
X139300000Y-138364900D01*
G75*
G02*
X139549900Y-138115000I249900J0D01*
G01*
X140350100Y-138115000D01*
G75*
G02*
X140600000Y-138364900I0J-249900D01*
G01*
X140600000Y-138915100D01*
G75*
G02*
X140350100Y-139165000I-249900J0D01*
G01*
G37*
%TD.AperFunction*%
D10*
%TO.P,U7,3*%
%TO.N,/HALL_INT*%
X139950000Y-136100000D03*
%TO.P,U7,2*%
%TO.N,GND*%
X139950000Y-137370000D03*
%TD*%
D11*
%TO.P,L1,2*%
%TO.N,Net-(C1-Pad1)*%
X101240000Y-145000000D03*
D12*
%TO.P,L1,1*%
%TO.N,/IN-*%
X98700000Y-145000000D03*
%TD*%
D11*
%TO.P,J4,4*%
%TO.N,+3V3*%
X106580000Y-127400000D03*
%TO.P,J4,3*%
%TO.N,/DEBUG_RX*%
X109120000Y-127400000D03*
%TO.P,J4,2*%
%TO.N,/DEBUG_TX*%
X111660000Y-127400000D03*
D12*
%TO.P,J4,1*%
%TO.N,GND*%
X114200000Y-127400000D03*
%TD*%
D11*
%TO.P,J3,5*%
%TO.N,GND*%
X134000000Y-113920000D03*
%TO.P,J3,4*%
%TO.N,/LD3*%
X134000000Y-116460000D03*
%TO.P,J3,3*%
%TO.N,/LD2*%
X134000000Y-119000000D03*
%TO.P,J3,2*%
%TO.N,/LD1*%
X134000000Y-121540000D03*
D12*
%TO.P,J3,1*%
%TO.N,+3V3*%
X134000000Y-124080000D03*
%TD*%
D11*
%TO.P,J1,2*%
%TO.N,/IN-*%
X94100000Y-140340000D03*
D12*
%TO.P,J1,1*%
%TO.N,/IN+*%
X94100000Y-137800000D03*
%TD*%
D13*
%TO.P,C1,2*%
%TO.N,/IN+*%
X97500000Y-137800000D03*
%TO.P,C1,1*%
%TO.N,Net-(C1-Pad1)*%
X102500000Y-137800000D03*
%TD*%
D14*
%TO.N,GND*%
X135790000Y-73110000D03*
X135790000Y-76110000D03*
X135790000Y-79110000D03*
X135790000Y-70120000D03*
X135790000Y-82110000D03*
X135790000Y-61120000D03*
X135790000Y-64120000D03*
X135790000Y-67120000D03*
X120790000Y-73110000D03*
X120790000Y-76110000D03*
X120790000Y-79110000D03*
X120790000Y-70120000D03*
X120790000Y-82110000D03*
X120790000Y-61120000D03*
X120790000Y-64120000D03*
X120790000Y-67120000D03*
X105790000Y-73110000D03*
X105790000Y-76110000D03*
X105790000Y-79110000D03*
X105790000Y-70120000D03*
X105790000Y-82110000D03*
X105790000Y-61120000D03*
X105790000Y-64120000D03*
X105790000Y-67120000D03*
X90790000Y-73110000D03*
X90790000Y-76110000D03*
X90790000Y-79110000D03*
X90790000Y-70120000D03*
X90790000Y-82110000D03*
X90790000Y-61120000D03*
X90790000Y-64120000D03*
X90790000Y-67120000D03*
X75790000Y-82110000D03*
X75790000Y-73110000D03*
X75790000Y-76110000D03*
X75790000Y-79110000D03*
X75790000Y-64120000D03*
X75790000Y-67120000D03*
X75790000Y-70120000D03*
X125700000Y-119900000D03*
X125700000Y-116900000D03*
X127200000Y-118400000D03*
X124200000Y-118400000D03*
X127200000Y-119900000D03*
X124200000Y-119900000D03*
X124200000Y-116900000D03*
X127200000Y-116900000D03*
X125700000Y-118400000D03*
X125450000Y-113300000D03*
X75790000Y-61120000D03*
X58540000Y-86930000D03*
X69190000Y-91670000D03*
X73550000Y-86920000D03*
X85100000Y-92510000D03*
X88540000Y-86920000D03*
X100080000Y-92520000D03*
X103550000Y-86950000D03*
X115080000Y-92500000D03*
X118550000Y-86910000D03*
X130070000Y-92500000D03*
X144640000Y-115010000D03*
X144670000Y-118990000D03*
X144640000Y-122980000D03*
X130350000Y-111000000D03*
X129270000Y-109920000D03*
X129200000Y-112400000D03*
X124590000Y-112410000D03*
X124610000Y-109900000D03*
X123550000Y-111010000D03*
X128360000Y-113300000D03*
X116040000Y-110060000D03*
X116040000Y-111830000D03*
X116870000Y-110960000D03*
X131350000Y-127400000D03*
X118200000Y-123490000D03*
X118080000Y-128920000D03*
X120050000Y-137400000D03*
X119375000Y-137075000D03*
X118100000Y-137075000D03*
X121740000Y-133525000D03*
X132200000Y-140010000D03*
X133300000Y-135800000D03*
X126900000Y-145600000D03*
X134970000Y-145630000D03*
X108980000Y-112390000D03*
X100990000Y-112400000D03*
X100470000Y-118470000D03*
X93980000Y-112390000D03*
X86040000Y-112400000D03*
X85590000Y-118500000D03*
X85890000Y-131550000D03*
X84010000Y-132930000D03*
X85900000Y-134430000D03*
X87680000Y-132940000D03*
X85900000Y-143550000D03*
X87690000Y-145030000D03*
X85920000Y-146470000D03*
X84050000Y-145000000D03*
X78840000Y-143280000D03*
X77330000Y-145710000D03*
X57040000Y-140330000D03*
X57080000Y-138650000D03*
X62990000Y-137170000D03*
X60400000Y-138990000D03*
X63010000Y-140810000D03*
X65580000Y-139030000D03*
X57360000Y-136740000D03*
X64490000Y-129460000D03*
X67900000Y-130110000D03*
X65680000Y-130130000D03*
X72610000Y-131200000D03*
X72560000Y-129020000D03*
X72990000Y-124860000D03*
X73030000Y-127760000D03*
X71190000Y-126290000D03*
X74860000Y-126330000D03*
X72660000Y-123370000D03*
X76460000Y-123390000D03*
X75360000Y-124440000D03*
X73810000Y-124460000D03*
X73625000Y-130100000D03*
X138100000Y-140300000D03*
X104300000Y-113200000D03*
X104275000Y-116500000D03*
X106500000Y-113100000D03*
X107200000Y-116900000D03*
X114400000Y-117000000D03*
X118400000Y-115200000D03*
X117000000Y-114000000D03*
X126300000Y-126000000D03*
X122300000Y-113900000D03*
X100800000Y-89500000D03*
X102300000Y-94200000D03*
X85900000Y-89500000D03*
X87400000Y-94100000D03*
X115800000Y-89500000D03*
X117300000Y-94300000D03*
X130800000Y-89400000D03*
X133200000Y-92600000D03*
X133200000Y-89400000D03*
X118400000Y-99300000D03*
X112500000Y-98900000D03*
X105700000Y-98900000D03*
X103900000Y-98900000D03*
X96900000Y-98900000D03*
X90700000Y-98900000D03*
X88900000Y-98900000D03*
X75700000Y-98900000D03*
X82300000Y-98900000D03*
X73800000Y-98900000D03*
X67900000Y-98900000D03*
X61900000Y-98900000D03*
X73700000Y-96000000D03*
X73800000Y-97300000D03*
X63300000Y-97300000D03*
X79700000Y-96000000D03*
X78300000Y-97200000D03*
X88700000Y-96000000D03*
X88700000Y-97300000D03*
X84000000Y-97300000D03*
X68400000Y-97300000D03*
X94700000Y-96000000D03*
X103700000Y-96000000D03*
X103700000Y-97300000D03*
X99100000Y-97300000D03*
X93400000Y-97300000D03*
X109700000Y-96000000D03*
X118700000Y-96000000D03*
X118700000Y-97300000D03*
X113700000Y-97300000D03*
X108400000Y-97200000D03*
X119300000Y-126600000D03*
X122000000Y-122200000D03*
X108925000Y-120350000D03*
X111900000Y-118925000D03*
X55000000Y-55000000D03*
X60000000Y-55000000D03*
X65000000Y-55000000D03*
X70000000Y-55000000D03*
X75000000Y-55000000D03*
X80000000Y-55000000D03*
X85000000Y-55000000D03*
X90000000Y-55000000D03*
X95000000Y-55000000D03*
X100000000Y-55000000D03*
X105000000Y-55000000D03*
X110000000Y-55000000D03*
X115000000Y-55000000D03*
X120000000Y-55000000D03*
X125000000Y-55000000D03*
X130000000Y-55000000D03*
X135000000Y-55000000D03*
X140000000Y-55000000D03*
X145000000Y-55000000D03*
X55000000Y-60000000D03*
X55000000Y-65000000D03*
X60000000Y-60000000D03*
X60000000Y-65000000D03*
X65000000Y-60000000D03*
X80000000Y-60000000D03*
X95000000Y-60000000D03*
X110000000Y-60000000D03*
X125000000Y-60000000D03*
X140000000Y-60000000D03*
X55000000Y-70000000D03*
X60000000Y-70000000D03*
X55000000Y-75000000D03*
X60000000Y-75000000D03*
X145000000Y-75000000D03*
X55000000Y-80000000D03*
X60000000Y-80000000D03*
X55000000Y-85000000D03*
X70500000Y-85000000D03*
X85000000Y-85000000D03*
X100000000Y-85000000D03*
X115000000Y-85000000D03*
X130000000Y-85000000D03*
X135000000Y-85000000D03*
X140000000Y-85000000D03*
X145000000Y-85000000D03*
X145000000Y-80000000D03*
X145000000Y-90000000D03*
X140000000Y-90000000D03*
X145000000Y-95000000D03*
X55000000Y-90000000D03*
X55000000Y-100000000D03*
X60000000Y-100000000D03*
X55000000Y-105000000D03*
X60000000Y-105000000D03*
X65000000Y-105000000D03*
X70000000Y-105000000D03*
X75000000Y-105000000D03*
X80000000Y-105000000D03*
X85000000Y-105000000D03*
X90000000Y-105000000D03*
X95000000Y-105000000D03*
X100000000Y-105000000D03*
X105000000Y-105000000D03*
X110000000Y-105000000D03*
X55000000Y-110000000D03*
X110000000Y-110000000D03*
X125000000Y-105000000D03*
X130000000Y-100000000D03*
X135000000Y-100000000D03*
X140000000Y-100000000D03*
X140000000Y-105000000D03*
X135000000Y-105000000D03*
X130000000Y-105000000D03*
X135000000Y-110000000D03*
X140000000Y-110000000D03*
X145000000Y-110000000D03*
X145000000Y-120000000D03*
X145000000Y-130000000D03*
X140000000Y-130000000D03*
X140000000Y-145000000D03*
X145000000Y-145000000D03*
X130000000Y-145000000D03*
X125000000Y-145000000D03*
X125000000Y-140000000D03*
X125000000Y-135000000D03*
X125000000Y-130000000D03*
X115000000Y-145000000D03*
X110000000Y-145000000D03*
X105000000Y-145000000D03*
X105000000Y-140000000D03*
X110000000Y-140000000D03*
X105000000Y-135000000D03*
X100000000Y-135000000D03*
X100000000Y-130000000D03*
X95000000Y-130000000D03*
X95000000Y-135000000D03*
X95000000Y-125000000D03*
X90000000Y-125000000D03*
X90000000Y-130000000D03*
X85000000Y-130000000D03*
X85000000Y-125000000D03*
X80000000Y-125000000D03*
X80000000Y-130000000D03*
X75000000Y-130000000D03*
X80000000Y-135000000D03*
X75000000Y-135000000D03*
X80000000Y-145000000D03*
X95000000Y-145000000D03*
X70000000Y-145000000D03*
X65000000Y-145000000D03*
X60000000Y-145000000D03*
X55000000Y-145000000D03*
X60000000Y-135000000D03*
X65000000Y-135000000D03*
X55000000Y-120000000D03*
X60000000Y-115000000D03*
X69000000Y-79500000D03*
X68500000Y-76500000D03*
X68000000Y-73500000D03*
X67000000Y-71500000D03*
X72500000Y-70500000D03*
X72500000Y-73500000D03*
X72500000Y-76500000D03*
X72500000Y-79500000D03*
X72500000Y-67500000D03*
X72500000Y-64500000D03*
X65000000Y-67500000D03*
X64000000Y-65500000D03*
X72500000Y-61500000D03*
X78500000Y-66000000D03*
X79500000Y-68000000D03*
X80500000Y-70000000D03*
X82000000Y-71500000D03*
X83000000Y-74000000D03*
X84500000Y-79500000D03*
X84500000Y-76500000D03*
X87500000Y-70500000D03*
X87500000Y-67500000D03*
X87500000Y-73500000D03*
X87500000Y-64500000D03*
X87500000Y-61500000D03*
X87500000Y-76500000D03*
X87500000Y-79500000D03*
X86000000Y-82500000D03*
X70500000Y-82500000D03*
X72500000Y-88500000D03*
X57500000Y-88500000D03*
X102500000Y-79500000D03*
X99000000Y-79500000D03*
X102500000Y-76500000D03*
X99000000Y-76500000D03*
X102500000Y-73500000D03*
X98000000Y-73500000D03*
X102500000Y-70500000D03*
X96500000Y-72000000D03*
X102500000Y-67500000D03*
X95500000Y-70000000D03*
X102500000Y-64500000D03*
X94500000Y-68000000D03*
X93500000Y-66000000D03*
X102500000Y-61500000D03*
X108500000Y-66000000D03*
X109500000Y-68000000D03*
X110500000Y-70000000D03*
X111500000Y-72000000D03*
X112500000Y-74000000D03*
X113500000Y-76500000D03*
X114000000Y-79500000D03*
X100500000Y-82500000D03*
X115500000Y-82500000D03*
X117500000Y-79500000D03*
X117500000Y-76500000D03*
X117500000Y-73500000D03*
X117500000Y-70500000D03*
X117500000Y-67500000D03*
X117500000Y-64500000D03*
X117500000Y-61500000D03*
X123500000Y-66000000D03*
X124500000Y-68000000D03*
X125500000Y-70000000D03*
X126500000Y-72000000D03*
X127500000Y-74000000D03*
X128500000Y-76500000D03*
X129000000Y-79500000D03*
X130500000Y-82500000D03*
X132500000Y-79500000D03*
X132500000Y-76500000D03*
X132500000Y-73500000D03*
X132500000Y-70500000D03*
X132500000Y-67500000D03*
X132500000Y-64500000D03*
X132500000Y-61500000D03*
X126000000Y-96000000D03*
X121500000Y-109500000D03*
X120000000Y-106500000D03*
X120500000Y-115000000D03*
X136000000Y-117500000D03*
X136500000Y-120500000D03*
X140500000Y-117000000D03*
X141000000Y-121000000D03*
X134000000Y-126000000D03*
X145000000Y-136000000D03*
X142000000Y-138500000D03*
X133000000Y-132000000D03*
X138000000Y-132500000D03*
X147000000Y-148500000D03*
X149000000Y-144000000D03*
X149000000Y-139500000D03*
X149000000Y-135000000D03*
X149000000Y-130500000D03*
X149000000Y-126000000D03*
X149000000Y-121500000D03*
X149000000Y-116500000D03*
X149000000Y-112000000D03*
X149000000Y-106500000D03*
X149000000Y-100500000D03*
X118000000Y-140500000D03*
X114500000Y-137000000D03*
X120000000Y-142500000D03*
X134500000Y-141000000D03*
X134500000Y-144000000D03*
X113000000Y-123000000D03*
X116000000Y-127000000D03*
X109500000Y-117000000D03*
X104500000Y-126500000D03*
X106500000Y-121500000D03*
X99000000Y-142500000D03*
X96500000Y-140000000D03*
X92000000Y-143000000D03*
X92500000Y-146000000D03*
X84500000Y-139000000D03*
X92000000Y-139000000D03*
X88000000Y-135000000D03*
X88000000Y-143000000D03*
X81000000Y-141000000D03*
X78000000Y-141000000D03*
X75000000Y-141000000D03*
X72000000Y-141500000D03*
X74000000Y-145500000D03*
X51000000Y-118500000D03*
X51000000Y-122500000D03*
X51000000Y-126500000D03*
X51000000Y-130500000D03*
X51000000Y-134500000D03*
X51000000Y-139000000D03*
X51000000Y-143500000D03*
X52000000Y-147500000D03*
X59000000Y-119500000D03*
X55500000Y-123000000D03*
X55500000Y-131000000D03*
X59000000Y-127500000D03*
X61500000Y-129500000D03*
X61500000Y-119000000D03*
X65500000Y-126000000D03*
X66500000Y-116500000D03*
X77000000Y-118500000D03*
X89500000Y-119000000D03*
X95500000Y-119000000D03*
X94500000Y-117000000D03*
X100000000Y-115500000D03*
X97500000Y-112000000D03*
X77000000Y-111500000D03*
X67000000Y-111500000D03*
X65000000Y-91000000D03*
X98500000Y-121000000D03*
X78500000Y-115000000D03*
X84000000Y-115000000D03*
X81500000Y-119500000D03*
X56300000Y-149100000D03*
X60000000Y-149100000D03*
X64000000Y-149100000D03*
X68300000Y-149100000D03*
X72700000Y-149100000D03*
X76600000Y-149100000D03*
X80300000Y-149100000D03*
X84200000Y-149100000D03*
X87900000Y-149100000D03*
X92000000Y-149100000D03*
X96000000Y-149100000D03*
X99600000Y-149100000D03*
X103800000Y-149100000D03*
X108200000Y-149100000D03*
X112800000Y-149100000D03*
X118200000Y-149100000D03*
%TO.N,/RST*%
X123525000Y-113925000D03*
X127200000Y-122925000D03*
%TO.N,Net-(D22-Pad2)*%
X132000000Y-92500000D03*
X132000000Y-89500000D03*
%TO.N,Net-(D23-Pad2)*%
X117000000Y-92500000D03*
X117000000Y-89500000D03*
%TO.N,Net-(D45-Pad2)*%
X102000000Y-92500000D03*
X102000000Y-89500000D03*
%TO.N,Net-(D46-Pad2)*%
X87000000Y-92500000D03*
X87000000Y-89500000D03*
%TO.N,/SR_EN*%
X123650000Y-95350000D03*
X63650000Y-95350000D03*
X78625000Y-95350000D03*
X93625000Y-95350000D03*
X108625000Y-95350000D03*
%TO.N,/SER_0*%
X115100000Y-117700000D03*
X117275000Y-115525000D03*
%TO.N,/SRCLK*%
X106115000Y-97890000D03*
X61100000Y-97900000D03*
X76100000Y-97900000D03*
X121100000Y-97900000D03*
X91100000Y-97900000D03*
%TO.N,/RCLK*%
X122350000Y-96600000D03*
X62350000Y-96600000D03*
X77350000Y-96600000D03*
X92350000Y-96600000D03*
X107365000Y-96590000D03*
%TO.N,Net-(R58-Pad2)*%
X105400000Y-112975000D03*
X105400000Y-116450000D03*
%TD*%
D15*
%TO.N,/RST*%
X127200000Y-121930000D02*
X127200000Y-122925000D01*
X126350000Y-121080000D02*
X127200000Y-121930000D01*
X124010000Y-121080000D02*
X126350000Y-121080000D01*
X123525000Y-113925000D02*
X123525000Y-120595000D01*
X123525000Y-120595000D02*
X124010000Y-121080000D01*
D16*
%TO.N,Net-(D22-Pad2)*%
X132000000Y-92500000D02*
X132000000Y-89500000D01*
%TO.N,Net-(D23-Pad2)*%
X117000000Y-92500000D02*
X117000000Y-89500000D01*
%TO.N,Net-(D45-Pad2)*%
X102000000Y-92500000D02*
X102000000Y-89500000D01*
%TO.N,Net-(D46-Pad2)*%
X87000000Y-92500000D02*
X87000000Y-89500000D01*
D15*
%TO.N,/SR_EN*%
X78625000Y-95350000D02*
X63650000Y-95350000D01*
X93625000Y-95350000D02*
X78625000Y-95350000D01*
X123650000Y-95350000D02*
X108625000Y-95350000D01*
X108625000Y-95350000D02*
X93625000Y-95350000D01*
%TO.N,/SER_0*%
X115100000Y-117700000D02*
X117275000Y-115525000D01*
%TO.N,/SRCLK*%
X76100000Y-97900000D02*
X61100000Y-97900000D01*
X121100000Y-97900000D02*
X91100000Y-97900000D01*
X91100000Y-97900000D02*
X76100000Y-97900000D01*
%TO.N,/RCLK*%
X77350000Y-96600000D02*
X62350000Y-96600000D01*
X122350000Y-96600000D02*
X92350000Y-96600000D01*
X92350000Y-96600000D02*
X77350000Y-96600000D01*
D16*
%TO.N,Net-(R58-Pad2)*%
X105400000Y-112975000D02*
X105400000Y-116450000D01*
%TD*%
%TO.N,GND*%
G36*
X145768083Y-50731173D02*
G01*
X146511891Y-50934656D01*
X147207905Y-51266638D01*
X147834130Y-51716626D01*
X148370777Y-52270403D01*
X148800871Y-52910451D01*
X149110829Y-53616553D01*
X149292065Y-54371457D01*
X149340000Y-55024207D01*
X149340001Y-144970597D01*
X149268827Y-145768083D01*
X149065344Y-146511890D01*
X148733363Y-147207904D01*
X148283374Y-147834130D01*
X147729597Y-148370777D01*
X147089549Y-148800871D01*
X146383447Y-149110829D01*
X145628543Y-149292065D01*
X144975793Y-149340000D01*
X55029392Y-149340000D01*
X54231917Y-149268827D01*
X53488110Y-149065344D01*
X52792096Y-148733363D01*
X52165870Y-148283374D01*
X51629223Y-147729597D01*
X51199129Y-147089549D01*
X50889171Y-146383447D01*
X50707935Y-145628543D01*
X50660000Y-144975793D01*
X50660000Y-144150000D01*
X97211928Y-144150000D01*
X97211928Y-145850000D01*
X97224188Y-145974482D01*
X97260498Y-146094180D01*
X97319463Y-146204494D01*
X97398815Y-146301185D01*
X97495506Y-146380537D01*
X97605820Y-146439502D01*
X97725518Y-146475812D01*
X97850000Y-146488072D01*
X99550000Y-146488072D01*
X99674482Y-146475812D01*
X99794180Y-146439502D01*
X99904494Y-146380537D01*
X100001185Y-146301185D01*
X100080537Y-146204494D01*
X100139502Y-146094180D01*
X100161513Y-146021620D01*
X100293368Y-146153475D01*
X100536589Y-146315990D01*
X100806842Y-146427932D01*
X101093740Y-146485000D01*
X101386260Y-146485000D01*
X101673158Y-146427932D01*
X101943411Y-146315990D01*
X102186632Y-146153475D01*
X102393475Y-145946632D01*
X102555990Y-145703411D01*
X102667932Y-145433158D01*
X102725000Y-145146260D01*
X102725000Y-144853740D01*
X102667932Y-144566842D01*
X102555990Y-144296589D01*
X102393475Y-144053368D01*
X102186632Y-143846525D01*
X101943411Y-143684010D01*
X101673158Y-143572068D01*
X101386260Y-143515000D01*
X101093740Y-143515000D01*
X100806842Y-143572068D01*
X100536589Y-143684010D01*
X100293368Y-143846525D01*
X100161513Y-143978380D01*
X100139502Y-143905820D01*
X100080537Y-143795506D01*
X100001185Y-143698815D01*
X99904494Y-143619463D01*
X99794180Y-143560498D01*
X99674482Y-143524188D01*
X99550000Y-143511928D01*
X97850000Y-143511928D01*
X97725518Y-143524188D01*
X97605820Y-143560498D01*
X97495506Y-143619463D01*
X97398815Y-143698815D01*
X97319463Y-143795506D01*
X97260498Y-143905820D01*
X97224188Y-144025518D01*
X97211928Y-144150000D01*
X50660000Y-144150000D01*
X50660000Y-136950000D01*
X92611928Y-136950000D01*
X92611928Y-138650000D01*
X92624188Y-138774482D01*
X92660498Y-138894180D01*
X92719463Y-139004494D01*
X92798815Y-139101185D01*
X92895506Y-139180537D01*
X93005820Y-139239502D01*
X93078380Y-139261513D01*
X92946525Y-139393368D01*
X92784010Y-139636589D01*
X92672068Y-139906842D01*
X92615000Y-140193740D01*
X92615000Y-140486260D01*
X92672068Y-140773158D01*
X92784010Y-141043411D01*
X92946525Y-141286632D01*
X93153368Y-141493475D01*
X93396589Y-141655990D01*
X93666842Y-141767932D01*
X93953740Y-141825000D01*
X94246260Y-141825000D01*
X94533158Y-141767932D01*
X94803411Y-141655990D01*
X95046632Y-141493475D01*
X95253475Y-141286632D01*
X95415990Y-141043411D01*
X95527932Y-140773158D01*
X95585000Y-140486260D01*
X95585000Y-140193740D01*
X95527932Y-139906842D01*
X95415990Y-139636589D01*
X95253475Y-139393368D01*
X95121620Y-139261513D01*
X95194180Y-139239502D01*
X95304494Y-139180537D01*
X95401185Y-139101185D01*
X95480537Y-139004494D01*
X95539502Y-138894180D01*
X95575812Y-138774482D01*
X95588072Y-138650000D01*
X95588072Y-137658665D01*
X96065000Y-137658665D01*
X96065000Y-137941335D01*
X96120147Y-138218574D01*
X96228320Y-138479727D01*
X96385363Y-138714759D01*
X96585241Y-138914637D01*
X96820273Y-139071680D01*
X97081426Y-139179853D01*
X97358665Y-139235000D01*
X97641335Y-139235000D01*
X97918574Y-139179853D01*
X98179727Y-139071680D01*
X98414759Y-138914637D01*
X98614637Y-138714759D01*
X98771680Y-138479727D01*
X98879853Y-138218574D01*
X98935000Y-137941335D01*
X98935000Y-137658665D01*
X101065000Y-137658665D01*
X101065000Y-137941335D01*
X101120147Y-138218574D01*
X101228320Y-138479727D01*
X101385363Y-138714759D01*
X101585241Y-138914637D01*
X101820273Y-139071680D01*
X102081426Y-139179853D01*
X102358665Y-139235000D01*
X102641335Y-139235000D01*
X102918574Y-139179853D01*
X103179727Y-139071680D01*
X103414759Y-138914637D01*
X103614637Y-138714759D01*
X103771680Y-138479727D01*
X103819242Y-138364900D01*
X138661928Y-138364900D01*
X138661928Y-138915100D01*
X138678990Y-139088335D01*
X138729521Y-139254912D01*
X138811578Y-139408431D01*
X138922009Y-139542991D01*
X139056569Y-139653422D01*
X139210088Y-139735479D01*
X139376665Y-139786010D01*
X139549900Y-139803072D01*
X140350100Y-139803072D01*
X140523335Y-139786010D01*
X140689912Y-139735479D01*
X140843431Y-139653422D01*
X140977991Y-139542991D01*
X141088422Y-139408431D01*
X141170479Y-139254912D01*
X141221010Y-139088335D01*
X141238072Y-138915100D01*
X141238072Y-138364900D01*
X141221010Y-138191665D01*
X141170479Y-138025088D01*
X141088422Y-137871569D01*
X140977991Y-137737009D01*
X140843431Y-137626578D01*
X140689912Y-137544521D01*
X140523335Y-137493990D01*
X140350100Y-137476928D01*
X139549900Y-137476928D01*
X139376665Y-137493990D01*
X139210088Y-137544521D01*
X139056569Y-137626578D01*
X138922009Y-137737009D01*
X138811578Y-137871569D01*
X138729521Y-138025088D01*
X138678990Y-138191665D01*
X138661928Y-138364900D01*
X103819242Y-138364900D01*
X103879853Y-138218574D01*
X103935000Y-137941335D01*
X103935000Y-137658665D01*
X103879853Y-137381426D01*
X103771680Y-137120273D01*
X103614637Y-136885241D01*
X103414759Y-136685363D01*
X103179727Y-136528320D01*
X102918574Y-136420147D01*
X102641335Y-136365000D01*
X102358665Y-136365000D01*
X102081426Y-136420147D01*
X101820273Y-136528320D01*
X101585241Y-136685363D01*
X101385363Y-136885241D01*
X101228320Y-137120273D01*
X101120147Y-137381426D01*
X101065000Y-137658665D01*
X98935000Y-137658665D01*
X98879853Y-137381426D01*
X98771680Y-137120273D01*
X98614637Y-136885241D01*
X98414759Y-136685363D01*
X98179727Y-136528320D01*
X97918574Y-136420147D01*
X97641335Y-136365000D01*
X97358665Y-136365000D01*
X97081426Y-136420147D01*
X96820273Y-136528320D01*
X96585241Y-136685363D01*
X96385363Y-136885241D01*
X96228320Y-137120273D01*
X96120147Y-137381426D01*
X96065000Y-137658665D01*
X95588072Y-137658665D01*
X95588072Y-136950000D01*
X95575812Y-136825518D01*
X95539502Y-136705820D01*
X95480537Y-136595506D01*
X95401185Y-136498815D01*
X95304494Y-136419463D01*
X95194180Y-136360498D01*
X95074482Y-136324188D01*
X94950000Y-136311928D01*
X93250000Y-136311928D01*
X93125518Y-136324188D01*
X93005820Y-136360498D01*
X92895506Y-136419463D01*
X92798815Y-136498815D01*
X92719463Y-136595506D01*
X92660498Y-136705820D01*
X92624188Y-136825518D01*
X92611928Y-136950000D01*
X50660000Y-136950000D01*
X50660000Y-133888675D01*
X128329700Y-133888675D01*
X128329700Y-134111325D01*
X128373137Y-134329696D01*
X128458341Y-134535398D01*
X128582039Y-134720524D01*
X128739476Y-134877961D01*
X128924602Y-135001659D01*
X129130304Y-135086863D01*
X129348675Y-135130300D01*
X129571325Y-135130300D01*
X129789696Y-135086863D01*
X129995398Y-135001659D01*
X130180524Y-134877961D01*
X130337961Y-134720524D01*
X130461659Y-134535398D01*
X130546863Y-134329696D01*
X130590300Y-134111325D01*
X130590300Y-133888675D01*
X130546863Y-133670304D01*
X130461659Y-133464602D01*
X130337961Y-133279476D01*
X130180524Y-133122039D01*
X129995398Y-132998341D01*
X129789696Y-132913137D01*
X129586282Y-132872675D01*
X133409700Y-132872675D01*
X133409700Y-133095325D01*
X133453137Y-133313696D01*
X133538341Y-133519398D01*
X133662039Y-133704524D01*
X133819476Y-133861961D01*
X134004602Y-133985659D01*
X134039224Y-134000000D01*
X134004602Y-134014341D01*
X133819476Y-134138039D01*
X133662039Y-134295476D01*
X133538341Y-134480602D01*
X133453137Y-134686304D01*
X133409700Y-134904675D01*
X133409700Y-135127325D01*
X133453137Y-135345696D01*
X133538341Y-135551398D01*
X133662039Y-135736524D01*
X133819476Y-135893961D01*
X134004602Y-136017659D01*
X134210304Y-136102863D01*
X134428675Y-136146300D01*
X134651325Y-136146300D01*
X134869696Y-136102863D01*
X134876607Y-136100000D01*
X138659388Y-136100000D01*
X138681785Y-136327400D01*
X138748115Y-136546060D01*
X138855829Y-136747579D01*
X139000788Y-136924212D01*
X139177421Y-137069171D01*
X139378940Y-137176885D01*
X139597600Y-137243215D01*
X139768021Y-137260000D01*
X140131979Y-137260000D01*
X140302400Y-137243215D01*
X140521060Y-137176885D01*
X140722579Y-137069171D01*
X140899212Y-136924212D01*
X141044171Y-136747579D01*
X141151885Y-136546060D01*
X141218215Y-136327400D01*
X141240612Y-136100000D01*
X141218215Y-135872600D01*
X141151885Y-135653940D01*
X141044171Y-135452421D01*
X140899212Y-135275788D01*
X140722579Y-135130829D01*
X140521060Y-135023115D01*
X140302400Y-134956785D01*
X140131979Y-134940000D01*
X139768021Y-134940000D01*
X139597600Y-134956785D01*
X139378940Y-135023115D01*
X139177421Y-135130829D01*
X139000788Y-135275788D01*
X138855829Y-135452421D01*
X138748115Y-135653940D01*
X138681785Y-135872600D01*
X138659388Y-136100000D01*
X134876607Y-136100000D01*
X135075398Y-136017659D01*
X135260524Y-135893961D01*
X135417961Y-135736524D01*
X135541659Y-135551398D01*
X135626863Y-135345696D01*
X135670300Y-135127325D01*
X135670300Y-134904675D01*
X135626863Y-134686304D01*
X135541659Y-134480602D01*
X135417961Y-134295476D01*
X135260524Y-134138039D01*
X135075398Y-134014341D01*
X135040776Y-134000000D01*
X135075398Y-133985659D01*
X135260524Y-133861961D01*
X135417961Y-133704524D01*
X135541659Y-133519398D01*
X135626863Y-133313696D01*
X135670300Y-133095325D01*
X135670300Y-132872675D01*
X135626863Y-132654304D01*
X135541659Y-132448602D01*
X135417961Y-132263476D01*
X135260524Y-132106039D01*
X135075398Y-131982341D01*
X134869696Y-131897137D01*
X134651325Y-131853700D01*
X134428675Y-131853700D01*
X134210304Y-131897137D01*
X134004602Y-131982341D01*
X133819476Y-132106039D01*
X133662039Y-132263476D01*
X133538341Y-132448602D01*
X133453137Y-132654304D01*
X133409700Y-132872675D01*
X129586282Y-132872675D01*
X129571325Y-132869700D01*
X129348675Y-132869700D01*
X129130304Y-132913137D01*
X128924602Y-132998341D01*
X128739476Y-133122039D01*
X128582039Y-133279476D01*
X128458341Y-133464602D01*
X128373137Y-133670304D01*
X128329700Y-133888675D01*
X50660000Y-133888675D01*
X50660000Y-127253740D01*
X105095000Y-127253740D01*
X105095000Y-127546260D01*
X105152068Y-127833158D01*
X105264010Y-128103411D01*
X105426525Y-128346632D01*
X105633368Y-128553475D01*
X105876589Y-128715990D01*
X106146842Y-128827932D01*
X106433740Y-128885000D01*
X106726260Y-128885000D01*
X107013158Y-128827932D01*
X107283411Y-128715990D01*
X107526632Y-128553475D01*
X107733475Y-128346632D01*
X107850000Y-128172240D01*
X107966525Y-128346632D01*
X108173368Y-128553475D01*
X108416589Y-128715990D01*
X108686842Y-128827932D01*
X108973740Y-128885000D01*
X109266260Y-128885000D01*
X109553158Y-128827932D01*
X109823411Y-128715990D01*
X110066632Y-128553475D01*
X110273475Y-128346632D01*
X110390000Y-128172240D01*
X110506525Y-128346632D01*
X110713368Y-128553475D01*
X110956589Y-128715990D01*
X111226842Y-128827932D01*
X111513740Y-128885000D01*
X111806260Y-128885000D01*
X112093158Y-128827932D01*
X112363411Y-128715990D01*
X112606632Y-128553475D01*
X112813475Y-128346632D01*
X112975990Y-128103411D01*
X113087932Y-127833158D01*
X113145000Y-127546260D01*
X113145000Y-127253740D01*
X113087932Y-126966842D01*
X112975990Y-126696589D01*
X112813475Y-126453368D01*
X112606632Y-126246525D01*
X112363411Y-126084010D01*
X112093158Y-125972068D01*
X111806260Y-125915000D01*
X111513740Y-125915000D01*
X111226842Y-125972068D01*
X110956589Y-126084010D01*
X110713368Y-126246525D01*
X110506525Y-126453368D01*
X110390000Y-126627760D01*
X110273475Y-126453368D01*
X110066632Y-126246525D01*
X109823411Y-126084010D01*
X109553158Y-125972068D01*
X109266260Y-125915000D01*
X108973740Y-125915000D01*
X108686842Y-125972068D01*
X108416589Y-126084010D01*
X108173368Y-126246525D01*
X107966525Y-126453368D01*
X107850000Y-126627760D01*
X107733475Y-126453368D01*
X107526632Y-126246525D01*
X107283411Y-126084010D01*
X107013158Y-125972068D01*
X106726260Y-125915000D01*
X106433740Y-125915000D01*
X106146842Y-125972068D01*
X105876589Y-126084010D01*
X105633368Y-126246525D01*
X105426525Y-126453368D01*
X105264010Y-126696589D01*
X105152068Y-126966842D01*
X105095000Y-127253740D01*
X50660000Y-127253740D01*
X50660000Y-117607911D01*
X114165000Y-117607911D01*
X114165000Y-117792089D01*
X114200932Y-117972729D01*
X114271414Y-118142889D01*
X114373738Y-118296028D01*
X114503972Y-118426262D01*
X114657111Y-118528586D01*
X114827271Y-118599068D01*
X115007911Y-118635000D01*
X115192089Y-118635000D01*
X115372729Y-118599068D01*
X115542889Y-118528586D01*
X115696028Y-118426262D01*
X115826262Y-118296028D01*
X115928586Y-118142889D01*
X115999068Y-117972729D01*
X116035000Y-117792089D01*
X116035000Y-117770787D01*
X117345789Y-116460000D01*
X117367089Y-116460000D01*
X117547729Y-116424068D01*
X117717889Y-116353586D01*
X117871028Y-116251262D01*
X118001262Y-116121028D01*
X118103586Y-115967889D01*
X118174068Y-115797729D01*
X118210000Y-115617089D01*
X118210000Y-115432911D01*
X118174068Y-115252271D01*
X118103586Y-115082111D01*
X118001262Y-114928972D01*
X117871028Y-114798738D01*
X117717889Y-114696414D01*
X117547729Y-114625932D01*
X117367089Y-114590000D01*
X117182911Y-114590000D01*
X117002271Y-114625932D01*
X116832111Y-114696414D01*
X116678972Y-114798738D01*
X116548738Y-114928972D01*
X116446414Y-115082111D01*
X116375932Y-115252271D01*
X116340000Y-115432911D01*
X116340000Y-115454211D01*
X115029213Y-116765000D01*
X115007911Y-116765000D01*
X114827271Y-116800932D01*
X114657111Y-116871414D01*
X114503972Y-116973738D01*
X114373738Y-117103972D01*
X114271414Y-117257111D01*
X114200932Y-117427271D01*
X114165000Y-117607911D01*
X50660000Y-117607911D01*
X50660000Y-112882911D01*
X104465000Y-112882911D01*
X104465000Y-113067089D01*
X104500932Y-113247729D01*
X104571414Y-113417889D01*
X104638000Y-113517542D01*
X104638001Y-115907457D01*
X104571414Y-116007111D01*
X104500932Y-116177271D01*
X104465000Y-116357911D01*
X104465000Y-116542089D01*
X104500932Y-116722729D01*
X104571414Y-116892889D01*
X104673738Y-117046028D01*
X104803972Y-117176262D01*
X104957111Y-117278586D01*
X105127271Y-117349068D01*
X105307911Y-117385000D01*
X105492089Y-117385000D01*
X105672729Y-117349068D01*
X105842889Y-117278586D01*
X105996028Y-117176262D01*
X106126262Y-117046028D01*
X106228586Y-116892889D01*
X106299068Y-116722729D01*
X106335000Y-116542089D01*
X106335000Y-116357911D01*
X106299068Y-116177271D01*
X106228586Y-116007111D01*
X106162000Y-115907458D01*
X106162000Y-113832911D01*
X122590000Y-113832911D01*
X122590000Y-114017089D01*
X122625932Y-114197729D01*
X122696414Y-114367889D01*
X122798738Y-114521028D01*
X122813800Y-114536090D01*
X122813801Y-120560064D01*
X122810360Y-120595000D01*
X122824092Y-120734419D01*
X122864759Y-120868481D01*
X122903297Y-120940580D01*
X122930799Y-120992033D01*
X123019674Y-121100327D01*
X123046809Y-121122596D01*
X123482406Y-121558195D01*
X123504673Y-121585327D01*
X123531804Y-121607593D01*
X123531809Y-121607598D01*
X123612967Y-121674202D01*
X123736518Y-121740242D01*
X123870580Y-121780909D01*
X123975064Y-121791200D01*
X123975071Y-121791200D01*
X124010000Y-121794640D01*
X124044928Y-121791200D01*
X126055412Y-121791200D01*
X126488800Y-122224589D01*
X126488800Y-122313910D01*
X126473738Y-122328972D01*
X126371414Y-122482111D01*
X126300932Y-122652271D01*
X126265000Y-122832911D01*
X126265000Y-123017089D01*
X126300932Y-123197729D01*
X126371414Y-123367889D01*
X126473738Y-123521028D01*
X126603972Y-123651262D01*
X126757111Y-123753586D01*
X126927271Y-123824068D01*
X127107911Y-123860000D01*
X127292089Y-123860000D01*
X127472729Y-123824068D01*
X127642889Y-123753586D01*
X127796028Y-123651262D01*
X127926262Y-123521028D01*
X128028586Y-123367889D01*
X128085701Y-123230000D01*
X132511928Y-123230000D01*
X132511928Y-124930000D01*
X132524188Y-125054482D01*
X132560498Y-125174180D01*
X132619463Y-125284494D01*
X132698815Y-125381185D01*
X132795506Y-125460537D01*
X132905820Y-125519502D01*
X133025518Y-125555812D01*
X133150000Y-125568072D01*
X134850000Y-125568072D01*
X134974482Y-125555812D01*
X135094180Y-125519502D01*
X135204494Y-125460537D01*
X135301185Y-125381185D01*
X135380537Y-125284494D01*
X135439502Y-125174180D01*
X135475812Y-125054482D01*
X135488072Y-124930000D01*
X135488072Y-123230000D01*
X135475812Y-123105518D01*
X135439502Y-122985820D01*
X135380537Y-122875506D01*
X135301185Y-122778815D01*
X135204494Y-122699463D01*
X135094180Y-122640498D01*
X135021620Y-122618487D01*
X135153475Y-122486632D01*
X135315990Y-122243411D01*
X135427932Y-121973158D01*
X135485000Y-121686260D01*
X135485000Y-121393740D01*
X135427932Y-121106842D01*
X135315990Y-120836589D01*
X135153475Y-120593368D01*
X134946632Y-120386525D01*
X134772240Y-120270000D01*
X134946632Y-120153475D01*
X135153475Y-119946632D01*
X135315990Y-119703411D01*
X135427932Y-119433158D01*
X135485000Y-119146260D01*
X135485000Y-118853740D01*
X135427932Y-118566842D01*
X135315990Y-118296589D01*
X135153475Y-118053368D01*
X134946632Y-117846525D01*
X134772240Y-117730000D01*
X134946632Y-117613475D01*
X135153475Y-117406632D01*
X135315990Y-117163411D01*
X135427932Y-116893158D01*
X135485000Y-116606260D01*
X135485000Y-116313740D01*
X135427932Y-116026842D01*
X135315990Y-115756589D01*
X135153475Y-115513368D01*
X134946632Y-115306525D01*
X134703411Y-115144010D01*
X134433158Y-115032068D01*
X134146260Y-114975000D01*
X133853740Y-114975000D01*
X133566842Y-115032068D01*
X133296589Y-115144010D01*
X133053368Y-115306525D01*
X132846525Y-115513368D01*
X132684010Y-115756589D01*
X132572068Y-116026842D01*
X132515000Y-116313740D01*
X132515000Y-116606260D01*
X132572068Y-116893158D01*
X132684010Y-117163411D01*
X132846525Y-117406632D01*
X133053368Y-117613475D01*
X133227760Y-117730000D01*
X133053368Y-117846525D01*
X132846525Y-118053368D01*
X132684010Y-118296589D01*
X132572068Y-118566842D01*
X132515000Y-118853740D01*
X132515000Y-119146260D01*
X132572068Y-119433158D01*
X132684010Y-119703411D01*
X132846525Y-119946632D01*
X133053368Y-120153475D01*
X133227760Y-120270000D01*
X133053368Y-120386525D01*
X132846525Y-120593368D01*
X132684010Y-120836589D01*
X132572068Y-121106842D01*
X132515000Y-121393740D01*
X132515000Y-121686260D01*
X132572068Y-121973158D01*
X132684010Y-122243411D01*
X132846525Y-122486632D01*
X132978380Y-122618487D01*
X132905820Y-122640498D01*
X132795506Y-122699463D01*
X132698815Y-122778815D01*
X132619463Y-122875506D01*
X132560498Y-122985820D01*
X132524188Y-123105518D01*
X132511928Y-123230000D01*
X128085701Y-123230000D01*
X128099068Y-123197729D01*
X128135000Y-123017089D01*
X128135000Y-122832911D01*
X128099068Y-122652271D01*
X128028586Y-122482111D01*
X127926262Y-122328972D01*
X127911200Y-122313910D01*
X127911200Y-121964928D01*
X127914640Y-121930000D01*
X127911200Y-121895071D01*
X127911200Y-121895064D01*
X127900909Y-121790580D01*
X127860242Y-121656519D01*
X127794202Y-121532967D01*
X127727598Y-121451809D01*
X127727588Y-121451799D01*
X127705326Y-121424673D01*
X127678200Y-121402411D01*
X126877601Y-120601814D01*
X126855327Y-120574673D01*
X126747033Y-120485798D01*
X126623481Y-120419758D01*
X126489420Y-120379091D01*
X126384936Y-120368800D01*
X126384926Y-120368800D01*
X126350000Y-120365360D01*
X126315074Y-120368800D01*
X124304588Y-120368800D01*
X124236200Y-120300412D01*
X124236200Y-114536090D01*
X124251262Y-114521028D01*
X124353586Y-114367889D01*
X124424068Y-114197729D01*
X124460000Y-114017089D01*
X124460000Y-113832911D01*
X124424068Y-113652271D01*
X124353586Y-113482111D01*
X124251262Y-113328972D01*
X124121028Y-113198738D01*
X123967889Y-113096414D01*
X123797729Y-113025932D01*
X123617089Y-112990000D01*
X123432911Y-112990000D01*
X123252271Y-113025932D01*
X123082111Y-113096414D01*
X122928972Y-113198738D01*
X122798738Y-113328972D01*
X122696414Y-113482111D01*
X122625932Y-113652271D01*
X122590000Y-113832911D01*
X106162000Y-113832911D01*
X106162000Y-113517542D01*
X106228586Y-113417889D01*
X106299068Y-113247729D01*
X106335000Y-113067089D01*
X106335000Y-112882911D01*
X106299068Y-112702271D01*
X106228586Y-112532111D01*
X106126262Y-112378972D01*
X105996028Y-112248738D01*
X105842889Y-112146414D01*
X105672729Y-112075932D01*
X105492089Y-112040000D01*
X105307911Y-112040000D01*
X105127271Y-112075932D01*
X104957111Y-112146414D01*
X104803972Y-112248738D01*
X104673738Y-112378972D01*
X104571414Y-112532111D01*
X104500932Y-112702271D01*
X104465000Y-112882911D01*
X50660000Y-112882911D01*
X50660000Y-97807911D01*
X60165000Y-97807911D01*
X60165000Y-97992089D01*
X60200932Y-98172729D01*
X60271414Y-98342889D01*
X60373738Y-98496028D01*
X60503972Y-98626262D01*
X60657111Y-98728586D01*
X60827271Y-98799068D01*
X61007911Y-98835000D01*
X61192089Y-98835000D01*
X61372729Y-98799068D01*
X61542889Y-98728586D01*
X61696028Y-98626262D01*
X61711090Y-98611200D01*
X75488910Y-98611200D01*
X75503972Y-98626262D01*
X75657111Y-98728586D01*
X75827271Y-98799068D01*
X76007911Y-98835000D01*
X76192089Y-98835000D01*
X76372729Y-98799068D01*
X76542889Y-98728586D01*
X76696028Y-98626262D01*
X76711090Y-98611200D01*
X90488910Y-98611200D01*
X90503972Y-98626262D01*
X90657111Y-98728586D01*
X90827271Y-98799068D01*
X91007911Y-98835000D01*
X91192089Y-98835000D01*
X91372729Y-98799068D01*
X91542889Y-98728586D01*
X91696028Y-98626262D01*
X91711090Y-98611200D01*
X105513910Y-98611200D01*
X105518972Y-98616262D01*
X105672111Y-98718586D01*
X105842271Y-98789068D01*
X106022911Y-98825000D01*
X106207089Y-98825000D01*
X106387729Y-98789068D01*
X106557889Y-98718586D01*
X106711028Y-98616262D01*
X106716090Y-98611200D01*
X120488910Y-98611200D01*
X120503972Y-98626262D01*
X120657111Y-98728586D01*
X120827271Y-98799068D01*
X121007911Y-98835000D01*
X121192089Y-98835000D01*
X121372729Y-98799068D01*
X121542889Y-98728586D01*
X121696028Y-98626262D01*
X121826262Y-98496028D01*
X121928586Y-98342889D01*
X121999068Y-98172729D01*
X122035000Y-97992089D01*
X122035000Y-97807911D01*
X121999068Y-97627271D01*
X121928586Y-97457111D01*
X121910451Y-97429969D01*
X122077271Y-97499068D01*
X122257911Y-97535000D01*
X122442089Y-97535000D01*
X122622729Y-97499068D01*
X122792889Y-97428586D01*
X122946028Y-97326262D01*
X123076262Y-97196028D01*
X123178586Y-97042889D01*
X123249068Y-96872729D01*
X123285000Y-96692089D01*
X123285000Y-96507911D01*
X123249068Y-96327271D01*
X123179969Y-96160451D01*
X123207111Y-96178586D01*
X123377271Y-96249068D01*
X123557911Y-96285000D01*
X123742089Y-96285000D01*
X123922729Y-96249068D01*
X124092889Y-96178586D01*
X124246028Y-96076262D01*
X124376262Y-95946028D01*
X124478586Y-95792889D01*
X124549068Y-95622729D01*
X124585000Y-95442089D01*
X124585000Y-95257911D01*
X124549068Y-95077271D01*
X124478586Y-94907111D01*
X124376262Y-94753972D01*
X124246028Y-94623738D01*
X124092889Y-94521414D01*
X123922729Y-94450932D01*
X123742089Y-94415000D01*
X123557911Y-94415000D01*
X123377271Y-94450932D01*
X123207111Y-94521414D01*
X123053972Y-94623738D01*
X123038910Y-94638800D01*
X109236090Y-94638800D01*
X109221028Y-94623738D01*
X109067889Y-94521414D01*
X108897729Y-94450932D01*
X108717089Y-94415000D01*
X108532911Y-94415000D01*
X108352271Y-94450932D01*
X108182111Y-94521414D01*
X108028972Y-94623738D01*
X108013910Y-94638800D01*
X94236090Y-94638800D01*
X94221028Y-94623738D01*
X94067889Y-94521414D01*
X93897729Y-94450932D01*
X93717089Y-94415000D01*
X93532911Y-94415000D01*
X93352271Y-94450932D01*
X93182111Y-94521414D01*
X93028972Y-94623738D01*
X93013910Y-94638800D01*
X79236090Y-94638800D01*
X79221028Y-94623738D01*
X79067889Y-94521414D01*
X78897729Y-94450932D01*
X78717089Y-94415000D01*
X78532911Y-94415000D01*
X78352271Y-94450932D01*
X78182111Y-94521414D01*
X78028972Y-94623738D01*
X78013910Y-94638800D01*
X64261090Y-94638800D01*
X64246028Y-94623738D01*
X64092889Y-94521414D01*
X63922729Y-94450932D01*
X63742089Y-94415000D01*
X63557911Y-94415000D01*
X63377271Y-94450932D01*
X63207111Y-94521414D01*
X63053972Y-94623738D01*
X62923738Y-94753972D01*
X62821414Y-94907111D01*
X62750932Y-95077271D01*
X62715000Y-95257911D01*
X62715000Y-95442089D01*
X62750932Y-95622729D01*
X62820031Y-95789549D01*
X62792889Y-95771414D01*
X62622729Y-95700932D01*
X62442089Y-95665000D01*
X62257911Y-95665000D01*
X62077271Y-95700932D01*
X61907111Y-95771414D01*
X61753972Y-95873738D01*
X61623738Y-96003972D01*
X61521414Y-96157111D01*
X61450932Y-96327271D01*
X61415000Y-96507911D01*
X61415000Y-96692089D01*
X61450932Y-96872729D01*
X61521414Y-97042889D01*
X61539549Y-97070031D01*
X61372729Y-97000932D01*
X61192089Y-96965000D01*
X61007911Y-96965000D01*
X60827271Y-97000932D01*
X60657111Y-97071414D01*
X60503972Y-97173738D01*
X60373738Y-97303972D01*
X60271414Y-97457111D01*
X60200932Y-97627271D01*
X60165000Y-97807911D01*
X50660000Y-97807911D01*
X50660000Y-89407911D01*
X86065000Y-89407911D01*
X86065000Y-89592089D01*
X86100932Y-89772729D01*
X86171414Y-89942889D01*
X86238001Y-90042543D01*
X86238000Y-91957458D01*
X86171414Y-92057111D01*
X86100932Y-92227271D01*
X86065000Y-92407911D01*
X86065000Y-92592089D01*
X86100932Y-92772729D01*
X86171414Y-92942889D01*
X86273738Y-93096028D01*
X86403972Y-93226262D01*
X86557111Y-93328586D01*
X86727271Y-93399068D01*
X86907911Y-93435000D01*
X87092089Y-93435000D01*
X87272729Y-93399068D01*
X87442889Y-93328586D01*
X87596028Y-93226262D01*
X87726262Y-93096028D01*
X87828586Y-92942889D01*
X87899068Y-92772729D01*
X87935000Y-92592089D01*
X87935000Y-92407911D01*
X87899068Y-92227271D01*
X87828586Y-92057111D01*
X87762000Y-91957458D01*
X87762000Y-90042542D01*
X87828586Y-89942889D01*
X87899068Y-89772729D01*
X87935000Y-89592089D01*
X87935000Y-89407911D01*
X101065000Y-89407911D01*
X101065000Y-89592089D01*
X101100932Y-89772729D01*
X101171414Y-89942889D01*
X101238001Y-90042543D01*
X101238000Y-91957458D01*
X101171414Y-92057111D01*
X101100932Y-92227271D01*
X101065000Y-92407911D01*
X101065000Y-92592089D01*
X101100932Y-92772729D01*
X101171414Y-92942889D01*
X101273738Y-93096028D01*
X101403972Y-93226262D01*
X101557111Y-93328586D01*
X101727271Y-93399068D01*
X101907911Y-93435000D01*
X102092089Y-93435000D01*
X102272729Y-93399068D01*
X102442889Y-93328586D01*
X102596028Y-93226262D01*
X102726262Y-93096028D01*
X102828586Y-92942889D01*
X102899068Y-92772729D01*
X102935000Y-92592089D01*
X102935000Y-92407911D01*
X102899068Y-92227271D01*
X102828586Y-92057111D01*
X102762000Y-91957458D01*
X102762000Y-90042542D01*
X102828586Y-89942889D01*
X102899068Y-89772729D01*
X102935000Y-89592089D01*
X102935000Y-89407911D01*
X116065000Y-89407911D01*
X116065000Y-89592089D01*
X116100932Y-89772729D01*
X116171414Y-89942889D01*
X116238001Y-90042543D01*
X116238000Y-91957458D01*
X116171414Y-92057111D01*
X116100932Y-92227271D01*
X116065000Y-92407911D01*
X116065000Y-92592089D01*
X116100932Y-92772729D01*
X116171414Y-92942889D01*
X116273738Y-93096028D01*
X116403972Y-93226262D01*
X116557111Y-93328586D01*
X116727271Y-93399068D01*
X116907911Y-93435000D01*
X117092089Y-93435000D01*
X117272729Y-93399068D01*
X117442889Y-93328586D01*
X117596028Y-93226262D01*
X117726262Y-93096028D01*
X117828586Y-92942889D01*
X117899068Y-92772729D01*
X117935000Y-92592089D01*
X117935000Y-92407911D01*
X117899068Y-92227271D01*
X117828586Y-92057111D01*
X117762000Y-91957458D01*
X117762000Y-90042542D01*
X117828586Y-89942889D01*
X117899068Y-89772729D01*
X117935000Y-89592089D01*
X117935000Y-89407911D01*
X131065000Y-89407911D01*
X131065000Y-89592089D01*
X131100932Y-89772729D01*
X131171414Y-89942889D01*
X131238001Y-90042543D01*
X131238000Y-91957458D01*
X131171414Y-92057111D01*
X131100932Y-92227271D01*
X131065000Y-92407911D01*
X131065000Y-92592089D01*
X131100932Y-92772729D01*
X131171414Y-92942889D01*
X131273738Y-93096028D01*
X131403972Y-93226262D01*
X131557111Y-93328586D01*
X131727271Y-93399068D01*
X131907911Y-93435000D01*
X132092089Y-93435000D01*
X132272729Y-93399068D01*
X132442889Y-93328586D01*
X132596028Y-93226262D01*
X132726262Y-93096028D01*
X132828586Y-92942889D01*
X132899068Y-92772729D01*
X132935000Y-92592089D01*
X132935000Y-92407911D01*
X132899068Y-92227271D01*
X132828586Y-92057111D01*
X132762000Y-91957458D01*
X132762000Y-90042542D01*
X132828586Y-89942889D01*
X132899068Y-89772729D01*
X132935000Y-89592089D01*
X132935000Y-89407911D01*
X132899068Y-89227271D01*
X132828586Y-89057111D01*
X132726262Y-88903972D01*
X132596028Y-88773738D01*
X132442889Y-88671414D01*
X132272729Y-88600932D01*
X132092089Y-88565000D01*
X131907911Y-88565000D01*
X131727271Y-88600932D01*
X131557111Y-88671414D01*
X131403972Y-88773738D01*
X131273738Y-88903972D01*
X131171414Y-89057111D01*
X131100932Y-89227271D01*
X131065000Y-89407911D01*
X117935000Y-89407911D01*
X117899068Y-89227271D01*
X117828586Y-89057111D01*
X117726262Y-88903972D01*
X117596028Y-88773738D01*
X117442889Y-88671414D01*
X117272729Y-88600932D01*
X117092089Y-88565000D01*
X116907911Y-88565000D01*
X116727271Y-88600932D01*
X116557111Y-88671414D01*
X116403972Y-88773738D01*
X116273738Y-88903972D01*
X116171414Y-89057111D01*
X116100932Y-89227271D01*
X116065000Y-89407911D01*
X102935000Y-89407911D01*
X102899068Y-89227271D01*
X102828586Y-89057111D01*
X102726262Y-88903972D01*
X102596028Y-88773738D01*
X102442889Y-88671414D01*
X102272729Y-88600932D01*
X102092089Y-88565000D01*
X101907911Y-88565000D01*
X101727271Y-88600932D01*
X101557111Y-88671414D01*
X101403972Y-88773738D01*
X101273738Y-88903972D01*
X101171414Y-89057111D01*
X101100932Y-89227271D01*
X101065000Y-89407911D01*
X87935000Y-89407911D01*
X87899068Y-89227271D01*
X87828586Y-89057111D01*
X87726262Y-88903972D01*
X87596028Y-88773738D01*
X87442889Y-88671414D01*
X87272729Y-88600932D01*
X87092089Y-88565000D01*
X86907911Y-88565000D01*
X86727271Y-88600932D01*
X86557111Y-88671414D01*
X86403972Y-88773738D01*
X86273738Y-88903972D01*
X86171414Y-89057111D01*
X86100932Y-89227271D01*
X86065000Y-89407911D01*
X50660000Y-89407911D01*
X50660000Y-55029392D01*
X50731173Y-54231917D01*
X50934656Y-53488109D01*
X51266638Y-52792095D01*
X51716626Y-52165870D01*
X52270403Y-51629223D01*
X52910451Y-51199129D01*
X53616553Y-50889171D01*
X54371457Y-50707935D01*
X55024207Y-50660000D01*
X144970608Y-50660000D01*
X145768083Y-50731173D01*
G37*
X145768083Y-50731173D02*
X146511891Y-50934656D01*
X147207905Y-51266638D01*
X147834130Y-51716626D01*
X148370777Y-52270403D01*
X148800871Y-52910451D01*
X149110829Y-53616553D01*
X149292065Y-54371457D01*
X149340000Y-55024207D01*
X149340001Y-144970597D01*
X149268827Y-145768083D01*
X149065344Y-146511890D01*
X148733363Y-147207904D01*
X148283374Y-147834130D01*
X147729597Y-148370777D01*
X147089549Y-148800871D01*
X146383447Y-149110829D01*
X145628543Y-149292065D01*
X144975793Y-149340000D01*
X55029392Y-149340000D01*
X54231917Y-149268827D01*
X53488110Y-149065344D01*
X52792096Y-148733363D01*
X52165870Y-148283374D01*
X51629223Y-147729597D01*
X51199129Y-147089549D01*
X50889171Y-146383447D01*
X50707935Y-145628543D01*
X50660000Y-144975793D01*
X50660000Y-144150000D01*
X97211928Y-144150000D01*
X97211928Y-145850000D01*
X97224188Y-145974482D01*
X97260498Y-146094180D01*
X97319463Y-146204494D01*
X97398815Y-146301185D01*
X97495506Y-146380537D01*
X97605820Y-146439502D01*
X97725518Y-146475812D01*
X97850000Y-146488072D01*
X99550000Y-146488072D01*
X99674482Y-146475812D01*
X99794180Y-146439502D01*
X99904494Y-146380537D01*
X100001185Y-146301185D01*
X100080537Y-146204494D01*
X100139502Y-146094180D01*
X100161513Y-146021620D01*
X100293368Y-146153475D01*
X100536589Y-146315990D01*
X100806842Y-146427932D01*
X101093740Y-146485000D01*
X101386260Y-146485000D01*
X101673158Y-146427932D01*
X101943411Y-146315990D01*
X102186632Y-146153475D01*
X102393475Y-145946632D01*
X102555990Y-145703411D01*
X102667932Y-145433158D01*
X102725000Y-145146260D01*
X102725000Y-144853740D01*
X102667932Y-144566842D01*
X102555990Y-144296589D01*
X102393475Y-144053368D01*
X102186632Y-143846525D01*
X101943411Y-143684010D01*
X101673158Y-143572068D01*
X101386260Y-143515000D01*
X101093740Y-143515000D01*
X100806842Y-143572068D01*
X100536589Y-143684010D01*
X100293368Y-143846525D01*
X100161513Y-143978380D01*
X100139502Y-143905820D01*
X100080537Y-143795506D01*
X100001185Y-143698815D01*
X99904494Y-143619463D01*
X99794180Y-143560498D01*
X99674482Y-143524188D01*
X99550000Y-143511928D01*
X97850000Y-143511928D01*
X97725518Y-143524188D01*
X97605820Y-143560498D01*
X97495506Y-143619463D01*
X97398815Y-143698815D01*
X97319463Y-143795506D01*
X97260498Y-143905820D01*
X97224188Y-144025518D01*
X97211928Y-144150000D01*
X50660000Y-144150000D01*
X50660000Y-136950000D01*
X92611928Y-136950000D01*
X92611928Y-138650000D01*
X92624188Y-138774482D01*
X92660498Y-138894180D01*
X92719463Y-139004494D01*
X92798815Y-139101185D01*
X92895506Y-139180537D01*
X93005820Y-139239502D01*
X93078380Y-139261513D01*
X92946525Y-139393368D01*
X92784010Y-139636589D01*
X92672068Y-139906842D01*
X92615000Y-140193740D01*
X92615000Y-140486260D01*
X92672068Y-140773158D01*
X92784010Y-141043411D01*
X92946525Y-141286632D01*
X93153368Y-141493475D01*
X93396589Y-141655990D01*
X93666842Y-141767932D01*
X93953740Y-141825000D01*
X94246260Y-141825000D01*
X94533158Y-141767932D01*
X94803411Y-141655990D01*
X95046632Y-141493475D01*
X95253475Y-141286632D01*
X95415990Y-141043411D01*
X95527932Y-140773158D01*
X95585000Y-140486260D01*
X95585000Y-140193740D01*
X95527932Y-139906842D01*
X95415990Y-139636589D01*
X95253475Y-139393368D01*
X95121620Y-139261513D01*
X95194180Y-139239502D01*
X95304494Y-139180537D01*
X95401185Y-139101185D01*
X95480537Y-139004494D01*
X95539502Y-138894180D01*
X95575812Y-138774482D01*
X95588072Y-138650000D01*
X95588072Y-137658665D01*
X96065000Y-137658665D01*
X96065000Y-137941335D01*
X96120147Y-138218574D01*
X96228320Y-138479727D01*
X96385363Y-138714759D01*
X96585241Y-138914637D01*
X96820273Y-139071680D01*
X97081426Y-139179853D01*
X97358665Y-139235000D01*
X97641335Y-139235000D01*
X97918574Y-139179853D01*
X98179727Y-139071680D01*
X98414759Y-138914637D01*
X98614637Y-138714759D01*
X98771680Y-138479727D01*
X98879853Y-138218574D01*
X98935000Y-137941335D01*
X98935000Y-137658665D01*
X101065000Y-137658665D01*
X101065000Y-137941335D01*
X101120147Y-138218574D01*
X101228320Y-138479727D01*
X101385363Y-138714759D01*
X101585241Y-138914637D01*
X101820273Y-139071680D01*
X102081426Y-139179853D01*
X102358665Y-139235000D01*
X102641335Y-139235000D01*
X102918574Y-139179853D01*
X103179727Y-139071680D01*
X103414759Y-138914637D01*
X103614637Y-138714759D01*
X103771680Y-138479727D01*
X103819242Y-138364900D01*
X138661928Y-138364900D01*
X138661928Y-138915100D01*
X138678990Y-139088335D01*
X138729521Y-139254912D01*
X138811578Y-139408431D01*
X138922009Y-139542991D01*
X139056569Y-139653422D01*
X139210088Y-139735479D01*
X139376665Y-139786010D01*
X139549900Y-139803072D01*
X140350100Y-139803072D01*
X140523335Y-139786010D01*
X140689912Y-139735479D01*
X140843431Y-139653422D01*
X140977991Y-139542991D01*
X141088422Y-139408431D01*
X141170479Y-139254912D01*
X141221010Y-139088335D01*
X141238072Y-138915100D01*
X141238072Y-138364900D01*
X141221010Y-138191665D01*
X141170479Y-138025088D01*
X141088422Y-137871569D01*
X140977991Y-137737009D01*
X140843431Y-137626578D01*
X140689912Y-137544521D01*
X140523335Y-137493990D01*
X140350100Y-137476928D01*
X139549900Y-137476928D01*
X139376665Y-137493990D01*
X139210088Y-137544521D01*
X139056569Y-137626578D01*
X138922009Y-137737009D01*
X138811578Y-137871569D01*
X138729521Y-138025088D01*
X138678990Y-138191665D01*
X138661928Y-138364900D01*
X103819242Y-138364900D01*
X103879853Y-138218574D01*
X103935000Y-137941335D01*
X103935000Y-137658665D01*
X103879853Y-137381426D01*
X103771680Y-137120273D01*
X103614637Y-136885241D01*
X103414759Y-136685363D01*
X103179727Y-136528320D01*
X102918574Y-136420147D01*
X102641335Y-136365000D01*
X102358665Y-136365000D01*
X102081426Y-136420147D01*
X101820273Y-136528320D01*
X101585241Y-136685363D01*
X101385363Y-136885241D01*
X101228320Y-137120273D01*
X101120147Y-137381426D01*
X101065000Y-137658665D01*
X98935000Y-137658665D01*
X98879853Y-137381426D01*
X98771680Y-137120273D01*
X98614637Y-136885241D01*
X98414759Y-136685363D01*
X98179727Y-136528320D01*
X97918574Y-136420147D01*
X97641335Y-136365000D01*
X97358665Y-136365000D01*
X97081426Y-136420147D01*
X96820273Y-136528320D01*
X96585241Y-136685363D01*
X96385363Y-136885241D01*
X96228320Y-137120273D01*
X96120147Y-137381426D01*
X96065000Y-137658665D01*
X95588072Y-137658665D01*
X95588072Y-136950000D01*
X95575812Y-136825518D01*
X95539502Y-136705820D01*
X95480537Y-136595506D01*
X95401185Y-136498815D01*
X95304494Y-136419463D01*
X95194180Y-136360498D01*
X95074482Y-136324188D01*
X94950000Y-136311928D01*
X93250000Y-136311928D01*
X93125518Y-136324188D01*
X93005820Y-136360498D01*
X92895506Y-136419463D01*
X92798815Y-136498815D01*
X92719463Y-136595506D01*
X92660498Y-136705820D01*
X92624188Y-136825518D01*
X92611928Y-136950000D01*
X50660000Y-136950000D01*
X50660000Y-133888675D01*
X128329700Y-133888675D01*
X128329700Y-134111325D01*
X128373137Y-134329696D01*
X128458341Y-134535398D01*
X128582039Y-134720524D01*
X128739476Y-134877961D01*
X128924602Y-135001659D01*
X129130304Y-135086863D01*
X129348675Y-135130300D01*
X129571325Y-135130300D01*
X129789696Y-135086863D01*
X129995398Y-135001659D01*
X130180524Y-134877961D01*
X130337961Y-134720524D01*
X130461659Y-134535398D01*
X130546863Y-134329696D01*
X130590300Y-134111325D01*
X130590300Y-133888675D01*
X130546863Y-133670304D01*
X130461659Y-133464602D01*
X130337961Y-133279476D01*
X130180524Y-133122039D01*
X129995398Y-132998341D01*
X129789696Y-132913137D01*
X129586282Y-132872675D01*
X133409700Y-132872675D01*
X133409700Y-133095325D01*
X133453137Y-133313696D01*
X133538341Y-133519398D01*
X133662039Y-133704524D01*
X133819476Y-133861961D01*
X134004602Y-133985659D01*
X134039224Y-134000000D01*
X134004602Y-134014341D01*
X133819476Y-134138039D01*
X133662039Y-134295476D01*
X133538341Y-134480602D01*
X133453137Y-134686304D01*
X133409700Y-134904675D01*
X133409700Y-135127325D01*
X133453137Y-135345696D01*
X133538341Y-135551398D01*
X133662039Y-135736524D01*
X133819476Y-135893961D01*
X134004602Y-136017659D01*
X134210304Y-136102863D01*
X134428675Y-136146300D01*
X134651325Y-136146300D01*
X134869696Y-136102863D01*
X134876607Y-136100000D01*
X138659388Y-136100000D01*
X138681785Y-136327400D01*
X138748115Y-136546060D01*
X138855829Y-136747579D01*
X139000788Y-136924212D01*
X139177421Y-137069171D01*
X139378940Y-137176885D01*
X139597600Y-137243215D01*
X139768021Y-137260000D01*
X140131979Y-137260000D01*
X140302400Y-137243215D01*
X140521060Y-137176885D01*
X140722579Y-137069171D01*
X140899212Y-136924212D01*
X141044171Y-136747579D01*
X141151885Y-136546060D01*
X141218215Y-136327400D01*
X141240612Y-136100000D01*
X141218215Y-135872600D01*
X141151885Y-135653940D01*
X141044171Y-135452421D01*
X140899212Y-135275788D01*
X140722579Y-135130829D01*
X140521060Y-135023115D01*
X140302400Y-134956785D01*
X140131979Y-134940000D01*
X139768021Y-134940000D01*
X139597600Y-134956785D01*
X139378940Y-135023115D01*
X139177421Y-135130829D01*
X139000788Y-135275788D01*
X138855829Y-135452421D01*
X138748115Y-135653940D01*
X138681785Y-135872600D01*
X138659388Y-136100000D01*
X134876607Y-136100000D01*
X135075398Y-136017659D01*
X135260524Y-135893961D01*
X135417961Y-135736524D01*
X135541659Y-135551398D01*
X135626863Y-135345696D01*
X135670300Y-135127325D01*
X135670300Y-134904675D01*
X135626863Y-134686304D01*
X135541659Y-134480602D01*
X135417961Y-134295476D01*
X135260524Y-134138039D01*
X135075398Y-134014341D01*
X135040776Y-134000000D01*
X135075398Y-133985659D01*
X135260524Y-133861961D01*
X135417961Y-133704524D01*
X135541659Y-133519398D01*
X135626863Y-133313696D01*
X135670300Y-133095325D01*
X135670300Y-132872675D01*
X135626863Y-132654304D01*
X135541659Y-132448602D01*
X135417961Y-132263476D01*
X135260524Y-132106039D01*
X135075398Y-131982341D01*
X134869696Y-131897137D01*
X134651325Y-131853700D01*
X134428675Y-131853700D01*
X134210304Y-131897137D01*
X134004602Y-131982341D01*
X133819476Y-132106039D01*
X133662039Y-132263476D01*
X133538341Y-132448602D01*
X133453137Y-132654304D01*
X133409700Y-132872675D01*
X129586282Y-132872675D01*
X129571325Y-132869700D01*
X129348675Y-132869700D01*
X129130304Y-132913137D01*
X128924602Y-132998341D01*
X128739476Y-133122039D01*
X128582039Y-133279476D01*
X128458341Y-133464602D01*
X128373137Y-133670304D01*
X128329700Y-133888675D01*
X50660000Y-133888675D01*
X50660000Y-127253740D01*
X105095000Y-127253740D01*
X105095000Y-127546260D01*
X105152068Y-127833158D01*
X105264010Y-128103411D01*
X105426525Y-128346632D01*
X105633368Y-128553475D01*
X105876589Y-128715990D01*
X106146842Y-128827932D01*
X106433740Y-128885000D01*
X106726260Y-128885000D01*
X107013158Y-128827932D01*
X107283411Y-128715990D01*
X107526632Y-128553475D01*
X107733475Y-128346632D01*
X107850000Y-128172240D01*
X107966525Y-128346632D01*
X108173368Y-128553475D01*
X108416589Y-128715990D01*
X108686842Y-128827932D01*
X108973740Y-128885000D01*
X109266260Y-128885000D01*
X109553158Y-128827932D01*
X109823411Y-128715990D01*
X110066632Y-128553475D01*
X110273475Y-128346632D01*
X110390000Y-128172240D01*
X110506525Y-128346632D01*
X110713368Y-128553475D01*
X110956589Y-128715990D01*
X111226842Y-128827932D01*
X111513740Y-128885000D01*
X111806260Y-128885000D01*
X112093158Y-128827932D01*
X112363411Y-128715990D01*
X112606632Y-128553475D01*
X112813475Y-128346632D01*
X112975990Y-128103411D01*
X113087932Y-127833158D01*
X113145000Y-127546260D01*
X113145000Y-127253740D01*
X113087932Y-126966842D01*
X112975990Y-126696589D01*
X112813475Y-126453368D01*
X112606632Y-126246525D01*
X112363411Y-126084010D01*
X112093158Y-125972068D01*
X111806260Y-125915000D01*
X111513740Y-125915000D01*
X111226842Y-125972068D01*
X110956589Y-126084010D01*
X110713368Y-126246525D01*
X110506525Y-126453368D01*
X110390000Y-126627760D01*
X110273475Y-126453368D01*
X110066632Y-126246525D01*
X109823411Y-126084010D01*
X109553158Y-125972068D01*
X109266260Y-125915000D01*
X108973740Y-125915000D01*
X108686842Y-125972068D01*
X108416589Y-126084010D01*
X108173368Y-126246525D01*
X107966525Y-126453368D01*
X107850000Y-126627760D01*
X107733475Y-126453368D01*
X107526632Y-126246525D01*
X107283411Y-126084010D01*
X107013158Y-125972068D01*
X106726260Y-125915000D01*
X106433740Y-125915000D01*
X106146842Y-125972068D01*
X105876589Y-126084010D01*
X105633368Y-126246525D01*
X105426525Y-126453368D01*
X105264010Y-126696589D01*
X105152068Y-126966842D01*
X105095000Y-127253740D01*
X50660000Y-127253740D01*
X50660000Y-117607911D01*
X114165000Y-117607911D01*
X114165000Y-117792089D01*
X114200932Y-117972729D01*
X114271414Y-118142889D01*
X114373738Y-118296028D01*
X114503972Y-118426262D01*
X114657111Y-118528586D01*
X114827271Y-118599068D01*
X115007911Y-118635000D01*
X115192089Y-118635000D01*
X115372729Y-118599068D01*
X115542889Y-118528586D01*
X115696028Y-118426262D01*
X115826262Y-118296028D01*
X115928586Y-118142889D01*
X115999068Y-117972729D01*
X116035000Y-117792089D01*
X116035000Y-117770787D01*
X117345789Y-116460000D01*
X117367089Y-116460000D01*
X117547729Y-116424068D01*
X117717889Y-116353586D01*
X117871028Y-116251262D01*
X118001262Y-116121028D01*
X118103586Y-115967889D01*
X118174068Y-115797729D01*
X118210000Y-115617089D01*
X118210000Y-115432911D01*
X118174068Y-115252271D01*
X118103586Y-115082111D01*
X118001262Y-114928972D01*
X117871028Y-114798738D01*
X117717889Y-114696414D01*
X117547729Y-114625932D01*
X117367089Y-114590000D01*
X117182911Y-114590000D01*
X117002271Y-114625932D01*
X116832111Y-114696414D01*
X116678972Y-114798738D01*
X116548738Y-114928972D01*
X116446414Y-115082111D01*
X116375932Y-115252271D01*
X116340000Y-115432911D01*
X116340000Y-115454211D01*
X115029213Y-116765000D01*
X115007911Y-116765000D01*
X114827271Y-116800932D01*
X114657111Y-116871414D01*
X114503972Y-116973738D01*
X114373738Y-117103972D01*
X114271414Y-117257111D01*
X114200932Y-117427271D01*
X114165000Y-117607911D01*
X50660000Y-117607911D01*
X50660000Y-112882911D01*
X104465000Y-112882911D01*
X104465000Y-113067089D01*
X104500932Y-113247729D01*
X104571414Y-113417889D01*
X104638000Y-113517542D01*
X104638001Y-115907457D01*
X104571414Y-116007111D01*
X104500932Y-116177271D01*
X104465000Y-116357911D01*
X104465000Y-116542089D01*
X104500932Y-116722729D01*
X104571414Y-116892889D01*
X104673738Y-117046028D01*
X104803972Y-117176262D01*
X104957111Y-117278586D01*
X105127271Y-117349068D01*
X105307911Y-117385000D01*
X105492089Y-117385000D01*
X105672729Y-117349068D01*
X105842889Y-117278586D01*
X105996028Y-117176262D01*
X106126262Y-117046028D01*
X106228586Y-116892889D01*
X106299068Y-116722729D01*
X106335000Y-116542089D01*
X106335000Y-116357911D01*
X106299068Y-116177271D01*
X106228586Y-116007111D01*
X106162000Y-115907458D01*
X106162000Y-113832911D01*
X122590000Y-113832911D01*
X122590000Y-114017089D01*
X122625932Y-114197729D01*
X122696414Y-114367889D01*
X122798738Y-114521028D01*
X122813800Y-114536090D01*
X122813801Y-120560064D01*
X122810360Y-120595000D01*
X122824092Y-120734419D01*
X122864759Y-120868481D01*
X122903297Y-120940580D01*
X122930799Y-120992033D01*
X123019674Y-121100327D01*
X123046809Y-121122596D01*
X123482406Y-121558195D01*
X123504673Y-121585327D01*
X123531804Y-121607593D01*
X123531809Y-121607598D01*
X123612967Y-121674202D01*
X123736518Y-121740242D01*
X123870580Y-121780909D01*
X123975064Y-121791200D01*
X123975071Y-121791200D01*
X124010000Y-121794640D01*
X124044928Y-121791200D01*
X126055412Y-121791200D01*
X126488800Y-122224589D01*
X126488800Y-122313910D01*
X126473738Y-122328972D01*
X126371414Y-122482111D01*
X126300932Y-122652271D01*
X126265000Y-122832911D01*
X126265000Y-123017089D01*
X126300932Y-123197729D01*
X126371414Y-123367889D01*
X126473738Y-123521028D01*
X126603972Y-123651262D01*
X126757111Y-123753586D01*
X126927271Y-123824068D01*
X127107911Y-123860000D01*
X127292089Y-123860000D01*
X127472729Y-123824068D01*
X127642889Y-123753586D01*
X127796028Y-123651262D01*
X127926262Y-123521028D01*
X128028586Y-123367889D01*
X128085701Y-123230000D01*
X132511928Y-123230000D01*
X132511928Y-124930000D01*
X132524188Y-125054482D01*
X132560498Y-125174180D01*
X132619463Y-125284494D01*
X132698815Y-125381185D01*
X132795506Y-125460537D01*
X132905820Y-125519502D01*
X133025518Y-125555812D01*
X133150000Y-125568072D01*
X134850000Y-125568072D01*
X134974482Y-125555812D01*
X135094180Y-125519502D01*
X135204494Y-125460537D01*
X135301185Y-125381185D01*
X135380537Y-125284494D01*
X135439502Y-125174180D01*
X135475812Y-125054482D01*
X135488072Y-124930000D01*
X135488072Y-123230000D01*
X135475812Y-123105518D01*
X135439502Y-122985820D01*
X135380537Y-122875506D01*
X135301185Y-122778815D01*
X135204494Y-122699463D01*
X135094180Y-122640498D01*
X135021620Y-122618487D01*
X135153475Y-122486632D01*
X135315990Y-122243411D01*
X135427932Y-121973158D01*
X135485000Y-121686260D01*
X135485000Y-121393740D01*
X135427932Y-121106842D01*
X135315990Y-120836589D01*
X135153475Y-120593368D01*
X134946632Y-120386525D01*
X134772240Y-120270000D01*
X134946632Y-120153475D01*
X135153475Y-119946632D01*
X135315990Y-119703411D01*
X135427932Y-119433158D01*
X135485000Y-119146260D01*
X135485000Y-118853740D01*
X135427932Y-118566842D01*
X135315990Y-118296589D01*
X135153475Y-118053368D01*
X134946632Y-117846525D01*
X134772240Y-117730000D01*
X134946632Y-117613475D01*
X135153475Y-117406632D01*
X135315990Y-117163411D01*
X135427932Y-116893158D01*
X135485000Y-116606260D01*
X135485000Y-116313740D01*
X135427932Y-116026842D01*
X135315990Y-115756589D01*
X135153475Y-115513368D01*
X134946632Y-115306525D01*
X134703411Y-115144010D01*
X134433158Y-115032068D01*
X134146260Y-114975000D01*
X133853740Y-114975000D01*
X133566842Y-115032068D01*
X133296589Y-115144010D01*
X133053368Y-115306525D01*
X132846525Y-115513368D01*
X132684010Y-115756589D01*
X132572068Y-116026842D01*
X132515000Y-116313740D01*
X132515000Y-116606260D01*
X132572068Y-116893158D01*
X132684010Y-117163411D01*
X132846525Y-117406632D01*
X133053368Y-117613475D01*
X133227760Y-117730000D01*
X133053368Y-117846525D01*
X132846525Y-118053368D01*
X132684010Y-118296589D01*
X132572068Y-118566842D01*
X132515000Y-118853740D01*
X132515000Y-119146260D01*
X132572068Y-119433158D01*
X132684010Y-119703411D01*
X132846525Y-119946632D01*
X133053368Y-120153475D01*
X133227760Y-120270000D01*
X133053368Y-120386525D01*
X132846525Y-120593368D01*
X132684010Y-120836589D01*
X132572068Y-121106842D01*
X132515000Y-121393740D01*
X132515000Y-121686260D01*
X132572068Y-121973158D01*
X132684010Y-122243411D01*
X132846525Y-122486632D01*
X132978380Y-122618487D01*
X132905820Y-122640498D01*
X132795506Y-122699463D01*
X132698815Y-122778815D01*
X132619463Y-122875506D01*
X132560498Y-122985820D01*
X132524188Y-123105518D01*
X132511928Y-123230000D01*
X128085701Y-123230000D01*
X128099068Y-123197729D01*
X128135000Y-123017089D01*
X128135000Y-122832911D01*
X128099068Y-122652271D01*
X128028586Y-122482111D01*
X127926262Y-122328972D01*
X127911200Y-122313910D01*
X127911200Y-121964928D01*
X127914640Y-121930000D01*
X127911200Y-121895071D01*
X127911200Y-121895064D01*
X127900909Y-121790580D01*
X127860242Y-121656519D01*
X127794202Y-121532967D01*
X127727598Y-121451809D01*
X127727588Y-121451799D01*
X127705326Y-121424673D01*
X127678200Y-121402411D01*
X126877601Y-120601814D01*
X126855327Y-120574673D01*
X126747033Y-120485798D01*
X126623481Y-120419758D01*
X126489420Y-120379091D01*
X126384936Y-120368800D01*
X126384926Y-120368800D01*
X126350000Y-120365360D01*
X126315074Y-120368800D01*
X124304588Y-120368800D01*
X124236200Y-120300412D01*
X124236200Y-114536090D01*
X124251262Y-114521028D01*
X124353586Y-114367889D01*
X124424068Y-114197729D01*
X124460000Y-114017089D01*
X124460000Y-113832911D01*
X124424068Y-113652271D01*
X124353586Y-113482111D01*
X124251262Y-113328972D01*
X124121028Y-113198738D01*
X123967889Y-113096414D01*
X123797729Y-113025932D01*
X123617089Y-112990000D01*
X123432911Y-112990000D01*
X123252271Y-113025932D01*
X123082111Y-113096414D01*
X122928972Y-113198738D01*
X122798738Y-113328972D01*
X122696414Y-113482111D01*
X122625932Y-113652271D01*
X122590000Y-113832911D01*
X106162000Y-113832911D01*
X106162000Y-113517542D01*
X106228586Y-113417889D01*
X106299068Y-113247729D01*
X106335000Y-113067089D01*
X106335000Y-112882911D01*
X106299068Y-112702271D01*
X106228586Y-112532111D01*
X106126262Y-112378972D01*
X105996028Y-112248738D01*
X105842889Y-112146414D01*
X105672729Y-112075932D01*
X105492089Y-112040000D01*
X105307911Y-112040000D01*
X105127271Y-112075932D01*
X104957111Y-112146414D01*
X104803972Y-112248738D01*
X104673738Y-112378972D01*
X104571414Y-112532111D01*
X104500932Y-112702271D01*
X104465000Y-112882911D01*
X50660000Y-112882911D01*
X50660000Y-97807911D01*
X60165000Y-97807911D01*
X60165000Y-97992089D01*
X60200932Y-98172729D01*
X60271414Y-98342889D01*
X60373738Y-98496028D01*
X60503972Y-98626262D01*
X60657111Y-98728586D01*
X60827271Y-98799068D01*
X61007911Y-98835000D01*
X61192089Y-98835000D01*
X61372729Y-98799068D01*
X61542889Y-98728586D01*
X61696028Y-98626262D01*
X61711090Y-98611200D01*
X75488910Y-98611200D01*
X75503972Y-98626262D01*
X75657111Y-98728586D01*
X75827271Y-98799068D01*
X76007911Y-98835000D01*
X76192089Y-98835000D01*
X76372729Y-98799068D01*
X76542889Y-98728586D01*
X76696028Y-98626262D01*
X76711090Y-98611200D01*
X90488910Y-98611200D01*
X90503972Y-98626262D01*
X90657111Y-98728586D01*
X90827271Y-98799068D01*
X91007911Y-98835000D01*
X91192089Y-98835000D01*
X91372729Y-98799068D01*
X91542889Y-98728586D01*
X91696028Y-98626262D01*
X91711090Y-98611200D01*
X105513910Y-98611200D01*
X105518972Y-98616262D01*
X105672111Y-98718586D01*
X105842271Y-98789068D01*
X106022911Y-98825000D01*
X106207089Y-98825000D01*
X106387729Y-98789068D01*
X106557889Y-98718586D01*
X106711028Y-98616262D01*
X106716090Y-98611200D01*
X120488910Y-98611200D01*
X120503972Y-98626262D01*
X120657111Y-98728586D01*
X120827271Y-98799068D01*
X121007911Y-98835000D01*
X121192089Y-98835000D01*
X121372729Y-98799068D01*
X121542889Y-98728586D01*
X121696028Y-98626262D01*
X121826262Y-98496028D01*
X121928586Y-98342889D01*
X121999068Y-98172729D01*
X122035000Y-97992089D01*
X122035000Y-97807911D01*
X121999068Y-97627271D01*
X121928586Y-97457111D01*
X121910451Y-97429969D01*
X122077271Y-97499068D01*
X122257911Y-97535000D01*
X122442089Y-97535000D01*
X122622729Y-97499068D01*
X122792889Y-97428586D01*
X122946028Y-97326262D01*
X123076262Y-97196028D01*
X123178586Y-97042889D01*
X123249068Y-96872729D01*
X123285000Y-96692089D01*
X123285000Y-96507911D01*
X123249068Y-96327271D01*
X123179969Y-96160451D01*
X123207111Y-96178586D01*
X123377271Y-96249068D01*
X123557911Y-96285000D01*
X123742089Y-96285000D01*
X123922729Y-96249068D01*
X124092889Y-96178586D01*
X124246028Y-96076262D01*
X124376262Y-95946028D01*
X124478586Y-95792889D01*
X124549068Y-95622729D01*
X124585000Y-95442089D01*
X124585000Y-95257911D01*
X124549068Y-95077271D01*
X124478586Y-94907111D01*
X124376262Y-94753972D01*
X124246028Y-94623738D01*
X124092889Y-94521414D01*
X123922729Y-94450932D01*
X123742089Y-94415000D01*
X123557911Y-94415000D01*
X123377271Y-94450932D01*
X123207111Y-94521414D01*
X123053972Y-94623738D01*
X123038910Y-94638800D01*
X109236090Y-94638800D01*
X109221028Y-94623738D01*
X109067889Y-94521414D01*
X108897729Y-94450932D01*
X108717089Y-94415000D01*
X108532911Y-94415000D01*
X108352271Y-94450932D01*
X108182111Y-94521414D01*
X108028972Y-94623738D01*
X108013910Y-94638800D01*
X94236090Y-94638800D01*
X94221028Y-94623738D01*
X94067889Y-94521414D01*
X93897729Y-94450932D01*
X93717089Y-94415000D01*
X93532911Y-94415000D01*
X93352271Y-94450932D01*
X93182111Y-94521414D01*
X93028972Y-94623738D01*
X93013910Y-94638800D01*
X79236090Y-94638800D01*
X79221028Y-94623738D01*
X79067889Y-94521414D01*
X78897729Y-94450932D01*
X78717089Y-94415000D01*
X78532911Y-94415000D01*
X78352271Y-94450932D01*
X78182111Y-94521414D01*
X78028972Y-94623738D01*
X78013910Y-94638800D01*
X64261090Y-94638800D01*
X64246028Y-94623738D01*
X64092889Y-94521414D01*
X63922729Y-94450932D01*
X63742089Y-94415000D01*
X63557911Y-94415000D01*
X63377271Y-94450932D01*
X63207111Y-94521414D01*
X63053972Y-94623738D01*
X62923738Y-94753972D01*
X62821414Y-94907111D01*
X62750932Y-95077271D01*
X62715000Y-95257911D01*
X62715000Y-95442089D01*
X62750932Y-95622729D01*
X62820031Y-95789549D01*
X62792889Y-95771414D01*
X62622729Y-95700932D01*
X62442089Y-95665000D01*
X62257911Y-95665000D01*
X62077271Y-95700932D01*
X61907111Y-95771414D01*
X61753972Y-95873738D01*
X61623738Y-96003972D01*
X61521414Y-96157111D01*
X61450932Y-96327271D01*
X61415000Y-96507911D01*
X61415000Y-96692089D01*
X61450932Y-96872729D01*
X61521414Y-97042889D01*
X61539549Y-97070031D01*
X61372729Y-97000932D01*
X61192089Y-96965000D01*
X61007911Y-96965000D01*
X60827271Y-97000932D01*
X60657111Y-97071414D01*
X60503972Y-97173738D01*
X60373738Y-97303972D01*
X60271414Y-97457111D01*
X60200932Y-97627271D01*
X60165000Y-97807911D01*
X50660000Y-97807911D01*
X50660000Y-89407911D01*
X86065000Y-89407911D01*
X86065000Y-89592089D01*
X86100932Y-89772729D01*
X86171414Y-89942889D01*
X86238001Y-90042543D01*
X86238000Y-91957458D01*
X86171414Y-92057111D01*
X86100932Y-92227271D01*
X86065000Y-92407911D01*
X86065000Y-92592089D01*
X86100932Y-92772729D01*
X86171414Y-92942889D01*
X86273738Y-93096028D01*
X86403972Y-93226262D01*
X86557111Y-93328586D01*
X86727271Y-93399068D01*
X86907911Y-93435000D01*
X87092089Y-93435000D01*
X87272729Y-93399068D01*
X87442889Y-93328586D01*
X87596028Y-93226262D01*
X87726262Y-93096028D01*
X87828586Y-92942889D01*
X87899068Y-92772729D01*
X87935000Y-92592089D01*
X87935000Y-92407911D01*
X87899068Y-92227271D01*
X87828586Y-92057111D01*
X87762000Y-91957458D01*
X87762000Y-90042542D01*
X87828586Y-89942889D01*
X87899068Y-89772729D01*
X87935000Y-89592089D01*
X87935000Y-89407911D01*
X101065000Y-89407911D01*
X101065000Y-89592089D01*
X101100932Y-89772729D01*
X101171414Y-89942889D01*
X101238001Y-90042543D01*
X101238000Y-91957458D01*
X101171414Y-92057111D01*
X101100932Y-92227271D01*
X101065000Y-92407911D01*
X101065000Y-92592089D01*
X101100932Y-92772729D01*
X101171414Y-92942889D01*
X101273738Y-93096028D01*
X101403972Y-93226262D01*
X101557111Y-93328586D01*
X101727271Y-93399068D01*
X101907911Y-93435000D01*
X102092089Y-93435000D01*
X102272729Y-93399068D01*
X102442889Y-93328586D01*
X102596028Y-93226262D01*
X102726262Y-93096028D01*
X102828586Y-92942889D01*
X102899068Y-92772729D01*
X102935000Y-92592089D01*
X102935000Y-92407911D01*
X102899068Y-92227271D01*
X102828586Y-92057111D01*
X102762000Y-91957458D01*
X102762000Y-90042542D01*
X102828586Y-89942889D01*
X102899068Y-89772729D01*
X102935000Y-89592089D01*
X102935000Y-89407911D01*
X116065000Y-89407911D01*
X116065000Y-89592089D01*
X116100932Y-89772729D01*
X116171414Y-89942889D01*
X116238001Y-90042543D01*
X116238000Y-91957458D01*
X116171414Y-92057111D01*
X116100932Y-92227271D01*
X116065000Y-92407911D01*
X116065000Y-92592089D01*
X116100932Y-92772729D01*
X116171414Y-92942889D01*
X116273738Y-93096028D01*
X116403972Y-93226262D01*
X116557111Y-93328586D01*
X116727271Y-93399068D01*
X116907911Y-93435000D01*
X117092089Y-93435000D01*
X117272729Y-93399068D01*
X117442889Y-93328586D01*
X117596028Y-93226262D01*
X117726262Y-93096028D01*
X117828586Y-92942889D01*
X117899068Y-92772729D01*
X117935000Y-92592089D01*
X117935000Y-92407911D01*
X117899068Y-92227271D01*
X117828586Y-92057111D01*
X117762000Y-91957458D01*
X117762000Y-90042542D01*
X117828586Y-89942889D01*
X117899068Y-89772729D01*
X117935000Y-89592089D01*
X117935000Y-89407911D01*
X131065000Y-89407911D01*
X131065000Y-89592089D01*
X131100932Y-89772729D01*
X131171414Y-89942889D01*
X131238001Y-90042543D01*
X131238000Y-91957458D01*
X131171414Y-92057111D01*
X131100932Y-92227271D01*
X131065000Y-92407911D01*
X131065000Y-92592089D01*
X131100932Y-92772729D01*
X131171414Y-92942889D01*
X131273738Y-93096028D01*
X131403972Y-93226262D01*
X131557111Y-93328586D01*
X131727271Y-93399068D01*
X131907911Y-93435000D01*
X132092089Y-93435000D01*
X132272729Y-93399068D01*
X132442889Y-93328586D01*
X132596028Y-93226262D01*
X132726262Y-93096028D01*
X132828586Y-92942889D01*
X132899068Y-92772729D01*
X132935000Y-92592089D01*
X132935000Y-92407911D01*
X132899068Y-92227271D01*
X132828586Y-92057111D01*
X132762000Y-91957458D01*
X132762000Y-90042542D01*
X132828586Y-89942889D01*
X132899068Y-89772729D01*
X132935000Y-89592089D01*
X132935000Y-89407911D01*
X132899068Y-89227271D01*
X132828586Y-89057111D01*
X132726262Y-88903972D01*
X132596028Y-88773738D01*
X132442889Y-88671414D01*
X132272729Y-88600932D01*
X132092089Y-88565000D01*
X131907911Y-88565000D01*
X131727271Y-88600932D01*
X131557111Y-88671414D01*
X131403972Y-88773738D01*
X131273738Y-88903972D01*
X131171414Y-89057111D01*
X131100932Y-89227271D01*
X131065000Y-89407911D01*
X117935000Y-89407911D01*
X117899068Y-89227271D01*
X117828586Y-89057111D01*
X117726262Y-88903972D01*
X117596028Y-88773738D01*
X117442889Y-88671414D01*
X117272729Y-88600932D01*
X117092089Y-88565000D01*
X116907911Y-88565000D01*
X116727271Y-88600932D01*
X116557111Y-88671414D01*
X116403972Y-88773738D01*
X116273738Y-88903972D01*
X116171414Y-89057111D01*
X116100932Y-89227271D01*
X116065000Y-89407911D01*
X102935000Y-89407911D01*
X102899068Y-89227271D01*
X102828586Y-89057111D01*
X102726262Y-88903972D01*
X102596028Y-88773738D01*
X102442889Y-88671414D01*
X102272729Y-88600932D01*
X102092089Y-88565000D01*
X101907911Y-88565000D01*
X101727271Y-88600932D01*
X101557111Y-88671414D01*
X101403972Y-88773738D01*
X101273738Y-88903972D01*
X101171414Y-89057111D01*
X101100932Y-89227271D01*
X101065000Y-89407911D01*
X87935000Y-89407911D01*
X87899068Y-89227271D01*
X87828586Y-89057111D01*
X87726262Y-88903972D01*
X87596028Y-88773738D01*
X87442889Y-88671414D01*
X87272729Y-88600932D01*
X87092089Y-88565000D01*
X86907911Y-88565000D01*
X86727271Y-88600932D01*
X86557111Y-88671414D01*
X86403972Y-88773738D01*
X86273738Y-88903972D01*
X86171414Y-89057111D01*
X86100932Y-89227271D01*
X86065000Y-89407911D01*
X50660000Y-89407911D01*
X50660000Y-55029392D01*
X50731173Y-54231917D01*
X50934656Y-53488109D01*
X51266638Y-52792095D01*
X51716626Y-52165870D01*
X52270403Y-51629223D01*
X52910451Y-51199129D01*
X53616553Y-50889171D01*
X54371457Y-50707935D01*
X55024207Y-50660000D01*
X144970608Y-50660000D01*
X145768083Y-50731173D01*
%TD*%
M02*
