%TF.GenerationSoftware,KiCad,Pcbnew,(5.1.6)-1*%
%TF.CreationDate,2021-07-30T18:23:22-07:00*%
%TF.ProjectId,WPT Receiver,57505420-5265-4636-9569-7665722e6b69,rev?*%
%TF.SameCoordinates,Original*%
%TF.FileFunction,Paste,Top*%
%TF.FilePolarity,Positive*%
%FSLAX46Y46*%
G04 Gerber Fmt 4.6, Leading zero omitted, Abs format (unit mm)*
G04 Created by KiCad (PCBNEW (5.1.6)-1) date 2021-07-30 18:23:22*
%MOMM*%
%LPD*%
G01*
G04 APERTURE LIST*
%ADD10C,0.100000*%
%ADD11R,2.400000X2.000000*%
%ADD12R,1.060000X0.650000*%
%ADD13R,1.550000X1.000000*%
%ADD14R,2.500000X1.800000*%
%ADD15R,1.200000X0.900000*%
%ADD16R,0.600000X0.450000*%
G04 APERTURE END LIST*
%TO.C,R61*%
G36*
G01*
X143130000Y-115256250D02*
X143130000Y-114743750D01*
G75*
G02*
X143348750Y-114525000I218750J0D01*
G01*
X143786250Y-114525000D01*
G75*
G02*
X144005000Y-114743750I0J-218750D01*
G01*
X144005000Y-115256250D01*
G75*
G02*
X143786250Y-115475000I-218750J0D01*
G01*
X143348750Y-115475000D01*
G75*
G02*
X143130000Y-115256250I0J218750D01*
G01*
G37*
G36*
G01*
X141555000Y-115256250D02*
X141555000Y-114743750D01*
G75*
G02*
X141773750Y-114525000I218750J0D01*
G01*
X142211250Y-114525000D01*
G75*
G02*
X142430000Y-114743750I0J-218750D01*
G01*
X142430000Y-115256250D01*
G75*
G02*
X142211250Y-115475000I-218750J0D01*
G01*
X141773750Y-115475000D01*
G75*
G02*
X141555000Y-115256250I0J218750D01*
G01*
G37*
%TD*%
%TO.C,R60*%
G36*
G01*
X143130000Y-119256250D02*
X143130000Y-118743750D01*
G75*
G02*
X143348750Y-118525000I218750J0D01*
G01*
X143786250Y-118525000D01*
G75*
G02*
X144005000Y-118743750I0J-218750D01*
G01*
X144005000Y-119256250D01*
G75*
G02*
X143786250Y-119475000I-218750J0D01*
G01*
X143348750Y-119475000D01*
G75*
G02*
X143130000Y-119256250I0J218750D01*
G01*
G37*
G36*
G01*
X141555000Y-119256250D02*
X141555000Y-118743750D01*
G75*
G02*
X141773750Y-118525000I218750J0D01*
G01*
X142211250Y-118525000D01*
G75*
G02*
X142430000Y-118743750I0J-218750D01*
G01*
X142430000Y-119256250D01*
G75*
G02*
X142211250Y-119475000I-218750J0D01*
G01*
X141773750Y-119475000D01*
G75*
G02*
X141555000Y-119256250I0J218750D01*
G01*
G37*
%TD*%
%TO.C,R59*%
G36*
G01*
X143130000Y-123256250D02*
X143130000Y-122743750D01*
G75*
G02*
X143348750Y-122525000I218750J0D01*
G01*
X143786250Y-122525000D01*
G75*
G02*
X144005000Y-122743750I0J-218750D01*
G01*
X144005000Y-123256250D01*
G75*
G02*
X143786250Y-123475000I-218750J0D01*
G01*
X143348750Y-123475000D01*
G75*
G02*
X143130000Y-123256250I0J218750D01*
G01*
G37*
G36*
G01*
X141555000Y-123256250D02*
X141555000Y-122743750D01*
G75*
G02*
X141773750Y-122525000I218750J0D01*
G01*
X142211250Y-122525000D01*
G75*
G02*
X142430000Y-122743750I0J-218750D01*
G01*
X142430000Y-123256250D01*
G75*
G02*
X142211250Y-123475000I-218750J0D01*
G01*
X141773750Y-123475000D01*
G75*
G02*
X141555000Y-123256250I0J218750D01*
G01*
G37*
%TD*%
%TO.C,D50*%
G36*
G01*
X138800000Y-114787500D02*
X138800000Y-115212500D01*
G75*
G02*
X138587500Y-115425000I-212500J0D01*
G01*
X137787500Y-115425000D01*
G75*
G02*
X137575000Y-115212500I0J212500D01*
G01*
X137575000Y-114787500D01*
G75*
G02*
X137787500Y-114575000I212500J0D01*
G01*
X138587500Y-114575000D01*
G75*
G02*
X138800000Y-114787500I0J-212500D01*
G01*
G37*
G36*
G01*
X140425000Y-114787500D02*
X140425000Y-115212500D01*
G75*
G02*
X140212500Y-115425000I-212500J0D01*
G01*
X139412500Y-115425000D01*
G75*
G02*
X139200000Y-115212500I0J212500D01*
G01*
X139200000Y-114787500D01*
G75*
G02*
X139412500Y-114575000I212500J0D01*
G01*
X140212500Y-114575000D01*
G75*
G02*
X140425000Y-114787500I0J-212500D01*
G01*
G37*
%TD*%
%TO.C,D49*%
G36*
G01*
X138800000Y-118787500D02*
X138800000Y-119212500D01*
G75*
G02*
X138587500Y-119425000I-212500J0D01*
G01*
X137787500Y-119425000D01*
G75*
G02*
X137575000Y-119212500I0J212500D01*
G01*
X137575000Y-118787500D01*
G75*
G02*
X137787500Y-118575000I212500J0D01*
G01*
X138587500Y-118575000D01*
G75*
G02*
X138800000Y-118787500I0J-212500D01*
G01*
G37*
G36*
G01*
X140425000Y-118787500D02*
X140425000Y-119212500D01*
G75*
G02*
X140212500Y-119425000I-212500J0D01*
G01*
X139412500Y-119425000D01*
G75*
G02*
X139200000Y-119212500I0J212500D01*
G01*
X139200000Y-118787500D01*
G75*
G02*
X139412500Y-118575000I212500J0D01*
G01*
X140212500Y-118575000D01*
G75*
G02*
X140425000Y-118787500I0J-212500D01*
G01*
G37*
%TD*%
%TO.C,D48*%
G36*
G01*
X138800000Y-122787500D02*
X138800000Y-123212500D01*
G75*
G02*
X138587500Y-123425000I-212500J0D01*
G01*
X137787500Y-123425000D01*
G75*
G02*
X137575000Y-123212500I0J212500D01*
G01*
X137575000Y-122787500D01*
G75*
G02*
X137787500Y-122575000I212500J0D01*
G01*
X138587500Y-122575000D01*
G75*
G02*
X138800000Y-122787500I0J-212500D01*
G01*
G37*
G36*
G01*
X140425000Y-122787500D02*
X140425000Y-123212500D01*
G75*
G02*
X140212500Y-123425000I-212500J0D01*
G01*
X139412500Y-123425000D01*
G75*
G02*
X139200000Y-123212500I0J212500D01*
G01*
X139200000Y-122787500D01*
G75*
G02*
X139412500Y-122575000I212500J0D01*
G01*
X140212500Y-122575000D01*
G75*
G02*
X140425000Y-122787500I0J-212500D01*
G01*
G37*
%TD*%
%TO.C,R58*%
G36*
G01*
X119343750Y-122837500D02*
X119856250Y-122837500D01*
G75*
G02*
X120075000Y-123056250I0J-218750D01*
G01*
X120075000Y-123493750D01*
G75*
G02*
X119856250Y-123712500I-218750J0D01*
G01*
X119343750Y-123712500D01*
G75*
G02*
X119125000Y-123493750I0J218750D01*
G01*
X119125000Y-123056250D01*
G75*
G02*
X119343750Y-122837500I218750J0D01*
G01*
G37*
G36*
G01*
X119343750Y-121262500D02*
X119856250Y-121262500D01*
G75*
G02*
X120075000Y-121481250I0J-218750D01*
G01*
X120075000Y-121918750D01*
G75*
G02*
X119856250Y-122137500I-218750J0D01*
G01*
X119343750Y-122137500D01*
G75*
G02*
X119125000Y-121918750I0J218750D01*
G01*
X119125000Y-121481250D01*
G75*
G02*
X119343750Y-121262500I218750J0D01*
G01*
G37*
%TD*%
D10*
%TO.C,L2*%
G36*
X66497522Y-123962456D02*
G01*
X66495140Y-123961733D01*
X66492944Y-123960560D01*
X66491020Y-123958980D01*
X66489440Y-123957056D01*
X66488267Y-123954860D01*
X66487544Y-123952478D01*
X66487300Y-123950000D01*
X66487300Y-121950000D01*
X66487544Y-121947522D01*
X66488267Y-121945140D01*
X66489440Y-121942944D01*
X66491020Y-121941020D01*
X66492944Y-121939440D01*
X66495140Y-121938267D01*
X66497522Y-121937544D01*
X66500000Y-121937300D01*
X67500000Y-121937300D01*
X67502478Y-121937544D01*
X67504860Y-121938267D01*
X67507056Y-121939440D01*
X67508980Y-121941020D01*
X67510560Y-121942944D01*
X67511359Y-121944320D01*
X67660438Y-122242478D01*
X68157135Y-122739175D01*
X68653051Y-122937542D01*
X69150000Y-122987237D01*
X69646949Y-122937542D01*
X70142865Y-122739175D01*
X70639562Y-122242478D01*
X70788641Y-121944320D01*
X70789967Y-121942213D01*
X70791679Y-121940406D01*
X70793711Y-121938967D01*
X70795984Y-121937952D01*
X70798412Y-121937400D01*
X70800000Y-121937300D01*
X71800000Y-121937300D01*
X71802478Y-121937544D01*
X71804860Y-121938267D01*
X71807056Y-121939440D01*
X71808980Y-121941020D01*
X71810560Y-121942944D01*
X71811733Y-121945140D01*
X71812456Y-121947522D01*
X71812700Y-121950000D01*
X71812700Y-123950000D01*
X71812456Y-123952478D01*
X71811733Y-123954860D01*
X71810560Y-123957056D01*
X71808980Y-123958980D01*
X71807056Y-123960560D01*
X71804860Y-123961733D01*
X71802478Y-123962456D01*
X71800000Y-123962700D01*
X66500000Y-123962700D01*
X66497522Y-123962456D01*
G37*
G36*
X71802478Y-118337544D02*
G01*
X71804860Y-118338267D01*
X71807056Y-118339440D01*
X71808980Y-118341020D01*
X71810560Y-118342944D01*
X71811733Y-118345140D01*
X71812456Y-118347522D01*
X71812700Y-118350000D01*
X71812700Y-120350000D01*
X71812456Y-120352478D01*
X71811733Y-120354860D01*
X71810560Y-120357056D01*
X71808980Y-120358980D01*
X71807056Y-120360560D01*
X71804860Y-120361733D01*
X71802478Y-120362456D01*
X71800000Y-120362700D01*
X70800000Y-120362700D01*
X70797522Y-120362456D01*
X70795140Y-120361733D01*
X70792944Y-120360560D01*
X70791020Y-120358980D01*
X70789440Y-120357056D01*
X70788641Y-120355680D01*
X70639562Y-120057522D01*
X70142865Y-119560825D01*
X69646949Y-119362458D01*
X69150000Y-119312763D01*
X68653051Y-119362458D01*
X68157135Y-119560825D01*
X67660438Y-120057522D01*
X67511359Y-120355680D01*
X67510033Y-120357787D01*
X67508321Y-120359594D01*
X67506289Y-120361033D01*
X67504016Y-120362048D01*
X67501588Y-120362600D01*
X67500000Y-120362700D01*
X66500000Y-120362700D01*
X66497522Y-120362456D01*
X66495140Y-120361733D01*
X66492944Y-120360560D01*
X66491020Y-120358980D01*
X66489440Y-120357056D01*
X66488267Y-120354860D01*
X66487544Y-120352478D01*
X66487300Y-120350000D01*
X66487300Y-118350000D01*
X66487544Y-118347522D01*
X66488267Y-118345140D01*
X66489440Y-118342944D01*
X66491020Y-118341020D01*
X66492944Y-118339440D01*
X66495140Y-118338267D01*
X66497522Y-118337544D01*
X66500000Y-118337300D01*
X71800000Y-118337300D01*
X71802478Y-118337544D01*
G37*
%TD*%
%TO.C,C24*%
G36*
G01*
X118027500Y-122375000D02*
X118372500Y-122375000D01*
G75*
G02*
X118520000Y-122522500I0J-147500D01*
G01*
X118520000Y-122817500D01*
G75*
G02*
X118372500Y-122965000I-147500J0D01*
G01*
X118027500Y-122965000D01*
G75*
G02*
X117880000Y-122817500I0J147500D01*
G01*
X117880000Y-122522500D01*
G75*
G02*
X118027500Y-122375000I147500J0D01*
G01*
G37*
G36*
G01*
X118027500Y-121405000D02*
X118372500Y-121405000D01*
G75*
G02*
X118520000Y-121552500I0J-147500D01*
G01*
X118520000Y-121847500D01*
G75*
G02*
X118372500Y-121995000I-147500J0D01*
G01*
X118027500Y-121995000D01*
G75*
G02*
X117880000Y-121847500I0J147500D01*
G01*
X117880000Y-121552500D01*
G75*
G02*
X118027500Y-121405000I147500J0D01*
G01*
G37*
%TD*%
D11*
%TO.C,Y1*%
X119400000Y-112800000D03*
X119400000Y-109100000D03*
%TD*%
%TO.C,U10*%
G36*
G01*
X67295000Y-92500000D02*
X67595000Y-92500000D01*
G75*
G02*
X67745000Y-92650000I0J-150000D01*
G01*
X67745000Y-94300000D01*
G75*
G02*
X67595000Y-94450000I-150000J0D01*
G01*
X67295000Y-94450000D01*
G75*
G02*
X67145000Y-94300000I0J150000D01*
G01*
X67145000Y-92650000D01*
G75*
G02*
X67295000Y-92500000I150000J0D01*
G01*
G37*
G36*
G01*
X66025000Y-92500000D02*
X66325000Y-92500000D01*
G75*
G02*
X66475000Y-92650000I0J-150000D01*
G01*
X66475000Y-94300000D01*
G75*
G02*
X66325000Y-94450000I-150000J0D01*
G01*
X66025000Y-94450000D01*
G75*
G02*
X65875000Y-94300000I0J150000D01*
G01*
X65875000Y-92650000D01*
G75*
G02*
X66025000Y-92500000I150000J0D01*
G01*
G37*
G36*
G01*
X64755000Y-92500000D02*
X65055000Y-92500000D01*
G75*
G02*
X65205000Y-92650000I0J-150000D01*
G01*
X65205000Y-94300000D01*
G75*
G02*
X65055000Y-94450000I-150000J0D01*
G01*
X64755000Y-94450000D01*
G75*
G02*
X64605000Y-94300000I0J150000D01*
G01*
X64605000Y-92650000D01*
G75*
G02*
X64755000Y-92500000I150000J0D01*
G01*
G37*
G36*
G01*
X63485000Y-92500000D02*
X63785000Y-92500000D01*
G75*
G02*
X63935000Y-92650000I0J-150000D01*
G01*
X63935000Y-94300000D01*
G75*
G02*
X63785000Y-94450000I-150000J0D01*
G01*
X63485000Y-94450000D01*
G75*
G02*
X63335000Y-94300000I0J150000D01*
G01*
X63335000Y-92650000D01*
G75*
G02*
X63485000Y-92500000I150000J0D01*
G01*
G37*
G36*
G01*
X62215000Y-92500000D02*
X62515000Y-92500000D01*
G75*
G02*
X62665000Y-92650000I0J-150000D01*
G01*
X62665000Y-94300000D01*
G75*
G02*
X62515000Y-94450000I-150000J0D01*
G01*
X62215000Y-94450000D01*
G75*
G02*
X62065000Y-94300000I0J150000D01*
G01*
X62065000Y-92650000D01*
G75*
G02*
X62215000Y-92500000I150000J0D01*
G01*
G37*
G36*
G01*
X60945000Y-92500000D02*
X61245000Y-92500000D01*
G75*
G02*
X61395000Y-92650000I0J-150000D01*
G01*
X61395000Y-94300000D01*
G75*
G02*
X61245000Y-94450000I-150000J0D01*
G01*
X60945000Y-94450000D01*
G75*
G02*
X60795000Y-94300000I0J150000D01*
G01*
X60795000Y-92650000D01*
G75*
G02*
X60945000Y-92500000I150000J0D01*
G01*
G37*
G36*
G01*
X59675000Y-92500000D02*
X59975000Y-92500000D01*
G75*
G02*
X60125000Y-92650000I0J-150000D01*
G01*
X60125000Y-94300000D01*
G75*
G02*
X59975000Y-94450000I-150000J0D01*
G01*
X59675000Y-94450000D01*
G75*
G02*
X59525000Y-94300000I0J150000D01*
G01*
X59525000Y-92650000D01*
G75*
G02*
X59675000Y-92500000I150000J0D01*
G01*
G37*
G36*
G01*
X58405000Y-92500000D02*
X58705000Y-92500000D01*
G75*
G02*
X58855000Y-92650000I0J-150000D01*
G01*
X58855000Y-94300000D01*
G75*
G02*
X58705000Y-94450000I-150000J0D01*
G01*
X58405000Y-94450000D01*
G75*
G02*
X58255000Y-94300000I0J150000D01*
G01*
X58255000Y-92650000D01*
G75*
G02*
X58405000Y-92500000I150000J0D01*
G01*
G37*
G36*
G01*
X58405000Y-87550000D02*
X58705000Y-87550000D01*
G75*
G02*
X58855000Y-87700000I0J-150000D01*
G01*
X58855000Y-89350000D01*
G75*
G02*
X58705000Y-89500000I-150000J0D01*
G01*
X58405000Y-89500000D01*
G75*
G02*
X58255000Y-89350000I0J150000D01*
G01*
X58255000Y-87700000D01*
G75*
G02*
X58405000Y-87550000I150000J0D01*
G01*
G37*
G36*
G01*
X59675000Y-87550000D02*
X59975000Y-87550000D01*
G75*
G02*
X60125000Y-87700000I0J-150000D01*
G01*
X60125000Y-89350000D01*
G75*
G02*
X59975000Y-89500000I-150000J0D01*
G01*
X59675000Y-89500000D01*
G75*
G02*
X59525000Y-89350000I0J150000D01*
G01*
X59525000Y-87700000D01*
G75*
G02*
X59675000Y-87550000I150000J0D01*
G01*
G37*
G36*
G01*
X60945000Y-87550000D02*
X61245000Y-87550000D01*
G75*
G02*
X61395000Y-87700000I0J-150000D01*
G01*
X61395000Y-89350000D01*
G75*
G02*
X61245000Y-89500000I-150000J0D01*
G01*
X60945000Y-89500000D01*
G75*
G02*
X60795000Y-89350000I0J150000D01*
G01*
X60795000Y-87700000D01*
G75*
G02*
X60945000Y-87550000I150000J0D01*
G01*
G37*
G36*
G01*
X62215000Y-87550000D02*
X62515000Y-87550000D01*
G75*
G02*
X62665000Y-87700000I0J-150000D01*
G01*
X62665000Y-89350000D01*
G75*
G02*
X62515000Y-89500000I-150000J0D01*
G01*
X62215000Y-89500000D01*
G75*
G02*
X62065000Y-89350000I0J150000D01*
G01*
X62065000Y-87700000D01*
G75*
G02*
X62215000Y-87550000I150000J0D01*
G01*
G37*
G36*
G01*
X63485000Y-87550000D02*
X63785000Y-87550000D01*
G75*
G02*
X63935000Y-87700000I0J-150000D01*
G01*
X63935000Y-89350000D01*
G75*
G02*
X63785000Y-89500000I-150000J0D01*
G01*
X63485000Y-89500000D01*
G75*
G02*
X63335000Y-89350000I0J150000D01*
G01*
X63335000Y-87700000D01*
G75*
G02*
X63485000Y-87550000I150000J0D01*
G01*
G37*
G36*
G01*
X64755000Y-87550000D02*
X65055000Y-87550000D01*
G75*
G02*
X65205000Y-87700000I0J-150000D01*
G01*
X65205000Y-89350000D01*
G75*
G02*
X65055000Y-89500000I-150000J0D01*
G01*
X64755000Y-89500000D01*
G75*
G02*
X64605000Y-89350000I0J150000D01*
G01*
X64605000Y-87700000D01*
G75*
G02*
X64755000Y-87550000I150000J0D01*
G01*
G37*
G36*
G01*
X66025000Y-87550000D02*
X66325000Y-87550000D01*
G75*
G02*
X66475000Y-87700000I0J-150000D01*
G01*
X66475000Y-89350000D01*
G75*
G02*
X66325000Y-89500000I-150000J0D01*
G01*
X66025000Y-89500000D01*
G75*
G02*
X65875000Y-89350000I0J150000D01*
G01*
X65875000Y-87700000D01*
G75*
G02*
X66025000Y-87550000I150000J0D01*
G01*
G37*
G36*
G01*
X67295000Y-87550000D02*
X67595000Y-87550000D01*
G75*
G02*
X67745000Y-87700000I0J-150000D01*
G01*
X67745000Y-89350000D01*
G75*
G02*
X67595000Y-89500000I-150000J0D01*
G01*
X67295000Y-89500000D01*
G75*
G02*
X67145000Y-89350000I0J150000D01*
G01*
X67145000Y-87700000D01*
G75*
G02*
X67295000Y-87550000I150000J0D01*
G01*
G37*
%TD*%
%TO.C,U9*%
G36*
G01*
X82295000Y-92500000D02*
X82595000Y-92500000D01*
G75*
G02*
X82745000Y-92650000I0J-150000D01*
G01*
X82745000Y-94300000D01*
G75*
G02*
X82595000Y-94450000I-150000J0D01*
G01*
X82295000Y-94450000D01*
G75*
G02*
X82145000Y-94300000I0J150000D01*
G01*
X82145000Y-92650000D01*
G75*
G02*
X82295000Y-92500000I150000J0D01*
G01*
G37*
G36*
G01*
X81025000Y-92500000D02*
X81325000Y-92500000D01*
G75*
G02*
X81475000Y-92650000I0J-150000D01*
G01*
X81475000Y-94300000D01*
G75*
G02*
X81325000Y-94450000I-150000J0D01*
G01*
X81025000Y-94450000D01*
G75*
G02*
X80875000Y-94300000I0J150000D01*
G01*
X80875000Y-92650000D01*
G75*
G02*
X81025000Y-92500000I150000J0D01*
G01*
G37*
G36*
G01*
X79755000Y-92500000D02*
X80055000Y-92500000D01*
G75*
G02*
X80205000Y-92650000I0J-150000D01*
G01*
X80205000Y-94300000D01*
G75*
G02*
X80055000Y-94450000I-150000J0D01*
G01*
X79755000Y-94450000D01*
G75*
G02*
X79605000Y-94300000I0J150000D01*
G01*
X79605000Y-92650000D01*
G75*
G02*
X79755000Y-92500000I150000J0D01*
G01*
G37*
G36*
G01*
X78485000Y-92500000D02*
X78785000Y-92500000D01*
G75*
G02*
X78935000Y-92650000I0J-150000D01*
G01*
X78935000Y-94300000D01*
G75*
G02*
X78785000Y-94450000I-150000J0D01*
G01*
X78485000Y-94450000D01*
G75*
G02*
X78335000Y-94300000I0J150000D01*
G01*
X78335000Y-92650000D01*
G75*
G02*
X78485000Y-92500000I150000J0D01*
G01*
G37*
G36*
G01*
X77215000Y-92500000D02*
X77515000Y-92500000D01*
G75*
G02*
X77665000Y-92650000I0J-150000D01*
G01*
X77665000Y-94300000D01*
G75*
G02*
X77515000Y-94450000I-150000J0D01*
G01*
X77215000Y-94450000D01*
G75*
G02*
X77065000Y-94300000I0J150000D01*
G01*
X77065000Y-92650000D01*
G75*
G02*
X77215000Y-92500000I150000J0D01*
G01*
G37*
G36*
G01*
X75945000Y-92500000D02*
X76245000Y-92500000D01*
G75*
G02*
X76395000Y-92650000I0J-150000D01*
G01*
X76395000Y-94300000D01*
G75*
G02*
X76245000Y-94450000I-150000J0D01*
G01*
X75945000Y-94450000D01*
G75*
G02*
X75795000Y-94300000I0J150000D01*
G01*
X75795000Y-92650000D01*
G75*
G02*
X75945000Y-92500000I150000J0D01*
G01*
G37*
G36*
G01*
X74675000Y-92500000D02*
X74975000Y-92500000D01*
G75*
G02*
X75125000Y-92650000I0J-150000D01*
G01*
X75125000Y-94300000D01*
G75*
G02*
X74975000Y-94450000I-150000J0D01*
G01*
X74675000Y-94450000D01*
G75*
G02*
X74525000Y-94300000I0J150000D01*
G01*
X74525000Y-92650000D01*
G75*
G02*
X74675000Y-92500000I150000J0D01*
G01*
G37*
G36*
G01*
X73405000Y-92500000D02*
X73705000Y-92500000D01*
G75*
G02*
X73855000Y-92650000I0J-150000D01*
G01*
X73855000Y-94300000D01*
G75*
G02*
X73705000Y-94450000I-150000J0D01*
G01*
X73405000Y-94450000D01*
G75*
G02*
X73255000Y-94300000I0J150000D01*
G01*
X73255000Y-92650000D01*
G75*
G02*
X73405000Y-92500000I150000J0D01*
G01*
G37*
G36*
G01*
X73405000Y-87550000D02*
X73705000Y-87550000D01*
G75*
G02*
X73855000Y-87700000I0J-150000D01*
G01*
X73855000Y-89350000D01*
G75*
G02*
X73705000Y-89500000I-150000J0D01*
G01*
X73405000Y-89500000D01*
G75*
G02*
X73255000Y-89350000I0J150000D01*
G01*
X73255000Y-87700000D01*
G75*
G02*
X73405000Y-87550000I150000J0D01*
G01*
G37*
G36*
G01*
X74675000Y-87550000D02*
X74975000Y-87550000D01*
G75*
G02*
X75125000Y-87700000I0J-150000D01*
G01*
X75125000Y-89350000D01*
G75*
G02*
X74975000Y-89500000I-150000J0D01*
G01*
X74675000Y-89500000D01*
G75*
G02*
X74525000Y-89350000I0J150000D01*
G01*
X74525000Y-87700000D01*
G75*
G02*
X74675000Y-87550000I150000J0D01*
G01*
G37*
G36*
G01*
X75945000Y-87550000D02*
X76245000Y-87550000D01*
G75*
G02*
X76395000Y-87700000I0J-150000D01*
G01*
X76395000Y-89350000D01*
G75*
G02*
X76245000Y-89500000I-150000J0D01*
G01*
X75945000Y-89500000D01*
G75*
G02*
X75795000Y-89350000I0J150000D01*
G01*
X75795000Y-87700000D01*
G75*
G02*
X75945000Y-87550000I150000J0D01*
G01*
G37*
G36*
G01*
X77215000Y-87550000D02*
X77515000Y-87550000D01*
G75*
G02*
X77665000Y-87700000I0J-150000D01*
G01*
X77665000Y-89350000D01*
G75*
G02*
X77515000Y-89500000I-150000J0D01*
G01*
X77215000Y-89500000D01*
G75*
G02*
X77065000Y-89350000I0J150000D01*
G01*
X77065000Y-87700000D01*
G75*
G02*
X77215000Y-87550000I150000J0D01*
G01*
G37*
G36*
G01*
X78485000Y-87550000D02*
X78785000Y-87550000D01*
G75*
G02*
X78935000Y-87700000I0J-150000D01*
G01*
X78935000Y-89350000D01*
G75*
G02*
X78785000Y-89500000I-150000J0D01*
G01*
X78485000Y-89500000D01*
G75*
G02*
X78335000Y-89350000I0J150000D01*
G01*
X78335000Y-87700000D01*
G75*
G02*
X78485000Y-87550000I150000J0D01*
G01*
G37*
G36*
G01*
X79755000Y-87550000D02*
X80055000Y-87550000D01*
G75*
G02*
X80205000Y-87700000I0J-150000D01*
G01*
X80205000Y-89350000D01*
G75*
G02*
X80055000Y-89500000I-150000J0D01*
G01*
X79755000Y-89500000D01*
G75*
G02*
X79605000Y-89350000I0J150000D01*
G01*
X79605000Y-87700000D01*
G75*
G02*
X79755000Y-87550000I150000J0D01*
G01*
G37*
G36*
G01*
X81025000Y-87550000D02*
X81325000Y-87550000D01*
G75*
G02*
X81475000Y-87700000I0J-150000D01*
G01*
X81475000Y-89350000D01*
G75*
G02*
X81325000Y-89500000I-150000J0D01*
G01*
X81025000Y-89500000D01*
G75*
G02*
X80875000Y-89350000I0J150000D01*
G01*
X80875000Y-87700000D01*
G75*
G02*
X81025000Y-87550000I150000J0D01*
G01*
G37*
G36*
G01*
X82295000Y-87550000D02*
X82595000Y-87550000D01*
G75*
G02*
X82745000Y-87700000I0J-150000D01*
G01*
X82745000Y-89350000D01*
G75*
G02*
X82595000Y-89500000I-150000J0D01*
G01*
X82295000Y-89500000D01*
G75*
G02*
X82145000Y-89350000I0J150000D01*
G01*
X82145000Y-87700000D01*
G75*
G02*
X82295000Y-87550000I150000J0D01*
G01*
G37*
%TD*%
%TO.C,U8*%
G36*
G01*
X97295000Y-92500000D02*
X97595000Y-92500000D01*
G75*
G02*
X97745000Y-92650000I0J-150000D01*
G01*
X97745000Y-94300000D01*
G75*
G02*
X97595000Y-94450000I-150000J0D01*
G01*
X97295000Y-94450000D01*
G75*
G02*
X97145000Y-94300000I0J150000D01*
G01*
X97145000Y-92650000D01*
G75*
G02*
X97295000Y-92500000I150000J0D01*
G01*
G37*
G36*
G01*
X96025000Y-92500000D02*
X96325000Y-92500000D01*
G75*
G02*
X96475000Y-92650000I0J-150000D01*
G01*
X96475000Y-94300000D01*
G75*
G02*
X96325000Y-94450000I-150000J0D01*
G01*
X96025000Y-94450000D01*
G75*
G02*
X95875000Y-94300000I0J150000D01*
G01*
X95875000Y-92650000D01*
G75*
G02*
X96025000Y-92500000I150000J0D01*
G01*
G37*
G36*
G01*
X94755000Y-92500000D02*
X95055000Y-92500000D01*
G75*
G02*
X95205000Y-92650000I0J-150000D01*
G01*
X95205000Y-94300000D01*
G75*
G02*
X95055000Y-94450000I-150000J0D01*
G01*
X94755000Y-94450000D01*
G75*
G02*
X94605000Y-94300000I0J150000D01*
G01*
X94605000Y-92650000D01*
G75*
G02*
X94755000Y-92500000I150000J0D01*
G01*
G37*
G36*
G01*
X93485000Y-92500000D02*
X93785000Y-92500000D01*
G75*
G02*
X93935000Y-92650000I0J-150000D01*
G01*
X93935000Y-94300000D01*
G75*
G02*
X93785000Y-94450000I-150000J0D01*
G01*
X93485000Y-94450000D01*
G75*
G02*
X93335000Y-94300000I0J150000D01*
G01*
X93335000Y-92650000D01*
G75*
G02*
X93485000Y-92500000I150000J0D01*
G01*
G37*
G36*
G01*
X92215000Y-92500000D02*
X92515000Y-92500000D01*
G75*
G02*
X92665000Y-92650000I0J-150000D01*
G01*
X92665000Y-94300000D01*
G75*
G02*
X92515000Y-94450000I-150000J0D01*
G01*
X92215000Y-94450000D01*
G75*
G02*
X92065000Y-94300000I0J150000D01*
G01*
X92065000Y-92650000D01*
G75*
G02*
X92215000Y-92500000I150000J0D01*
G01*
G37*
G36*
G01*
X90945000Y-92500000D02*
X91245000Y-92500000D01*
G75*
G02*
X91395000Y-92650000I0J-150000D01*
G01*
X91395000Y-94300000D01*
G75*
G02*
X91245000Y-94450000I-150000J0D01*
G01*
X90945000Y-94450000D01*
G75*
G02*
X90795000Y-94300000I0J150000D01*
G01*
X90795000Y-92650000D01*
G75*
G02*
X90945000Y-92500000I150000J0D01*
G01*
G37*
G36*
G01*
X89675000Y-92500000D02*
X89975000Y-92500000D01*
G75*
G02*
X90125000Y-92650000I0J-150000D01*
G01*
X90125000Y-94300000D01*
G75*
G02*
X89975000Y-94450000I-150000J0D01*
G01*
X89675000Y-94450000D01*
G75*
G02*
X89525000Y-94300000I0J150000D01*
G01*
X89525000Y-92650000D01*
G75*
G02*
X89675000Y-92500000I150000J0D01*
G01*
G37*
G36*
G01*
X88405000Y-92500000D02*
X88705000Y-92500000D01*
G75*
G02*
X88855000Y-92650000I0J-150000D01*
G01*
X88855000Y-94300000D01*
G75*
G02*
X88705000Y-94450000I-150000J0D01*
G01*
X88405000Y-94450000D01*
G75*
G02*
X88255000Y-94300000I0J150000D01*
G01*
X88255000Y-92650000D01*
G75*
G02*
X88405000Y-92500000I150000J0D01*
G01*
G37*
G36*
G01*
X88405000Y-87550000D02*
X88705000Y-87550000D01*
G75*
G02*
X88855000Y-87700000I0J-150000D01*
G01*
X88855000Y-89350000D01*
G75*
G02*
X88705000Y-89500000I-150000J0D01*
G01*
X88405000Y-89500000D01*
G75*
G02*
X88255000Y-89350000I0J150000D01*
G01*
X88255000Y-87700000D01*
G75*
G02*
X88405000Y-87550000I150000J0D01*
G01*
G37*
G36*
G01*
X89675000Y-87550000D02*
X89975000Y-87550000D01*
G75*
G02*
X90125000Y-87700000I0J-150000D01*
G01*
X90125000Y-89350000D01*
G75*
G02*
X89975000Y-89500000I-150000J0D01*
G01*
X89675000Y-89500000D01*
G75*
G02*
X89525000Y-89350000I0J150000D01*
G01*
X89525000Y-87700000D01*
G75*
G02*
X89675000Y-87550000I150000J0D01*
G01*
G37*
G36*
G01*
X90945000Y-87550000D02*
X91245000Y-87550000D01*
G75*
G02*
X91395000Y-87700000I0J-150000D01*
G01*
X91395000Y-89350000D01*
G75*
G02*
X91245000Y-89500000I-150000J0D01*
G01*
X90945000Y-89500000D01*
G75*
G02*
X90795000Y-89350000I0J150000D01*
G01*
X90795000Y-87700000D01*
G75*
G02*
X90945000Y-87550000I150000J0D01*
G01*
G37*
G36*
G01*
X92215000Y-87550000D02*
X92515000Y-87550000D01*
G75*
G02*
X92665000Y-87700000I0J-150000D01*
G01*
X92665000Y-89350000D01*
G75*
G02*
X92515000Y-89500000I-150000J0D01*
G01*
X92215000Y-89500000D01*
G75*
G02*
X92065000Y-89350000I0J150000D01*
G01*
X92065000Y-87700000D01*
G75*
G02*
X92215000Y-87550000I150000J0D01*
G01*
G37*
G36*
G01*
X93485000Y-87550000D02*
X93785000Y-87550000D01*
G75*
G02*
X93935000Y-87700000I0J-150000D01*
G01*
X93935000Y-89350000D01*
G75*
G02*
X93785000Y-89500000I-150000J0D01*
G01*
X93485000Y-89500000D01*
G75*
G02*
X93335000Y-89350000I0J150000D01*
G01*
X93335000Y-87700000D01*
G75*
G02*
X93485000Y-87550000I150000J0D01*
G01*
G37*
G36*
G01*
X94755000Y-87550000D02*
X95055000Y-87550000D01*
G75*
G02*
X95205000Y-87700000I0J-150000D01*
G01*
X95205000Y-89350000D01*
G75*
G02*
X95055000Y-89500000I-150000J0D01*
G01*
X94755000Y-89500000D01*
G75*
G02*
X94605000Y-89350000I0J150000D01*
G01*
X94605000Y-87700000D01*
G75*
G02*
X94755000Y-87550000I150000J0D01*
G01*
G37*
G36*
G01*
X96025000Y-87550000D02*
X96325000Y-87550000D01*
G75*
G02*
X96475000Y-87700000I0J-150000D01*
G01*
X96475000Y-89350000D01*
G75*
G02*
X96325000Y-89500000I-150000J0D01*
G01*
X96025000Y-89500000D01*
G75*
G02*
X95875000Y-89350000I0J150000D01*
G01*
X95875000Y-87700000D01*
G75*
G02*
X96025000Y-87550000I150000J0D01*
G01*
G37*
G36*
G01*
X97295000Y-87550000D02*
X97595000Y-87550000D01*
G75*
G02*
X97745000Y-87700000I0J-150000D01*
G01*
X97745000Y-89350000D01*
G75*
G02*
X97595000Y-89500000I-150000J0D01*
G01*
X97295000Y-89500000D01*
G75*
G02*
X97145000Y-89350000I0J150000D01*
G01*
X97145000Y-87700000D01*
G75*
G02*
X97295000Y-87550000I150000J0D01*
G01*
G37*
%TD*%
%TO.C,U6*%
G36*
G01*
X121755000Y-134500000D02*
X122055000Y-134500000D01*
G75*
G02*
X122205000Y-134650000I0J-150000D01*
G01*
X122205000Y-136300000D01*
G75*
G02*
X122055000Y-136450000I-150000J0D01*
G01*
X121755000Y-136450000D01*
G75*
G02*
X121605000Y-136300000I0J150000D01*
G01*
X121605000Y-134650000D01*
G75*
G02*
X121755000Y-134500000I150000J0D01*
G01*
G37*
G36*
G01*
X120485000Y-134500000D02*
X120785000Y-134500000D01*
G75*
G02*
X120935000Y-134650000I0J-150000D01*
G01*
X120935000Y-136300000D01*
G75*
G02*
X120785000Y-136450000I-150000J0D01*
G01*
X120485000Y-136450000D01*
G75*
G02*
X120335000Y-136300000I0J150000D01*
G01*
X120335000Y-134650000D01*
G75*
G02*
X120485000Y-134500000I150000J0D01*
G01*
G37*
G36*
G01*
X119215000Y-134500000D02*
X119515000Y-134500000D01*
G75*
G02*
X119665000Y-134650000I0J-150000D01*
G01*
X119665000Y-136300000D01*
G75*
G02*
X119515000Y-136450000I-150000J0D01*
G01*
X119215000Y-136450000D01*
G75*
G02*
X119065000Y-136300000I0J150000D01*
G01*
X119065000Y-134650000D01*
G75*
G02*
X119215000Y-134500000I150000J0D01*
G01*
G37*
G36*
G01*
X117945000Y-134500000D02*
X118245000Y-134500000D01*
G75*
G02*
X118395000Y-134650000I0J-150000D01*
G01*
X118395000Y-136300000D01*
G75*
G02*
X118245000Y-136450000I-150000J0D01*
G01*
X117945000Y-136450000D01*
G75*
G02*
X117795000Y-136300000I0J150000D01*
G01*
X117795000Y-134650000D01*
G75*
G02*
X117945000Y-134500000I150000J0D01*
G01*
G37*
G36*
G01*
X117945000Y-129550000D02*
X118245000Y-129550000D01*
G75*
G02*
X118395000Y-129700000I0J-150000D01*
G01*
X118395000Y-131350000D01*
G75*
G02*
X118245000Y-131500000I-150000J0D01*
G01*
X117945000Y-131500000D01*
G75*
G02*
X117795000Y-131350000I0J150000D01*
G01*
X117795000Y-129700000D01*
G75*
G02*
X117945000Y-129550000I150000J0D01*
G01*
G37*
G36*
G01*
X119215000Y-129550000D02*
X119515000Y-129550000D01*
G75*
G02*
X119665000Y-129700000I0J-150000D01*
G01*
X119665000Y-131350000D01*
G75*
G02*
X119515000Y-131500000I-150000J0D01*
G01*
X119215000Y-131500000D01*
G75*
G02*
X119065000Y-131350000I0J150000D01*
G01*
X119065000Y-129700000D01*
G75*
G02*
X119215000Y-129550000I150000J0D01*
G01*
G37*
G36*
G01*
X120485000Y-129550000D02*
X120785000Y-129550000D01*
G75*
G02*
X120935000Y-129700000I0J-150000D01*
G01*
X120935000Y-131350000D01*
G75*
G02*
X120785000Y-131500000I-150000J0D01*
G01*
X120485000Y-131500000D01*
G75*
G02*
X120335000Y-131350000I0J150000D01*
G01*
X120335000Y-129700000D01*
G75*
G02*
X120485000Y-129550000I150000J0D01*
G01*
G37*
G36*
G01*
X121755000Y-129550000D02*
X122055000Y-129550000D01*
G75*
G02*
X122205000Y-129700000I0J-150000D01*
G01*
X122205000Y-131350000D01*
G75*
G02*
X122055000Y-131500000I-150000J0D01*
G01*
X121755000Y-131500000D01*
G75*
G02*
X121605000Y-131350000I0J150000D01*
G01*
X121605000Y-129700000D01*
G75*
G02*
X121755000Y-129550000I150000J0D01*
G01*
G37*
%TD*%
%TO.C,U5*%
G36*
G01*
X112295000Y-92500000D02*
X112595000Y-92500000D01*
G75*
G02*
X112745000Y-92650000I0J-150000D01*
G01*
X112745000Y-94300000D01*
G75*
G02*
X112595000Y-94450000I-150000J0D01*
G01*
X112295000Y-94450000D01*
G75*
G02*
X112145000Y-94300000I0J150000D01*
G01*
X112145000Y-92650000D01*
G75*
G02*
X112295000Y-92500000I150000J0D01*
G01*
G37*
G36*
G01*
X111025000Y-92500000D02*
X111325000Y-92500000D01*
G75*
G02*
X111475000Y-92650000I0J-150000D01*
G01*
X111475000Y-94300000D01*
G75*
G02*
X111325000Y-94450000I-150000J0D01*
G01*
X111025000Y-94450000D01*
G75*
G02*
X110875000Y-94300000I0J150000D01*
G01*
X110875000Y-92650000D01*
G75*
G02*
X111025000Y-92500000I150000J0D01*
G01*
G37*
G36*
G01*
X109755000Y-92500000D02*
X110055000Y-92500000D01*
G75*
G02*
X110205000Y-92650000I0J-150000D01*
G01*
X110205000Y-94300000D01*
G75*
G02*
X110055000Y-94450000I-150000J0D01*
G01*
X109755000Y-94450000D01*
G75*
G02*
X109605000Y-94300000I0J150000D01*
G01*
X109605000Y-92650000D01*
G75*
G02*
X109755000Y-92500000I150000J0D01*
G01*
G37*
G36*
G01*
X108485000Y-92500000D02*
X108785000Y-92500000D01*
G75*
G02*
X108935000Y-92650000I0J-150000D01*
G01*
X108935000Y-94300000D01*
G75*
G02*
X108785000Y-94450000I-150000J0D01*
G01*
X108485000Y-94450000D01*
G75*
G02*
X108335000Y-94300000I0J150000D01*
G01*
X108335000Y-92650000D01*
G75*
G02*
X108485000Y-92500000I150000J0D01*
G01*
G37*
G36*
G01*
X107215000Y-92500000D02*
X107515000Y-92500000D01*
G75*
G02*
X107665000Y-92650000I0J-150000D01*
G01*
X107665000Y-94300000D01*
G75*
G02*
X107515000Y-94450000I-150000J0D01*
G01*
X107215000Y-94450000D01*
G75*
G02*
X107065000Y-94300000I0J150000D01*
G01*
X107065000Y-92650000D01*
G75*
G02*
X107215000Y-92500000I150000J0D01*
G01*
G37*
G36*
G01*
X105945000Y-92500000D02*
X106245000Y-92500000D01*
G75*
G02*
X106395000Y-92650000I0J-150000D01*
G01*
X106395000Y-94300000D01*
G75*
G02*
X106245000Y-94450000I-150000J0D01*
G01*
X105945000Y-94450000D01*
G75*
G02*
X105795000Y-94300000I0J150000D01*
G01*
X105795000Y-92650000D01*
G75*
G02*
X105945000Y-92500000I150000J0D01*
G01*
G37*
G36*
G01*
X104675000Y-92500000D02*
X104975000Y-92500000D01*
G75*
G02*
X105125000Y-92650000I0J-150000D01*
G01*
X105125000Y-94300000D01*
G75*
G02*
X104975000Y-94450000I-150000J0D01*
G01*
X104675000Y-94450000D01*
G75*
G02*
X104525000Y-94300000I0J150000D01*
G01*
X104525000Y-92650000D01*
G75*
G02*
X104675000Y-92500000I150000J0D01*
G01*
G37*
G36*
G01*
X103405000Y-92500000D02*
X103705000Y-92500000D01*
G75*
G02*
X103855000Y-92650000I0J-150000D01*
G01*
X103855000Y-94300000D01*
G75*
G02*
X103705000Y-94450000I-150000J0D01*
G01*
X103405000Y-94450000D01*
G75*
G02*
X103255000Y-94300000I0J150000D01*
G01*
X103255000Y-92650000D01*
G75*
G02*
X103405000Y-92500000I150000J0D01*
G01*
G37*
G36*
G01*
X103405000Y-87550000D02*
X103705000Y-87550000D01*
G75*
G02*
X103855000Y-87700000I0J-150000D01*
G01*
X103855000Y-89350000D01*
G75*
G02*
X103705000Y-89500000I-150000J0D01*
G01*
X103405000Y-89500000D01*
G75*
G02*
X103255000Y-89350000I0J150000D01*
G01*
X103255000Y-87700000D01*
G75*
G02*
X103405000Y-87550000I150000J0D01*
G01*
G37*
G36*
G01*
X104675000Y-87550000D02*
X104975000Y-87550000D01*
G75*
G02*
X105125000Y-87700000I0J-150000D01*
G01*
X105125000Y-89350000D01*
G75*
G02*
X104975000Y-89500000I-150000J0D01*
G01*
X104675000Y-89500000D01*
G75*
G02*
X104525000Y-89350000I0J150000D01*
G01*
X104525000Y-87700000D01*
G75*
G02*
X104675000Y-87550000I150000J0D01*
G01*
G37*
G36*
G01*
X105945000Y-87550000D02*
X106245000Y-87550000D01*
G75*
G02*
X106395000Y-87700000I0J-150000D01*
G01*
X106395000Y-89350000D01*
G75*
G02*
X106245000Y-89500000I-150000J0D01*
G01*
X105945000Y-89500000D01*
G75*
G02*
X105795000Y-89350000I0J150000D01*
G01*
X105795000Y-87700000D01*
G75*
G02*
X105945000Y-87550000I150000J0D01*
G01*
G37*
G36*
G01*
X107215000Y-87550000D02*
X107515000Y-87550000D01*
G75*
G02*
X107665000Y-87700000I0J-150000D01*
G01*
X107665000Y-89350000D01*
G75*
G02*
X107515000Y-89500000I-150000J0D01*
G01*
X107215000Y-89500000D01*
G75*
G02*
X107065000Y-89350000I0J150000D01*
G01*
X107065000Y-87700000D01*
G75*
G02*
X107215000Y-87550000I150000J0D01*
G01*
G37*
G36*
G01*
X108485000Y-87550000D02*
X108785000Y-87550000D01*
G75*
G02*
X108935000Y-87700000I0J-150000D01*
G01*
X108935000Y-89350000D01*
G75*
G02*
X108785000Y-89500000I-150000J0D01*
G01*
X108485000Y-89500000D01*
G75*
G02*
X108335000Y-89350000I0J150000D01*
G01*
X108335000Y-87700000D01*
G75*
G02*
X108485000Y-87550000I150000J0D01*
G01*
G37*
G36*
G01*
X109755000Y-87550000D02*
X110055000Y-87550000D01*
G75*
G02*
X110205000Y-87700000I0J-150000D01*
G01*
X110205000Y-89350000D01*
G75*
G02*
X110055000Y-89500000I-150000J0D01*
G01*
X109755000Y-89500000D01*
G75*
G02*
X109605000Y-89350000I0J150000D01*
G01*
X109605000Y-87700000D01*
G75*
G02*
X109755000Y-87550000I150000J0D01*
G01*
G37*
G36*
G01*
X111025000Y-87550000D02*
X111325000Y-87550000D01*
G75*
G02*
X111475000Y-87700000I0J-150000D01*
G01*
X111475000Y-89350000D01*
G75*
G02*
X111325000Y-89500000I-150000J0D01*
G01*
X111025000Y-89500000D01*
G75*
G02*
X110875000Y-89350000I0J150000D01*
G01*
X110875000Y-87700000D01*
G75*
G02*
X111025000Y-87550000I150000J0D01*
G01*
G37*
G36*
G01*
X112295000Y-87550000D02*
X112595000Y-87550000D01*
G75*
G02*
X112745000Y-87700000I0J-150000D01*
G01*
X112745000Y-89350000D01*
G75*
G02*
X112595000Y-89500000I-150000J0D01*
G01*
X112295000Y-89500000D01*
G75*
G02*
X112145000Y-89350000I0J150000D01*
G01*
X112145000Y-87700000D01*
G75*
G02*
X112295000Y-87550000I150000J0D01*
G01*
G37*
%TD*%
%TO.C,U4*%
G36*
G01*
X127295000Y-92500000D02*
X127595000Y-92500000D01*
G75*
G02*
X127745000Y-92650000I0J-150000D01*
G01*
X127745000Y-94300000D01*
G75*
G02*
X127595000Y-94450000I-150000J0D01*
G01*
X127295000Y-94450000D01*
G75*
G02*
X127145000Y-94300000I0J150000D01*
G01*
X127145000Y-92650000D01*
G75*
G02*
X127295000Y-92500000I150000J0D01*
G01*
G37*
G36*
G01*
X126025000Y-92500000D02*
X126325000Y-92500000D01*
G75*
G02*
X126475000Y-92650000I0J-150000D01*
G01*
X126475000Y-94300000D01*
G75*
G02*
X126325000Y-94450000I-150000J0D01*
G01*
X126025000Y-94450000D01*
G75*
G02*
X125875000Y-94300000I0J150000D01*
G01*
X125875000Y-92650000D01*
G75*
G02*
X126025000Y-92500000I150000J0D01*
G01*
G37*
G36*
G01*
X124755000Y-92500000D02*
X125055000Y-92500000D01*
G75*
G02*
X125205000Y-92650000I0J-150000D01*
G01*
X125205000Y-94300000D01*
G75*
G02*
X125055000Y-94450000I-150000J0D01*
G01*
X124755000Y-94450000D01*
G75*
G02*
X124605000Y-94300000I0J150000D01*
G01*
X124605000Y-92650000D01*
G75*
G02*
X124755000Y-92500000I150000J0D01*
G01*
G37*
G36*
G01*
X123485000Y-92500000D02*
X123785000Y-92500000D01*
G75*
G02*
X123935000Y-92650000I0J-150000D01*
G01*
X123935000Y-94300000D01*
G75*
G02*
X123785000Y-94450000I-150000J0D01*
G01*
X123485000Y-94450000D01*
G75*
G02*
X123335000Y-94300000I0J150000D01*
G01*
X123335000Y-92650000D01*
G75*
G02*
X123485000Y-92500000I150000J0D01*
G01*
G37*
G36*
G01*
X122215000Y-92500000D02*
X122515000Y-92500000D01*
G75*
G02*
X122665000Y-92650000I0J-150000D01*
G01*
X122665000Y-94300000D01*
G75*
G02*
X122515000Y-94450000I-150000J0D01*
G01*
X122215000Y-94450000D01*
G75*
G02*
X122065000Y-94300000I0J150000D01*
G01*
X122065000Y-92650000D01*
G75*
G02*
X122215000Y-92500000I150000J0D01*
G01*
G37*
G36*
G01*
X120945000Y-92500000D02*
X121245000Y-92500000D01*
G75*
G02*
X121395000Y-92650000I0J-150000D01*
G01*
X121395000Y-94300000D01*
G75*
G02*
X121245000Y-94450000I-150000J0D01*
G01*
X120945000Y-94450000D01*
G75*
G02*
X120795000Y-94300000I0J150000D01*
G01*
X120795000Y-92650000D01*
G75*
G02*
X120945000Y-92500000I150000J0D01*
G01*
G37*
G36*
G01*
X119675000Y-92500000D02*
X119975000Y-92500000D01*
G75*
G02*
X120125000Y-92650000I0J-150000D01*
G01*
X120125000Y-94300000D01*
G75*
G02*
X119975000Y-94450000I-150000J0D01*
G01*
X119675000Y-94450000D01*
G75*
G02*
X119525000Y-94300000I0J150000D01*
G01*
X119525000Y-92650000D01*
G75*
G02*
X119675000Y-92500000I150000J0D01*
G01*
G37*
G36*
G01*
X118405000Y-92500000D02*
X118705000Y-92500000D01*
G75*
G02*
X118855000Y-92650000I0J-150000D01*
G01*
X118855000Y-94300000D01*
G75*
G02*
X118705000Y-94450000I-150000J0D01*
G01*
X118405000Y-94450000D01*
G75*
G02*
X118255000Y-94300000I0J150000D01*
G01*
X118255000Y-92650000D01*
G75*
G02*
X118405000Y-92500000I150000J0D01*
G01*
G37*
G36*
G01*
X118405000Y-87550000D02*
X118705000Y-87550000D01*
G75*
G02*
X118855000Y-87700000I0J-150000D01*
G01*
X118855000Y-89350000D01*
G75*
G02*
X118705000Y-89500000I-150000J0D01*
G01*
X118405000Y-89500000D01*
G75*
G02*
X118255000Y-89350000I0J150000D01*
G01*
X118255000Y-87700000D01*
G75*
G02*
X118405000Y-87550000I150000J0D01*
G01*
G37*
G36*
G01*
X119675000Y-87550000D02*
X119975000Y-87550000D01*
G75*
G02*
X120125000Y-87700000I0J-150000D01*
G01*
X120125000Y-89350000D01*
G75*
G02*
X119975000Y-89500000I-150000J0D01*
G01*
X119675000Y-89500000D01*
G75*
G02*
X119525000Y-89350000I0J150000D01*
G01*
X119525000Y-87700000D01*
G75*
G02*
X119675000Y-87550000I150000J0D01*
G01*
G37*
G36*
G01*
X120945000Y-87550000D02*
X121245000Y-87550000D01*
G75*
G02*
X121395000Y-87700000I0J-150000D01*
G01*
X121395000Y-89350000D01*
G75*
G02*
X121245000Y-89500000I-150000J0D01*
G01*
X120945000Y-89500000D01*
G75*
G02*
X120795000Y-89350000I0J150000D01*
G01*
X120795000Y-87700000D01*
G75*
G02*
X120945000Y-87550000I150000J0D01*
G01*
G37*
G36*
G01*
X122215000Y-87550000D02*
X122515000Y-87550000D01*
G75*
G02*
X122665000Y-87700000I0J-150000D01*
G01*
X122665000Y-89350000D01*
G75*
G02*
X122515000Y-89500000I-150000J0D01*
G01*
X122215000Y-89500000D01*
G75*
G02*
X122065000Y-89350000I0J150000D01*
G01*
X122065000Y-87700000D01*
G75*
G02*
X122215000Y-87550000I150000J0D01*
G01*
G37*
G36*
G01*
X123485000Y-87550000D02*
X123785000Y-87550000D01*
G75*
G02*
X123935000Y-87700000I0J-150000D01*
G01*
X123935000Y-89350000D01*
G75*
G02*
X123785000Y-89500000I-150000J0D01*
G01*
X123485000Y-89500000D01*
G75*
G02*
X123335000Y-89350000I0J150000D01*
G01*
X123335000Y-87700000D01*
G75*
G02*
X123485000Y-87550000I150000J0D01*
G01*
G37*
G36*
G01*
X124755000Y-87550000D02*
X125055000Y-87550000D01*
G75*
G02*
X125205000Y-87700000I0J-150000D01*
G01*
X125205000Y-89350000D01*
G75*
G02*
X125055000Y-89500000I-150000J0D01*
G01*
X124755000Y-89500000D01*
G75*
G02*
X124605000Y-89350000I0J150000D01*
G01*
X124605000Y-87700000D01*
G75*
G02*
X124755000Y-87550000I150000J0D01*
G01*
G37*
G36*
G01*
X126025000Y-87550000D02*
X126325000Y-87550000D01*
G75*
G02*
X126475000Y-87700000I0J-150000D01*
G01*
X126475000Y-89350000D01*
G75*
G02*
X126325000Y-89500000I-150000J0D01*
G01*
X126025000Y-89500000D01*
G75*
G02*
X125875000Y-89350000I0J150000D01*
G01*
X125875000Y-87700000D01*
G75*
G02*
X126025000Y-87550000I150000J0D01*
G01*
G37*
G36*
G01*
X127295000Y-87550000D02*
X127595000Y-87550000D01*
G75*
G02*
X127745000Y-87700000I0J-150000D01*
G01*
X127745000Y-89350000D01*
G75*
G02*
X127595000Y-89500000I-150000J0D01*
G01*
X127295000Y-89500000D01*
G75*
G02*
X127145000Y-89350000I0J150000D01*
G01*
X127145000Y-87700000D01*
G75*
G02*
X127295000Y-87550000I150000J0D01*
G01*
G37*
%TD*%
D12*
%TO.C,U3*%
X69000000Y-130100000D03*
X69000000Y-129150000D03*
X69000000Y-131050000D03*
X66800000Y-131050000D03*
X66800000Y-130100000D03*
X66800000Y-129150000D03*
%TD*%
%TO.C,U2*%
X75500000Y-144250000D03*
X75500000Y-142350000D03*
X77700000Y-142350000D03*
X77700000Y-143300000D03*
X77700000Y-144250000D03*
%TD*%
%TO.C,U1*%
G36*
G01*
X123285000Y-119935000D02*
X123915000Y-119935000D01*
G75*
G02*
X124165000Y-120185000I0J-250000D01*
G01*
X124165000Y-120815000D01*
G75*
G02*
X123915000Y-121065000I-250000J0D01*
G01*
X123285000Y-121065000D01*
G75*
G02*
X123035000Y-120815000I0J250000D01*
G01*
X123035000Y-120185000D01*
G75*
G02*
X123285000Y-119935000I250000J0D01*
G01*
G37*
G36*
G01*
X124685000Y-119935000D02*
X125315000Y-119935000D01*
G75*
G02*
X125565000Y-120185000I0J-250000D01*
G01*
X125565000Y-120815000D01*
G75*
G02*
X125315000Y-121065000I-250000J0D01*
G01*
X124685000Y-121065000D01*
G75*
G02*
X124435000Y-120815000I0J250000D01*
G01*
X124435000Y-120185000D01*
G75*
G02*
X124685000Y-119935000I250000J0D01*
G01*
G37*
G36*
G01*
X126085000Y-119935000D02*
X126715000Y-119935000D01*
G75*
G02*
X126965000Y-120185000I0J-250000D01*
G01*
X126965000Y-120815000D01*
G75*
G02*
X126715000Y-121065000I-250000J0D01*
G01*
X126085000Y-121065000D01*
G75*
G02*
X125835000Y-120815000I0J250000D01*
G01*
X125835000Y-120185000D01*
G75*
G02*
X126085000Y-119935000I250000J0D01*
G01*
G37*
G36*
G01*
X127485000Y-119935000D02*
X128115000Y-119935000D01*
G75*
G02*
X128365000Y-120185000I0J-250000D01*
G01*
X128365000Y-120815000D01*
G75*
G02*
X128115000Y-121065000I-250000J0D01*
G01*
X127485000Y-121065000D01*
G75*
G02*
X127235000Y-120815000I0J250000D01*
G01*
X127235000Y-120185000D01*
G75*
G02*
X127485000Y-119935000I250000J0D01*
G01*
G37*
G36*
G01*
X123285000Y-118535000D02*
X123915000Y-118535000D01*
G75*
G02*
X124165000Y-118785000I0J-250000D01*
G01*
X124165000Y-119415000D01*
G75*
G02*
X123915000Y-119665000I-250000J0D01*
G01*
X123285000Y-119665000D01*
G75*
G02*
X123035000Y-119415000I0J250000D01*
G01*
X123035000Y-118785000D01*
G75*
G02*
X123285000Y-118535000I250000J0D01*
G01*
G37*
G36*
G01*
X124685000Y-118535000D02*
X125315000Y-118535000D01*
G75*
G02*
X125565000Y-118785000I0J-250000D01*
G01*
X125565000Y-119415000D01*
G75*
G02*
X125315000Y-119665000I-250000J0D01*
G01*
X124685000Y-119665000D01*
G75*
G02*
X124435000Y-119415000I0J250000D01*
G01*
X124435000Y-118785000D01*
G75*
G02*
X124685000Y-118535000I250000J0D01*
G01*
G37*
G36*
G01*
X126085000Y-118535000D02*
X126715000Y-118535000D01*
G75*
G02*
X126965000Y-118785000I0J-250000D01*
G01*
X126965000Y-119415000D01*
G75*
G02*
X126715000Y-119665000I-250000J0D01*
G01*
X126085000Y-119665000D01*
G75*
G02*
X125835000Y-119415000I0J250000D01*
G01*
X125835000Y-118785000D01*
G75*
G02*
X126085000Y-118535000I250000J0D01*
G01*
G37*
G36*
G01*
X127485000Y-118535000D02*
X128115000Y-118535000D01*
G75*
G02*
X128365000Y-118785000I0J-250000D01*
G01*
X128365000Y-119415000D01*
G75*
G02*
X128115000Y-119665000I-250000J0D01*
G01*
X127485000Y-119665000D01*
G75*
G02*
X127235000Y-119415000I0J250000D01*
G01*
X127235000Y-118785000D01*
G75*
G02*
X127485000Y-118535000I250000J0D01*
G01*
G37*
G36*
G01*
X123285000Y-117135000D02*
X123915000Y-117135000D01*
G75*
G02*
X124165000Y-117385000I0J-250000D01*
G01*
X124165000Y-118015000D01*
G75*
G02*
X123915000Y-118265000I-250000J0D01*
G01*
X123285000Y-118265000D01*
G75*
G02*
X123035000Y-118015000I0J250000D01*
G01*
X123035000Y-117385000D01*
G75*
G02*
X123285000Y-117135000I250000J0D01*
G01*
G37*
G36*
G01*
X124685000Y-117135000D02*
X125315000Y-117135000D01*
G75*
G02*
X125565000Y-117385000I0J-250000D01*
G01*
X125565000Y-118015000D01*
G75*
G02*
X125315000Y-118265000I-250000J0D01*
G01*
X124685000Y-118265000D01*
G75*
G02*
X124435000Y-118015000I0J250000D01*
G01*
X124435000Y-117385000D01*
G75*
G02*
X124685000Y-117135000I250000J0D01*
G01*
G37*
G36*
G01*
X126085000Y-117135000D02*
X126715000Y-117135000D01*
G75*
G02*
X126965000Y-117385000I0J-250000D01*
G01*
X126965000Y-118015000D01*
G75*
G02*
X126715000Y-118265000I-250000J0D01*
G01*
X126085000Y-118265000D01*
G75*
G02*
X125835000Y-118015000I0J250000D01*
G01*
X125835000Y-117385000D01*
G75*
G02*
X126085000Y-117135000I250000J0D01*
G01*
G37*
G36*
G01*
X127485000Y-117135000D02*
X128115000Y-117135000D01*
G75*
G02*
X128365000Y-117385000I0J-250000D01*
G01*
X128365000Y-118015000D01*
G75*
G02*
X128115000Y-118265000I-250000J0D01*
G01*
X127485000Y-118265000D01*
G75*
G02*
X127235000Y-118015000I0J250000D01*
G01*
X127235000Y-117385000D01*
G75*
G02*
X127485000Y-117135000I250000J0D01*
G01*
G37*
G36*
G01*
X123285000Y-115735000D02*
X123915000Y-115735000D01*
G75*
G02*
X124165000Y-115985000I0J-250000D01*
G01*
X124165000Y-116615000D01*
G75*
G02*
X123915000Y-116865000I-250000J0D01*
G01*
X123285000Y-116865000D01*
G75*
G02*
X123035000Y-116615000I0J250000D01*
G01*
X123035000Y-115985000D01*
G75*
G02*
X123285000Y-115735000I250000J0D01*
G01*
G37*
G36*
G01*
X124685000Y-115735000D02*
X125315000Y-115735000D01*
G75*
G02*
X125565000Y-115985000I0J-250000D01*
G01*
X125565000Y-116615000D01*
G75*
G02*
X125315000Y-116865000I-250000J0D01*
G01*
X124685000Y-116865000D01*
G75*
G02*
X124435000Y-116615000I0J250000D01*
G01*
X124435000Y-115985000D01*
G75*
G02*
X124685000Y-115735000I250000J0D01*
G01*
G37*
G36*
G01*
X126085000Y-115735000D02*
X126715000Y-115735000D01*
G75*
G02*
X126965000Y-115985000I0J-250000D01*
G01*
X126965000Y-116615000D01*
G75*
G02*
X126715000Y-116865000I-250000J0D01*
G01*
X126085000Y-116865000D01*
G75*
G02*
X125835000Y-116615000I0J250000D01*
G01*
X125835000Y-115985000D01*
G75*
G02*
X126085000Y-115735000I250000J0D01*
G01*
G37*
G36*
G01*
X127485000Y-115735000D02*
X128115000Y-115735000D01*
G75*
G02*
X128365000Y-115985000I0J-250000D01*
G01*
X128365000Y-116615000D01*
G75*
G02*
X128115000Y-116865000I-250000J0D01*
G01*
X127485000Y-116865000D01*
G75*
G02*
X127235000Y-116615000I0J250000D01*
G01*
X127235000Y-115985000D01*
G75*
G02*
X127485000Y-115735000I250000J0D01*
G01*
G37*
G36*
G01*
X128762500Y-115525000D02*
X129512500Y-115525000D01*
G75*
G02*
X129575000Y-115587500I0J-62500D01*
G01*
X129575000Y-115712500D01*
G75*
G02*
X129512500Y-115775000I-62500J0D01*
G01*
X128762500Y-115775000D01*
G75*
G02*
X128700000Y-115712500I0J62500D01*
G01*
X128700000Y-115587500D01*
G75*
G02*
X128762500Y-115525000I62500J0D01*
G01*
G37*
G36*
G01*
X128762500Y-116025000D02*
X129512500Y-116025000D01*
G75*
G02*
X129575000Y-116087500I0J-62500D01*
G01*
X129575000Y-116212500D01*
G75*
G02*
X129512500Y-116275000I-62500J0D01*
G01*
X128762500Y-116275000D01*
G75*
G02*
X128700000Y-116212500I0J62500D01*
G01*
X128700000Y-116087500D01*
G75*
G02*
X128762500Y-116025000I62500J0D01*
G01*
G37*
G36*
G01*
X128762500Y-116525000D02*
X129512500Y-116525000D01*
G75*
G02*
X129575000Y-116587500I0J-62500D01*
G01*
X129575000Y-116712500D01*
G75*
G02*
X129512500Y-116775000I-62500J0D01*
G01*
X128762500Y-116775000D01*
G75*
G02*
X128700000Y-116712500I0J62500D01*
G01*
X128700000Y-116587500D01*
G75*
G02*
X128762500Y-116525000I62500J0D01*
G01*
G37*
G36*
G01*
X128762500Y-117025000D02*
X129512500Y-117025000D01*
G75*
G02*
X129575000Y-117087500I0J-62500D01*
G01*
X129575000Y-117212500D01*
G75*
G02*
X129512500Y-117275000I-62500J0D01*
G01*
X128762500Y-117275000D01*
G75*
G02*
X128700000Y-117212500I0J62500D01*
G01*
X128700000Y-117087500D01*
G75*
G02*
X128762500Y-117025000I62500J0D01*
G01*
G37*
G36*
G01*
X128762500Y-117525000D02*
X129512500Y-117525000D01*
G75*
G02*
X129575000Y-117587500I0J-62500D01*
G01*
X129575000Y-117712500D01*
G75*
G02*
X129512500Y-117775000I-62500J0D01*
G01*
X128762500Y-117775000D01*
G75*
G02*
X128700000Y-117712500I0J62500D01*
G01*
X128700000Y-117587500D01*
G75*
G02*
X128762500Y-117525000I62500J0D01*
G01*
G37*
G36*
G01*
X128762500Y-118025000D02*
X129512500Y-118025000D01*
G75*
G02*
X129575000Y-118087500I0J-62500D01*
G01*
X129575000Y-118212500D01*
G75*
G02*
X129512500Y-118275000I-62500J0D01*
G01*
X128762500Y-118275000D01*
G75*
G02*
X128700000Y-118212500I0J62500D01*
G01*
X128700000Y-118087500D01*
G75*
G02*
X128762500Y-118025000I62500J0D01*
G01*
G37*
G36*
G01*
X128762500Y-118525000D02*
X129512500Y-118525000D01*
G75*
G02*
X129575000Y-118587500I0J-62500D01*
G01*
X129575000Y-118712500D01*
G75*
G02*
X129512500Y-118775000I-62500J0D01*
G01*
X128762500Y-118775000D01*
G75*
G02*
X128700000Y-118712500I0J62500D01*
G01*
X128700000Y-118587500D01*
G75*
G02*
X128762500Y-118525000I62500J0D01*
G01*
G37*
G36*
G01*
X128762500Y-119025000D02*
X129512500Y-119025000D01*
G75*
G02*
X129575000Y-119087500I0J-62500D01*
G01*
X129575000Y-119212500D01*
G75*
G02*
X129512500Y-119275000I-62500J0D01*
G01*
X128762500Y-119275000D01*
G75*
G02*
X128700000Y-119212500I0J62500D01*
G01*
X128700000Y-119087500D01*
G75*
G02*
X128762500Y-119025000I62500J0D01*
G01*
G37*
G36*
G01*
X128762500Y-119525000D02*
X129512500Y-119525000D01*
G75*
G02*
X129575000Y-119587500I0J-62500D01*
G01*
X129575000Y-119712500D01*
G75*
G02*
X129512500Y-119775000I-62500J0D01*
G01*
X128762500Y-119775000D01*
G75*
G02*
X128700000Y-119712500I0J62500D01*
G01*
X128700000Y-119587500D01*
G75*
G02*
X128762500Y-119525000I62500J0D01*
G01*
G37*
G36*
G01*
X128762500Y-120025000D02*
X129512500Y-120025000D01*
G75*
G02*
X129575000Y-120087500I0J-62500D01*
G01*
X129575000Y-120212500D01*
G75*
G02*
X129512500Y-120275000I-62500J0D01*
G01*
X128762500Y-120275000D01*
G75*
G02*
X128700000Y-120212500I0J62500D01*
G01*
X128700000Y-120087500D01*
G75*
G02*
X128762500Y-120025000I62500J0D01*
G01*
G37*
G36*
G01*
X128762500Y-120525000D02*
X129512500Y-120525000D01*
G75*
G02*
X129575000Y-120587500I0J-62500D01*
G01*
X129575000Y-120712500D01*
G75*
G02*
X129512500Y-120775000I-62500J0D01*
G01*
X128762500Y-120775000D01*
G75*
G02*
X128700000Y-120712500I0J62500D01*
G01*
X128700000Y-120587500D01*
G75*
G02*
X128762500Y-120525000I62500J0D01*
G01*
G37*
G36*
G01*
X128762500Y-121025000D02*
X129512500Y-121025000D01*
G75*
G02*
X129575000Y-121087500I0J-62500D01*
G01*
X129575000Y-121212500D01*
G75*
G02*
X129512500Y-121275000I-62500J0D01*
G01*
X128762500Y-121275000D01*
G75*
G02*
X128700000Y-121212500I0J62500D01*
G01*
X128700000Y-121087500D01*
G75*
G02*
X128762500Y-121025000I62500J0D01*
G01*
G37*
G36*
G01*
X128387500Y-121400000D02*
X128512500Y-121400000D01*
G75*
G02*
X128575000Y-121462500I0J-62500D01*
G01*
X128575000Y-122212500D01*
G75*
G02*
X128512500Y-122275000I-62500J0D01*
G01*
X128387500Y-122275000D01*
G75*
G02*
X128325000Y-122212500I0J62500D01*
G01*
X128325000Y-121462500D01*
G75*
G02*
X128387500Y-121400000I62500J0D01*
G01*
G37*
G36*
G01*
X127887500Y-121400000D02*
X128012500Y-121400000D01*
G75*
G02*
X128075000Y-121462500I0J-62500D01*
G01*
X128075000Y-122212500D01*
G75*
G02*
X128012500Y-122275000I-62500J0D01*
G01*
X127887500Y-122275000D01*
G75*
G02*
X127825000Y-122212500I0J62500D01*
G01*
X127825000Y-121462500D01*
G75*
G02*
X127887500Y-121400000I62500J0D01*
G01*
G37*
G36*
G01*
X127387500Y-121400000D02*
X127512500Y-121400000D01*
G75*
G02*
X127575000Y-121462500I0J-62500D01*
G01*
X127575000Y-122212500D01*
G75*
G02*
X127512500Y-122275000I-62500J0D01*
G01*
X127387500Y-122275000D01*
G75*
G02*
X127325000Y-122212500I0J62500D01*
G01*
X127325000Y-121462500D01*
G75*
G02*
X127387500Y-121400000I62500J0D01*
G01*
G37*
G36*
G01*
X126887500Y-121400000D02*
X127012500Y-121400000D01*
G75*
G02*
X127075000Y-121462500I0J-62500D01*
G01*
X127075000Y-122212500D01*
G75*
G02*
X127012500Y-122275000I-62500J0D01*
G01*
X126887500Y-122275000D01*
G75*
G02*
X126825000Y-122212500I0J62500D01*
G01*
X126825000Y-121462500D01*
G75*
G02*
X126887500Y-121400000I62500J0D01*
G01*
G37*
G36*
G01*
X126387500Y-121400000D02*
X126512500Y-121400000D01*
G75*
G02*
X126575000Y-121462500I0J-62500D01*
G01*
X126575000Y-122212500D01*
G75*
G02*
X126512500Y-122275000I-62500J0D01*
G01*
X126387500Y-122275000D01*
G75*
G02*
X126325000Y-122212500I0J62500D01*
G01*
X126325000Y-121462500D01*
G75*
G02*
X126387500Y-121400000I62500J0D01*
G01*
G37*
G36*
G01*
X125887500Y-121400000D02*
X126012500Y-121400000D01*
G75*
G02*
X126075000Y-121462500I0J-62500D01*
G01*
X126075000Y-122212500D01*
G75*
G02*
X126012500Y-122275000I-62500J0D01*
G01*
X125887500Y-122275000D01*
G75*
G02*
X125825000Y-122212500I0J62500D01*
G01*
X125825000Y-121462500D01*
G75*
G02*
X125887500Y-121400000I62500J0D01*
G01*
G37*
G36*
G01*
X125387500Y-121400000D02*
X125512500Y-121400000D01*
G75*
G02*
X125575000Y-121462500I0J-62500D01*
G01*
X125575000Y-122212500D01*
G75*
G02*
X125512500Y-122275000I-62500J0D01*
G01*
X125387500Y-122275000D01*
G75*
G02*
X125325000Y-122212500I0J62500D01*
G01*
X125325000Y-121462500D01*
G75*
G02*
X125387500Y-121400000I62500J0D01*
G01*
G37*
G36*
G01*
X124887500Y-121400000D02*
X125012500Y-121400000D01*
G75*
G02*
X125075000Y-121462500I0J-62500D01*
G01*
X125075000Y-122212500D01*
G75*
G02*
X125012500Y-122275000I-62500J0D01*
G01*
X124887500Y-122275000D01*
G75*
G02*
X124825000Y-122212500I0J62500D01*
G01*
X124825000Y-121462500D01*
G75*
G02*
X124887500Y-121400000I62500J0D01*
G01*
G37*
G36*
G01*
X124387500Y-121400000D02*
X124512500Y-121400000D01*
G75*
G02*
X124575000Y-121462500I0J-62500D01*
G01*
X124575000Y-122212500D01*
G75*
G02*
X124512500Y-122275000I-62500J0D01*
G01*
X124387500Y-122275000D01*
G75*
G02*
X124325000Y-122212500I0J62500D01*
G01*
X124325000Y-121462500D01*
G75*
G02*
X124387500Y-121400000I62500J0D01*
G01*
G37*
G36*
G01*
X123887500Y-121400000D02*
X124012500Y-121400000D01*
G75*
G02*
X124075000Y-121462500I0J-62500D01*
G01*
X124075000Y-122212500D01*
G75*
G02*
X124012500Y-122275000I-62500J0D01*
G01*
X123887500Y-122275000D01*
G75*
G02*
X123825000Y-122212500I0J62500D01*
G01*
X123825000Y-121462500D01*
G75*
G02*
X123887500Y-121400000I62500J0D01*
G01*
G37*
G36*
G01*
X123387500Y-121400000D02*
X123512500Y-121400000D01*
G75*
G02*
X123575000Y-121462500I0J-62500D01*
G01*
X123575000Y-122212500D01*
G75*
G02*
X123512500Y-122275000I-62500J0D01*
G01*
X123387500Y-122275000D01*
G75*
G02*
X123325000Y-122212500I0J62500D01*
G01*
X123325000Y-121462500D01*
G75*
G02*
X123387500Y-121400000I62500J0D01*
G01*
G37*
G36*
G01*
X122887500Y-121400000D02*
X123012500Y-121400000D01*
G75*
G02*
X123075000Y-121462500I0J-62500D01*
G01*
X123075000Y-122212500D01*
G75*
G02*
X123012500Y-122275000I-62500J0D01*
G01*
X122887500Y-122275000D01*
G75*
G02*
X122825000Y-122212500I0J62500D01*
G01*
X122825000Y-121462500D01*
G75*
G02*
X122887500Y-121400000I62500J0D01*
G01*
G37*
G36*
G01*
X121887500Y-121025000D02*
X122637500Y-121025000D01*
G75*
G02*
X122700000Y-121087500I0J-62500D01*
G01*
X122700000Y-121212500D01*
G75*
G02*
X122637500Y-121275000I-62500J0D01*
G01*
X121887500Y-121275000D01*
G75*
G02*
X121825000Y-121212500I0J62500D01*
G01*
X121825000Y-121087500D01*
G75*
G02*
X121887500Y-121025000I62500J0D01*
G01*
G37*
G36*
G01*
X121887500Y-120525000D02*
X122637500Y-120525000D01*
G75*
G02*
X122700000Y-120587500I0J-62500D01*
G01*
X122700000Y-120712500D01*
G75*
G02*
X122637500Y-120775000I-62500J0D01*
G01*
X121887500Y-120775000D01*
G75*
G02*
X121825000Y-120712500I0J62500D01*
G01*
X121825000Y-120587500D01*
G75*
G02*
X121887500Y-120525000I62500J0D01*
G01*
G37*
G36*
G01*
X121887500Y-120025000D02*
X122637500Y-120025000D01*
G75*
G02*
X122700000Y-120087500I0J-62500D01*
G01*
X122700000Y-120212500D01*
G75*
G02*
X122637500Y-120275000I-62500J0D01*
G01*
X121887500Y-120275000D01*
G75*
G02*
X121825000Y-120212500I0J62500D01*
G01*
X121825000Y-120087500D01*
G75*
G02*
X121887500Y-120025000I62500J0D01*
G01*
G37*
G36*
G01*
X121887500Y-119525000D02*
X122637500Y-119525000D01*
G75*
G02*
X122700000Y-119587500I0J-62500D01*
G01*
X122700000Y-119712500D01*
G75*
G02*
X122637500Y-119775000I-62500J0D01*
G01*
X121887500Y-119775000D01*
G75*
G02*
X121825000Y-119712500I0J62500D01*
G01*
X121825000Y-119587500D01*
G75*
G02*
X121887500Y-119525000I62500J0D01*
G01*
G37*
G36*
G01*
X121887500Y-119025000D02*
X122637500Y-119025000D01*
G75*
G02*
X122700000Y-119087500I0J-62500D01*
G01*
X122700000Y-119212500D01*
G75*
G02*
X122637500Y-119275000I-62500J0D01*
G01*
X121887500Y-119275000D01*
G75*
G02*
X121825000Y-119212500I0J62500D01*
G01*
X121825000Y-119087500D01*
G75*
G02*
X121887500Y-119025000I62500J0D01*
G01*
G37*
G36*
G01*
X121887500Y-118525000D02*
X122637500Y-118525000D01*
G75*
G02*
X122700000Y-118587500I0J-62500D01*
G01*
X122700000Y-118712500D01*
G75*
G02*
X122637500Y-118775000I-62500J0D01*
G01*
X121887500Y-118775000D01*
G75*
G02*
X121825000Y-118712500I0J62500D01*
G01*
X121825000Y-118587500D01*
G75*
G02*
X121887500Y-118525000I62500J0D01*
G01*
G37*
G36*
G01*
X121887500Y-118025000D02*
X122637500Y-118025000D01*
G75*
G02*
X122700000Y-118087500I0J-62500D01*
G01*
X122700000Y-118212500D01*
G75*
G02*
X122637500Y-118275000I-62500J0D01*
G01*
X121887500Y-118275000D01*
G75*
G02*
X121825000Y-118212500I0J62500D01*
G01*
X121825000Y-118087500D01*
G75*
G02*
X121887500Y-118025000I62500J0D01*
G01*
G37*
G36*
G01*
X121887500Y-117525000D02*
X122637500Y-117525000D01*
G75*
G02*
X122700000Y-117587500I0J-62500D01*
G01*
X122700000Y-117712500D01*
G75*
G02*
X122637500Y-117775000I-62500J0D01*
G01*
X121887500Y-117775000D01*
G75*
G02*
X121825000Y-117712500I0J62500D01*
G01*
X121825000Y-117587500D01*
G75*
G02*
X121887500Y-117525000I62500J0D01*
G01*
G37*
G36*
G01*
X121887500Y-117025000D02*
X122637500Y-117025000D01*
G75*
G02*
X122700000Y-117087500I0J-62500D01*
G01*
X122700000Y-117212500D01*
G75*
G02*
X122637500Y-117275000I-62500J0D01*
G01*
X121887500Y-117275000D01*
G75*
G02*
X121825000Y-117212500I0J62500D01*
G01*
X121825000Y-117087500D01*
G75*
G02*
X121887500Y-117025000I62500J0D01*
G01*
G37*
G36*
G01*
X121887500Y-116525000D02*
X122637500Y-116525000D01*
G75*
G02*
X122700000Y-116587500I0J-62500D01*
G01*
X122700000Y-116712500D01*
G75*
G02*
X122637500Y-116775000I-62500J0D01*
G01*
X121887500Y-116775000D01*
G75*
G02*
X121825000Y-116712500I0J62500D01*
G01*
X121825000Y-116587500D01*
G75*
G02*
X121887500Y-116525000I62500J0D01*
G01*
G37*
G36*
G01*
X121887500Y-116025000D02*
X122637500Y-116025000D01*
G75*
G02*
X122700000Y-116087500I0J-62500D01*
G01*
X122700000Y-116212500D01*
G75*
G02*
X122637500Y-116275000I-62500J0D01*
G01*
X121887500Y-116275000D01*
G75*
G02*
X121825000Y-116212500I0J62500D01*
G01*
X121825000Y-116087500D01*
G75*
G02*
X121887500Y-116025000I62500J0D01*
G01*
G37*
G36*
G01*
X121887500Y-115525000D02*
X122637500Y-115525000D01*
G75*
G02*
X122700000Y-115587500I0J-62500D01*
G01*
X122700000Y-115712500D01*
G75*
G02*
X122637500Y-115775000I-62500J0D01*
G01*
X121887500Y-115775000D01*
G75*
G02*
X121825000Y-115712500I0J62500D01*
G01*
X121825000Y-115587500D01*
G75*
G02*
X121887500Y-115525000I62500J0D01*
G01*
G37*
G36*
G01*
X122887500Y-114525000D02*
X123012500Y-114525000D01*
G75*
G02*
X123075000Y-114587500I0J-62500D01*
G01*
X123075000Y-115337500D01*
G75*
G02*
X123012500Y-115400000I-62500J0D01*
G01*
X122887500Y-115400000D01*
G75*
G02*
X122825000Y-115337500I0J62500D01*
G01*
X122825000Y-114587500D01*
G75*
G02*
X122887500Y-114525000I62500J0D01*
G01*
G37*
G36*
G01*
X123387500Y-114525000D02*
X123512500Y-114525000D01*
G75*
G02*
X123575000Y-114587500I0J-62500D01*
G01*
X123575000Y-115337500D01*
G75*
G02*
X123512500Y-115400000I-62500J0D01*
G01*
X123387500Y-115400000D01*
G75*
G02*
X123325000Y-115337500I0J62500D01*
G01*
X123325000Y-114587500D01*
G75*
G02*
X123387500Y-114525000I62500J0D01*
G01*
G37*
G36*
G01*
X123887500Y-114525000D02*
X124012500Y-114525000D01*
G75*
G02*
X124075000Y-114587500I0J-62500D01*
G01*
X124075000Y-115337500D01*
G75*
G02*
X124012500Y-115400000I-62500J0D01*
G01*
X123887500Y-115400000D01*
G75*
G02*
X123825000Y-115337500I0J62500D01*
G01*
X123825000Y-114587500D01*
G75*
G02*
X123887500Y-114525000I62500J0D01*
G01*
G37*
G36*
G01*
X124387500Y-114525000D02*
X124512500Y-114525000D01*
G75*
G02*
X124575000Y-114587500I0J-62500D01*
G01*
X124575000Y-115337500D01*
G75*
G02*
X124512500Y-115400000I-62500J0D01*
G01*
X124387500Y-115400000D01*
G75*
G02*
X124325000Y-115337500I0J62500D01*
G01*
X124325000Y-114587500D01*
G75*
G02*
X124387500Y-114525000I62500J0D01*
G01*
G37*
G36*
G01*
X124887500Y-114525000D02*
X125012500Y-114525000D01*
G75*
G02*
X125075000Y-114587500I0J-62500D01*
G01*
X125075000Y-115337500D01*
G75*
G02*
X125012500Y-115400000I-62500J0D01*
G01*
X124887500Y-115400000D01*
G75*
G02*
X124825000Y-115337500I0J62500D01*
G01*
X124825000Y-114587500D01*
G75*
G02*
X124887500Y-114525000I62500J0D01*
G01*
G37*
G36*
G01*
X125387500Y-114525000D02*
X125512500Y-114525000D01*
G75*
G02*
X125575000Y-114587500I0J-62500D01*
G01*
X125575000Y-115337500D01*
G75*
G02*
X125512500Y-115400000I-62500J0D01*
G01*
X125387500Y-115400000D01*
G75*
G02*
X125325000Y-115337500I0J62500D01*
G01*
X125325000Y-114587500D01*
G75*
G02*
X125387500Y-114525000I62500J0D01*
G01*
G37*
G36*
G01*
X125887500Y-114525000D02*
X126012500Y-114525000D01*
G75*
G02*
X126075000Y-114587500I0J-62500D01*
G01*
X126075000Y-115337500D01*
G75*
G02*
X126012500Y-115400000I-62500J0D01*
G01*
X125887500Y-115400000D01*
G75*
G02*
X125825000Y-115337500I0J62500D01*
G01*
X125825000Y-114587500D01*
G75*
G02*
X125887500Y-114525000I62500J0D01*
G01*
G37*
G36*
G01*
X126387500Y-114525000D02*
X126512500Y-114525000D01*
G75*
G02*
X126575000Y-114587500I0J-62500D01*
G01*
X126575000Y-115337500D01*
G75*
G02*
X126512500Y-115400000I-62500J0D01*
G01*
X126387500Y-115400000D01*
G75*
G02*
X126325000Y-115337500I0J62500D01*
G01*
X126325000Y-114587500D01*
G75*
G02*
X126387500Y-114525000I62500J0D01*
G01*
G37*
G36*
G01*
X126887500Y-114525000D02*
X127012500Y-114525000D01*
G75*
G02*
X127075000Y-114587500I0J-62500D01*
G01*
X127075000Y-115337500D01*
G75*
G02*
X127012500Y-115400000I-62500J0D01*
G01*
X126887500Y-115400000D01*
G75*
G02*
X126825000Y-115337500I0J62500D01*
G01*
X126825000Y-114587500D01*
G75*
G02*
X126887500Y-114525000I62500J0D01*
G01*
G37*
G36*
G01*
X127387500Y-114525000D02*
X127512500Y-114525000D01*
G75*
G02*
X127575000Y-114587500I0J-62500D01*
G01*
X127575000Y-115337500D01*
G75*
G02*
X127512500Y-115400000I-62500J0D01*
G01*
X127387500Y-115400000D01*
G75*
G02*
X127325000Y-115337500I0J62500D01*
G01*
X127325000Y-114587500D01*
G75*
G02*
X127387500Y-114525000I62500J0D01*
G01*
G37*
G36*
G01*
X127887500Y-114525000D02*
X128012500Y-114525000D01*
G75*
G02*
X128075000Y-114587500I0J-62500D01*
G01*
X128075000Y-115337500D01*
G75*
G02*
X128012500Y-115400000I-62500J0D01*
G01*
X127887500Y-115400000D01*
G75*
G02*
X127825000Y-115337500I0J62500D01*
G01*
X127825000Y-114587500D01*
G75*
G02*
X127887500Y-114525000I62500J0D01*
G01*
G37*
G36*
G01*
X128387500Y-114525000D02*
X128512500Y-114525000D01*
G75*
G02*
X128575000Y-114587500I0J-62500D01*
G01*
X128575000Y-115337500D01*
G75*
G02*
X128512500Y-115400000I-62500J0D01*
G01*
X128387500Y-115400000D01*
G75*
G02*
X128325000Y-115337500I0J62500D01*
G01*
X128325000Y-114587500D01*
G75*
G02*
X128387500Y-114525000I62500J0D01*
G01*
G37*
%TD*%
D13*
%TO.C,SW3*%
X102375000Y-112400000D03*
X107625000Y-112400000D03*
X102375000Y-115600000D03*
X107625000Y-115600000D03*
%TD*%
%TO.C,SW2*%
X87375000Y-112400000D03*
X92625000Y-112400000D03*
X87375000Y-115600000D03*
X92625000Y-115600000D03*
%TD*%
%TO.C,SW1*%
X133625000Y-145600000D03*
X128375000Y-145600000D03*
X133625000Y-142400000D03*
X128375000Y-142400000D03*
%TD*%
%TO.C,R57*%
G36*
G01*
X75350000Y-81256250D02*
X75350000Y-80743750D01*
G75*
G02*
X75568750Y-80525000I218750J0D01*
G01*
X76006250Y-80525000D01*
G75*
G02*
X76225000Y-80743750I0J-218750D01*
G01*
X76225000Y-81256250D01*
G75*
G02*
X76006250Y-81475000I-218750J0D01*
G01*
X75568750Y-81475000D01*
G75*
G02*
X75350000Y-81256250I0J218750D01*
G01*
G37*
G36*
G01*
X73775000Y-81256250D02*
X73775000Y-80743750D01*
G75*
G02*
X73993750Y-80525000I218750J0D01*
G01*
X74431250Y-80525000D01*
G75*
G02*
X74650000Y-80743750I0J-218750D01*
G01*
X74650000Y-81256250D01*
G75*
G02*
X74431250Y-81475000I-218750J0D01*
G01*
X73993750Y-81475000D01*
G75*
G02*
X73775000Y-81256250I0J218750D01*
G01*
G37*
%TD*%
%TO.C,R56*%
G36*
G01*
X90350000Y-81256250D02*
X90350000Y-80743750D01*
G75*
G02*
X90568750Y-80525000I218750J0D01*
G01*
X91006250Y-80525000D01*
G75*
G02*
X91225000Y-80743750I0J-218750D01*
G01*
X91225000Y-81256250D01*
G75*
G02*
X91006250Y-81475000I-218750J0D01*
G01*
X90568750Y-81475000D01*
G75*
G02*
X90350000Y-81256250I0J218750D01*
G01*
G37*
G36*
G01*
X88775000Y-81256250D02*
X88775000Y-80743750D01*
G75*
G02*
X88993750Y-80525000I218750J0D01*
G01*
X89431250Y-80525000D01*
G75*
G02*
X89650000Y-80743750I0J-218750D01*
G01*
X89650000Y-81256250D01*
G75*
G02*
X89431250Y-81475000I-218750J0D01*
G01*
X88993750Y-81475000D01*
G75*
G02*
X88775000Y-81256250I0J218750D01*
G01*
G37*
%TD*%
%TO.C,R55*%
G36*
G01*
X105350000Y-81256250D02*
X105350000Y-80743750D01*
G75*
G02*
X105568750Y-80525000I218750J0D01*
G01*
X106006250Y-80525000D01*
G75*
G02*
X106225000Y-80743750I0J-218750D01*
G01*
X106225000Y-81256250D01*
G75*
G02*
X106006250Y-81475000I-218750J0D01*
G01*
X105568750Y-81475000D01*
G75*
G02*
X105350000Y-81256250I0J218750D01*
G01*
G37*
G36*
G01*
X103775000Y-81256250D02*
X103775000Y-80743750D01*
G75*
G02*
X103993750Y-80525000I218750J0D01*
G01*
X104431250Y-80525000D01*
G75*
G02*
X104650000Y-80743750I0J-218750D01*
G01*
X104650000Y-81256250D01*
G75*
G02*
X104431250Y-81475000I-218750J0D01*
G01*
X103993750Y-81475000D01*
G75*
G02*
X103775000Y-81256250I0J218750D01*
G01*
G37*
%TD*%
%TO.C,R54*%
G36*
G01*
X75350000Y-78256250D02*
X75350000Y-77743750D01*
G75*
G02*
X75568750Y-77525000I218750J0D01*
G01*
X76006250Y-77525000D01*
G75*
G02*
X76225000Y-77743750I0J-218750D01*
G01*
X76225000Y-78256250D01*
G75*
G02*
X76006250Y-78475000I-218750J0D01*
G01*
X75568750Y-78475000D01*
G75*
G02*
X75350000Y-78256250I0J218750D01*
G01*
G37*
G36*
G01*
X73775000Y-78256250D02*
X73775000Y-77743750D01*
G75*
G02*
X73993750Y-77525000I218750J0D01*
G01*
X74431250Y-77525000D01*
G75*
G02*
X74650000Y-77743750I0J-218750D01*
G01*
X74650000Y-78256250D01*
G75*
G02*
X74431250Y-78475000I-218750J0D01*
G01*
X73993750Y-78475000D01*
G75*
G02*
X73775000Y-78256250I0J218750D01*
G01*
G37*
%TD*%
%TO.C,R53*%
G36*
G01*
X90350000Y-78456250D02*
X90350000Y-77943750D01*
G75*
G02*
X90568750Y-77725000I218750J0D01*
G01*
X91006250Y-77725000D01*
G75*
G02*
X91225000Y-77943750I0J-218750D01*
G01*
X91225000Y-78456250D01*
G75*
G02*
X91006250Y-78675000I-218750J0D01*
G01*
X90568750Y-78675000D01*
G75*
G02*
X90350000Y-78456250I0J218750D01*
G01*
G37*
G36*
G01*
X88775000Y-78456250D02*
X88775000Y-77943750D01*
G75*
G02*
X88993750Y-77725000I218750J0D01*
G01*
X89431250Y-77725000D01*
G75*
G02*
X89650000Y-77943750I0J-218750D01*
G01*
X89650000Y-78456250D01*
G75*
G02*
X89431250Y-78675000I-218750J0D01*
G01*
X88993750Y-78675000D01*
G75*
G02*
X88775000Y-78456250I0J218750D01*
G01*
G37*
%TD*%
%TO.C,R52*%
G36*
G01*
X105350000Y-78256250D02*
X105350000Y-77743750D01*
G75*
G02*
X105568750Y-77525000I218750J0D01*
G01*
X106006250Y-77525000D01*
G75*
G02*
X106225000Y-77743750I0J-218750D01*
G01*
X106225000Y-78256250D01*
G75*
G02*
X106006250Y-78475000I-218750J0D01*
G01*
X105568750Y-78475000D01*
G75*
G02*
X105350000Y-78256250I0J218750D01*
G01*
G37*
G36*
G01*
X103775000Y-78256250D02*
X103775000Y-77743750D01*
G75*
G02*
X103993750Y-77525000I218750J0D01*
G01*
X104431250Y-77525000D01*
G75*
G02*
X104650000Y-77743750I0J-218750D01*
G01*
X104650000Y-78256250D01*
G75*
G02*
X104431250Y-78475000I-218750J0D01*
G01*
X103993750Y-78475000D01*
G75*
G02*
X103775000Y-78256250I0J218750D01*
G01*
G37*
%TD*%
%TO.C,R51*%
G36*
G01*
X75350000Y-75256250D02*
X75350000Y-74743750D01*
G75*
G02*
X75568750Y-74525000I218750J0D01*
G01*
X76006250Y-74525000D01*
G75*
G02*
X76225000Y-74743750I0J-218750D01*
G01*
X76225000Y-75256250D01*
G75*
G02*
X76006250Y-75475000I-218750J0D01*
G01*
X75568750Y-75475000D01*
G75*
G02*
X75350000Y-75256250I0J218750D01*
G01*
G37*
G36*
G01*
X73775000Y-75256250D02*
X73775000Y-74743750D01*
G75*
G02*
X73993750Y-74525000I218750J0D01*
G01*
X74431250Y-74525000D01*
G75*
G02*
X74650000Y-74743750I0J-218750D01*
G01*
X74650000Y-75256250D01*
G75*
G02*
X74431250Y-75475000I-218750J0D01*
G01*
X73993750Y-75475000D01*
G75*
G02*
X73775000Y-75256250I0J218750D01*
G01*
G37*
%TD*%
%TO.C,R50*%
G36*
G01*
X90350000Y-75256250D02*
X90350000Y-74743750D01*
G75*
G02*
X90568750Y-74525000I218750J0D01*
G01*
X91006250Y-74525000D01*
G75*
G02*
X91225000Y-74743750I0J-218750D01*
G01*
X91225000Y-75256250D01*
G75*
G02*
X91006250Y-75475000I-218750J0D01*
G01*
X90568750Y-75475000D01*
G75*
G02*
X90350000Y-75256250I0J218750D01*
G01*
G37*
G36*
G01*
X88775000Y-75256250D02*
X88775000Y-74743750D01*
G75*
G02*
X88993750Y-74525000I218750J0D01*
G01*
X89431250Y-74525000D01*
G75*
G02*
X89650000Y-74743750I0J-218750D01*
G01*
X89650000Y-75256250D01*
G75*
G02*
X89431250Y-75475000I-218750J0D01*
G01*
X88993750Y-75475000D01*
G75*
G02*
X88775000Y-75256250I0J218750D01*
G01*
G37*
%TD*%
%TO.C,R49*%
G36*
G01*
X105350000Y-75256250D02*
X105350000Y-74743750D01*
G75*
G02*
X105568750Y-74525000I218750J0D01*
G01*
X106006250Y-74525000D01*
G75*
G02*
X106225000Y-74743750I0J-218750D01*
G01*
X106225000Y-75256250D01*
G75*
G02*
X106006250Y-75475000I-218750J0D01*
G01*
X105568750Y-75475000D01*
G75*
G02*
X105350000Y-75256250I0J218750D01*
G01*
G37*
G36*
G01*
X103775000Y-75256250D02*
X103775000Y-74743750D01*
G75*
G02*
X103993750Y-74525000I218750J0D01*
G01*
X104431250Y-74525000D01*
G75*
G02*
X104650000Y-74743750I0J-218750D01*
G01*
X104650000Y-75256250D01*
G75*
G02*
X104431250Y-75475000I-218750J0D01*
G01*
X103993750Y-75475000D01*
G75*
G02*
X103775000Y-75256250I0J218750D01*
G01*
G37*
%TD*%
%TO.C,R48*%
G36*
G01*
X75350000Y-72256250D02*
X75350000Y-71743750D01*
G75*
G02*
X75568750Y-71525000I218750J0D01*
G01*
X76006250Y-71525000D01*
G75*
G02*
X76225000Y-71743750I0J-218750D01*
G01*
X76225000Y-72256250D01*
G75*
G02*
X76006250Y-72475000I-218750J0D01*
G01*
X75568750Y-72475000D01*
G75*
G02*
X75350000Y-72256250I0J218750D01*
G01*
G37*
G36*
G01*
X73775000Y-72256250D02*
X73775000Y-71743750D01*
G75*
G02*
X73993750Y-71525000I218750J0D01*
G01*
X74431250Y-71525000D01*
G75*
G02*
X74650000Y-71743750I0J-218750D01*
G01*
X74650000Y-72256250D01*
G75*
G02*
X74431250Y-72475000I-218750J0D01*
G01*
X73993750Y-72475000D01*
G75*
G02*
X73775000Y-72256250I0J218750D01*
G01*
G37*
%TD*%
%TO.C,R47*%
G36*
G01*
X90350000Y-72256250D02*
X90350000Y-71743750D01*
G75*
G02*
X90568750Y-71525000I218750J0D01*
G01*
X91006250Y-71525000D01*
G75*
G02*
X91225000Y-71743750I0J-218750D01*
G01*
X91225000Y-72256250D01*
G75*
G02*
X91006250Y-72475000I-218750J0D01*
G01*
X90568750Y-72475000D01*
G75*
G02*
X90350000Y-72256250I0J218750D01*
G01*
G37*
G36*
G01*
X88775000Y-72256250D02*
X88775000Y-71743750D01*
G75*
G02*
X88993750Y-71525000I218750J0D01*
G01*
X89431250Y-71525000D01*
G75*
G02*
X89650000Y-71743750I0J-218750D01*
G01*
X89650000Y-72256250D01*
G75*
G02*
X89431250Y-72475000I-218750J0D01*
G01*
X88993750Y-72475000D01*
G75*
G02*
X88775000Y-72256250I0J218750D01*
G01*
G37*
%TD*%
%TO.C,R46*%
G36*
G01*
X105350000Y-72256250D02*
X105350000Y-71743750D01*
G75*
G02*
X105568750Y-71525000I218750J0D01*
G01*
X106006250Y-71525000D01*
G75*
G02*
X106225000Y-71743750I0J-218750D01*
G01*
X106225000Y-72256250D01*
G75*
G02*
X106006250Y-72475000I-218750J0D01*
G01*
X105568750Y-72475000D01*
G75*
G02*
X105350000Y-72256250I0J218750D01*
G01*
G37*
G36*
G01*
X103775000Y-72256250D02*
X103775000Y-71743750D01*
G75*
G02*
X103993750Y-71525000I218750J0D01*
G01*
X104431250Y-71525000D01*
G75*
G02*
X104650000Y-71743750I0J-218750D01*
G01*
X104650000Y-72256250D01*
G75*
G02*
X104431250Y-72475000I-218750J0D01*
G01*
X103993750Y-72475000D01*
G75*
G02*
X103775000Y-72256250I0J218750D01*
G01*
G37*
%TD*%
%TO.C,R45*%
G36*
G01*
X75350000Y-69256250D02*
X75350000Y-68743750D01*
G75*
G02*
X75568750Y-68525000I218750J0D01*
G01*
X76006250Y-68525000D01*
G75*
G02*
X76225000Y-68743750I0J-218750D01*
G01*
X76225000Y-69256250D01*
G75*
G02*
X76006250Y-69475000I-218750J0D01*
G01*
X75568750Y-69475000D01*
G75*
G02*
X75350000Y-69256250I0J218750D01*
G01*
G37*
G36*
G01*
X73775000Y-69256250D02*
X73775000Y-68743750D01*
G75*
G02*
X73993750Y-68525000I218750J0D01*
G01*
X74431250Y-68525000D01*
G75*
G02*
X74650000Y-68743750I0J-218750D01*
G01*
X74650000Y-69256250D01*
G75*
G02*
X74431250Y-69475000I-218750J0D01*
G01*
X73993750Y-69475000D01*
G75*
G02*
X73775000Y-69256250I0J218750D01*
G01*
G37*
%TD*%
%TO.C,R44*%
G36*
G01*
X90350000Y-69256250D02*
X90350000Y-68743750D01*
G75*
G02*
X90568750Y-68525000I218750J0D01*
G01*
X91006250Y-68525000D01*
G75*
G02*
X91225000Y-68743750I0J-218750D01*
G01*
X91225000Y-69256250D01*
G75*
G02*
X91006250Y-69475000I-218750J0D01*
G01*
X90568750Y-69475000D01*
G75*
G02*
X90350000Y-69256250I0J218750D01*
G01*
G37*
G36*
G01*
X88775000Y-69256250D02*
X88775000Y-68743750D01*
G75*
G02*
X88993750Y-68525000I218750J0D01*
G01*
X89431250Y-68525000D01*
G75*
G02*
X89650000Y-68743750I0J-218750D01*
G01*
X89650000Y-69256250D01*
G75*
G02*
X89431250Y-69475000I-218750J0D01*
G01*
X88993750Y-69475000D01*
G75*
G02*
X88775000Y-69256250I0J218750D01*
G01*
G37*
%TD*%
%TO.C,R43*%
G36*
G01*
X105350000Y-69256250D02*
X105350000Y-68743750D01*
G75*
G02*
X105568750Y-68525000I218750J0D01*
G01*
X106006250Y-68525000D01*
G75*
G02*
X106225000Y-68743750I0J-218750D01*
G01*
X106225000Y-69256250D01*
G75*
G02*
X106006250Y-69475000I-218750J0D01*
G01*
X105568750Y-69475000D01*
G75*
G02*
X105350000Y-69256250I0J218750D01*
G01*
G37*
G36*
G01*
X103775000Y-69256250D02*
X103775000Y-68743750D01*
G75*
G02*
X103993750Y-68525000I218750J0D01*
G01*
X104431250Y-68525000D01*
G75*
G02*
X104650000Y-68743750I0J-218750D01*
G01*
X104650000Y-69256250D01*
G75*
G02*
X104431250Y-69475000I-218750J0D01*
G01*
X103993750Y-69475000D01*
G75*
G02*
X103775000Y-69256250I0J218750D01*
G01*
G37*
%TD*%
%TO.C,R42*%
G36*
G01*
X75350000Y-66256250D02*
X75350000Y-65743750D01*
G75*
G02*
X75568750Y-65525000I218750J0D01*
G01*
X76006250Y-65525000D01*
G75*
G02*
X76225000Y-65743750I0J-218750D01*
G01*
X76225000Y-66256250D01*
G75*
G02*
X76006250Y-66475000I-218750J0D01*
G01*
X75568750Y-66475000D01*
G75*
G02*
X75350000Y-66256250I0J218750D01*
G01*
G37*
G36*
G01*
X73775000Y-66256250D02*
X73775000Y-65743750D01*
G75*
G02*
X73993750Y-65525000I218750J0D01*
G01*
X74431250Y-65525000D01*
G75*
G02*
X74650000Y-65743750I0J-218750D01*
G01*
X74650000Y-66256250D01*
G75*
G02*
X74431250Y-66475000I-218750J0D01*
G01*
X73993750Y-66475000D01*
G75*
G02*
X73775000Y-66256250I0J218750D01*
G01*
G37*
%TD*%
%TO.C,R41*%
G36*
G01*
X90350000Y-66256250D02*
X90350000Y-65743750D01*
G75*
G02*
X90568750Y-65525000I218750J0D01*
G01*
X91006250Y-65525000D01*
G75*
G02*
X91225000Y-65743750I0J-218750D01*
G01*
X91225000Y-66256250D01*
G75*
G02*
X91006250Y-66475000I-218750J0D01*
G01*
X90568750Y-66475000D01*
G75*
G02*
X90350000Y-66256250I0J218750D01*
G01*
G37*
G36*
G01*
X88775000Y-66256250D02*
X88775000Y-65743750D01*
G75*
G02*
X88993750Y-65525000I218750J0D01*
G01*
X89431250Y-65525000D01*
G75*
G02*
X89650000Y-65743750I0J-218750D01*
G01*
X89650000Y-66256250D01*
G75*
G02*
X89431250Y-66475000I-218750J0D01*
G01*
X88993750Y-66475000D01*
G75*
G02*
X88775000Y-66256250I0J218750D01*
G01*
G37*
%TD*%
%TO.C,R40*%
G36*
G01*
X105350000Y-66256250D02*
X105350000Y-65743750D01*
G75*
G02*
X105568750Y-65525000I218750J0D01*
G01*
X106006250Y-65525000D01*
G75*
G02*
X106225000Y-65743750I0J-218750D01*
G01*
X106225000Y-66256250D01*
G75*
G02*
X106006250Y-66475000I-218750J0D01*
G01*
X105568750Y-66475000D01*
G75*
G02*
X105350000Y-66256250I0J218750D01*
G01*
G37*
G36*
G01*
X103775000Y-66256250D02*
X103775000Y-65743750D01*
G75*
G02*
X103993750Y-65525000I218750J0D01*
G01*
X104431250Y-65525000D01*
G75*
G02*
X104650000Y-65743750I0J-218750D01*
G01*
X104650000Y-66256250D01*
G75*
G02*
X104431250Y-66475000I-218750J0D01*
G01*
X103993750Y-66475000D01*
G75*
G02*
X103775000Y-66256250I0J218750D01*
G01*
G37*
%TD*%
%TO.C,R39*%
G36*
G01*
X75350000Y-63256250D02*
X75350000Y-62743750D01*
G75*
G02*
X75568750Y-62525000I218750J0D01*
G01*
X76006250Y-62525000D01*
G75*
G02*
X76225000Y-62743750I0J-218750D01*
G01*
X76225000Y-63256250D01*
G75*
G02*
X76006250Y-63475000I-218750J0D01*
G01*
X75568750Y-63475000D01*
G75*
G02*
X75350000Y-63256250I0J218750D01*
G01*
G37*
G36*
G01*
X73775000Y-63256250D02*
X73775000Y-62743750D01*
G75*
G02*
X73993750Y-62525000I218750J0D01*
G01*
X74431250Y-62525000D01*
G75*
G02*
X74650000Y-62743750I0J-218750D01*
G01*
X74650000Y-63256250D01*
G75*
G02*
X74431250Y-63475000I-218750J0D01*
G01*
X73993750Y-63475000D01*
G75*
G02*
X73775000Y-63256250I0J218750D01*
G01*
G37*
%TD*%
%TO.C,R38*%
G36*
G01*
X90350000Y-63256250D02*
X90350000Y-62743750D01*
G75*
G02*
X90568750Y-62525000I218750J0D01*
G01*
X91006250Y-62525000D01*
G75*
G02*
X91225000Y-62743750I0J-218750D01*
G01*
X91225000Y-63256250D01*
G75*
G02*
X91006250Y-63475000I-218750J0D01*
G01*
X90568750Y-63475000D01*
G75*
G02*
X90350000Y-63256250I0J218750D01*
G01*
G37*
G36*
G01*
X88775000Y-63256250D02*
X88775000Y-62743750D01*
G75*
G02*
X88993750Y-62525000I218750J0D01*
G01*
X89431250Y-62525000D01*
G75*
G02*
X89650000Y-62743750I0J-218750D01*
G01*
X89650000Y-63256250D01*
G75*
G02*
X89431250Y-63475000I-218750J0D01*
G01*
X88993750Y-63475000D01*
G75*
G02*
X88775000Y-63256250I0J218750D01*
G01*
G37*
%TD*%
%TO.C,R37*%
G36*
G01*
X105350000Y-63256250D02*
X105350000Y-62743750D01*
G75*
G02*
X105568750Y-62525000I218750J0D01*
G01*
X106006250Y-62525000D01*
G75*
G02*
X106225000Y-62743750I0J-218750D01*
G01*
X106225000Y-63256250D01*
G75*
G02*
X106006250Y-63475000I-218750J0D01*
G01*
X105568750Y-63475000D01*
G75*
G02*
X105350000Y-63256250I0J218750D01*
G01*
G37*
G36*
G01*
X103775000Y-63256250D02*
X103775000Y-62743750D01*
G75*
G02*
X103993750Y-62525000I218750J0D01*
G01*
X104431250Y-62525000D01*
G75*
G02*
X104650000Y-62743750I0J-218750D01*
G01*
X104650000Y-63256250D01*
G75*
G02*
X104431250Y-63475000I-218750J0D01*
G01*
X103993750Y-63475000D01*
G75*
G02*
X103775000Y-63256250I0J218750D01*
G01*
G37*
%TD*%
%TO.C,R36*%
G36*
G01*
X75350000Y-60256250D02*
X75350000Y-59743750D01*
G75*
G02*
X75568750Y-59525000I218750J0D01*
G01*
X76006250Y-59525000D01*
G75*
G02*
X76225000Y-59743750I0J-218750D01*
G01*
X76225000Y-60256250D01*
G75*
G02*
X76006250Y-60475000I-218750J0D01*
G01*
X75568750Y-60475000D01*
G75*
G02*
X75350000Y-60256250I0J218750D01*
G01*
G37*
G36*
G01*
X73775000Y-60256250D02*
X73775000Y-59743750D01*
G75*
G02*
X73993750Y-59525000I218750J0D01*
G01*
X74431250Y-59525000D01*
G75*
G02*
X74650000Y-59743750I0J-218750D01*
G01*
X74650000Y-60256250D01*
G75*
G02*
X74431250Y-60475000I-218750J0D01*
G01*
X73993750Y-60475000D01*
G75*
G02*
X73775000Y-60256250I0J218750D01*
G01*
G37*
%TD*%
%TO.C,R35*%
G36*
G01*
X90350000Y-60256250D02*
X90350000Y-59743750D01*
G75*
G02*
X90568750Y-59525000I218750J0D01*
G01*
X91006250Y-59525000D01*
G75*
G02*
X91225000Y-59743750I0J-218750D01*
G01*
X91225000Y-60256250D01*
G75*
G02*
X91006250Y-60475000I-218750J0D01*
G01*
X90568750Y-60475000D01*
G75*
G02*
X90350000Y-60256250I0J218750D01*
G01*
G37*
G36*
G01*
X88775000Y-60256250D02*
X88775000Y-59743750D01*
G75*
G02*
X88993750Y-59525000I218750J0D01*
G01*
X89431250Y-59525000D01*
G75*
G02*
X89650000Y-59743750I0J-218750D01*
G01*
X89650000Y-60256250D01*
G75*
G02*
X89431250Y-60475000I-218750J0D01*
G01*
X88993750Y-60475000D01*
G75*
G02*
X88775000Y-60256250I0J218750D01*
G01*
G37*
%TD*%
%TO.C,R34*%
G36*
G01*
X105350000Y-60256250D02*
X105350000Y-59743750D01*
G75*
G02*
X105568750Y-59525000I218750J0D01*
G01*
X106006250Y-59525000D01*
G75*
G02*
X106225000Y-59743750I0J-218750D01*
G01*
X106225000Y-60256250D01*
G75*
G02*
X106006250Y-60475000I-218750J0D01*
G01*
X105568750Y-60475000D01*
G75*
G02*
X105350000Y-60256250I0J218750D01*
G01*
G37*
G36*
G01*
X103775000Y-60256250D02*
X103775000Y-59743750D01*
G75*
G02*
X103993750Y-59525000I218750J0D01*
G01*
X104431250Y-59525000D01*
G75*
G02*
X104650000Y-59743750I0J-218750D01*
G01*
X104650000Y-60256250D01*
G75*
G02*
X104431250Y-60475000I-218750J0D01*
G01*
X103993750Y-60475000D01*
G75*
G02*
X103775000Y-60256250I0J218750D01*
G01*
G37*
%TD*%
%TO.C,R33*%
G36*
G01*
X120350000Y-81256250D02*
X120350000Y-80743750D01*
G75*
G02*
X120568750Y-80525000I218750J0D01*
G01*
X121006250Y-80525000D01*
G75*
G02*
X121225000Y-80743750I0J-218750D01*
G01*
X121225000Y-81256250D01*
G75*
G02*
X121006250Y-81475000I-218750J0D01*
G01*
X120568750Y-81475000D01*
G75*
G02*
X120350000Y-81256250I0J218750D01*
G01*
G37*
G36*
G01*
X118775000Y-81256250D02*
X118775000Y-80743750D01*
G75*
G02*
X118993750Y-80525000I218750J0D01*
G01*
X119431250Y-80525000D01*
G75*
G02*
X119650000Y-80743750I0J-218750D01*
G01*
X119650000Y-81256250D01*
G75*
G02*
X119431250Y-81475000I-218750J0D01*
G01*
X118993750Y-81475000D01*
G75*
G02*
X118775000Y-81256250I0J218750D01*
G01*
G37*
%TD*%
%TO.C,R32*%
G36*
G01*
X133775000Y-81256250D02*
X133775000Y-80743750D01*
G75*
G02*
X133993750Y-80525000I218750J0D01*
G01*
X134431250Y-80525000D01*
G75*
G02*
X134650000Y-80743750I0J-218750D01*
G01*
X134650000Y-81256250D01*
G75*
G02*
X134431250Y-81475000I-218750J0D01*
G01*
X133993750Y-81475000D01*
G75*
G02*
X133775000Y-81256250I0J218750D01*
G01*
G37*
G36*
G01*
X135350000Y-81256250D02*
X135350000Y-80743750D01*
G75*
G02*
X135568750Y-80525000I218750J0D01*
G01*
X136006250Y-80525000D01*
G75*
G02*
X136225000Y-80743750I0J-218750D01*
G01*
X136225000Y-81256250D01*
G75*
G02*
X136006250Y-81475000I-218750J0D01*
G01*
X135568750Y-81475000D01*
G75*
G02*
X135350000Y-81256250I0J218750D01*
G01*
G37*
%TD*%
%TO.C,R31*%
G36*
G01*
X120350000Y-78256250D02*
X120350000Y-77743750D01*
G75*
G02*
X120568750Y-77525000I218750J0D01*
G01*
X121006250Y-77525000D01*
G75*
G02*
X121225000Y-77743750I0J-218750D01*
G01*
X121225000Y-78256250D01*
G75*
G02*
X121006250Y-78475000I-218750J0D01*
G01*
X120568750Y-78475000D01*
G75*
G02*
X120350000Y-78256250I0J218750D01*
G01*
G37*
G36*
G01*
X118775000Y-78256250D02*
X118775000Y-77743750D01*
G75*
G02*
X118993750Y-77525000I218750J0D01*
G01*
X119431250Y-77525000D01*
G75*
G02*
X119650000Y-77743750I0J-218750D01*
G01*
X119650000Y-78256250D01*
G75*
G02*
X119431250Y-78475000I-218750J0D01*
G01*
X118993750Y-78475000D01*
G75*
G02*
X118775000Y-78256250I0J218750D01*
G01*
G37*
%TD*%
%TO.C,R30*%
G36*
G01*
X133775000Y-78256250D02*
X133775000Y-77743750D01*
G75*
G02*
X133993750Y-77525000I218750J0D01*
G01*
X134431250Y-77525000D01*
G75*
G02*
X134650000Y-77743750I0J-218750D01*
G01*
X134650000Y-78256250D01*
G75*
G02*
X134431250Y-78475000I-218750J0D01*
G01*
X133993750Y-78475000D01*
G75*
G02*
X133775000Y-78256250I0J218750D01*
G01*
G37*
G36*
G01*
X135350000Y-78256250D02*
X135350000Y-77743750D01*
G75*
G02*
X135568750Y-77525000I218750J0D01*
G01*
X136006250Y-77525000D01*
G75*
G02*
X136225000Y-77743750I0J-218750D01*
G01*
X136225000Y-78256250D01*
G75*
G02*
X136006250Y-78475000I-218750J0D01*
G01*
X135568750Y-78475000D01*
G75*
G02*
X135350000Y-78256250I0J218750D01*
G01*
G37*
%TD*%
%TO.C,R29*%
G36*
G01*
X120350000Y-75256250D02*
X120350000Y-74743750D01*
G75*
G02*
X120568750Y-74525000I218750J0D01*
G01*
X121006250Y-74525000D01*
G75*
G02*
X121225000Y-74743750I0J-218750D01*
G01*
X121225000Y-75256250D01*
G75*
G02*
X121006250Y-75475000I-218750J0D01*
G01*
X120568750Y-75475000D01*
G75*
G02*
X120350000Y-75256250I0J218750D01*
G01*
G37*
G36*
G01*
X118775000Y-75256250D02*
X118775000Y-74743750D01*
G75*
G02*
X118993750Y-74525000I218750J0D01*
G01*
X119431250Y-74525000D01*
G75*
G02*
X119650000Y-74743750I0J-218750D01*
G01*
X119650000Y-75256250D01*
G75*
G02*
X119431250Y-75475000I-218750J0D01*
G01*
X118993750Y-75475000D01*
G75*
G02*
X118775000Y-75256250I0J218750D01*
G01*
G37*
%TD*%
%TO.C,R28*%
G36*
G01*
X133775000Y-75256250D02*
X133775000Y-74743750D01*
G75*
G02*
X133993750Y-74525000I218750J0D01*
G01*
X134431250Y-74525000D01*
G75*
G02*
X134650000Y-74743750I0J-218750D01*
G01*
X134650000Y-75256250D01*
G75*
G02*
X134431250Y-75475000I-218750J0D01*
G01*
X133993750Y-75475000D01*
G75*
G02*
X133775000Y-75256250I0J218750D01*
G01*
G37*
G36*
G01*
X135350000Y-75256250D02*
X135350000Y-74743750D01*
G75*
G02*
X135568750Y-74525000I218750J0D01*
G01*
X136006250Y-74525000D01*
G75*
G02*
X136225000Y-74743750I0J-218750D01*
G01*
X136225000Y-75256250D01*
G75*
G02*
X136006250Y-75475000I-218750J0D01*
G01*
X135568750Y-75475000D01*
G75*
G02*
X135350000Y-75256250I0J218750D01*
G01*
G37*
%TD*%
%TO.C,R27*%
G36*
G01*
X120350000Y-72256250D02*
X120350000Y-71743750D01*
G75*
G02*
X120568750Y-71525000I218750J0D01*
G01*
X121006250Y-71525000D01*
G75*
G02*
X121225000Y-71743750I0J-218750D01*
G01*
X121225000Y-72256250D01*
G75*
G02*
X121006250Y-72475000I-218750J0D01*
G01*
X120568750Y-72475000D01*
G75*
G02*
X120350000Y-72256250I0J218750D01*
G01*
G37*
G36*
G01*
X118775000Y-72256250D02*
X118775000Y-71743750D01*
G75*
G02*
X118993750Y-71525000I218750J0D01*
G01*
X119431250Y-71525000D01*
G75*
G02*
X119650000Y-71743750I0J-218750D01*
G01*
X119650000Y-72256250D01*
G75*
G02*
X119431250Y-72475000I-218750J0D01*
G01*
X118993750Y-72475000D01*
G75*
G02*
X118775000Y-72256250I0J218750D01*
G01*
G37*
%TD*%
%TO.C,R26*%
G36*
G01*
X133775000Y-72256250D02*
X133775000Y-71743750D01*
G75*
G02*
X133993750Y-71525000I218750J0D01*
G01*
X134431250Y-71525000D01*
G75*
G02*
X134650000Y-71743750I0J-218750D01*
G01*
X134650000Y-72256250D01*
G75*
G02*
X134431250Y-72475000I-218750J0D01*
G01*
X133993750Y-72475000D01*
G75*
G02*
X133775000Y-72256250I0J218750D01*
G01*
G37*
G36*
G01*
X135350000Y-72256250D02*
X135350000Y-71743750D01*
G75*
G02*
X135568750Y-71525000I218750J0D01*
G01*
X136006250Y-71525000D01*
G75*
G02*
X136225000Y-71743750I0J-218750D01*
G01*
X136225000Y-72256250D01*
G75*
G02*
X136006250Y-72475000I-218750J0D01*
G01*
X135568750Y-72475000D01*
G75*
G02*
X135350000Y-72256250I0J218750D01*
G01*
G37*
%TD*%
%TO.C,R25*%
G36*
G01*
X120350000Y-69256250D02*
X120350000Y-68743750D01*
G75*
G02*
X120568750Y-68525000I218750J0D01*
G01*
X121006250Y-68525000D01*
G75*
G02*
X121225000Y-68743750I0J-218750D01*
G01*
X121225000Y-69256250D01*
G75*
G02*
X121006250Y-69475000I-218750J0D01*
G01*
X120568750Y-69475000D01*
G75*
G02*
X120350000Y-69256250I0J218750D01*
G01*
G37*
G36*
G01*
X118775000Y-69256250D02*
X118775000Y-68743750D01*
G75*
G02*
X118993750Y-68525000I218750J0D01*
G01*
X119431250Y-68525000D01*
G75*
G02*
X119650000Y-68743750I0J-218750D01*
G01*
X119650000Y-69256250D01*
G75*
G02*
X119431250Y-69475000I-218750J0D01*
G01*
X118993750Y-69475000D01*
G75*
G02*
X118775000Y-69256250I0J218750D01*
G01*
G37*
%TD*%
%TO.C,R24*%
G36*
G01*
X133775000Y-69256250D02*
X133775000Y-68743750D01*
G75*
G02*
X133993750Y-68525000I218750J0D01*
G01*
X134431250Y-68525000D01*
G75*
G02*
X134650000Y-68743750I0J-218750D01*
G01*
X134650000Y-69256250D01*
G75*
G02*
X134431250Y-69475000I-218750J0D01*
G01*
X133993750Y-69475000D01*
G75*
G02*
X133775000Y-69256250I0J218750D01*
G01*
G37*
G36*
G01*
X135350000Y-69256250D02*
X135350000Y-68743750D01*
G75*
G02*
X135568750Y-68525000I218750J0D01*
G01*
X136006250Y-68525000D01*
G75*
G02*
X136225000Y-68743750I0J-218750D01*
G01*
X136225000Y-69256250D01*
G75*
G02*
X136006250Y-69475000I-218750J0D01*
G01*
X135568750Y-69475000D01*
G75*
G02*
X135350000Y-69256250I0J218750D01*
G01*
G37*
%TD*%
%TO.C,R23*%
G36*
G01*
X141087500Y-134456250D02*
X141087500Y-133943750D01*
G75*
G02*
X141306250Y-133725000I218750J0D01*
G01*
X141743750Y-133725000D01*
G75*
G02*
X141962500Y-133943750I0J-218750D01*
G01*
X141962500Y-134456250D01*
G75*
G02*
X141743750Y-134675000I-218750J0D01*
G01*
X141306250Y-134675000D01*
G75*
G02*
X141087500Y-134456250I0J218750D01*
G01*
G37*
G36*
G01*
X139512500Y-134456250D02*
X139512500Y-133943750D01*
G75*
G02*
X139731250Y-133725000I218750J0D01*
G01*
X140168750Y-133725000D01*
G75*
G02*
X140387500Y-133943750I0J-218750D01*
G01*
X140387500Y-134456250D01*
G75*
G02*
X140168750Y-134675000I-218750J0D01*
G01*
X139731250Y-134675000D01*
G75*
G02*
X139512500Y-134456250I0J218750D01*
G01*
G37*
%TD*%
%TO.C,R22*%
G36*
G01*
X120350000Y-66256250D02*
X120350000Y-65743750D01*
G75*
G02*
X120568750Y-65525000I218750J0D01*
G01*
X121006250Y-65525000D01*
G75*
G02*
X121225000Y-65743750I0J-218750D01*
G01*
X121225000Y-66256250D01*
G75*
G02*
X121006250Y-66475000I-218750J0D01*
G01*
X120568750Y-66475000D01*
G75*
G02*
X120350000Y-66256250I0J218750D01*
G01*
G37*
G36*
G01*
X118775000Y-66256250D02*
X118775000Y-65743750D01*
G75*
G02*
X118993750Y-65525000I218750J0D01*
G01*
X119431250Y-65525000D01*
G75*
G02*
X119650000Y-65743750I0J-218750D01*
G01*
X119650000Y-66256250D01*
G75*
G02*
X119431250Y-66475000I-218750J0D01*
G01*
X118993750Y-66475000D01*
G75*
G02*
X118775000Y-66256250I0J218750D01*
G01*
G37*
%TD*%
%TO.C,R21*%
G36*
G01*
X133775000Y-66256250D02*
X133775000Y-65743750D01*
G75*
G02*
X133993750Y-65525000I218750J0D01*
G01*
X134431250Y-65525000D01*
G75*
G02*
X134650000Y-65743750I0J-218750D01*
G01*
X134650000Y-66256250D01*
G75*
G02*
X134431250Y-66475000I-218750J0D01*
G01*
X133993750Y-66475000D01*
G75*
G02*
X133775000Y-66256250I0J218750D01*
G01*
G37*
G36*
G01*
X135350000Y-66256250D02*
X135350000Y-65743750D01*
G75*
G02*
X135568750Y-65525000I218750J0D01*
G01*
X136006250Y-65525000D01*
G75*
G02*
X136225000Y-65743750I0J-218750D01*
G01*
X136225000Y-66256250D01*
G75*
G02*
X136006250Y-66475000I-218750J0D01*
G01*
X135568750Y-66475000D01*
G75*
G02*
X135350000Y-66256250I0J218750D01*
G01*
G37*
%TD*%
%TO.C,R20*%
G36*
G01*
X120350000Y-63256250D02*
X120350000Y-62743750D01*
G75*
G02*
X120568750Y-62525000I218750J0D01*
G01*
X121006250Y-62525000D01*
G75*
G02*
X121225000Y-62743750I0J-218750D01*
G01*
X121225000Y-63256250D01*
G75*
G02*
X121006250Y-63475000I-218750J0D01*
G01*
X120568750Y-63475000D01*
G75*
G02*
X120350000Y-63256250I0J218750D01*
G01*
G37*
G36*
G01*
X118775000Y-63256250D02*
X118775000Y-62743750D01*
G75*
G02*
X118993750Y-62525000I218750J0D01*
G01*
X119431250Y-62525000D01*
G75*
G02*
X119650000Y-62743750I0J-218750D01*
G01*
X119650000Y-63256250D01*
G75*
G02*
X119431250Y-63475000I-218750J0D01*
G01*
X118993750Y-63475000D01*
G75*
G02*
X118775000Y-63256250I0J218750D01*
G01*
G37*
%TD*%
%TO.C,R19*%
G36*
G01*
X133775000Y-63256250D02*
X133775000Y-62743750D01*
G75*
G02*
X133993750Y-62525000I218750J0D01*
G01*
X134431250Y-62525000D01*
G75*
G02*
X134650000Y-62743750I0J-218750D01*
G01*
X134650000Y-63256250D01*
G75*
G02*
X134431250Y-63475000I-218750J0D01*
G01*
X133993750Y-63475000D01*
G75*
G02*
X133775000Y-63256250I0J218750D01*
G01*
G37*
G36*
G01*
X135350000Y-63256250D02*
X135350000Y-62743750D01*
G75*
G02*
X135568750Y-62525000I218750J0D01*
G01*
X136006250Y-62525000D01*
G75*
G02*
X136225000Y-62743750I0J-218750D01*
G01*
X136225000Y-63256250D01*
G75*
G02*
X136006250Y-63475000I-218750J0D01*
G01*
X135568750Y-63475000D01*
G75*
G02*
X135350000Y-63256250I0J218750D01*
G01*
G37*
%TD*%
%TO.C,R18*%
G36*
G01*
X120350000Y-60256250D02*
X120350000Y-59743750D01*
G75*
G02*
X120568750Y-59525000I218750J0D01*
G01*
X121006250Y-59525000D01*
G75*
G02*
X121225000Y-59743750I0J-218750D01*
G01*
X121225000Y-60256250D01*
G75*
G02*
X121006250Y-60475000I-218750J0D01*
G01*
X120568750Y-60475000D01*
G75*
G02*
X120350000Y-60256250I0J218750D01*
G01*
G37*
G36*
G01*
X118775000Y-60256250D02*
X118775000Y-59743750D01*
G75*
G02*
X118993750Y-59525000I218750J0D01*
G01*
X119431250Y-59525000D01*
G75*
G02*
X119650000Y-59743750I0J-218750D01*
G01*
X119650000Y-60256250D01*
G75*
G02*
X119431250Y-60475000I-218750J0D01*
G01*
X118993750Y-60475000D01*
G75*
G02*
X118775000Y-60256250I0J218750D01*
G01*
G37*
%TD*%
%TO.C,R17*%
G36*
G01*
X133775000Y-60256250D02*
X133775000Y-59743750D01*
G75*
G02*
X133993750Y-59525000I218750J0D01*
G01*
X134431250Y-59525000D01*
G75*
G02*
X134650000Y-59743750I0J-218750D01*
G01*
X134650000Y-60256250D01*
G75*
G02*
X134431250Y-60475000I-218750J0D01*
G01*
X133993750Y-60475000D01*
G75*
G02*
X133775000Y-60256250I0J218750D01*
G01*
G37*
G36*
G01*
X135350000Y-60256250D02*
X135350000Y-59743750D01*
G75*
G02*
X135568750Y-59525000I218750J0D01*
G01*
X136006250Y-59525000D01*
G75*
G02*
X136225000Y-59743750I0J-218750D01*
G01*
X136225000Y-60256250D01*
G75*
G02*
X136006250Y-60475000I-218750J0D01*
G01*
X135568750Y-60475000D01*
G75*
G02*
X135350000Y-60256250I0J218750D01*
G01*
G37*
%TD*%
%TO.C,R16*%
G36*
G01*
X115350000Y-130256250D02*
X115350000Y-129743750D01*
G75*
G02*
X115568750Y-129525000I218750J0D01*
G01*
X116006250Y-129525000D01*
G75*
G02*
X116225000Y-129743750I0J-218750D01*
G01*
X116225000Y-130256250D01*
G75*
G02*
X116006250Y-130475000I-218750J0D01*
G01*
X115568750Y-130475000D01*
G75*
G02*
X115350000Y-130256250I0J218750D01*
G01*
G37*
G36*
G01*
X113775000Y-130256250D02*
X113775000Y-129743750D01*
G75*
G02*
X113993750Y-129525000I218750J0D01*
G01*
X114431250Y-129525000D01*
G75*
G02*
X114650000Y-129743750I0J-218750D01*
G01*
X114650000Y-130256250D01*
G75*
G02*
X114431250Y-130475000I-218750J0D01*
G01*
X113993750Y-130475000D01*
G75*
G02*
X113775000Y-130256250I0J218750D01*
G01*
G37*
%TD*%
%TO.C,R15*%
G36*
G01*
X115350000Y-134256250D02*
X115350000Y-133743750D01*
G75*
G02*
X115568750Y-133525000I218750J0D01*
G01*
X116006250Y-133525000D01*
G75*
G02*
X116225000Y-133743750I0J-218750D01*
G01*
X116225000Y-134256250D01*
G75*
G02*
X116006250Y-134475000I-218750J0D01*
G01*
X115568750Y-134475000D01*
G75*
G02*
X115350000Y-134256250I0J218750D01*
G01*
G37*
G36*
G01*
X113775000Y-134256250D02*
X113775000Y-133743750D01*
G75*
G02*
X113993750Y-133525000I218750J0D01*
G01*
X114431250Y-133525000D01*
G75*
G02*
X114650000Y-133743750I0J-218750D01*
G01*
X114650000Y-134256250D01*
G75*
G02*
X114431250Y-134475000I-218750J0D01*
G01*
X113993750Y-134475000D01*
G75*
G02*
X113775000Y-134256250I0J218750D01*
G01*
G37*
%TD*%
%TO.C,R14*%
G36*
G01*
X115350000Y-132256250D02*
X115350000Y-131743750D01*
G75*
G02*
X115568750Y-131525000I218750J0D01*
G01*
X116006250Y-131525000D01*
G75*
G02*
X116225000Y-131743750I0J-218750D01*
G01*
X116225000Y-132256250D01*
G75*
G02*
X116006250Y-132475000I-218750J0D01*
G01*
X115568750Y-132475000D01*
G75*
G02*
X115350000Y-132256250I0J218750D01*
G01*
G37*
G36*
G01*
X113775000Y-132256250D02*
X113775000Y-131743750D01*
G75*
G02*
X113993750Y-131525000I218750J0D01*
G01*
X114431250Y-131525000D01*
G75*
G02*
X114650000Y-131743750I0J-218750D01*
G01*
X114650000Y-132256250D01*
G75*
G02*
X114431250Y-132475000I-218750J0D01*
G01*
X113993750Y-132475000D01*
G75*
G02*
X113775000Y-132256250I0J218750D01*
G01*
G37*
%TD*%
%TO.C,R13*%
G36*
G01*
X101862500Y-117356250D02*
X101862500Y-116843750D01*
G75*
G02*
X102081250Y-116625000I218750J0D01*
G01*
X102518750Y-116625000D01*
G75*
G02*
X102737500Y-116843750I0J-218750D01*
G01*
X102737500Y-117356250D01*
G75*
G02*
X102518750Y-117575000I-218750J0D01*
G01*
X102081250Y-117575000D01*
G75*
G02*
X101862500Y-117356250I0J218750D01*
G01*
G37*
G36*
G01*
X100287500Y-117356250D02*
X100287500Y-116843750D01*
G75*
G02*
X100506250Y-116625000I218750J0D01*
G01*
X100943750Y-116625000D01*
G75*
G02*
X101162500Y-116843750I0J-218750D01*
G01*
X101162500Y-117356250D01*
G75*
G02*
X100943750Y-117575000I-218750J0D01*
G01*
X100506250Y-117575000D01*
G75*
G02*
X100287500Y-117356250I0J218750D01*
G01*
G37*
%TD*%
%TO.C,R12*%
G36*
G01*
X63656250Y-129900000D02*
X63143750Y-129900000D01*
G75*
G02*
X62925000Y-129681250I0J218750D01*
G01*
X62925000Y-129243750D01*
G75*
G02*
X63143750Y-129025000I218750J0D01*
G01*
X63656250Y-129025000D01*
G75*
G02*
X63875000Y-129243750I0J-218750D01*
G01*
X63875000Y-129681250D01*
G75*
G02*
X63656250Y-129900000I-218750J0D01*
G01*
G37*
G36*
G01*
X63656250Y-131475000D02*
X63143750Y-131475000D01*
G75*
G02*
X62925000Y-131256250I0J218750D01*
G01*
X62925000Y-130818750D01*
G75*
G02*
X63143750Y-130600000I218750J0D01*
G01*
X63656250Y-130600000D01*
G75*
G02*
X63875000Y-130818750I0J-218750D01*
G01*
X63875000Y-131256250D01*
G75*
G02*
X63656250Y-131475000I-218750J0D01*
G01*
G37*
%TD*%
%TO.C,R11*%
G36*
G01*
X61350000Y-131306250D02*
X61350000Y-130793750D01*
G75*
G02*
X61568750Y-130575000I218750J0D01*
G01*
X62006250Y-130575000D01*
G75*
G02*
X62225000Y-130793750I0J-218750D01*
G01*
X62225000Y-131306250D01*
G75*
G02*
X62006250Y-131525000I-218750J0D01*
G01*
X61568750Y-131525000D01*
G75*
G02*
X61350000Y-131306250I0J218750D01*
G01*
G37*
G36*
G01*
X59775000Y-131306250D02*
X59775000Y-130793750D01*
G75*
G02*
X59993750Y-130575000I218750J0D01*
G01*
X60431250Y-130575000D01*
G75*
G02*
X60650000Y-130793750I0J-218750D01*
G01*
X60650000Y-131306250D01*
G75*
G02*
X60431250Y-131525000I-218750J0D01*
G01*
X59993750Y-131525000D01*
G75*
G02*
X59775000Y-131306250I0J218750D01*
G01*
G37*
%TD*%
%TO.C,R10*%
G36*
G01*
X86962500Y-117356250D02*
X86962500Y-116843750D01*
G75*
G02*
X87181250Y-116625000I218750J0D01*
G01*
X87618750Y-116625000D01*
G75*
G02*
X87837500Y-116843750I0J-218750D01*
G01*
X87837500Y-117356250D01*
G75*
G02*
X87618750Y-117575000I-218750J0D01*
G01*
X87181250Y-117575000D01*
G75*
G02*
X86962500Y-117356250I0J218750D01*
G01*
G37*
G36*
G01*
X85387500Y-117356250D02*
X85387500Y-116843750D01*
G75*
G02*
X85606250Y-116625000I218750J0D01*
G01*
X86043750Y-116625000D01*
G75*
G02*
X86262500Y-116843750I0J-218750D01*
G01*
X86262500Y-117356250D01*
G75*
G02*
X86043750Y-117575000I-218750J0D01*
G01*
X85606250Y-117575000D01*
G75*
G02*
X85387500Y-117356250I0J218750D01*
G01*
G37*
%TD*%
%TO.C,R9*%
G36*
G01*
X68600000Y-132956250D02*
X68600000Y-132443750D01*
G75*
G02*
X68818750Y-132225000I218750J0D01*
G01*
X69256250Y-132225000D01*
G75*
G02*
X69475000Y-132443750I0J-218750D01*
G01*
X69475000Y-132956250D01*
G75*
G02*
X69256250Y-133175000I-218750J0D01*
G01*
X68818750Y-133175000D01*
G75*
G02*
X68600000Y-132956250I0J218750D01*
G01*
G37*
G36*
G01*
X67025000Y-132956250D02*
X67025000Y-132443750D01*
G75*
G02*
X67243750Y-132225000I218750J0D01*
G01*
X67681250Y-132225000D01*
G75*
G02*
X67900000Y-132443750I0J-218750D01*
G01*
X67900000Y-132956250D01*
G75*
G02*
X67681250Y-133175000I-218750J0D01*
G01*
X67243750Y-133175000D01*
G75*
G02*
X67025000Y-132956250I0J218750D01*
G01*
G37*
%TD*%
%TO.C,R8*%
G36*
G01*
X75825000Y-138375000D02*
X75825000Y-139625000D01*
G75*
G02*
X75575000Y-139875000I-250000J0D01*
G01*
X74825000Y-139875000D01*
G75*
G02*
X74575000Y-139625000I0J250000D01*
G01*
X74575000Y-138375000D01*
G75*
G02*
X74825000Y-138125000I250000J0D01*
G01*
X75575000Y-138125000D01*
G75*
G02*
X75825000Y-138375000I0J-250000D01*
G01*
G37*
G36*
G01*
X78625000Y-138375000D02*
X78625000Y-139625000D01*
G75*
G02*
X78375000Y-139875000I-250000J0D01*
G01*
X77625000Y-139875000D01*
G75*
G02*
X77375000Y-139625000I0J250000D01*
G01*
X77375000Y-138375000D01*
G75*
G02*
X77625000Y-138125000I250000J0D01*
G01*
X78375000Y-138125000D01*
G75*
G02*
X78625000Y-138375000I0J-250000D01*
G01*
G37*
%TD*%
%TO.C,R7*%
G36*
G01*
X129137500Y-127143750D02*
X129137500Y-127656250D01*
G75*
G02*
X128918750Y-127875000I-218750J0D01*
G01*
X128481250Y-127875000D01*
G75*
G02*
X128262500Y-127656250I0J218750D01*
G01*
X128262500Y-127143750D01*
G75*
G02*
X128481250Y-126925000I218750J0D01*
G01*
X128918750Y-126925000D01*
G75*
G02*
X129137500Y-127143750I0J-218750D01*
G01*
G37*
G36*
G01*
X130712500Y-127143750D02*
X130712500Y-127656250D01*
G75*
G02*
X130493750Y-127875000I-218750J0D01*
G01*
X130056250Y-127875000D01*
G75*
G02*
X129837500Y-127656250I0J218750D01*
G01*
X129837500Y-127143750D01*
G75*
G02*
X130056250Y-126925000I218750J0D01*
G01*
X130493750Y-126925000D01*
G75*
G02*
X130712500Y-127143750I0J-218750D01*
G01*
G37*
%TD*%
%TO.C,R6*%
G36*
G01*
X129837500Y-125656250D02*
X129837500Y-125143750D01*
G75*
G02*
X130056250Y-124925000I218750J0D01*
G01*
X130493750Y-124925000D01*
G75*
G02*
X130712500Y-125143750I0J-218750D01*
G01*
X130712500Y-125656250D01*
G75*
G02*
X130493750Y-125875000I-218750J0D01*
G01*
X130056250Y-125875000D01*
G75*
G02*
X129837500Y-125656250I0J218750D01*
G01*
G37*
G36*
G01*
X128262500Y-125656250D02*
X128262500Y-125143750D01*
G75*
G02*
X128481250Y-124925000I218750J0D01*
G01*
X128918750Y-124925000D01*
G75*
G02*
X129137500Y-125143750I0J-218750D01*
G01*
X129137500Y-125656250D01*
G75*
G02*
X128918750Y-125875000I-218750J0D01*
G01*
X128481250Y-125875000D01*
G75*
G02*
X128262500Y-125656250I0J218750D01*
G01*
G37*
%TD*%
%TO.C,R5*%
G36*
G01*
X131562500Y-137256250D02*
X131562500Y-136743750D01*
G75*
G02*
X131781250Y-136525000I218750J0D01*
G01*
X132218750Y-136525000D01*
G75*
G02*
X132437500Y-136743750I0J-218750D01*
G01*
X132437500Y-137256250D01*
G75*
G02*
X132218750Y-137475000I-218750J0D01*
G01*
X131781250Y-137475000D01*
G75*
G02*
X131562500Y-137256250I0J218750D01*
G01*
G37*
G36*
G01*
X129987500Y-137256250D02*
X129987500Y-136743750D01*
G75*
G02*
X130206250Y-136525000I218750J0D01*
G01*
X130643750Y-136525000D01*
G75*
G02*
X130862500Y-136743750I0J-218750D01*
G01*
X130862500Y-137256250D01*
G75*
G02*
X130643750Y-137475000I-218750J0D01*
G01*
X130206250Y-137475000D01*
G75*
G02*
X129987500Y-137256250I0J218750D01*
G01*
G37*
%TD*%
%TO.C,R4*%
G36*
G01*
X55550000Y-140606250D02*
X55550000Y-140093750D01*
G75*
G02*
X55768750Y-139875000I218750J0D01*
G01*
X56206250Y-139875000D01*
G75*
G02*
X56425000Y-140093750I0J-218750D01*
G01*
X56425000Y-140606250D01*
G75*
G02*
X56206250Y-140825000I-218750J0D01*
G01*
X55768750Y-140825000D01*
G75*
G02*
X55550000Y-140606250I0J218750D01*
G01*
G37*
G36*
G01*
X53975000Y-140606250D02*
X53975000Y-140093750D01*
G75*
G02*
X54193750Y-139875000I218750J0D01*
G01*
X54631250Y-139875000D01*
G75*
G02*
X54850000Y-140093750I0J-218750D01*
G01*
X54850000Y-140606250D01*
G75*
G02*
X54631250Y-140825000I-218750J0D01*
G01*
X54193750Y-140825000D01*
G75*
G02*
X53975000Y-140606250I0J218750D01*
G01*
G37*
%TD*%
%TO.C,R3*%
G36*
G01*
X54850000Y-141793750D02*
X54850000Y-142306250D01*
G75*
G02*
X54631250Y-142525000I-218750J0D01*
G01*
X54193750Y-142525000D01*
G75*
G02*
X53975000Y-142306250I0J218750D01*
G01*
X53975000Y-141793750D01*
G75*
G02*
X54193750Y-141575000I218750J0D01*
G01*
X54631250Y-141575000D01*
G75*
G02*
X54850000Y-141793750I0J-218750D01*
G01*
G37*
G36*
G01*
X56425000Y-141793750D02*
X56425000Y-142306250D01*
G75*
G02*
X56206250Y-142525000I-218750J0D01*
G01*
X55768750Y-142525000D01*
G75*
G02*
X55550000Y-142306250I0J218750D01*
G01*
X55550000Y-141793750D01*
G75*
G02*
X55768750Y-141575000I218750J0D01*
G01*
X56206250Y-141575000D01*
G75*
G02*
X56425000Y-141793750I0J-218750D01*
G01*
G37*
%TD*%
%TO.C,R2*%
G36*
G01*
X55550000Y-138906250D02*
X55550000Y-138393750D01*
G75*
G02*
X55768750Y-138175000I218750J0D01*
G01*
X56206250Y-138175000D01*
G75*
G02*
X56425000Y-138393750I0J-218750D01*
G01*
X56425000Y-138906250D01*
G75*
G02*
X56206250Y-139125000I-218750J0D01*
G01*
X55768750Y-139125000D01*
G75*
G02*
X55550000Y-138906250I0J218750D01*
G01*
G37*
G36*
G01*
X53975000Y-138906250D02*
X53975000Y-138393750D01*
G75*
G02*
X54193750Y-138175000I218750J0D01*
G01*
X54631250Y-138175000D01*
G75*
G02*
X54850000Y-138393750I0J-218750D01*
G01*
X54850000Y-138906250D01*
G75*
G02*
X54631250Y-139125000I-218750J0D01*
G01*
X54193750Y-139125000D01*
G75*
G02*
X53975000Y-138906250I0J218750D01*
G01*
G37*
%TD*%
%TO.C,R1*%
G36*
G01*
X130862500Y-138393750D02*
X130862500Y-138906250D01*
G75*
G02*
X130643750Y-139125000I-218750J0D01*
G01*
X130206250Y-139125000D01*
G75*
G02*
X129987500Y-138906250I0J218750D01*
G01*
X129987500Y-138393750D01*
G75*
G02*
X130206250Y-138175000I218750J0D01*
G01*
X130643750Y-138175000D01*
G75*
G02*
X130862500Y-138393750I0J-218750D01*
G01*
G37*
G36*
G01*
X132437500Y-138393750D02*
X132437500Y-138906250D01*
G75*
G02*
X132218750Y-139125000I-218750J0D01*
G01*
X131781250Y-139125000D01*
G75*
G02*
X131562500Y-138906250I0J218750D01*
G01*
X131562500Y-138393750D01*
G75*
G02*
X131781250Y-138175000I218750J0D01*
G01*
X132218750Y-138175000D01*
G75*
G02*
X132437500Y-138393750I0J-218750D01*
G01*
G37*
%TD*%
%TO.C,FB1*%
G36*
G01*
X81562500Y-139256250D02*
X81562500Y-138743750D01*
G75*
G02*
X81781250Y-138525000I218750J0D01*
G01*
X82218750Y-138525000D01*
G75*
G02*
X82437500Y-138743750I0J-218750D01*
G01*
X82437500Y-139256250D01*
G75*
G02*
X82218750Y-139475000I-218750J0D01*
G01*
X81781250Y-139475000D01*
G75*
G02*
X81562500Y-139256250I0J218750D01*
G01*
G37*
G36*
G01*
X79987500Y-139256250D02*
X79987500Y-138743750D01*
G75*
G02*
X80206250Y-138525000I218750J0D01*
G01*
X80643750Y-138525000D01*
G75*
G02*
X80862500Y-138743750I0J-218750D01*
G01*
X80862500Y-139256250D01*
G75*
G02*
X80643750Y-139475000I-218750J0D01*
G01*
X80206250Y-139475000D01*
G75*
G02*
X79987500Y-139256250I0J218750D01*
G01*
G37*
%TD*%
%TO.C,D47*%
G36*
G01*
X69800000Y-80787500D02*
X69800000Y-81212500D01*
G75*
G02*
X69587500Y-81425000I-212500J0D01*
G01*
X68787500Y-81425000D01*
G75*
G02*
X68575000Y-81212500I0J212500D01*
G01*
X68575000Y-80787500D01*
G75*
G02*
X68787500Y-80575000I212500J0D01*
G01*
X69587500Y-80575000D01*
G75*
G02*
X69800000Y-80787500I0J-212500D01*
G01*
G37*
G36*
G01*
X71425000Y-80787500D02*
X71425000Y-81212500D01*
G75*
G02*
X71212500Y-81425000I-212500J0D01*
G01*
X70412500Y-81425000D01*
G75*
G02*
X70200000Y-81212500I0J212500D01*
G01*
X70200000Y-80787500D01*
G75*
G02*
X70412500Y-80575000I212500J0D01*
G01*
X71212500Y-80575000D01*
G75*
G02*
X71425000Y-80787500I0J-212500D01*
G01*
G37*
%TD*%
%TO.C,D46*%
G36*
G01*
X84800000Y-80787500D02*
X84800000Y-81212500D01*
G75*
G02*
X84587500Y-81425000I-212500J0D01*
G01*
X83787500Y-81425000D01*
G75*
G02*
X83575000Y-81212500I0J212500D01*
G01*
X83575000Y-80787500D01*
G75*
G02*
X83787500Y-80575000I212500J0D01*
G01*
X84587500Y-80575000D01*
G75*
G02*
X84800000Y-80787500I0J-212500D01*
G01*
G37*
G36*
G01*
X86425000Y-80787500D02*
X86425000Y-81212500D01*
G75*
G02*
X86212500Y-81425000I-212500J0D01*
G01*
X85412500Y-81425000D01*
G75*
G02*
X85200000Y-81212500I0J212500D01*
G01*
X85200000Y-80787500D01*
G75*
G02*
X85412500Y-80575000I212500J0D01*
G01*
X86212500Y-80575000D01*
G75*
G02*
X86425000Y-80787500I0J-212500D01*
G01*
G37*
%TD*%
%TO.C,D45*%
G36*
G01*
X99800000Y-80787500D02*
X99800000Y-81212500D01*
G75*
G02*
X99587500Y-81425000I-212500J0D01*
G01*
X98787500Y-81425000D01*
G75*
G02*
X98575000Y-81212500I0J212500D01*
G01*
X98575000Y-80787500D01*
G75*
G02*
X98787500Y-80575000I212500J0D01*
G01*
X99587500Y-80575000D01*
G75*
G02*
X99800000Y-80787500I0J-212500D01*
G01*
G37*
G36*
G01*
X101425000Y-80787500D02*
X101425000Y-81212500D01*
G75*
G02*
X101212500Y-81425000I-212500J0D01*
G01*
X100412500Y-81425000D01*
G75*
G02*
X100200000Y-81212500I0J212500D01*
G01*
X100200000Y-80787500D01*
G75*
G02*
X100412500Y-80575000I212500J0D01*
G01*
X101212500Y-80575000D01*
G75*
G02*
X101425000Y-80787500I0J-212500D01*
G01*
G37*
%TD*%
%TO.C,D44*%
G36*
G01*
X69800000Y-77787500D02*
X69800000Y-78212500D01*
G75*
G02*
X69587500Y-78425000I-212500J0D01*
G01*
X68787500Y-78425000D01*
G75*
G02*
X68575000Y-78212500I0J212500D01*
G01*
X68575000Y-77787500D01*
G75*
G02*
X68787500Y-77575000I212500J0D01*
G01*
X69587500Y-77575000D01*
G75*
G02*
X69800000Y-77787500I0J-212500D01*
G01*
G37*
G36*
G01*
X71425000Y-77787500D02*
X71425000Y-78212500D01*
G75*
G02*
X71212500Y-78425000I-212500J0D01*
G01*
X70412500Y-78425000D01*
G75*
G02*
X70200000Y-78212500I0J212500D01*
G01*
X70200000Y-77787500D01*
G75*
G02*
X70412500Y-77575000I212500J0D01*
G01*
X71212500Y-77575000D01*
G75*
G02*
X71425000Y-77787500I0J-212500D01*
G01*
G37*
%TD*%
%TO.C,D43*%
G36*
G01*
X84800000Y-77787500D02*
X84800000Y-78212500D01*
G75*
G02*
X84587500Y-78425000I-212500J0D01*
G01*
X83787500Y-78425000D01*
G75*
G02*
X83575000Y-78212500I0J212500D01*
G01*
X83575000Y-77787500D01*
G75*
G02*
X83787500Y-77575000I212500J0D01*
G01*
X84587500Y-77575000D01*
G75*
G02*
X84800000Y-77787500I0J-212500D01*
G01*
G37*
G36*
G01*
X86425000Y-77787500D02*
X86425000Y-78212500D01*
G75*
G02*
X86212500Y-78425000I-212500J0D01*
G01*
X85412500Y-78425000D01*
G75*
G02*
X85200000Y-78212500I0J212500D01*
G01*
X85200000Y-77787500D01*
G75*
G02*
X85412500Y-77575000I212500J0D01*
G01*
X86212500Y-77575000D01*
G75*
G02*
X86425000Y-77787500I0J-212500D01*
G01*
G37*
%TD*%
%TO.C,D42*%
G36*
G01*
X99800000Y-77787500D02*
X99800000Y-78212500D01*
G75*
G02*
X99587500Y-78425000I-212500J0D01*
G01*
X98787500Y-78425000D01*
G75*
G02*
X98575000Y-78212500I0J212500D01*
G01*
X98575000Y-77787500D01*
G75*
G02*
X98787500Y-77575000I212500J0D01*
G01*
X99587500Y-77575000D01*
G75*
G02*
X99800000Y-77787500I0J-212500D01*
G01*
G37*
G36*
G01*
X101425000Y-77787500D02*
X101425000Y-78212500D01*
G75*
G02*
X101212500Y-78425000I-212500J0D01*
G01*
X100412500Y-78425000D01*
G75*
G02*
X100200000Y-78212500I0J212500D01*
G01*
X100200000Y-77787500D01*
G75*
G02*
X100412500Y-77575000I212500J0D01*
G01*
X101212500Y-77575000D01*
G75*
G02*
X101425000Y-77787500I0J-212500D01*
G01*
G37*
%TD*%
%TO.C,D41*%
G36*
G01*
X69800000Y-74787500D02*
X69800000Y-75212500D01*
G75*
G02*
X69587500Y-75425000I-212500J0D01*
G01*
X68787500Y-75425000D01*
G75*
G02*
X68575000Y-75212500I0J212500D01*
G01*
X68575000Y-74787500D01*
G75*
G02*
X68787500Y-74575000I212500J0D01*
G01*
X69587500Y-74575000D01*
G75*
G02*
X69800000Y-74787500I0J-212500D01*
G01*
G37*
G36*
G01*
X71425000Y-74787500D02*
X71425000Y-75212500D01*
G75*
G02*
X71212500Y-75425000I-212500J0D01*
G01*
X70412500Y-75425000D01*
G75*
G02*
X70200000Y-75212500I0J212500D01*
G01*
X70200000Y-74787500D01*
G75*
G02*
X70412500Y-74575000I212500J0D01*
G01*
X71212500Y-74575000D01*
G75*
G02*
X71425000Y-74787500I0J-212500D01*
G01*
G37*
%TD*%
%TO.C,D40*%
G36*
G01*
X84800000Y-74787500D02*
X84800000Y-75212500D01*
G75*
G02*
X84587500Y-75425000I-212500J0D01*
G01*
X83787500Y-75425000D01*
G75*
G02*
X83575000Y-75212500I0J212500D01*
G01*
X83575000Y-74787500D01*
G75*
G02*
X83787500Y-74575000I212500J0D01*
G01*
X84587500Y-74575000D01*
G75*
G02*
X84800000Y-74787500I0J-212500D01*
G01*
G37*
G36*
G01*
X86425000Y-74787500D02*
X86425000Y-75212500D01*
G75*
G02*
X86212500Y-75425000I-212500J0D01*
G01*
X85412500Y-75425000D01*
G75*
G02*
X85200000Y-75212500I0J212500D01*
G01*
X85200000Y-74787500D01*
G75*
G02*
X85412500Y-74575000I212500J0D01*
G01*
X86212500Y-74575000D01*
G75*
G02*
X86425000Y-74787500I0J-212500D01*
G01*
G37*
%TD*%
%TO.C,D39*%
G36*
G01*
X99800000Y-74787500D02*
X99800000Y-75212500D01*
G75*
G02*
X99587500Y-75425000I-212500J0D01*
G01*
X98787500Y-75425000D01*
G75*
G02*
X98575000Y-75212500I0J212500D01*
G01*
X98575000Y-74787500D01*
G75*
G02*
X98787500Y-74575000I212500J0D01*
G01*
X99587500Y-74575000D01*
G75*
G02*
X99800000Y-74787500I0J-212500D01*
G01*
G37*
G36*
G01*
X101425000Y-74787500D02*
X101425000Y-75212500D01*
G75*
G02*
X101212500Y-75425000I-212500J0D01*
G01*
X100412500Y-75425000D01*
G75*
G02*
X100200000Y-75212500I0J212500D01*
G01*
X100200000Y-74787500D01*
G75*
G02*
X100412500Y-74575000I212500J0D01*
G01*
X101212500Y-74575000D01*
G75*
G02*
X101425000Y-74787500I0J-212500D01*
G01*
G37*
%TD*%
%TO.C,D38*%
G36*
G01*
X69800000Y-71787500D02*
X69800000Y-72212500D01*
G75*
G02*
X69587500Y-72425000I-212500J0D01*
G01*
X68787500Y-72425000D01*
G75*
G02*
X68575000Y-72212500I0J212500D01*
G01*
X68575000Y-71787500D01*
G75*
G02*
X68787500Y-71575000I212500J0D01*
G01*
X69587500Y-71575000D01*
G75*
G02*
X69800000Y-71787500I0J-212500D01*
G01*
G37*
G36*
G01*
X71425000Y-71787500D02*
X71425000Y-72212500D01*
G75*
G02*
X71212500Y-72425000I-212500J0D01*
G01*
X70412500Y-72425000D01*
G75*
G02*
X70200000Y-72212500I0J212500D01*
G01*
X70200000Y-71787500D01*
G75*
G02*
X70412500Y-71575000I212500J0D01*
G01*
X71212500Y-71575000D01*
G75*
G02*
X71425000Y-71787500I0J-212500D01*
G01*
G37*
%TD*%
%TO.C,D37*%
G36*
G01*
X84800000Y-71787500D02*
X84800000Y-72212500D01*
G75*
G02*
X84587500Y-72425000I-212500J0D01*
G01*
X83787500Y-72425000D01*
G75*
G02*
X83575000Y-72212500I0J212500D01*
G01*
X83575000Y-71787500D01*
G75*
G02*
X83787500Y-71575000I212500J0D01*
G01*
X84587500Y-71575000D01*
G75*
G02*
X84800000Y-71787500I0J-212500D01*
G01*
G37*
G36*
G01*
X86425000Y-71787500D02*
X86425000Y-72212500D01*
G75*
G02*
X86212500Y-72425000I-212500J0D01*
G01*
X85412500Y-72425000D01*
G75*
G02*
X85200000Y-72212500I0J212500D01*
G01*
X85200000Y-71787500D01*
G75*
G02*
X85412500Y-71575000I212500J0D01*
G01*
X86212500Y-71575000D01*
G75*
G02*
X86425000Y-71787500I0J-212500D01*
G01*
G37*
%TD*%
%TO.C,D36*%
G36*
G01*
X99800000Y-71787500D02*
X99800000Y-72212500D01*
G75*
G02*
X99587500Y-72425000I-212500J0D01*
G01*
X98787500Y-72425000D01*
G75*
G02*
X98575000Y-72212500I0J212500D01*
G01*
X98575000Y-71787500D01*
G75*
G02*
X98787500Y-71575000I212500J0D01*
G01*
X99587500Y-71575000D01*
G75*
G02*
X99800000Y-71787500I0J-212500D01*
G01*
G37*
G36*
G01*
X101425000Y-71787500D02*
X101425000Y-72212500D01*
G75*
G02*
X101212500Y-72425000I-212500J0D01*
G01*
X100412500Y-72425000D01*
G75*
G02*
X100200000Y-72212500I0J212500D01*
G01*
X100200000Y-71787500D01*
G75*
G02*
X100412500Y-71575000I212500J0D01*
G01*
X101212500Y-71575000D01*
G75*
G02*
X101425000Y-71787500I0J-212500D01*
G01*
G37*
%TD*%
%TO.C,D35*%
G36*
G01*
X69800000Y-68787500D02*
X69800000Y-69212500D01*
G75*
G02*
X69587500Y-69425000I-212500J0D01*
G01*
X68787500Y-69425000D01*
G75*
G02*
X68575000Y-69212500I0J212500D01*
G01*
X68575000Y-68787500D01*
G75*
G02*
X68787500Y-68575000I212500J0D01*
G01*
X69587500Y-68575000D01*
G75*
G02*
X69800000Y-68787500I0J-212500D01*
G01*
G37*
G36*
G01*
X71425000Y-68787500D02*
X71425000Y-69212500D01*
G75*
G02*
X71212500Y-69425000I-212500J0D01*
G01*
X70412500Y-69425000D01*
G75*
G02*
X70200000Y-69212500I0J212500D01*
G01*
X70200000Y-68787500D01*
G75*
G02*
X70412500Y-68575000I212500J0D01*
G01*
X71212500Y-68575000D01*
G75*
G02*
X71425000Y-68787500I0J-212500D01*
G01*
G37*
%TD*%
%TO.C,D34*%
G36*
G01*
X84800000Y-68787500D02*
X84800000Y-69212500D01*
G75*
G02*
X84587500Y-69425000I-212500J0D01*
G01*
X83787500Y-69425000D01*
G75*
G02*
X83575000Y-69212500I0J212500D01*
G01*
X83575000Y-68787500D01*
G75*
G02*
X83787500Y-68575000I212500J0D01*
G01*
X84587500Y-68575000D01*
G75*
G02*
X84800000Y-68787500I0J-212500D01*
G01*
G37*
G36*
G01*
X86425000Y-68787500D02*
X86425000Y-69212500D01*
G75*
G02*
X86212500Y-69425000I-212500J0D01*
G01*
X85412500Y-69425000D01*
G75*
G02*
X85200000Y-69212500I0J212500D01*
G01*
X85200000Y-68787500D01*
G75*
G02*
X85412500Y-68575000I212500J0D01*
G01*
X86212500Y-68575000D01*
G75*
G02*
X86425000Y-68787500I0J-212500D01*
G01*
G37*
%TD*%
%TO.C,D33*%
G36*
G01*
X99800000Y-68787500D02*
X99800000Y-69212500D01*
G75*
G02*
X99587500Y-69425000I-212500J0D01*
G01*
X98787500Y-69425000D01*
G75*
G02*
X98575000Y-69212500I0J212500D01*
G01*
X98575000Y-68787500D01*
G75*
G02*
X98787500Y-68575000I212500J0D01*
G01*
X99587500Y-68575000D01*
G75*
G02*
X99800000Y-68787500I0J-212500D01*
G01*
G37*
G36*
G01*
X101425000Y-68787500D02*
X101425000Y-69212500D01*
G75*
G02*
X101212500Y-69425000I-212500J0D01*
G01*
X100412500Y-69425000D01*
G75*
G02*
X100200000Y-69212500I0J212500D01*
G01*
X100200000Y-68787500D01*
G75*
G02*
X100412500Y-68575000I212500J0D01*
G01*
X101212500Y-68575000D01*
G75*
G02*
X101425000Y-68787500I0J-212500D01*
G01*
G37*
%TD*%
%TO.C,D32*%
G36*
G01*
X69800000Y-65787500D02*
X69800000Y-66212500D01*
G75*
G02*
X69587500Y-66425000I-212500J0D01*
G01*
X68787500Y-66425000D01*
G75*
G02*
X68575000Y-66212500I0J212500D01*
G01*
X68575000Y-65787500D01*
G75*
G02*
X68787500Y-65575000I212500J0D01*
G01*
X69587500Y-65575000D01*
G75*
G02*
X69800000Y-65787500I0J-212500D01*
G01*
G37*
G36*
G01*
X71425000Y-65787500D02*
X71425000Y-66212500D01*
G75*
G02*
X71212500Y-66425000I-212500J0D01*
G01*
X70412500Y-66425000D01*
G75*
G02*
X70200000Y-66212500I0J212500D01*
G01*
X70200000Y-65787500D01*
G75*
G02*
X70412500Y-65575000I212500J0D01*
G01*
X71212500Y-65575000D01*
G75*
G02*
X71425000Y-65787500I0J-212500D01*
G01*
G37*
%TD*%
%TO.C,D31*%
G36*
G01*
X84800000Y-65787500D02*
X84800000Y-66212500D01*
G75*
G02*
X84587500Y-66425000I-212500J0D01*
G01*
X83787500Y-66425000D01*
G75*
G02*
X83575000Y-66212500I0J212500D01*
G01*
X83575000Y-65787500D01*
G75*
G02*
X83787500Y-65575000I212500J0D01*
G01*
X84587500Y-65575000D01*
G75*
G02*
X84800000Y-65787500I0J-212500D01*
G01*
G37*
G36*
G01*
X86425000Y-65787500D02*
X86425000Y-66212500D01*
G75*
G02*
X86212500Y-66425000I-212500J0D01*
G01*
X85412500Y-66425000D01*
G75*
G02*
X85200000Y-66212500I0J212500D01*
G01*
X85200000Y-65787500D01*
G75*
G02*
X85412500Y-65575000I212500J0D01*
G01*
X86212500Y-65575000D01*
G75*
G02*
X86425000Y-65787500I0J-212500D01*
G01*
G37*
%TD*%
%TO.C,D30*%
G36*
G01*
X99800000Y-65787500D02*
X99800000Y-66212500D01*
G75*
G02*
X99587500Y-66425000I-212500J0D01*
G01*
X98787500Y-66425000D01*
G75*
G02*
X98575000Y-66212500I0J212500D01*
G01*
X98575000Y-65787500D01*
G75*
G02*
X98787500Y-65575000I212500J0D01*
G01*
X99587500Y-65575000D01*
G75*
G02*
X99800000Y-65787500I0J-212500D01*
G01*
G37*
G36*
G01*
X101425000Y-65787500D02*
X101425000Y-66212500D01*
G75*
G02*
X101212500Y-66425000I-212500J0D01*
G01*
X100412500Y-66425000D01*
G75*
G02*
X100200000Y-66212500I0J212500D01*
G01*
X100200000Y-65787500D01*
G75*
G02*
X100412500Y-65575000I212500J0D01*
G01*
X101212500Y-65575000D01*
G75*
G02*
X101425000Y-65787500I0J-212500D01*
G01*
G37*
%TD*%
%TO.C,D29*%
G36*
G01*
X69800000Y-62787500D02*
X69800000Y-63212500D01*
G75*
G02*
X69587500Y-63425000I-212500J0D01*
G01*
X68787500Y-63425000D01*
G75*
G02*
X68575000Y-63212500I0J212500D01*
G01*
X68575000Y-62787500D01*
G75*
G02*
X68787500Y-62575000I212500J0D01*
G01*
X69587500Y-62575000D01*
G75*
G02*
X69800000Y-62787500I0J-212500D01*
G01*
G37*
G36*
G01*
X71425000Y-62787500D02*
X71425000Y-63212500D01*
G75*
G02*
X71212500Y-63425000I-212500J0D01*
G01*
X70412500Y-63425000D01*
G75*
G02*
X70200000Y-63212500I0J212500D01*
G01*
X70200000Y-62787500D01*
G75*
G02*
X70412500Y-62575000I212500J0D01*
G01*
X71212500Y-62575000D01*
G75*
G02*
X71425000Y-62787500I0J-212500D01*
G01*
G37*
%TD*%
%TO.C,D28*%
G36*
G01*
X84800000Y-62787500D02*
X84800000Y-63212500D01*
G75*
G02*
X84587500Y-63425000I-212500J0D01*
G01*
X83787500Y-63425000D01*
G75*
G02*
X83575000Y-63212500I0J212500D01*
G01*
X83575000Y-62787500D01*
G75*
G02*
X83787500Y-62575000I212500J0D01*
G01*
X84587500Y-62575000D01*
G75*
G02*
X84800000Y-62787500I0J-212500D01*
G01*
G37*
G36*
G01*
X86425000Y-62787500D02*
X86425000Y-63212500D01*
G75*
G02*
X86212500Y-63425000I-212500J0D01*
G01*
X85412500Y-63425000D01*
G75*
G02*
X85200000Y-63212500I0J212500D01*
G01*
X85200000Y-62787500D01*
G75*
G02*
X85412500Y-62575000I212500J0D01*
G01*
X86212500Y-62575000D01*
G75*
G02*
X86425000Y-62787500I0J-212500D01*
G01*
G37*
%TD*%
%TO.C,D27*%
G36*
G01*
X99800000Y-62787500D02*
X99800000Y-63212500D01*
G75*
G02*
X99587500Y-63425000I-212500J0D01*
G01*
X98787500Y-63425000D01*
G75*
G02*
X98575000Y-63212500I0J212500D01*
G01*
X98575000Y-62787500D01*
G75*
G02*
X98787500Y-62575000I212500J0D01*
G01*
X99587500Y-62575000D01*
G75*
G02*
X99800000Y-62787500I0J-212500D01*
G01*
G37*
G36*
G01*
X101425000Y-62787500D02*
X101425000Y-63212500D01*
G75*
G02*
X101212500Y-63425000I-212500J0D01*
G01*
X100412500Y-63425000D01*
G75*
G02*
X100200000Y-63212500I0J212500D01*
G01*
X100200000Y-62787500D01*
G75*
G02*
X100412500Y-62575000I212500J0D01*
G01*
X101212500Y-62575000D01*
G75*
G02*
X101425000Y-62787500I0J-212500D01*
G01*
G37*
%TD*%
%TO.C,D26*%
G36*
G01*
X69800000Y-59787500D02*
X69800000Y-60212500D01*
G75*
G02*
X69587500Y-60425000I-212500J0D01*
G01*
X68787500Y-60425000D01*
G75*
G02*
X68575000Y-60212500I0J212500D01*
G01*
X68575000Y-59787500D01*
G75*
G02*
X68787500Y-59575000I212500J0D01*
G01*
X69587500Y-59575000D01*
G75*
G02*
X69800000Y-59787500I0J-212500D01*
G01*
G37*
G36*
G01*
X71425000Y-59787500D02*
X71425000Y-60212500D01*
G75*
G02*
X71212500Y-60425000I-212500J0D01*
G01*
X70412500Y-60425000D01*
G75*
G02*
X70200000Y-60212500I0J212500D01*
G01*
X70200000Y-59787500D01*
G75*
G02*
X70412500Y-59575000I212500J0D01*
G01*
X71212500Y-59575000D01*
G75*
G02*
X71425000Y-59787500I0J-212500D01*
G01*
G37*
%TD*%
%TO.C,D25*%
G36*
G01*
X84800000Y-59787500D02*
X84800000Y-60212500D01*
G75*
G02*
X84587500Y-60425000I-212500J0D01*
G01*
X83787500Y-60425000D01*
G75*
G02*
X83575000Y-60212500I0J212500D01*
G01*
X83575000Y-59787500D01*
G75*
G02*
X83787500Y-59575000I212500J0D01*
G01*
X84587500Y-59575000D01*
G75*
G02*
X84800000Y-59787500I0J-212500D01*
G01*
G37*
G36*
G01*
X86425000Y-59787500D02*
X86425000Y-60212500D01*
G75*
G02*
X86212500Y-60425000I-212500J0D01*
G01*
X85412500Y-60425000D01*
G75*
G02*
X85200000Y-60212500I0J212500D01*
G01*
X85200000Y-59787500D01*
G75*
G02*
X85412500Y-59575000I212500J0D01*
G01*
X86212500Y-59575000D01*
G75*
G02*
X86425000Y-59787500I0J-212500D01*
G01*
G37*
%TD*%
%TO.C,D24*%
G36*
G01*
X99800000Y-59787500D02*
X99800000Y-60212500D01*
G75*
G02*
X99587500Y-60425000I-212500J0D01*
G01*
X98787500Y-60425000D01*
G75*
G02*
X98575000Y-60212500I0J212500D01*
G01*
X98575000Y-59787500D01*
G75*
G02*
X98787500Y-59575000I212500J0D01*
G01*
X99587500Y-59575000D01*
G75*
G02*
X99800000Y-59787500I0J-212500D01*
G01*
G37*
G36*
G01*
X101425000Y-59787500D02*
X101425000Y-60212500D01*
G75*
G02*
X101212500Y-60425000I-212500J0D01*
G01*
X100412500Y-60425000D01*
G75*
G02*
X100200000Y-60212500I0J212500D01*
G01*
X100200000Y-59787500D01*
G75*
G02*
X100412500Y-59575000I212500J0D01*
G01*
X101212500Y-59575000D01*
G75*
G02*
X101425000Y-59787500I0J-212500D01*
G01*
G37*
%TD*%
%TO.C,D23*%
G36*
G01*
X114800000Y-80787500D02*
X114800000Y-81212500D01*
G75*
G02*
X114587500Y-81425000I-212500J0D01*
G01*
X113787500Y-81425000D01*
G75*
G02*
X113575000Y-81212500I0J212500D01*
G01*
X113575000Y-80787500D01*
G75*
G02*
X113787500Y-80575000I212500J0D01*
G01*
X114587500Y-80575000D01*
G75*
G02*
X114800000Y-80787500I0J-212500D01*
G01*
G37*
G36*
G01*
X116425000Y-80787500D02*
X116425000Y-81212500D01*
G75*
G02*
X116212500Y-81425000I-212500J0D01*
G01*
X115412500Y-81425000D01*
G75*
G02*
X115200000Y-81212500I0J212500D01*
G01*
X115200000Y-80787500D01*
G75*
G02*
X115412500Y-80575000I212500J0D01*
G01*
X116212500Y-80575000D01*
G75*
G02*
X116425000Y-80787500I0J-212500D01*
G01*
G37*
%TD*%
%TO.C,D22*%
G36*
G01*
X131425000Y-80787500D02*
X131425000Y-81212500D01*
G75*
G02*
X131212500Y-81425000I-212500J0D01*
G01*
X130412500Y-81425000D01*
G75*
G02*
X130200000Y-81212500I0J212500D01*
G01*
X130200000Y-80787500D01*
G75*
G02*
X130412500Y-80575000I212500J0D01*
G01*
X131212500Y-80575000D01*
G75*
G02*
X131425000Y-80787500I0J-212500D01*
G01*
G37*
G36*
G01*
X129800000Y-80787500D02*
X129800000Y-81212500D01*
G75*
G02*
X129587500Y-81425000I-212500J0D01*
G01*
X128787500Y-81425000D01*
G75*
G02*
X128575000Y-81212500I0J212500D01*
G01*
X128575000Y-80787500D01*
G75*
G02*
X128787500Y-80575000I212500J0D01*
G01*
X129587500Y-80575000D01*
G75*
G02*
X129800000Y-80787500I0J-212500D01*
G01*
G37*
%TD*%
%TO.C,D21*%
G36*
G01*
X114800000Y-77787500D02*
X114800000Y-78212500D01*
G75*
G02*
X114587500Y-78425000I-212500J0D01*
G01*
X113787500Y-78425000D01*
G75*
G02*
X113575000Y-78212500I0J212500D01*
G01*
X113575000Y-77787500D01*
G75*
G02*
X113787500Y-77575000I212500J0D01*
G01*
X114587500Y-77575000D01*
G75*
G02*
X114800000Y-77787500I0J-212500D01*
G01*
G37*
G36*
G01*
X116425000Y-77787500D02*
X116425000Y-78212500D01*
G75*
G02*
X116212500Y-78425000I-212500J0D01*
G01*
X115412500Y-78425000D01*
G75*
G02*
X115200000Y-78212500I0J212500D01*
G01*
X115200000Y-77787500D01*
G75*
G02*
X115412500Y-77575000I212500J0D01*
G01*
X116212500Y-77575000D01*
G75*
G02*
X116425000Y-77787500I0J-212500D01*
G01*
G37*
%TD*%
%TO.C,D20*%
G36*
G01*
X131425000Y-77787500D02*
X131425000Y-78212500D01*
G75*
G02*
X131212500Y-78425000I-212500J0D01*
G01*
X130412500Y-78425000D01*
G75*
G02*
X130200000Y-78212500I0J212500D01*
G01*
X130200000Y-77787500D01*
G75*
G02*
X130412500Y-77575000I212500J0D01*
G01*
X131212500Y-77575000D01*
G75*
G02*
X131425000Y-77787500I0J-212500D01*
G01*
G37*
G36*
G01*
X129800000Y-77787500D02*
X129800000Y-78212500D01*
G75*
G02*
X129587500Y-78425000I-212500J0D01*
G01*
X128787500Y-78425000D01*
G75*
G02*
X128575000Y-78212500I0J212500D01*
G01*
X128575000Y-77787500D01*
G75*
G02*
X128787500Y-77575000I212500J0D01*
G01*
X129587500Y-77575000D01*
G75*
G02*
X129800000Y-77787500I0J-212500D01*
G01*
G37*
%TD*%
%TO.C,D19*%
G36*
G01*
X114800000Y-74787500D02*
X114800000Y-75212500D01*
G75*
G02*
X114587500Y-75425000I-212500J0D01*
G01*
X113787500Y-75425000D01*
G75*
G02*
X113575000Y-75212500I0J212500D01*
G01*
X113575000Y-74787500D01*
G75*
G02*
X113787500Y-74575000I212500J0D01*
G01*
X114587500Y-74575000D01*
G75*
G02*
X114800000Y-74787500I0J-212500D01*
G01*
G37*
G36*
G01*
X116425000Y-74787500D02*
X116425000Y-75212500D01*
G75*
G02*
X116212500Y-75425000I-212500J0D01*
G01*
X115412500Y-75425000D01*
G75*
G02*
X115200000Y-75212500I0J212500D01*
G01*
X115200000Y-74787500D01*
G75*
G02*
X115412500Y-74575000I212500J0D01*
G01*
X116212500Y-74575000D01*
G75*
G02*
X116425000Y-74787500I0J-212500D01*
G01*
G37*
%TD*%
%TO.C,D18*%
G36*
G01*
X131425000Y-74787500D02*
X131425000Y-75212500D01*
G75*
G02*
X131212500Y-75425000I-212500J0D01*
G01*
X130412500Y-75425000D01*
G75*
G02*
X130200000Y-75212500I0J212500D01*
G01*
X130200000Y-74787500D01*
G75*
G02*
X130412500Y-74575000I212500J0D01*
G01*
X131212500Y-74575000D01*
G75*
G02*
X131425000Y-74787500I0J-212500D01*
G01*
G37*
G36*
G01*
X129800000Y-74787500D02*
X129800000Y-75212500D01*
G75*
G02*
X129587500Y-75425000I-212500J0D01*
G01*
X128787500Y-75425000D01*
G75*
G02*
X128575000Y-75212500I0J212500D01*
G01*
X128575000Y-74787500D01*
G75*
G02*
X128787500Y-74575000I212500J0D01*
G01*
X129587500Y-74575000D01*
G75*
G02*
X129800000Y-74787500I0J-212500D01*
G01*
G37*
%TD*%
%TO.C,D17*%
G36*
G01*
X114800000Y-71787500D02*
X114800000Y-72212500D01*
G75*
G02*
X114587500Y-72425000I-212500J0D01*
G01*
X113787500Y-72425000D01*
G75*
G02*
X113575000Y-72212500I0J212500D01*
G01*
X113575000Y-71787500D01*
G75*
G02*
X113787500Y-71575000I212500J0D01*
G01*
X114587500Y-71575000D01*
G75*
G02*
X114800000Y-71787500I0J-212500D01*
G01*
G37*
G36*
G01*
X116425000Y-71787500D02*
X116425000Y-72212500D01*
G75*
G02*
X116212500Y-72425000I-212500J0D01*
G01*
X115412500Y-72425000D01*
G75*
G02*
X115200000Y-72212500I0J212500D01*
G01*
X115200000Y-71787500D01*
G75*
G02*
X115412500Y-71575000I212500J0D01*
G01*
X116212500Y-71575000D01*
G75*
G02*
X116425000Y-71787500I0J-212500D01*
G01*
G37*
%TD*%
%TO.C,D16*%
G36*
G01*
X131425000Y-71787500D02*
X131425000Y-72212500D01*
G75*
G02*
X131212500Y-72425000I-212500J0D01*
G01*
X130412500Y-72425000D01*
G75*
G02*
X130200000Y-72212500I0J212500D01*
G01*
X130200000Y-71787500D01*
G75*
G02*
X130412500Y-71575000I212500J0D01*
G01*
X131212500Y-71575000D01*
G75*
G02*
X131425000Y-71787500I0J-212500D01*
G01*
G37*
G36*
G01*
X129800000Y-71787500D02*
X129800000Y-72212500D01*
G75*
G02*
X129587500Y-72425000I-212500J0D01*
G01*
X128787500Y-72425000D01*
G75*
G02*
X128575000Y-72212500I0J212500D01*
G01*
X128575000Y-71787500D01*
G75*
G02*
X128787500Y-71575000I212500J0D01*
G01*
X129587500Y-71575000D01*
G75*
G02*
X129800000Y-71787500I0J-212500D01*
G01*
G37*
%TD*%
%TO.C,D15*%
G36*
G01*
X114800000Y-68787500D02*
X114800000Y-69212500D01*
G75*
G02*
X114587500Y-69425000I-212500J0D01*
G01*
X113787500Y-69425000D01*
G75*
G02*
X113575000Y-69212500I0J212500D01*
G01*
X113575000Y-68787500D01*
G75*
G02*
X113787500Y-68575000I212500J0D01*
G01*
X114587500Y-68575000D01*
G75*
G02*
X114800000Y-68787500I0J-212500D01*
G01*
G37*
G36*
G01*
X116425000Y-68787500D02*
X116425000Y-69212500D01*
G75*
G02*
X116212500Y-69425000I-212500J0D01*
G01*
X115412500Y-69425000D01*
G75*
G02*
X115200000Y-69212500I0J212500D01*
G01*
X115200000Y-68787500D01*
G75*
G02*
X115412500Y-68575000I212500J0D01*
G01*
X116212500Y-68575000D01*
G75*
G02*
X116425000Y-68787500I0J-212500D01*
G01*
G37*
%TD*%
%TO.C,D14*%
G36*
G01*
X131425000Y-68787500D02*
X131425000Y-69212500D01*
G75*
G02*
X131212500Y-69425000I-212500J0D01*
G01*
X130412500Y-69425000D01*
G75*
G02*
X130200000Y-69212500I0J212500D01*
G01*
X130200000Y-68787500D01*
G75*
G02*
X130412500Y-68575000I212500J0D01*
G01*
X131212500Y-68575000D01*
G75*
G02*
X131425000Y-68787500I0J-212500D01*
G01*
G37*
G36*
G01*
X129800000Y-68787500D02*
X129800000Y-69212500D01*
G75*
G02*
X129587500Y-69425000I-212500J0D01*
G01*
X128787500Y-69425000D01*
G75*
G02*
X128575000Y-69212500I0J212500D01*
G01*
X128575000Y-68787500D01*
G75*
G02*
X128787500Y-68575000I212500J0D01*
G01*
X129587500Y-68575000D01*
G75*
G02*
X129800000Y-68787500I0J-212500D01*
G01*
G37*
%TD*%
%TO.C,D13*%
G36*
G01*
X114800000Y-65787500D02*
X114800000Y-66212500D01*
G75*
G02*
X114587500Y-66425000I-212500J0D01*
G01*
X113787500Y-66425000D01*
G75*
G02*
X113575000Y-66212500I0J212500D01*
G01*
X113575000Y-65787500D01*
G75*
G02*
X113787500Y-65575000I212500J0D01*
G01*
X114587500Y-65575000D01*
G75*
G02*
X114800000Y-65787500I0J-212500D01*
G01*
G37*
G36*
G01*
X116425000Y-65787500D02*
X116425000Y-66212500D01*
G75*
G02*
X116212500Y-66425000I-212500J0D01*
G01*
X115412500Y-66425000D01*
G75*
G02*
X115200000Y-66212500I0J212500D01*
G01*
X115200000Y-65787500D01*
G75*
G02*
X115412500Y-65575000I212500J0D01*
G01*
X116212500Y-65575000D01*
G75*
G02*
X116425000Y-65787500I0J-212500D01*
G01*
G37*
%TD*%
%TO.C,D12*%
G36*
G01*
X131425000Y-65787500D02*
X131425000Y-66212500D01*
G75*
G02*
X131212500Y-66425000I-212500J0D01*
G01*
X130412500Y-66425000D01*
G75*
G02*
X130200000Y-66212500I0J212500D01*
G01*
X130200000Y-65787500D01*
G75*
G02*
X130412500Y-65575000I212500J0D01*
G01*
X131212500Y-65575000D01*
G75*
G02*
X131425000Y-65787500I0J-212500D01*
G01*
G37*
G36*
G01*
X129800000Y-65787500D02*
X129800000Y-66212500D01*
G75*
G02*
X129587500Y-66425000I-212500J0D01*
G01*
X128787500Y-66425000D01*
G75*
G02*
X128575000Y-66212500I0J212500D01*
G01*
X128575000Y-65787500D01*
G75*
G02*
X128787500Y-65575000I212500J0D01*
G01*
X129587500Y-65575000D01*
G75*
G02*
X129800000Y-65787500I0J-212500D01*
G01*
G37*
%TD*%
%TO.C,D11*%
G36*
G01*
X114800000Y-62787500D02*
X114800000Y-63212500D01*
G75*
G02*
X114587500Y-63425000I-212500J0D01*
G01*
X113787500Y-63425000D01*
G75*
G02*
X113575000Y-63212500I0J212500D01*
G01*
X113575000Y-62787500D01*
G75*
G02*
X113787500Y-62575000I212500J0D01*
G01*
X114587500Y-62575000D01*
G75*
G02*
X114800000Y-62787500I0J-212500D01*
G01*
G37*
G36*
G01*
X116425000Y-62787500D02*
X116425000Y-63212500D01*
G75*
G02*
X116212500Y-63425000I-212500J0D01*
G01*
X115412500Y-63425000D01*
G75*
G02*
X115200000Y-63212500I0J212500D01*
G01*
X115200000Y-62787500D01*
G75*
G02*
X115412500Y-62575000I212500J0D01*
G01*
X116212500Y-62575000D01*
G75*
G02*
X116425000Y-62787500I0J-212500D01*
G01*
G37*
%TD*%
%TO.C,D10*%
G36*
G01*
X131425000Y-62787500D02*
X131425000Y-63212500D01*
G75*
G02*
X131212500Y-63425000I-212500J0D01*
G01*
X130412500Y-63425000D01*
G75*
G02*
X130200000Y-63212500I0J212500D01*
G01*
X130200000Y-62787500D01*
G75*
G02*
X130412500Y-62575000I212500J0D01*
G01*
X131212500Y-62575000D01*
G75*
G02*
X131425000Y-62787500I0J-212500D01*
G01*
G37*
G36*
G01*
X129800000Y-62787500D02*
X129800000Y-63212500D01*
G75*
G02*
X129587500Y-63425000I-212500J0D01*
G01*
X128787500Y-63425000D01*
G75*
G02*
X128575000Y-63212500I0J212500D01*
G01*
X128575000Y-62787500D01*
G75*
G02*
X128787500Y-62575000I212500J0D01*
G01*
X129587500Y-62575000D01*
G75*
G02*
X129800000Y-62787500I0J-212500D01*
G01*
G37*
%TD*%
%TO.C,D9*%
G36*
G01*
X114800000Y-59787500D02*
X114800000Y-60212500D01*
G75*
G02*
X114587500Y-60425000I-212500J0D01*
G01*
X113787500Y-60425000D01*
G75*
G02*
X113575000Y-60212500I0J212500D01*
G01*
X113575000Y-59787500D01*
G75*
G02*
X113787500Y-59575000I212500J0D01*
G01*
X114587500Y-59575000D01*
G75*
G02*
X114800000Y-59787500I0J-212500D01*
G01*
G37*
G36*
G01*
X116425000Y-59787500D02*
X116425000Y-60212500D01*
G75*
G02*
X116212500Y-60425000I-212500J0D01*
G01*
X115412500Y-60425000D01*
G75*
G02*
X115200000Y-60212500I0J212500D01*
G01*
X115200000Y-59787500D01*
G75*
G02*
X115412500Y-59575000I212500J0D01*
G01*
X116212500Y-59575000D01*
G75*
G02*
X116425000Y-59787500I0J-212500D01*
G01*
G37*
%TD*%
%TO.C,D8*%
G36*
G01*
X131425000Y-59787500D02*
X131425000Y-60212500D01*
G75*
G02*
X131212500Y-60425000I-212500J0D01*
G01*
X130412500Y-60425000D01*
G75*
G02*
X130200000Y-60212500I0J212500D01*
G01*
X130200000Y-59787500D01*
G75*
G02*
X130412500Y-59575000I212500J0D01*
G01*
X131212500Y-59575000D01*
G75*
G02*
X131425000Y-59787500I0J-212500D01*
G01*
G37*
G36*
G01*
X129800000Y-59787500D02*
X129800000Y-60212500D01*
G75*
G02*
X129587500Y-60425000I-212500J0D01*
G01*
X128787500Y-60425000D01*
G75*
G02*
X128575000Y-60212500I0J212500D01*
G01*
X128575000Y-59787500D01*
G75*
G02*
X128787500Y-59575000I212500J0D01*
G01*
X129587500Y-59575000D01*
G75*
G02*
X129800000Y-59787500I0J-212500D01*
G01*
G37*
%TD*%
D14*
%TO.C,D7*%
X73000000Y-126300000D03*
X69000000Y-126300000D03*
%TD*%
D15*
%TO.C,D6*%
X64800000Y-124350000D03*
X64800000Y-127650000D03*
%TD*%
D16*
%TO.C,D5*%
X56500000Y-136750000D03*
X54400000Y-136750000D03*
%TD*%
D14*
%TO.C,D4*%
X85900000Y-145000000D03*
X89900000Y-145000000D03*
%TD*%
%TO.C,D3*%
X85900000Y-133000000D03*
X89900000Y-133000000D03*
%TD*%
%TO.C,D2*%
X89900000Y-141000000D03*
X85900000Y-141000000D03*
%TD*%
%TO.C,D1*%
X89900000Y-137000000D03*
X85900000Y-137000000D03*
%TD*%
%TO.C,C23*%
G36*
G01*
X69372500Y-92810000D02*
X69027500Y-92810000D01*
G75*
G02*
X68880000Y-92662500I0J147500D01*
G01*
X68880000Y-92367500D01*
G75*
G02*
X69027500Y-92220000I147500J0D01*
G01*
X69372500Y-92220000D01*
G75*
G02*
X69520000Y-92367500I0J-147500D01*
G01*
X69520000Y-92662500D01*
G75*
G02*
X69372500Y-92810000I-147500J0D01*
G01*
G37*
G36*
G01*
X69372500Y-93780000D02*
X69027500Y-93780000D01*
G75*
G02*
X68880000Y-93632500I0J147500D01*
G01*
X68880000Y-93337500D01*
G75*
G02*
X69027500Y-93190000I147500J0D01*
G01*
X69372500Y-93190000D01*
G75*
G02*
X69520000Y-93337500I0J-147500D01*
G01*
X69520000Y-93632500D01*
G75*
G02*
X69372500Y-93780000I-147500J0D01*
G01*
G37*
%TD*%
%TO.C,C22*%
G36*
G01*
X84372500Y-92810000D02*
X84027500Y-92810000D01*
G75*
G02*
X83880000Y-92662500I0J147500D01*
G01*
X83880000Y-92367500D01*
G75*
G02*
X84027500Y-92220000I147500J0D01*
G01*
X84372500Y-92220000D01*
G75*
G02*
X84520000Y-92367500I0J-147500D01*
G01*
X84520000Y-92662500D01*
G75*
G02*
X84372500Y-92810000I-147500J0D01*
G01*
G37*
G36*
G01*
X84372500Y-93780000D02*
X84027500Y-93780000D01*
G75*
G02*
X83880000Y-93632500I0J147500D01*
G01*
X83880000Y-93337500D01*
G75*
G02*
X84027500Y-93190000I147500J0D01*
G01*
X84372500Y-93190000D01*
G75*
G02*
X84520000Y-93337500I0J-147500D01*
G01*
X84520000Y-93632500D01*
G75*
G02*
X84372500Y-93780000I-147500J0D01*
G01*
G37*
%TD*%
%TO.C,C21*%
G36*
G01*
X99372500Y-92810000D02*
X99027500Y-92810000D01*
G75*
G02*
X98880000Y-92662500I0J147500D01*
G01*
X98880000Y-92367500D01*
G75*
G02*
X99027500Y-92220000I147500J0D01*
G01*
X99372500Y-92220000D01*
G75*
G02*
X99520000Y-92367500I0J-147500D01*
G01*
X99520000Y-92662500D01*
G75*
G02*
X99372500Y-92810000I-147500J0D01*
G01*
G37*
G36*
G01*
X99372500Y-93780000D02*
X99027500Y-93780000D01*
G75*
G02*
X98880000Y-93632500I0J147500D01*
G01*
X98880000Y-93337500D01*
G75*
G02*
X99027500Y-93190000I147500J0D01*
G01*
X99372500Y-93190000D01*
G75*
G02*
X99520000Y-93337500I0J-147500D01*
G01*
X99520000Y-93632500D01*
G75*
G02*
X99372500Y-93780000I-147500J0D01*
G01*
G37*
%TD*%
%TO.C,C20*%
G36*
G01*
X139275000Y-140127500D02*
X139275000Y-140472500D01*
G75*
G02*
X139127500Y-140620000I-147500J0D01*
G01*
X138832500Y-140620000D01*
G75*
G02*
X138685000Y-140472500I0J147500D01*
G01*
X138685000Y-140127500D01*
G75*
G02*
X138832500Y-139980000I147500J0D01*
G01*
X139127500Y-139980000D01*
G75*
G02*
X139275000Y-140127500I0J-147500D01*
G01*
G37*
G36*
G01*
X140245000Y-140127500D02*
X140245000Y-140472500D01*
G75*
G02*
X140097500Y-140620000I-147500J0D01*
G01*
X139802500Y-140620000D01*
G75*
G02*
X139655000Y-140472500I0J147500D01*
G01*
X139655000Y-140127500D01*
G75*
G02*
X139802500Y-139980000I147500J0D01*
G01*
X140097500Y-139980000D01*
G75*
G02*
X140245000Y-140127500I0J-147500D01*
G01*
G37*
%TD*%
%TO.C,C19*%
G36*
G01*
X121225000Y-137227500D02*
X121225000Y-137572500D01*
G75*
G02*
X121077500Y-137720000I-147500J0D01*
G01*
X120782500Y-137720000D01*
G75*
G02*
X120635000Y-137572500I0J147500D01*
G01*
X120635000Y-137227500D01*
G75*
G02*
X120782500Y-137080000I147500J0D01*
G01*
X121077500Y-137080000D01*
G75*
G02*
X121225000Y-137227500I0J-147500D01*
G01*
G37*
G36*
G01*
X122195000Y-137227500D02*
X122195000Y-137572500D01*
G75*
G02*
X122047500Y-137720000I-147500J0D01*
G01*
X121752500Y-137720000D01*
G75*
G02*
X121605000Y-137572500I0J147500D01*
G01*
X121605000Y-137227500D01*
G75*
G02*
X121752500Y-137080000I147500J0D01*
G01*
X122047500Y-137080000D01*
G75*
G02*
X122195000Y-137227500I0J-147500D01*
G01*
G37*
%TD*%
%TO.C,C18*%
G36*
G01*
X75093750Y-122950000D02*
X75606250Y-122950000D01*
G75*
G02*
X75825000Y-123168750I0J-218750D01*
G01*
X75825000Y-123606250D01*
G75*
G02*
X75606250Y-123825000I-218750J0D01*
G01*
X75093750Y-123825000D01*
G75*
G02*
X74875000Y-123606250I0J218750D01*
G01*
X74875000Y-123168750D01*
G75*
G02*
X75093750Y-122950000I218750J0D01*
G01*
G37*
G36*
G01*
X75093750Y-121375000D02*
X75606250Y-121375000D01*
G75*
G02*
X75825000Y-121593750I0J-218750D01*
G01*
X75825000Y-122031250D01*
G75*
G02*
X75606250Y-122250000I-218750J0D01*
G01*
X75093750Y-122250000D01*
G75*
G02*
X74875000Y-122031250I0J218750D01*
G01*
X74875000Y-121593750D01*
G75*
G02*
X75093750Y-121375000I218750J0D01*
G01*
G37*
%TD*%
%TO.C,C17*%
G36*
G01*
X73493750Y-122950000D02*
X74006250Y-122950000D01*
G75*
G02*
X74225000Y-123168750I0J-218750D01*
G01*
X74225000Y-123606250D01*
G75*
G02*
X74006250Y-123825000I-218750J0D01*
G01*
X73493750Y-123825000D01*
G75*
G02*
X73275000Y-123606250I0J218750D01*
G01*
X73275000Y-123168750D01*
G75*
G02*
X73493750Y-122950000I218750J0D01*
G01*
G37*
G36*
G01*
X73493750Y-121375000D02*
X74006250Y-121375000D01*
G75*
G02*
X74225000Y-121593750I0J-218750D01*
G01*
X74225000Y-122031250D01*
G75*
G02*
X74006250Y-122250000I-218750J0D01*
G01*
X73493750Y-122250000D01*
G75*
G02*
X73275000Y-122031250I0J218750D01*
G01*
X73275000Y-121593750D01*
G75*
G02*
X73493750Y-121375000I218750J0D01*
G01*
G37*
%TD*%
%TO.C,C16*%
G36*
G01*
X101625000Y-118327500D02*
X101625000Y-118672500D01*
G75*
G02*
X101477500Y-118820000I-147500J0D01*
G01*
X101182500Y-118820000D01*
G75*
G02*
X101035000Y-118672500I0J147500D01*
G01*
X101035000Y-118327500D01*
G75*
G02*
X101182500Y-118180000I147500J0D01*
G01*
X101477500Y-118180000D01*
G75*
G02*
X101625000Y-118327500I0J-147500D01*
G01*
G37*
G36*
G01*
X102595000Y-118327500D02*
X102595000Y-118672500D01*
G75*
G02*
X102447500Y-118820000I-147500J0D01*
G01*
X102152500Y-118820000D01*
G75*
G02*
X102005000Y-118672500I0J147500D01*
G01*
X102005000Y-118327500D01*
G75*
G02*
X102152500Y-118180000I147500J0D01*
G01*
X102447500Y-118180000D01*
G75*
G02*
X102595000Y-118327500I0J-147500D01*
G01*
G37*
%TD*%
%TO.C,C15*%
G36*
G01*
X114372500Y-92810000D02*
X114027500Y-92810000D01*
G75*
G02*
X113880000Y-92662500I0J147500D01*
G01*
X113880000Y-92367500D01*
G75*
G02*
X114027500Y-92220000I147500J0D01*
G01*
X114372500Y-92220000D01*
G75*
G02*
X114520000Y-92367500I0J-147500D01*
G01*
X114520000Y-92662500D01*
G75*
G02*
X114372500Y-92810000I-147500J0D01*
G01*
G37*
G36*
G01*
X114372500Y-93780000D02*
X114027500Y-93780000D01*
G75*
G02*
X113880000Y-93632500I0J147500D01*
G01*
X113880000Y-93337500D01*
G75*
G02*
X114027500Y-93190000I147500J0D01*
G01*
X114372500Y-93190000D01*
G75*
G02*
X114520000Y-93337500I0J-147500D01*
G01*
X114520000Y-93632500D01*
G75*
G02*
X114372500Y-93780000I-147500J0D01*
G01*
G37*
%TD*%
%TO.C,C14*%
G36*
G01*
X129372500Y-92810000D02*
X129027500Y-92810000D01*
G75*
G02*
X128880000Y-92662500I0J147500D01*
G01*
X128880000Y-92367500D01*
G75*
G02*
X129027500Y-92220000I147500J0D01*
G01*
X129372500Y-92220000D01*
G75*
G02*
X129520000Y-92367500I0J-147500D01*
G01*
X129520000Y-92662500D01*
G75*
G02*
X129372500Y-92810000I-147500J0D01*
G01*
G37*
G36*
G01*
X129372500Y-93780000D02*
X129027500Y-93780000D01*
G75*
G02*
X128880000Y-93632500I0J147500D01*
G01*
X128880000Y-93337500D01*
G75*
G02*
X129027500Y-93190000I147500J0D01*
G01*
X129372500Y-93190000D01*
G75*
G02*
X129520000Y-93337500I0J-147500D01*
G01*
X129520000Y-93632500D01*
G75*
G02*
X129372500Y-93780000I-147500J0D01*
G01*
G37*
%TD*%
%TO.C,C13*%
G36*
G01*
X66972500Y-127010000D02*
X66627500Y-127010000D01*
G75*
G02*
X66480000Y-126862500I0J147500D01*
G01*
X66480000Y-126567500D01*
G75*
G02*
X66627500Y-126420000I147500J0D01*
G01*
X66972500Y-126420000D01*
G75*
G02*
X67120000Y-126567500I0J-147500D01*
G01*
X67120000Y-126862500D01*
G75*
G02*
X66972500Y-127010000I-147500J0D01*
G01*
G37*
G36*
G01*
X66972500Y-127980000D02*
X66627500Y-127980000D01*
G75*
G02*
X66480000Y-127832500I0J147500D01*
G01*
X66480000Y-127537500D01*
G75*
G02*
X66627500Y-127390000I147500J0D01*
G01*
X66972500Y-127390000D01*
G75*
G02*
X67120000Y-127537500I0J-147500D01*
G01*
X67120000Y-127832500D01*
G75*
G02*
X66972500Y-127980000I-147500J0D01*
G01*
G37*
%TD*%
%TO.C,C12*%
G36*
G01*
X86725000Y-118327500D02*
X86725000Y-118672500D01*
G75*
G02*
X86577500Y-118820000I-147500J0D01*
G01*
X86282500Y-118820000D01*
G75*
G02*
X86135000Y-118672500I0J147500D01*
G01*
X86135000Y-118327500D01*
G75*
G02*
X86282500Y-118180000I147500J0D01*
G01*
X86577500Y-118180000D01*
G75*
G02*
X86725000Y-118327500I0J-147500D01*
G01*
G37*
G36*
G01*
X87695000Y-118327500D02*
X87695000Y-118672500D01*
G75*
G02*
X87547500Y-118820000I-147500J0D01*
G01*
X87252500Y-118820000D01*
G75*
G02*
X87105000Y-118672500I0J147500D01*
G01*
X87105000Y-118327500D01*
G75*
G02*
X87252500Y-118180000I147500J0D01*
G01*
X87547500Y-118180000D01*
G75*
G02*
X87695000Y-118327500I0J-147500D01*
G01*
G37*
%TD*%
%TO.C,C11*%
G36*
G01*
X76190000Y-145872500D02*
X76190000Y-145527500D01*
G75*
G02*
X76337500Y-145380000I147500J0D01*
G01*
X76632500Y-145380000D01*
G75*
G02*
X76780000Y-145527500I0J-147500D01*
G01*
X76780000Y-145872500D01*
G75*
G02*
X76632500Y-146020000I-147500J0D01*
G01*
X76337500Y-146020000D01*
G75*
G02*
X76190000Y-145872500I0J147500D01*
G01*
G37*
G36*
G01*
X75220000Y-145872500D02*
X75220000Y-145527500D01*
G75*
G02*
X75367500Y-145380000I147500J0D01*
G01*
X75662500Y-145380000D01*
G75*
G02*
X75810000Y-145527500I0J-147500D01*
G01*
X75810000Y-145872500D01*
G75*
G02*
X75662500Y-146020000I-147500J0D01*
G01*
X75367500Y-146020000D01*
G75*
G02*
X75220000Y-145872500I0J147500D01*
G01*
G37*
%TD*%
%TO.C,C10*%
G36*
G01*
X72137500Y-130356250D02*
X72137500Y-129843750D01*
G75*
G02*
X72356250Y-129625000I218750J0D01*
G01*
X72793750Y-129625000D01*
G75*
G02*
X73012500Y-129843750I0J-218750D01*
G01*
X73012500Y-130356250D01*
G75*
G02*
X72793750Y-130575000I-218750J0D01*
G01*
X72356250Y-130575000D01*
G75*
G02*
X72137500Y-130356250I0J218750D01*
G01*
G37*
G36*
G01*
X70562500Y-130356250D02*
X70562500Y-129843750D01*
G75*
G02*
X70781250Y-129625000I218750J0D01*
G01*
X71218750Y-129625000D01*
G75*
G02*
X71437500Y-129843750I0J-218750D01*
G01*
X71437500Y-130356250D01*
G75*
G02*
X71218750Y-130575000I-218750J0D01*
G01*
X70781250Y-130575000D01*
G75*
G02*
X70562500Y-130356250I0J218750D01*
G01*
G37*
%TD*%
%TO.C,C9*%
G36*
G01*
X65000000Y-138000000D02*
X65000000Y-140000000D01*
G75*
G02*
X64750000Y-140250000I-250000J0D01*
G01*
X61250000Y-140250000D01*
G75*
G02*
X61000000Y-140000000I0J250000D01*
G01*
X61000000Y-138000000D01*
G75*
G02*
X61250000Y-137750000I250000J0D01*
G01*
X64750000Y-137750000D01*
G75*
G02*
X65000000Y-138000000I0J-250000D01*
G01*
G37*
G36*
G01*
X73000000Y-138000000D02*
X73000000Y-140000000D01*
G75*
G02*
X72750000Y-140250000I-250000J0D01*
G01*
X69250000Y-140250000D01*
G75*
G02*
X69000000Y-140000000I0J250000D01*
G01*
X69000000Y-138000000D01*
G75*
G02*
X69250000Y-137750000I250000J0D01*
G01*
X72750000Y-137750000D01*
G75*
G02*
X73000000Y-138000000I0J-250000D01*
G01*
G37*
%TD*%
%TO.C,C8*%
G36*
G01*
X125725000Y-112227500D02*
X125725000Y-112572500D01*
G75*
G02*
X125577500Y-112720000I-147500J0D01*
G01*
X125282500Y-112720000D01*
G75*
G02*
X125135000Y-112572500I0J147500D01*
G01*
X125135000Y-112227500D01*
G75*
G02*
X125282500Y-112080000I147500J0D01*
G01*
X125577500Y-112080000D01*
G75*
G02*
X125725000Y-112227500I0J-147500D01*
G01*
G37*
G36*
G01*
X126695000Y-112227500D02*
X126695000Y-112572500D01*
G75*
G02*
X126547500Y-112720000I-147500J0D01*
G01*
X126252500Y-112720000D01*
G75*
G02*
X126105000Y-112572500I0J147500D01*
G01*
X126105000Y-112227500D01*
G75*
G02*
X126252500Y-112080000I147500J0D01*
G01*
X126547500Y-112080000D01*
G75*
G02*
X126695000Y-112227500I0J-147500D01*
G01*
G37*
%TD*%
%TO.C,C7*%
G36*
G01*
X128075000Y-112572500D02*
X128075000Y-112227500D01*
G75*
G02*
X128222500Y-112080000I147500J0D01*
G01*
X128517500Y-112080000D01*
G75*
G02*
X128665000Y-112227500I0J-147500D01*
G01*
X128665000Y-112572500D01*
G75*
G02*
X128517500Y-112720000I-147500J0D01*
G01*
X128222500Y-112720000D01*
G75*
G02*
X128075000Y-112572500I0J147500D01*
G01*
G37*
G36*
G01*
X127105000Y-112572500D02*
X127105000Y-112227500D01*
G75*
G02*
X127252500Y-112080000I147500J0D01*
G01*
X127547500Y-112080000D01*
G75*
G02*
X127695000Y-112227500I0J-147500D01*
G01*
X127695000Y-112572500D01*
G75*
G02*
X127547500Y-112720000I-147500J0D01*
G01*
X127252500Y-112720000D01*
G75*
G02*
X127105000Y-112572500I0J147500D01*
G01*
G37*
%TD*%
%TO.C,C6*%
G36*
G01*
X131075000Y-140172500D02*
X131075000Y-139827500D01*
G75*
G02*
X131222500Y-139680000I147500J0D01*
G01*
X131517500Y-139680000D01*
G75*
G02*
X131665000Y-139827500I0J-147500D01*
G01*
X131665000Y-140172500D01*
G75*
G02*
X131517500Y-140320000I-147500J0D01*
G01*
X131222500Y-140320000D01*
G75*
G02*
X131075000Y-140172500I0J147500D01*
G01*
G37*
G36*
G01*
X130105000Y-140172500D02*
X130105000Y-139827500D01*
G75*
G02*
X130252500Y-139680000I147500J0D01*
G01*
X130547500Y-139680000D01*
G75*
G02*
X130695000Y-139827500I0J-147500D01*
G01*
X130695000Y-140172500D01*
G75*
G02*
X130547500Y-140320000I-147500J0D01*
G01*
X130252500Y-140320000D01*
G75*
G02*
X130105000Y-140172500I0J147500D01*
G01*
G37*
%TD*%
%TO.C,C5*%
G36*
G01*
X125062500Y-110743750D02*
X125062500Y-111256250D01*
G75*
G02*
X124843750Y-111475000I-218750J0D01*
G01*
X124406250Y-111475000D01*
G75*
G02*
X124187500Y-111256250I0J218750D01*
G01*
X124187500Y-110743750D01*
G75*
G02*
X124406250Y-110525000I218750J0D01*
G01*
X124843750Y-110525000D01*
G75*
G02*
X125062500Y-110743750I0J-218750D01*
G01*
G37*
G36*
G01*
X126637500Y-110743750D02*
X126637500Y-111256250D01*
G75*
G02*
X126418750Y-111475000I-218750J0D01*
G01*
X125981250Y-111475000D01*
G75*
G02*
X125762500Y-111256250I0J218750D01*
G01*
X125762500Y-110743750D01*
G75*
G02*
X125981250Y-110525000I218750J0D01*
G01*
X126418750Y-110525000D01*
G75*
G02*
X126637500Y-110743750I0J-218750D01*
G01*
G37*
%TD*%
%TO.C,C4*%
G36*
G01*
X128837500Y-111256250D02*
X128837500Y-110743750D01*
G75*
G02*
X129056250Y-110525000I218750J0D01*
G01*
X129493750Y-110525000D01*
G75*
G02*
X129712500Y-110743750I0J-218750D01*
G01*
X129712500Y-111256250D01*
G75*
G02*
X129493750Y-111475000I-218750J0D01*
G01*
X129056250Y-111475000D01*
G75*
G02*
X128837500Y-111256250I0J218750D01*
G01*
G37*
G36*
G01*
X127262500Y-111256250D02*
X127262500Y-110743750D01*
G75*
G02*
X127481250Y-110525000I218750J0D01*
G01*
X127918750Y-110525000D01*
G75*
G02*
X128137500Y-110743750I0J-218750D01*
G01*
X128137500Y-111256250D01*
G75*
G02*
X127918750Y-111475000I-218750J0D01*
G01*
X127481250Y-111475000D01*
G75*
G02*
X127262500Y-111256250I0J218750D01*
G01*
G37*
%TD*%
%TO.C,C3*%
G36*
G01*
X117072500Y-112125000D02*
X116727500Y-112125000D01*
G75*
G02*
X116580000Y-111977500I0J147500D01*
G01*
X116580000Y-111682500D01*
G75*
G02*
X116727500Y-111535000I147500J0D01*
G01*
X117072500Y-111535000D01*
G75*
G02*
X117220000Y-111682500I0J-147500D01*
G01*
X117220000Y-111977500D01*
G75*
G02*
X117072500Y-112125000I-147500J0D01*
G01*
G37*
G36*
G01*
X117072500Y-113095000D02*
X116727500Y-113095000D01*
G75*
G02*
X116580000Y-112947500I0J147500D01*
G01*
X116580000Y-112652500D01*
G75*
G02*
X116727500Y-112505000I147500J0D01*
G01*
X117072500Y-112505000D01*
G75*
G02*
X117220000Y-112652500I0J-147500D01*
G01*
X117220000Y-112947500D01*
G75*
G02*
X117072500Y-113095000I-147500J0D01*
G01*
G37*
%TD*%
%TO.C,C2*%
G36*
G01*
X116727500Y-109775000D02*
X117072500Y-109775000D01*
G75*
G02*
X117220000Y-109922500I0J-147500D01*
G01*
X117220000Y-110217500D01*
G75*
G02*
X117072500Y-110365000I-147500J0D01*
G01*
X116727500Y-110365000D01*
G75*
G02*
X116580000Y-110217500I0J147500D01*
G01*
X116580000Y-109922500D01*
G75*
G02*
X116727500Y-109775000I147500J0D01*
G01*
G37*
G36*
G01*
X116727500Y-108805000D02*
X117072500Y-108805000D01*
G75*
G02*
X117220000Y-108952500I0J-147500D01*
G01*
X117220000Y-109247500D01*
G75*
G02*
X117072500Y-109395000I-147500J0D01*
G01*
X116727500Y-109395000D01*
G75*
G02*
X116580000Y-109247500I0J147500D01*
G01*
X116580000Y-108952500D01*
G75*
G02*
X116727500Y-108805000I147500J0D01*
G01*
G37*
%TD*%
M02*
