M48
INCH,TZ
T1C0.0118
T2C0.0295
T3C0.0315
T4C0.0394
%
G90
G05
T1
X20079Y-46654
X20079Y-48228
X20079Y-49803
X20079Y-51378
X20079Y-52953
X20079Y-54724
X20079Y-56496
X20472Y-58071
X21654Y-21654
X21654Y-23622
X21654Y-25591
X21654Y-27559
X21654Y-29528
X21654Y-31496
X21654Y-33465
X21654Y-35433
X21654Y-39370
X21654Y-41339
X21654Y-43307
X21654Y-47244
X21654Y-57087
X21850Y-48425
X21850Y-51575
X22165Y-58701
X22457Y-55248
X22472Y-54587
X22583Y-53835
X22638Y-34843
X23047Y-34224
X23228Y-47047
X23228Y-50197
X23622Y-21654
X23622Y-23622
X23622Y-25591
X23622Y-27559
X23622Y-29528
X23622Y-31496
X23622Y-39370
X23622Y-41339
X23622Y-45276
X23622Y-53150
X23622Y-57087
X23622Y-58701
X23780Y-54720
X24055Y-38543
X24213Y-46850
X24213Y-50984
X24370Y-38937
X24547Y-38031
X24799Y-54004
X24807Y-55437
X24921Y-38307
X25059Y-37539
X25197Y-25787
X25197Y-58701
X25390Y-50969
X25591Y-21654
X25591Y-23622
X25591Y-26575
X25591Y-35827
X25591Y-41339
X25591Y-53150
X25591Y-57087
X25787Y-49606
X25819Y-54736
X25858Y-51232
X26181Y-45866
X26378Y-28150
X26378Y-43898
X26732Y-38937
X26732Y-51224
X26772Y-28937
X26890Y-58701
X26929Y-38307
X26969Y-30118
X27165Y-31299
X27240Y-36091
X27559Y-21654
X27559Y-41339
X27559Y-57087
X27756Y-32480
X27756Y-33465
X28028Y-49720
X28346Y-55709
X28543Y-24213
X28543Y-25394
X28543Y-26575
X28543Y-27756
X28543Y-28937
X28543Y-30118
X28543Y-31299
X28543Y-34843
X28567Y-50795
X28587Y-51654
X28606Y-48571
X28622Y-58701
X28736Y-49157
X28752Y-50299
X28957Y-34220
X28986Y-51220
X29016Y-37795
X29055Y-38307
X29055Y-38937
X29059Y-49000
X29134Y-57283
X29472Y-49736
X29528Y-21654
X29528Y-41339
X29528Y-51181
X29528Y-53150
X29528Y-55512
X29669Y-48992
X29803Y-38937
X29839Y-24063
X29839Y-25244
X29839Y-26425
X29839Y-27606
X29839Y-28783
X29839Y-29965
X29839Y-31146
X29839Y-32327
X29961Y-38543
X30102Y-48579
X30157Y-58701
X30315Y-43898
X30315Y-46654
X30445Y-57366
X30453Y-38031
X30709Y-55512
X30827Y-38268
X30906Y-25984
X30906Y-45276
X30955Y-37539
X31039Y-56409
X31299Y-26772
X31378Y-37795
X31496Y-21654
X31496Y-23622
X31496Y-41339
X31496Y-49213
X31496Y-51181
X31496Y-53150
X31496Y-57087
X31614Y-58701
X31693Y-27559
X31890Y-55512
X32087Y-47047
X32283Y-28150
X32402Y-38937
X32677Y-29134
X33071Y-38307
X33071Y-45276
X33075Y-52335
X33091Y-57087
X33150Y-58701
X33268Y-30118
X33268Y-31299
X33268Y-54724
X33465Y-21654
X33465Y-33465
X33465Y-41339
X33465Y-49213
X33465Y-51181
X33504Y-36421
X33697Y-46654
X33815Y-51791
X33819Y-35236
X33819Y-52925
X33819Y-56516
X33827Y-57665
X33858Y-32480
X33874Y-44252
X34252Y-35236
X34252Y-36417
X34409Y-37047
X34449Y-24213
X34449Y-25394
X34449Y-26575
X34449Y-27756
X34449Y-28937
X34449Y-30118
X34449Y-31299
X34520Y-52339
X34524Y-57098
X34606Y-58701
X34646Y-53150
X34646Y-56299
X34858Y-34220
X34921Y-37795
X34921Y-38307
X35000Y-38937
X35236Y-46850
X35433Y-21654
X35433Y-41339
X35433Y-49213
X35433Y-51181
X35709Y-38937
X35744Y-24063
X35744Y-25244
X35744Y-26425
X35744Y-27606
X35744Y-28783
X35744Y-29965
X35744Y-31146
X35744Y-32327
X35866Y-38543
X36220Y-54724
X36220Y-56299
X36220Y-58701
X36358Y-38031
X36417Y-57480
X36772Y-38307
X36811Y-25984
X36860Y-37539
X37000Y-44248
X37205Y-26772
X37205Y-46063
X37283Y-37795
X37402Y-21654
X37402Y-23622
X37402Y-41339
X37402Y-49213
X37402Y-51181
X37402Y-53150
X37402Y-57087
X37598Y-27559
X37598Y-46850
X37795Y-58701
X37992Y-28346
X37992Y-55118
X38150Y-38937
X38386Y-44094
X38583Y-28937
X38780Y-47638
X38976Y-30118
X38976Y-31299
X38976Y-56102
X39016Y-38307
X39213Y-58701
X39370Y-21654
X39370Y-33465
X39370Y-41339
X39370Y-45472
X39370Y-51181
X39370Y-53150
X39402Y-36425
X39555Y-46642
X39567Y-32480
X39685Y-35236
X39760Y-44252
X40157Y-35236
X40157Y-36417
X40276Y-37087
X40354Y-24213
X40354Y-25394
X40354Y-26575
X40354Y-27756
X40354Y-28937
X40354Y-30118
X40354Y-31299
X40768Y-34232
X40827Y-37795
X40827Y-38307
X40866Y-58701
X40906Y-38937
X41053Y-45866
X41063Y-44567
X41142Y-49803
X41339Y-21654
X41339Y-41339
X41339Y-53150
X41339Y-55118
X41339Y-57087
X41496Y-44478
X41496Y-45846
X41614Y-38937
X41650Y-24063
X41650Y-25244
X41650Y-26425
X41650Y-27606
X41650Y-28783
X41650Y-29965
X41650Y-31146
X41650Y-32327
X41778Y-38539
X41929Y-44528
X41929Y-47835
X42205Y-46024
X42270Y-38028
X42598Y-58701
X42677Y-38268
X42717Y-25984
X42766Y-37539
X42884Y-47382
X42906Y-44248
X43110Y-26772
X43110Y-46063
X43189Y-37795
X43307Y-21654
X43307Y-23622
X43307Y-41339
X43307Y-43307
X43307Y-55118
X43307Y-57087
X43504Y-27559
X43898Y-28346
X44055Y-46821
X44291Y-29134
X44291Y-38937
X44409Y-58701
X44488Y-48425
X44685Y-30118
X44764Y-38307
X44882Y-31299
X45039Y-46063
X45079Y-53937
X45276Y-21654
X45276Y-33465
X45276Y-57087
X45307Y-36417
X45315Y-46339
X45472Y-32480
X45591Y-35236
X45669Y-50000
X45685Y-43331
X45685Y-44028
X46012Y-43685
X46063Y-35236
X46063Y-36417
X46063Y-44882
X46171Y-45482
X46181Y-37126
X46260Y-24213
X46260Y-25394
X46260Y-26575
X46260Y-27756
X46260Y-28937
X46260Y-30118
X46260Y-31299
X46457Y-55315
X46488Y-50756
X46496Y-53967
X46535Y-48618
X46535Y-58701
X46614Y-39094
X46614Y-45354
X46673Y-34217
X46732Y-37795
X46732Y-38307
X46969Y-49843
X46998Y-53967
X47244Y-21654
X47244Y-41929
X47244Y-56102
X47264Y-54094
X47441Y-45276
X47555Y-24063
X47555Y-25244
X47555Y-26425
X47555Y-27606
X47555Y-28783
X47555Y-29965
X47555Y-31146
X47555Y-32327
X47677Y-38543
X47835Y-43110
X47929Y-52569
X48031Y-48110
X48150Y-44843
X48169Y-38031
X48622Y-25984
X48632Y-44852
X48642Y-43705
X48681Y-37539
X48898Y-46024
X48898Y-46614
X48898Y-47205
X49016Y-26772
X49051Y-44256
X49059Y-43268
X49213Y-21654
X49213Y-23622
X49213Y-41339
X49213Y-51181
X49213Y-53150
X49213Y-55118
X49213Y-57087
X49390Y-44606
X49409Y-27559
X49488Y-46024
X49488Y-46614
X49488Y-47205
X49606Y-37795
X49724Y-49606
X49803Y-28346
X49961Y-57323
X50079Y-46024
X50079Y-46614
X50079Y-47205
X50079Y-48396
X50197Y-29134
X50535Y-44606
X50591Y-30118
X50787Y-31299
X50866Y-44252
X50894Y-43276
X51181Y-21654
X51181Y-33465
X51181Y-39370
X51181Y-41339
X51181Y-57087
X51209Y-36417
X51319Y-43701
X51378Y-32480
X51496Y-35197
X51713Y-50157
X51969Y-35236
X51969Y-36417
X52047Y-55122
X52165Y-24213
X52165Y-25394
X52165Y-26575
X52165Y-27756
X52165Y-28937
X52165Y-30118
X52165Y-31299
X52362Y-51969
X52441Y-35197
X52441Y-36457
X52480Y-53465
X52756Y-49606
X52953Y-55512
X52953Y-56693
X53138Y-57335
X53150Y-21654
X53150Y-33465
X53150Y-39370
X53150Y-41339
X53150Y-43307
X53461Y-24063
X53461Y-25244
X53461Y-26425
X53461Y-27606
X53461Y-28783
X53461Y-29965
X53461Y-31146
X53461Y-32327
X53543Y-46260
X53740Y-47441
X54331Y-52165
X54370Y-55236
X55118Y-21654
X55118Y-23622
X55118Y-33465
X55118Y-35433
X55118Y-39370
X55118Y-41339
X55118Y-43307
X55118Y-51181
X55118Y-57087
X55315Y-46063
X55512Y-47638
X55906Y-54528
X56945Y-45280
X56945Y-48417
X56957Y-46846
X57087Y-21654
X57087Y-29528
X57087Y-31496
X57087Y-33465
X57087Y-35433
X57087Y-37402
X57087Y-43307
X57087Y-47244
X57087Y-51181
X57087Y-53543
X57087Y-57087
X57874Y-58465
X58661Y-39567
X58661Y-41929
X58661Y-44094
X58661Y-45866
X58661Y-47835
X58661Y-49606
X58661Y-51378
X58661Y-53150
X58661Y-54921
X58661Y-56693
T2
X55098Y-53583
X55098Y-54083
X55098Y-54583
T3
X38386Y-54252
X40354Y-54252
T4
X37047Y-54252
X37047Y-55252
X52756Y-44850
X52756Y-45850
X52756Y-46850
X52756Y-47850
X52756Y-48850
X41961Y-50157
X42961Y-50157
X43961Y-50157
X44961Y-50157
X38858Y-57087
X39858Y-57087
T0
M30
