%TF.GenerationSoftware,KiCad,Pcbnew,(5.1.6)-1*%
%TF.CreationDate,2021-07-30T18:19:51-07:00*%
%TF.ProjectId,WPT Receiver,57505420-5265-4636-9569-7665722e6b69,rev?*%
%TF.SameCoordinates,Original*%
%TF.FileFunction,Soldermask,Top*%
%TF.FilePolarity,Negative*%
%FSLAX46Y46*%
G04 Gerber Fmt 4.6, Leading zero omitted, Abs format (unit mm)*
G04 Created by KiCad (PCBNEW (5.1.6)-1) date 2021-07-30 18:19:51*
%MOMM*%
%LPD*%
G01*
G04 APERTURE LIST*
%ADD10C,0.100000*%
%ADD11C,1.090600*%
%ADD12C,0.887400*%
%ADD13R,2.500000X2.100000*%
%ADD14O,1.400000X1.150000*%
%ADD15R,1.160000X0.750000*%
%ADD16R,5.700000X5.700000*%
%ADD17R,2.600000X2.600000*%
%ADD18R,1.650000X1.100000*%
%ADD19O,1.800000X1.800000*%
%ADD20R,1.800000X1.800000*%
%ADD21R,2.600000X1.900000*%
%ADD22R,1.300000X1.000000*%
%ADD23R,0.700000X0.550000*%
%ADD24C,1.700000*%
G04 APERTURE END LIST*
%TO.C,R61*%
G36*
G01*
X143080000Y-115281250D02*
X143080000Y-114718750D01*
G75*
G02*
X143323750Y-114475000I243750J0D01*
G01*
X143811250Y-114475000D01*
G75*
G02*
X144055000Y-114718750I0J-243750D01*
G01*
X144055000Y-115281250D01*
G75*
G02*
X143811250Y-115525000I-243750J0D01*
G01*
X143323750Y-115525000D01*
G75*
G02*
X143080000Y-115281250I0J243750D01*
G01*
G37*
G36*
G01*
X141505000Y-115281250D02*
X141505000Y-114718750D01*
G75*
G02*
X141748750Y-114475000I243750J0D01*
G01*
X142236250Y-114475000D01*
G75*
G02*
X142480000Y-114718750I0J-243750D01*
G01*
X142480000Y-115281250D01*
G75*
G02*
X142236250Y-115525000I-243750J0D01*
G01*
X141748750Y-115525000D01*
G75*
G02*
X141505000Y-115281250I0J243750D01*
G01*
G37*
%TD*%
%TO.C,R60*%
G36*
G01*
X143080000Y-119281250D02*
X143080000Y-118718750D01*
G75*
G02*
X143323750Y-118475000I243750J0D01*
G01*
X143811250Y-118475000D01*
G75*
G02*
X144055000Y-118718750I0J-243750D01*
G01*
X144055000Y-119281250D01*
G75*
G02*
X143811250Y-119525000I-243750J0D01*
G01*
X143323750Y-119525000D01*
G75*
G02*
X143080000Y-119281250I0J243750D01*
G01*
G37*
G36*
G01*
X141505000Y-119281250D02*
X141505000Y-118718750D01*
G75*
G02*
X141748750Y-118475000I243750J0D01*
G01*
X142236250Y-118475000D01*
G75*
G02*
X142480000Y-118718750I0J-243750D01*
G01*
X142480000Y-119281250D01*
G75*
G02*
X142236250Y-119525000I-243750J0D01*
G01*
X141748750Y-119525000D01*
G75*
G02*
X141505000Y-119281250I0J243750D01*
G01*
G37*
%TD*%
%TO.C,R59*%
G36*
G01*
X143080000Y-123281250D02*
X143080000Y-122718750D01*
G75*
G02*
X143323750Y-122475000I243750J0D01*
G01*
X143811250Y-122475000D01*
G75*
G02*
X144055000Y-122718750I0J-243750D01*
G01*
X144055000Y-123281250D01*
G75*
G02*
X143811250Y-123525000I-243750J0D01*
G01*
X143323750Y-123525000D01*
G75*
G02*
X143080000Y-123281250I0J243750D01*
G01*
G37*
G36*
G01*
X141505000Y-123281250D02*
X141505000Y-122718750D01*
G75*
G02*
X141748750Y-122475000I243750J0D01*
G01*
X142236250Y-122475000D01*
G75*
G02*
X142480000Y-122718750I0J-243750D01*
G01*
X142480000Y-123281250D01*
G75*
G02*
X142236250Y-123525000I-243750J0D01*
G01*
X141748750Y-123525000D01*
G75*
G02*
X141505000Y-123281250I0J243750D01*
G01*
G37*
%TD*%
%TO.C,D50*%
G36*
G01*
X138850000Y-114762500D02*
X138850000Y-115237500D01*
G75*
G02*
X138612500Y-115475000I-237500J0D01*
G01*
X137762500Y-115475000D01*
G75*
G02*
X137525000Y-115237500I0J237500D01*
G01*
X137525000Y-114762500D01*
G75*
G02*
X137762500Y-114525000I237500J0D01*
G01*
X138612500Y-114525000D01*
G75*
G02*
X138850000Y-114762500I0J-237500D01*
G01*
G37*
G36*
G01*
X140475000Y-114762500D02*
X140475000Y-115237500D01*
G75*
G02*
X140237500Y-115475000I-237500J0D01*
G01*
X139387500Y-115475000D01*
G75*
G02*
X139150000Y-115237500I0J237500D01*
G01*
X139150000Y-114762500D01*
G75*
G02*
X139387500Y-114525000I237500J0D01*
G01*
X140237500Y-114525000D01*
G75*
G02*
X140475000Y-114762500I0J-237500D01*
G01*
G37*
%TD*%
%TO.C,D49*%
G36*
G01*
X138850000Y-118762500D02*
X138850000Y-119237500D01*
G75*
G02*
X138612500Y-119475000I-237500J0D01*
G01*
X137762500Y-119475000D01*
G75*
G02*
X137525000Y-119237500I0J237500D01*
G01*
X137525000Y-118762500D01*
G75*
G02*
X137762500Y-118525000I237500J0D01*
G01*
X138612500Y-118525000D01*
G75*
G02*
X138850000Y-118762500I0J-237500D01*
G01*
G37*
G36*
G01*
X140475000Y-118762500D02*
X140475000Y-119237500D01*
G75*
G02*
X140237500Y-119475000I-237500J0D01*
G01*
X139387500Y-119475000D01*
G75*
G02*
X139150000Y-119237500I0J237500D01*
G01*
X139150000Y-118762500D01*
G75*
G02*
X139387500Y-118525000I237500J0D01*
G01*
X140237500Y-118525000D01*
G75*
G02*
X140475000Y-118762500I0J-237500D01*
G01*
G37*
%TD*%
%TO.C,D48*%
G36*
G01*
X138850000Y-122762500D02*
X138850000Y-123237500D01*
G75*
G02*
X138612500Y-123475000I-237500J0D01*
G01*
X137762500Y-123475000D01*
G75*
G02*
X137525000Y-123237500I0J237500D01*
G01*
X137525000Y-122762500D01*
G75*
G02*
X137762500Y-122525000I237500J0D01*
G01*
X138612500Y-122525000D01*
G75*
G02*
X138850000Y-122762500I0J-237500D01*
G01*
G37*
G36*
G01*
X140475000Y-122762500D02*
X140475000Y-123237500D01*
G75*
G02*
X140237500Y-123475000I-237500J0D01*
G01*
X139387500Y-123475000D01*
G75*
G02*
X139150000Y-123237500I0J237500D01*
G01*
X139150000Y-122762500D01*
G75*
G02*
X139387500Y-122525000I237500J0D01*
G01*
X140237500Y-122525000D01*
G75*
G02*
X140475000Y-122762500I0J-237500D01*
G01*
G37*
%TD*%
%TO.C,R58*%
G36*
G01*
X119318750Y-122787500D02*
X119881250Y-122787500D01*
G75*
G02*
X120125000Y-123031250I0J-243750D01*
G01*
X120125000Y-123518750D01*
G75*
G02*
X119881250Y-123762500I-243750J0D01*
G01*
X119318750Y-123762500D01*
G75*
G02*
X119075000Y-123518750I0J243750D01*
G01*
X119075000Y-123031250D01*
G75*
G02*
X119318750Y-122787500I243750J0D01*
G01*
G37*
G36*
G01*
X119318750Y-121212500D02*
X119881250Y-121212500D01*
G75*
G02*
X120125000Y-121456250I0J-243750D01*
G01*
X120125000Y-121943750D01*
G75*
G02*
X119881250Y-122187500I-243750J0D01*
G01*
X119318750Y-122187500D01*
G75*
G02*
X119075000Y-121943750I0J243750D01*
G01*
X119075000Y-121456250D01*
G75*
G02*
X119318750Y-121212500I243750J0D01*
G01*
G37*
%TD*%
D10*
%TO.C,L2*%
G36*
X66490044Y-124063811D02*
G01*
X66487566Y-124063567D01*
X66468013Y-124059676D01*
X66465631Y-124058953D01*
X66447271Y-124051350D01*
X66445075Y-124050177D01*
X66428465Y-124039078D01*
X66426541Y-124037498D01*
X66412502Y-124023459D01*
X66410922Y-124021535D01*
X66399823Y-124004925D01*
X66398650Y-124002729D01*
X66391047Y-123984369D01*
X66390324Y-123981987D01*
X66386433Y-123962434D01*
X66386189Y-123959956D01*
X66385700Y-123950000D01*
X66385700Y-121950000D01*
X66386189Y-121940044D01*
X66386433Y-121937566D01*
X66390324Y-121918013D01*
X66391047Y-121915631D01*
X66398650Y-121897271D01*
X66399823Y-121895075D01*
X66410922Y-121878465D01*
X66412502Y-121876541D01*
X66426541Y-121862502D01*
X66428465Y-121860922D01*
X66445075Y-121849823D01*
X66447271Y-121848650D01*
X66465631Y-121841047D01*
X66468013Y-121840324D01*
X66487566Y-121836433D01*
X66490044Y-121836189D01*
X66500000Y-121835700D01*
X67500000Y-121835700D01*
X67509956Y-121836189D01*
X67512434Y-121836433D01*
X67531987Y-121840324D01*
X67534369Y-121841047D01*
X67552729Y-121848650D01*
X67554925Y-121849823D01*
X67571535Y-121860922D01*
X67573459Y-121862502D01*
X67587498Y-121876541D01*
X67589078Y-121878465D01*
X67598422Y-121891925D01*
X67599221Y-121893301D01*
X67602233Y-121898883D01*
X67743939Y-122182295D01*
X68214231Y-122652587D01*
X68677448Y-122837875D01*
X69150000Y-122885130D01*
X69622552Y-122837875D01*
X70085769Y-122652587D01*
X70556061Y-122182295D01*
X70697767Y-121898883D01*
X70702652Y-121890205D01*
X70703978Y-121888098D01*
X70716212Y-121872336D01*
X70717924Y-121870529D01*
X70732961Y-121857491D01*
X70734993Y-121856052D01*
X70752285Y-121846196D01*
X70754558Y-121845181D01*
X70773460Y-121838880D01*
X70775888Y-121838328D01*
X70792027Y-121836001D01*
X70793615Y-121835901D01*
X70800000Y-121835700D01*
X71800000Y-121835700D01*
X71809956Y-121836189D01*
X71812434Y-121836433D01*
X71831987Y-121840324D01*
X71834369Y-121841047D01*
X71852729Y-121848650D01*
X71854925Y-121849823D01*
X71871535Y-121860922D01*
X71873459Y-121862502D01*
X71887498Y-121876541D01*
X71889078Y-121878465D01*
X71900177Y-121895075D01*
X71901350Y-121897271D01*
X71908953Y-121915631D01*
X71909676Y-121918013D01*
X71913567Y-121937566D01*
X71913811Y-121940044D01*
X71914300Y-121950000D01*
X71914300Y-123950000D01*
X71913811Y-123959956D01*
X71913567Y-123962434D01*
X71909676Y-123981987D01*
X71908953Y-123984369D01*
X71901350Y-124002729D01*
X71900177Y-124004925D01*
X71889078Y-124021535D01*
X71887498Y-124023459D01*
X71873459Y-124037498D01*
X71871535Y-124039078D01*
X71854925Y-124050177D01*
X71852729Y-124051350D01*
X71834369Y-124058953D01*
X71831987Y-124059676D01*
X71812434Y-124063567D01*
X71809956Y-124063811D01*
X71800000Y-124064300D01*
X66500000Y-124064300D01*
X66490044Y-124063811D01*
G37*
G36*
X71809956Y-118236189D02*
G01*
X71812434Y-118236433D01*
X71831987Y-118240324D01*
X71834369Y-118241047D01*
X71852729Y-118248650D01*
X71854925Y-118249823D01*
X71871535Y-118260922D01*
X71873459Y-118262502D01*
X71887498Y-118276541D01*
X71889078Y-118278465D01*
X71900177Y-118295075D01*
X71901350Y-118297271D01*
X71908953Y-118315631D01*
X71909676Y-118318013D01*
X71913567Y-118337566D01*
X71913811Y-118340044D01*
X71914300Y-118350000D01*
X71914300Y-120350000D01*
X71913811Y-120359956D01*
X71913567Y-120362434D01*
X71909676Y-120381987D01*
X71908953Y-120384369D01*
X71901350Y-120402729D01*
X71900177Y-120404925D01*
X71889078Y-120421535D01*
X71887498Y-120423459D01*
X71873459Y-120437498D01*
X71871535Y-120439078D01*
X71854925Y-120450177D01*
X71852729Y-120451350D01*
X71834369Y-120458953D01*
X71831987Y-120459676D01*
X71812434Y-120463567D01*
X71809956Y-120463811D01*
X71800000Y-120464300D01*
X70800000Y-120464300D01*
X70790044Y-120463811D01*
X70787566Y-120463567D01*
X70768013Y-120459676D01*
X70765631Y-120458953D01*
X70747271Y-120451350D01*
X70745075Y-120450177D01*
X70728465Y-120439078D01*
X70726541Y-120437498D01*
X70712502Y-120423459D01*
X70710922Y-120421535D01*
X70701578Y-120408075D01*
X70700779Y-120406699D01*
X70697767Y-120401117D01*
X70556061Y-120117705D01*
X70085769Y-119647413D01*
X69622552Y-119462125D01*
X69150000Y-119414870D01*
X68677448Y-119462125D01*
X68214231Y-119647413D01*
X67743939Y-120117705D01*
X67602233Y-120401117D01*
X67597348Y-120409795D01*
X67596022Y-120411902D01*
X67583788Y-120427664D01*
X67582076Y-120429471D01*
X67567039Y-120442509D01*
X67565007Y-120443948D01*
X67547715Y-120453804D01*
X67545442Y-120454819D01*
X67526540Y-120461120D01*
X67524112Y-120461672D01*
X67507973Y-120463999D01*
X67506385Y-120464099D01*
X67500000Y-120464300D01*
X66500000Y-120464300D01*
X66490044Y-120463811D01*
X66487566Y-120463567D01*
X66468013Y-120459676D01*
X66465631Y-120458953D01*
X66447271Y-120451350D01*
X66445075Y-120450177D01*
X66428465Y-120439078D01*
X66426541Y-120437498D01*
X66412502Y-120423459D01*
X66410922Y-120421535D01*
X66399823Y-120404925D01*
X66398650Y-120402729D01*
X66391047Y-120384369D01*
X66390324Y-120381987D01*
X66386433Y-120362434D01*
X66386189Y-120359956D01*
X66385700Y-120350000D01*
X66385700Y-118350000D01*
X66386189Y-118340044D01*
X66386433Y-118337566D01*
X66390324Y-118318013D01*
X66391047Y-118315631D01*
X66398650Y-118297271D01*
X66399823Y-118295075D01*
X66410922Y-118278465D01*
X66412502Y-118276541D01*
X66426541Y-118262502D01*
X66428465Y-118260922D01*
X66445075Y-118249823D01*
X66447271Y-118248650D01*
X66465631Y-118241047D01*
X66468013Y-118240324D01*
X66487566Y-118236433D01*
X66490044Y-118236189D01*
X66500000Y-118235700D01*
X71800000Y-118235700D01*
X71809956Y-118236189D01*
G37*
%TD*%
D11*
%TO.C,J2*%
X134540000Y-135016000D03*
X134540000Y-132984000D03*
X129460000Y-134000000D03*
D12*
X130730000Y-133365000D03*
X130730000Y-134635000D03*
X133270000Y-133365000D03*
X133270000Y-134635000D03*
X132000000Y-133365000D03*
X132000000Y-134635000D03*
%TD*%
%TO.C,C24*%
G36*
G01*
X118002500Y-122325000D02*
X118397500Y-122325000D01*
G75*
G02*
X118570000Y-122497500I0J-172500D01*
G01*
X118570000Y-122842500D01*
G75*
G02*
X118397500Y-123015000I-172500J0D01*
G01*
X118002500Y-123015000D01*
G75*
G02*
X117830000Y-122842500I0J172500D01*
G01*
X117830000Y-122497500D01*
G75*
G02*
X118002500Y-122325000I172500J0D01*
G01*
G37*
G36*
G01*
X118002500Y-121355000D02*
X118397500Y-121355000D01*
G75*
G02*
X118570000Y-121527500I0J-172500D01*
G01*
X118570000Y-121872500D01*
G75*
G02*
X118397500Y-122045000I-172500J0D01*
G01*
X118002500Y-122045000D01*
G75*
G02*
X117830000Y-121872500I0J172500D01*
G01*
X117830000Y-121527500D01*
G75*
G02*
X118002500Y-121355000I172500J0D01*
G01*
G37*
%TD*%
D13*
%TO.C,Y1*%
X119400000Y-112800000D03*
X119400000Y-109100000D03*
%TD*%
%TO.C,U10*%
G36*
G01*
X67270000Y-92450000D02*
X67620000Y-92450000D01*
G75*
G02*
X67795000Y-92625000I0J-175000D01*
G01*
X67795000Y-94325000D01*
G75*
G02*
X67620000Y-94500000I-175000J0D01*
G01*
X67270000Y-94500000D01*
G75*
G02*
X67095000Y-94325000I0J175000D01*
G01*
X67095000Y-92625000D01*
G75*
G02*
X67270000Y-92450000I175000J0D01*
G01*
G37*
G36*
G01*
X66000000Y-92450000D02*
X66350000Y-92450000D01*
G75*
G02*
X66525000Y-92625000I0J-175000D01*
G01*
X66525000Y-94325000D01*
G75*
G02*
X66350000Y-94500000I-175000J0D01*
G01*
X66000000Y-94500000D01*
G75*
G02*
X65825000Y-94325000I0J175000D01*
G01*
X65825000Y-92625000D01*
G75*
G02*
X66000000Y-92450000I175000J0D01*
G01*
G37*
G36*
G01*
X64730000Y-92450000D02*
X65080000Y-92450000D01*
G75*
G02*
X65255000Y-92625000I0J-175000D01*
G01*
X65255000Y-94325000D01*
G75*
G02*
X65080000Y-94500000I-175000J0D01*
G01*
X64730000Y-94500000D01*
G75*
G02*
X64555000Y-94325000I0J175000D01*
G01*
X64555000Y-92625000D01*
G75*
G02*
X64730000Y-92450000I175000J0D01*
G01*
G37*
G36*
G01*
X63460000Y-92450000D02*
X63810000Y-92450000D01*
G75*
G02*
X63985000Y-92625000I0J-175000D01*
G01*
X63985000Y-94325000D01*
G75*
G02*
X63810000Y-94500000I-175000J0D01*
G01*
X63460000Y-94500000D01*
G75*
G02*
X63285000Y-94325000I0J175000D01*
G01*
X63285000Y-92625000D01*
G75*
G02*
X63460000Y-92450000I175000J0D01*
G01*
G37*
G36*
G01*
X62190000Y-92450000D02*
X62540000Y-92450000D01*
G75*
G02*
X62715000Y-92625000I0J-175000D01*
G01*
X62715000Y-94325000D01*
G75*
G02*
X62540000Y-94500000I-175000J0D01*
G01*
X62190000Y-94500000D01*
G75*
G02*
X62015000Y-94325000I0J175000D01*
G01*
X62015000Y-92625000D01*
G75*
G02*
X62190000Y-92450000I175000J0D01*
G01*
G37*
G36*
G01*
X60920000Y-92450000D02*
X61270000Y-92450000D01*
G75*
G02*
X61445000Y-92625000I0J-175000D01*
G01*
X61445000Y-94325000D01*
G75*
G02*
X61270000Y-94500000I-175000J0D01*
G01*
X60920000Y-94500000D01*
G75*
G02*
X60745000Y-94325000I0J175000D01*
G01*
X60745000Y-92625000D01*
G75*
G02*
X60920000Y-92450000I175000J0D01*
G01*
G37*
G36*
G01*
X59650000Y-92450000D02*
X60000000Y-92450000D01*
G75*
G02*
X60175000Y-92625000I0J-175000D01*
G01*
X60175000Y-94325000D01*
G75*
G02*
X60000000Y-94500000I-175000J0D01*
G01*
X59650000Y-94500000D01*
G75*
G02*
X59475000Y-94325000I0J175000D01*
G01*
X59475000Y-92625000D01*
G75*
G02*
X59650000Y-92450000I175000J0D01*
G01*
G37*
G36*
G01*
X58380000Y-92450000D02*
X58730000Y-92450000D01*
G75*
G02*
X58905000Y-92625000I0J-175000D01*
G01*
X58905000Y-94325000D01*
G75*
G02*
X58730000Y-94500000I-175000J0D01*
G01*
X58380000Y-94500000D01*
G75*
G02*
X58205000Y-94325000I0J175000D01*
G01*
X58205000Y-92625000D01*
G75*
G02*
X58380000Y-92450000I175000J0D01*
G01*
G37*
G36*
G01*
X58380000Y-87500000D02*
X58730000Y-87500000D01*
G75*
G02*
X58905000Y-87675000I0J-175000D01*
G01*
X58905000Y-89375000D01*
G75*
G02*
X58730000Y-89550000I-175000J0D01*
G01*
X58380000Y-89550000D01*
G75*
G02*
X58205000Y-89375000I0J175000D01*
G01*
X58205000Y-87675000D01*
G75*
G02*
X58380000Y-87500000I175000J0D01*
G01*
G37*
G36*
G01*
X59650000Y-87500000D02*
X60000000Y-87500000D01*
G75*
G02*
X60175000Y-87675000I0J-175000D01*
G01*
X60175000Y-89375000D01*
G75*
G02*
X60000000Y-89550000I-175000J0D01*
G01*
X59650000Y-89550000D01*
G75*
G02*
X59475000Y-89375000I0J175000D01*
G01*
X59475000Y-87675000D01*
G75*
G02*
X59650000Y-87500000I175000J0D01*
G01*
G37*
G36*
G01*
X60920000Y-87500000D02*
X61270000Y-87500000D01*
G75*
G02*
X61445000Y-87675000I0J-175000D01*
G01*
X61445000Y-89375000D01*
G75*
G02*
X61270000Y-89550000I-175000J0D01*
G01*
X60920000Y-89550000D01*
G75*
G02*
X60745000Y-89375000I0J175000D01*
G01*
X60745000Y-87675000D01*
G75*
G02*
X60920000Y-87500000I175000J0D01*
G01*
G37*
G36*
G01*
X62190000Y-87500000D02*
X62540000Y-87500000D01*
G75*
G02*
X62715000Y-87675000I0J-175000D01*
G01*
X62715000Y-89375000D01*
G75*
G02*
X62540000Y-89550000I-175000J0D01*
G01*
X62190000Y-89550000D01*
G75*
G02*
X62015000Y-89375000I0J175000D01*
G01*
X62015000Y-87675000D01*
G75*
G02*
X62190000Y-87500000I175000J0D01*
G01*
G37*
G36*
G01*
X63460000Y-87500000D02*
X63810000Y-87500000D01*
G75*
G02*
X63985000Y-87675000I0J-175000D01*
G01*
X63985000Y-89375000D01*
G75*
G02*
X63810000Y-89550000I-175000J0D01*
G01*
X63460000Y-89550000D01*
G75*
G02*
X63285000Y-89375000I0J175000D01*
G01*
X63285000Y-87675000D01*
G75*
G02*
X63460000Y-87500000I175000J0D01*
G01*
G37*
G36*
G01*
X64730000Y-87500000D02*
X65080000Y-87500000D01*
G75*
G02*
X65255000Y-87675000I0J-175000D01*
G01*
X65255000Y-89375000D01*
G75*
G02*
X65080000Y-89550000I-175000J0D01*
G01*
X64730000Y-89550000D01*
G75*
G02*
X64555000Y-89375000I0J175000D01*
G01*
X64555000Y-87675000D01*
G75*
G02*
X64730000Y-87500000I175000J0D01*
G01*
G37*
G36*
G01*
X66000000Y-87500000D02*
X66350000Y-87500000D01*
G75*
G02*
X66525000Y-87675000I0J-175000D01*
G01*
X66525000Y-89375000D01*
G75*
G02*
X66350000Y-89550000I-175000J0D01*
G01*
X66000000Y-89550000D01*
G75*
G02*
X65825000Y-89375000I0J175000D01*
G01*
X65825000Y-87675000D01*
G75*
G02*
X66000000Y-87500000I175000J0D01*
G01*
G37*
G36*
G01*
X67270000Y-87500000D02*
X67620000Y-87500000D01*
G75*
G02*
X67795000Y-87675000I0J-175000D01*
G01*
X67795000Y-89375000D01*
G75*
G02*
X67620000Y-89550000I-175000J0D01*
G01*
X67270000Y-89550000D01*
G75*
G02*
X67095000Y-89375000I0J175000D01*
G01*
X67095000Y-87675000D01*
G75*
G02*
X67270000Y-87500000I175000J0D01*
G01*
G37*
%TD*%
%TO.C,U9*%
G36*
G01*
X82270000Y-92450000D02*
X82620000Y-92450000D01*
G75*
G02*
X82795000Y-92625000I0J-175000D01*
G01*
X82795000Y-94325000D01*
G75*
G02*
X82620000Y-94500000I-175000J0D01*
G01*
X82270000Y-94500000D01*
G75*
G02*
X82095000Y-94325000I0J175000D01*
G01*
X82095000Y-92625000D01*
G75*
G02*
X82270000Y-92450000I175000J0D01*
G01*
G37*
G36*
G01*
X81000000Y-92450000D02*
X81350000Y-92450000D01*
G75*
G02*
X81525000Y-92625000I0J-175000D01*
G01*
X81525000Y-94325000D01*
G75*
G02*
X81350000Y-94500000I-175000J0D01*
G01*
X81000000Y-94500000D01*
G75*
G02*
X80825000Y-94325000I0J175000D01*
G01*
X80825000Y-92625000D01*
G75*
G02*
X81000000Y-92450000I175000J0D01*
G01*
G37*
G36*
G01*
X79730000Y-92450000D02*
X80080000Y-92450000D01*
G75*
G02*
X80255000Y-92625000I0J-175000D01*
G01*
X80255000Y-94325000D01*
G75*
G02*
X80080000Y-94500000I-175000J0D01*
G01*
X79730000Y-94500000D01*
G75*
G02*
X79555000Y-94325000I0J175000D01*
G01*
X79555000Y-92625000D01*
G75*
G02*
X79730000Y-92450000I175000J0D01*
G01*
G37*
G36*
G01*
X78460000Y-92450000D02*
X78810000Y-92450000D01*
G75*
G02*
X78985000Y-92625000I0J-175000D01*
G01*
X78985000Y-94325000D01*
G75*
G02*
X78810000Y-94500000I-175000J0D01*
G01*
X78460000Y-94500000D01*
G75*
G02*
X78285000Y-94325000I0J175000D01*
G01*
X78285000Y-92625000D01*
G75*
G02*
X78460000Y-92450000I175000J0D01*
G01*
G37*
G36*
G01*
X77190000Y-92450000D02*
X77540000Y-92450000D01*
G75*
G02*
X77715000Y-92625000I0J-175000D01*
G01*
X77715000Y-94325000D01*
G75*
G02*
X77540000Y-94500000I-175000J0D01*
G01*
X77190000Y-94500000D01*
G75*
G02*
X77015000Y-94325000I0J175000D01*
G01*
X77015000Y-92625000D01*
G75*
G02*
X77190000Y-92450000I175000J0D01*
G01*
G37*
G36*
G01*
X75920000Y-92450000D02*
X76270000Y-92450000D01*
G75*
G02*
X76445000Y-92625000I0J-175000D01*
G01*
X76445000Y-94325000D01*
G75*
G02*
X76270000Y-94500000I-175000J0D01*
G01*
X75920000Y-94500000D01*
G75*
G02*
X75745000Y-94325000I0J175000D01*
G01*
X75745000Y-92625000D01*
G75*
G02*
X75920000Y-92450000I175000J0D01*
G01*
G37*
G36*
G01*
X74650000Y-92450000D02*
X75000000Y-92450000D01*
G75*
G02*
X75175000Y-92625000I0J-175000D01*
G01*
X75175000Y-94325000D01*
G75*
G02*
X75000000Y-94500000I-175000J0D01*
G01*
X74650000Y-94500000D01*
G75*
G02*
X74475000Y-94325000I0J175000D01*
G01*
X74475000Y-92625000D01*
G75*
G02*
X74650000Y-92450000I175000J0D01*
G01*
G37*
G36*
G01*
X73380000Y-92450000D02*
X73730000Y-92450000D01*
G75*
G02*
X73905000Y-92625000I0J-175000D01*
G01*
X73905000Y-94325000D01*
G75*
G02*
X73730000Y-94500000I-175000J0D01*
G01*
X73380000Y-94500000D01*
G75*
G02*
X73205000Y-94325000I0J175000D01*
G01*
X73205000Y-92625000D01*
G75*
G02*
X73380000Y-92450000I175000J0D01*
G01*
G37*
G36*
G01*
X73380000Y-87500000D02*
X73730000Y-87500000D01*
G75*
G02*
X73905000Y-87675000I0J-175000D01*
G01*
X73905000Y-89375000D01*
G75*
G02*
X73730000Y-89550000I-175000J0D01*
G01*
X73380000Y-89550000D01*
G75*
G02*
X73205000Y-89375000I0J175000D01*
G01*
X73205000Y-87675000D01*
G75*
G02*
X73380000Y-87500000I175000J0D01*
G01*
G37*
G36*
G01*
X74650000Y-87500000D02*
X75000000Y-87500000D01*
G75*
G02*
X75175000Y-87675000I0J-175000D01*
G01*
X75175000Y-89375000D01*
G75*
G02*
X75000000Y-89550000I-175000J0D01*
G01*
X74650000Y-89550000D01*
G75*
G02*
X74475000Y-89375000I0J175000D01*
G01*
X74475000Y-87675000D01*
G75*
G02*
X74650000Y-87500000I175000J0D01*
G01*
G37*
G36*
G01*
X75920000Y-87500000D02*
X76270000Y-87500000D01*
G75*
G02*
X76445000Y-87675000I0J-175000D01*
G01*
X76445000Y-89375000D01*
G75*
G02*
X76270000Y-89550000I-175000J0D01*
G01*
X75920000Y-89550000D01*
G75*
G02*
X75745000Y-89375000I0J175000D01*
G01*
X75745000Y-87675000D01*
G75*
G02*
X75920000Y-87500000I175000J0D01*
G01*
G37*
G36*
G01*
X77190000Y-87500000D02*
X77540000Y-87500000D01*
G75*
G02*
X77715000Y-87675000I0J-175000D01*
G01*
X77715000Y-89375000D01*
G75*
G02*
X77540000Y-89550000I-175000J0D01*
G01*
X77190000Y-89550000D01*
G75*
G02*
X77015000Y-89375000I0J175000D01*
G01*
X77015000Y-87675000D01*
G75*
G02*
X77190000Y-87500000I175000J0D01*
G01*
G37*
G36*
G01*
X78460000Y-87500000D02*
X78810000Y-87500000D01*
G75*
G02*
X78985000Y-87675000I0J-175000D01*
G01*
X78985000Y-89375000D01*
G75*
G02*
X78810000Y-89550000I-175000J0D01*
G01*
X78460000Y-89550000D01*
G75*
G02*
X78285000Y-89375000I0J175000D01*
G01*
X78285000Y-87675000D01*
G75*
G02*
X78460000Y-87500000I175000J0D01*
G01*
G37*
G36*
G01*
X79730000Y-87500000D02*
X80080000Y-87500000D01*
G75*
G02*
X80255000Y-87675000I0J-175000D01*
G01*
X80255000Y-89375000D01*
G75*
G02*
X80080000Y-89550000I-175000J0D01*
G01*
X79730000Y-89550000D01*
G75*
G02*
X79555000Y-89375000I0J175000D01*
G01*
X79555000Y-87675000D01*
G75*
G02*
X79730000Y-87500000I175000J0D01*
G01*
G37*
G36*
G01*
X81000000Y-87500000D02*
X81350000Y-87500000D01*
G75*
G02*
X81525000Y-87675000I0J-175000D01*
G01*
X81525000Y-89375000D01*
G75*
G02*
X81350000Y-89550000I-175000J0D01*
G01*
X81000000Y-89550000D01*
G75*
G02*
X80825000Y-89375000I0J175000D01*
G01*
X80825000Y-87675000D01*
G75*
G02*
X81000000Y-87500000I175000J0D01*
G01*
G37*
G36*
G01*
X82270000Y-87500000D02*
X82620000Y-87500000D01*
G75*
G02*
X82795000Y-87675000I0J-175000D01*
G01*
X82795000Y-89375000D01*
G75*
G02*
X82620000Y-89550000I-175000J0D01*
G01*
X82270000Y-89550000D01*
G75*
G02*
X82095000Y-89375000I0J175000D01*
G01*
X82095000Y-87675000D01*
G75*
G02*
X82270000Y-87500000I175000J0D01*
G01*
G37*
%TD*%
%TO.C,U8*%
G36*
G01*
X97270000Y-92450000D02*
X97620000Y-92450000D01*
G75*
G02*
X97795000Y-92625000I0J-175000D01*
G01*
X97795000Y-94325000D01*
G75*
G02*
X97620000Y-94500000I-175000J0D01*
G01*
X97270000Y-94500000D01*
G75*
G02*
X97095000Y-94325000I0J175000D01*
G01*
X97095000Y-92625000D01*
G75*
G02*
X97270000Y-92450000I175000J0D01*
G01*
G37*
G36*
G01*
X96000000Y-92450000D02*
X96350000Y-92450000D01*
G75*
G02*
X96525000Y-92625000I0J-175000D01*
G01*
X96525000Y-94325000D01*
G75*
G02*
X96350000Y-94500000I-175000J0D01*
G01*
X96000000Y-94500000D01*
G75*
G02*
X95825000Y-94325000I0J175000D01*
G01*
X95825000Y-92625000D01*
G75*
G02*
X96000000Y-92450000I175000J0D01*
G01*
G37*
G36*
G01*
X94730000Y-92450000D02*
X95080000Y-92450000D01*
G75*
G02*
X95255000Y-92625000I0J-175000D01*
G01*
X95255000Y-94325000D01*
G75*
G02*
X95080000Y-94500000I-175000J0D01*
G01*
X94730000Y-94500000D01*
G75*
G02*
X94555000Y-94325000I0J175000D01*
G01*
X94555000Y-92625000D01*
G75*
G02*
X94730000Y-92450000I175000J0D01*
G01*
G37*
G36*
G01*
X93460000Y-92450000D02*
X93810000Y-92450000D01*
G75*
G02*
X93985000Y-92625000I0J-175000D01*
G01*
X93985000Y-94325000D01*
G75*
G02*
X93810000Y-94500000I-175000J0D01*
G01*
X93460000Y-94500000D01*
G75*
G02*
X93285000Y-94325000I0J175000D01*
G01*
X93285000Y-92625000D01*
G75*
G02*
X93460000Y-92450000I175000J0D01*
G01*
G37*
G36*
G01*
X92190000Y-92450000D02*
X92540000Y-92450000D01*
G75*
G02*
X92715000Y-92625000I0J-175000D01*
G01*
X92715000Y-94325000D01*
G75*
G02*
X92540000Y-94500000I-175000J0D01*
G01*
X92190000Y-94500000D01*
G75*
G02*
X92015000Y-94325000I0J175000D01*
G01*
X92015000Y-92625000D01*
G75*
G02*
X92190000Y-92450000I175000J0D01*
G01*
G37*
G36*
G01*
X90920000Y-92450000D02*
X91270000Y-92450000D01*
G75*
G02*
X91445000Y-92625000I0J-175000D01*
G01*
X91445000Y-94325000D01*
G75*
G02*
X91270000Y-94500000I-175000J0D01*
G01*
X90920000Y-94500000D01*
G75*
G02*
X90745000Y-94325000I0J175000D01*
G01*
X90745000Y-92625000D01*
G75*
G02*
X90920000Y-92450000I175000J0D01*
G01*
G37*
G36*
G01*
X89650000Y-92450000D02*
X90000000Y-92450000D01*
G75*
G02*
X90175000Y-92625000I0J-175000D01*
G01*
X90175000Y-94325000D01*
G75*
G02*
X90000000Y-94500000I-175000J0D01*
G01*
X89650000Y-94500000D01*
G75*
G02*
X89475000Y-94325000I0J175000D01*
G01*
X89475000Y-92625000D01*
G75*
G02*
X89650000Y-92450000I175000J0D01*
G01*
G37*
G36*
G01*
X88380000Y-92450000D02*
X88730000Y-92450000D01*
G75*
G02*
X88905000Y-92625000I0J-175000D01*
G01*
X88905000Y-94325000D01*
G75*
G02*
X88730000Y-94500000I-175000J0D01*
G01*
X88380000Y-94500000D01*
G75*
G02*
X88205000Y-94325000I0J175000D01*
G01*
X88205000Y-92625000D01*
G75*
G02*
X88380000Y-92450000I175000J0D01*
G01*
G37*
G36*
G01*
X88380000Y-87500000D02*
X88730000Y-87500000D01*
G75*
G02*
X88905000Y-87675000I0J-175000D01*
G01*
X88905000Y-89375000D01*
G75*
G02*
X88730000Y-89550000I-175000J0D01*
G01*
X88380000Y-89550000D01*
G75*
G02*
X88205000Y-89375000I0J175000D01*
G01*
X88205000Y-87675000D01*
G75*
G02*
X88380000Y-87500000I175000J0D01*
G01*
G37*
G36*
G01*
X89650000Y-87500000D02*
X90000000Y-87500000D01*
G75*
G02*
X90175000Y-87675000I0J-175000D01*
G01*
X90175000Y-89375000D01*
G75*
G02*
X90000000Y-89550000I-175000J0D01*
G01*
X89650000Y-89550000D01*
G75*
G02*
X89475000Y-89375000I0J175000D01*
G01*
X89475000Y-87675000D01*
G75*
G02*
X89650000Y-87500000I175000J0D01*
G01*
G37*
G36*
G01*
X90920000Y-87500000D02*
X91270000Y-87500000D01*
G75*
G02*
X91445000Y-87675000I0J-175000D01*
G01*
X91445000Y-89375000D01*
G75*
G02*
X91270000Y-89550000I-175000J0D01*
G01*
X90920000Y-89550000D01*
G75*
G02*
X90745000Y-89375000I0J175000D01*
G01*
X90745000Y-87675000D01*
G75*
G02*
X90920000Y-87500000I175000J0D01*
G01*
G37*
G36*
G01*
X92190000Y-87500000D02*
X92540000Y-87500000D01*
G75*
G02*
X92715000Y-87675000I0J-175000D01*
G01*
X92715000Y-89375000D01*
G75*
G02*
X92540000Y-89550000I-175000J0D01*
G01*
X92190000Y-89550000D01*
G75*
G02*
X92015000Y-89375000I0J175000D01*
G01*
X92015000Y-87675000D01*
G75*
G02*
X92190000Y-87500000I175000J0D01*
G01*
G37*
G36*
G01*
X93460000Y-87500000D02*
X93810000Y-87500000D01*
G75*
G02*
X93985000Y-87675000I0J-175000D01*
G01*
X93985000Y-89375000D01*
G75*
G02*
X93810000Y-89550000I-175000J0D01*
G01*
X93460000Y-89550000D01*
G75*
G02*
X93285000Y-89375000I0J175000D01*
G01*
X93285000Y-87675000D01*
G75*
G02*
X93460000Y-87500000I175000J0D01*
G01*
G37*
G36*
G01*
X94730000Y-87500000D02*
X95080000Y-87500000D01*
G75*
G02*
X95255000Y-87675000I0J-175000D01*
G01*
X95255000Y-89375000D01*
G75*
G02*
X95080000Y-89550000I-175000J0D01*
G01*
X94730000Y-89550000D01*
G75*
G02*
X94555000Y-89375000I0J175000D01*
G01*
X94555000Y-87675000D01*
G75*
G02*
X94730000Y-87500000I175000J0D01*
G01*
G37*
G36*
G01*
X96000000Y-87500000D02*
X96350000Y-87500000D01*
G75*
G02*
X96525000Y-87675000I0J-175000D01*
G01*
X96525000Y-89375000D01*
G75*
G02*
X96350000Y-89550000I-175000J0D01*
G01*
X96000000Y-89550000D01*
G75*
G02*
X95825000Y-89375000I0J175000D01*
G01*
X95825000Y-87675000D01*
G75*
G02*
X96000000Y-87500000I175000J0D01*
G01*
G37*
G36*
G01*
X97270000Y-87500000D02*
X97620000Y-87500000D01*
G75*
G02*
X97795000Y-87675000I0J-175000D01*
G01*
X97795000Y-89375000D01*
G75*
G02*
X97620000Y-89550000I-175000J0D01*
G01*
X97270000Y-89550000D01*
G75*
G02*
X97095000Y-89375000I0J175000D01*
G01*
X97095000Y-87675000D01*
G75*
G02*
X97270000Y-87500000I175000J0D01*
G01*
G37*
%TD*%
%TO.C,U7*%
G36*
G01*
X140376300Y-139215000D02*
X139523700Y-139215000D01*
G75*
G02*
X139250000Y-138941300I0J273700D01*
G01*
X139250000Y-138338700D01*
G75*
G02*
X139523700Y-138065000I273700J0D01*
G01*
X140376300Y-138065000D01*
G75*
G02*
X140650000Y-138338700I0J-273700D01*
G01*
X140650000Y-138941300D01*
G75*
G02*
X140376300Y-139215000I-273700J0D01*
G01*
G37*
D14*
X139950000Y-136100000D03*
X139950000Y-137370000D03*
%TD*%
%TO.C,U6*%
G36*
G01*
X121730000Y-134450000D02*
X122080000Y-134450000D01*
G75*
G02*
X122255000Y-134625000I0J-175000D01*
G01*
X122255000Y-136325000D01*
G75*
G02*
X122080000Y-136500000I-175000J0D01*
G01*
X121730000Y-136500000D01*
G75*
G02*
X121555000Y-136325000I0J175000D01*
G01*
X121555000Y-134625000D01*
G75*
G02*
X121730000Y-134450000I175000J0D01*
G01*
G37*
G36*
G01*
X120460000Y-134450000D02*
X120810000Y-134450000D01*
G75*
G02*
X120985000Y-134625000I0J-175000D01*
G01*
X120985000Y-136325000D01*
G75*
G02*
X120810000Y-136500000I-175000J0D01*
G01*
X120460000Y-136500000D01*
G75*
G02*
X120285000Y-136325000I0J175000D01*
G01*
X120285000Y-134625000D01*
G75*
G02*
X120460000Y-134450000I175000J0D01*
G01*
G37*
G36*
G01*
X119190000Y-134450000D02*
X119540000Y-134450000D01*
G75*
G02*
X119715000Y-134625000I0J-175000D01*
G01*
X119715000Y-136325000D01*
G75*
G02*
X119540000Y-136500000I-175000J0D01*
G01*
X119190000Y-136500000D01*
G75*
G02*
X119015000Y-136325000I0J175000D01*
G01*
X119015000Y-134625000D01*
G75*
G02*
X119190000Y-134450000I175000J0D01*
G01*
G37*
G36*
G01*
X117920000Y-134450000D02*
X118270000Y-134450000D01*
G75*
G02*
X118445000Y-134625000I0J-175000D01*
G01*
X118445000Y-136325000D01*
G75*
G02*
X118270000Y-136500000I-175000J0D01*
G01*
X117920000Y-136500000D01*
G75*
G02*
X117745000Y-136325000I0J175000D01*
G01*
X117745000Y-134625000D01*
G75*
G02*
X117920000Y-134450000I175000J0D01*
G01*
G37*
G36*
G01*
X117920000Y-129500000D02*
X118270000Y-129500000D01*
G75*
G02*
X118445000Y-129675000I0J-175000D01*
G01*
X118445000Y-131375000D01*
G75*
G02*
X118270000Y-131550000I-175000J0D01*
G01*
X117920000Y-131550000D01*
G75*
G02*
X117745000Y-131375000I0J175000D01*
G01*
X117745000Y-129675000D01*
G75*
G02*
X117920000Y-129500000I175000J0D01*
G01*
G37*
G36*
G01*
X119190000Y-129500000D02*
X119540000Y-129500000D01*
G75*
G02*
X119715000Y-129675000I0J-175000D01*
G01*
X119715000Y-131375000D01*
G75*
G02*
X119540000Y-131550000I-175000J0D01*
G01*
X119190000Y-131550000D01*
G75*
G02*
X119015000Y-131375000I0J175000D01*
G01*
X119015000Y-129675000D01*
G75*
G02*
X119190000Y-129500000I175000J0D01*
G01*
G37*
G36*
G01*
X120460000Y-129500000D02*
X120810000Y-129500000D01*
G75*
G02*
X120985000Y-129675000I0J-175000D01*
G01*
X120985000Y-131375000D01*
G75*
G02*
X120810000Y-131550000I-175000J0D01*
G01*
X120460000Y-131550000D01*
G75*
G02*
X120285000Y-131375000I0J175000D01*
G01*
X120285000Y-129675000D01*
G75*
G02*
X120460000Y-129500000I175000J0D01*
G01*
G37*
G36*
G01*
X121730000Y-129500000D02*
X122080000Y-129500000D01*
G75*
G02*
X122255000Y-129675000I0J-175000D01*
G01*
X122255000Y-131375000D01*
G75*
G02*
X122080000Y-131550000I-175000J0D01*
G01*
X121730000Y-131550000D01*
G75*
G02*
X121555000Y-131375000I0J175000D01*
G01*
X121555000Y-129675000D01*
G75*
G02*
X121730000Y-129500000I175000J0D01*
G01*
G37*
%TD*%
%TO.C,U5*%
G36*
G01*
X112270000Y-92450000D02*
X112620000Y-92450000D01*
G75*
G02*
X112795000Y-92625000I0J-175000D01*
G01*
X112795000Y-94325000D01*
G75*
G02*
X112620000Y-94500000I-175000J0D01*
G01*
X112270000Y-94500000D01*
G75*
G02*
X112095000Y-94325000I0J175000D01*
G01*
X112095000Y-92625000D01*
G75*
G02*
X112270000Y-92450000I175000J0D01*
G01*
G37*
G36*
G01*
X111000000Y-92450000D02*
X111350000Y-92450000D01*
G75*
G02*
X111525000Y-92625000I0J-175000D01*
G01*
X111525000Y-94325000D01*
G75*
G02*
X111350000Y-94500000I-175000J0D01*
G01*
X111000000Y-94500000D01*
G75*
G02*
X110825000Y-94325000I0J175000D01*
G01*
X110825000Y-92625000D01*
G75*
G02*
X111000000Y-92450000I175000J0D01*
G01*
G37*
G36*
G01*
X109730000Y-92450000D02*
X110080000Y-92450000D01*
G75*
G02*
X110255000Y-92625000I0J-175000D01*
G01*
X110255000Y-94325000D01*
G75*
G02*
X110080000Y-94500000I-175000J0D01*
G01*
X109730000Y-94500000D01*
G75*
G02*
X109555000Y-94325000I0J175000D01*
G01*
X109555000Y-92625000D01*
G75*
G02*
X109730000Y-92450000I175000J0D01*
G01*
G37*
G36*
G01*
X108460000Y-92450000D02*
X108810000Y-92450000D01*
G75*
G02*
X108985000Y-92625000I0J-175000D01*
G01*
X108985000Y-94325000D01*
G75*
G02*
X108810000Y-94500000I-175000J0D01*
G01*
X108460000Y-94500000D01*
G75*
G02*
X108285000Y-94325000I0J175000D01*
G01*
X108285000Y-92625000D01*
G75*
G02*
X108460000Y-92450000I175000J0D01*
G01*
G37*
G36*
G01*
X107190000Y-92450000D02*
X107540000Y-92450000D01*
G75*
G02*
X107715000Y-92625000I0J-175000D01*
G01*
X107715000Y-94325000D01*
G75*
G02*
X107540000Y-94500000I-175000J0D01*
G01*
X107190000Y-94500000D01*
G75*
G02*
X107015000Y-94325000I0J175000D01*
G01*
X107015000Y-92625000D01*
G75*
G02*
X107190000Y-92450000I175000J0D01*
G01*
G37*
G36*
G01*
X105920000Y-92450000D02*
X106270000Y-92450000D01*
G75*
G02*
X106445000Y-92625000I0J-175000D01*
G01*
X106445000Y-94325000D01*
G75*
G02*
X106270000Y-94500000I-175000J0D01*
G01*
X105920000Y-94500000D01*
G75*
G02*
X105745000Y-94325000I0J175000D01*
G01*
X105745000Y-92625000D01*
G75*
G02*
X105920000Y-92450000I175000J0D01*
G01*
G37*
G36*
G01*
X104650000Y-92450000D02*
X105000000Y-92450000D01*
G75*
G02*
X105175000Y-92625000I0J-175000D01*
G01*
X105175000Y-94325000D01*
G75*
G02*
X105000000Y-94500000I-175000J0D01*
G01*
X104650000Y-94500000D01*
G75*
G02*
X104475000Y-94325000I0J175000D01*
G01*
X104475000Y-92625000D01*
G75*
G02*
X104650000Y-92450000I175000J0D01*
G01*
G37*
G36*
G01*
X103380000Y-92450000D02*
X103730000Y-92450000D01*
G75*
G02*
X103905000Y-92625000I0J-175000D01*
G01*
X103905000Y-94325000D01*
G75*
G02*
X103730000Y-94500000I-175000J0D01*
G01*
X103380000Y-94500000D01*
G75*
G02*
X103205000Y-94325000I0J175000D01*
G01*
X103205000Y-92625000D01*
G75*
G02*
X103380000Y-92450000I175000J0D01*
G01*
G37*
G36*
G01*
X103380000Y-87500000D02*
X103730000Y-87500000D01*
G75*
G02*
X103905000Y-87675000I0J-175000D01*
G01*
X103905000Y-89375000D01*
G75*
G02*
X103730000Y-89550000I-175000J0D01*
G01*
X103380000Y-89550000D01*
G75*
G02*
X103205000Y-89375000I0J175000D01*
G01*
X103205000Y-87675000D01*
G75*
G02*
X103380000Y-87500000I175000J0D01*
G01*
G37*
G36*
G01*
X104650000Y-87500000D02*
X105000000Y-87500000D01*
G75*
G02*
X105175000Y-87675000I0J-175000D01*
G01*
X105175000Y-89375000D01*
G75*
G02*
X105000000Y-89550000I-175000J0D01*
G01*
X104650000Y-89550000D01*
G75*
G02*
X104475000Y-89375000I0J175000D01*
G01*
X104475000Y-87675000D01*
G75*
G02*
X104650000Y-87500000I175000J0D01*
G01*
G37*
G36*
G01*
X105920000Y-87500000D02*
X106270000Y-87500000D01*
G75*
G02*
X106445000Y-87675000I0J-175000D01*
G01*
X106445000Y-89375000D01*
G75*
G02*
X106270000Y-89550000I-175000J0D01*
G01*
X105920000Y-89550000D01*
G75*
G02*
X105745000Y-89375000I0J175000D01*
G01*
X105745000Y-87675000D01*
G75*
G02*
X105920000Y-87500000I175000J0D01*
G01*
G37*
G36*
G01*
X107190000Y-87500000D02*
X107540000Y-87500000D01*
G75*
G02*
X107715000Y-87675000I0J-175000D01*
G01*
X107715000Y-89375000D01*
G75*
G02*
X107540000Y-89550000I-175000J0D01*
G01*
X107190000Y-89550000D01*
G75*
G02*
X107015000Y-89375000I0J175000D01*
G01*
X107015000Y-87675000D01*
G75*
G02*
X107190000Y-87500000I175000J0D01*
G01*
G37*
G36*
G01*
X108460000Y-87500000D02*
X108810000Y-87500000D01*
G75*
G02*
X108985000Y-87675000I0J-175000D01*
G01*
X108985000Y-89375000D01*
G75*
G02*
X108810000Y-89550000I-175000J0D01*
G01*
X108460000Y-89550000D01*
G75*
G02*
X108285000Y-89375000I0J175000D01*
G01*
X108285000Y-87675000D01*
G75*
G02*
X108460000Y-87500000I175000J0D01*
G01*
G37*
G36*
G01*
X109730000Y-87500000D02*
X110080000Y-87500000D01*
G75*
G02*
X110255000Y-87675000I0J-175000D01*
G01*
X110255000Y-89375000D01*
G75*
G02*
X110080000Y-89550000I-175000J0D01*
G01*
X109730000Y-89550000D01*
G75*
G02*
X109555000Y-89375000I0J175000D01*
G01*
X109555000Y-87675000D01*
G75*
G02*
X109730000Y-87500000I175000J0D01*
G01*
G37*
G36*
G01*
X111000000Y-87500000D02*
X111350000Y-87500000D01*
G75*
G02*
X111525000Y-87675000I0J-175000D01*
G01*
X111525000Y-89375000D01*
G75*
G02*
X111350000Y-89550000I-175000J0D01*
G01*
X111000000Y-89550000D01*
G75*
G02*
X110825000Y-89375000I0J175000D01*
G01*
X110825000Y-87675000D01*
G75*
G02*
X111000000Y-87500000I175000J0D01*
G01*
G37*
G36*
G01*
X112270000Y-87500000D02*
X112620000Y-87500000D01*
G75*
G02*
X112795000Y-87675000I0J-175000D01*
G01*
X112795000Y-89375000D01*
G75*
G02*
X112620000Y-89550000I-175000J0D01*
G01*
X112270000Y-89550000D01*
G75*
G02*
X112095000Y-89375000I0J175000D01*
G01*
X112095000Y-87675000D01*
G75*
G02*
X112270000Y-87500000I175000J0D01*
G01*
G37*
%TD*%
%TO.C,U4*%
G36*
G01*
X127270000Y-92450000D02*
X127620000Y-92450000D01*
G75*
G02*
X127795000Y-92625000I0J-175000D01*
G01*
X127795000Y-94325000D01*
G75*
G02*
X127620000Y-94500000I-175000J0D01*
G01*
X127270000Y-94500000D01*
G75*
G02*
X127095000Y-94325000I0J175000D01*
G01*
X127095000Y-92625000D01*
G75*
G02*
X127270000Y-92450000I175000J0D01*
G01*
G37*
G36*
G01*
X126000000Y-92450000D02*
X126350000Y-92450000D01*
G75*
G02*
X126525000Y-92625000I0J-175000D01*
G01*
X126525000Y-94325000D01*
G75*
G02*
X126350000Y-94500000I-175000J0D01*
G01*
X126000000Y-94500000D01*
G75*
G02*
X125825000Y-94325000I0J175000D01*
G01*
X125825000Y-92625000D01*
G75*
G02*
X126000000Y-92450000I175000J0D01*
G01*
G37*
G36*
G01*
X124730000Y-92450000D02*
X125080000Y-92450000D01*
G75*
G02*
X125255000Y-92625000I0J-175000D01*
G01*
X125255000Y-94325000D01*
G75*
G02*
X125080000Y-94500000I-175000J0D01*
G01*
X124730000Y-94500000D01*
G75*
G02*
X124555000Y-94325000I0J175000D01*
G01*
X124555000Y-92625000D01*
G75*
G02*
X124730000Y-92450000I175000J0D01*
G01*
G37*
G36*
G01*
X123460000Y-92450000D02*
X123810000Y-92450000D01*
G75*
G02*
X123985000Y-92625000I0J-175000D01*
G01*
X123985000Y-94325000D01*
G75*
G02*
X123810000Y-94500000I-175000J0D01*
G01*
X123460000Y-94500000D01*
G75*
G02*
X123285000Y-94325000I0J175000D01*
G01*
X123285000Y-92625000D01*
G75*
G02*
X123460000Y-92450000I175000J0D01*
G01*
G37*
G36*
G01*
X122190000Y-92450000D02*
X122540000Y-92450000D01*
G75*
G02*
X122715000Y-92625000I0J-175000D01*
G01*
X122715000Y-94325000D01*
G75*
G02*
X122540000Y-94500000I-175000J0D01*
G01*
X122190000Y-94500000D01*
G75*
G02*
X122015000Y-94325000I0J175000D01*
G01*
X122015000Y-92625000D01*
G75*
G02*
X122190000Y-92450000I175000J0D01*
G01*
G37*
G36*
G01*
X120920000Y-92450000D02*
X121270000Y-92450000D01*
G75*
G02*
X121445000Y-92625000I0J-175000D01*
G01*
X121445000Y-94325000D01*
G75*
G02*
X121270000Y-94500000I-175000J0D01*
G01*
X120920000Y-94500000D01*
G75*
G02*
X120745000Y-94325000I0J175000D01*
G01*
X120745000Y-92625000D01*
G75*
G02*
X120920000Y-92450000I175000J0D01*
G01*
G37*
G36*
G01*
X119650000Y-92450000D02*
X120000000Y-92450000D01*
G75*
G02*
X120175000Y-92625000I0J-175000D01*
G01*
X120175000Y-94325000D01*
G75*
G02*
X120000000Y-94500000I-175000J0D01*
G01*
X119650000Y-94500000D01*
G75*
G02*
X119475000Y-94325000I0J175000D01*
G01*
X119475000Y-92625000D01*
G75*
G02*
X119650000Y-92450000I175000J0D01*
G01*
G37*
G36*
G01*
X118380000Y-92450000D02*
X118730000Y-92450000D01*
G75*
G02*
X118905000Y-92625000I0J-175000D01*
G01*
X118905000Y-94325000D01*
G75*
G02*
X118730000Y-94500000I-175000J0D01*
G01*
X118380000Y-94500000D01*
G75*
G02*
X118205000Y-94325000I0J175000D01*
G01*
X118205000Y-92625000D01*
G75*
G02*
X118380000Y-92450000I175000J0D01*
G01*
G37*
G36*
G01*
X118380000Y-87500000D02*
X118730000Y-87500000D01*
G75*
G02*
X118905000Y-87675000I0J-175000D01*
G01*
X118905000Y-89375000D01*
G75*
G02*
X118730000Y-89550000I-175000J0D01*
G01*
X118380000Y-89550000D01*
G75*
G02*
X118205000Y-89375000I0J175000D01*
G01*
X118205000Y-87675000D01*
G75*
G02*
X118380000Y-87500000I175000J0D01*
G01*
G37*
G36*
G01*
X119650000Y-87500000D02*
X120000000Y-87500000D01*
G75*
G02*
X120175000Y-87675000I0J-175000D01*
G01*
X120175000Y-89375000D01*
G75*
G02*
X120000000Y-89550000I-175000J0D01*
G01*
X119650000Y-89550000D01*
G75*
G02*
X119475000Y-89375000I0J175000D01*
G01*
X119475000Y-87675000D01*
G75*
G02*
X119650000Y-87500000I175000J0D01*
G01*
G37*
G36*
G01*
X120920000Y-87500000D02*
X121270000Y-87500000D01*
G75*
G02*
X121445000Y-87675000I0J-175000D01*
G01*
X121445000Y-89375000D01*
G75*
G02*
X121270000Y-89550000I-175000J0D01*
G01*
X120920000Y-89550000D01*
G75*
G02*
X120745000Y-89375000I0J175000D01*
G01*
X120745000Y-87675000D01*
G75*
G02*
X120920000Y-87500000I175000J0D01*
G01*
G37*
G36*
G01*
X122190000Y-87500000D02*
X122540000Y-87500000D01*
G75*
G02*
X122715000Y-87675000I0J-175000D01*
G01*
X122715000Y-89375000D01*
G75*
G02*
X122540000Y-89550000I-175000J0D01*
G01*
X122190000Y-89550000D01*
G75*
G02*
X122015000Y-89375000I0J175000D01*
G01*
X122015000Y-87675000D01*
G75*
G02*
X122190000Y-87500000I175000J0D01*
G01*
G37*
G36*
G01*
X123460000Y-87500000D02*
X123810000Y-87500000D01*
G75*
G02*
X123985000Y-87675000I0J-175000D01*
G01*
X123985000Y-89375000D01*
G75*
G02*
X123810000Y-89550000I-175000J0D01*
G01*
X123460000Y-89550000D01*
G75*
G02*
X123285000Y-89375000I0J175000D01*
G01*
X123285000Y-87675000D01*
G75*
G02*
X123460000Y-87500000I175000J0D01*
G01*
G37*
G36*
G01*
X124730000Y-87500000D02*
X125080000Y-87500000D01*
G75*
G02*
X125255000Y-87675000I0J-175000D01*
G01*
X125255000Y-89375000D01*
G75*
G02*
X125080000Y-89550000I-175000J0D01*
G01*
X124730000Y-89550000D01*
G75*
G02*
X124555000Y-89375000I0J175000D01*
G01*
X124555000Y-87675000D01*
G75*
G02*
X124730000Y-87500000I175000J0D01*
G01*
G37*
G36*
G01*
X126000000Y-87500000D02*
X126350000Y-87500000D01*
G75*
G02*
X126525000Y-87675000I0J-175000D01*
G01*
X126525000Y-89375000D01*
G75*
G02*
X126350000Y-89550000I-175000J0D01*
G01*
X126000000Y-89550000D01*
G75*
G02*
X125825000Y-89375000I0J175000D01*
G01*
X125825000Y-87675000D01*
G75*
G02*
X126000000Y-87500000I175000J0D01*
G01*
G37*
G36*
G01*
X127270000Y-87500000D02*
X127620000Y-87500000D01*
G75*
G02*
X127795000Y-87675000I0J-175000D01*
G01*
X127795000Y-89375000D01*
G75*
G02*
X127620000Y-89550000I-175000J0D01*
G01*
X127270000Y-89550000D01*
G75*
G02*
X127095000Y-89375000I0J175000D01*
G01*
X127095000Y-87675000D01*
G75*
G02*
X127270000Y-87500000I175000J0D01*
G01*
G37*
%TD*%
D15*
%TO.C,U3*%
X69000000Y-130100000D03*
X69000000Y-129150000D03*
X69000000Y-131050000D03*
X66800000Y-131050000D03*
X66800000Y-130100000D03*
X66800000Y-129150000D03*
%TD*%
%TO.C,U2*%
X75500000Y-144250000D03*
X75500000Y-142350000D03*
X77700000Y-142350000D03*
X77700000Y-143300000D03*
X77700000Y-144250000D03*
%TD*%
D16*
%TO.C,U1*%
X125700000Y-118400000D03*
G36*
G01*
X128737500Y-115475000D02*
X129537500Y-115475000D01*
G75*
G02*
X129625000Y-115562500I0J-87500D01*
G01*
X129625000Y-115737500D01*
G75*
G02*
X129537500Y-115825000I-87500J0D01*
G01*
X128737500Y-115825000D01*
G75*
G02*
X128650000Y-115737500I0J87500D01*
G01*
X128650000Y-115562500D01*
G75*
G02*
X128737500Y-115475000I87500J0D01*
G01*
G37*
G36*
G01*
X128737500Y-115975000D02*
X129537500Y-115975000D01*
G75*
G02*
X129625000Y-116062500I0J-87500D01*
G01*
X129625000Y-116237500D01*
G75*
G02*
X129537500Y-116325000I-87500J0D01*
G01*
X128737500Y-116325000D01*
G75*
G02*
X128650000Y-116237500I0J87500D01*
G01*
X128650000Y-116062500D01*
G75*
G02*
X128737500Y-115975000I87500J0D01*
G01*
G37*
G36*
G01*
X128737500Y-116475000D02*
X129537500Y-116475000D01*
G75*
G02*
X129625000Y-116562500I0J-87500D01*
G01*
X129625000Y-116737500D01*
G75*
G02*
X129537500Y-116825000I-87500J0D01*
G01*
X128737500Y-116825000D01*
G75*
G02*
X128650000Y-116737500I0J87500D01*
G01*
X128650000Y-116562500D01*
G75*
G02*
X128737500Y-116475000I87500J0D01*
G01*
G37*
G36*
G01*
X128737500Y-116975000D02*
X129537500Y-116975000D01*
G75*
G02*
X129625000Y-117062500I0J-87500D01*
G01*
X129625000Y-117237500D01*
G75*
G02*
X129537500Y-117325000I-87500J0D01*
G01*
X128737500Y-117325000D01*
G75*
G02*
X128650000Y-117237500I0J87500D01*
G01*
X128650000Y-117062500D01*
G75*
G02*
X128737500Y-116975000I87500J0D01*
G01*
G37*
G36*
G01*
X128737500Y-117475000D02*
X129537500Y-117475000D01*
G75*
G02*
X129625000Y-117562500I0J-87500D01*
G01*
X129625000Y-117737500D01*
G75*
G02*
X129537500Y-117825000I-87500J0D01*
G01*
X128737500Y-117825000D01*
G75*
G02*
X128650000Y-117737500I0J87500D01*
G01*
X128650000Y-117562500D01*
G75*
G02*
X128737500Y-117475000I87500J0D01*
G01*
G37*
G36*
G01*
X128737500Y-117975000D02*
X129537500Y-117975000D01*
G75*
G02*
X129625000Y-118062500I0J-87500D01*
G01*
X129625000Y-118237500D01*
G75*
G02*
X129537500Y-118325000I-87500J0D01*
G01*
X128737500Y-118325000D01*
G75*
G02*
X128650000Y-118237500I0J87500D01*
G01*
X128650000Y-118062500D01*
G75*
G02*
X128737500Y-117975000I87500J0D01*
G01*
G37*
G36*
G01*
X128737500Y-118475000D02*
X129537500Y-118475000D01*
G75*
G02*
X129625000Y-118562500I0J-87500D01*
G01*
X129625000Y-118737500D01*
G75*
G02*
X129537500Y-118825000I-87500J0D01*
G01*
X128737500Y-118825000D01*
G75*
G02*
X128650000Y-118737500I0J87500D01*
G01*
X128650000Y-118562500D01*
G75*
G02*
X128737500Y-118475000I87500J0D01*
G01*
G37*
G36*
G01*
X128737500Y-118975000D02*
X129537500Y-118975000D01*
G75*
G02*
X129625000Y-119062500I0J-87500D01*
G01*
X129625000Y-119237500D01*
G75*
G02*
X129537500Y-119325000I-87500J0D01*
G01*
X128737500Y-119325000D01*
G75*
G02*
X128650000Y-119237500I0J87500D01*
G01*
X128650000Y-119062500D01*
G75*
G02*
X128737500Y-118975000I87500J0D01*
G01*
G37*
G36*
G01*
X128737500Y-119475000D02*
X129537500Y-119475000D01*
G75*
G02*
X129625000Y-119562500I0J-87500D01*
G01*
X129625000Y-119737500D01*
G75*
G02*
X129537500Y-119825000I-87500J0D01*
G01*
X128737500Y-119825000D01*
G75*
G02*
X128650000Y-119737500I0J87500D01*
G01*
X128650000Y-119562500D01*
G75*
G02*
X128737500Y-119475000I87500J0D01*
G01*
G37*
G36*
G01*
X128737500Y-119975000D02*
X129537500Y-119975000D01*
G75*
G02*
X129625000Y-120062500I0J-87500D01*
G01*
X129625000Y-120237500D01*
G75*
G02*
X129537500Y-120325000I-87500J0D01*
G01*
X128737500Y-120325000D01*
G75*
G02*
X128650000Y-120237500I0J87500D01*
G01*
X128650000Y-120062500D01*
G75*
G02*
X128737500Y-119975000I87500J0D01*
G01*
G37*
G36*
G01*
X128737500Y-120475000D02*
X129537500Y-120475000D01*
G75*
G02*
X129625000Y-120562500I0J-87500D01*
G01*
X129625000Y-120737500D01*
G75*
G02*
X129537500Y-120825000I-87500J0D01*
G01*
X128737500Y-120825000D01*
G75*
G02*
X128650000Y-120737500I0J87500D01*
G01*
X128650000Y-120562500D01*
G75*
G02*
X128737500Y-120475000I87500J0D01*
G01*
G37*
G36*
G01*
X128737500Y-120975000D02*
X129537500Y-120975000D01*
G75*
G02*
X129625000Y-121062500I0J-87500D01*
G01*
X129625000Y-121237500D01*
G75*
G02*
X129537500Y-121325000I-87500J0D01*
G01*
X128737500Y-121325000D01*
G75*
G02*
X128650000Y-121237500I0J87500D01*
G01*
X128650000Y-121062500D01*
G75*
G02*
X128737500Y-120975000I87500J0D01*
G01*
G37*
G36*
G01*
X128362500Y-121350000D02*
X128537500Y-121350000D01*
G75*
G02*
X128625000Y-121437500I0J-87500D01*
G01*
X128625000Y-122237500D01*
G75*
G02*
X128537500Y-122325000I-87500J0D01*
G01*
X128362500Y-122325000D01*
G75*
G02*
X128275000Y-122237500I0J87500D01*
G01*
X128275000Y-121437500D01*
G75*
G02*
X128362500Y-121350000I87500J0D01*
G01*
G37*
G36*
G01*
X127862500Y-121350000D02*
X128037500Y-121350000D01*
G75*
G02*
X128125000Y-121437500I0J-87500D01*
G01*
X128125000Y-122237500D01*
G75*
G02*
X128037500Y-122325000I-87500J0D01*
G01*
X127862500Y-122325000D01*
G75*
G02*
X127775000Y-122237500I0J87500D01*
G01*
X127775000Y-121437500D01*
G75*
G02*
X127862500Y-121350000I87500J0D01*
G01*
G37*
G36*
G01*
X127362500Y-121350000D02*
X127537500Y-121350000D01*
G75*
G02*
X127625000Y-121437500I0J-87500D01*
G01*
X127625000Y-122237500D01*
G75*
G02*
X127537500Y-122325000I-87500J0D01*
G01*
X127362500Y-122325000D01*
G75*
G02*
X127275000Y-122237500I0J87500D01*
G01*
X127275000Y-121437500D01*
G75*
G02*
X127362500Y-121350000I87500J0D01*
G01*
G37*
G36*
G01*
X126862500Y-121350000D02*
X127037500Y-121350000D01*
G75*
G02*
X127125000Y-121437500I0J-87500D01*
G01*
X127125000Y-122237500D01*
G75*
G02*
X127037500Y-122325000I-87500J0D01*
G01*
X126862500Y-122325000D01*
G75*
G02*
X126775000Y-122237500I0J87500D01*
G01*
X126775000Y-121437500D01*
G75*
G02*
X126862500Y-121350000I87500J0D01*
G01*
G37*
G36*
G01*
X126362500Y-121350000D02*
X126537500Y-121350000D01*
G75*
G02*
X126625000Y-121437500I0J-87500D01*
G01*
X126625000Y-122237500D01*
G75*
G02*
X126537500Y-122325000I-87500J0D01*
G01*
X126362500Y-122325000D01*
G75*
G02*
X126275000Y-122237500I0J87500D01*
G01*
X126275000Y-121437500D01*
G75*
G02*
X126362500Y-121350000I87500J0D01*
G01*
G37*
G36*
G01*
X125862500Y-121350000D02*
X126037500Y-121350000D01*
G75*
G02*
X126125000Y-121437500I0J-87500D01*
G01*
X126125000Y-122237500D01*
G75*
G02*
X126037500Y-122325000I-87500J0D01*
G01*
X125862500Y-122325000D01*
G75*
G02*
X125775000Y-122237500I0J87500D01*
G01*
X125775000Y-121437500D01*
G75*
G02*
X125862500Y-121350000I87500J0D01*
G01*
G37*
G36*
G01*
X125362500Y-121350000D02*
X125537500Y-121350000D01*
G75*
G02*
X125625000Y-121437500I0J-87500D01*
G01*
X125625000Y-122237500D01*
G75*
G02*
X125537500Y-122325000I-87500J0D01*
G01*
X125362500Y-122325000D01*
G75*
G02*
X125275000Y-122237500I0J87500D01*
G01*
X125275000Y-121437500D01*
G75*
G02*
X125362500Y-121350000I87500J0D01*
G01*
G37*
G36*
G01*
X124862500Y-121350000D02*
X125037500Y-121350000D01*
G75*
G02*
X125125000Y-121437500I0J-87500D01*
G01*
X125125000Y-122237500D01*
G75*
G02*
X125037500Y-122325000I-87500J0D01*
G01*
X124862500Y-122325000D01*
G75*
G02*
X124775000Y-122237500I0J87500D01*
G01*
X124775000Y-121437500D01*
G75*
G02*
X124862500Y-121350000I87500J0D01*
G01*
G37*
G36*
G01*
X124362500Y-121350000D02*
X124537500Y-121350000D01*
G75*
G02*
X124625000Y-121437500I0J-87500D01*
G01*
X124625000Y-122237500D01*
G75*
G02*
X124537500Y-122325000I-87500J0D01*
G01*
X124362500Y-122325000D01*
G75*
G02*
X124275000Y-122237500I0J87500D01*
G01*
X124275000Y-121437500D01*
G75*
G02*
X124362500Y-121350000I87500J0D01*
G01*
G37*
G36*
G01*
X123862500Y-121350000D02*
X124037500Y-121350000D01*
G75*
G02*
X124125000Y-121437500I0J-87500D01*
G01*
X124125000Y-122237500D01*
G75*
G02*
X124037500Y-122325000I-87500J0D01*
G01*
X123862500Y-122325000D01*
G75*
G02*
X123775000Y-122237500I0J87500D01*
G01*
X123775000Y-121437500D01*
G75*
G02*
X123862500Y-121350000I87500J0D01*
G01*
G37*
G36*
G01*
X123362500Y-121350000D02*
X123537500Y-121350000D01*
G75*
G02*
X123625000Y-121437500I0J-87500D01*
G01*
X123625000Y-122237500D01*
G75*
G02*
X123537500Y-122325000I-87500J0D01*
G01*
X123362500Y-122325000D01*
G75*
G02*
X123275000Y-122237500I0J87500D01*
G01*
X123275000Y-121437500D01*
G75*
G02*
X123362500Y-121350000I87500J0D01*
G01*
G37*
G36*
G01*
X122862500Y-121350000D02*
X123037500Y-121350000D01*
G75*
G02*
X123125000Y-121437500I0J-87500D01*
G01*
X123125000Y-122237500D01*
G75*
G02*
X123037500Y-122325000I-87500J0D01*
G01*
X122862500Y-122325000D01*
G75*
G02*
X122775000Y-122237500I0J87500D01*
G01*
X122775000Y-121437500D01*
G75*
G02*
X122862500Y-121350000I87500J0D01*
G01*
G37*
G36*
G01*
X121862500Y-120975000D02*
X122662500Y-120975000D01*
G75*
G02*
X122750000Y-121062500I0J-87500D01*
G01*
X122750000Y-121237500D01*
G75*
G02*
X122662500Y-121325000I-87500J0D01*
G01*
X121862500Y-121325000D01*
G75*
G02*
X121775000Y-121237500I0J87500D01*
G01*
X121775000Y-121062500D01*
G75*
G02*
X121862500Y-120975000I87500J0D01*
G01*
G37*
G36*
G01*
X121862500Y-120475000D02*
X122662500Y-120475000D01*
G75*
G02*
X122750000Y-120562500I0J-87500D01*
G01*
X122750000Y-120737500D01*
G75*
G02*
X122662500Y-120825000I-87500J0D01*
G01*
X121862500Y-120825000D01*
G75*
G02*
X121775000Y-120737500I0J87500D01*
G01*
X121775000Y-120562500D01*
G75*
G02*
X121862500Y-120475000I87500J0D01*
G01*
G37*
G36*
G01*
X121862500Y-119975000D02*
X122662500Y-119975000D01*
G75*
G02*
X122750000Y-120062500I0J-87500D01*
G01*
X122750000Y-120237500D01*
G75*
G02*
X122662500Y-120325000I-87500J0D01*
G01*
X121862500Y-120325000D01*
G75*
G02*
X121775000Y-120237500I0J87500D01*
G01*
X121775000Y-120062500D01*
G75*
G02*
X121862500Y-119975000I87500J0D01*
G01*
G37*
G36*
G01*
X121862500Y-119475000D02*
X122662500Y-119475000D01*
G75*
G02*
X122750000Y-119562500I0J-87500D01*
G01*
X122750000Y-119737500D01*
G75*
G02*
X122662500Y-119825000I-87500J0D01*
G01*
X121862500Y-119825000D01*
G75*
G02*
X121775000Y-119737500I0J87500D01*
G01*
X121775000Y-119562500D01*
G75*
G02*
X121862500Y-119475000I87500J0D01*
G01*
G37*
G36*
G01*
X121862500Y-118975000D02*
X122662500Y-118975000D01*
G75*
G02*
X122750000Y-119062500I0J-87500D01*
G01*
X122750000Y-119237500D01*
G75*
G02*
X122662500Y-119325000I-87500J0D01*
G01*
X121862500Y-119325000D01*
G75*
G02*
X121775000Y-119237500I0J87500D01*
G01*
X121775000Y-119062500D01*
G75*
G02*
X121862500Y-118975000I87500J0D01*
G01*
G37*
G36*
G01*
X121862500Y-118475000D02*
X122662500Y-118475000D01*
G75*
G02*
X122750000Y-118562500I0J-87500D01*
G01*
X122750000Y-118737500D01*
G75*
G02*
X122662500Y-118825000I-87500J0D01*
G01*
X121862500Y-118825000D01*
G75*
G02*
X121775000Y-118737500I0J87500D01*
G01*
X121775000Y-118562500D01*
G75*
G02*
X121862500Y-118475000I87500J0D01*
G01*
G37*
G36*
G01*
X121862500Y-117975000D02*
X122662500Y-117975000D01*
G75*
G02*
X122750000Y-118062500I0J-87500D01*
G01*
X122750000Y-118237500D01*
G75*
G02*
X122662500Y-118325000I-87500J0D01*
G01*
X121862500Y-118325000D01*
G75*
G02*
X121775000Y-118237500I0J87500D01*
G01*
X121775000Y-118062500D01*
G75*
G02*
X121862500Y-117975000I87500J0D01*
G01*
G37*
G36*
G01*
X121862500Y-117475000D02*
X122662500Y-117475000D01*
G75*
G02*
X122750000Y-117562500I0J-87500D01*
G01*
X122750000Y-117737500D01*
G75*
G02*
X122662500Y-117825000I-87500J0D01*
G01*
X121862500Y-117825000D01*
G75*
G02*
X121775000Y-117737500I0J87500D01*
G01*
X121775000Y-117562500D01*
G75*
G02*
X121862500Y-117475000I87500J0D01*
G01*
G37*
G36*
G01*
X121862500Y-116975000D02*
X122662500Y-116975000D01*
G75*
G02*
X122750000Y-117062500I0J-87500D01*
G01*
X122750000Y-117237500D01*
G75*
G02*
X122662500Y-117325000I-87500J0D01*
G01*
X121862500Y-117325000D01*
G75*
G02*
X121775000Y-117237500I0J87500D01*
G01*
X121775000Y-117062500D01*
G75*
G02*
X121862500Y-116975000I87500J0D01*
G01*
G37*
G36*
G01*
X121862500Y-116475000D02*
X122662500Y-116475000D01*
G75*
G02*
X122750000Y-116562500I0J-87500D01*
G01*
X122750000Y-116737500D01*
G75*
G02*
X122662500Y-116825000I-87500J0D01*
G01*
X121862500Y-116825000D01*
G75*
G02*
X121775000Y-116737500I0J87500D01*
G01*
X121775000Y-116562500D01*
G75*
G02*
X121862500Y-116475000I87500J0D01*
G01*
G37*
G36*
G01*
X121862500Y-115975000D02*
X122662500Y-115975000D01*
G75*
G02*
X122750000Y-116062500I0J-87500D01*
G01*
X122750000Y-116237500D01*
G75*
G02*
X122662500Y-116325000I-87500J0D01*
G01*
X121862500Y-116325000D01*
G75*
G02*
X121775000Y-116237500I0J87500D01*
G01*
X121775000Y-116062500D01*
G75*
G02*
X121862500Y-115975000I87500J0D01*
G01*
G37*
G36*
G01*
X121862500Y-115475000D02*
X122662500Y-115475000D01*
G75*
G02*
X122750000Y-115562500I0J-87500D01*
G01*
X122750000Y-115737500D01*
G75*
G02*
X122662500Y-115825000I-87500J0D01*
G01*
X121862500Y-115825000D01*
G75*
G02*
X121775000Y-115737500I0J87500D01*
G01*
X121775000Y-115562500D01*
G75*
G02*
X121862500Y-115475000I87500J0D01*
G01*
G37*
G36*
G01*
X122862500Y-114475000D02*
X123037500Y-114475000D01*
G75*
G02*
X123125000Y-114562500I0J-87500D01*
G01*
X123125000Y-115362500D01*
G75*
G02*
X123037500Y-115450000I-87500J0D01*
G01*
X122862500Y-115450000D01*
G75*
G02*
X122775000Y-115362500I0J87500D01*
G01*
X122775000Y-114562500D01*
G75*
G02*
X122862500Y-114475000I87500J0D01*
G01*
G37*
G36*
G01*
X123362500Y-114475000D02*
X123537500Y-114475000D01*
G75*
G02*
X123625000Y-114562500I0J-87500D01*
G01*
X123625000Y-115362500D01*
G75*
G02*
X123537500Y-115450000I-87500J0D01*
G01*
X123362500Y-115450000D01*
G75*
G02*
X123275000Y-115362500I0J87500D01*
G01*
X123275000Y-114562500D01*
G75*
G02*
X123362500Y-114475000I87500J0D01*
G01*
G37*
G36*
G01*
X123862500Y-114475000D02*
X124037500Y-114475000D01*
G75*
G02*
X124125000Y-114562500I0J-87500D01*
G01*
X124125000Y-115362500D01*
G75*
G02*
X124037500Y-115450000I-87500J0D01*
G01*
X123862500Y-115450000D01*
G75*
G02*
X123775000Y-115362500I0J87500D01*
G01*
X123775000Y-114562500D01*
G75*
G02*
X123862500Y-114475000I87500J0D01*
G01*
G37*
G36*
G01*
X124362500Y-114475000D02*
X124537500Y-114475000D01*
G75*
G02*
X124625000Y-114562500I0J-87500D01*
G01*
X124625000Y-115362500D01*
G75*
G02*
X124537500Y-115450000I-87500J0D01*
G01*
X124362500Y-115450000D01*
G75*
G02*
X124275000Y-115362500I0J87500D01*
G01*
X124275000Y-114562500D01*
G75*
G02*
X124362500Y-114475000I87500J0D01*
G01*
G37*
G36*
G01*
X124862500Y-114475000D02*
X125037500Y-114475000D01*
G75*
G02*
X125125000Y-114562500I0J-87500D01*
G01*
X125125000Y-115362500D01*
G75*
G02*
X125037500Y-115450000I-87500J0D01*
G01*
X124862500Y-115450000D01*
G75*
G02*
X124775000Y-115362500I0J87500D01*
G01*
X124775000Y-114562500D01*
G75*
G02*
X124862500Y-114475000I87500J0D01*
G01*
G37*
G36*
G01*
X125362500Y-114475000D02*
X125537500Y-114475000D01*
G75*
G02*
X125625000Y-114562500I0J-87500D01*
G01*
X125625000Y-115362500D01*
G75*
G02*
X125537500Y-115450000I-87500J0D01*
G01*
X125362500Y-115450000D01*
G75*
G02*
X125275000Y-115362500I0J87500D01*
G01*
X125275000Y-114562500D01*
G75*
G02*
X125362500Y-114475000I87500J0D01*
G01*
G37*
G36*
G01*
X125862500Y-114475000D02*
X126037500Y-114475000D01*
G75*
G02*
X126125000Y-114562500I0J-87500D01*
G01*
X126125000Y-115362500D01*
G75*
G02*
X126037500Y-115450000I-87500J0D01*
G01*
X125862500Y-115450000D01*
G75*
G02*
X125775000Y-115362500I0J87500D01*
G01*
X125775000Y-114562500D01*
G75*
G02*
X125862500Y-114475000I87500J0D01*
G01*
G37*
G36*
G01*
X126362500Y-114475000D02*
X126537500Y-114475000D01*
G75*
G02*
X126625000Y-114562500I0J-87500D01*
G01*
X126625000Y-115362500D01*
G75*
G02*
X126537500Y-115450000I-87500J0D01*
G01*
X126362500Y-115450000D01*
G75*
G02*
X126275000Y-115362500I0J87500D01*
G01*
X126275000Y-114562500D01*
G75*
G02*
X126362500Y-114475000I87500J0D01*
G01*
G37*
G36*
G01*
X126862500Y-114475000D02*
X127037500Y-114475000D01*
G75*
G02*
X127125000Y-114562500I0J-87500D01*
G01*
X127125000Y-115362500D01*
G75*
G02*
X127037500Y-115450000I-87500J0D01*
G01*
X126862500Y-115450000D01*
G75*
G02*
X126775000Y-115362500I0J87500D01*
G01*
X126775000Y-114562500D01*
G75*
G02*
X126862500Y-114475000I87500J0D01*
G01*
G37*
G36*
G01*
X127362500Y-114475000D02*
X127537500Y-114475000D01*
G75*
G02*
X127625000Y-114562500I0J-87500D01*
G01*
X127625000Y-115362500D01*
G75*
G02*
X127537500Y-115450000I-87500J0D01*
G01*
X127362500Y-115450000D01*
G75*
G02*
X127275000Y-115362500I0J87500D01*
G01*
X127275000Y-114562500D01*
G75*
G02*
X127362500Y-114475000I87500J0D01*
G01*
G37*
G36*
G01*
X127862500Y-114475000D02*
X128037500Y-114475000D01*
G75*
G02*
X128125000Y-114562500I0J-87500D01*
G01*
X128125000Y-115362500D01*
G75*
G02*
X128037500Y-115450000I-87500J0D01*
G01*
X127862500Y-115450000D01*
G75*
G02*
X127775000Y-115362500I0J87500D01*
G01*
X127775000Y-114562500D01*
G75*
G02*
X127862500Y-114475000I87500J0D01*
G01*
G37*
G36*
G01*
X128362500Y-114475000D02*
X128537500Y-114475000D01*
G75*
G02*
X128625000Y-114562500I0J-87500D01*
G01*
X128625000Y-115362500D01*
G75*
G02*
X128537500Y-115450000I-87500J0D01*
G01*
X128362500Y-115450000D01*
G75*
G02*
X128275000Y-115362500I0J87500D01*
G01*
X128275000Y-114562500D01*
G75*
G02*
X128362500Y-114475000I87500J0D01*
G01*
G37*
%TD*%
D17*
%TO.C,TP1*%
X55100000Y-93500000D03*
%TD*%
D18*
%TO.C,SW3*%
X102375000Y-112400000D03*
X107625000Y-112400000D03*
X102375000Y-115600000D03*
X107625000Y-115600000D03*
%TD*%
%TO.C,SW2*%
X87375000Y-112400000D03*
X92625000Y-112400000D03*
X87375000Y-115600000D03*
X92625000Y-115600000D03*
%TD*%
%TO.C,SW1*%
X133625000Y-145600000D03*
X128375000Y-145600000D03*
X133625000Y-142400000D03*
X128375000Y-142400000D03*
%TD*%
%TO.C,R57*%
G36*
G01*
X75300000Y-81281250D02*
X75300000Y-80718750D01*
G75*
G02*
X75543750Y-80475000I243750J0D01*
G01*
X76031250Y-80475000D01*
G75*
G02*
X76275000Y-80718750I0J-243750D01*
G01*
X76275000Y-81281250D01*
G75*
G02*
X76031250Y-81525000I-243750J0D01*
G01*
X75543750Y-81525000D01*
G75*
G02*
X75300000Y-81281250I0J243750D01*
G01*
G37*
G36*
G01*
X73725000Y-81281250D02*
X73725000Y-80718750D01*
G75*
G02*
X73968750Y-80475000I243750J0D01*
G01*
X74456250Y-80475000D01*
G75*
G02*
X74700000Y-80718750I0J-243750D01*
G01*
X74700000Y-81281250D01*
G75*
G02*
X74456250Y-81525000I-243750J0D01*
G01*
X73968750Y-81525000D01*
G75*
G02*
X73725000Y-81281250I0J243750D01*
G01*
G37*
%TD*%
%TO.C,R56*%
G36*
G01*
X90300000Y-81281250D02*
X90300000Y-80718750D01*
G75*
G02*
X90543750Y-80475000I243750J0D01*
G01*
X91031250Y-80475000D01*
G75*
G02*
X91275000Y-80718750I0J-243750D01*
G01*
X91275000Y-81281250D01*
G75*
G02*
X91031250Y-81525000I-243750J0D01*
G01*
X90543750Y-81525000D01*
G75*
G02*
X90300000Y-81281250I0J243750D01*
G01*
G37*
G36*
G01*
X88725000Y-81281250D02*
X88725000Y-80718750D01*
G75*
G02*
X88968750Y-80475000I243750J0D01*
G01*
X89456250Y-80475000D01*
G75*
G02*
X89700000Y-80718750I0J-243750D01*
G01*
X89700000Y-81281250D01*
G75*
G02*
X89456250Y-81525000I-243750J0D01*
G01*
X88968750Y-81525000D01*
G75*
G02*
X88725000Y-81281250I0J243750D01*
G01*
G37*
%TD*%
%TO.C,R55*%
G36*
G01*
X105300000Y-81281250D02*
X105300000Y-80718750D01*
G75*
G02*
X105543750Y-80475000I243750J0D01*
G01*
X106031250Y-80475000D01*
G75*
G02*
X106275000Y-80718750I0J-243750D01*
G01*
X106275000Y-81281250D01*
G75*
G02*
X106031250Y-81525000I-243750J0D01*
G01*
X105543750Y-81525000D01*
G75*
G02*
X105300000Y-81281250I0J243750D01*
G01*
G37*
G36*
G01*
X103725000Y-81281250D02*
X103725000Y-80718750D01*
G75*
G02*
X103968750Y-80475000I243750J0D01*
G01*
X104456250Y-80475000D01*
G75*
G02*
X104700000Y-80718750I0J-243750D01*
G01*
X104700000Y-81281250D01*
G75*
G02*
X104456250Y-81525000I-243750J0D01*
G01*
X103968750Y-81525000D01*
G75*
G02*
X103725000Y-81281250I0J243750D01*
G01*
G37*
%TD*%
%TO.C,R54*%
G36*
G01*
X75300000Y-78281250D02*
X75300000Y-77718750D01*
G75*
G02*
X75543750Y-77475000I243750J0D01*
G01*
X76031250Y-77475000D01*
G75*
G02*
X76275000Y-77718750I0J-243750D01*
G01*
X76275000Y-78281250D01*
G75*
G02*
X76031250Y-78525000I-243750J0D01*
G01*
X75543750Y-78525000D01*
G75*
G02*
X75300000Y-78281250I0J243750D01*
G01*
G37*
G36*
G01*
X73725000Y-78281250D02*
X73725000Y-77718750D01*
G75*
G02*
X73968750Y-77475000I243750J0D01*
G01*
X74456250Y-77475000D01*
G75*
G02*
X74700000Y-77718750I0J-243750D01*
G01*
X74700000Y-78281250D01*
G75*
G02*
X74456250Y-78525000I-243750J0D01*
G01*
X73968750Y-78525000D01*
G75*
G02*
X73725000Y-78281250I0J243750D01*
G01*
G37*
%TD*%
%TO.C,R53*%
G36*
G01*
X90300000Y-78481250D02*
X90300000Y-77918750D01*
G75*
G02*
X90543750Y-77675000I243750J0D01*
G01*
X91031250Y-77675000D01*
G75*
G02*
X91275000Y-77918750I0J-243750D01*
G01*
X91275000Y-78481250D01*
G75*
G02*
X91031250Y-78725000I-243750J0D01*
G01*
X90543750Y-78725000D01*
G75*
G02*
X90300000Y-78481250I0J243750D01*
G01*
G37*
G36*
G01*
X88725000Y-78481250D02*
X88725000Y-77918750D01*
G75*
G02*
X88968750Y-77675000I243750J0D01*
G01*
X89456250Y-77675000D01*
G75*
G02*
X89700000Y-77918750I0J-243750D01*
G01*
X89700000Y-78481250D01*
G75*
G02*
X89456250Y-78725000I-243750J0D01*
G01*
X88968750Y-78725000D01*
G75*
G02*
X88725000Y-78481250I0J243750D01*
G01*
G37*
%TD*%
%TO.C,R52*%
G36*
G01*
X105300000Y-78281250D02*
X105300000Y-77718750D01*
G75*
G02*
X105543750Y-77475000I243750J0D01*
G01*
X106031250Y-77475000D01*
G75*
G02*
X106275000Y-77718750I0J-243750D01*
G01*
X106275000Y-78281250D01*
G75*
G02*
X106031250Y-78525000I-243750J0D01*
G01*
X105543750Y-78525000D01*
G75*
G02*
X105300000Y-78281250I0J243750D01*
G01*
G37*
G36*
G01*
X103725000Y-78281250D02*
X103725000Y-77718750D01*
G75*
G02*
X103968750Y-77475000I243750J0D01*
G01*
X104456250Y-77475000D01*
G75*
G02*
X104700000Y-77718750I0J-243750D01*
G01*
X104700000Y-78281250D01*
G75*
G02*
X104456250Y-78525000I-243750J0D01*
G01*
X103968750Y-78525000D01*
G75*
G02*
X103725000Y-78281250I0J243750D01*
G01*
G37*
%TD*%
%TO.C,R51*%
G36*
G01*
X75300000Y-75281250D02*
X75300000Y-74718750D01*
G75*
G02*
X75543750Y-74475000I243750J0D01*
G01*
X76031250Y-74475000D01*
G75*
G02*
X76275000Y-74718750I0J-243750D01*
G01*
X76275000Y-75281250D01*
G75*
G02*
X76031250Y-75525000I-243750J0D01*
G01*
X75543750Y-75525000D01*
G75*
G02*
X75300000Y-75281250I0J243750D01*
G01*
G37*
G36*
G01*
X73725000Y-75281250D02*
X73725000Y-74718750D01*
G75*
G02*
X73968750Y-74475000I243750J0D01*
G01*
X74456250Y-74475000D01*
G75*
G02*
X74700000Y-74718750I0J-243750D01*
G01*
X74700000Y-75281250D01*
G75*
G02*
X74456250Y-75525000I-243750J0D01*
G01*
X73968750Y-75525000D01*
G75*
G02*
X73725000Y-75281250I0J243750D01*
G01*
G37*
%TD*%
%TO.C,R50*%
G36*
G01*
X90300000Y-75281250D02*
X90300000Y-74718750D01*
G75*
G02*
X90543750Y-74475000I243750J0D01*
G01*
X91031250Y-74475000D01*
G75*
G02*
X91275000Y-74718750I0J-243750D01*
G01*
X91275000Y-75281250D01*
G75*
G02*
X91031250Y-75525000I-243750J0D01*
G01*
X90543750Y-75525000D01*
G75*
G02*
X90300000Y-75281250I0J243750D01*
G01*
G37*
G36*
G01*
X88725000Y-75281250D02*
X88725000Y-74718750D01*
G75*
G02*
X88968750Y-74475000I243750J0D01*
G01*
X89456250Y-74475000D01*
G75*
G02*
X89700000Y-74718750I0J-243750D01*
G01*
X89700000Y-75281250D01*
G75*
G02*
X89456250Y-75525000I-243750J0D01*
G01*
X88968750Y-75525000D01*
G75*
G02*
X88725000Y-75281250I0J243750D01*
G01*
G37*
%TD*%
%TO.C,R49*%
G36*
G01*
X105300000Y-75281250D02*
X105300000Y-74718750D01*
G75*
G02*
X105543750Y-74475000I243750J0D01*
G01*
X106031250Y-74475000D01*
G75*
G02*
X106275000Y-74718750I0J-243750D01*
G01*
X106275000Y-75281250D01*
G75*
G02*
X106031250Y-75525000I-243750J0D01*
G01*
X105543750Y-75525000D01*
G75*
G02*
X105300000Y-75281250I0J243750D01*
G01*
G37*
G36*
G01*
X103725000Y-75281250D02*
X103725000Y-74718750D01*
G75*
G02*
X103968750Y-74475000I243750J0D01*
G01*
X104456250Y-74475000D01*
G75*
G02*
X104700000Y-74718750I0J-243750D01*
G01*
X104700000Y-75281250D01*
G75*
G02*
X104456250Y-75525000I-243750J0D01*
G01*
X103968750Y-75525000D01*
G75*
G02*
X103725000Y-75281250I0J243750D01*
G01*
G37*
%TD*%
%TO.C,R48*%
G36*
G01*
X75300000Y-72281250D02*
X75300000Y-71718750D01*
G75*
G02*
X75543750Y-71475000I243750J0D01*
G01*
X76031250Y-71475000D01*
G75*
G02*
X76275000Y-71718750I0J-243750D01*
G01*
X76275000Y-72281250D01*
G75*
G02*
X76031250Y-72525000I-243750J0D01*
G01*
X75543750Y-72525000D01*
G75*
G02*
X75300000Y-72281250I0J243750D01*
G01*
G37*
G36*
G01*
X73725000Y-72281250D02*
X73725000Y-71718750D01*
G75*
G02*
X73968750Y-71475000I243750J0D01*
G01*
X74456250Y-71475000D01*
G75*
G02*
X74700000Y-71718750I0J-243750D01*
G01*
X74700000Y-72281250D01*
G75*
G02*
X74456250Y-72525000I-243750J0D01*
G01*
X73968750Y-72525000D01*
G75*
G02*
X73725000Y-72281250I0J243750D01*
G01*
G37*
%TD*%
%TO.C,R47*%
G36*
G01*
X90300000Y-72281250D02*
X90300000Y-71718750D01*
G75*
G02*
X90543750Y-71475000I243750J0D01*
G01*
X91031250Y-71475000D01*
G75*
G02*
X91275000Y-71718750I0J-243750D01*
G01*
X91275000Y-72281250D01*
G75*
G02*
X91031250Y-72525000I-243750J0D01*
G01*
X90543750Y-72525000D01*
G75*
G02*
X90300000Y-72281250I0J243750D01*
G01*
G37*
G36*
G01*
X88725000Y-72281250D02*
X88725000Y-71718750D01*
G75*
G02*
X88968750Y-71475000I243750J0D01*
G01*
X89456250Y-71475000D01*
G75*
G02*
X89700000Y-71718750I0J-243750D01*
G01*
X89700000Y-72281250D01*
G75*
G02*
X89456250Y-72525000I-243750J0D01*
G01*
X88968750Y-72525000D01*
G75*
G02*
X88725000Y-72281250I0J243750D01*
G01*
G37*
%TD*%
%TO.C,R46*%
G36*
G01*
X105300000Y-72281250D02*
X105300000Y-71718750D01*
G75*
G02*
X105543750Y-71475000I243750J0D01*
G01*
X106031250Y-71475000D01*
G75*
G02*
X106275000Y-71718750I0J-243750D01*
G01*
X106275000Y-72281250D01*
G75*
G02*
X106031250Y-72525000I-243750J0D01*
G01*
X105543750Y-72525000D01*
G75*
G02*
X105300000Y-72281250I0J243750D01*
G01*
G37*
G36*
G01*
X103725000Y-72281250D02*
X103725000Y-71718750D01*
G75*
G02*
X103968750Y-71475000I243750J0D01*
G01*
X104456250Y-71475000D01*
G75*
G02*
X104700000Y-71718750I0J-243750D01*
G01*
X104700000Y-72281250D01*
G75*
G02*
X104456250Y-72525000I-243750J0D01*
G01*
X103968750Y-72525000D01*
G75*
G02*
X103725000Y-72281250I0J243750D01*
G01*
G37*
%TD*%
%TO.C,R45*%
G36*
G01*
X75300000Y-69281250D02*
X75300000Y-68718750D01*
G75*
G02*
X75543750Y-68475000I243750J0D01*
G01*
X76031250Y-68475000D01*
G75*
G02*
X76275000Y-68718750I0J-243750D01*
G01*
X76275000Y-69281250D01*
G75*
G02*
X76031250Y-69525000I-243750J0D01*
G01*
X75543750Y-69525000D01*
G75*
G02*
X75300000Y-69281250I0J243750D01*
G01*
G37*
G36*
G01*
X73725000Y-69281250D02*
X73725000Y-68718750D01*
G75*
G02*
X73968750Y-68475000I243750J0D01*
G01*
X74456250Y-68475000D01*
G75*
G02*
X74700000Y-68718750I0J-243750D01*
G01*
X74700000Y-69281250D01*
G75*
G02*
X74456250Y-69525000I-243750J0D01*
G01*
X73968750Y-69525000D01*
G75*
G02*
X73725000Y-69281250I0J243750D01*
G01*
G37*
%TD*%
%TO.C,R44*%
G36*
G01*
X90300000Y-69281250D02*
X90300000Y-68718750D01*
G75*
G02*
X90543750Y-68475000I243750J0D01*
G01*
X91031250Y-68475000D01*
G75*
G02*
X91275000Y-68718750I0J-243750D01*
G01*
X91275000Y-69281250D01*
G75*
G02*
X91031250Y-69525000I-243750J0D01*
G01*
X90543750Y-69525000D01*
G75*
G02*
X90300000Y-69281250I0J243750D01*
G01*
G37*
G36*
G01*
X88725000Y-69281250D02*
X88725000Y-68718750D01*
G75*
G02*
X88968750Y-68475000I243750J0D01*
G01*
X89456250Y-68475000D01*
G75*
G02*
X89700000Y-68718750I0J-243750D01*
G01*
X89700000Y-69281250D01*
G75*
G02*
X89456250Y-69525000I-243750J0D01*
G01*
X88968750Y-69525000D01*
G75*
G02*
X88725000Y-69281250I0J243750D01*
G01*
G37*
%TD*%
%TO.C,R43*%
G36*
G01*
X105300000Y-69281250D02*
X105300000Y-68718750D01*
G75*
G02*
X105543750Y-68475000I243750J0D01*
G01*
X106031250Y-68475000D01*
G75*
G02*
X106275000Y-68718750I0J-243750D01*
G01*
X106275000Y-69281250D01*
G75*
G02*
X106031250Y-69525000I-243750J0D01*
G01*
X105543750Y-69525000D01*
G75*
G02*
X105300000Y-69281250I0J243750D01*
G01*
G37*
G36*
G01*
X103725000Y-69281250D02*
X103725000Y-68718750D01*
G75*
G02*
X103968750Y-68475000I243750J0D01*
G01*
X104456250Y-68475000D01*
G75*
G02*
X104700000Y-68718750I0J-243750D01*
G01*
X104700000Y-69281250D01*
G75*
G02*
X104456250Y-69525000I-243750J0D01*
G01*
X103968750Y-69525000D01*
G75*
G02*
X103725000Y-69281250I0J243750D01*
G01*
G37*
%TD*%
%TO.C,R42*%
G36*
G01*
X75300000Y-66281250D02*
X75300000Y-65718750D01*
G75*
G02*
X75543750Y-65475000I243750J0D01*
G01*
X76031250Y-65475000D01*
G75*
G02*
X76275000Y-65718750I0J-243750D01*
G01*
X76275000Y-66281250D01*
G75*
G02*
X76031250Y-66525000I-243750J0D01*
G01*
X75543750Y-66525000D01*
G75*
G02*
X75300000Y-66281250I0J243750D01*
G01*
G37*
G36*
G01*
X73725000Y-66281250D02*
X73725000Y-65718750D01*
G75*
G02*
X73968750Y-65475000I243750J0D01*
G01*
X74456250Y-65475000D01*
G75*
G02*
X74700000Y-65718750I0J-243750D01*
G01*
X74700000Y-66281250D01*
G75*
G02*
X74456250Y-66525000I-243750J0D01*
G01*
X73968750Y-66525000D01*
G75*
G02*
X73725000Y-66281250I0J243750D01*
G01*
G37*
%TD*%
%TO.C,R41*%
G36*
G01*
X90300000Y-66281250D02*
X90300000Y-65718750D01*
G75*
G02*
X90543750Y-65475000I243750J0D01*
G01*
X91031250Y-65475000D01*
G75*
G02*
X91275000Y-65718750I0J-243750D01*
G01*
X91275000Y-66281250D01*
G75*
G02*
X91031250Y-66525000I-243750J0D01*
G01*
X90543750Y-66525000D01*
G75*
G02*
X90300000Y-66281250I0J243750D01*
G01*
G37*
G36*
G01*
X88725000Y-66281250D02*
X88725000Y-65718750D01*
G75*
G02*
X88968750Y-65475000I243750J0D01*
G01*
X89456250Y-65475000D01*
G75*
G02*
X89700000Y-65718750I0J-243750D01*
G01*
X89700000Y-66281250D01*
G75*
G02*
X89456250Y-66525000I-243750J0D01*
G01*
X88968750Y-66525000D01*
G75*
G02*
X88725000Y-66281250I0J243750D01*
G01*
G37*
%TD*%
%TO.C,R40*%
G36*
G01*
X105300000Y-66281250D02*
X105300000Y-65718750D01*
G75*
G02*
X105543750Y-65475000I243750J0D01*
G01*
X106031250Y-65475000D01*
G75*
G02*
X106275000Y-65718750I0J-243750D01*
G01*
X106275000Y-66281250D01*
G75*
G02*
X106031250Y-66525000I-243750J0D01*
G01*
X105543750Y-66525000D01*
G75*
G02*
X105300000Y-66281250I0J243750D01*
G01*
G37*
G36*
G01*
X103725000Y-66281250D02*
X103725000Y-65718750D01*
G75*
G02*
X103968750Y-65475000I243750J0D01*
G01*
X104456250Y-65475000D01*
G75*
G02*
X104700000Y-65718750I0J-243750D01*
G01*
X104700000Y-66281250D01*
G75*
G02*
X104456250Y-66525000I-243750J0D01*
G01*
X103968750Y-66525000D01*
G75*
G02*
X103725000Y-66281250I0J243750D01*
G01*
G37*
%TD*%
%TO.C,R39*%
G36*
G01*
X75300000Y-63281250D02*
X75300000Y-62718750D01*
G75*
G02*
X75543750Y-62475000I243750J0D01*
G01*
X76031250Y-62475000D01*
G75*
G02*
X76275000Y-62718750I0J-243750D01*
G01*
X76275000Y-63281250D01*
G75*
G02*
X76031250Y-63525000I-243750J0D01*
G01*
X75543750Y-63525000D01*
G75*
G02*
X75300000Y-63281250I0J243750D01*
G01*
G37*
G36*
G01*
X73725000Y-63281250D02*
X73725000Y-62718750D01*
G75*
G02*
X73968750Y-62475000I243750J0D01*
G01*
X74456250Y-62475000D01*
G75*
G02*
X74700000Y-62718750I0J-243750D01*
G01*
X74700000Y-63281250D01*
G75*
G02*
X74456250Y-63525000I-243750J0D01*
G01*
X73968750Y-63525000D01*
G75*
G02*
X73725000Y-63281250I0J243750D01*
G01*
G37*
%TD*%
%TO.C,R38*%
G36*
G01*
X90300000Y-63281250D02*
X90300000Y-62718750D01*
G75*
G02*
X90543750Y-62475000I243750J0D01*
G01*
X91031250Y-62475000D01*
G75*
G02*
X91275000Y-62718750I0J-243750D01*
G01*
X91275000Y-63281250D01*
G75*
G02*
X91031250Y-63525000I-243750J0D01*
G01*
X90543750Y-63525000D01*
G75*
G02*
X90300000Y-63281250I0J243750D01*
G01*
G37*
G36*
G01*
X88725000Y-63281250D02*
X88725000Y-62718750D01*
G75*
G02*
X88968750Y-62475000I243750J0D01*
G01*
X89456250Y-62475000D01*
G75*
G02*
X89700000Y-62718750I0J-243750D01*
G01*
X89700000Y-63281250D01*
G75*
G02*
X89456250Y-63525000I-243750J0D01*
G01*
X88968750Y-63525000D01*
G75*
G02*
X88725000Y-63281250I0J243750D01*
G01*
G37*
%TD*%
%TO.C,R37*%
G36*
G01*
X105300000Y-63281250D02*
X105300000Y-62718750D01*
G75*
G02*
X105543750Y-62475000I243750J0D01*
G01*
X106031250Y-62475000D01*
G75*
G02*
X106275000Y-62718750I0J-243750D01*
G01*
X106275000Y-63281250D01*
G75*
G02*
X106031250Y-63525000I-243750J0D01*
G01*
X105543750Y-63525000D01*
G75*
G02*
X105300000Y-63281250I0J243750D01*
G01*
G37*
G36*
G01*
X103725000Y-63281250D02*
X103725000Y-62718750D01*
G75*
G02*
X103968750Y-62475000I243750J0D01*
G01*
X104456250Y-62475000D01*
G75*
G02*
X104700000Y-62718750I0J-243750D01*
G01*
X104700000Y-63281250D01*
G75*
G02*
X104456250Y-63525000I-243750J0D01*
G01*
X103968750Y-63525000D01*
G75*
G02*
X103725000Y-63281250I0J243750D01*
G01*
G37*
%TD*%
%TO.C,R36*%
G36*
G01*
X75300000Y-60281250D02*
X75300000Y-59718750D01*
G75*
G02*
X75543750Y-59475000I243750J0D01*
G01*
X76031250Y-59475000D01*
G75*
G02*
X76275000Y-59718750I0J-243750D01*
G01*
X76275000Y-60281250D01*
G75*
G02*
X76031250Y-60525000I-243750J0D01*
G01*
X75543750Y-60525000D01*
G75*
G02*
X75300000Y-60281250I0J243750D01*
G01*
G37*
G36*
G01*
X73725000Y-60281250D02*
X73725000Y-59718750D01*
G75*
G02*
X73968750Y-59475000I243750J0D01*
G01*
X74456250Y-59475000D01*
G75*
G02*
X74700000Y-59718750I0J-243750D01*
G01*
X74700000Y-60281250D01*
G75*
G02*
X74456250Y-60525000I-243750J0D01*
G01*
X73968750Y-60525000D01*
G75*
G02*
X73725000Y-60281250I0J243750D01*
G01*
G37*
%TD*%
%TO.C,R35*%
G36*
G01*
X90300000Y-60281250D02*
X90300000Y-59718750D01*
G75*
G02*
X90543750Y-59475000I243750J0D01*
G01*
X91031250Y-59475000D01*
G75*
G02*
X91275000Y-59718750I0J-243750D01*
G01*
X91275000Y-60281250D01*
G75*
G02*
X91031250Y-60525000I-243750J0D01*
G01*
X90543750Y-60525000D01*
G75*
G02*
X90300000Y-60281250I0J243750D01*
G01*
G37*
G36*
G01*
X88725000Y-60281250D02*
X88725000Y-59718750D01*
G75*
G02*
X88968750Y-59475000I243750J0D01*
G01*
X89456250Y-59475000D01*
G75*
G02*
X89700000Y-59718750I0J-243750D01*
G01*
X89700000Y-60281250D01*
G75*
G02*
X89456250Y-60525000I-243750J0D01*
G01*
X88968750Y-60525000D01*
G75*
G02*
X88725000Y-60281250I0J243750D01*
G01*
G37*
%TD*%
%TO.C,R34*%
G36*
G01*
X105300000Y-60281250D02*
X105300000Y-59718750D01*
G75*
G02*
X105543750Y-59475000I243750J0D01*
G01*
X106031250Y-59475000D01*
G75*
G02*
X106275000Y-59718750I0J-243750D01*
G01*
X106275000Y-60281250D01*
G75*
G02*
X106031250Y-60525000I-243750J0D01*
G01*
X105543750Y-60525000D01*
G75*
G02*
X105300000Y-60281250I0J243750D01*
G01*
G37*
G36*
G01*
X103725000Y-60281250D02*
X103725000Y-59718750D01*
G75*
G02*
X103968750Y-59475000I243750J0D01*
G01*
X104456250Y-59475000D01*
G75*
G02*
X104700000Y-59718750I0J-243750D01*
G01*
X104700000Y-60281250D01*
G75*
G02*
X104456250Y-60525000I-243750J0D01*
G01*
X103968750Y-60525000D01*
G75*
G02*
X103725000Y-60281250I0J243750D01*
G01*
G37*
%TD*%
%TO.C,R33*%
G36*
G01*
X120300000Y-81281250D02*
X120300000Y-80718750D01*
G75*
G02*
X120543750Y-80475000I243750J0D01*
G01*
X121031250Y-80475000D01*
G75*
G02*
X121275000Y-80718750I0J-243750D01*
G01*
X121275000Y-81281250D01*
G75*
G02*
X121031250Y-81525000I-243750J0D01*
G01*
X120543750Y-81525000D01*
G75*
G02*
X120300000Y-81281250I0J243750D01*
G01*
G37*
G36*
G01*
X118725000Y-81281250D02*
X118725000Y-80718750D01*
G75*
G02*
X118968750Y-80475000I243750J0D01*
G01*
X119456250Y-80475000D01*
G75*
G02*
X119700000Y-80718750I0J-243750D01*
G01*
X119700000Y-81281250D01*
G75*
G02*
X119456250Y-81525000I-243750J0D01*
G01*
X118968750Y-81525000D01*
G75*
G02*
X118725000Y-81281250I0J243750D01*
G01*
G37*
%TD*%
%TO.C,R32*%
G36*
G01*
X133725000Y-81281250D02*
X133725000Y-80718750D01*
G75*
G02*
X133968750Y-80475000I243750J0D01*
G01*
X134456250Y-80475000D01*
G75*
G02*
X134700000Y-80718750I0J-243750D01*
G01*
X134700000Y-81281250D01*
G75*
G02*
X134456250Y-81525000I-243750J0D01*
G01*
X133968750Y-81525000D01*
G75*
G02*
X133725000Y-81281250I0J243750D01*
G01*
G37*
G36*
G01*
X135300000Y-81281250D02*
X135300000Y-80718750D01*
G75*
G02*
X135543750Y-80475000I243750J0D01*
G01*
X136031250Y-80475000D01*
G75*
G02*
X136275000Y-80718750I0J-243750D01*
G01*
X136275000Y-81281250D01*
G75*
G02*
X136031250Y-81525000I-243750J0D01*
G01*
X135543750Y-81525000D01*
G75*
G02*
X135300000Y-81281250I0J243750D01*
G01*
G37*
%TD*%
%TO.C,R31*%
G36*
G01*
X120300000Y-78281250D02*
X120300000Y-77718750D01*
G75*
G02*
X120543750Y-77475000I243750J0D01*
G01*
X121031250Y-77475000D01*
G75*
G02*
X121275000Y-77718750I0J-243750D01*
G01*
X121275000Y-78281250D01*
G75*
G02*
X121031250Y-78525000I-243750J0D01*
G01*
X120543750Y-78525000D01*
G75*
G02*
X120300000Y-78281250I0J243750D01*
G01*
G37*
G36*
G01*
X118725000Y-78281250D02*
X118725000Y-77718750D01*
G75*
G02*
X118968750Y-77475000I243750J0D01*
G01*
X119456250Y-77475000D01*
G75*
G02*
X119700000Y-77718750I0J-243750D01*
G01*
X119700000Y-78281250D01*
G75*
G02*
X119456250Y-78525000I-243750J0D01*
G01*
X118968750Y-78525000D01*
G75*
G02*
X118725000Y-78281250I0J243750D01*
G01*
G37*
%TD*%
%TO.C,R30*%
G36*
G01*
X133725000Y-78281250D02*
X133725000Y-77718750D01*
G75*
G02*
X133968750Y-77475000I243750J0D01*
G01*
X134456250Y-77475000D01*
G75*
G02*
X134700000Y-77718750I0J-243750D01*
G01*
X134700000Y-78281250D01*
G75*
G02*
X134456250Y-78525000I-243750J0D01*
G01*
X133968750Y-78525000D01*
G75*
G02*
X133725000Y-78281250I0J243750D01*
G01*
G37*
G36*
G01*
X135300000Y-78281250D02*
X135300000Y-77718750D01*
G75*
G02*
X135543750Y-77475000I243750J0D01*
G01*
X136031250Y-77475000D01*
G75*
G02*
X136275000Y-77718750I0J-243750D01*
G01*
X136275000Y-78281250D01*
G75*
G02*
X136031250Y-78525000I-243750J0D01*
G01*
X135543750Y-78525000D01*
G75*
G02*
X135300000Y-78281250I0J243750D01*
G01*
G37*
%TD*%
%TO.C,R29*%
G36*
G01*
X120300000Y-75281250D02*
X120300000Y-74718750D01*
G75*
G02*
X120543750Y-74475000I243750J0D01*
G01*
X121031250Y-74475000D01*
G75*
G02*
X121275000Y-74718750I0J-243750D01*
G01*
X121275000Y-75281250D01*
G75*
G02*
X121031250Y-75525000I-243750J0D01*
G01*
X120543750Y-75525000D01*
G75*
G02*
X120300000Y-75281250I0J243750D01*
G01*
G37*
G36*
G01*
X118725000Y-75281250D02*
X118725000Y-74718750D01*
G75*
G02*
X118968750Y-74475000I243750J0D01*
G01*
X119456250Y-74475000D01*
G75*
G02*
X119700000Y-74718750I0J-243750D01*
G01*
X119700000Y-75281250D01*
G75*
G02*
X119456250Y-75525000I-243750J0D01*
G01*
X118968750Y-75525000D01*
G75*
G02*
X118725000Y-75281250I0J243750D01*
G01*
G37*
%TD*%
%TO.C,R28*%
G36*
G01*
X133725000Y-75281250D02*
X133725000Y-74718750D01*
G75*
G02*
X133968750Y-74475000I243750J0D01*
G01*
X134456250Y-74475000D01*
G75*
G02*
X134700000Y-74718750I0J-243750D01*
G01*
X134700000Y-75281250D01*
G75*
G02*
X134456250Y-75525000I-243750J0D01*
G01*
X133968750Y-75525000D01*
G75*
G02*
X133725000Y-75281250I0J243750D01*
G01*
G37*
G36*
G01*
X135300000Y-75281250D02*
X135300000Y-74718750D01*
G75*
G02*
X135543750Y-74475000I243750J0D01*
G01*
X136031250Y-74475000D01*
G75*
G02*
X136275000Y-74718750I0J-243750D01*
G01*
X136275000Y-75281250D01*
G75*
G02*
X136031250Y-75525000I-243750J0D01*
G01*
X135543750Y-75525000D01*
G75*
G02*
X135300000Y-75281250I0J243750D01*
G01*
G37*
%TD*%
%TO.C,R27*%
G36*
G01*
X120300000Y-72281250D02*
X120300000Y-71718750D01*
G75*
G02*
X120543750Y-71475000I243750J0D01*
G01*
X121031250Y-71475000D01*
G75*
G02*
X121275000Y-71718750I0J-243750D01*
G01*
X121275000Y-72281250D01*
G75*
G02*
X121031250Y-72525000I-243750J0D01*
G01*
X120543750Y-72525000D01*
G75*
G02*
X120300000Y-72281250I0J243750D01*
G01*
G37*
G36*
G01*
X118725000Y-72281250D02*
X118725000Y-71718750D01*
G75*
G02*
X118968750Y-71475000I243750J0D01*
G01*
X119456250Y-71475000D01*
G75*
G02*
X119700000Y-71718750I0J-243750D01*
G01*
X119700000Y-72281250D01*
G75*
G02*
X119456250Y-72525000I-243750J0D01*
G01*
X118968750Y-72525000D01*
G75*
G02*
X118725000Y-72281250I0J243750D01*
G01*
G37*
%TD*%
%TO.C,R26*%
G36*
G01*
X133725000Y-72281250D02*
X133725000Y-71718750D01*
G75*
G02*
X133968750Y-71475000I243750J0D01*
G01*
X134456250Y-71475000D01*
G75*
G02*
X134700000Y-71718750I0J-243750D01*
G01*
X134700000Y-72281250D01*
G75*
G02*
X134456250Y-72525000I-243750J0D01*
G01*
X133968750Y-72525000D01*
G75*
G02*
X133725000Y-72281250I0J243750D01*
G01*
G37*
G36*
G01*
X135300000Y-72281250D02*
X135300000Y-71718750D01*
G75*
G02*
X135543750Y-71475000I243750J0D01*
G01*
X136031250Y-71475000D01*
G75*
G02*
X136275000Y-71718750I0J-243750D01*
G01*
X136275000Y-72281250D01*
G75*
G02*
X136031250Y-72525000I-243750J0D01*
G01*
X135543750Y-72525000D01*
G75*
G02*
X135300000Y-72281250I0J243750D01*
G01*
G37*
%TD*%
%TO.C,R25*%
G36*
G01*
X120300000Y-69281250D02*
X120300000Y-68718750D01*
G75*
G02*
X120543750Y-68475000I243750J0D01*
G01*
X121031250Y-68475000D01*
G75*
G02*
X121275000Y-68718750I0J-243750D01*
G01*
X121275000Y-69281250D01*
G75*
G02*
X121031250Y-69525000I-243750J0D01*
G01*
X120543750Y-69525000D01*
G75*
G02*
X120300000Y-69281250I0J243750D01*
G01*
G37*
G36*
G01*
X118725000Y-69281250D02*
X118725000Y-68718750D01*
G75*
G02*
X118968750Y-68475000I243750J0D01*
G01*
X119456250Y-68475000D01*
G75*
G02*
X119700000Y-68718750I0J-243750D01*
G01*
X119700000Y-69281250D01*
G75*
G02*
X119456250Y-69525000I-243750J0D01*
G01*
X118968750Y-69525000D01*
G75*
G02*
X118725000Y-69281250I0J243750D01*
G01*
G37*
%TD*%
%TO.C,R24*%
G36*
G01*
X133725000Y-69281250D02*
X133725000Y-68718750D01*
G75*
G02*
X133968750Y-68475000I243750J0D01*
G01*
X134456250Y-68475000D01*
G75*
G02*
X134700000Y-68718750I0J-243750D01*
G01*
X134700000Y-69281250D01*
G75*
G02*
X134456250Y-69525000I-243750J0D01*
G01*
X133968750Y-69525000D01*
G75*
G02*
X133725000Y-69281250I0J243750D01*
G01*
G37*
G36*
G01*
X135300000Y-69281250D02*
X135300000Y-68718750D01*
G75*
G02*
X135543750Y-68475000I243750J0D01*
G01*
X136031250Y-68475000D01*
G75*
G02*
X136275000Y-68718750I0J-243750D01*
G01*
X136275000Y-69281250D01*
G75*
G02*
X136031250Y-69525000I-243750J0D01*
G01*
X135543750Y-69525000D01*
G75*
G02*
X135300000Y-69281250I0J243750D01*
G01*
G37*
%TD*%
%TO.C,R23*%
G36*
G01*
X141037500Y-134481250D02*
X141037500Y-133918750D01*
G75*
G02*
X141281250Y-133675000I243750J0D01*
G01*
X141768750Y-133675000D01*
G75*
G02*
X142012500Y-133918750I0J-243750D01*
G01*
X142012500Y-134481250D01*
G75*
G02*
X141768750Y-134725000I-243750J0D01*
G01*
X141281250Y-134725000D01*
G75*
G02*
X141037500Y-134481250I0J243750D01*
G01*
G37*
G36*
G01*
X139462500Y-134481250D02*
X139462500Y-133918750D01*
G75*
G02*
X139706250Y-133675000I243750J0D01*
G01*
X140193750Y-133675000D01*
G75*
G02*
X140437500Y-133918750I0J-243750D01*
G01*
X140437500Y-134481250D01*
G75*
G02*
X140193750Y-134725000I-243750J0D01*
G01*
X139706250Y-134725000D01*
G75*
G02*
X139462500Y-134481250I0J243750D01*
G01*
G37*
%TD*%
%TO.C,R22*%
G36*
G01*
X120300000Y-66281250D02*
X120300000Y-65718750D01*
G75*
G02*
X120543750Y-65475000I243750J0D01*
G01*
X121031250Y-65475000D01*
G75*
G02*
X121275000Y-65718750I0J-243750D01*
G01*
X121275000Y-66281250D01*
G75*
G02*
X121031250Y-66525000I-243750J0D01*
G01*
X120543750Y-66525000D01*
G75*
G02*
X120300000Y-66281250I0J243750D01*
G01*
G37*
G36*
G01*
X118725000Y-66281250D02*
X118725000Y-65718750D01*
G75*
G02*
X118968750Y-65475000I243750J0D01*
G01*
X119456250Y-65475000D01*
G75*
G02*
X119700000Y-65718750I0J-243750D01*
G01*
X119700000Y-66281250D01*
G75*
G02*
X119456250Y-66525000I-243750J0D01*
G01*
X118968750Y-66525000D01*
G75*
G02*
X118725000Y-66281250I0J243750D01*
G01*
G37*
%TD*%
%TO.C,R21*%
G36*
G01*
X133725000Y-66281250D02*
X133725000Y-65718750D01*
G75*
G02*
X133968750Y-65475000I243750J0D01*
G01*
X134456250Y-65475000D01*
G75*
G02*
X134700000Y-65718750I0J-243750D01*
G01*
X134700000Y-66281250D01*
G75*
G02*
X134456250Y-66525000I-243750J0D01*
G01*
X133968750Y-66525000D01*
G75*
G02*
X133725000Y-66281250I0J243750D01*
G01*
G37*
G36*
G01*
X135300000Y-66281250D02*
X135300000Y-65718750D01*
G75*
G02*
X135543750Y-65475000I243750J0D01*
G01*
X136031250Y-65475000D01*
G75*
G02*
X136275000Y-65718750I0J-243750D01*
G01*
X136275000Y-66281250D01*
G75*
G02*
X136031250Y-66525000I-243750J0D01*
G01*
X135543750Y-66525000D01*
G75*
G02*
X135300000Y-66281250I0J243750D01*
G01*
G37*
%TD*%
%TO.C,R20*%
G36*
G01*
X120300000Y-63281250D02*
X120300000Y-62718750D01*
G75*
G02*
X120543750Y-62475000I243750J0D01*
G01*
X121031250Y-62475000D01*
G75*
G02*
X121275000Y-62718750I0J-243750D01*
G01*
X121275000Y-63281250D01*
G75*
G02*
X121031250Y-63525000I-243750J0D01*
G01*
X120543750Y-63525000D01*
G75*
G02*
X120300000Y-63281250I0J243750D01*
G01*
G37*
G36*
G01*
X118725000Y-63281250D02*
X118725000Y-62718750D01*
G75*
G02*
X118968750Y-62475000I243750J0D01*
G01*
X119456250Y-62475000D01*
G75*
G02*
X119700000Y-62718750I0J-243750D01*
G01*
X119700000Y-63281250D01*
G75*
G02*
X119456250Y-63525000I-243750J0D01*
G01*
X118968750Y-63525000D01*
G75*
G02*
X118725000Y-63281250I0J243750D01*
G01*
G37*
%TD*%
%TO.C,R19*%
G36*
G01*
X133725000Y-63281250D02*
X133725000Y-62718750D01*
G75*
G02*
X133968750Y-62475000I243750J0D01*
G01*
X134456250Y-62475000D01*
G75*
G02*
X134700000Y-62718750I0J-243750D01*
G01*
X134700000Y-63281250D01*
G75*
G02*
X134456250Y-63525000I-243750J0D01*
G01*
X133968750Y-63525000D01*
G75*
G02*
X133725000Y-63281250I0J243750D01*
G01*
G37*
G36*
G01*
X135300000Y-63281250D02*
X135300000Y-62718750D01*
G75*
G02*
X135543750Y-62475000I243750J0D01*
G01*
X136031250Y-62475000D01*
G75*
G02*
X136275000Y-62718750I0J-243750D01*
G01*
X136275000Y-63281250D01*
G75*
G02*
X136031250Y-63525000I-243750J0D01*
G01*
X135543750Y-63525000D01*
G75*
G02*
X135300000Y-63281250I0J243750D01*
G01*
G37*
%TD*%
%TO.C,R18*%
G36*
G01*
X120300000Y-60281250D02*
X120300000Y-59718750D01*
G75*
G02*
X120543750Y-59475000I243750J0D01*
G01*
X121031250Y-59475000D01*
G75*
G02*
X121275000Y-59718750I0J-243750D01*
G01*
X121275000Y-60281250D01*
G75*
G02*
X121031250Y-60525000I-243750J0D01*
G01*
X120543750Y-60525000D01*
G75*
G02*
X120300000Y-60281250I0J243750D01*
G01*
G37*
G36*
G01*
X118725000Y-60281250D02*
X118725000Y-59718750D01*
G75*
G02*
X118968750Y-59475000I243750J0D01*
G01*
X119456250Y-59475000D01*
G75*
G02*
X119700000Y-59718750I0J-243750D01*
G01*
X119700000Y-60281250D01*
G75*
G02*
X119456250Y-60525000I-243750J0D01*
G01*
X118968750Y-60525000D01*
G75*
G02*
X118725000Y-60281250I0J243750D01*
G01*
G37*
%TD*%
%TO.C,R17*%
G36*
G01*
X133725000Y-60281250D02*
X133725000Y-59718750D01*
G75*
G02*
X133968750Y-59475000I243750J0D01*
G01*
X134456250Y-59475000D01*
G75*
G02*
X134700000Y-59718750I0J-243750D01*
G01*
X134700000Y-60281250D01*
G75*
G02*
X134456250Y-60525000I-243750J0D01*
G01*
X133968750Y-60525000D01*
G75*
G02*
X133725000Y-60281250I0J243750D01*
G01*
G37*
G36*
G01*
X135300000Y-60281250D02*
X135300000Y-59718750D01*
G75*
G02*
X135543750Y-59475000I243750J0D01*
G01*
X136031250Y-59475000D01*
G75*
G02*
X136275000Y-59718750I0J-243750D01*
G01*
X136275000Y-60281250D01*
G75*
G02*
X136031250Y-60525000I-243750J0D01*
G01*
X135543750Y-60525000D01*
G75*
G02*
X135300000Y-60281250I0J243750D01*
G01*
G37*
%TD*%
%TO.C,R16*%
G36*
G01*
X115300000Y-130281250D02*
X115300000Y-129718750D01*
G75*
G02*
X115543750Y-129475000I243750J0D01*
G01*
X116031250Y-129475000D01*
G75*
G02*
X116275000Y-129718750I0J-243750D01*
G01*
X116275000Y-130281250D01*
G75*
G02*
X116031250Y-130525000I-243750J0D01*
G01*
X115543750Y-130525000D01*
G75*
G02*
X115300000Y-130281250I0J243750D01*
G01*
G37*
G36*
G01*
X113725000Y-130281250D02*
X113725000Y-129718750D01*
G75*
G02*
X113968750Y-129475000I243750J0D01*
G01*
X114456250Y-129475000D01*
G75*
G02*
X114700000Y-129718750I0J-243750D01*
G01*
X114700000Y-130281250D01*
G75*
G02*
X114456250Y-130525000I-243750J0D01*
G01*
X113968750Y-130525000D01*
G75*
G02*
X113725000Y-130281250I0J243750D01*
G01*
G37*
%TD*%
%TO.C,R15*%
G36*
G01*
X115300000Y-134281250D02*
X115300000Y-133718750D01*
G75*
G02*
X115543750Y-133475000I243750J0D01*
G01*
X116031250Y-133475000D01*
G75*
G02*
X116275000Y-133718750I0J-243750D01*
G01*
X116275000Y-134281250D01*
G75*
G02*
X116031250Y-134525000I-243750J0D01*
G01*
X115543750Y-134525000D01*
G75*
G02*
X115300000Y-134281250I0J243750D01*
G01*
G37*
G36*
G01*
X113725000Y-134281250D02*
X113725000Y-133718750D01*
G75*
G02*
X113968750Y-133475000I243750J0D01*
G01*
X114456250Y-133475000D01*
G75*
G02*
X114700000Y-133718750I0J-243750D01*
G01*
X114700000Y-134281250D01*
G75*
G02*
X114456250Y-134525000I-243750J0D01*
G01*
X113968750Y-134525000D01*
G75*
G02*
X113725000Y-134281250I0J243750D01*
G01*
G37*
%TD*%
%TO.C,R14*%
G36*
G01*
X115300000Y-132281250D02*
X115300000Y-131718750D01*
G75*
G02*
X115543750Y-131475000I243750J0D01*
G01*
X116031250Y-131475000D01*
G75*
G02*
X116275000Y-131718750I0J-243750D01*
G01*
X116275000Y-132281250D01*
G75*
G02*
X116031250Y-132525000I-243750J0D01*
G01*
X115543750Y-132525000D01*
G75*
G02*
X115300000Y-132281250I0J243750D01*
G01*
G37*
G36*
G01*
X113725000Y-132281250D02*
X113725000Y-131718750D01*
G75*
G02*
X113968750Y-131475000I243750J0D01*
G01*
X114456250Y-131475000D01*
G75*
G02*
X114700000Y-131718750I0J-243750D01*
G01*
X114700000Y-132281250D01*
G75*
G02*
X114456250Y-132525000I-243750J0D01*
G01*
X113968750Y-132525000D01*
G75*
G02*
X113725000Y-132281250I0J243750D01*
G01*
G37*
%TD*%
%TO.C,R13*%
G36*
G01*
X101812500Y-117381250D02*
X101812500Y-116818750D01*
G75*
G02*
X102056250Y-116575000I243750J0D01*
G01*
X102543750Y-116575000D01*
G75*
G02*
X102787500Y-116818750I0J-243750D01*
G01*
X102787500Y-117381250D01*
G75*
G02*
X102543750Y-117625000I-243750J0D01*
G01*
X102056250Y-117625000D01*
G75*
G02*
X101812500Y-117381250I0J243750D01*
G01*
G37*
G36*
G01*
X100237500Y-117381250D02*
X100237500Y-116818750D01*
G75*
G02*
X100481250Y-116575000I243750J0D01*
G01*
X100968750Y-116575000D01*
G75*
G02*
X101212500Y-116818750I0J-243750D01*
G01*
X101212500Y-117381250D01*
G75*
G02*
X100968750Y-117625000I-243750J0D01*
G01*
X100481250Y-117625000D01*
G75*
G02*
X100237500Y-117381250I0J243750D01*
G01*
G37*
%TD*%
%TO.C,R12*%
G36*
G01*
X63681250Y-129950000D02*
X63118750Y-129950000D01*
G75*
G02*
X62875000Y-129706250I0J243750D01*
G01*
X62875000Y-129218750D01*
G75*
G02*
X63118750Y-128975000I243750J0D01*
G01*
X63681250Y-128975000D01*
G75*
G02*
X63925000Y-129218750I0J-243750D01*
G01*
X63925000Y-129706250D01*
G75*
G02*
X63681250Y-129950000I-243750J0D01*
G01*
G37*
G36*
G01*
X63681250Y-131525000D02*
X63118750Y-131525000D01*
G75*
G02*
X62875000Y-131281250I0J243750D01*
G01*
X62875000Y-130793750D01*
G75*
G02*
X63118750Y-130550000I243750J0D01*
G01*
X63681250Y-130550000D01*
G75*
G02*
X63925000Y-130793750I0J-243750D01*
G01*
X63925000Y-131281250D01*
G75*
G02*
X63681250Y-131525000I-243750J0D01*
G01*
G37*
%TD*%
%TO.C,R11*%
G36*
G01*
X61300000Y-131331250D02*
X61300000Y-130768750D01*
G75*
G02*
X61543750Y-130525000I243750J0D01*
G01*
X62031250Y-130525000D01*
G75*
G02*
X62275000Y-130768750I0J-243750D01*
G01*
X62275000Y-131331250D01*
G75*
G02*
X62031250Y-131575000I-243750J0D01*
G01*
X61543750Y-131575000D01*
G75*
G02*
X61300000Y-131331250I0J243750D01*
G01*
G37*
G36*
G01*
X59725000Y-131331250D02*
X59725000Y-130768750D01*
G75*
G02*
X59968750Y-130525000I243750J0D01*
G01*
X60456250Y-130525000D01*
G75*
G02*
X60700000Y-130768750I0J-243750D01*
G01*
X60700000Y-131331250D01*
G75*
G02*
X60456250Y-131575000I-243750J0D01*
G01*
X59968750Y-131575000D01*
G75*
G02*
X59725000Y-131331250I0J243750D01*
G01*
G37*
%TD*%
%TO.C,R10*%
G36*
G01*
X86912500Y-117381250D02*
X86912500Y-116818750D01*
G75*
G02*
X87156250Y-116575000I243750J0D01*
G01*
X87643750Y-116575000D01*
G75*
G02*
X87887500Y-116818750I0J-243750D01*
G01*
X87887500Y-117381250D01*
G75*
G02*
X87643750Y-117625000I-243750J0D01*
G01*
X87156250Y-117625000D01*
G75*
G02*
X86912500Y-117381250I0J243750D01*
G01*
G37*
G36*
G01*
X85337500Y-117381250D02*
X85337500Y-116818750D01*
G75*
G02*
X85581250Y-116575000I243750J0D01*
G01*
X86068750Y-116575000D01*
G75*
G02*
X86312500Y-116818750I0J-243750D01*
G01*
X86312500Y-117381250D01*
G75*
G02*
X86068750Y-117625000I-243750J0D01*
G01*
X85581250Y-117625000D01*
G75*
G02*
X85337500Y-117381250I0J243750D01*
G01*
G37*
%TD*%
%TO.C,R9*%
G36*
G01*
X68550000Y-132981250D02*
X68550000Y-132418750D01*
G75*
G02*
X68793750Y-132175000I243750J0D01*
G01*
X69281250Y-132175000D01*
G75*
G02*
X69525000Y-132418750I0J-243750D01*
G01*
X69525000Y-132981250D01*
G75*
G02*
X69281250Y-133225000I-243750J0D01*
G01*
X68793750Y-133225000D01*
G75*
G02*
X68550000Y-132981250I0J243750D01*
G01*
G37*
G36*
G01*
X66975000Y-132981250D02*
X66975000Y-132418750D01*
G75*
G02*
X67218750Y-132175000I243750J0D01*
G01*
X67706250Y-132175000D01*
G75*
G02*
X67950000Y-132418750I0J-243750D01*
G01*
X67950000Y-132981250D01*
G75*
G02*
X67706250Y-133225000I-243750J0D01*
G01*
X67218750Y-133225000D01*
G75*
G02*
X66975000Y-132981250I0J243750D01*
G01*
G37*
%TD*%
%TO.C,R8*%
G36*
G01*
X75875000Y-138345000D02*
X75875000Y-139655000D01*
G75*
G02*
X75605000Y-139925000I-270000J0D01*
G01*
X74795000Y-139925000D01*
G75*
G02*
X74525000Y-139655000I0J270000D01*
G01*
X74525000Y-138345000D01*
G75*
G02*
X74795000Y-138075000I270000J0D01*
G01*
X75605000Y-138075000D01*
G75*
G02*
X75875000Y-138345000I0J-270000D01*
G01*
G37*
G36*
G01*
X78675000Y-138345000D02*
X78675000Y-139655000D01*
G75*
G02*
X78405000Y-139925000I-270000J0D01*
G01*
X77595000Y-139925000D01*
G75*
G02*
X77325000Y-139655000I0J270000D01*
G01*
X77325000Y-138345000D01*
G75*
G02*
X77595000Y-138075000I270000J0D01*
G01*
X78405000Y-138075000D01*
G75*
G02*
X78675000Y-138345000I0J-270000D01*
G01*
G37*
%TD*%
%TO.C,R7*%
G36*
G01*
X129187500Y-127118750D02*
X129187500Y-127681250D01*
G75*
G02*
X128943750Y-127925000I-243750J0D01*
G01*
X128456250Y-127925000D01*
G75*
G02*
X128212500Y-127681250I0J243750D01*
G01*
X128212500Y-127118750D01*
G75*
G02*
X128456250Y-126875000I243750J0D01*
G01*
X128943750Y-126875000D01*
G75*
G02*
X129187500Y-127118750I0J-243750D01*
G01*
G37*
G36*
G01*
X130762500Y-127118750D02*
X130762500Y-127681250D01*
G75*
G02*
X130518750Y-127925000I-243750J0D01*
G01*
X130031250Y-127925000D01*
G75*
G02*
X129787500Y-127681250I0J243750D01*
G01*
X129787500Y-127118750D01*
G75*
G02*
X130031250Y-126875000I243750J0D01*
G01*
X130518750Y-126875000D01*
G75*
G02*
X130762500Y-127118750I0J-243750D01*
G01*
G37*
%TD*%
%TO.C,R6*%
G36*
G01*
X129787500Y-125681250D02*
X129787500Y-125118750D01*
G75*
G02*
X130031250Y-124875000I243750J0D01*
G01*
X130518750Y-124875000D01*
G75*
G02*
X130762500Y-125118750I0J-243750D01*
G01*
X130762500Y-125681250D01*
G75*
G02*
X130518750Y-125925000I-243750J0D01*
G01*
X130031250Y-125925000D01*
G75*
G02*
X129787500Y-125681250I0J243750D01*
G01*
G37*
G36*
G01*
X128212500Y-125681250D02*
X128212500Y-125118750D01*
G75*
G02*
X128456250Y-124875000I243750J0D01*
G01*
X128943750Y-124875000D01*
G75*
G02*
X129187500Y-125118750I0J-243750D01*
G01*
X129187500Y-125681250D01*
G75*
G02*
X128943750Y-125925000I-243750J0D01*
G01*
X128456250Y-125925000D01*
G75*
G02*
X128212500Y-125681250I0J243750D01*
G01*
G37*
%TD*%
%TO.C,R5*%
G36*
G01*
X131512500Y-137281250D02*
X131512500Y-136718750D01*
G75*
G02*
X131756250Y-136475000I243750J0D01*
G01*
X132243750Y-136475000D01*
G75*
G02*
X132487500Y-136718750I0J-243750D01*
G01*
X132487500Y-137281250D01*
G75*
G02*
X132243750Y-137525000I-243750J0D01*
G01*
X131756250Y-137525000D01*
G75*
G02*
X131512500Y-137281250I0J243750D01*
G01*
G37*
G36*
G01*
X129937500Y-137281250D02*
X129937500Y-136718750D01*
G75*
G02*
X130181250Y-136475000I243750J0D01*
G01*
X130668750Y-136475000D01*
G75*
G02*
X130912500Y-136718750I0J-243750D01*
G01*
X130912500Y-137281250D01*
G75*
G02*
X130668750Y-137525000I-243750J0D01*
G01*
X130181250Y-137525000D01*
G75*
G02*
X129937500Y-137281250I0J243750D01*
G01*
G37*
%TD*%
%TO.C,R4*%
G36*
G01*
X55500000Y-140631250D02*
X55500000Y-140068750D01*
G75*
G02*
X55743750Y-139825000I243750J0D01*
G01*
X56231250Y-139825000D01*
G75*
G02*
X56475000Y-140068750I0J-243750D01*
G01*
X56475000Y-140631250D01*
G75*
G02*
X56231250Y-140875000I-243750J0D01*
G01*
X55743750Y-140875000D01*
G75*
G02*
X55500000Y-140631250I0J243750D01*
G01*
G37*
G36*
G01*
X53925000Y-140631250D02*
X53925000Y-140068750D01*
G75*
G02*
X54168750Y-139825000I243750J0D01*
G01*
X54656250Y-139825000D01*
G75*
G02*
X54900000Y-140068750I0J-243750D01*
G01*
X54900000Y-140631250D01*
G75*
G02*
X54656250Y-140875000I-243750J0D01*
G01*
X54168750Y-140875000D01*
G75*
G02*
X53925000Y-140631250I0J243750D01*
G01*
G37*
%TD*%
%TO.C,R3*%
G36*
G01*
X54900000Y-141768750D02*
X54900000Y-142331250D01*
G75*
G02*
X54656250Y-142575000I-243750J0D01*
G01*
X54168750Y-142575000D01*
G75*
G02*
X53925000Y-142331250I0J243750D01*
G01*
X53925000Y-141768750D01*
G75*
G02*
X54168750Y-141525000I243750J0D01*
G01*
X54656250Y-141525000D01*
G75*
G02*
X54900000Y-141768750I0J-243750D01*
G01*
G37*
G36*
G01*
X56475000Y-141768750D02*
X56475000Y-142331250D01*
G75*
G02*
X56231250Y-142575000I-243750J0D01*
G01*
X55743750Y-142575000D01*
G75*
G02*
X55500000Y-142331250I0J243750D01*
G01*
X55500000Y-141768750D01*
G75*
G02*
X55743750Y-141525000I243750J0D01*
G01*
X56231250Y-141525000D01*
G75*
G02*
X56475000Y-141768750I0J-243750D01*
G01*
G37*
%TD*%
%TO.C,R2*%
G36*
G01*
X55500000Y-138931250D02*
X55500000Y-138368750D01*
G75*
G02*
X55743750Y-138125000I243750J0D01*
G01*
X56231250Y-138125000D01*
G75*
G02*
X56475000Y-138368750I0J-243750D01*
G01*
X56475000Y-138931250D01*
G75*
G02*
X56231250Y-139175000I-243750J0D01*
G01*
X55743750Y-139175000D01*
G75*
G02*
X55500000Y-138931250I0J243750D01*
G01*
G37*
G36*
G01*
X53925000Y-138931250D02*
X53925000Y-138368750D01*
G75*
G02*
X54168750Y-138125000I243750J0D01*
G01*
X54656250Y-138125000D01*
G75*
G02*
X54900000Y-138368750I0J-243750D01*
G01*
X54900000Y-138931250D01*
G75*
G02*
X54656250Y-139175000I-243750J0D01*
G01*
X54168750Y-139175000D01*
G75*
G02*
X53925000Y-138931250I0J243750D01*
G01*
G37*
%TD*%
%TO.C,R1*%
G36*
G01*
X130912500Y-138368750D02*
X130912500Y-138931250D01*
G75*
G02*
X130668750Y-139175000I-243750J0D01*
G01*
X130181250Y-139175000D01*
G75*
G02*
X129937500Y-138931250I0J243750D01*
G01*
X129937500Y-138368750D01*
G75*
G02*
X130181250Y-138125000I243750J0D01*
G01*
X130668750Y-138125000D01*
G75*
G02*
X130912500Y-138368750I0J-243750D01*
G01*
G37*
G36*
G01*
X132487500Y-138368750D02*
X132487500Y-138931250D01*
G75*
G02*
X132243750Y-139175000I-243750J0D01*
G01*
X131756250Y-139175000D01*
G75*
G02*
X131512500Y-138931250I0J243750D01*
G01*
X131512500Y-138368750D01*
G75*
G02*
X131756250Y-138125000I243750J0D01*
G01*
X132243750Y-138125000D01*
G75*
G02*
X132487500Y-138368750I0J-243750D01*
G01*
G37*
%TD*%
D19*
%TO.C,L1*%
X101240000Y-145000000D03*
D20*
X98700000Y-145000000D03*
%TD*%
D19*
%TO.C,J4*%
X106580000Y-127400000D03*
X109120000Y-127400000D03*
X111660000Y-127400000D03*
D20*
X114200000Y-127400000D03*
%TD*%
D19*
%TO.C,J3*%
X134000000Y-113920000D03*
X134000000Y-116460000D03*
X134000000Y-119000000D03*
X134000000Y-121540000D03*
D20*
X134000000Y-124080000D03*
%TD*%
D19*
%TO.C,J1*%
X94100000Y-140340000D03*
D20*
X94100000Y-137800000D03*
%TD*%
%TO.C,FB1*%
G36*
G01*
X81512500Y-139281250D02*
X81512500Y-138718750D01*
G75*
G02*
X81756250Y-138475000I243750J0D01*
G01*
X82243750Y-138475000D01*
G75*
G02*
X82487500Y-138718750I0J-243750D01*
G01*
X82487500Y-139281250D01*
G75*
G02*
X82243750Y-139525000I-243750J0D01*
G01*
X81756250Y-139525000D01*
G75*
G02*
X81512500Y-139281250I0J243750D01*
G01*
G37*
G36*
G01*
X79937500Y-139281250D02*
X79937500Y-138718750D01*
G75*
G02*
X80181250Y-138475000I243750J0D01*
G01*
X80668750Y-138475000D01*
G75*
G02*
X80912500Y-138718750I0J-243750D01*
G01*
X80912500Y-139281250D01*
G75*
G02*
X80668750Y-139525000I-243750J0D01*
G01*
X80181250Y-139525000D01*
G75*
G02*
X79937500Y-139281250I0J243750D01*
G01*
G37*
%TD*%
%TO.C,D47*%
G36*
G01*
X69850000Y-80762500D02*
X69850000Y-81237500D01*
G75*
G02*
X69612500Y-81475000I-237500J0D01*
G01*
X68762500Y-81475000D01*
G75*
G02*
X68525000Y-81237500I0J237500D01*
G01*
X68525000Y-80762500D01*
G75*
G02*
X68762500Y-80525000I237500J0D01*
G01*
X69612500Y-80525000D01*
G75*
G02*
X69850000Y-80762500I0J-237500D01*
G01*
G37*
G36*
G01*
X71475000Y-80762500D02*
X71475000Y-81237500D01*
G75*
G02*
X71237500Y-81475000I-237500J0D01*
G01*
X70387500Y-81475000D01*
G75*
G02*
X70150000Y-81237500I0J237500D01*
G01*
X70150000Y-80762500D01*
G75*
G02*
X70387500Y-80525000I237500J0D01*
G01*
X71237500Y-80525000D01*
G75*
G02*
X71475000Y-80762500I0J-237500D01*
G01*
G37*
%TD*%
%TO.C,D46*%
G36*
G01*
X84850000Y-80762500D02*
X84850000Y-81237500D01*
G75*
G02*
X84612500Y-81475000I-237500J0D01*
G01*
X83762500Y-81475000D01*
G75*
G02*
X83525000Y-81237500I0J237500D01*
G01*
X83525000Y-80762500D01*
G75*
G02*
X83762500Y-80525000I237500J0D01*
G01*
X84612500Y-80525000D01*
G75*
G02*
X84850000Y-80762500I0J-237500D01*
G01*
G37*
G36*
G01*
X86475000Y-80762500D02*
X86475000Y-81237500D01*
G75*
G02*
X86237500Y-81475000I-237500J0D01*
G01*
X85387500Y-81475000D01*
G75*
G02*
X85150000Y-81237500I0J237500D01*
G01*
X85150000Y-80762500D01*
G75*
G02*
X85387500Y-80525000I237500J0D01*
G01*
X86237500Y-80525000D01*
G75*
G02*
X86475000Y-80762500I0J-237500D01*
G01*
G37*
%TD*%
%TO.C,D45*%
G36*
G01*
X99850000Y-80762500D02*
X99850000Y-81237500D01*
G75*
G02*
X99612500Y-81475000I-237500J0D01*
G01*
X98762500Y-81475000D01*
G75*
G02*
X98525000Y-81237500I0J237500D01*
G01*
X98525000Y-80762500D01*
G75*
G02*
X98762500Y-80525000I237500J0D01*
G01*
X99612500Y-80525000D01*
G75*
G02*
X99850000Y-80762500I0J-237500D01*
G01*
G37*
G36*
G01*
X101475000Y-80762500D02*
X101475000Y-81237500D01*
G75*
G02*
X101237500Y-81475000I-237500J0D01*
G01*
X100387500Y-81475000D01*
G75*
G02*
X100150000Y-81237500I0J237500D01*
G01*
X100150000Y-80762500D01*
G75*
G02*
X100387500Y-80525000I237500J0D01*
G01*
X101237500Y-80525000D01*
G75*
G02*
X101475000Y-80762500I0J-237500D01*
G01*
G37*
%TD*%
%TO.C,D44*%
G36*
G01*
X69850000Y-77762500D02*
X69850000Y-78237500D01*
G75*
G02*
X69612500Y-78475000I-237500J0D01*
G01*
X68762500Y-78475000D01*
G75*
G02*
X68525000Y-78237500I0J237500D01*
G01*
X68525000Y-77762500D01*
G75*
G02*
X68762500Y-77525000I237500J0D01*
G01*
X69612500Y-77525000D01*
G75*
G02*
X69850000Y-77762500I0J-237500D01*
G01*
G37*
G36*
G01*
X71475000Y-77762500D02*
X71475000Y-78237500D01*
G75*
G02*
X71237500Y-78475000I-237500J0D01*
G01*
X70387500Y-78475000D01*
G75*
G02*
X70150000Y-78237500I0J237500D01*
G01*
X70150000Y-77762500D01*
G75*
G02*
X70387500Y-77525000I237500J0D01*
G01*
X71237500Y-77525000D01*
G75*
G02*
X71475000Y-77762500I0J-237500D01*
G01*
G37*
%TD*%
%TO.C,D43*%
G36*
G01*
X84850000Y-77762500D02*
X84850000Y-78237500D01*
G75*
G02*
X84612500Y-78475000I-237500J0D01*
G01*
X83762500Y-78475000D01*
G75*
G02*
X83525000Y-78237500I0J237500D01*
G01*
X83525000Y-77762500D01*
G75*
G02*
X83762500Y-77525000I237500J0D01*
G01*
X84612500Y-77525000D01*
G75*
G02*
X84850000Y-77762500I0J-237500D01*
G01*
G37*
G36*
G01*
X86475000Y-77762500D02*
X86475000Y-78237500D01*
G75*
G02*
X86237500Y-78475000I-237500J0D01*
G01*
X85387500Y-78475000D01*
G75*
G02*
X85150000Y-78237500I0J237500D01*
G01*
X85150000Y-77762500D01*
G75*
G02*
X85387500Y-77525000I237500J0D01*
G01*
X86237500Y-77525000D01*
G75*
G02*
X86475000Y-77762500I0J-237500D01*
G01*
G37*
%TD*%
%TO.C,D42*%
G36*
G01*
X99850000Y-77762500D02*
X99850000Y-78237500D01*
G75*
G02*
X99612500Y-78475000I-237500J0D01*
G01*
X98762500Y-78475000D01*
G75*
G02*
X98525000Y-78237500I0J237500D01*
G01*
X98525000Y-77762500D01*
G75*
G02*
X98762500Y-77525000I237500J0D01*
G01*
X99612500Y-77525000D01*
G75*
G02*
X99850000Y-77762500I0J-237500D01*
G01*
G37*
G36*
G01*
X101475000Y-77762500D02*
X101475000Y-78237500D01*
G75*
G02*
X101237500Y-78475000I-237500J0D01*
G01*
X100387500Y-78475000D01*
G75*
G02*
X100150000Y-78237500I0J237500D01*
G01*
X100150000Y-77762500D01*
G75*
G02*
X100387500Y-77525000I237500J0D01*
G01*
X101237500Y-77525000D01*
G75*
G02*
X101475000Y-77762500I0J-237500D01*
G01*
G37*
%TD*%
%TO.C,D41*%
G36*
G01*
X69850000Y-74762500D02*
X69850000Y-75237500D01*
G75*
G02*
X69612500Y-75475000I-237500J0D01*
G01*
X68762500Y-75475000D01*
G75*
G02*
X68525000Y-75237500I0J237500D01*
G01*
X68525000Y-74762500D01*
G75*
G02*
X68762500Y-74525000I237500J0D01*
G01*
X69612500Y-74525000D01*
G75*
G02*
X69850000Y-74762500I0J-237500D01*
G01*
G37*
G36*
G01*
X71475000Y-74762500D02*
X71475000Y-75237500D01*
G75*
G02*
X71237500Y-75475000I-237500J0D01*
G01*
X70387500Y-75475000D01*
G75*
G02*
X70150000Y-75237500I0J237500D01*
G01*
X70150000Y-74762500D01*
G75*
G02*
X70387500Y-74525000I237500J0D01*
G01*
X71237500Y-74525000D01*
G75*
G02*
X71475000Y-74762500I0J-237500D01*
G01*
G37*
%TD*%
%TO.C,D40*%
G36*
G01*
X84850000Y-74762500D02*
X84850000Y-75237500D01*
G75*
G02*
X84612500Y-75475000I-237500J0D01*
G01*
X83762500Y-75475000D01*
G75*
G02*
X83525000Y-75237500I0J237500D01*
G01*
X83525000Y-74762500D01*
G75*
G02*
X83762500Y-74525000I237500J0D01*
G01*
X84612500Y-74525000D01*
G75*
G02*
X84850000Y-74762500I0J-237500D01*
G01*
G37*
G36*
G01*
X86475000Y-74762500D02*
X86475000Y-75237500D01*
G75*
G02*
X86237500Y-75475000I-237500J0D01*
G01*
X85387500Y-75475000D01*
G75*
G02*
X85150000Y-75237500I0J237500D01*
G01*
X85150000Y-74762500D01*
G75*
G02*
X85387500Y-74525000I237500J0D01*
G01*
X86237500Y-74525000D01*
G75*
G02*
X86475000Y-74762500I0J-237500D01*
G01*
G37*
%TD*%
%TO.C,D39*%
G36*
G01*
X99850000Y-74762500D02*
X99850000Y-75237500D01*
G75*
G02*
X99612500Y-75475000I-237500J0D01*
G01*
X98762500Y-75475000D01*
G75*
G02*
X98525000Y-75237500I0J237500D01*
G01*
X98525000Y-74762500D01*
G75*
G02*
X98762500Y-74525000I237500J0D01*
G01*
X99612500Y-74525000D01*
G75*
G02*
X99850000Y-74762500I0J-237500D01*
G01*
G37*
G36*
G01*
X101475000Y-74762500D02*
X101475000Y-75237500D01*
G75*
G02*
X101237500Y-75475000I-237500J0D01*
G01*
X100387500Y-75475000D01*
G75*
G02*
X100150000Y-75237500I0J237500D01*
G01*
X100150000Y-74762500D01*
G75*
G02*
X100387500Y-74525000I237500J0D01*
G01*
X101237500Y-74525000D01*
G75*
G02*
X101475000Y-74762500I0J-237500D01*
G01*
G37*
%TD*%
%TO.C,D38*%
G36*
G01*
X69850000Y-71762500D02*
X69850000Y-72237500D01*
G75*
G02*
X69612500Y-72475000I-237500J0D01*
G01*
X68762500Y-72475000D01*
G75*
G02*
X68525000Y-72237500I0J237500D01*
G01*
X68525000Y-71762500D01*
G75*
G02*
X68762500Y-71525000I237500J0D01*
G01*
X69612500Y-71525000D01*
G75*
G02*
X69850000Y-71762500I0J-237500D01*
G01*
G37*
G36*
G01*
X71475000Y-71762500D02*
X71475000Y-72237500D01*
G75*
G02*
X71237500Y-72475000I-237500J0D01*
G01*
X70387500Y-72475000D01*
G75*
G02*
X70150000Y-72237500I0J237500D01*
G01*
X70150000Y-71762500D01*
G75*
G02*
X70387500Y-71525000I237500J0D01*
G01*
X71237500Y-71525000D01*
G75*
G02*
X71475000Y-71762500I0J-237500D01*
G01*
G37*
%TD*%
%TO.C,D37*%
G36*
G01*
X84850000Y-71762500D02*
X84850000Y-72237500D01*
G75*
G02*
X84612500Y-72475000I-237500J0D01*
G01*
X83762500Y-72475000D01*
G75*
G02*
X83525000Y-72237500I0J237500D01*
G01*
X83525000Y-71762500D01*
G75*
G02*
X83762500Y-71525000I237500J0D01*
G01*
X84612500Y-71525000D01*
G75*
G02*
X84850000Y-71762500I0J-237500D01*
G01*
G37*
G36*
G01*
X86475000Y-71762500D02*
X86475000Y-72237500D01*
G75*
G02*
X86237500Y-72475000I-237500J0D01*
G01*
X85387500Y-72475000D01*
G75*
G02*
X85150000Y-72237500I0J237500D01*
G01*
X85150000Y-71762500D01*
G75*
G02*
X85387500Y-71525000I237500J0D01*
G01*
X86237500Y-71525000D01*
G75*
G02*
X86475000Y-71762500I0J-237500D01*
G01*
G37*
%TD*%
%TO.C,D36*%
G36*
G01*
X99850000Y-71762500D02*
X99850000Y-72237500D01*
G75*
G02*
X99612500Y-72475000I-237500J0D01*
G01*
X98762500Y-72475000D01*
G75*
G02*
X98525000Y-72237500I0J237500D01*
G01*
X98525000Y-71762500D01*
G75*
G02*
X98762500Y-71525000I237500J0D01*
G01*
X99612500Y-71525000D01*
G75*
G02*
X99850000Y-71762500I0J-237500D01*
G01*
G37*
G36*
G01*
X101475000Y-71762500D02*
X101475000Y-72237500D01*
G75*
G02*
X101237500Y-72475000I-237500J0D01*
G01*
X100387500Y-72475000D01*
G75*
G02*
X100150000Y-72237500I0J237500D01*
G01*
X100150000Y-71762500D01*
G75*
G02*
X100387500Y-71525000I237500J0D01*
G01*
X101237500Y-71525000D01*
G75*
G02*
X101475000Y-71762500I0J-237500D01*
G01*
G37*
%TD*%
%TO.C,D35*%
G36*
G01*
X69850000Y-68762500D02*
X69850000Y-69237500D01*
G75*
G02*
X69612500Y-69475000I-237500J0D01*
G01*
X68762500Y-69475000D01*
G75*
G02*
X68525000Y-69237500I0J237500D01*
G01*
X68525000Y-68762500D01*
G75*
G02*
X68762500Y-68525000I237500J0D01*
G01*
X69612500Y-68525000D01*
G75*
G02*
X69850000Y-68762500I0J-237500D01*
G01*
G37*
G36*
G01*
X71475000Y-68762500D02*
X71475000Y-69237500D01*
G75*
G02*
X71237500Y-69475000I-237500J0D01*
G01*
X70387500Y-69475000D01*
G75*
G02*
X70150000Y-69237500I0J237500D01*
G01*
X70150000Y-68762500D01*
G75*
G02*
X70387500Y-68525000I237500J0D01*
G01*
X71237500Y-68525000D01*
G75*
G02*
X71475000Y-68762500I0J-237500D01*
G01*
G37*
%TD*%
%TO.C,D34*%
G36*
G01*
X84850000Y-68762500D02*
X84850000Y-69237500D01*
G75*
G02*
X84612500Y-69475000I-237500J0D01*
G01*
X83762500Y-69475000D01*
G75*
G02*
X83525000Y-69237500I0J237500D01*
G01*
X83525000Y-68762500D01*
G75*
G02*
X83762500Y-68525000I237500J0D01*
G01*
X84612500Y-68525000D01*
G75*
G02*
X84850000Y-68762500I0J-237500D01*
G01*
G37*
G36*
G01*
X86475000Y-68762500D02*
X86475000Y-69237500D01*
G75*
G02*
X86237500Y-69475000I-237500J0D01*
G01*
X85387500Y-69475000D01*
G75*
G02*
X85150000Y-69237500I0J237500D01*
G01*
X85150000Y-68762500D01*
G75*
G02*
X85387500Y-68525000I237500J0D01*
G01*
X86237500Y-68525000D01*
G75*
G02*
X86475000Y-68762500I0J-237500D01*
G01*
G37*
%TD*%
%TO.C,D33*%
G36*
G01*
X99850000Y-68762500D02*
X99850000Y-69237500D01*
G75*
G02*
X99612500Y-69475000I-237500J0D01*
G01*
X98762500Y-69475000D01*
G75*
G02*
X98525000Y-69237500I0J237500D01*
G01*
X98525000Y-68762500D01*
G75*
G02*
X98762500Y-68525000I237500J0D01*
G01*
X99612500Y-68525000D01*
G75*
G02*
X99850000Y-68762500I0J-237500D01*
G01*
G37*
G36*
G01*
X101475000Y-68762500D02*
X101475000Y-69237500D01*
G75*
G02*
X101237500Y-69475000I-237500J0D01*
G01*
X100387500Y-69475000D01*
G75*
G02*
X100150000Y-69237500I0J237500D01*
G01*
X100150000Y-68762500D01*
G75*
G02*
X100387500Y-68525000I237500J0D01*
G01*
X101237500Y-68525000D01*
G75*
G02*
X101475000Y-68762500I0J-237500D01*
G01*
G37*
%TD*%
%TO.C,D32*%
G36*
G01*
X69850000Y-65762500D02*
X69850000Y-66237500D01*
G75*
G02*
X69612500Y-66475000I-237500J0D01*
G01*
X68762500Y-66475000D01*
G75*
G02*
X68525000Y-66237500I0J237500D01*
G01*
X68525000Y-65762500D01*
G75*
G02*
X68762500Y-65525000I237500J0D01*
G01*
X69612500Y-65525000D01*
G75*
G02*
X69850000Y-65762500I0J-237500D01*
G01*
G37*
G36*
G01*
X71475000Y-65762500D02*
X71475000Y-66237500D01*
G75*
G02*
X71237500Y-66475000I-237500J0D01*
G01*
X70387500Y-66475000D01*
G75*
G02*
X70150000Y-66237500I0J237500D01*
G01*
X70150000Y-65762500D01*
G75*
G02*
X70387500Y-65525000I237500J0D01*
G01*
X71237500Y-65525000D01*
G75*
G02*
X71475000Y-65762500I0J-237500D01*
G01*
G37*
%TD*%
%TO.C,D31*%
G36*
G01*
X84850000Y-65762500D02*
X84850000Y-66237500D01*
G75*
G02*
X84612500Y-66475000I-237500J0D01*
G01*
X83762500Y-66475000D01*
G75*
G02*
X83525000Y-66237500I0J237500D01*
G01*
X83525000Y-65762500D01*
G75*
G02*
X83762500Y-65525000I237500J0D01*
G01*
X84612500Y-65525000D01*
G75*
G02*
X84850000Y-65762500I0J-237500D01*
G01*
G37*
G36*
G01*
X86475000Y-65762500D02*
X86475000Y-66237500D01*
G75*
G02*
X86237500Y-66475000I-237500J0D01*
G01*
X85387500Y-66475000D01*
G75*
G02*
X85150000Y-66237500I0J237500D01*
G01*
X85150000Y-65762500D01*
G75*
G02*
X85387500Y-65525000I237500J0D01*
G01*
X86237500Y-65525000D01*
G75*
G02*
X86475000Y-65762500I0J-237500D01*
G01*
G37*
%TD*%
%TO.C,D30*%
G36*
G01*
X99850000Y-65762500D02*
X99850000Y-66237500D01*
G75*
G02*
X99612500Y-66475000I-237500J0D01*
G01*
X98762500Y-66475000D01*
G75*
G02*
X98525000Y-66237500I0J237500D01*
G01*
X98525000Y-65762500D01*
G75*
G02*
X98762500Y-65525000I237500J0D01*
G01*
X99612500Y-65525000D01*
G75*
G02*
X99850000Y-65762500I0J-237500D01*
G01*
G37*
G36*
G01*
X101475000Y-65762500D02*
X101475000Y-66237500D01*
G75*
G02*
X101237500Y-66475000I-237500J0D01*
G01*
X100387500Y-66475000D01*
G75*
G02*
X100150000Y-66237500I0J237500D01*
G01*
X100150000Y-65762500D01*
G75*
G02*
X100387500Y-65525000I237500J0D01*
G01*
X101237500Y-65525000D01*
G75*
G02*
X101475000Y-65762500I0J-237500D01*
G01*
G37*
%TD*%
%TO.C,D29*%
G36*
G01*
X69850000Y-62762500D02*
X69850000Y-63237500D01*
G75*
G02*
X69612500Y-63475000I-237500J0D01*
G01*
X68762500Y-63475000D01*
G75*
G02*
X68525000Y-63237500I0J237500D01*
G01*
X68525000Y-62762500D01*
G75*
G02*
X68762500Y-62525000I237500J0D01*
G01*
X69612500Y-62525000D01*
G75*
G02*
X69850000Y-62762500I0J-237500D01*
G01*
G37*
G36*
G01*
X71475000Y-62762500D02*
X71475000Y-63237500D01*
G75*
G02*
X71237500Y-63475000I-237500J0D01*
G01*
X70387500Y-63475000D01*
G75*
G02*
X70150000Y-63237500I0J237500D01*
G01*
X70150000Y-62762500D01*
G75*
G02*
X70387500Y-62525000I237500J0D01*
G01*
X71237500Y-62525000D01*
G75*
G02*
X71475000Y-62762500I0J-237500D01*
G01*
G37*
%TD*%
%TO.C,D28*%
G36*
G01*
X84850000Y-62762500D02*
X84850000Y-63237500D01*
G75*
G02*
X84612500Y-63475000I-237500J0D01*
G01*
X83762500Y-63475000D01*
G75*
G02*
X83525000Y-63237500I0J237500D01*
G01*
X83525000Y-62762500D01*
G75*
G02*
X83762500Y-62525000I237500J0D01*
G01*
X84612500Y-62525000D01*
G75*
G02*
X84850000Y-62762500I0J-237500D01*
G01*
G37*
G36*
G01*
X86475000Y-62762500D02*
X86475000Y-63237500D01*
G75*
G02*
X86237500Y-63475000I-237500J0D01*
G01*
X85387500Y-63475000D01*
G75*
G02*
X85150000Y-63237500I0J237500D01*
G01*
X85150000Y-62762500D01*
G75*
G02*
X85387500Y-62525000I237500J0D01*
G01*
X86237500Y-62525000D01*
G75*
G02*
X86475000Y-62762500I0J-237500D01*
G01*
G37*
%TD*%
%TO.C,D27*%
G36*
G01*
X99850000Y-62762500D02*
X99850000Y-63237500D01*
G75*
G02*
X99612500Y-63475000I-237500J0D01*
G01*
X98762500Y-63475000D01*
G75*
G02*
X98525000Y-63237500I0J237500D01*
G01*
X98525000Y-62762500D01*
G75*
G02*
X98762500Y-62525000I237500J0D01*
G01*
X99612500Y-62525000D01*
G75*
G02*
X99850000Y-62762500I0J-237500D01*
G01*
G37*
G36*
G01*
X101475000Y-62762500D02*
X101475000Y-63237500D01*
G75*
G02*
X101237500Y-63475000I-237500J0D01*
G01*
X100387500Y-63475000D01*
G75*
G02*
X100150000Y-63237500I0J237500D01*
G01*
X100150000Y-62762500D01*
G75*
G02*
X100387500Y-62525000I237500J0D01*
G01*
X101237500Y-62525000D01*
G75*
G02*
X101475000Y-62762500I0J-237500D01*
G01*
G37*
%TD*%
%TO.C,D26*%
G36*
G01*
X69850000Y-59762500D02*
X69850000Y-60237500D01*
G75*
G02*
X69612500Y-60475000I-237500J0D01*
G01*
X68762500Y-60475000D01*
G75*
G02*
X68525000Y-60237500I0J237500D01*
G01*
X68525000Y-59762500D01*
G75*
G02*
X68762500Y-59525000I237500J0D01*
G01*
X69612500Y-59525000D01*
G75*
G02*
X69850000Y-59762500I0J-237500D01*
G01*
G37*
G36*
G01*
X71475000Y-59762500D02*
X71475000Y-60237500D01*
G75*
G02*
X71237500Y-60475000I-237500J0D01*
G01*
X70387500Y-60475000D01*
G75*
G02*
X70150000Y-60237500I0J237500D01*
G01*
X70150000Y-59762500D01*
G75*
G02*
X70387500Y-59525000I237500J0D01*
G01*
X71237500Y-59525000D01*
G75*
G02*
X71475000Y-59762500I0J-237500D01*
G01*
G37*
%TD*%
%TO.C,D25*%
G36*
G01*
X84850000Y-59762500D02*
X84850000Y-60237500D01*
G75*
G02*
X84612500Y-60475000I-237500J0D01*
G01*
X83762500Y-60475000D01*
G75*
G02*
X83525000Y-60237500I0J237500D01*
G01*
X83525000Y-59762500D01*
G75*
G02*
X83762500Y-59525000I237500J0D01*
G01*
X84612500Y-59525000D01*
G75*
G02*
X84850000Y-59762500I0J-237500D01*
G01*
G37*
G36*
G01*
X86475000Y-59762500D02*
X86475000Y-60237500D01*
G75*
G02*
X86237500Y-60475000I-237500J0D01*
G01*
X85387500Y-60475000D01*
G75*
G02*
X85150000Y-60237500I0J237500D01*
G01*
X85150000Y-59762500D01*
G75*
G02*
X85387500Y-59525000I237500J0D01*
G01*
X86237500Y-59525000D01*
G75*
G02*
X86475000Y-59762500I0J-237500D01*
G01*
G37*
%TD*%
%TO.C,D24*%
G36*
G01*
X99850000Y-59762500D02*
X99850000Y-60237500D01*
G75*
G02*
X99612500Y-60475000I-237500J0D01*
G01*
X98762500Y-60475000D01*
G75*
G02*
X98525000Y-60237500I0J237500D01*
G01*
X98525000Y-59762500D01*
G75*
G02*
X98762500Y-59525000I237500J0D01*
G01*
X99612500Y-59525000D01*
G75*
G02*
X99850000Y-59762500I0J-237500D01*
G01*
G37*
G36*
G01*
X101475000Y-59762500D02*
X101475000Y-60237500D01*
G75*
G02*
X101237500Y-60475000I-237500J0D01*
G01*
X100387500Y-60475000D01*
G75*
G02*
X100150000Y-60237500I0J237500D01*
G01*
X100150000Y-59762500D01*
G75*
G02*
X100387500Y-59525000I237500J0D01*
G01*
X101237500Y-59525000D01*
G75*
G02*
X101475000Y-59762500I0J-237500D01*
G01*
G37*
%TD*%
%TO.C,D23*%
G36*
G01*
X114850000Y-80762500D02*
X114850000Y-81237500D01*
G75*
G02*
X114612500Y-81475000I-237500J0D01*
G01*
X113762500Y-81475000D01*
G75*
G02*
X113525000Y-81237500I0J237500D01*
G01*
X113525000Y-80762500D01*
G75*
G02*
X113762500Y-80525000I237500J0D01*
G01*
X114612500Y-80525000D01*
G75*
G02*
X114850000Y-80762500I0J-237500D01*
G01*
G37*
G36*
G01*
X116475000Y-80762500D02*
X116475000Y-81237500D01*
G75*
G02*
X116237500Y-81475000I-237500J0D01*
G01*
X115387500Y-81475000D01*
G75*
G02*
X115150000Y-81237500I0J237500D01*
G01*
X115150000Y-80762500D01*
G75*
G02*
X115387500Y-80525000I237500J0D01*
G01*
X116237500Y-80525000D01*
G75*
G02*
X116475000Y-80762500I0J-237500D01*
G01*
G37*
%TD*%
%TO.C,D22*%
G36*
G01*
X131475000Y-80762500D02*
X131475000Y-81237500D01*
G75*
G02*
X131237500Y-81475000I-237500J0D01*
G01*
X130387500Y-81475000D01*
G75*
G02*
X130150000Y-81237500I0J237500D01*
G01*
X130150000Y-80762500D01*
G75*
G02*
X130387500Y-80525000I237500J0D01*
G01*
X131237500Y-80525000D01*
G75*
G02*
X131475000Y-80762500I0J-237500D01*
G01*
G37*
G36*
G01*
X129850000Y-80762500D02*
X129850000Y-81237500D01*
G75*
G02*
X129612500Y-81475000I-237500J0D01*
G01*
X128762500Y-81475000D01*
G75*
G02*
X128525000Y-81237500I0J237500D01*
G01*
X128525000Y-80762500D01*
G75*
G02*
X128762500Y-80525000I237500J0D01*
G01*
X129612500Y-80525000D01*
G75*
G02*
X129850000Y-80762500I0J-237500D01*
G01*
G37*
%TD*%
%TO.C,D21*%
G36*
G01*
X114850000Y-77762500D02*
X114850000Y-78237500D01*
G75*
G02*
X114612500Y-78475000I-237500J0D01*
G01*
X113762500Y-78475000D01*
G75*
G02*
X113525000Y-78237500I0J237500D01*
G01*
X113525000Y-77762500D01*
G75*
G02*
X113762500Y-77525000I237500J0D01*
G01*
X114612500Y-77525000D01*
G75*
G02*
X114850000Y-77762500I0J-237500D01*
G01*
G37*
G36*
G01*
X116475000Y-77762500D02*
X116475000Y-78237500D01*
G75*
G02*
X116237500Y-78475000I-237500J0D01*
G01*
X115387500Y-78475000D01*
G75*
G02*
X115150000Y-78237500I0J237500D01*
G01*
X115150000Y-77762500D01*
G75*
G02*
X115387500Y-77525000I237500J0D01*
G01*
X116237500Y-77525000D01*
G75*
G02*
X116475000Y-77762500I0J-237500D01*
G01*
G37*
%TD*%
%TO.C,D20*%
G36*
G01*
X131475000Y-77762500D02*
X131475000Y-78237500D01*
G75*
G02*
X131237500Y-78475000I-237500J0D01*
G01*
X130387500Y-78475000D01*
G75*
G02*
X130150000Y-78237500I0J237500D01*
G01*
X130150000Y-77762500D01*
G75*
G02*
X130387500Y-77525000I237500J0D01*
G01*
X131237500Y-77525000D01*
G75*
G02*
X131475000Y-77762500I0J-237500D01*
G01*
G37*
G36*
G01*
X129850000Y-77762500D02*
X129850000Y-78237500D01*
G75*
G02*
X129612500Y-78475000I-237500J0D01*
G01*
X128762500Y-78475000D01*
G75*
G02*
X128525000Y-78237500I0J237500D01*
G01*
X128525000Y-77762500D01*
G75*
G02*
X128762500Y-77525000I237500J0D01*
G01*
X129612500Y-77525000D01*
G75*
G02*
X129850000Y-77762500I0J-237500D01*
G01*
G37*
%TD*%
%TO.C,D19*%
G36*
G01*
X114850000Y-74762500D02*
X114850000Y-75237500D01*
G75*
G02*
X114612500Y-75475000I-237500J0D01*
G01*
X113762500Y-75475000D01*
G75*
G02*
X113525000Y-75237500I0J237500D01*
G01*
X113525000Y-74762500D01*
G75*
G02*
X113762500Y-74525000I237500J0D01*
G01*
X114612500Y-74525000D01*
G75*
G02*
X114850000Y-74762500I0J-237500D01*
G01*
G37*
G36*
G01*
X116475000Y-74762500D02*
X116475000Y-75237500D01*
G75*
G02*
X116237500Y-75475000I-237500J0D01*
G01*
X115387500Y-75475000D01*
G75*
G02*
X115150000Y-75237500I0J237500D01*
G01*
X115150000Y-74762500D01*
G75*
G02*
X115387500Y-74525000I237500J0D01*
G01*
X116237500Y-74525000D01*
G75*
G02*
X116475000Y-74762500I0J-237500D01*
G01*
G37*
%TD*%
%TO.C,D18*%
G36*
G01*
X131475000Y-74762500D02*
X131475000Y-75237500D01*
G75*
G02*
X131237500Y-75475000I-237500J0D01*
G01*
X130387500Y-75475000D01*
G75*
G02*
X130150000Y-75237500I0J237500D01*
G01*
X130150000Y-74762500D01*
G75*
G02*
X130387500Y-74525000I237500J0D01*
G01*
X131237500Y-74525000D01*
G75*
G02*
X131475000Y-74762500I0J-237500D01*
G01*
G37*
G36*
G01*
X129850000Y-74762500D02*
X129850000Y-75237500D01*
G75*
G02*
X129612500Y-75475000I-237500J0D01*
G01*
X128762500Y-75475000D01*
G75*
G02*
X128525000Y-75237500I0J237500D01*
G01*
X128525000Y-74762500D01*
G75*
G02*
X128762500Y-74525000I237500J0D01*
G01*
X129612500Y-74525000D01*
G75*
G02*
X129850000Y-74762500I0J-237500D01*
G01*
G37*
%TD*%
%TO.C,D17*%
G36*
G01*
X114850000Y-71762500D02*
X114850000Y-72237500D01*
G75*
G02*
X114612500Y-72475000I-237500J0D01*
G01*
X113762500Y-72475000D01*
G75*
G02*
X113525000Y-72237500I0J237500D01*
G01*
X113525000Y-71762500D01*
G75*
G02*
X113762500Y-71525000I237500J0D01*
G01*
X114612500Y-71525000D01*
G75*
G02*
X114850000Y-71762500I0J-237500D01*
G01*
G37*
G36*
G01*
X116475000Y-71762500D02*
X116475000Y-72237500D01*
G75*
G02*
X116237500Y-72475000I-237500J0D01*
G01*
X115387500Y-72475000D01*
G75*
G02*
X115150000Y-72237500I0J237500D01*
G01*
X115150000Y-71762500D01*
G75*
G02*
X115387500Y-71525000I237500J0D01*
G01*
X116237500Y-71525000D01*
G75*
G02*
X116475000Y-71762500I0J-237500D01*
G01*
G37*
%TD*%
%TO.C,D16*%
G36*
G01*
X131475000Y-71762500D02*
X131475000Y-72237500D01*
G75*
G02*
X131237500Y-72475000I-237500J0D01*
G01*
X130387500Y-72475000D01*
G75*
G02*
X130150000Y-72237500I0J237500D01*
G01*
X130150000Y-71762500D01*
G75*
G02*
X130387500Y-71525000I237500J0D01*
G01*
X131237500Y-71525000D01*
G75*
G02*
X131475000Y-71762500I0J-237500D01*
G01*
G37*
G36*
G01*
X129850000Y-71762500D02*
X129850000Y-72237500D01*
G75*
G02*
X129612500Y-72475000I-237500J0D01*
G01*
X128762500Y-72475000D01*
G75*
G02*
X128525000Y-72237500I0J237500D01*
G01*
X128525000Y-71762500D01*
G75*
G02*
X128762500Y-71525000I237500J0D01*
G01*
X129612500Y-71525000D01*
G75*
G02*
X129850000Y-71762500I0J-237500D01*
G01*
G37*
%TD*%
%TO.C,D15*%
G36*
G01*
X114850000Y-68762500D02*
X114850000Y-69237500D01*
G75*
G02*
X114612500Y-69475000I-237500J0D01*
G01*
X113762500Y-69475000D01*
G75*
G02*
X113525000Y-69237500I0J237500D01*
G01*
X113525000Y-68762500D01*
G75*
G02*
X113762500Y-68525000I237500J0D01*
G01*
X114612500Y-68525000D01*
G75*
G02*
X114850000Y-68762500I0J-237500D01*
G01*
G37*
G36*
G01*
X116475000Y-68762500D02*
X116475000Y-69237500D01*
G75*
G02*
X116237500Y-69475000I-237500J0D01*
G01*
X115387500Y-69475000D01*
G75*
G02*
X115150000Y-69237500I0J237500D01*
G01*
X115150000Y-68762500D01*
G75*
G02*
X115387500Y-68525000I237500J0D01*
G01*
X116237500Y-68525000D01*
G75*
G02*
X116475000Y-68762500I0J-237500D01*
G01*
G37*
%TD*%
%TO.C,D14*%
G36*
G01*
X131475000Y-68762500D02*
X131475000Y-69237500D01*
G75*
G02*
X131237500Y-69475000I-237500J0D01*
G01*
X130387500Y-69475000D01*
G75*
G02*
X130150000Y-69237500I0J237500D01*
G01*
X130150000Y-68762500D01*
G75*
G02*
X130387500Y-68525000I237500J0D01*
G01*
X131237500Y-68525000D01*
G75*
G02*
X131475000Y-68762500I0J-237500D01*
G01*
G37*
G36*
G01*
X129850000Y-68762500D02*
X129850000Y-69237500D01*
G75*
G02*
X129612500Y-69475000I-237500J0D01*
G01*
X128762500Y-69475000D01*
G75*
G02*
X128525000Y-69237500I0J237500D01*
G01*
X128525000Y-68762500D01*
G75*
G02*
X128762500Y-68525000I237500J0D01*
G01*
X129612500Y-68525000D01*
G75*
G02*
X129850000Y-68762500I0J-237500D01*
G01*
G37*
%TD*%
%TO.C,D13*%
G36*
G01*
X114850000Y-65762500D02*
X114850000Y-66237500D01*
G75*
G02*
X114612500Y-66475000I-237500J0D01*
G01*
X113762500Y-66475000D01*
G75*
G02*
X113525000Y-66237500I0J237500D01*
G01*
X113525000Y-65762500D01*
G75*
G02*
X113762500Y-65525000I237500J0D01*
G01*
X114612500Y-65525000D01*
G75*
G02*
X114850000Y-65762500I0J-237500D01*
G01*
G37*
G36*
G01*
X116475000Y-65762500D02*
X116475000Y-66237500D01*
G75*
G02*
X116237500Y-66475000I-237500J0D01*
G01*
X115387500Y-66475000D01*
G75*
G02*
X115150000Y-66237500I0J237500D01*
G01*
X115150000Y-65762500D01*
G75*
G02*
X115387500Y-65525000I237500J0D01*
G01*
X116237500Y-65525000D01*
G75*
G02*
X116475000Y-65762500I0J-237500D01*
G01*
G37*
%TD*%
%TO.C,D12*%
G36*
G01*
X131475000Y-65762500D02*
X131475000Y-66237500D01*
G75*
G02*
X131237500Y-66475000I-237500J0D01*
G01*
X130387500Y-66475000D01*
G75*
G02*
X130150000Y-66237500I0J237500D01*
G01*
X130150000Y-65762500D01*
G75*
G02*
X130387500Y-65525000I237500J0D01*
G01*
X131237500Y-65525000D01*
G75*
G02*
X131475000Y-65762500I0J-237500D01*
G01*
G37*
G36*
G01*
X129850000Y-65762500D02*
X129850000Y-66237500D01*
G75*
G02*
X129612500Y-66475000I-237500J0D01*
G01*
X128762500Y-66475000D01*
G75*
G02*
X128525000Y-66237500I0J237500D01*
G01*
X128525000Y-65762500D01*
G75*
G02*
X128762500Y-65525000I237500J0D01*
G01*
X129612500Y-65525000D01*
G75*
G02*
X129850000Y-65762500I0J-237500D01*
G01*
G37*
%TD*%
%TO.C,D11*%
G36*
G01*
X114850000Y-62762500D02*
X114850000Y-63237500D01*
G75*
G02*
X114612500Y-63475000I-237500J0D01*
G01*
X113762500Y-63475000D01*
G75*
G02*
X113525000Y-63237500I0J237500D01*
G01*
X113525000Y-62762500D01*
G75*
G02*
X113762500Y-62525000I237500J0D01*
G01*
X114612500Y-62525000D01*
G75*
G02*
X114850000Y-62762500I0J-237500D01*
G01*
G37*
G36*
G01*
X116475000Y-62762500D02*
X116475000Y-63237500D01*
G75*
G02*
X116237500Y-63475000I-237500J0D01*
G01*
X115387500Y-63475000D01*
G75*
G02*
X115150000Y-63237500I0J237500D01*
G01*
X115150000Y-62762500D01*
G75*
G02*
X115387500Y-62525000I237500J0D01*
G01*
X116237500Y-62525000D01*
G75*
G02*
X116475000Y-62762500I0J-237500D01*
G01*
G37*
%TD*%
%TO.C,D10*%
G36*
G01*
X131475000Y-62762500D02*
X131475000Y-63237500D01*
G75*
G02*
X131237500Y-63475000I-237500J0D01*
G01*
X130387500Y-63475000D01*
G75*
G02*
X130150000Y-63237500I0J237500D01*
G01*
X130150000Y-62762500D01*
G75*
G02*
X130387500Y-62525000I237500J0D01*
G01*
X131237500Y-62525000D01*
G75*
G02*
X131475000Y-62762500I0J-237500D01*
G01*
G37*
G36*
G01*
X129850000Y-62762500D02*
X129850000Y-63237500D01*
G75*
G02*
X129612500Y-63475000I-237500J0D01*
G01*
X128762500Y-63475000D01*
G75*
G02*
X128525000Y-63237500I0J237500D01*
G01*
X128525000Y-62762500D01*
G75*
G02*
X128762500Y-62525000I237500J0D01*
G01*
X129612500Y-62525000D01*
G75*
G02*
X129850000Y-62762500I0J-237500D01*
G01*
G37*
%TD*%
%TO.C,D9*%
G36*
G01*
X114850000Y-59762500D02*
X114850000Y-60237500D01*
G75*
G02*
X114612500Y-60475000I-237500J0D01*
G01*
X113762500Y-60475000D01*
G75*
G02*
X113525000Y-60237500I0J237500D01*
G01*
X113525000Y-59762500D01*
G75*
G02*
X113762500Y-59525000I237500J0D01*
G01*
X114612500Y-59525000D01*
G75*
G02*
X114850000Y-59762500I0J-237500D01*
G01*
G37*
G36*
G01*
X116475000Y-59762500D02*
X116475000Y-60237500D01*
G75*
G02*
X116237500Y-60475000I-237500J0D01*
G01*
X115387500Y-60475000D01*
G75*
G02*
X115150000Y-60237500I0J237500D01*
G01*
X115150000Y-59762500D01*
G75*
G02*
X115387500Y-59525000I237500J0D01*
G01*
X116237500Y-59525000D01*
G75*
G02*
X116475000Y-59762500I0J-237500D01*
G01*
G37*
%TD*%
%TO.C,D8*%
G36*
G01*
X131475000Y-59762500D02*
X131475000Y-60237500D01*
G75*
G02*
X131237500Y-60475000I-237500J0D01*
G01*
X130387500Y-60475000D01*
G75*
G02*
X130150000Y-60237500I0J237500D01*
G01*
X130150000Y-59762500D01*
G75*
G02*
X130387500Y-59525000I237500J0D01*
G01*
X131237500Y-59525000D01*
G75*
G02*
X131475000Y-59762500I0J-237500D01*
G01*
G37*
G36*
G01*
X129850000Y-59762500D02*
X129850000Y-60237500D01*
G75*
G02*
X129612500Y-60475000I-237500J0D01*
G01*
X128762500Y-60475000D01*
G75*
G02*
X128525000Y-60237500I0J237500D01*
G01*
X128525000Y-59762500D01*
G75*
G02*
X128762500Y-59525000I237500J0D01*
G01*
X129612500Y-59525000D01*
G75*
G02*
X129850000Y-59762500I0J-237500D01*
G01*
G37*
%TD*%
D21*
%TO.C,D7*%
X73000000Y-126300000D03*
X69000000Y-126300000D03*
%TD*%
D22*
%TO.C,D6*%
X64800000Y-124350000D03*
X64800000Y-127650000D03*
%TD*%
D23*
%TO.C,D5*%
X56500000Y-136750000D03*
X54400000Y-136750000D03*
%TD*%
D21*
%TO.C,D4*%
X85900000Y-145000000D03*
X89900000Y-145000000D03*
%TD*%
%TO.C,D3*%
X85900000Y-133000000D03*
X89900000Y-133000000D03*
%TD*%
%TO.C,D2*%
X89900000Y-141000000D03*
X85900000Y-141000000D03*
%TD*%
%TO.C,D1*%
X89900000Y-137000000D03*
X85900000Y-137000000D03*
%TD*%
%TO.C,C23*%
G36*
G01*
X69397500Y-92860000D02*
X69002500Y-92860000D01*
G75*
G02*
X68830000Y-92687500I0J172500D01*
G01*
X68830000Y-92342500D01*
G75*
G02*
X69002500Y-92170000I172500J0D01*
G01*
X69397500Y-92170000D01*
G75*
G02*
X69570000Y-92342500I0J-172500D01*
G01*
X69570000Y-92687500D01*
G75*
G02*
X69397500Y-92860000I-172500J0D01*
G01*
G37*
G36*
G01*
X69397500Y-93830000D02*
X69002500Y-93830000D01*
G75*
G02*
X68830000Y-93657500I0J172500D01*
G01*
X68830000Y-93312500D01*
G75*
G02*
X69002500Y-93140000I172500J0D01*
G01*
X69397500Y-93140000D01*
G75*
G02*
X69570000Y-93312500I0J-172500D01*
G01*
X69570000Y-93657500D01*
G75*
G02*
X69397500Y-93830000I-172500J0D01*
G01*
G37*
%TD*%
%TO.C,C22*%
G36*
G01*
X84397500Y-92860000D02*
X84002500Y-92860000D01*
G75*
G02*
X83830000Y-92687500I0J172500D01*
G01*
X83830000Y-92342500D01*
G75*
G02*
X84002500Y-92170000I172500J0D01*
G01*
X84397500Y-92170000D01*
G75*
G02*
X84570000Y-92342500I0J-172500D01*
G01*
X84570000Y-92687500D01*
G75*
G02*
X84397500Y-92860000I-172500J0D01*
G01*
G37*
G36*
G01*
X84397500Y-93830000D02*
X84002500Y-93830000D01*
G75*
G02*
X83830000Y-93657500I0J172500D01*
G01*
X83830000Y-93312500D01*
G75*
G02*
X84002500Y-93140000I172500J0D01*
G01*
X84397500Y-93140000D01*
G75*
G02*
X84570000Y-93312500I0J-172500D01*
G01*
X84570000Y-93657500D01*
G75*
G02*
X84397500Y-93830000I-172500J0D01*
G01*
G37*
%TD*%
%TO.C,C21*%
G36*
G01*
X99397500Y-92860000D02*
X99002500Y-92860000D01*
G75*
G02*
X98830000Y-92687500I0J172500D01*
G01*
X98830000Y-92342500D01*
G75*
G02*
X99002500Y-92170000I172500J0D01*
G01*
X99397500Y-92170000D01*
G75*
G02*
X99570000Y-92342500I0J-172500D01*
G01*
X99570000Y-92687500D01*
G75*
G02*
X99397500Y-92860000I-172500J0D01*
G01*
G37*
G36*
G01*
X99397500Y-93830000D02*
X99002500Y-93830000D01*
G75*
G02*
X98830000Y-93657500I0J172500D01*
G01*
X98830000Y-93312500D01*
G75*
G02*
X99002500Y-93140000I172500J0D01*
G01*
X99397500Y-93140000D01*
G75*
G02*
X99570000Y-93312500I0J-172500D01*
G01*
X99570000Y-93657500D01*
G75*
G02*
X99397500Y-93830000I-172500J0D01*
G01*
G37*
%TD*%
%TO.C,C20*%
G36*
G01*
X139325000Y-140102500D02*
X139325000Y-140497500D01*
G75*
G02*
X139152500Y-140670000I-172500J0D01*
G01*
X138807500Y-140670000D01*
G75*
G02*
X138635000Y-140497500I0J172500D01*
G01*
X138635000Y-140102500D01*
G75*
G02*
X138807500Y-139930000I172500J0D01*
G01*
X139152500Y-139930000D01*
G75*
G02*
X139325000Y-140102500I0J-172500D01*
G01*
G37*
G36*
G01*
X140295000Y-140102500D02*
X140295000Y-140497500D01*
G75*
G02*
X140122500Y-140670000I-172500J0D01*
G01*
X139777500Y-140670000D01*
G75*
G02*
X139605000Y-140497500I0J172500D01*
G01*
X139605000Y-140102500D01*
G75*
G02*
X139777500Y-139930000I172500J0D01*
G01*
X140122500Y-139930000D01*
G75*
G02*
X140295000Y-140102500I0J-172500D01*
G01*
G37*
%TD*%
%TO.C,C19*%
G36*
G01*
X121275000Y-137202500D02*
X121275000Y-137597500D01*
G75*
G02*
X121102500Y-137770000I-172500J0D01*
G01*
X120757500Y-137770000D01*
G75*
G02*
X120585000Y-137597500I0J172500D01*
G01*
X120585000Y-137202500D01*
G75*
G02*
X120757500Y-137030000I172500J0D01*
G01*
X121102500Y-137030000D01*
G75*
G02*
X121275000Y-137202500I0J-172500D01*
G01*
G37*
G36*
G01*
X122245000Y-137202500D02*
X122245000Y-137597500D01*
G75*
G02*
X122072500Y-137770000I-172500J0D01*
G01*
X121727500Y-137770000D01*
G75*
G02*
X121555000Y-137597500I0J172500D01*
G01*
X121555000Y-137202500D01*
G75*
G02*
X121727500Y-137030000I172500J0D01*
G01*
X122072500Y-137030000D01*
G75*
G02*
X122245000Y-137202500I0J-172500D01*
G01*
G37*
%TD*%
%TO.C,C18*%
G36*
G01*
X75068750Y-122900000D02*
X75631250Y-122900000D01*
G75*
G02*
X75875000Y-123143750I0J-243750D01*
G01*
X75875000Y-123631250D01*
G75*
G02*
X75631250Y-123875000I-243750J0D01*
G01*
X75068750Y-123875000D01*
G75*
G02*
X74825000Y-123631250I0J243750D01*
G01*
X74825000Y-123143750D01*
G75*
G02*
X75068750Y-122900000I243750J0D01*
G01*
G37*
G36*
G01*
X75068750Y-121325000D02*
X75631250Y-121325000D01*
G75*
G02*
X75875000Y-121568750I0J-243750D01*
G01*
X75875000Y-122056250D01*
G75*
G02*
X75631250Y-122300000I-243750J0D01*
G01*
X75068750Y-122300000D01*
G75*
G02*
X74825000Y-122056250I0J243750D01*
G01*
X74825000Y-121568750D01*
G75*
G02*
X75068750Y-121325000I243750J0D01*
G01*
G37*
%TD*%
%TO.C,C17*%
G36*
G01*
X73468750Y-122900000D02*
X74031250Y-122900000D01*
G75*
G02*
X74275000Y-123143750I0J-243750D01*
G01*
X74275000Y-123631250D01*
G75*
G02*
X74031250Y-123875000I-243750J0D01*
G01*
X73468750Y-123875000D01*
G75*
G02*
X73225000Y-123631250I0J243750D01*
G01*
X73225000Y-123143750D01*
G75*
G02*
X73468750Y-122900000I243750J0D01*
G01*
G37*
G36*
G01*
X73468750Y-121325000D02*
X74031250Y-121325000D01*
G75*
G02*
X74275000Y-121568750I0J-243750D01*
G01*
X74275000Y-122056250D01*
G75*
G02*
X74031250Y-122300000I-243750J0D01*
G01*
X73468750Y-122300000D01*
G75*
G02*
X73225000Y-122056250I0J243750D01*
G01*
X73225000Y-121568750D01*
G75*
G02*
X73468750Y-121325000I243750J0D01*
G01*
G37*
%TD*%
%TO.C,C16*%
G36*
G01*
X101675000Y-118302500D02*
X101675000Y-118697500D01*
G75*
G02*
X101502500Y-118870000I-172500J0D01*
G01*
X101157500Y-118870000D01*
G75*
G02*
X100985000Y-118697500I0J172500D01*
G01*
X100985000Y-118302500D01*
G75*
G02*
X101157500Y-118130000I172500J0D01*
G01*
X101502500Y-118130000D01*
G75*
G02*
X101675000Y-118302500I0J-172500D01*
G01*
G37*
G36*
G01*
X102645000Y-118302500D02*
X102645000Y-118697500D01*
G75*
G02*
X102472500Y-118870000I-172500J0D01*
G01*
X102127500Y-118870000D01*
G75*
G02*
X101955000Y-118697500I0J172500D01*
G01*
X101955000Y-118302500D01*
G75*
G02*
X102127500Y-118130000I172500J0D01*
G01*
X102472500Y-118130000D01*
G75*
G02*
X102645000Y-118302500I0J-172500D01*
G01*
G37*
%TD*%
%TO.C,C15*%
G36*
G01*
X114397500Y-92860000D02*
X114002500Y-92860000D01*
G75*
G02*
X113830000Y-92687500I0J172500D01*
G01*
X113830000Y-92342500D01*
G75*
G02*
X114002500Y-92170000I172500J0D01*
G01*
X114397500Y-92170000D01*
G75*
G02*
X114570000Y-92342500I0J-172500D01*
G01*
X114570000Y-92687500D01*
G75*
G02*
X114397500Y-92860000I-172500J0D01*
G01*
G37*
G36*
G01*
X114397500Y-93830000D02*
X114002500Y-93830000D01*
G75*
G02*
X113830000Y-93657500I0J172500D01*
G01*
X113830000Y-93312500D01*
G75*
G02*
X114002500Y-93140000I172500J0D01*
G01*
X114397500Y-93140000D01*
G75*
G02*
X114570000Y-93312500I0J-172500D01*
G01*
X114570000Y-93657500D01*
G75*
G02*
X114397500Y-93830000I-172500J0D01*
G01*
G37*
%TD*%
%TO.C,C14*%
G36*
G01*
X129397500Y-92860000D02*
X129002500Y-92860000D01*
G75*
G02*
X128830000Y-92687500I0J172500D01*
G01*
X128830000Y-92342500D01*
G75*
G02*
X129002500Y-92170000I172500J0D01*
G01*
X129397500Y-92170000D01*
G75*
G02*
X129570000Y-92342500I0J-172500D01*
G01*
X129570000Y-92687500D01*
G75*
G02*
X129397500Y-92860000I-172500J0D01*
G01*
G37*
G36*
G01*
X129397500Y-93830000D02*
X129002500Y-93830000D01*
G75*
G02*
X128830000Y-93657500I0J172500D01*
G01*
X128830000Y-93312500D01*
G75*
G02*
X129002500Y-93140000I172500J0D01*
G01*
X129397500Y-93140000D01*
G75*
G02*
X129570000Y-93312500I0J-172500D01*
G01*
X129570000Y-93657500D01*
G75*
G02*
X129397500Y-93830000I-172500J0D01*
G01*
G37*
%TD*%
%TO.C,C13*%
G36*
G01*
X66997500Y-127060000D02*
X66602500Y-127060000D01*
G75*
G02*
X66430000Y-126887500I0J172500D01*
G01*
X66430000Y-126542500D01*
G75*
G02*
X66602500Y-126370000I172500J0D01*
G01*
X66997500Y-126370000D01*
G75*
G02*
X67170000Y-126542500I0J-172500D01*
G01*
X67170000Y-126887500D01*
G75*
G02*
X66997500Y-127060000I-172500J0D01*
G01*
G37*
G36*
G01*
X66997500Y-128030000D02*
X66602500Y-128030000D01*
G75*
G02*
X66430000Y-127857500I0J172500D01*
G01*
X66430000Y-127512500D01*
G75*
G02*
X66602500Y-127340000I172500J0D01*
G01*
X66997500Y-127340000D01*
G75*
G02*
X67170000Y-127512500I0J-172500D01*
G01*
X67170000Y-127857500D01*
G75*
G02*
X66997500Y-128030000I-172500J0D01*
G01*
G37*
%TD*%
%TO.C,C12*%
G36*
G01*
X86775000Y-118302500D02*
X86775000Y-118697500D01*
G75*
G02*
X86602500Y-118870000I-172500J0D01*
G01*
X86257500Y-118870000D01*
G75*
G02*
X86085000Y-118697500I0J172500D01*
G01*
X86085000Y-118302500D01*
G75*
G02*
X86257500Y-118130000I172500J0D01*
G01*
X86602500Y-118130000D01*
G75*
G02*
X86775000Y-118302500I0J-172500D01*
G01*
G37*
G36*
G01*
X87745000Y-118302500D02*
X87745000Y-118697500D01*
G75*
G02*
X87572500Y-118870000I-172500J0D01*
G01*
X87227500Y-118870000D01*
G75*
G02*
X87055000Y-118697500I0J172500D01*
G01*
X87055000Y-118302500D01*
G75*
G02*
X87227500Y-118130000I172500J0D01*
G01*
X87572500Y-118130000D01*
G75*
G02*
X87745000Y-118302500I0J-172500D01*
G01*
G37*
%TD*%
%TO.C,C11*%
G36*
G01*
X76140000Y-145897500D02*
X76140000Y-145502500D01*
G75*
G02*
X76312500Y-145330000I172500J0D01*
G01*
X76657500Y-145330000D01*
G75*
G02*
X76830000Y-145502500I0J-172500D01*
G01*
X76830000Y-145897500D01*
G75*
G02*
X76657500Y-146070000I-172500J0D01*
G01*
X76312500Y-146070000D01*
G75*
G02*
X76140000Y-145897500I0J172500D01*
G01*
G37*
G36*
G01*
X75170000Y-145897500D02*
X75170000Y-145502500D01*
G75*
G02*
X75342500Y-145330000I172500J0D01*
G01*
X75687500Y-145330000D01*
G75*
G02*
X75860000Y-145502500I0J-172500D01*
G01*
X75860000Y-145897500D01*
G75*
G02*
X75687500Y-146070000I-172500J0D01*
G01*
X75342500Y-146070000D01*
G75*
G02*
X75170000Y-145897500I0J172500D01*
G01*
G37*
%TD*%
%TO.C,C10*%
G36*
G01*
X72087500Y-130381250D02*
X72087500Y-129818750D01*
G75*
G02*
X72331250Y-129575000I243750J0D01*
G01*
X72818750Y-129575000D01*
G75*
G02*
X73062500Y-129818750I0J-243750D01*
G01*
X73062500Y-130381250D01*
G75*
G02*
X72818750Y-130625000I-243750J0D01*
G01*
X72331250Y-130625000D01*
G75*
G02*
X72087500Y-130381250I0J243750D01*
G01*
G37*
G36*
G01*
X70512500Y-130381250D02*
X70512500Y-129818750D01*
G75*
G02*
X70756250Y-129575000I243750J0D01*
G01*
X71243750Y-129575000D01*
G75*
G02*
X71487500Y-129818750I0J-243750D01*
G01*
X71487500Y-130381250D01*
G75*
G02*
X71243750Y-130625000I-243750J0D01*
G01*
X70756250Y-130625000D01*
G75*
G02*
X70512500Y-130381250I0J243750D01*
G01*
G37*
%TD*%
%TO.C,C9*%
G36*
G01*
X65050000Y-137960000D02*
X65050000Y-140040000D01*
G75*
G02*
X64790000Y-140300000I-260000J0D01*
G01*
X61210000Y-140300000D01*
G75*
G02*
X60950000Y-140040000I0J260000D01*
G01*
X60950000Y-137960000D01*
G75*
G02*
X61210000Y-137700000I260000J0D01*
G01*
X64790000Y-137700000D01*
G75*
G02*
X65050000Y-137960000I0J-260000D01*
G01*
G37*
G36*
G01*
X73050000Y-137960000D02*
X73050000Y-140040000D01*
G75*
G02*
X72790000Y-140300000I-260000J0D01*
G01*
X69210000Y-140300000D01*
G75*
G02*
X68950000Y-140040000I0J260000D01*
G01*
X68950000Y-137960000D01*
G75*
G02*
X69210000Y-137700000I260000J0D01*
G01*
X72790000Y-137700000D01*
G75*
G02*
X73050000Y-137960000I0J-260000D01*
G01*
G37*
%TD*%
%TO.C,C8*%
G36*
G01*
X125775000Y-112202500D02*
X125775000Y-112597500D01*
G75*
G02*
X125602500Y-112770000I-172500J0D01*
G01*
X125257500Y-112770000D01*
G75*
G02*
X125085000Y-112597500I0J172500D01*
G01*
X125085000Y-112202500D01*
G75*
G02*
X125257500Y-112030000I172500J0D01*
G01*
X125602500Y-112030000D01*
G75*
G02*
X125775000Y-112202500I0J-172500D01*
G01*
G37*
G36*
G01*
X126745000Y-112202500D02*
X126745000Y-112597500D01*
G75*
G02*
X126572500Y-112770000I-172500J0D01*
G01*
X126227500Y-112770000D01*
G75*
G02*
X126055000Y-112597500I0J172500D01*
G01*
X126055000Y-112202500D01*
G75*
G02*
X126227500Y-112030000I172500J0D01*
G01*
X126572500Y-112030000D01*
G75*
G02*
X126745000Y-112202500I0J-172500D01*
G01*
G37*
%TD*%
%TO.C,C7*%
G36*
G01*
X128025000Y-112597500D02*
X128025000Y-112202500D01*
G75*
G02*
X128197500Y-112030000I172500J0D01*
G01*
X128542500Y-112030000D01*
G75*
G02*
X128715000Y-112202500I0J-172500D01*
G01*
X128715000Y-112597500D01*
G75*
G02*
X128542500Y-112770000I-172500J0D01*
G01*
X128197500Y-112770000D01*
G75*
G02*
X128025000Y-112597500I0J172500D01*
G01*
G37*
G36*
G01*
X127055000Y-112597500D02*
X127055000Y-112202500D01*
G75*
G02*
X127227500Y-112030000I172500J0D01*
G01*
X127572500Y-112030000D01*
G75*
G02*
X127745000Y-112202500I0J-172500D01*
G01*
X127745000Y-112597500D01*
G75*
G02*
X127572500Y-112770000I-172500J0D01*
G01*
X127227500Y-112770000D01*
G75*
G02*
X127055000Y-112597500I0J172500D01*
G01*
G37*
%TD*%
%TO.C,C6*%
G36*
G01*
X131025000Y-140197500D02*
X131025000Y-139802500D01*
G75*
G02*
X131197500Y-139630000I172500J0D01*
G01*
X131542500Y-139630000D01*
G75*
G02*
X131715000Y-139802500I0J-172500D01*
G01*
X131715000Y-140197500D01*
G75*
G02*
X131542500Y-140370000I-172500J0D01*
G01*
X131197500Y-140370000D01*
G75*
G02*
X131025000Y-140197500I0J172500D01*
G01*
G37*
G36*
G01*
X130055000Y-140197500D02*
X130055000Y-139802500D01*
G75*
G02*
X130227500Y-139630000I172500J0D01*
G01*
X130572500Y-139630000D01*
G75*
G02*
X130745000Y-139802500I0J-172500D01*
G01*
X130745000Y-140197500D01*
G75*
G02*
X130572500Y-140370000I-172500J0D01*
G01*
X130227500Y-140370000D01*
G75*
G02*
X130055000Y-140197500I0J172500D01*
G01*
G37*
%TD*%
%TO.C,C5*%
G36*
G01*
X125112500Y-110718750D02*
X125112500Y-111281250D01*
G75*
G02*
X124868750Y-111525000I-243750J0D01*
G01*
X124381250Y-111525000D01*
G75*
G02*
X124137500Y-111281250I0J243750D01*
G01*
X124137500Y-110718750D01*
G75*
G02*
X124381250Y-110475000I243750J0D01*
G01*
X124868750Y-110475000D01*
G75*
G02*
X125112500Y-110718750I0J-243750D01*
G01*
G37*
G36*
G01*
X126687500Y-110718750D02*
X126687500Y-111281250D01*
G75*
G02*
X126443750Y-111525000I-243750J0D01*
G01*
X125956250Y-111525000D01*
G75*
G02*
X125712500Y-111281250I0J243750D01*
G01*
X125712500Y-110718750D01*
G75*
G02*
X125956250Y-110475000I243750J0D01*
G01*
X126443750Y-110475000D01*
G75*
G02*
X126687500Y-110718750I0J-243750D01*
G01*
G37*
%TD*%
%TO.C,C4*%
G36*
G01*
X128787500Y-111281250D02*
X128787500Y-110718750D01*
G75*
G02*
X129031250Y-110475000I243750J0D01*
G01*
X129518750Y-110475000D01*
G75*
G02*
X129762500Y-110718750I0J-243750D01*
G01*
X129762500Y-111281250D01*
G75*
G02*
X129518750Y-111525000I-243750J0D01*
G01*
X129031250Y-111525000D01*
G75*
G02*
X128787500Y-111281250I0J243750D01*
G01*
G37*
G36*
G01*
X127212500Y-111281250D02*
X127212500Y-110718750D01*
G75*
G02*
X127456250Y-110475000I243750J0D01*
G01*
X127943750Y-110475000D01*
G75*
G02*
X128187500Y-110718750I0J-243750D01*
G01*
X128187500Y-111281250D01*
G75*
G02*
X127943750Y-111525000I-243750J0D01*
G01*
X127456250Y-111525000D01*
G75*
G02*
X127212500Y-111281250I0J243750D01*
G01*
G37*
%TD*%
%TO.C,C3*%
G36*
G01*
X117097500Y-112175000D02*
X116702500Y-112175000D01*
G75*
G02*
X116530000Y-112002500I0J172500D01*
G01*
X116530000Y-111657500D01*
G75*
G02*
X116702500Y-111485000I172500J0D01*
G01*
X117097500Y-111485000D01*
G75*
G02*
X117270000Y-111657500I0J-172500D01*
G01*
X117270000Y-112002500D01*
G75*
G02*
X117097500Y-112175000I-172500J0D01*
G01*
G37*
G36*
G01*
X117097500Y-113145000D02*
X116702500Y-113145000D01*
G75*
G02*
X116530000Y-112972500I0J172500D01*
G01*
X116530000Y-112627500D01*
G75*
G02*
X116702500Y-112455000I172500J0D01*
G01*
X117097500Y-112455000D01*
G75*
G02*
X117270000Y-112627500I0J-172500D01*
G01*
X117270000Y-112972500D01*
G75*
G02*
X117097500Y-113145000I-172500J0D01*
G01*
G37*
%TD*%
%TO.C,C2*%
G36*
G01*
X116702500Y-109725000D02*
X117097500Y-109725000D01*
G75*
G02*
X117270000Y-109897500I0J-172500D01*
G01*
X117270000Y-110242500D01*
G75*
G02*
X117097500Y-110415000I-172500J0D01*
G01*
X116702500Y-110415000D01*
G75*
G02*
X116530000Y-110242500I0J172500D01*
G01*
X116530000Y-109897500D01*
G75*
G02*
X116702500Y-109725000I172500J0D01*
G01*
G37*
G36*
G01*
X116702500Y-108755000D02*
X117097500Y-108755000D01*
G75*
G02*
X117270000Y-108927500I0J-172500D01*
G01*
X117270000Y-109272500D01*
G75*
G02*
X117097500Y-109445000I-172500J0D01*
G01*
X116702500Y-109445000D01*
G75*
G02*
X116530000Y-109272500I0J172500D01*
G01*
X116530000Y-108927500D01*
G75*
G02*
X116702500Y-108755000I172500J0D01*
G01*
G37*
%TD*%
D24*
%TO.C,C1*%
X97500000Y-137800000D03*
X102500000Y-137800000D03*
%TD*%
M02*
