%TF.GenerationSoftware,KiCad,Pcbnew,(5.1.6)-1*%
%TF.CreationDate,2021-07-30T18:26:22-07:00*%
%TF.ProjectId,Coil Driver,436f696c-2044-4726-9976-65722e6b6963,rev?*%
%TF.SameCoordinates,Original*%
%TF.FileFunction,Copper,L2,Inr*%
%TF.FilePolarity,Positive*%
%FSLAX46Y46*%
G04 Gerber Fmt 4.6, Leading zero omitted, Abs format (unit mm)*
G04 Created by KiCad (PCBNEW (5.1.6)-1) date 2021-07-30 18:26:22*
%MOMM*%
%LPD*%
G01*
G04 APERTURE LIST*
%TA.AperFunction,ViaPad*%
%ADD10O,1.700000X1.700000*%
%TD*%
%TA.AperFunction,ViaPad*%
%ADD11R,1.700000X1.700000*%
%TD*%
%TA.AperFunction,ViaPad*%
%ADD12C,2.600000*%
%TD*%
%TA.AperFunction,ViaPad*%
%ADD13R,2.600000X2.600000*%
%TD*%
%TA.AperFunction,ViaPad*%
%ADD14C,1.600000*%
%TD*%
%TA.AperFunction,ViaPad*%
%ADD15C,0.600000*%
%TD*%
%TA.AperFunction,Conductor*%
%ADD16C,0.254000*%
%TD*%
G04 APERTURE END LIST*
D10*
%TO.N,/VSW-*%
%TO.C,L2*%
X169900000Y-99240000D03*
D11*
%TO.N,Net-(C17-Pad1)*%
X169900000Y-96700000D03*
%TD*%
D10*
%TO.N,/EX1*%
%TO.C,J4*%
X135100000Y-88600000D03*
%TO.N,/EX2*%
X135100000Y-86060000D03*
%TO.N,/EX3*%
X135100000Y-83520000D03*
%TO.N,/LD3*%
X135100000Y-80980000D03*
%TO.N,/LD2*%
X135100000Y-78440000D03*
D11*
%TO.N,/LD1*%
X135100000Y-75900000D03*
%TD*%
D10*
%TO.N,GND*%
%TO.C,J2*%
X146340000Y-120800000D03*
D11*
%TO.N,VDD*%
X143800000Y-120800000D03*
%TD*%
D12*
%TO.N,Net-(J1-Pad3)*%
%TO.C,J1*%
X133900000Y-120800000D03*
%TO.N,GND*%
X130900000Y-116100000D03*
D13*
%TO.N,VDD*%
X136900000Y-116100000D03*
%TD*%
D14*
%TO.N,/VSW+*%
%TO.C,C17*%
X162500000Y-95500000D03*
%TO.N,Net-(C17-Pad1)*%
X162500000Y-100500000D03*
%TD*%
D15*
%TO.N,GND*%
X163750000Y-85300000D03*
X131100000Y-77300000D03*
X130100000Y-78350000D03*
X129700000Y-101800000D03*
X132400000Y-103300000D03*
X131100000Y-83300000D03*
X130100000Y-84300000D03*
X131100000Y-89300000D03*
X130100000Y-90350000D03*
X139150000Y-99750000D03*
X139650000Y-98850000D03*
X139650000Y-100600000D03*
X135750000Y-99700000D03*
X135600000Y-101100000D03*
X137400000Y-98100000D03*
X138900000Y-98100000D03*
X139950000Y-97100000D03*
X143800000Y-97900000D03*
X147800000Y-97900000D03*
X151800000Y-97900000D03*
X147700000Y-113950000D03*
X147700000Y-116700000D03*
X150050000Y-115300000D03*
X147700000Y-106700000D03*
X147700000Y-109450000D03*
X150050000Y-108100000D03*
X132400000Y-104550000D03*
X130950000Y-105200000D03*
X137650000Y-102200000D03*
X137650000Y-103700000D03*
X136650000Y-104700000D03*
X138850000Y-101500000D03*
X137600000Y-101100000D03*
X139450000Y-90750000D03*
X138900000Y-91800000D03*
X140250000Y-93150000D03*
X146550000Y-88300000D03*
X146550000Y-85500000D03*
X146550000Y-82650000D03*
X150400000Y-78700000D03*
X148240000Y-76590000D03*
X150450000Y-74300000D03*
X153100000Y-74300000D03*
X155650000Y-74300000D03*
X160700000Y-74300000D03*
X163150000Y-74300000D03*
X168150000Y-74300000D03*
X170650000Y-74300000D03*
X173400000Y-74300000D03*
X150000000Y-82900000D03*
X151400000Y-84200000D03*
X144750000Y-78650000D03*
X143900000Y-79550000D03*
X140150000Y-78650000D03*
X139200000Y-79550000D03*
X138200000Y-80600000D03*
X139050000Y-81650000D03*
X140650000Y-87650000D03*
X166050000Y-113700000D03*
X165950000Y-114550000D03*
X165400000Y-115600000D03*
X166300000Y-116650000D03*
X163850000Y-82350000D03*
X163950000Y-81650000D03*
X164650000Y-80350000D03*
X164600000Y-81200000D03*
X160400000Y-108150000D03*
X162800000Y-107300000D03*
X161500000Y-109150000D03*
X159500000Y-112700000D03*
X172550000Y-107800000D03*
X171550000Y-108800000D03*
X171550000Y-105250000D03*
X172550000Y-106300000D03*
X161300000Y-103750000D03*
X159500000Y-102300000D03*
X159500000Y-105200000D03*
X157700000Y-103750000D03*
X170500000Y-93650000D03*
X172350000Y-92250000D03*
X170500000Y-90750000D03*
X168650000Y-92250000D03*
X169550000Y-87850000D03*
X168500000Y-86800000D03*
X167650000Y-86750000D03*
X167500000Y-88650000D03*
X170500000Y-83250000D03*
X171550000Y-84250000D03*
X157450000Y-88200000D03*
X157450000Y-89700000D03*
X158450000Y-90750000D03*
X158450000Y-87200000D03*
X166250000Y-110500000D03*
X141000000Y-77850000D03*
X143900000Y-77850000D03*
X163150000Y-82350000D03*
X166750000Y-113550000D03*
X166629410Y-83604800D03*
X162350000Y-109220590D03*
X127000000Y-97000000D03*
X127000000Y-93000000D03*
X127000000Y-88000000D03*
X127000000Y-83000000D03*
X127000000Y-78000000D03*
X127000000Y-74000000D03*
X132000000Y-74000000D03*
X137000000Y-74000000D03*
X142000000Y-74000000D03*
X147000000Y-74000000D03*
X175000000Y-74000000D03*
X175000000Y-79000000D03*
X175000000Y-89000000D03*
X175000000Y-99000000D03*
X175000000Y-109000000D03*
X175000000Y-119000000D03*
X175000000Y-122000000D03*
X170000000Y-122000000D03*
X165000000Y-122000000D03*
X160000000Y-122000000D03*
X155000000Y-122000000D03*
X150000000Y-122000000D03*
X130000000Y-122000000D03*
X127000000Y-122000000D03*
X127000000Y-117000000D03*
X127000000Y-112000000D03*
X154000000Y-79000000D03*
X133000000Y-83000000D03*
X133000000Y-89000000D03*
X137000000Y-76000000D03*
X138000000Y-79000000D03*
X146000000Y-76000000D03*
X139000000Y-77000000D03*
X151000000Y-81000000D03*
X143300000Y-86350000D03*
X144000000Y-105000000D03*
X140000000Y-105000000D03*
X144000000Y-102000000D03*
X146000000Y-105000000D03*
X146000000Y-102000000D03*
X153500000Y-105000000D03*
X145000000Y-96000000D03*
X149000000Y-96000000D03*
X127000000Y-104000000D03*
X133000000Y-114000000D03*
X128000000Y-114000000D03*
X133000000Y-118000000D03*
X129000000Y-120000000D03*
X152000000Y-112000000D03*
X152000000Y-118000000D03*
X157000000Y-118000000D03*
X162000000Y-118000000D03*
X156000000Y-112000000D03*
X172000000Y-118000000D03*
X172000000Y-114000000D03*
X159000000Y-108000000D03*
X157000000Y-106000000D03*
X156000000Y-104000000D03*
X156000000Y-102000000D03*
X156000000Y-100000000D03*
X156000000Y-98000000D03*
X156000000Y-96000000D03*
X156000000Y-94000000D03*
X156000000Y-92000000D03*
X156000000Y-90000000D03*
X156000000Y-88000000D03*
X158000000Y-82000000D03*
X167000000Y-80000000D03*
X161000000Y-82000000D03*
X167000000Y-81000000D03*
X172000000Y-89000000D03*
X172000000Y-81000000D03*
X165000000Y-96000000D03*
X167000000Y-94000000D03*
X165000000Y-102000000D03*
X167000000Y-100000000D03*
X171000000Y-102000000D03*
X150000000Y-103000000D03*
X154000000Y-115000000D03*
X158000000Y-115000000D03*
X156980000Y-78970000D03*
X152640000Y-83000000D03*
X152640000Y-87000000D03*
X148330000Y-91810000D03*
X153500000Y-97000000D03*
X153500000Y-101000000D03*
X153500000Y-107000000D03*
X155550000Y-109000000D03*
X157550000Y-111000000D03*
X161000000Y-114000000D03*
X163000000Y-116000000D03*
X166000000Y-118000000D03*
X173000000Y-115000000D03*
X175000000Y-113000000D03*
X175000000Y-111000000D03*
X175000000Y-107000000D03*
X175000000Y-105000000D03*
X175000000Y-103000000D03*
X175000000Y-101000000D03*
X175000000Y-97000000D03*
X175000000Y-95000000D03*
X175000000Y-93000000D03*
X175000000Y-91000000D03*
X175000000Y-87000000D03*
X175000000Y-85000000D03*
X175000000Y-83000000D03*
X169000000Y-79000000D03*
X171000000Y-79000000D03*
X173000000Y-79000000D03*
X160720000Y-78150000D03*
X162720000Y-78150000D03*
X153000000Y-93250000D03*
X129500000Y-98750000D03*
X129500000Y-99500000D03*
X128500000Y-99500000D03*
X128500000Y-98750000D03*
X134850000Y-106950000D03*
X139000000Y-85900000D03*
X137050000Y-84550000D03*
X154980000Y-80970000D03*
X175000000Y-81000000D03*
X159000000Y-98000000D03*
%TO.N,+12V*%
X128000000Y-108000000D03*
X129000000Y-108000000D03*
X130000000Y-108000000D03*
X128000000Y-109000000D03*
X129000000Y-109000000D03*
X130000000Y-109000000D03*
X128000000Y-110000000D03*
X129000000Y-110000000D03*
X130000000Y-110000000D03*
X130000000Y-111000000D03*
X129000000Y-111000000D03*
X130000000Y-112000000D03*
X129000000Y-112000000D03*
X131000000Y-112000000D03*
X132000000Y-112000000D03*
X133000000Y-112000000D03*
X149800000Y-97950000D03*
X161050000Y-80950000D03*
X160050000Y-90750000D03*
X161500000Y-89700000D03*
X161500000Y-90750000D03*
X168500000Y-105250000D03*
X169950000Y-105250000D03*
X168500000Y-106300000D03*
X157650000Y-92250000D03*
X159500000Y-93700000D03*
X169950000Y-108700000D03*
X160047341Y-87187410D03*
X168950000Y-115050000D03*
X168950000Y-116150022D03*
X161050000Y-80000000D03*
%TO.N,/VSW+*%
X165000000Y-87250000D03*
X155950000Y-84500000D03*
%TO.N,+3V3*%
X138925000Y-94500000D03*
X137450000Y-94500000D03*
X140000000Y-94500000D03*
X141000000Y-94500000D03*
X140000000Y-95500000D03*
X141000000Y-95500000D03*
X140300009Y-79700005D03*
X141349987Y-79700013D03*
X141550000Y-93150000D03*
X142450000Y-92100000D03*
X147450000Y-89600000D03*
X147450000Y-86800000D03*
X147450000Y-84000000D03*
X149150000Y-74550000D03*
X141800000Y-97950000D03*
X151680000Y-86270000D03*
%TO.N,Net-(C23-Pad1)*%
X143425000Y-84750000D03*
X166775000Y-76475000D03*
%TO.N,/VSW-*%
X174050000Y-111500000D03*
X165079410Y-108750000D03*
%TO.N,Net-(C27-Pad1)*%
X141775000Y-86150000D03*
X151775000Y-75295600D03*
%TO.N,/GD_EN*%
X164750000Y-110150000D03*
X169000000Y-85850000D03*
X137600000Y-90450000D03*
X143700000Y-95150000D03*
X165237594Y-85873012D03*
X160950026Y-110150000D03*
%TO.N,/HIN*%
X154500000Y-92550000D03*
X165800000Y-84900000D03*
X164075005Y-110975005D03*
%TO.N,/LIN*%
X154450000Y-94100000D03*
X166500000Y-85270590D03*
X163669427Y-111617033D03*
%TO.N,Net-(R24-Pad2)*%
X139525000Y-87450000D03*
X143675000Y-94100000D03*
%TO.N,Net-(C26-Pad1)*%
X142750000Y-85500000D03*
X159275000Y-75875000D03*
%TD*%
D16*
%TO.N,/GD_EN*%
X169000000Y-85850000D02*
X170400000Y-85850000D01*
%TD*%
%TO.N,GND*%
G36*
X148707111Y-73721414D02*
G01*
X148553972Y-73823738D01*
X148423738Y-73953972D01*
X148321414Y-74107111D01*
X148250932Y-74277271D01*
X148215000Y-74457911D01*
X148215000Y-74642089D01*
X148250932Y-74822729D01*
X148321414Y-74992889D01*
X148423738Y-75146028D01*
X148553972Y-75276262D01*
X148707111Y-75378586D01*
X148877271Y-75449068D01*
X149057911Y-75485000D01*
X149242089Y-75485000D01*
X149422729Y-75449068D01*
X149592889Y-75378586D01*
X149746028Y-75276262D01*
X149818779Y-75203511D01*
X150840000Y-75203511D01*
X150840000Y-75387689D01*
X150875932Y-75568329D01*
X150946414Y-75738489D01*
X151048738Y-75891628D01*
X151178972Y-76021862D01*
X151332111Y-76124186D01*
X151502271Y-76194668D01*
X151682911Y-76230600D01*
X151867089Y-76230600D01*
X152047729Y-76194668D01*
X152217889Y-76124186D01*
X152371028Y-76021862D01*
X152501262Y-75891628D01*
X152573904Y-75782911D01*
X158340000Y-75782911D01*
X158340000Y-75967089D01*
X158375932Y-76147729D01*
X158446414Y-76317889D01*
X158548738Y-76471028D01*
X158678972Y-76601262D01*
X158832111Y-76703586D01*
X159002271Y-76774068D01*
X159182911Y-76810000D01*
X159367089Y-76810000D01*
X159547729Y-76774068D01*
X159717889Y-76703586D01*
X159871028Y-76601262D01*
X160001262Y-76471028D01*
X160060139Y-76382911D01*
X165840000Y-76382911D01*
X165840000Y-76567089D01*
X165875932Y-76747729D01*
X165946414Y-76917889D01*
X166048738Y-77071028D01*
X166178972Y-77201262D01*
X166332111Y-77303586D01*
X166502271Y-77374068D01*
X166682911Y-77410000D01*
X166867089Y-77410000D01*
X167047729Y-77374068D01*
X167217889Y-77303586D01*
X167371028Y-77201262D01*
X167501262Y-77071028D01*
X167603586Y-76917889D01*
X167674068Y-76747729D01*
X167710000Y-76567089D01*
X167710000Y-76382911D01*
X167674068Y-76202271D01*
X167603586Y-76032111D01*
X167501262Y-75878972D01*
X167371028Y-75748738D01*
X167217889Y-75646414D01*
X167047729Y-75575932D01*
X166867089Y-75540000D01*
X166682911Y-75540000D01*
X166502271Y-75575932D01*
X166332111Y-75646414D01*
X166178972Y-75748738D01*
X166048738Y-75878972D01*
X165946414Y-76032111D01*
X165875932Y-76202271D01*
X165840000Y-76382911D01*
X160060139Y-76382911D01*
X160103586Y-76317889D01*
X160174068Y-76147729D01*
X160210000Y-75967089D01*
X160210000Y-75782911D01*
X160174068Y-75602271D01*
X160103586Y-75432111D01*
X160001262Y-75278972D01*
X159871028Y-75148738D01*
X159717889Y-75046414D01*
X159547729Y-74975932D01*
X159367089Y-74940000D01*
X159182911Y-74940000D01*
X159002271Y-74975932D01*
X158832111Y-75046414D01*
X158678972Y-75148738D01*
X158548738Y-75278972D01*
X158446414Y-75432111D01*
X158375932Y-75602271D01*
X158340000Y-75782911D01*
X152573904Y-75782911D01*
X152603586Y-75738489D01*
X152674068Y-75568329D01*
X152710000Y-75387689D01*
X152710000Y-75203511D01*
X152674068Y-75022871D01*
X152603586Y-74852711D01*
X152501262Y-74699572D01*
X152371028Y-74569338D01*
X152217889Y-74467014D01*
X152047729Y-74396532D01*
X151867089Y-74360600D01*
X151682911Y-74360600D01*
X151502271Y-74396532D01*
X151332111Y-74467014D01*
X151178972Y-74569338D01*
X151048738Y-74699572D01*
X150946414Y-74852711D01*
X150875932Y-75022871D01*
X150840000Y-75203511D01*
X149818779Y-75203511D01*
X149876262Y-75146028D01*
X149978586Y-74992889D01*
X150049068Y-74822729D01*
X150085000Y-74642089D01*
X150085000Y-74457911D01*
X150049068Y-74277271D01*
X149978586Y-74107111D01*
X149876262Y-73953972D01*
X149746028Y-73823738D01*
X149592889Y-73721414D01*
X149565333Y-73710000D01*
X174965278Y-73710000D01*
X175055665Y-73718863D01*
X175109214Y-73735030D01*
X175158597Y-73761288D01*
X175201945Y-73796641D01*
X175237600Y-73839740D01*
X175264201Y-73888937D01*
X175280742Y-73942375D01*
X175290000Y-74030455D01*
X175290001Y-121965269D01*
X175281138Y-122055664D01*
X175264970Y-122109214D01*
X175238712Y-122158597D01*
X175203357Y-122201947D01*
X175160261Y-122237599D01*
X175111063Y-122264201D01*
X175057625Y-122280742D01*
X174969545Y-122290000D01*
X135146504Y-122290000D01*
X135403013Y-122033491D01*
X135614775Y-121716566D01*
X135760639Y-121364419D01*
X135835000Y-120990581D01*
X135835000Y-120609419D01*
X135760639Y-120235581D01*
X135642348Y-119950000D01*
X142311928Y-119950000D01*
X142311928Y-121650000D01*
X142324188Y-121774482D01*
X142360498Y-121894180D01*
X142419463Y-122004494D01*
X142498815Y-122101185D01*
X142595506Y-122180537D01*
X142705820Y-122239502D01*
X142825518Y-122275812D01*
X142950000Y-122288072D01*
X144650000Y-122288072D01*
X144774482Y-122275812D01*
X144894180Y-122239502D01*
X145004494Y-122180537D01*
X145101185Y-122101185D01*
X145180537Y-122004494D01*
X145239502Y-121894180D01*
X145263966Y-121813534D01*
X145339731Y-121897588D01*
X145573080Y-122071641D01*
X145835901Y-122196825D01*
X145983110Y-122241476D01*
X146213000Y-122120155D01*
X146213000Y-120927000D01*
X146467000Y-120927000D01*
X146467000Y-122120155D01*
X146696890Y-122241476D01*
X146844099Y-122196825D01*
X147106920Y-122071641D01*
X147340269Y-121897588D01*
X147535178Y-121681355D01*
X147684157Y-121431252D01*
X147781481Y-121156891D01*
X147660814Y-120927000D01*
X146467000Y-120927000D01*
X146213000Y-120927000D01*
X146193000Y-120927000D01*
X146193000Y-120673000D01*
X146213000Y-120673000D01*
X146213000Y-119479845D01*
X146467000Y-119479845D01*
X146467000Y-120673000D01*
X147660814Y-120673000D01*
X147781481Y-120443109D01*
X147684157Y-120168748D01*
X147535178Y-119918645D01*
X147340269Y-119702412D01*
X147106920Y-119528359D01*
X146844099Y-119403175D01*
X146696890Y-119358524D01*
X146467000Y-119479845D01*
X146213000Y-119479845D01*
X145983110Y-119358524D01*
X145835901Y-119403175D01*
X145573080Y-119528359D01*
X145339731Y-119702412D01*
X145263966Y-119786466D01*
X145239502Y-119705820D01*
X145180537Y-119595506D01*
X145101185Y-119498815D01*
X145004494Y-119419463D01*
X144894180Y-119360498D01*
X144774482Y-119324188D01*
X144650000Y-119311928D01*
X142950000Y-119311928D01*
X142825518Y-119324188D01*
X142705820Y-119360498D01*
X142595506Y-119419463D01*
X142498815Y-119498815D01*
X142419463Y-119595506D01*
X142360498Y-119705820D01*
X142324188Y-119825518D01*
X142311928Y-119950000D01*
X135642348Y-119950000D01*
X135614775Y-119883434D01*
X135403013Y-119566509D01*
X135133491Y-119296987D01*
X134816566Y-119085225D01*
X134464419Y-118939361D01*
X134090581Y-118865000D01*
X133709419Y-118865000D01*
X133335581Y-118939361D01*
X132983434Y-119085225D01*
X132666509Y-119296987D01*
X132396987Y-119566509D01*
X132185225Y-119883434D01*
X132039361Y-120235581D01*
X131965000Y-120609419D01*
X131965000Y-120990581D01*
X132039361Y-121364419D01*
X132185225Y-121716566D01*
X132396987Y-122033491D01*
X132653496Y-122290000D01*
X127034721Y-122290000D01*
X126944336Y-122281138D01*
X126890786Y-122264970D01*
X126841403Y-122238712D01*
X126798053Y-122203357D01*
X126762401Y-122160261D01*
X126735799Y-122111063D01*
X126719258Y-122057625D01*
X126710000Y-121969545D01*
X126710000Y-117449224D01*
X129730381Y-117449224D01*
X129862317Y-117744312D01*
X130203045Y-117915159D01*
X130570557Y-118016250D01*
X130950729Y-118043701D01*
X131328951Y-117996457D01*
X131690690Y-117876333D01*
X131937683Y-117744312D01*
X132069619Y-117449224D01*
X130900000Y-116279605D01*
X129730381Y-117449224D01*
X126710000Y-117449224D01*
X126710000Y-116150729D01*
X128956299Y-116150729D01*
X129003543Y-116528951D01*
X129123667Y-116890690D01*
X129255688Y-117137683D01*
X129550776Y-117269619D01*
X130720395Y-116100000D01*
X131079605Y-116100000D01*
X132249224Y-117269619D01*
X132544312Y-117137683D01*
X132715159Y-116796955D01*
X132816250Y-116429443D01*
X132843701Y-116049271D01*
X132796457Y-115671049D01*
X132676333Y-115309310D01*
X132544312Y-115062317D01*
X132249224Y-114930381D01*
X131079605Y-116100000D01*
X130720395Y-116100000D01*
X129550776Y-114930381D01*
X129255688Y-115062317D01*
X129084841Y-115403045D01*
X128983750Y-115770557D01*
X128956299Y-116150729D01*
X126710000Y-116150729D01*
X126710000Y-114750776D01*
X129730381Y-114750776D01*
X130900000Y-115920395D01*
X132020395Y-114800000D01*
X134961928Y-114800000D01*
X134961928Y-117400000D01*
X134974188Y-117524482D01*
X135010498Y-117644180D01*
X135069463Y-117754494D01*
X135148815Y-117851185D01*
X135245506Y-117930537D01*
X135355820Y-117989502D01*
X135475518Y-118025812D01*
X135600000Y-118038072D01*
X138200000Y-118038072D01*
X138324482Y-118025812D01*
X138444180Y-117989502D01*
X138554494Y-117930537D01*
X138651185Y-117851185D01*
X138730537Y-117754494D01*
X138789502Y-117644180D01*
X138825812Y-117524482D01*
X138838072Y-117400000D01*
X138838072Y-114957911D01*
X168015000Y-114957911D01*
X168015000Y-115142089D01*
X168050932Y-115322729D01*
X168121414Y-115492889D01*
X168192990Y-115600011D01*
X168121414Y-115707133D01*
X168050932Y-115877293D01*
X168015000Y-116057933D01*
X168015000Y-116242111D01*
X168050932Y-116422751D01*
X168121414Y-116592911D01*
X168223738Y-116746050D01*
X168353972Y-116876284D01*
X168507111Y-116978608D01*
X168677271Y-117049090D01*
X168857911Y-117085022D01*
X169042089Y-117085022D01*
X169222729Y-117049090D01*
X169392889Y-116978608D01*
X169546028Y-116876284D01*
X169676262Y-116746050D01*
X169778586Y-116592911D01*
X169849068Y-116422751D01*
X169885000Y-116242111D01*
X169885000Y-116057933D01*
X169849068Y-115877293D01*
X169778586Y-115707133D01*
X169707010Y-115600011D01*
X169778586Y-115492889D01*
X169849068Y-115322729D01*
X169885000Y-115142089D01*
X169885000Y-114957911D01*
X169849068Y-114777271D01*
X169778586Y-114607111D01*
X169676262Y-114453972D01*
X169546028Y-114323738D01*
X169392889Y-114221414D01*
X169222729Y-114150932D01*
X169042089Y-114115000D01*
X168857911Y-114115000D01*
X168677271Y-114150932D01*
X168507111Y-114221414D01*
X168353972Y-114323738D01*
X168223738Y-114453972D01*
X168121414Y-114607111D01*
X168050932Y-114777271D01*
X168015000Y-114957911D01*
X138838072Y-114957911D01*
X138838072Y-114800000D01*
X138825812Y-114675518D01*
X138789502Y-114555820D01*
X138730537Y-114445506D01*
X138651185Y-114348815D01*
X138554494Y-114269463D01*
X138444180Y-114210498D01*
X138324482Y-114174188D01*
X138200000Y-114161928D01*
X135600000Y-114161928D01*
X135475518Y-114174188D01*
X135355820Y-114210498D01*
X135245506Y-114269463D01*
X135148815Y-114348815D01*
X135069463Y-114445506D01*
X135010498Y-114555820D01*
X134974188Y-114675518D01*
X134961928Y-114800000D01*
X132020395Y-114800000D01*
X132069619Y-114750776D01*
X131937683Y-114455688D01*
X131596955Y-114284841D01*
X131229443Y-114183750D01*
X130849271Y-114156299D01*
X130471049Y-114203543D01*
X130109310Y-114323667D01*
X129862317Y-114455688D01*
X129730381Y-114750776D01*
X126710000Y-114750776D01*
X126710000Y-107907911D01*
X127065000Y-107907911D01*
X127065000Y-108092089D01*
X127100932Y-108272729D01*
X127171414Y-108442889D01*
X127209574Y-108500000D01*
X127171414Y-108557111D01*
X127100932Y-108727271D01*
X127065000Y-108907911D01*
X127065000Y-109092089D01*
X127100932Y-109272729D01*
X127171414Y-109442889D01*
X127209574Y-109500000D01*
X127171414Y-109557111D01*
X127100932Y-109727271D01*
X127065000Y-109907911D01*
X127065000Y-110092089D01*
X127100932Y-110272729D01*
X127171414Y-110442889D01*
X127273738Y-110596028D01*
X127403972Y-110726262D01*
X127557111Y-110828586D01*
X127727271Y-110899068D01*
X127907911Y-110935000D01*
X128065000Y-110935000D01*
X128065000Y-111092089D01*
X128100932Y-111272729D01*
X128171414Y-111442889D01*
X128209574Y-111500000D01*
X128171414Y-111557111D01*
X128100932Y-111727271D01*
X128065000Y-111907911D01*
X128065000Y-112092089D01*
X128100932Y-112272729D01*
X128171414Y-112442889D01*
X128273738Y-112596028D01*
X128403972Y-112726262D01*
X128557111Y-112828586D01*
X128727271Y-112899068D01*
X128907911Y-112935000D01*
X129092089Y-112935000D01*
X129272729Y-112899068D01*
X129442889Y-112828586D01*
X129500000Y-112790426D01*
X129557111Y-112828586D01*
X129727271Y-112899068D01*
X129907911Y-112935000D01*
X130092089Y-112935000D01*
X130272729Y-112899068D01*
X130442889Y-112828586D01*
X130500000Y-112790426D01*
X130557111Y-112828586D01*
X130727271Y-112899068D01*
X130907911Y-112935000D01*
X131092089Y-112935000D01*
X131272729Y-112899068D01*
X131442889Y-112828586D01*
X131500000Y-112790426D01*
X131557111Y-112828586D01*
X131727271Y-112899068D01*
X131907911Y-112935000D01*
X132092089Y-112935000D01*
X132272729Y-112899068D01*
X132442889Y-112828586D01*
X132500000Y-112790426D01*
X132557111Y-112828586D01*
X132727271Y-112899068D01*
X132907911Y-112935000D01*
X133092089Y-112935000D01*
X133272729Y-112899068D01*
X133442889Y-112828586D01*
X133596028Y-112726262D01*
X133726262Y-112596028D01*
X133828586Y-112442889D01*
X133899068Y-112272729D01*
X133935000Y-112092089D01*
X133935000Y-111907911D01*
X133899068Y-111727271D01*
X133828586Y-111557111D01*
X133807093Y-111524944D01*
X162734427Y-111524944D01*
X162734427Y-111709122D01*
X162770359Y-111889762D01*
X162840841Y-112059922D01*
X162943165Y-112213061D01*
X163073399Y-112343295D01*
X163226538Y-112445619D01*
X163396698Y-112516101D01*
X163577338Y-112552033D01*
X163761516Y-112552033D01*
X163942156Y-112516101D01*
X164112316Y-112445619D01*
X164265455Y-112343295D01*
X164395689Y-112213061D01*
X164498013Y-112059922D01*
X164568495Y-111889762D01*
X164596019Y-111751389D01*
X164671033Y-111701267D01*
X164801267Y-111571033D01*
X164903591Y-111417894D01*
X164907726Y-111407911D01*
X173115000Y-111407911D01*
X173115000Y-111592089D01*
X173150932Y-111772729D01*
X173221414Y-111942889D01*
X173323738Y-112096028D01*
X173453972Y-112226262D01*
X173607111Y-112328586D01*
X173777271Y-112399068D01*
X173957911Y-112435000D01*
X174142089Y-112435000D01*
X174322729Y-112399068D01*
X174492889Y-112328586D01*
X174646028Y-112226262D01*
X174776262Y-112096028D01*
X174878586Y-111942889D01*
X174949068Y-111772729D01*
X174985000Y-111592089D01*
X174985000Y-111407911D01*
X174949068Y-111227271D01*
X174878586Y-111057111D01*
X174776262Y-110903972D01*
X174646028Y-110773738D01*
X174492889Y-110671414D01*
X174322729Y-110600932D01*
X174142089Y-110565000D01*
X173957911Y-110565000D01*
X173777271Y-110600932D01*
X173607111Y-110671414D01*
X173453972Y-110773738D01*
X173323738Y-110903972D01*
X173221414Y-111057111D01*
X173150932Y-111227271D01*
X173115000Y-111407911D01*
X164907726Y-111407911D01*
X164974073Y-111247734D01*
X165010005Y-111067094D01*
X165010005Y-111051599D01*
X165022729Y-111049068D01*
X165192889Y-110978586D01*
X165346028Y-110876262D01*
X165476262Y-110746028D01*
X165578586Y-110592889D01*
X165649068Y-110422729D01*
X165685000Y-110242089D01*
X165685000Y-110057911D01*
X165649068Y-109877271D01*
X165578586Y-109707111D01*
X165499123Y-109588186D01*
X165522299Y-109578586D01*
X165675438Y-109476262D01*
X165805672Y-109346028D01*
X165907996Y-109192889D01*
X165978478Y-109022729D01*
X166014410Y-108842089D01*
X166014410Y-108657911D01*
X166004465Y-108607911D01*
X169015000Y-108607911D01*
X169015000Y-108792089D01*
X169050932Y-108972729D01*
X169121414Y-109142889D01*
X169223738Y-109296028D01*
X169353972Y-109426262D01*
X169507111Y-109528586D01*
X169677271Y-109599068D01*
X169857911Y-109635000D01*
X170042089Y-109635000D01*
X170222729Y-109599068D01*
X170392889Y-109528586D01*
X170546028Y-109426262D01*
X170676262Y-109296028D01*
X170778586Y-109142889D01*
X170849068Y-108972729D01*
X170885000Y-108792089D01*
X170885000Y-108607911D01*
X170849068Y-108427271D01*
X170778586Y-108257111D01*
X170676262Y-108103972D01*
X170546028Y-107973738D01*
X170392889Y-107871414D01*
X170222729Y-107800932D01*
X170042089Y-107765000D01*
X169857911Y-107765000D01*
X169677271Y-107800932D01*
X169507111Y-107871414D01*
X169353972Y-107973738D01*
X169223738Y-108103972D01*
X169121414Y-108257111D01*
X169050932Y-108427271D01*
X169015000Y-108607911D01*
X166004465Y-108607911D01*
X165978478Y-108477271D01*
X165907996Y-108307111D01*
X165805672Y-108153972D01*
X165675438Y-108023738D01*
X165522299Y-107921414D01*
X165352139Y-107850932D01*
X165171499Y-107815000D01*
X164987321Y-107815000D01*
X164806681Y-107850932D01*
X164636521Y-107921414D01*
X164483382Y-108023738D01*
X164353148Y-108153972D01*
X164250824Y-108307111D01*
X164180342Y-108477271D01*
X164144410Y-108657911D01*
X164144410Y-108842089D01*
X164180342Y-109022729D01*
X164250824Y-109192889D01*
X164330287Y-109311814D01*
X164307111Y-109321414D01*
X164153972Y-109423738D01*
X164023738Y-109553972D01*
X163921414Y-109707111D01*
X163850932Y-109877271D01*
X163815000Y-110057911D01*
X163815000Y-110073406D01*
X163802276Y-110075937D01*
X163632116Y-110146419D01*
X163478977Y-110248743D01*
X163348743Y-110378977D01*
X163246419Y-110532116D01*
X163175937Y-110702276D01*
X163148413Y-110840649D01*
X163073399Y-110890771D01*
X162943165Y-111021005D01*
X162840841Y-111174144D01*
X162770359Y-111344304D01*
X162734427Y-111524944D01*
X133807093Y-111524944D01*
X133726262Y-111403972D01*
X133596028Y-111273738D01*
X133442889Y-111171414D01*
X133272729Y-111100932D01*
X133092089Y-111065000D01*
X132907911Y-111065000D01*
X132727271Y-111100932D01*
X132557111Y-111171414D01*
X132500000Y-111209574D01*
X132442889Y-111171414D01*
X132272729Y-111100932D01*
X132092089Y-111065000D01*
X131907911Y-111065000D01*
X131727271Y-111100932D01*
X131557111Y-111171414D01*
X131500000Y-111209574D01*
X131442889Y-111171414D01*
X131272729Y-111100932D01*
X131092089Y-111065000D01*
X130935000Y-111065000D01*
X130935000Y-110907911D01*
X130899068Y-110727271D01*
X130828586Y-110557111D01*
X130790426Y-110500000D01*
X130828586Y-110442889D01*
X130899068Y-110272729D01*
X130935000Y-110092089D01*
X130935000Y-110057911D01*
X160015026Y-110057911D01*
X160015026Y-110242089D01*
X160050958Y-110422729D01*
X160121440Y-110592889D01*
X160223764Y-110746028D01*
X160353998Y-110876262D01*
X160507137Y-110978586D01*
X160677297Y-111049068D01*
X160857937Y-111085000D01*
X161042115Y-111085000D01*
X161222755Y-111049068D01*
X161392915Y-110978586D01*
X161546054Y-110876262D01*
X161676288Y-110746028D01*
X161778612Y-110592889D01*
X161849094Y-110422729D01*
X161885026Y-110242089D01*
X161885026Y-110057911D01*
X161849094Y-109877271D01*
X161778612Y-109707111D01*
X161676288Y-109553972D01*
X161546054Y-109423738D01*
X161392915Y-109321414D01*
X161222755Y-109250932D01*
X161042115Y-109215000D01*
X160857937Y-109215000D01*
X160677297Y-109250932D01*
X160507137Y-109321414D01*
X160353998Y-109423738D01*
X160223764Y-109553972D01*
X160121440Y-109707111D01*
X160050958Y-109877271D01*
X160015026Y-110057911D01*
X130935000Y-110057911D01*
X130935000Y-109907911D01*
X130899068Y-109727271D01*
X130828586Y-109557111D01*
X130790426Y-109500000D01*
X130828586Y-109442889D01*
X130899068Y-109272729D01*
X130935000Y-109092089D01*
X130935000Y-108907911D01*
X130899068Y-108727271D01*
X130828586Y-108557111D01*
X130790426Y-108500000D01*
X130828586Y-108442889D01*
X130899068Y-108272729D01*
X130935000Y-108092089D01*
X130935000Y-107907911D01*
X130899068Y-107727271D01*
X130828586Y-107557111D01*
X130726262Y-107403972D01*
X130596028Y-107273738D01*
X130442889Y-107171414D01*
X130272729Y-107100932D01*
X130092089Y-107065000D01*
X129907911Y-107065000D01*
X129727271Y-107100932D01*
X129557111Y-107171414D01*
X129500000Y-107209574D01*
X129442889Y-107171414D01*
X129272729Y-107100932D01*
X129092089Y-107065000D01*
X128907911Y-107065000D01*
X128727271Y-107100932D01*
X128557111Y-107171414D01*
X128500000Y-107209574D01*
X128442889Y-107171414D01*
X128272729Y-107100932D01*
X128092089Y-107065000D01*
X127907911Y-107065000D01*
X127727271Y-107100932D01*
X127557111Y-107171414D01*
X127403972Y-107273738D01*
X127273738Y-107403972D01*
X127171414Y-107557111D01*
X127100932Y-107727271D01*
X127065000Y-107907911D01*
X126710000Y-107907911D01*
X126710000Y-105157911D01*
X167565000Y-105157911D01*
X167565000Y-105342089D01*
X167600932Y-105522729D01*
X167671414Y-105692889D01*
X167726279Y-105775000D01*
X167671414Y-105857111D01*
X167600932Y-106027271D01*
X167565000Y-106207911D01*
X167565000Y-106392089D01*
X167600932Y-106572729D01*
X167671414Y-106742889D01*
X167773738Y-106896028D01*
X167903972Y-107026262D01*
X168057111Y-107128586D01*
X168227271Y-107199068D01*
X168407911Y-107235000D01*
X168592089Y-107235000D01*
X168772729Y-107199068D01*
X168942889Y-107128586D01*
X169096028Y-107026262D01*
X169226262Y-106896028D01*
X169328586Y-106742889D01*
X169399068Y-106572729D01*
X169435000Y-106392089D01*
X169435000Y-106207911D01*
X169399068Y-106027271D01*
X169387111Y-105998405D01*
X169507111Y-106078586D01*
X169677271Y-106149068D01*
X169857911Y-106185000D01*
X170042089Y-106185000D01*
X170222729Y-106149068D01*
X170392889Y-106078586D01*
X170546028Y-105976262D01*
X170676262Y-105846028D01*
X170778586Y-105692889D01*
X170849068Y-105522729D01*
X170885000Y-105342089D01*
X170885000Y-105157911D01*
X170849068Y-104977271D01*
X170778586Y-104807111D01*
X170676262Y-104653972D01*
X170546028Y-104523738D01*
X170392889Y-104421414D01*
X170222729Y-104350932D01*
X170042089Y-104315000D01*
X169857911Y-104315000D01*
X169677271Y-104350932D01*
X169507111Y-104421414D01*
X169353972Y-104523738D01*
X169225000Y-104652710D01*
X169096028Y-104523738D01*
X168942889Y-104421414D01*
X168772729Y-104350932D01*
X168592089Y-104315000D01*
X168407911Y-104315000D01*
X168227271Y-104350932D01*
X168057111Y-104421414D01*
X167903972Y-104523738D01*
X167773738Y-104653972D01*
X167671414Y-104807111D01*
X167600932Y-104977271D01*
X167565000Y-105157911D01*
X126710000Y-105157911D01*
X126710000Y-100358665D01*
X161065000Y-100358665D01*
X161065000Y-100641335D01*
X161120147Y-100918574D01*
X161228320Y-101179727D01*
X161385363Y-101414759D01*
X161585241Y-101614637D01*
X161820273Y-101771680D01*
X162081426Y-101879853D01*
X162358665Y-101935000D01*
X162641335Y-101935000D01*
X162918574Y-101879853D01*
X163179727Y-101771680D01*
X163414759Y-101614637D01*
X163614637Y-101414759D01*
X163771680Y-101179727D01*
X163879853Y-100918574D01*
X163935000Y-100641335D01*
X163935000Y-100358665D01*
X163879853Y-100081426D01*
X163771680Y-99820273D01*
X163614637Y-99585241D01*
X163414759Y-99385363D01*
X163179727Y-99228320D01*
X162918574Y-99120147D01*
X162641335Y-99065000D01*
X162358665Y-99065000D01*
X162081426Y-99120147D01*
X161820273Y-99228320D01*
X161585241Y-99385363D01*
X161385363Y-99585241D01*
X161228320Y-99820273D01*
X161120147Y-100081426D01*
X161065000Y-100358665D01*
X126710000Y-100358665D01*
X126710000Y-97857911D01*
X140865000Y-97857911D01*
X140865000Y-98042089D01*
X140900932Y-98222729D01*
X140971414Y-98392889D01*
X141073738Y-98546028D01*
X141203972Y-98676262D01*
X141357111Y-98778586D01*
X141527271Y-98849068D01*
X141707911Y-98885000D01*
X141892089Y-98885000D01*
X142072729Y-98849068D01*
X142242889Y-98778586D01*
X142396028Y-98676262D01*
X142526262Y-98546028D01*
X142628586Y-98392889D01*
X142699068Y-98222729D01*
X142735000Y-98042089D01*
X142735000Y-97857911D01*
X148865000Y-97857911D01*
X148865000Y-98042089D01*
X148900932Y-98222729D01*
X148971414Y-98392889D01*
X149073738Y-98546028D01*
X149203972Y-98676262D01*
X149357111Y-98778586D01*
X149527271Y-98849068D01*
X149707911Y-98885000D01*
X149892089Y-98885000D01*
X150072729Y-98849068D01*
X150242889Y-98778586D01*
X150396028Y-98676262D01*
X150526262Y-98546028D01*
X150628586Y-98392889D01*
X150699068Y-98222729D01*
X150735000Y-98042089D01*
X150735000Y-97857911D01*
X150699068Y-97677271D01*
X150628586Y-97507111D01*
X150526262Y-97353972D01*
X150396028Y-97223738D01*
X150242889Y-97121414D01*
X150072729Y-97050932D01*
X149892089Y-97015000D01*
X149707911Y-97015000D01*
X149527271Y-97050932D01*
X149357111Y-97121414D01*
X149203972Y-97223738D01*
X149073738Y-97353972D01*
X148971414Y-97507111D01*
X148900932Y-97677271D01*
X148865000Y-97857911D01*
X142735000Y-97857911D01*
X142699068Y-97677271D01*
X142628586Y-97507111D01*
X142526262Y-97353972D01*
X142396028Y-97223738D01*
X142242889Y-97121414D01*
X142072729Y-97050932D01*
X141892089Y-97015000D01*
X141707911Y-97015000D01*
X141527271Y-97050932D01*
X141357111Y-97121414D01*
X141203972Y-97223738D01*
X141073738Y-97353972D01*
X140971414Y-97507111D01*
X140900932Y-97677271D01*
X140865000Y-97857911D01*
X126710000Y-97857911D01*
X126710000Y-94407911D01*
X136515000Y-94407911D01*
X136515000Y-94592089D01*
X136550932Y-94772729D01*
X136621414Y-94942889D01*
X136723738Y-95096028D01*
X136853972Y-95226262D01*
X137007111Y-95328586D01*
X137177271Y-95399068D01*
X137357911Y-95435000D01*
X137542089Y-95435000D01*
X137722729Y-95399068D01*
X137892889Y-95328586D01*
X138046028Y-95226262D01*
X138176262Y-95096028D01*
X138187500Y-95079209D01*
X138198738Y-95096028D01*
X138328972Y-95226262D01*
X138482111Y-95328586D01*
X138652271Y-95399068D01*
X138832911Y-95435000D01*
X139017089Y-95435000D01*
X139065000Y-95425470D01*
X139065000Y-95592089D01*
X139100932Y-95772729D01*
X139171414Y-95942889D01*
X139273738Y-96096028D01*
X139403972Y-96226262D01*
X139557111Y-96328586D01*
X139727271Y-96399068D01*
X139907911Y-96435000D01*
X140092089Y-96435000D01*
X140272729Y-96399068D01*
X140442889Y-96328586D01*
X140500000Y-96290426D01*
X140557111Y-96328586D01*
X140727271Y-96399068D01*
X140907911Y-96435000D01*
X141092089Y-96435000D01*
X141272729Y-96399068D01*
X141442889Y-96328586D01*
X141596028Y-96226262D01*
X141726262Y-96096028D01*
X141828586Y-95942889D01*
X141899068Y-95772729D01*
X141935000Y-95592089D01*
X141935000Y-95407911D01*
X141899068Y-95227271D01*
X141828586Y-95057111D01*
X141790426Y-95000000D01*
X141828586Y-94942889D01*
X141899068Y-94772729D01*
X141935000Y-94592089D01*
X141935000Y-94407911D01*
X141899068Y-94227271D01*
X141828586Y-94057111D01*
X141823107Y-94048911D01*
X141922091Y-94007911D01*
X142740000Y-94007911D01*
X142740000Y-94192089D01*
X142775932Y-94372729D01*
X142846414Y-94542889D01*
X142913779Y-94643708D01*
X142871414Y-94707111D01*
X142800932Y-94877271D01*
X142765000Y-95057911D01*
X142765000Y-95242089D01*
X142800932Y-95422729D01*
X142871414Y-95592889D01*
X142973738Y-95746028D01*
X143103972Y-95876262D01*
X143257111Y-95978586D01*
X143427271Y-96049068D01*
X143607911Y-96085000D01*
X143792089Y-96085000D01*
X143972729Y-96049068D01*
X144142889Y-95978586D01*
X144296028Y-95876262D01*
X144426262Y-95746028D01*
X144528586Y-95592889D01*
X144599068Y-95422729D01*
X144611811Y-95358665D01*
X161065000Y-95358665D01*
X161065000Y-95641335D01*
X161120147Y-95918574D01*
X161228320Y-96179727D01*
X161385363Y-96414759D01*
X161585241Y-96614637D01*
X161820273Y-96771680D01*
X162081426Y-96879853D01*
X162358665Y-96935000D01*
X162641335Y-96935000D01*
X162918574Y-96879853D01*
X163179727Y-96771680D01*
X163414759Y-96614637D01*
X163614637Y-96414759D01*
X163771680Y-96179727D01*
X163879853Y-95918574D01*
X163893493Y-95850000D01*
X168411928Y-95850000D01*
X168411928Y-97550000D01*
X168424188Y-97674482D01*
X168460498Y-97794180D01*
X168519463Y-97904494D01*
X168598815Y-98001185D01*
X168695506Y-98080537D01*
X168805820Y-98139502D01*
X168878380Y-98161513D01*
X168746525Y-98293368D01*
X168584010Y-98536589D01*
X168472068Y-98806842D01*
X168415000Y-99093740D01*
X168415000Y-99386260D01*
X168472068Y-99673158D01*
X168584010Y-99943411D01*
X168746525Y-100186632D01*
X168953368Y-100393475D01*
X169196589Y-100555990D01*
X169466842Y-100667932D01*
X169753740Y-100725000D01*
X170046260Y-100725000D01*
X170333158Y-100667932D01*
X170603411Y-100555990D01*
X170846632Y-100393475D01*
X171053475Y-100186632D01*
X171215990Y-99943411D01*
X171327932Y-99673158D01*
X171385000Y-99386260D01*
X171385000Y-99093740D01*
X171327932Y-98806842D01*
X171215990Y-98536589D01*
X171053475Y-98293368D01*
X170921620Y-98161513D01*
X170994180Y-98139502D01*
X171104494Y-98080537D01*
X171201185Y-98001185D01*
X171280537Y-97904494D01*
X171339502Y-97794180D01*
X171375812Y-97674482D01*
X171388072Y-97550000D01*
X171388072Y-95850000D01*
X171375812Y-95725518D01*
X171339502Y-95605820D01*
X171280537Y-95495506D01*
X171201185Y-95398815D01*
X171104494Y-95319463D01*
X170994180Y-95260498D01*
X170874482Y-95224188D01*
X170750000Y-95211928D01*
X169050000Y-95211928D01*
X168925518Y-95224188D01*
X168805820Y-95260498D01*
X168695506Y-95319463D01*
X168598815Y-95398815D01*
X168519463Y-95495506D01*
X168460498Y-95605820D01*
X168424188Y-95725518D01*
X168411928Y-95850000D01*
X163893493Y-95850000D01*
X163935000Y-95641335D01*
X163935000Y-95358665D01*
X163879853Y-95081426D01*
X163771680Y-94820273D01*
X163614637Y-94585241D01*
X163414759Y-94385363D01*
X163179727Y-94228320D01*
X162918574Y-94120147D01*
X162641335Y-94065000D01*
X162358665Y-94065000D01*
X162081426Y-94120147D01*
X161820273Y-94228320D01*
X161585241Y-94385363D01*
X161385363Y-94585241D01*
X161228320Y-94820273D01*
X161120147Y-95081426D01*
X161065000Y-95358665D01*
X144611811Y-95358665D01*
X144635000Y-95242089D01*
X144635000Y-95057911D01*
X144599068Y-94877271D01*
X144528586Y-94707111D01*
X144461221Y-94606292D01*
X144503586Y-94542889D01*
X144574068Y-94372729D01*
X144610000Y-94192089D01*
X144610000Y-94007911D01*
X153515000Y-94007911D01*
X153515000Y-94192089D01*
X153550932Y-94372729D01*
X153621414Y-94542889D01*
X153723738Y-94696028D01*
X153853972Y-94826262D01*
X154007111Y-94928586D01*
X154177271Y-94999068D01*
X154357911Y-95035000D01*
X154542089Y-95035000D01*
X154722729Y-94999068D01*
X154892889Y-94928586D01*
X155046028Y-94826262D01*
X155176262Y-94696028D01*
X155278586Y-94542889D01*
X155349068Y-94372729D01*
X155385000Y-94192089D01*
X155385000Y-94007911D01*
X155349068Y-93827271D01*
X155278586Y-93657111D01*
X155245712Y-93607911D01*
X158565000Y-93607911D01*
X158565000Y-93792089D01*
X158600932Y-93972729D01*
X158671414Y-94142889D01*
X158773738Y-94296028D01*
X158903972Y-94426262D01*
X159057111Y-94528586D01*
X159227271Y-94599068D01*
X159407911Y-94635000D01*
X159592089Y-94635000D01*
X159772729Y-94599068D01*
X159942889Y-94528586D01*
X160096028Y-94426262D01*
X160226262Y-94296028D01*
X160328586Y-94142889D01*
X160399068Y-93972729D01*
X160435000Y-93792089D01*
X160435000Y-93607911D01*
X160399068Y-93427271D01*
X160328586Y-93257111D01*
X160226262Y-93103972D01*
X160096028Y-92973738D01*
X159942889Y-92871414D01*
X159772729Y-92800932D01*
X159592089Y-92765000D01*
X159407911Y-92765000D01*
X159227271Y-92800932D01*
X159057111Y-92871414D01*
X158903972Y-92973738D01*
X158773738Y-93103972D01*
X158671414Y-93257111D01*
X158600932Y-93427271D01*
X158565000Y-93607911D01*
X155245712Y-93607911D01*
X155176262Y-93503972D01*
X155046028Y-93373738D01*
X154998086Y-93341704D01*
X155096028Y-93276262D01*
X155226262Y-93146028D01*
X155328586Y-92992889D01*
X155399068Y-92822729D01*
X155435000Y-92642089D01*
X155435000Y-92457911D01*
X155399068Y-92277271D01*
X155349628Y-92157911D01*
X156715000Y-92157911D01*
X156715000Y-92342089D01*
X156750932Y-92522729D01*
X156821414Y-92692889D01*
X156923738Y-92846028D01*
X157053972Y-92976262D01*
X157207111Y-93078586D01*
X157377271Y-93149068D01*
X157557911Y-93185000D01*
X157742089Y-93185000D01*
X157922729Y-93149068D01*
X158092889Y-93078586D01*
X158246028Y-92976262D01*
X158376262Y-92846028D01*
X158478586Y-92692889D01*
X158549068Y-92522729D01*
X158585000Y-92342089D01*
X158585000Y-92157911D01*
X158549068Y-91977271D01*
X158478586Y-91807111D01*
X158376262Y-91653972D01*
X158246028Y-91523738D01*
X158092889Y-91421414D01*
X157922729Y-91350932D01*
X157742089Y-91315000D01*
X157557911Y-91315000D01*
X157377271Y-91350932D01*
X157207111Y-91421414D01*
X157053972Y-91523738D01*
X156923738Y-91653972D01*
X156821414Y-91807111D01*
X156750932Y-91977271D01*
X156715000Y-92157911D01*
X155349628Y-92157911D01*
X155328586Y-92107111D01*
X155226262Y-91953972D01*
X155096028Y-91823738D01*
X154942889Y-91721414D01*
X154772729Y-91650932D01*
X154592089Y-91615000D01*
X154407911Y-91615000D01*
X154227271Y-91650932D01*
X154057111Y-91721414D01*
X153903972Y-91823738D01*
X153773738Y-91953972D01*
X153671414Y-92107111D01*
X153600932Y-92277271D01*
X153565000Y-92457911D01*
X153565000Y-92642089D01*
X153600932Y-92822729D01*
X153671414Y-92992889D01*
X153773738Y-93146028D01*
X153903972Y-93276262D01*
X153951914Y-93308296D01*
X153853972Y-93373738D01*
X153723738Y-93503972D01*
X153621414Y-93657111D01*
X153550932Y-93827271D01*
X153515000Y-94007911D01*
X144610000Y-94007911D01*
X144574068Y-93827271D01*
X144503586Y-93657111D01*
X144401262Y-93503972D01*
X144271028Y-93373738D01*
X144117889Y-93271414D01*
X143947729Y-93200932D01*
X143767089Y-93165000D01*
X143582911Y-93165000D01*
X143402271Y-93200932D01*
X143232111Y-93271414D01*
X143078972Y-93373738D01*
X142948738Y-93503972D01*
X142846414Y-93657111D01*
X142775932Y-93827271D01*
X142740000Y-94007911D01*
X141922091Y-94007911D01*
X141992889Y-93978586D01*
X142146028Y-93876262D01*
X142276262Y-93746028D01*
X142378586Y-93592889D01*
X142449068Y-93422729D01*
X142485000Y-93242089D01*
X142485000Y-93057911D01*
X142480443Y-93035000D01*
X142542089Y-93035000D01*
X142722729Y-92999068D01*
X142892889Y-92928586D01*
X143046028Y-92826262D01*
X143176262Y-92696028D01*
X143278586Y-92542889D01*
X143349068Y-92372729D01*
X143385000Y-92192089D01*
X143385000Y-92007911D01*
X143349068Y-91827271D01*
X143278586Y-91657111D01*
X143176262Y-91503972D01*
X143046028Y-91373738D01*
X142892889Y-91271414D01*
X142722729Y-91200932D01*
X142542089Y-91165000D01*
X142357911Y-91165000D01*
X142177271Y-91200932D01*
X142007111Y-91271414D01*
X141853972Y-91373738D01*
X141723738Y-91503972D01*
X141621414Y-91657111D01*
X141550932Y-91827271D01*
X141515000Y-92007911D01*
X141515000Y-92192089D01*
X141519557Y-92215000D01*
X141457911Y-92215000D01*
X141277271Y-92250932D01*
X141107111Y-92321414D01*
X140953972Y-92423738D01*
X140823738Y-92553972D01*
X140721414Y-92707111D01*
X140650932Y-92877271D01*
X140615000Y-93057911D01*
X140615000Y-93242089D01*
X140650932Y-93422729D01*
X140721414Y-93592889D01*
X140726893Y-93601089D01*
X140557111Y-93671414D01*
X140500000Y-93709574D01*
X140442889Y-93671414D01*
X140272729Y-93600932D01*
X140092089Y-93565000D01*
X139907911Y-93565000D01*
X139727271Y-93600932D01*
X139557111Y-93671414D01*
X139462500Y-93734631D01*
X139367889Y-93671414D01*
X139197729Y-93600932D01*
X139017089Y-93565000D01*
X138832911Y-93565000D01*
X138652271Y-93600932D01*
X138482111Y-93671414D01*
X138328972Y-93773738D01*
X138198738Y-93903972D01*
X138187500Y-93920791D01*
X138176262Y-93903972D01*
X138046028Y-93773738D01*
X137892889Y-93671414D01*
X137722729Y-93600932D01*
X137542089Y-93565000D01*
X137357911Y-93565000D01*
X137177271Y-93600932D01*
X137007111Y-93671414D01*
X136853972Y-93773738D01*
X136723738Y-93903972D01*
X136621414Y-94057111D01*
X136550932Y-94227271D01*
X136515000Y-94407911D01*
X126710000Y-94407911D01*
X126710000Y-90357911D01*
X136665000Y-90357911D01*
X136665000Y-90542089D01*
X136700932Y-90722729D01*
X136771414Y-90892889D01*
X136873738Y-91046028D01*
X137003972Y-91176262D01*
X137157111Y-91278586D01*
X137327271Y-91349068D01*
X137507911Y-91385000D01*
X137692089Y-91385000D01*
X137872729Y-91349068D01*
X138042889Y-91278586D01*
X138196028Y-91176262D01*
X138326262Y-91046028D01*
X138428586Y-90892889D01*
X138499068Y-90722729D01*
X138511961Y-90657911D01*
X159115000Y-90657911D01*
X159115000Y-90842089D01*
X159150932Y-91022729D01*
X159221414Y-91192889D01*
X159323738Y-91346028D01*
X159453972Y-91476262D01*
X159607111Y-91578586D01*
X159777271Y-91649068D01*
X159957911Y-91685000D01*
X160142089Y-91685000D01*
X160322729Y-91649068D01*
X160492889Y-91578586D01*
X160646028Y-91476262D01*
X160775000Y-91347290D01*
X160903972Y-91476262D01*
X161057111Y-91578586D01*
X161227271Y-91649068D01*
X161407911Y-91685000D01*
X161592089Y-91685000D01*
X161772729Y-91649068D01*
X161942889Y-91578586D01*
X162096028Y-91476262D01*
X162226262Y-91346028D01*
X162328586Y-91192889D01*
X162399068Y-91022729D01*
X162435000Y-90842089D01*
X162435000Y-90657911D01*
X162399068Y-90477271D01*
X162328586Y-90307111D01*
X162273721Y-90225000D01*
X162328586Y-90142889D01*
X162399068Y-89972729D01*
X162435000Y-89792089D01*
X162435000Y-89607911D01*
X162399068Y-89427271D01*
X162328586Y-89257111D01*
X162226262Y-89103972D01*
X162096028Y-88973738D01*
X161942889Y-88871414D01*
X161772729Y-88800932D01*
X161592089Y-88765000D01*
X161407911Y-88765000D01*
X161227271Y-88800932D01*
X161057111Y-88871414D01*
X160903972Y-88973738D01*
X160773738Y-89103972D01*
X160671414Y-89257111D01*
X160600932Y-89427271D01*
X160565000Y-89607911D01*
X160565000Y-89792089D01*
X160600932Y-89972729D01*
X160612889Y-90001595D01*
X160492889Y-89921414D01*
X160322729Y-89850932D01*
X160142089Y-89815000D01*
X159957911Y-89815000D01*
X159777271Y-89850932D01*
X159607111Y-89921414D01*
X159453972Y-90023738D01*
X159323738Y-90153972D01*
X159221414Y-90307111D01*
X159150932Y-90477271D01*
X159115000Y-90657911D01*
X138511961Y-90657911D01*
X138535000Y-90542089D01*
X138535000Y-90357911D01*
X138499068Y-90177271D01*
X138428586Y-90007111D01*
X138326262Y-89853972D01*
X138196028Y-89723738D01*
X138042889Y-89621414D01*
X137872729Y-89550932D01*
X137692089Y-89515000D01*
X137507911Y-89515000D01*
X137327271Y-89550932D01*
X137157111Y-89621414D01*
X137003972Y-89723738D01*
X136873738Y-89853972D01*
X136771414Y-90007111D01*
X136700932Y-90177271D01*
X136665000Y-90357911D01*
X126710000Y-90357911D01*
X126710000Y-75050000D01*
X133611928Y-75050000D01*
X133611928Y-76750000D01*
X133624188Y-76874482D01*
X133660498Y-76994180D01*
X133719463Y-77104494D01*
X133798815Y-77201185D01*
X133895506Y-77280537D01*
X134005820Y-77339502D01*
X134078380Y-77361513D01*
X133946525Y-77493368D01*
X133784010Y-77736589D01*
X133672068Y-78006842D01*
X133615000Y-78293740D01*
X133615000Y-78586260D01*
X133672068Y-78873158D01*
X133784010Y-79143411D01*
X133946525Y-79386632D01*
X134153368Y-79593475D01*
X134327760Y-79710000D01*
X134153368Y-79826525D01*
X133946525Y-80033368D01*
X133784010Y-80276589D01*
X133672068Y-80546842D01*
X133615000Y-80833740D01*
X133615000Y-81126260D01*
X133672068Y-81413158D01*
X133784010Y-81683411D01*
X133946525Y-81926632D01*
X134153368Y-82133475D01*
X134327760Y-82250000D01*
X134153368Y-82366525D01*
X133946525Y-82573368D01*
X133784010Y-82816589D01*
X133672068Y-83086842D01*
X133615000Y-83373740D01*
X133615000Y-83666260D01*
X133672068Y-83953158D01*
X133784010Y-84223411D01*
X133946525Y-84466632D01*
X134153368Y-84673475D01*
X134327760Y-84790000D01*
X134153368Y-84906525D01*
X133946525Y-85113368D01*
X133784010Y-85356589D01*
X133672068Y-85626842D01*
X133615000Y-85913740D01*
X133615000Y-86206260D01*
X133672068Y-86493158D01*
X133784010Y-86763411D01*
X133946525Y-87006632D01*
X134153368Y-87213475D01*
X134327760Y-87330000D01*
X134153368Y-87446525D01*
X133946525Y-87653368D01*
X133784010Y-87896589D01*
X133672068Y-88166842D01*
X133615000Y-88453740D01*
X133615000Y-88746260D01*
X133672068Y-89033158D01*
X133784010Y-89303411D01*
X133946525Y-89546632D01*
X134153368Y-89753475D01*
X134396589Y-89915990D01*
X134666842Y-90027932D01*
X134953740Y-90085000D01*
X135246260Y-90085000D01*
X135533158Y-90027932D01*
X135803411Y-89915990D01*
X136046632Y-89753475D01*
X136253475Y-89546632D01*
X136279347Y-89507911D01*
X146515000Y-89507911D01*
X146515000Y-89692089D01*
X146550932Y-89872729D01*
X146621414Y-90042889D01*
X146723738Y-90196028D01*
X146853972Y-90326262D01*
X147007111Y-90428586D01*
X147177271Y-90499068D01*
X147357911Y-90535000D01*
X147542089Y-90535000D01*
X147722729Y-90499068D01*
X147892889Y-90428586D01*
X148046028Y-90326262D01*
X148176262Y-90196028D01*
X148278586Y-90042889D01*
X148349068Y-89872729D01*
X148385000Y-89692089D01*
X148385000Y-89507911D01*
X148349068Y-89327271D01*
X148278586Y-89157111D01*
X148176262Y-89003972D01*
X148046028Y-88873738D01*
X147892889Y-88771414D01*
X147722729Y-88700932D01*
X147542089Y-88665000D01*
X147357911Y-88665000D01*
X147177271Y-88700932D01*
X147007111Y-88771414D01*
X146853972Y-88873738D01*
X146723738Y-89003972D01*
X146621414Y-89157111D01*
X146550932Y-89327271D01*
X146515000Y-89507911D01*
X136279347Y-89507911D01*
X136415990Y-89303411D01*
X136527932Y-89033158D01*
X136585000Y-88746260D01*
X136585000Y-88453740D01*
X136527932Y-88166842D01*
X136415990Y-87896589D01*
X136253475Y-87653368D01*
X136046632Y-87446525D01*
X135914012Y-87357911D01*
X138590000Y-87357911D01*
X138590000Y-87542089D01*
X138625932Y-87722729D01*
X138696414Y-87892889D01*
X138798738Y-88046028D01*
X138928972Y-88176262D01*
X139082111Y-88278586D01*
X139252271Y-88349068D01*
X139432911Y-88385000D01*
X139617089Y-88385000D01*
X139797729Y-88349068D01*
X139967889Y-88278586D01*
X140121028Y-88176262D01*
X140251262Y-88046028D01*
X140353586Y-87892889D01*
X140424068Y-87722729D01*
X140460000Y-87542089D01*
X140460000Y-87357911D01*
X140424068Y-87177271D01*
X140353586Y-87007111D01*
X140251262Y-86853972D01*
X140121028Y-86723738D01*
X139967889Y-86621414D01*
X139797729Y-86550932D01*
X139617089Y-86515000D01*
X139432911Y-86515000D01*
X139252271Y-86550932D01*
X139082111Y-86621414D01*
X138928972Y-86723738D01*
X138798738Y-86853972D01*
X138696414Y-87007111D01*
X138625932Y-87177271D01*
X138590000Y-87357911D01*
X135914012Y-87357911D01*
X135872240Y-87330000D01*
X136046632Y-87213475D01*
X136253475Y-87006632D01*
X136415990Y-86763411D01*
X136527932Y-86493158D01*
X136585000Y-86206260D01*
X136585000Y-86057911D01*
X140840000Y-86057911D01*
X140840000Y-86242089D01*
X140875932Y-86422729D01*
X140946414Y-86592889D01*
X141048738Y-86746028D01*
X141178972Y-86876262D01*
X141332111Y-86978586D01*
X141502271Y-87049068D01*
X141682911Y-87085000D01*
X141867089Y-87085000D01*
X142047729Y-87049068D01*
X142217889Y-86978586D01*
X142371028Y-86876262D01*
X142501262Y-86746028D01*
X142526730Y-86707911D01*
X146515000Y-86707911D01*
X146515000Y-86892089D01*
X146550932Y-87072729D01*
X146621414Y-87242889D01*
X146723738Y-87396028D01*
X146853972Y-87526262D01*
X147007111Y-87628586D01*
X147177271Y-87699068D01*
X147357911Y-87735000D01*
X147542089Y-87735000D01*
X147722729Y-87699068D01*
X147892889Y-87628586D01*
X148046028Y-87526262D01*
X148143615Y-87428675D01*
X148869700Y-87428675D01*
X148869700Y-87651325D01*
X148913137Y-87869696D01*
X148998341Y-88075398D01*
X149122039Y-88260524D01*
X149279476Y-88417961D01*
X149464602Y-88541659D01*
X149670304Y-88626863D01*
X149888675Y-88670300D01*
X150111325Y-88670300D01*
X150329696Y-88626863D01*
X150535398Y-88541659D01*
X150720524Y-88417961D01*
X150877961Y-88260524D01*
X151001659Y-88075398D01*
X151086863Y-87869696D01*
X151130300Y-87651325D01*
X151130300Y-87428675D01*
X151086863Y-87210304D01*
X151001659Y-87004602D01*
X150877961Y-86819476D01*
X150720524Y-86662039D01*
X150535398Y-86538341D01*
X150329696Y-86453137D01*
X150111325Y-86409700D01*
X149888675Y-86409700D01*
X149670304Y-86453137D01*
X149464602Y-86538341D01*
X149279476Y-86662039D01*
X149122039Y-86819476D01*
X148998341Y-87004602D01*
X148913137Y-87210304D01*
X148869700Y-87428675D01*
X148143615Y-87428675D01*
X148176262Y-87396028D01*
X148278586Y-87242889D01*
X148349068Y-87072729D01*
X148385000Y-86892089D01*
X148385000Y-86707911D01*
X148349068Y-86527271D01*
X148278586Y-86357111D01*
X148176262Y-86203972D01*
X148150201Y-86177911D01*
X150745000Y-86177911D01*
X150745000Y-86362089D01*
X150780932Y-86542729D01*
X150851414Y-86712889D01*
X150953738Y-86866028D01*
X151083972Y-86996262D01*
X151237111Y-87098586D01*
X151407271Y-87169068D01*
X151587911Y-87205000D01*
X151772089Y-87205000D01*
X151952729Y-87169068D01*
X152122889Y-87098586D01*
X152127775Y-87095321D01*
X159112341Y-87095321D01*
X159112341Y-87279499D01*
X159148273Y-87460139D01*
X159218755Y-87630299D01*
X159321079Y-87783438D01*
X159451313Y-87913672D01*
X159604452Y-88015996D01*
X159774612Y-88086478D01*
X159955252Y-88122410D01*
X160139430Y-88122410D01*
X160320070Y-88086478D01*
X160490230Y-88015996D01*
X160643369Y-87913672D01*
X160773603Y-87783438D01*
X160875927Y-87630299D01*
X160946409Y-87460139D01*
X160982341Y-87279499D01*
X160982341Y-87157911D01*
X164065000Y-87157911D01*
X164065000Y-87342089D01*
X164100932Y-87522729D01*
X164171414Y-87692889D01*
X164273738Y-87846028D01*
X164403972Y-87976262D01*
X164557111Y-88078586D01*
X164727271Y-88149068D01*
X164907911Y-88185000D01*
X165092089Y-88185000D01*
X165272729Y-88149068D01*
X165442889Y-88078586D01*
X165596028Y-87976262D01*
X165726262Y-87846028D01*
X165828586Y-87692889D01*
X165899068Y-87522729D01*
X165935000Y-87342089D01*
X165935000Y-87157911D01*
X165899068Y-86977271D01*
X165828586Y-86807111D01*
X165734132Y-86665751D01*
X165833622Y-86599274D01*
X165963856Y-86469040D01*
X166066180Y-86315901D01*
X166136662Y-86145741D01*
X166139164Y-86133163D01*
X166227271Y-86169658D01*
X166407911Y-86205590D01*
X166592089Y-86205590D01*
X166772729Y-86169658D01*
X166942889Y-86099176D01*
X167096028Y-85996852D01*
X167226262Y-85866618D01*
X167298897Y-85757911D01*
X168065000Y-85757911D01*
X168065000Y-85942089D01*
X168100932Y-86122729D01*
X168171414Y-86292889D01*
X168273738Y-86446028D01*
X168403972Y-86576262D01*
X168557111Y-86678586D01*
X168727271Y-86749068D01*
X168907911Y-86785000D01*
X169092089Y-86785000D01*
X169272729Y-86749068D01*
X169442889Y-86678586D01*
X169542542Y-86612000D01*
X170437426Y-86612000D01*
X170549378Y-86600974D01*
X170693015Y-86557402D01*
X170825392Y-86486645D01*
X170941422Y-86391422D01*
X171036645Y-86275392D01*
X171107402Y-86143015D01*
X171150974Y-85999378D01*
X171165686Y-85850000D01*
X171150974Y-85700622D01*
X171107402Y-85556985D01*
X171036645Y-85424608D01*
X170941422Y-85308578D01*
X170825392Y-85213355D01*
X170693015Y-85142598D01*
X170549378Y-85099026D01*
X170437426Y-85088000D01*
X169542542Y-85088000D01*
X169442889Y-85021414D01*
X169272729Y-84950932D01*
X169092089Y-84915000D01*
X168907911Y-84915000D01*
X168727271Y-84950932D01*
X168557111Y-85021414D01*
X168403972Y-85123738D01*
X168273738Y-85253972D01*
X168171414Y-85407111D01*
X168100932Y-85577271D01*
X168065000Y-85757911D01*
X167298897Y-85757911D01*
X167328586Y-85713479D01*
X167399068Y-85543319D01*
X167435000Y-85362679D01*
X167435000Y-85178501D01*
X167399068Y-84997861D01*
X167328586Y-84827701D01*
X167226262Y-84674562D01*
X167096028Y-84544328D01*
X166942889Y-84442004D01*
X166772729Y-84371522D01*
X166592089Y-84335590D01*
X166547388Y-84335590D01*
X166526262Y-84303972D01*
X166396028Y-84173738D01*
X166242889Y-84071414D01*
X166072729Y-84000932D01*
X165892089Y-83965000D01*
X165707911Y-83965000D01*
X165527271Y-84000932D01*
X165357111Y-84071414D01*
X165203972Y-84173738D01*
X165073738Y-84303972D01*
X164971414Y-84457111D01*
X164900932Y-84627271D01*
X164865000Y-84807911D01*
X164865000Y-84992089D01*
X164869267Y-85013542D01*
X164794705Y-85044426D01*
X164641566Y-85146750D01*
X164511332Y-85276984D01*
X164409008Y-85430123D01*
X164338526Y-85600283D01*
X164302594Y-85780923D01*
X164302594Y-85965101D01*
X164338526Y-86145741D01*
X164409008Y-86315901D01*
X164503462Y-86457261D01*
X164403972Y-86523738D01*
X164273738Y-86653972D01*
X164171414Y-86807111D01*
X164100932Y-86977271D01*
X164065000Y-87157911D01*
X160982341Y-87157911D01*
X160982341Y-87095321D01*
X160946409Y-86914681D01*
X160875927Y-86744521D01*
X160773603Y-86591382D01*
X160643369Y-86461148D01*
X160490230Y-86358824D01*
X160320070Y-86288342D01*
X160139430Y-86252410D01*
X159955252Y-86252410D01*
X159774612Y-86288342D01*
X159604452Y-86358824D01*
X159451313Y-86461148D01*
X159321079Y-86591382D01*
X159218755Y-86744521D01*
X159148273Y-86914681D01*
X159112341Y-87095321D01*
X152127775Y-87095321D01*
X152276028Y-86996262D01*
X152406262Y-86866028D01*
X152508586Y-86712889D01*
X152579068Y-86542729D01*
X152615000Y-86362089D01*
X152615000Y-86177911D01*
X152579068Y-85997271D01*
X152508586Y-85827111D01*
X152406262Y-85673972D01*
X152276028Y-85543738D01*
X152122889Y-85441414D01*
X151952729Y-85370932D01*
X151772089Y-85335000D01*
X151587911Y-85335000D01*
X151407271Y-85370932D01*
X151237111Y-85441414D01*
X151083972Y-85543738D01*
X150953738Y-85673972D01*
X150851414Y-85827111D01*
X150780932Y-85997271D01*
X150745000Y-86177911D01*
X148150201Y-86177911D01*
X148046028Y-86073738D01*
X147892889Y-85971414D01*
X147722729Y-85900932D01*
X147542089Y-85865000D01*
X147357911Y-85865000D01*
X147177271Y-85900932D01*
X147007111Y-85971414D01*
X146853972Y-86073738D01*
X146723738Y-86203972D01*
X146621414Y-86357111D01*
X146550932Y-86527271D01*
X146515000Y-86707911D01*
X142526730Y-86707911D01*
X142603586Y-86592889D01*
X142668985Y-86435000D01*
X142842089Y-86435000D01*
X143022729Y-86399068D01*
X143192889Y-86328586D01*
X143346028Y-86226262D01*
X143476262Y-86096028D01*
X143578586Y-85942889D01*
X143649068Y-85772729D01*
X143672675Y-85654052D01*
X143697729Y-85649068D01*
X143867889Y-85578586D01*
X144021028Y-85476262D01*
X144151262Y-85346028D01*
X144253586Y-85192889D01*
X144324068Y-85022729D01*
X144360000Y-84842089D01*
X144360000Y-84657911D01*
X144324068Y-84477271D01*
X144253586Y-84307111D01*
X144151262Y-84153972D01*
X144021028Y-84023738D01*
X143867889Y-83921414D01*
X143835290Y-83907911D01*
X146515000Y-83907911D01*
X146515000Y-84092089D01*
X146550932Y-84272729D01*
X146621414Y-84442889D01*
X146723738Y-84596028D01*
X146853972Y-84726262D01*
X147007111Y-84828586D01*
X147177271Y-84899068D01*
X147357911Y-84935000D01*
X147542089Y-84935000D01*
X147722729Y-84899068D01*
X147892889Y-84828586D01*
X148046028Y-84726262D01*
X148176262Y-84596028D01*
X148278586Y-84442889D01*
X148293074Y-84407911D01*
X155015000Y-84407911D01*
X155015000Y-84592089D01*
X155050932Y-84772729D01*
X155121414Y-84942889D01*
X155223738Y-85096028D01*
X155353972Y-85226262D01*
X155507111Y-85328586D01*
X155677271Y-85399068D01*
X155857911Y-85435000D01*
X156042089Y-85435000D01*
X156222729Y-85399068D01*
X156392889Y-85328586D01*
X156546028Y-85226262D01*
X156676262Y-85096028D01*
X156778586Y-84942889D01*
X156849068Y-84772729D01*
X156885000Y-84592089D01*
X156885000Y-84407911D01*
X156849068Y-84227271D01*
X156778586Y-84057111D01*
X156676262Y-83903972D01*
X156546028Y-83773738D01*
X156392889Y-83671414D01*
X156222729Y-83600932D01*
X156042089Y-83565000D01*
X155857911Y-83565000D01*
X155677271Y-83600932D01*
X155507111Y-83671414D01*
X155353972Y-83773738D01*
X155223738Y-83903972D01*
X155121414Y-84057111D01*
X155050932Y-84227271D01*
X155015000Y-84407911D01*
X148293074Y-84407911D01*
X148349068Y-84272729D01*
X148385000Y-84092089D01*
X148385000Y-83907911D01*
X148349068Y-83727271D01*
X148278586Y-83557111D01*
X148176262Y-83403972D01*
X148046028Y-83273738D01*
X147892889Y-83171414D01*
X147722729Y-83100932D01*
X147542089Y-83065000D01*
X147357911Y-83065000D01*
X147177271Y-83100932D01*
X147007111Y-83171414D01*
X146853972Y-83273738D01*
X146723738Y-83403972D01*
X146621414Y-83557111D01*
X146550932Y-83727271D01*
X146515000Y-83907911D01*
X143835290Y-83907911D01*
X143697729Y-83850932D01*
X143517089Y-83815000D01*
X143332911Y-83815000D01*
X143152271Y-83850932D01*
X142982111Y-83921414D01*
X142828972Y-84023738D01*
X142698738Y-84153972D01*
X142596414Y-84307111D01*
X142525932Y-84477271D01*
X142502325Y-84595948D01*
X142477271Y-84600932D01*
X142307111Y-84671414D01*
X142153972Y-84773738D01*
X142023738Y-84903972D01*
X141921414Y-85057111D01*
X141856015Y-85215000D01*
X141682911Y-85215000D01*
X141502271Y-85250932D01*
X141332111Y-85321414D01*
X141178972Y-85423738D01*
X141048738Y-85553972D01*
X140946414Y-85707111D01*
X140875932Y-85877271D01*
X140840000Y-86057911D01*
X136585000Y-86057911D01*
X136585000Y-85913740D01*
X136527932Y-85626842D01*
X136415990Y-85356589D01*
X136253475Y-85113368D01*
X136046632Y-84906525D01*
X135872240Y-84790000D01*
X136046632Y-84673475D01*
X136253475Y-84466632D01*
X136415990Y-84223411D01*
X136527932Y-83953158D01*
X136585000Y-83666260D01*
X136585000Y-83373740D01*
X136527932Y-83086842D01*
X136415990Y-82816589D01*
X136253475Y-82573368D01*
X136046632Y-82366525D01*
X136019918Y-82348675D01*
X147853700Y-82348675D01*
X147853700Y-82571325D01*
X147897137Y-82789696D01*
X147982341Y-82995398D01*
X148106039Y-83180524D01*
X148263476Y-83337961D01*
X148448602Y-83461659D01*
X148654304Y-83546863D01*
X148872675Y-83590300D01*
X149095325Y-83590300D01*
X149313696Y-83546863D01*
X149519398Y-83461659D01*
X149704524Y-83337961D01*
X149861961Y-83180524D01*
X149985659Y-82995398D01*
X150000000Y-82960776D01*
X150014341Y-82995398D01*
X150138039Y-83180524D01*
X150295476Y-83337961D01*
X150480602Y-83461659D01*
X150686304Y-83546863D01*
X150904675Y-83590300D01*
X151127325Y-83590300D01*
X151345696Y-83546863D01*
X151551398Y-83461659D01*
X151736524Y-83337961D01*
X151893961Y-83180524D01*
X152017659Y-82995398D01*
X152102863Y-82789696D01*
X152146300Y-82571325D01*
X152146300Y-82348675D01*
X152102863Y-82130304D01*
X152017659Y-81924602D01*
X151893961Y-81739476D01*
X151736524Y-81582039D01*
X151551398Y-81458341D01*
X151345696Y-81373137D01*
X151127325Y-81329700D01*
X150904675Y-81329700D01*
X150686304Y-81373137D01*
X150480602Y-81458341D01*
X150295476Y-81582039D01*
X150138039Y-81739476D01*
X150014341Y-81924602D01*
X150000000Y-81959224D01*
X149985659Y-81924602D01*
X149861961Y-81739476D01*
X149704524Y-81582039D01*
X149519398Y-81458341D01*
X149313696Y-81373137D01*
X149095325Y-81329700D01*
X148872675Y-81329700D01*
X148654304Y-81373137D01*
X148448602Y-81458341D01*
X148263476Y-81582039D01*
X148106039Y-81739476D01*
X147982341Y-81924602D01*
X147897137Y-82130304D01*
X147853700Y-82348675D01*
X136019918Y-82348675D01*
X135872240Y-82250000D01*
X136046632Y-82133475D01*
X136253475Y-81926632D01*
X136415990Y-81683411D01*
X136527932Y-81413158D01*
X136585000Y-81126260D01*
X136585000Y-80833740D01*
X136527932Y-80546842D01*
X136415990Y-80276589D01*
X136253475Y-80033368D01*
X136046632Y-79826525D01*
X135872240Y-79710000D01*
X136025019Y-79607916D01*
X139365009Y-79607916D01*
X139365009Y-79792094D01*
X139400941Y-79972734D01*
X139471423Y-80142894D01*
X139573747Y-80296033D01*
X139703981Y-80426267D01*
X139857120Y-80528591D01*
X140027280Y-80599073D01*
X140207920Y-80635005D01*
X140392098Y-80635005D01*
X140572738Y-80599073D01*
X140742898Y-80528591D01*
X140824992Y-80473738D01*
X140907098Y-80528599D01*
X141077258Y-80599081D01*
X141257898Y-80635013D01*
X141442076Y-80635013D01*
X141622716Y-80599081D01*
X141792876Y-80528599D01*
X141946015Y-80426275D01*
X142076249Y-80296041D01*
X142178573Y-80142902D01*
X142249055Y-79972742D01*
X142261950Y-79907911D01*
X160115000Y-79907911D01*
X160115000Y-80092089D01*
X160150932Y-80272729D01*
X160221414Y-80442889D01*
X160242870Y-80475000D01*
X160221414Y-80507111D01*
X160150932Y-80677271D01*
X160115000Y-80857911D01*
X160115000Y-81042089D01*
X160150932Y-81222729D01*
X160221414Y-81392889D01*
X160323738Y-81546028D01*
X160453972Y-81676262D01*
X160607111Y-81778586D01*
X160777271Y-81849068D01*
X160957911Y-81885000D01*
X161142089Y-81885000D01*
X161322729Y-81849068D01*
X161492889Y-81778586D01*
X161646028Y-81676262D01*
X161776262Y-81546028D01*
X161878586Y-81392889D01*
X161949068Y-81222729D01*
X161985000Y-81042089D01*
X161985000Y-80857911D01*
X161949068Y-80677271D01*
X161878586Y-80507111D01*
X161857130Y-80475000D01*
X161878586Y-80442889D01*
X161949068Y-80272729D01*
X161985000Y-80092089D01*
X161985000Y-79907911D01*
X161949068Y-79727271D01*
X161878586Y-79557111D01*
X161776262Y-79403972D01*
X161646028Y-79273738D01*
X161492889Y-79171414D01*
X161322729Y-79100932D01*
X161142089Y-79065000D01*
X160957911Y-79065000D01*
X160777271Y-79100932D01*
X160607111Y-79171414D01*
X160453972Y-79273738D01*
X160323738Y-79403972D01*
X160221414Y-79557111D01*
X160150932Y-79727271D01*
X160115000Y-79907911D01*
X142261950Y-79907911D01*
X142284987Y-79792102D01*
X142284987Y-79607924D01*
X142249055Y-79427284D01*
X142178573Y-79257124D01*
X142076249Y-79103985D01*
X141946015Y-78973751D01*
X141792876Y-78871427D01*
X141622716Y-78800945D01*
X141442076Y-78765013D01*
X141257898Y-78765013D01*
X141077258Y-78800945D01*
X140907098Y-78871427D01*
X140825004Y-78926280D01*
X140742898Y-78871419D01*
X140572738Y-78800937D01*
X140392098Y-78765005D01*
X140207920Y-78765005D01*
X140027280Y-78800937D01*
X139857120Y-78871419D01*
X139703981Y-78973743D01*
X139573747Y-79103977D01*
X139471423Y-79257116D01*
X139400941Y-79427276D01*
X139365009Y-79607916D01*
X136025019Y-79607916D01*
X136046632Y-79593475D01*
X136253475Y-79386632D01*
X136415990Y-79143411D01*
X136527932Y-78873158D01*
X136585000Y-78586260D01*
X136585000Y-78293740D01*
X136527932Y-78006842D01*
X136415990Y-77736589D01*
X136253475Y-77493368D01*
X136121620Y-77361513D01*
X136194180Y-77339502D01*
X136304494Y-77280537D01*
X136401185Y-77201185D01*
X136480537Y-77104494D01*
X136539502Y-76994180D01*
X136575812Y-76874482D01*
X136588072Y-76750000D01*
X136588072Y-75050000D01*
X136575812Y-74925518D01*
X136539502Y-74805820D01*
X136480537Y-74695506D01*
X136401185Y-74598815D01*
X136304494Y-74519463D01*
X136194180Y-74460498D01*
X136074482Y-74424188D01*
X135950000Y-74411928D01*
X134250000Y-74411928D01*
X134125518Y-74424188D01*
X134005820Y-74460498D01*
X133895506Y-74519463D01*
X133798815Y-74598815D01*
X133719463Y-74695506D01*
X133660498Y-74805820D01*
X133624188Y-74925518D01*
X133611928Y-75050000D01*
X126710000Y-75050000D01*
X126710000Y-74034722D01*
X126718863Y-73944335D01*
X126735030Y-73890786D01*
X126761288Y-73841403D01*
X126796641Y-73798055D01*
X126839740Y-73762400D01*
X126888937Y-73735799D01*
X126942375Y-73719258D01*
X127030455Y-73710000D01*
X148734667Y-73710000D01*
X148707111Y-73721414D01*
G37*
X148707111Y-73721414D02*
X148553972Y-73823738D01*
X148423738Y-73953972D01*
X148321414Y-74107111D01*
X148250932Y-74277271D01*
X148215000Y-74457911D01*
X148215000Y-74642089D01*
X148250932Y-74822729D01*
X148321414Y-74992889D01*
X148423738Y-75146028D01*
X148553972Y-75276262D01*
X148707111Y-75378586D01*
X148877271Y-75449068D01*
X149057911Y-75485000D01*
X149242089Y-75485000D01*
X149422729Y-75449068D01*
X149592889Y-75378586D01*
X149746028Y-75276262D01*
X149818779Y-75203511D01*
X150840000Y-75203511D01*
X150840000Y-75387689D01*
X150875932Y-75568329D01*
X150946414Y-75738489D01*
X151048738Y-75891628D01*
X151178972Y-76021862D01*
X151332111Y-76124186D01*
X151502271Y-76194668D01*
X151682911Y-76230600D01*
X151867089Y-76230600D01*
X152047729Y-76194668D01*
X152217889Y-76124186D01*
X152371028Y-76021862D01*
X152501262Y-75891628D01*
X152573904Y-75782911D01*
X158340000Y-75782911D01*
X158340000Y-75967089D01*
X158375932Y-76147729D01*
X158446414Y-76317889D01*
X158548738Y-76471028D01*
X158678972Y-76601262D01*
X158832111Y-76703586D01*
X159002271Y-76774068D01*
X159182911Y-76810000D01*
X159367089Y-76810000D01*
X159547729Y-76774068D01*
X159717889Y-76703586D01*
X159871028Y-76601262D01*
X160001262Y-76471028D01*
X160060139Y-76382911D01*
X165840000Y-76382911D01*
X165840000Y-76567089D01*
X165875932Y-76747729D01*
X165946414Y-76917889D01*
X166048738Y-77071028D01*
X166178972Y-77201262D01*
X166332111Y-77303586D01*
X166502271Y-77374068D01*
X166682911Y-77410000D01*
X166867089Y-77410000D01*
X167047729Y-77374068D01*
X167217889Y-77303586D01*
X167371028Y-77201262D01*
X167501262Y-77071028D01*
X167603586Y-76917889D01*
X167674068Y-76747729D01*
X167710000Y-76567089D01*
X167710000Y-76382911D01*
X167674068Y-76202271D01*
X167603586Y-76032111D01*
X167501262Y-75878972D01*
X167371028Y-75748738D01*
X167217889Y-75646414D01*
X167047729Y-75575932D01*
X166867089Y-75540000D01*
X166682911Y-75540000D01*
X166502271Y-75575932D01*
X166332111Y-75646414D01*
X166178972Y-75748738D01*
X166048738Y-75878972D01*
X165946414Y-76032111D01*
X165875932Y-76202271D01*
X165840000Y-76382911D01*
X160060139Y-76382911D01*
X160103586Y-76317889D01*
X160174068Y-76147729D01*
X160210000Y-75967089D01*
X160210000Y-75782911D01*
X160174068Y-75602271D01*
X160103586Y-75432111D01*
X160001262Y-75278972D01*
X159871028Y-75148738D01*
X159717889Y-75046414D01*
X159547729Y-74975932D01*
X159367089Y-74940000D01*
X159182911Y-74940000D01*
X159002271Y-74975932D01*
X158832111Y-75046414D01*
X158678972Y-75148738D01*
X158548738Y-75278972D01*
X158446414Y-75432111D01*
X158375932Y-75602271D01*
X158340000Y-75782911D01*
X152573904Y-75782911D01*
X152603586Y-75738489D01*
X152674068Y-75568329D01*
X152710000Y-75387689D01*
X152710000Y-75203511D01*
X152674068Y-75022871D01*
X152603586Y-74852711D01*
X152501262Y-74699572D01*
X152371028Y-74569338D01*
X152217889Y-74467014D01*
X152047729Y-74396532D01*
X151867089Y-74360600D01*
X151682911Y-74360600D01*
X151502271Y-74396532D01*
X151332111Y-74467014D01*
X151178972Y-74569338D01*
X151048738Y-74699572D01*
X150946414Y-74852711D01*
X150875932Y-75022871D01*
X150840000Y-75203511D01*
X149818779Y-75203511D01*
X149876262Y-75146028D01*
X149978586Y-74992889D01*
X150049068Y-74822729D01*
X150085000Y-74642089D01*
X150085000Y-74457911D01*
X150049068Y-74277271D01*
X149978586Y-74107111D01*
X149876262Y-73953972D01*
X149746028Y-73823738D01*
X149592889Y-73721414D01*
X149565333Y-73710000D01*
X174965278Y-73710000D01*
X175055665Y-73718863D01*
X175109214Y-73735030D01*
X175158597Y-73761288D01*
X175201945Y-73796641D01*
X175237600Y-73839740D01*
X175264201Y-73888937D01*
X175280742Y-73942375D01*
X175290000Y-74030455D01*
X175290001Y-121965269D01*
X175281138Y-122055664D01*
X175264970Y-122109214D01*
X175238712Y-122158597D01*
X175203357Y-122201947D01*
X175160261Y-122237599D01*
X175111063Y-122264201D01*
X175057625Y-122280742D01*
X174969545Y-122290000D01*
X135146504Y-122290000D01*
X135403013Y-122033491D01*
X135614775Y-121716566D01*
X135760639Y-121364419D01*
X135835000Y-120990581D01*
X135835000Y-120609419D01*
X135760639Y-120235581D01*
X135642348Y-119950000D01*
X142311928Y-119950000D01*
X142311928Y-121650000D01*
X142324188Y-121774482D01*
X142360498Y-121894180D01*
X142419463Y-122004494D01*
X142498815Y-122101185D01*
X142595506Y-122180537D01*
X142705820Y-122239502D01*
X142825518Y-122275812D01*
X142950000Y-122288072D01*
X144650000Y-122288072D01*
X144774482Y-122275812D01*
X144894180Y-122239502D01*
X145004494Y-122180537D01*
X145101185Y-122101185D01*
X145180537Y-122004494D01*
X145239502Y-121894180D01*
X145263966Y-121813534D01*
X145339731Y-121897588D01*
X145573080Y-122071641D01*
X145835901Y-122196825D01*
X145983110Y-122241476D01*
X146213000Y-122120155D01*
X146213000Y-120927000D01*
X146467000Y-120927000D01*
X146467000Y-122120155D01*
X146696890Y-122241476D01*
X146844099Y-122196825D01*
X147106920Y-122071641D01*
X147340269Y-121897588D01*
X147535178Y-121681355D01*
X147684157Y-121431252D01*
X147781481Y-121156891D01*
X147660814Y-120927000D01*
X146467000Y-120927000D01*
X146213000Y-120927000D01*
X146193000Y-120927000D01*
X146193000Y-120673000D01*
X146213000Y-120673000D01*
X146213000Y-119479845D01*
X146467000Y-119479845D01*
X146467000Y-120673000D01*
X147660814Y-120673000D01*
X147781481Y-120443109D01*
X147684157Y-120168748D01*
X147535178Y-119918645D01*
X147340269Y-119702412D01*
X147106920Y-119528359D01*
X146844099Y-119403175D01*
X146696890Y-119358524D01*
X146467000Y-119479845D01*
X146213000Y-119479845D01*
X145983110Y-119358524D01*
X145835901Y-119403175D01*
X145573080Y-119528359D01*
X145339731Y-119702412D01*
X145263966Y-119786466D01*
X145239502Y-119705820D01*
X145180537Y-119595506D01*
X145101185Y-119498815D01*
X145004494Y-119419463D01*
X144894180Y-119360498D01*
X144774482Y-119324188D01*
X144650000Y-119311928D01*
X142950000Y-119311928D01*
X142825518Y-119324188D01*
X142705820Y-119360498D01*
X142595506Y-119419463D01*
X142498815Y-119498815D01*
X142419463Y-119595506D01*
X142360498Y-119705820D01*
X142324188Y-119825518D01*
X142311928Y-119950000D01*
X135642348Y-119950000D01*
X135614775Y-119883434D01*
X135403013Y-119566509D01*
X135133491Y-119296987D01*
X134816566Y-119085225D01*
X134464419Y-118939361D01*
X134090581Y-118865000D01*
X133709419Y-118865000D01*
X133335581Y-118939361D01*
X132983434Y-119085225D01*
X132666509Y-119296987D01*
X132396987Y-119566509D01*
X132185225Y-119883434D01*
X132039361Y-120235581D01*
X131965000Y-120609419D01*
X131965000Y-120990581D01*
X132039361Y-121364419D01*
X132185225Y-121716566D01*
X132396987Y-122033491D01*
X132653496Y-122290000D01*
X127034721Y-122290000D01*
X126944336Y-122281138D01*
X126890786Y-122264970D01*
X126841403Y-122238712D01*
X126798053Y-122203357D01*
X126762401Y-122160261D01*
X126735799Y-122111063D01*
X126719258Y-122057625D01*
X126710000Y-121969545D01*
X126710000Y-117449224D01*
X129730381Y-117449224D01*
X129862317Y-117744312D01*
X130203045Y-117915159D01*
X130570557Y-118016250D01*
X130950729Y-118043701D01*
X131328951Y-117996457D01*
X131690690Y-117876333D01*
X131937683Y-117744312D01*
X132069619Y-117449224D01*
X130900000Y-116279605D01*
X129730381Y-117449224D01*
X126710000Y-117449224D01*
X126710000Y-116150729D01*
X128956299Y-116150729D01*
X129003543Y-116528951D01*
X129123667Y-116890690D01*
X129255688Y-117137683D01*
X129550776Y-117269619D01*
X130720395Y-116100000D01*
X131079605Y-116100000D01*
X132249224Y-117269619D01*
X132544312Y-117137683D01*
X132715159Y-116796955D01*
X132816250Y-116429443D01*
X132843701Y-116049271D01*
X132796457Y-115671049D01*
X132676333Y-115309310D01*
X132544312Y-115062317D01*
X132249224Y-114930381D01*
X131079605Y-116100000D01*
X130720395Y-116100000D01*
X129550776Y-114930381D01*
X129255688Y-115062317D01*
X129084841Y-115403045D01*
X128983750Y-115770557D01*
X128956299Y-116150729D01*
X126710000Y-116150729D01*
X126710000Y-114750776D01*
X129730381Y-114750776D01*
X130900000Y-115920395D01*
X132020395Y-114800000D01*
X134961928Y-114800000D01*
X134961928Y-117400000D01*
X134974188Y-117524482D01*
X135010498Y-117644180D01*
X135069463Y-117754494D01*
X135148815Y-117851185D01*
X135245506Y-117930537D01*
X135355820Y-117989502D01*
X135475518Y-118025812D01*
X135600000Y-118038072D01*
X138200000Y-118038072D01*
X138324482Y-118025812D01*
X138444180Y-117989502D01*
X138554494Y-117930537D01*
X138651185Y-117851185D01*
X138730537Y-117754494D01*
X138789502Y-117644180D01*
X138825812Y-117524482D01*
X138838072Y-117400000D01*
X138838072Y-114957911D01*
X168015000Y-114957911D01*
X168015000Y-115142089D01*
X168050932Y-115322729D01*
X168121414Y-115492889D01*
X168192990Y-115600011D01*
X168121414Y-115707133D01*
X168050932Y-115877293D01*
X168015000Y-116057933D01*
X168015000Y-116242111D01*
X168050932Y-116422751D01*
X168121414Y-116592911D01*
X168223738Y-116746050D01*
X168353972Y-116876284D01*
X168507111Y-116978608D01*
X168677271Y-117049090D01*
X168857911Y-117085022D01*
X169042089Y-117085022D01*
X169222729Y-117049090D01*
X169392889Y-116978608D01*
X169546028Y-116876284D01*
X169676262Y-116746050D01*
X169778586Y-116592911D01*
X169849068Y-116422751D01*
X169885000Y-116242111D01*
X169885000Y-116057933D01*
X169849068Y-115877293D01*
X169778586Y-115707133D01*
X169707010Y-115600011D01*
X169778586Y-115492889D01*
X169849068Y-115322729D01*
X169885000Y-115142089D01*
X169885000Y-114957911D01*
X169849068Y-114777271D01*
X169778586Y-114607111D01*
X169676262Y-114453972D01*
X169546028Y-114323738D01*
X169392889Y-114221414D01*
X169222729Y-114150932D01*
X169042089Y-114115000D01*
X168857911Y-114115000D01*
X168677271Y-114150932D01*
X168507111Y-114221414D01*
X168353972Y-114323738D01*
X168223738Y-114453972D01*
X168121414Y-114607111D01*
X168050932Y-114777271D01*
X168015000Y-114957911D01*
X138838072Y-114957911D01*
X138838072Y-114800000D01*
X138825812Y-114675518D01*
X138789502Y-114555820D01*
X138730537Y-114445506D01*
X138651185Y-114348815D01*
X138554494Y-114269463D01*
X138444180Y-114210498D01*
X138324482Y-114174188D01*
X138200000Y-114161928D01*
X135600000Y-114161928D01*
X135475518Y-114174188D01*
X135355820Y-114210498D01*
X135245506Y-114269463D01*
X135148815Y-114348815D01*
X135069463Y-114445506D01*
X135010498Y-114555820D01*
X134974188Y-114675518D01*
X134961928Y-114800000D01*
X132020395Y-114800000D01*
X132069619Y-114750776D01*
X131937683Y-114455688D01*
X131596955Y-114284841D01*
X131229443Y-114183750D01*
X130849271Y-114156299D01*
X130471049Y-114203543D01*
X130109310Y-114323667D01*
X129862317Y-114455688D01*
X129730381Y-114750776D01*
X126710000Y-114750776D01*
X126710000Y-107907911D01*
X127065000Y-107907911D01*
X127065000Y-108092089D01*
X127100932Y-108272729D01*
X127171414Y-108442889D01*
X127209574Y-108500000D01*
X127171414Y-108557111D01*
X127100932Y-108727271D01*
X127065000Y-108907911D01*
X127065000Y-109092089D01*
X127100932Y-109272729D01*
X127171414Y-109442889D01*
X127209574Y-109500000D01*
X127171414Y-109557111D01*
X127100932Y-109727271D01*
X127065000Y-109907911D01*
X127065000Y-110092089D01*
X127100932Y-110272729D01*
X127171414Y-110442889D01*
X127273738Y-110596028D01*
X127403972Y-110726262D01*
X127557111Y-110828586D01*
X127727271Y-110899068D01*
X127907911Y-110935000D01*
X128065000Y-110935000D01*
X128065000Y-111092089D01*
X128100932Y-111272729D01*
X128171414Y-111442889D01*
X128209574Y-111500000D01*
X128171414Y-111557111D01*
X128100932Y-111727271D01*
X128065000Y-111907911D01*
X128065000Y-112092089D01*
X128100932Y-112272729D01*
X128171414Y-112442889D01*
X128273738Y-112596028D01*
X128403972Y-112726262D01*
X128557111Y-112828586D01*
X128727271Y-112899068D01*
X128907911Y-112935000D01*
X129092089Y-112935000D01*
X129272729Y-112899068D01*
X129442889Y-112828586D01*
X129500000Y-112790426D01*
X129557111Y-112828586D01*
X129727271Y-112899068D01*
X129907911Y-112935000D01*
X130092089Y-112935000D01*
X130272729Y-112899068D01*
X130442889Y-112828586D01*
X130500000Y-112790426D01*
X130557111Y-112828586D01*
X130727271Y-112899068D01*
X130907911Y-112935000D01*
X131092089Y-112935000D01*
X131272729Y-112899068D01*
X131442889Y-112828586D01*
X131500000Y-112790426D01*
X131557111Y-112828586D01*
X131727271Y-112899068D01*
X131907911Y-112935000D01*
X132092089Y-112935000D01*
X132272729Y-112899068D01*
X132442889Y-112828586D01*
X132500000Y-112790426D01*
X132557111Y-112828586D01*
X132727271Y-112899068D01*
X132907911Y-112935000D01*
X133092089Y-112935000D01*
X133272729Y-112899068D01*
X133442889Y-112828586D01*
X133596028Y-112726262D01*
X133726262Y-112596028D01*
X133828586Y-112442889D01*
X133899068Y-112272729D01*
X133935000Y-112092089D01*
X133935000Y-111907911D01*
X133899068Y-111727271D01*
X133828586Y-111557111D01*
X133807093Y-111524944D01*
X162734427Y-111524944D01*
X162734427Y-111709122D01*
X162770359Y-111889762D01*
X162840841Y-112059922D01*
X162943165Y-112213061D01*
X163073399Y-112343295D01*
X163226538Y-112445619D01*
X163396698Y-112516101D01*
X163577338Y-112552033D01*
X163761516Y-112552033D01*
X163942156Y-112516101D01*
X164112316Y-112445619D01*
X164265455Y-112343295D01*
X164395689Y-112213061D01*
X164498013Y-112059922D01*
X164568495Y-111889762D01*
X164596019Y-111751389D01*
X164671033Y-111701267D01*
X164801267Y-111571033D01*
X164903591Y-111417894D01*
X164907726Y-111407911D01*
X173115000Y-111407911D01*
X173115000Y-111592089D01*
X173150932Y-111772729D01*
X173221414Y-111942889D01*
X173323738Y-112096028D01*
X173453972Y-112226262D01*
X173607111Y-112328586D01*
X173777271Y-112399068D01*
X173957911Y-112435000D01*
X174142089Y-112435000D01*
X174322729Y-112399068D01*
X174492889Y-112328586D01*
X174646028Y-112226262D01*
X174776262Y-112096028D01*
X174878586Y-111942889D01*
X174949068Y-111772729D01*
X174985000Y-111592089D01*
X174985000Y-111407911D01*
X174949068Y-111227271D01*
X174878586Y-111057111D01*
X174776262Y-110903972D01*
X174646028Y-110773738D01*
X174492889Y-110671414D01*
X174322729Y-110600932D01*
X174142089Y-110565000D01*
X173957911Y-110565000D01*
X173777271Y-110600932D01*
X173607111Y-110671414D01*
X173453972Y-110773738D01*
X173323738Y-110903972D01*
X173221414Y-111057111D01*
X173150932Y-111227271D01*
X173115000Y-111407911D01*
X164907726Y-111407911D01*
X164974073Y-111247734D01*
X165010005Y-111067094D01*
X165010005Y-111051599D01*
X165022729Y-111049068D01*
X165192889Y-110978586D01*
X165346028Y-110876262D01*
X165476262Y-110746028D01*
X165578586Y-110592889D01*
X165649068Y-110422729D01*
X165685000Y-110242089D01*
X165685000Y-110057911D01*
X165649068Y-109877271D01*
X165578586Y-109707111D01*
X165499123Y-109588186D01*
X165522299Y-109578586D01*
X165675438Y-109476262D01*
X165805672Y-109346028D01*
X165907996Y-109192889D01*
X165978478Y-109022729D01*
X166014410Y-108842089D01*
X166014410Y-108657911D01*
X166004465Y-108607911D01*
X169015000Y-108607911D01*
X169015000Y-108792089D01*
X169050932Y-108972729D01*
X169121414Y-109142889D01*
X169223738Y-109296028D01*
X169353972Y-109426262D01*
X169507111Y-109528586D01*
X169677271Y-109599068D01*
X169857911Y-109635000D01*
X170042089Y-109635000D01*
X170222729Y-109599068D01*
X170392889Y-109528586D01*
X170546028Y-109426262D01*
X170676262Y-109296028D01*
X170778586Y-109142889D01*
X170849068Y-108972729D01*
X170885000Y-108792089D01*
X170885000Y-108607911D01*
X170849068Y-108427271D01*
X170778586Y-108257111D01*
X170676262Y-108103972D01*
X170546028Y-107973738D01*
X170392889Y-107871414D01*
X170222729Y-107800932D01*
X170042089Y-107765000D01*
X169857911Y-107765000D01*
X169677271Y-107800932D01*
X169507111Y-107871414D01*
X169353972Y-107973738D01*
X169223738Y-108103972D01*
X169121414Y-108257111D01*
X169050932Y-108427271D01*
X169015000Y-108607911D01*
X166004465Y-108607911D01*
X165978478Y-108477271D01*
X165907996Y-108307111D01*
X165805672Y-108153972D01*
X165675438Y-108023738D01*
X165522299Y-107921414D01*
X165352139Y-107850932D01*
X165171499Y-107815000D01*
X164987321Y-107815000D01*
X164806681Y-107850932D01*
X164636521Y-107921414D01*
X164483382Y-108023738D01*
X164353148Y-108153972D01*
X164250824Y-108307111D01*
X164180342Y-108477271D01*
X164144410Y-108657911D01*
X164144410Y-108842089D01*
X164180342Y-109022729D01*
X164250824Y-109192889D01*
X164330287Y-109311814D01*
X164307111Y-109321414D01*
X164153972Y-109423738D01*
X164023738Y-109553972D01*
X163921414Y-109707111D01*
X163850932Y-109877271D01*
X163815000Y-110057911D01*
X163815000Y-110073406D01*
X163802276Y-110075937D01*
X163632116Y-110146419D01*
X163478977Y-110248743D01*
X163348743Y-110378977D01*
X163246419Y-110532116D01*
X163175937Y-110702276D01*
X163148413Y-110840649D01*
X163073399Y-110890771D01*
X162943165Y-111021005D01*
X162840841Y-111174144D01*
X162770359Y-111344304D01*
X162734427Y-111524944D01*
X133807093Y-111524944D01*
X133726262Y-111403972D01*
X133596028Y-111273738D01*
X133442889Y-111171414D01*
X133272729Y-111100932D01*
X133092089Y-111065000D01*
X132907911Y-111065000D01*
X132727271Y-111100932D01*
X132557111Y-111171414D01*
X132500000Y-111209574D01*
X132442889Y-111171414D01*
X132272729Y-111100932D01*
X132092089Y-111065000D01*
X131907911Y-111065000D01*
X131727271Y-111100932D01*
X131557111Y-111171414D01*
X131500000Y-111209574D01*
X131442889Y-111171414D01*
X131272729Y-111100932D01*
X131092089Y-111065000D01*
X130935000Y-111065000D01*
X130935000Y-110907911D01*
X130899068Y-110727271D01*
X130828586Y-110557111D01*
X130790426Y-110500000D01*
X130828586Y-110442889D01*
X130899068Y-110272729D01*
X130935000Y-110092089D01*
X130935000Y-110057911D01*
X160015026Y-110057911D01*
X160015026Y-110242089D01*
X160050958Y-110422729D01*
X160121440Y-110592889D01*
X160223764Y-110746028D01*
X160353998Y-110876262D01*
X160507137Y-110978586D01*
X160677297Y-111049068D01*
X160857937Y-111085000D01*
X161042115Y-111085000D01*
X161222755Y-111049068D01*
X161392915Y-110978586D01*
X161546054Y-110876262D01*
X161676288Y-110746028D01*
X161778612Y-110592889D01*
X161849094Y-110422729D01*
X161885026Y-110242089D01*
X161885026Y-110057911D01*
X161849094Y-109877271D01*
X161778612Y-109707111D01*
X161676288Y-109553972D01*
X161546054Y-109423738D01*
X161392915Y-109321414D01*
X161222755Y-109250932D01*
X161042115Y-109215000D01*
X160857937Y-109215000D01*
X160677297Y-109250932D01*
X160507137Y-109321414D01*
X160353998Y-109423738D01*
X160223764Y-109553972D01*
X160121440Y-109707111D01*
X160050958Y-109877271D01*
X160015026Y-110057911D01*
X130935000Y-110057911D01*
X130935000Y-109907911D01*
X130899068Y-109727271D01*
X130828586Y-109557111D01*
X130790426Y-109500000D01*
X130828586Y-109442889D01*
X130899068Y-109272729D01*
X130935000Y-109092089D01*
X130935000Y-108907911D01*
X130899068Y-108727271D01*
X130828586Y-108557111D01*
X130790426Y-108500000D01*
X130828586Y-108442889D01*
X130899068Y-108272729D01*
X130935000Y-108092089D01*
X130935000Y-107907911D01*
X130899068Y-107727271D01*
X130828586Y-107557111D01*
X130726262Y-107403972D01*
X130596028Y-107273738D01*
X130442889Y-107171414D01*
X130272729Y-107100932D01*
X130092089Y-107065000D01*
X129907911Y-107065000D01*
X129727271Y-107100932D01*
X129557111Y-107171414D01*
X129500000Y-107209574D01*
X129442889Y-107171414D01*
X129272729Y-107100932D01*
X129092089Y-107065000D01*
X128907911Y-107065000D01*
X128727271Y-107100932D01*
X128557111Y-107171414D01*
X128500000Y-107209574D01*
X128442889Y-107171414D01*
X128272729Y-107100932D01*
X128092089Y-107065000D01*
X127907911Y-107065000D01*
X127727271Y-107100932D01*
X127557111Y-107171414D01*
X127403972Y-107273738D01*
X127273738Y-107403972D01*
X127171414Y-107557111D01*
X127100932Y-107727271D01*
X127065000Y-107907911D01*
X126710000Y-107907911D01*
X126710000Y-105157911D01*
X167565000Y-105157911D01*
X167565000Y-105342089D01*
X167600932Y-105522729D01*
X167671414Y-105692889D01*
X167726279Y-105775000D01*
X167671414Y-105857111D01*
X167600932Y-106027271D01*
X167565000Y-106207911D01*
X167565000Y-106392089D01*
X167600932Y-106572729D01*
X167671414Y-106742889D01*
X167773738Y-106896028D01*
X167903972Y-107026262D01*
X168057111Y-107128586D01*
X168227271Y-107199068D01*
X168407911Y-107235000D01*
X168592089Y-107235000D01*
X168772729Y-107199068D01*
X168942889Y-107128586D01*
X169096028Y-107026262D01*
X169226262Y-106896028D01*
X169328586Y-106742889D01*
X169399068Y-106572729D01*
X169435000Y-106392089D01*
X169435000Y-106207911D01*
X169399068Y-106027271D01*
X169387111Y-105998405D01*
X169507111Y-106078586D01*
X169677271Y-106149068D01*
X169857911Y-106185000D01*
X170042089Y-106185000D01*
X170222729Y-106149068D01*
X170392889Y-106078586D01*
X170546028Y-105976262D01*
X170676262Y-105846028D01*
X170778586Y-105692889D01*
X170849068Y-105522729D01*
X170885000Y-105342089D01*
X170885000Y-105157911D01*
X170849068Y-104977271D01*
X170778586Y-104807111D01*
X170676262Y-104653972D01*
X170546028Y-104523738D01*
X170392889Y-104421414D01*
X170222729Y-104350932D01*
X170042089Y-104315000D01*
X169857911Y-104315000D01*
X169677271Y-104350932D01*
X169507111Y-104421414D01*
X169353972Y-104523738D01*
X169225000Y-104652710D01*
X169096028Y-104523738D01*
X168942889Y-104421414D01*
X168772729Y-104350932D01*
X168592089Y-104315000D01*
X168407911Y-104315000D01*
X168227271Y-104350932D01*
X168057111Y-104421414D01*
X167903972Y-104523738D01*
X167773738Y-104653972D01*
X167671414Y-104807111D01*
X167600932Y-104977271D01*
X167565000Y-105157911D01*
X126710000Y-105157911D01*
X126710000Y-100358665D01*
X161065000Y-100358665D01*
X161065000Y-100641335D01*
X161120147Y-100918574D01*
X161228320Y-101179727D01*
X161385363Y-101414759D01*
X161585241Y-101614637D01*
X161820273Y-101771680D01*
X162081426Y-101879853D01*
X162358665Y-101935000D01*
X162641335Y-101935000D01*
X162918574Y-101879853D01*
X163179727Y-101771680D01*
X163414759Y-101614637D01*
X163614637Y-101414759D01*
X163771680Y-101179727D01*
X163879853Y-100918574D01*
X163935000Y-100641335D01*
X163935000Y-100358665D01*
X163879853Y-100081426D01*
X163771680Y-99820273D01*
X163614637Y-99585241D01*
X163414759Y-99385363D01*
X163179727Y-99228320D01*
X162918574Y-99120147D01*
X162641335Y-99065000D01*
X162358665Y-99065000D01*
X162081426Y-99120147D01*
X161820273Y-99228320D01*
X161585241Y-99385363D01*
X161385363Y-99585241D01*
X161228320Y-99820273D01*
X161120147Y-100081426D01*
X161065000Y-100358665D01*
X126710000Y-100358665D01*
X126710000Y-97857911D01*
X140865000Y-97857911D01*
X140865000Y-98042089D01*
X140900932Y-98222729D01*
X140971414Y-98392889D01*
X141073738Y-98546028D01*
X141203972Y-98676262D01*
X141357111Y-98778586D01*
X141527271Y-98849068D01*
X141707911Y-98885000D01*
X141892089Y-98885000D01*
X142072729Y-98849068D01*
X142242889Y-98778586D01*
X142396028Y-98676262D01*
X142526262Y-98546028D01*
X142628586Y-98392889D01*
X142699068Y-98222729D01*
X142735000Y-98042089D01*
X142735000Y-97857911D01*
X148865000Y-97857911D01*
X148865000Y-98042089D01*
X148900932Y-98222729D01*
X148971414Y-98392889D01*
X149073738Y-98546028D01*
X149203972Y-98676262D01*
X149357111Y-98778586D01*
X149527271Y-98849068D01*
X149707911Y-98885000D01*
X149892089Y-98885000D01*
X150072729Y-98849068D01*
X150242889Y-98778586D01*
X150396028Y-98676262D01*
X150526262Y-98546028D01*
X150628586Y-98392889D01*
X150699068Y-98222729D01*
X150735000Y-98042089D01*
X150735000Y-97857911D01*
X150699068Y-97677271D01*
X150628586Y-97507111D01*
X150526262Y-97353972D01*
X150396028Y-97223738D01*
X150242889Y-97121414D01*
X150072729Y-97050932D01*
X149892089Y-97015000D01*
X149707911Y-97015000D01*
X149527271Y-97050932D01*
X149357111Y-97121414D01*
X149203972Y-97223738D01*
X149073738Y-97353972D01*
X148971414Y-97507111D01*
X148900932Y-97677271D01*
X148865000Y-97857911D01*
X142735000Y-97857911D01*
X142699068Y-97677271D01*
X142628586Y-97507111D01*
X142526262Y-97353972D01*
X142396028Y-97223738D01*
X142242889Y-97121414D01*
X142072729Y-97050932D01*
X141892089Y-97015000D01*
X141707911Y-97015000D01*
X141527271Y-97050932D01*
X141357111Y-97121414D01*
X141203972Y-97223738D01*
X141073738Y-97353972D01*
X140971414Y-97507111D01*
X140900932Y-97677271D01*
X140865000Y-97857911D01*
X126710000Y-97857911D01*
X126710000Y-94407911D01*
X136515000Y-94407911D01*
X136515000Y-94592089D01*
X136550932Y-94772729D01*
X136621414Y-94942889D01*
X136723738Y-95096028D01*
X136853972Y-95226262D01*
X137007111Y-95328586D01*
X137177271Y-95399068D01*
X137357911Y-95435000D01*
X137542089Y-95435000D01*
X137722729Y-95399068D01*
X137892889Y-95328586D01*
X138046028Y-95226262D01*
X138176262Y-95096028D01*
X138187500Y-95079209D01*
X138198738Y-95096028D01*
X138328972Y-95226262D01*
X138482111Y-95328586D01*
X138652271Y-95399068D01*
X138832911Y-95435000D01*
X139017089Y-95435000D01*
X139065000Y-95425470D01*
X139065000Y-95592089D01*
X139100932Y-95772729D01*
X139171414Y-95942889D01*
X139273738Y-96096028D01*
X139403972Y-96226262D01*
X139557111Y-96328586D01*
X139727271Y-96399068D01*
X139907911Y-96435000D01*
X140092089Y-96435000D01*
X140272729Y-96399068D01*
X140442889Y-96328586D01*
X140500000Y-96290426D01*
X140557111Y-96328586D01*
X140727271Y-96399068D01*
X140907911Y-96435000D01*
X141092089Y-96435000D01*
X141272729Y-96399068D01*
X141442889Y-96328586D01*
X141596028Y-96226262D01*
X141726262Y-96096028D01*
X141828586Y-95942889D01*
X141899068Y-95772729D01*
X141935000Y-95592089D01*
X141935000Y-95407911D01*
X141899068Y-95227271D01*
X141828586Y-95057111D01*
X141790426Y-95000000D01*
X141828586Y-94942889D01*
X141899068Y-94772729D01*
X141935000Y-94592089D01*
X141935000Y-94407911D01*
X141899068Y-94227271D01*
X141828586Y-94057111D01*
X141823107Y-94048911D01*
X141922091Y-94007911D01*
X142740000Y-94007911D01*
X142740000Y-94192089D01*
X142775932Y-94372729D01*
X142846414Y-94542889D01*
X142913779Y-94643708D01*
X142871414Y-94707111D01*
X142800932Y-94877271D01*
X142765000Y-95057911D01*
X142765000Y-95242089D01*
X142800932Y-95422729D01*
X142871414Y-95592889D01*
X142973738Y-95746028D01*
X143103972Y-95876262D01*
X143257111Y-95978586D01*
X143427271Y-96049068D01*
X143607911Y-96085000D01*
X143792089Y-96085000D01*
X143972729Y-96049068D01*
X144142889Y-95978586D01*
X144296028Y-95876262D01*
X144426262Y-95746028D01*
X144528586Y-95592889D01*
X144599068Y-95422729D01*
X144611811Y-95358665D01*
X161065000Y-95358665D01*
X161065000Y-95641335D01*
X161120147Y-95918574D01*
X161228320Y-96179727D01*
X161385363Y-96414759D01*
X161585241Y-96614637D01*
X161820273Y-96771680D01*
X162081426Y-96879853D01*
X162358665Y-96935000D01*
X162641335Y-96935000D01*
X162918574Y-96879853D01*
X163179727Y-96771680D01*
X163414759Y-96614637D01*
X163614637Y-96414759D01*
X163771680Y-96179727D01*
X163879853Y-95918574D01*
X163893493Y-95850000D01*
X168411928Y-95850000D01*
X168411928Y-97550000D01*
X168424188Y-97674482D01*
X168460498Y-97794180D01*
X168519463Y-97904494D01*
X168598815Y-98001185D01*
X168695506Y-98080537D01*
X168805820Y-98139502D01*
X168878380Y-98161513D01*
X168746525Y-98293368D01*
X168584010Y-98536589D01*
X168472068Y-98806842D01*
X168415000Y-99093740D01*
X168415000Y-99386260D01*
X168472068Y-99673158D01*
X168584010Y-99943411D01*
X168746525Y-100186632D01*
X168953368Y-100393475D01*
X169196589Y-100555990D01*
X169466842Y-100667932D01*
X169753740Y-100725000D01*
X170046260Y-100725000D01*
X170333158Y-100667932D01*
X170603411Y-100555990D01*
X170846632Y-100393475D01*
X171053475Y-100186632D01*
X171215990Y-99943411D01*
X171327932Y-99673158D01*
X171385000Y-99386260D01*
X171385000Y-99093740D01*
X171327932Y-98806842D01*
X171215990Y-98536589D01*
X171053475Y-98293368D01*
X170921620Y-98161513D01*
X170994180Y-98139502D01*
X171104494Y-98080537D01*
X171201185Y-98001185D01*
X171280537Y-97904494D01*
X171339502Y-97794180D01*
X171375812Y-97674482D01*
X171388072Y-97550000D01*
X171388072Y-95850000D01*
X171375812Y-95725518D01*
X171339502Y-95605820D01*
X171280537Y-95495506D01*
X171201185Y-95398815D01*
X171104494Y-95319463D01*
X170994180Y-95260498D01*
X170874482Y-95224188D01*
X170750000Y-95211928D01*
X169050000Y-95211928D01*
X168925518Y-95224188D01*
X168805820Y-95260498D01*
X168695506Y-95319463D01*
X168598815Y-95398815D01*
X168519463Y-95495506D01*
X168460498Y-95605820D01*
X168424188Y-95725518D01*
X168411928Y-95850000D01*
X163893493Y-95850000D01*
X163935000Y-95641335D01*
X163935000Y-95358665D01*
X163879853Y-95081426D01*
X163771680Y-94820273D01*
X163614637Y-94585241D01*
X163414759Y-94385363D01*
X163179727Y-94228320D01*
X162918574Y-94120147D01*
X162641335Y-94065000D01*
X162358665Y-94065000D01*
X162081426Y-94120147D01*
X161820273Y-94228320D01*
X161585241Y-94385363D01*
X161385363Y-94585241D01*
X161228320Y-94820273D01*
X161120147Y-95081426D01*
X161065000Y-95358665D01*
X144611811Y-95358665D01*
X144635000Y-95242089D01*
X144635000Y-95057911D01*
X144599068Y-94877271D01*
X144528586Y-94707111D01*
X144461221Y-94606292D01*
X144503586Y-94542889D01*
X144574068Y-94372729D01*
X144610000Y-94192089D01*
X144610000Y-94007911D01*
X153515000Y-94007911D01*
X153515000Y-94192089D01*
X153550932Y-94372729D01*
X153621414Y-94542889D01*
X153723738Y-94696028D01*
X153853972Y-94826262D01*
X154007111Y-94928586D01*
X154177271Y-94999068D01*
X154357911Y-95035000D01*
X154542089Y-95035000D01*
X154722729Y-94999068D01*
X154892889Y-94928586D01*
X155046028Y-94826262D01*
X155176262Y-94696028D01*
X155278586Y-94542889D01*
X155349068Y-94372729D01*
X155385000Y-94192089D01*
X155385000Y-94007911D01*
X155349068Y-93827271D01*
X155278586Y-93657111D01*
X155245712Y-93607911D01*
X158565000Y-93607911D01*
X158565000Y-93792089D01*
X158600932Y-93972729D01*
X158671414Y-94142889D01*
X158773738Y-94296028D01*
X158903972Y-94426262D01*
X159057111Y-94528586D01*
X159227271Y-94599068D01*
X159407911Y-94635000D01*
X159592089Y-94635000D01*
X159772729Y-94599068D01*
X159942889Y-94528586D01*
X160096028Y-94426262D01*
X160226262Y-94296028D01*
X160328586Y-94142889D01*
X160399068Y-93972729D01*
X160435000Y-93792089D01*
X160435000Y-93607911D01*
X160399068Y-93427271D01*
X160328586Y-93257111D01*
X160226262Y-93103972D01*
X160096028Y-92973738D01*
X159942889Y-92871414D01*
X159772729Y-92800932D01*
X159592089Y-92765000D01*
X159407911Y-92765000D01*
X159227271Y-92800932D01*
X159057111Y-92871414D01*
X158903972Y-92973738D01*
X158773738Y-93103972D01*
X158671414Y-93257111D01*
X158600932Y-93427271D01*
X158565000Y-93607911D01*
X155245712Y-93607911D01*
X155176262Y-93503972D01*
X155046028Y-93373738D01*
X154998086Y-93341704D01*
X155096028Y-93276262D01*
X155226262Y-93146028D01*
X155328586Y-92992889D01*
X155399068Y-92822729D01*
X155435000Y-92642089D01*
X155435000Y-92457911D01*
X155399068Y-92277271D01*
X155349628Y-92157911D01*
X156715000Y-92157911D01*
X156715000Y-92342089D01*
X156750932Y-92522729D01*
X156821414Y-92692889D01*
X156923738Y-92846028D01*
X157053972Y-92976262D01*
X157207111Y-93078586D01*
X157377271Y-93149068D01*
X157557911Y-93185000D01*
X157742089Y-93185000D01*
X157922729Y-93149068D01*
X158092889Y-93078586D01*
X158246028Y-92976262D01*
X158376262Y-92846028D01*
X158478586Y-92692889D01*
X158549068Y-92522729D01*
X158585000Y-92342089D01*
X158585000Y-92157911D01*
X158549068Y-91977271D01*
X158478586Y-91807111D01*
X158376262Y-91653972D01*
X158246028Y-91523738D01*
X158092889Y-91421414D01*
X157922729Y-91350932D01*
X157742089Y-91315000D01*
X157557911Y-91315000D01*
X157377271Y-91350932D01*
X157207111Y-91421414D01*
X157053972Y-91523738D01*
X156923738Y-91653972D01*
X156821414Y-91807111D01*
X156750932Y-91977271D01*
X156715000Y-92157911D01*
X155349628Y-92157911D01*
X155328586Y-92107111D01*
X155226262Y-91953972D01*
X155096028Y-91823738D01*
X154942889Y-91721414D01*
X154772729Y-91650932D01*
X154592089Y-91615000D01*
X154407911Y-91615000D01*
X154227271Y-91650932D01*
X154057111Y-91721414D01*
X153903972Y-91823738D01*
X153773738Y-91953972D01*
X153671414Y-92107111D01*
X153600932Y-92277271D01*
X153565000Y-92457911D01*
X153565000Y-92642089D01*
X153600932Y-92822729D01*
X153671414Y-92992889D01*
X153773738Y-93146028D01*
X153903972Y-93276262D01*
X153951914Y-93308296D01*
X153853972Y-93373738D01*
X153723738Y-93503972D01*
X153621414Y-93657111D01*
X153550932Y-93827271D01*
X153515000Y-94007911D01*
X144610000Y-94007911D01*
X144574068Y-93827271D01*
X144503586Y-93657111D01*
X144401262Y-93503972D01*
X144271028Y-93373738D01*
X144117889Y-93271414D01*
X143947729Y-93200932D01*
X143767089Y-93165000D01*
X143582911Y-93165000D01*
X143402271Y-93200932D01*
X143232111Y-93271414D01*
X143078972Y-93373738D01*
X142948738Y-93503972D01*
X142846414Y-93657111D01*
X142775932Y-93827271D01*
X142740000Y-94007911D01*
X141922091Y-94007911D01*
X141992889Y-93978586D01*
X142146028Y-93876262D01*
X142276262Y-93746028D01*
X142378586Y-93592889D01*
X142449068Y-93422729D01*
X142485000Y-93242089D01*
X142485000Y-93057911D01*
X142480443Y-93035000D01*
X142542089Y-93035000D01*
X142722729Y-92999068D01*
X142892889Y-92928586D01*
X143046028Y-92826262D01*
X143176262Y-92696028D01*
X143278586Y-92542889D01*
X143349068Y-92372729D01*
X143385000Y-92192089D01*
X143385000Y-92007911D01*
X143349068Y-91827271D01*
X143278586Y-91657111D01*
X143176262Y-91503972D01*
X143046028Y-91373738D01*
X142892889Y-91271414D01*
X142722729Y-91200932D01*
X142542089Y-91165000D01*
X142357911Y-91165000D01*
X142177271Y-91200932D01*
X142007111Y-91271414D01*
X141853972Y-91373738D01*
X141723738Y-91503972D01*
X141621414Y-91657111D01*
X141550932Y-91827271D01*
X141515000Y-92007911D01*
X141515000Y-92192089D01*
X141519557Y-92215000D01*
X141457911Y-92215000D01*
X141277271Y-92250932D01*
X141107111Y-92321414D01*
X140953972Y-92423738D01*
X140823738Y-92553972D01*
X140721414Y-92707111D01*
X140650932Y-92877271D01*
X140615000Y-93057911D01*
X140615000Y-93242089D01*
X140650932Y-93422729D01*
X140721414Y-93592889D01*
X140726893Y-93601089D01*
X140557111Y-93671414D01*
X140500000Y-93709574D01*
X140442889Y-93671414D01*
X140272729Y-93600932D01*
X140092089Y-93565000D01*
X139907911Y-93565000D01*
X139727271Y-93600932D01*
X139557111Y-93671414D01*
X139462500Y-93734631D01*
X139367889Y-93671414D01*
X139197729Y-93600932D01*
X139017089Y-93565000D01*
X138832911Y-93565000D01*
X138652271Y-93600932D01*
X138482111Y-93671414D01*
X138328972Y-93773738D01*
X138198738Y-93903972D01*
X138187500Y-93920791D01*
X138176262Y-93903972D01*
X138046028Y-93773738D01*
X137892889Y-93671414D01*
X137722729Y-93600932D01*
X137542089Y-93565000D01*
X137357911Y-93565000D01*
X137177271Y-93600932D01*
X137007111Y-93671414D01*
X136853972Y-93773738D01*
X136723738Y-93903972D01*
X136621414Y-94057111D01*
X136550932Y-94227271D01*
X136515000Y-94407911D01*
X126710000Y-94407911D01*
X126710000Y-90357911D01*
X136665000Y-90357911D01*
X136665000Y-90542089D01*
X136700932Y-90722729D01*
X136771414Y-90892889D01*
X136873738Y-91046028D01*
X137003972Y-91176262D01*
X137157111Y-91278586D01*
X137327271Y-91349068D01*
X137507911Y-91385000D01*
X137692089Y-91385000D01*
X137872729Y-91349068D01*
X138042889Y-91278586D01*
X138196028Y-91176262D01*
X138326262Y-91046028D01*
X138428586Y-90892889D01*
X138499068Y-90722729D01*
X138511961Y-90657911D01*
X159115000Y-90657911D01*
X159115000Y-90842089D01*
X159150932Y-91022729D01*
X159221414Y-91192889D01*
X159323738Y-91346028D01*
X159453972Y-91476262D01*
X159607111Y-91578586D01*
X159777271Y-91649068D01*
X159957911Y-91685000D01*
X160142089Y-91685000D01*
X160322729Y-91649068D01*
X160492889Y-91578586D01*
X160646028Y-91476262D01*
X160775000Y-91347290D01*
X160903972Y-91476262D01*
X161057111Y-91578586D01*
X161227271Y-91649068D01*
X161407911Y-91685000D01*
X161592089Y-91685000D01*
X161772729Y-91649068D01*
X161942889Y-91578586D01*
X162096028Y-91476262D01*
X162226262Y-91346028D01*
X162328586Y-91192889D01*
X162399068Y-91022729D01*
X162435000Y-90842089D01*
X162435000Y-90657911D01*
X162399068Y-90477271D01*
X162328586Y-90307111D01*
X162273721Y-90225000D01*
X162328586Y-90142889D01*
X162399068Y-89972729D01*
X162435000Y-89792089D01*
X162435000Y-89607911D01*
X162399068Y-89427271D01*
X162328586Y-89257111D01*
X162226262Y-89103972D01*
X162096028Y-88973738D01*
X161942889Y-88871414D01*
X161772729Y-88800932D01*
X161592089Y-88765000D01*
X161407911Y-88765000D01*
X161227271Y-88800932D01*
X161057111Y-88871414D01*
X160903972Y-88973738D01*
X160773738Y-89103972D01*
X160671414Y-89257111D01*
X160600932Y-89427271D01*
X160565000Y-89607911D01*
X160565000Y-89792089D01*
X160600932Y-89972729D01*
X160612889Y-90001595D01*
X160492889Y-89921414D01*
X160322729Y-89850932D01*
X160142089Y-89815000D01*
X159957911Y-89815000D01*
X159777271Y-89850932D01*
X159607111Y-89921414D01*
X159453972Y-90023738D01*
X159323738Y-90153972D01*
X159221414Y-90307111D01*
X159150932Y-90477271D01*
X159115000Y-90657911D01*
X138511961Y-90657911D01*
X138535000Y-90542089D01*
X138535000Y-90357911D01*
X138499068Y-90177271D01*
X138428586Y-90007111D01*
X138326262Y-89853972D01*
X138196028Y-89723738D01*
X138042889Y-89621414D01*
X137872729Y-89550932D01*
X137692089Y-89515000D01*
X137507911Y-89515000D01*
X137327271Y-89550932D01*
X137157111Y-89621414D01*
X137003972Y-89723738D01*
X136873738Y-89853972D01*
X136771414Y-90007111D01*
X136700932Y-90177271D01*
X136665000Y-90357911D01*
X126710000Y-90357911D01*
X126710000Y-75050000D01*
X133611928Y-75050000D01*
X133611928Y-76750000D01*
X133624188Y-76874482D01*
X133660498Y-76994180D01*
X133719463Y-77104494D01*
X133798815Y-77201185D01*
X133895506Y-77280537D01*
X134005820Y-77339502D01*
X134078380Y-77361513D01*
X133946525Y-77493368D01*
X133784010Y-77736589D01*
X133672068Y-78006842D01*
X133615000Y-78293740D01*
X133615000Y-78586260D01*
X133672068Y-78873158D01*
X133784010Y-79143411D01*
X133946525Y-79386632D01*
X134153368Y-79593475D01*
X134327760Y-79710000D01*
X134153368Y-79826525D01*
X133946525Y-80033368D01*
X133784010Y-80276589D01*
X133672068Y-80546842D01*
X133615000Y-80833740D01*
X133615000Y-81126260D01*
X133672068Y-81413158D01*
X133784010Y-81683411D01*
X133946525Y-81926632D01*
X134153368Y-82133475D01*
X134327760Y-82250000D01*
X134153368Y-82366525D01*
X133946525Y-82573368D01*
X133784010Y-82816589D01*
X133672068Y-83086842D01*
X133615000Y-83373740D01*
X133615000Y-83666260D01*
X133672068Y-83953158D01*
X133784010Y-84223411D01*
X133946525Y-84466632D01*
X134153368Y-84673475D01*
X134327760Y-84790000D01*
X134153368Y-84906525D01*
X133946525Y-85113368D01*
X133784010Y-85356589D01*
X133672068Y-85626842D01*
X133615000Y-85913740D01*
X133615000Y-86206260D01*
X133672068Y-86493158D01*
X133784010Y-86763411D01*
X133946525Y-87006632D01*
X134153368Y-87213475D01*
X134327760Y-87330000D01*
X134153368Y-87446525D01*
X133946525Y-87653368D01*
X133784010Y-87896589D01*
X133672068Y-88166842D01*
X133615000Y-88453740D01*
X133615000Y-88746260D01*
X133672068Y-89033158D01*
X133784010Y-89303411D01*
X133946525Y-89546632D01*
X134153368Y-89753475D01*
X134396589Y-89915990D01*
X134666842Y-90027932D01*
X134953740Y-90085000D01*
X135246260Y-90085000D01*
X135533158Y-90027932D01*
X135803411Y-89915990D01*
X136046632Y-89753475D01*
X136253475Y-89546632D01*
X136279347Y-89507911D01*
X146515000Y-89507911D01*
X146515000Y-89692089D01*
X146550932Y-89872729D01*
X146621414Y-90042889D01*
X146723738Y-90196028D01*
X146853972Y-90326262D01*
X147007111Y-90428586D01*
X147177271Y-90499068D01*
X147357911Y-90535000D01*
X147542089Y-90535000D01*
X147722729Y-90499068D01*
X147892889Y-90428586D01*
X148046028Y-90326262D01*
X148176262Y-90196028D01*
X148278586Y-90042889D01*
X148349068Y-89872729D01*
X148385000Y-89692089D01*
X148385000Y-89507911D01*
X148349068Y-89327271D01*
X148278586Y-89157111D01*
X148176262Y-89003972D01*
X148046028Y-88873738D01*
X147892889Y-88771414D01*
X147722729Y-88700932D01*
X147542089Y-88665000D01*
X147357911Y-88665000D01*
X147177271Y-88700932D01*
X147007111Y-88771414D01*
X146853972Y-88873738D01*
X146723738Y-89003972D01*
X146621414Y-89157111D01*
X146550932Y-89327271D01*
X146515000Y-89507911D01*
X136279347Y-89507911D01*
X136415990Y-89303411D01*
X136527932Y-89033158D01*
X136585000Y-88746260D01*
X136585000Y-88453740D01*
X136527932Y-88166842D01*
X136415990Y-87896589D01*
X136253475Y-87653368D01*
X136046632Y-87446525D01*
X135914012Y-87357911D01*
X138590000Y-87357911D01*
X138590000Y-87542089D01*
X138625932Y-87722729D01*
X138696414Y-87892889D01*
X138798738Y-88046028D01*
X138928972Y-88176262D01*
X139082111Y-88278586D01*
X139252271Y-88349068D01*
X139432911Y-88385000D01*
X139617089Y-88385000D01*
X139797729Y-88349068D01*
X139967889Y-88278586D01*
X140121028Y-88176262D01*
X140251262Y-88046028D01*
X140353586Y-87892889D01*
X140424068Y-87722729D01*
X140460000Y-87542089D01*
X140460000Y-87357911D01*
X140424068Y-87177271D01*
X140353586Y-87007111D01*
X140251262Y-86853972D01*
X140121028Y-86723738D01*
X139967889Y-86621414D01*
X139797729Y-86550932D01*
X139617089Y-86515000D01*
X139432911Y-86515000D01*
X139252271Y-86550932D01*
X139082111Y-86621414D01*
X138928972Y-86723738D01*
X138798738Y-86853972D01*
X138696414Y-87007111D01*
X138625932Y-87177271D01*
X138590000Y-87357911D01*
X135914012Y-87357911D01*
X135872240Y-87330000D01*
X136046632Y-87213475D01*
X136253475Y-87006632D01*
X136415990Y-86763411D01*
X136527932Y-86493158D01*
X136585000Y-86206260D01*
X136585000Y-86057911D01*
X140840000Y-86057911D01*
X140840000Y-86242089D01*
X140875932Y-86422729D01*
X140946414Y-86592889D01*
X141048738Y-86746028D01*
X141178972Y-86876262D01*
X141332111Y-86978586D01*
X141502271Y-87049068D01*
X141682911Y-87085000D01*
X141867089Y-87085000D01*
X142047729Y-87049068D01*
X142217889Y-86978586D01*
X142371028Y-86876262D01*
X142501262Y-86746028D01*
X142526730Y-86707911D01*
X146515000Y-86707911D01*
X146515000Y-86892089D01*
X146550932Y-87072729D01*
X146621414Y-87242889D01*
X146723738Y-87396028D01*
X146853972Y-87526262D01*
X147007111Y-87628586D01*
X147177271Y-87699068D01*
X147357911Y-87735000D01*
X147542089Y-87735000D01*
X147722729Y-87699068D01*
X147892889Y-87628586D01*
X148046028Y-87526262D01*
X148143615Y-87428675D01*
X148869700Y-87428675D01*
X148869700Y-87651325D01*
X148913137Y-87869696D01*
X148998341Y-88075398D01*
X149122039Y-88260524D01*
X149279476Y-88417961D01*
X149464602Y-88541659D01*
X149670304Y-88626863D01*
X149888675Y-88670300D01*
X150111325Y-88670300D01*
X150329696Y-88626863D01*
X150535398Y-88541659D01*
X150720524Y-88417961D01*
X150877961Y-88260524D01*
X151001659Y-88075398D01*
X151086863Y-87869696D01*
X151130300Y-87651325D01*
X151130300Y-87428675D01*
X151086863Y-87210304D01*
X151001659Y-87004602D01*
X150877961Y-86819476D01*
X150720524Y-86662039D01*
X150535398Y-86538341D01*
X150329696Y-86453137D01*
X150111325Y-86409700D01*
X149888675Y-86409700D01*
X149670304Y-86453137D01*
X149464602Y-86538341D01*
X149279476Y-86662039D01*
X149122039Y-86819476D01*
X148998341Y-87004602D01*
X148913137Y-87210304D01*
X148869700Y-87428675D01*
X148143615Y-87428675D01*
X148176262Y-87396028D01*
X148278586Y-87242889D01*
X148349068Y-87072729D01*
X148385000Y-86892089D01*
X148385000Y-86707911D01*
X148349068Y-86527271D01*
X148278586Y-86357111D01*
X148176262Y-86203972D01*
X148150201Y-86177911D01*
X150745000Y-86177911D01*
X150745000Y-86362089D01*
X150780932Y-86542729D01*
X150851414Y-86712889D01*
X150953738Y-86866028D01*
X151083972Y-86996262D01*
X151237111Y-87098586D01*
X151407271Y-87169068D01*
X151587911Y-87205000D01*
X151772089Y-87205000D01*
X151952729Y-87169068D01*
X152122889Y-87098586D01*
X152127775Y-87095321D01*
X159112341Y-87095321D01*
X159112341Y-87279499D01*
X159148273Y-87460139D01*
X159218755Y-87630299D01*
X159321079Y-87783438D01*
X159451313Y-87913672D01*
X159604452Y-88015996D01*
X159774612Y-88086478D01*
X159955252Y-88122410D01*
X160139430Y-88122410D01*
X160320070Y-88086478D01*
X160490230Y-88015996D01*
X160643369Y-87913672D01*
X160773603Y-87783438D01*
X160875927Y-87630299D01*
X160946409Y-87460139D01*
X160982341Y-87279499D01*
X160982341Y-87157911D01*
X164065000Y-87157911D01*
X164065000Y-87342089D01*
X164100932Y-87522729D01*
X164171414Y-87692889D01*
X164273738Y-87846028D01*
X164403972Y-87976262D01*
X164557111Y-88078586D01*
X164727271Y-88149068D01*
X164907911Y-88185000D01*
X165092089Y-88185000D01*
X165272729Y-88149068D01*
X165442889Y-88078586D01*
X165596028Y-87976262D01*
X165726262Y-87846028D01*
X165828586Y-87692889D01*
X165899068Y-87522729D01*
X165935000Y-87342089D01*
X165935000Y-87157911D01*
X165899068Y-86977271D01*
X165828586Y-86807111D01*
X165734132Y-86665751D01*
X165833622Y-86599274D01*
X165963856Y-86469040D01*
X166066180Y-86315901D01*
X166136662Y-86145741D01*
X166139164Y-86133163D01*
X166227271Y-86169658D01*
X166407911Y-86205590D01*
X166592089Y-86205590D01*
X166772729Y-86169658D01*
X166942889Y-86099176D01*
X167096028Y-85996852D01*
X167226262Y-85866618D01*
X167298897Y-85757911D01*
X168065000Y-85757911D01*
X168065000Y-85942089D01*
X168100932Y-86122729D01*
X168171414Y-86292889D01*
X168273738Y-86446028D01*
X168403972Y-86576262D01*
X168557111Y-86678586D01*
X168727271Y-86749068D01*
X168907911Y-86785000D01*
X169092089Y-86785000D01*
X169272729Y-86749068D01*
X169442889Y-86678586D01*
X169542542Y-86612000D01*
X170437426Y-86612000D01*
X170549378Y-86600974D01*
X170693015Y-86557402D01*
X170825392Y-86486645D01*
X170941422Y-86391422D01*
X171036645Y-86275392D01*
X171107402Y-86143015D01*
X171150974Y-85999378D01*
X171165686Y-85850000D01*
X171150974Y-85700622D01*
X171107402Y-85556985D01*
X171036645Y-85424608D01*
X170941422Y-85308578D01*
X170825392Y-85213355D01*
X170693015Y-85142598D01*
X170549378Y-85099026D01*
X170437426Y-85088000D01*
X169542542Y-85088000D01*
X169442889Y-85021414D01*
X169272729Y-84950932D01*
X169092089Y-84915000D01*
X168907911Y-84915000D01*
X168727271Y-84950932D01*
X168557111Y-85021414D01*
X168403972Y-85123738D01*
X168273738Y-85253972D01*
X168171414Y-85407111D01*
X168100932Y-85577271D01*
X168065000Y-85757911D01*
X167298897Y-85757911D01*
X167328586Y-85713479D01*
X167399068Y-85543319D01*
X167435000Y-85362679D01*
X167435000Y-85178501D01*
X167399068Y-84997861D01*
X167328586Y-84827701D01*
X167226262Y-84674562D01*
X167096028Y-84544328D01*
X166942889Y-84442004D01*
X166772729Y-84371522D01*
X166592089Y-84335590D01*
X166547388Y-84335590D01*
X166526262Y-84303972D01*
X166396028Y-84173738D01*
X166242889Y-84071414D01*
X166072729Y-84000932D01*
X165892089Y-83965000D01*
X165707911Y-83965000D01*
X165527271Y-84000932D01*
X165357111Y-84071414D01*
X165203972Y-84173738D01*
X165073738Y-84303972D01*
X164971414Y-84457111D01*
X164900932Y-84627271D01*
X164865000Y-84807911D01*
X164865000Y-84992089D01*
X164869267Y-85013542D01*
X164794705Y-85044426D01*
X164641566Y-85146750D01*
X164511332Y-85276984D01*
X164409008Y-85430123D01*
X164338526Y-85600283D01*
X164302594Y-85780923D01*
X164302594Y-85965101D01*
X164338526Y-86145741D01*
X164409008Y-86315901D01*
X164503462Y-86457261D01*
X164403972Y-86523738D01*
X164273738Y-86653972D01*
X164171414Y-86807111D01*
X164100932Y-86977271D01*
X164065000Y-87157911D01*
X160982341Y-87157911D01*
X160982341Y-87095321D01*
X160946409Y-86914681D01*
X160875927Y-86744521D01*
X160773603Y-86591382D01*
X160643369Y-86461148D01*
X160490230Y-86358824D01*
X160320070Y-86288342D01*
X160139430Y-86252410D01*
X159955252Y-86252410D01*
X159774612Y-86288342D01*
X159604452Y-86358824D01*
X159451313Y-86461148D01*
X159321079Y-86591382D01*
X159218755Y-86744521D01*
X159148273Y-86914681D01*
X159112341Y-87095321D01*
X152127775Y-87095321D01*
X152276028Y-86996262D01*
X152406262Y-86866028D01*
X152508586Y-86712889D01*
X152579068Y-86542729D01*
X152615000Y-86362089D01*
X152615000Y-86177911D01*
X152579068Y-85997271D01*
X152508586Y-85827111D01*
X152406262Y-85673972D01*
X152276028Y-85543738D01*
X152122889Y-85441414D01*
X151952729Y-85370932D01*
X151772089Y-85335000D01*
X151587911Y-85335000D01*
X151407271Y-85370932D01*
X151237111Y-85441414D01*
X151083972Y-85543738D01*
X150953738Y-85673972D01*
X150851414Y-85827111D01*
X150780932Y-85997271D01*
X150745000Y-86177911D01*
X148150201Y-86177911D01*
X148046028Y-86073738D01*
X147892889Y-85971414D01*
X147722729Y-85900932D01*
X147542089Y-85865000D01*
X147357911Y-85865000D01*
X147177271Y-85900932D01*
X147007111Y-85971414D01*
X146853972Y-86073738D01*
X146723738Y-86203972D01*
X146621414Y-86357111D01*
X146550932Y-86527271D01*
X146515000Y-86707911D01*
X142526730Y-86707911D01*
X142603586Y-86592889D01*
X142668985Y-86435000D01*
X142842089Y-86435000D01*
X143022729Y-86399068D01*
X143192889Y-86328586D01*
X143346028Y-86226262D01*
X143476262Y-86096028D01*
X143578586Y-85942889D01*
X143649068Y-85772729D01*
X143672675Y-85654052D01*
X143697729Y-85649068D01*
X143867889Y-85578586D01*
X144021028Y-85476262D01*
X144151262Y-85346028D01*
X144253586Y-85192889D01*
X144324068Y-85022729D01*
X144360000Y-84842089D01*
X144360000Y-84657911D01*
X144324068Y-84477271D01*
X144253586Y-84307111D01*
X144151262Y-84153972D01*
X144021028Y-84023738D01*
X143867889Y-83921414D01*
X143835290Y-83907911D01*
X146515000Y-83907911D01*
X146515000Y-84092089D01*
X146550932Y-84272729D01*
X146621414Y-84442889D01*
X146723738Y-84596028D01*
X146853972Y-84726262D01*
X147007111Y-84828586D01*
X147177271Y-84899068D01*
X147357911Y-84935000D01*
X147542089Y-84935000D01*
X147722729Y-84899068D01*
X147892889Y-84828586D01*
X148046028Y-84726262D01*
X148176262Y-84596028D01*
X148278586Y-84442889D01*
X148293074Y-84407911D01*
X155015000Y-84407911D01*
X155015000Y-84592089D01*
X155050932Y-84772729D01*
X155121414Y-84942889D01*
X155223738Y-85096028D01*
X155353972Y-85226262D01*
X155507111Y-85328586D01*
X155677271Y-85399068D01*
X155857911Y-85435000D01*
X156042089Y-85435000D01*
X156222729Y-85399068D01*
X156392889Y-85328586D01*
X156546028Y-85226262D01*
X156676262Y-85096028D01*
X156778586Y-84942889D01*
X156849068Y-84772729D01*
X156885000Y-84592089D01*
X156885000Y-84407911D01*
X156849068Y-84227271D01*
X156778586Y-84057111D01*
X156676262Y-83903972D01*
X156546028Y-83773738D01*
X156392889Y-83671414D01*
X156222729Y-83600932D01*
X156042089Y-83565000D01*
X155857911Y-83565000D01*
X155677271Y-83600932D01*
X155507111Y-83671414D01*
X155353972Y-83773738D01*
X155223738Y-83903972D01*
X155121414Y-84057111D01*
X155050932Y-84227271D01*
X155015000Y-84407911D01*
X148293074Y-84407911D01*
X148349068Y-84272729D01*
X148385000Y-84092089D01*
X148385000Y-83907911D01*
X148349068Y-83727271D01*
X148278586Y-83557111D01*
X148176262Y-83403972D01*
X148046028Y-83273738D01*
X147892889Y-83171414D01*
X147722729Y-83100932D01*
X147542089Y-83065000D01*
X147357911Y-83065000D01*
X147177271Y-83100932D01*
X147007111Y-83171414D01*
X146853972Y-83273738D01*
X146723738Y-83403972D01*
X146621414Y-83557111D01*
X146550932Y-83727271D01*
X146515000Y-83907911D01*
X143835290Y-83907911D01*
X143697729Y-83850932D01*
X143517089Y-83815000D01*
X143332911Y-83815000D01*
X143152271Y-83850932D01*
X142982111Y-83921414D01*
X142828972Y-84023738D01*
X142698738Y-84153972D01*
X142596414Y-84307111D01*
X142525932Y-84477271D01*
X142502325Y-84595948D01*
X142477271Y-84600932D01*
X142307111Y-84671414D01*
X142153972Y-84773738D01*
X142023738Y-84903972D01*
X141921414Y-85057111D01*
X141856015Y-85215000D01*
X141682911Y-85215000D01*
X141502271Y-85250932D01*
X141332111Y-85321414D01*
X141178972Y-85423738D01*
X141048738Y-85553972D01*
X140946414Y-85707111D01*
X140875932Y-85877271D01*
X140840000Y-86057911D01*
X136585000Y-86057911D01*
X136585000Y-85913740D01*
X136527932Y-85626842D01*
X136415990Y-85356589D01*
X136253475Y-85113368D01*
X136046632Y-84906525D01*
X135872240Y-84790000D01*
X136046632Y-84673475D01*
X136253475Y-84466632D01*
X136415990Y-84223411D01*
X136527932Y-83953158D01*
X136585000Y-83666260D01*
X136585000Y-83373740D01*
X136527932Y-83086842D01*
X136415990Y-82816589D01*
X136253475Y-82573368D01*
X136046632Y-82366525D01*
X136019918Y-82348675D01*
X147853700Y-82348675D01*
X147853700Y-82571325D01*
X147897137Y-82789696D01*
X147982341Y-82995398D01*
X148106039Y-83180524D01*
X148263476Y-83337961D01*
X148448602Y-83461659D01*
X148654304Y-83546863D01*
X148872675Y-83590300D01*
X149095325Y-83590300D01*
X149313696Y-83546863D01*
X149519398Y-83461659D01*
X149704524Y-83337961D01*
X149861961Y-83180524D01*
X149985659Y-82995398D01*
X150000000Y-82960776D01*
X150014341Y-82995398D01*
X150138039Y-83180524D01*
X150295476Y-83337961D01*
X150480602Y-83461659D01*
X150686304Y-83546863D01*
X150904675Y-83590300D01*
X151127325Y-83590300D01*
X151345696Y-83546863D01*
X151551398Y-83461659D01*
X151736524Y-83337961D01*
X151893961Y-83180524D01*
X152017659Y-82995398D01*
X152102863Y-82789696D01*
X152146300Y-82571325D01*
X152146300Y-82348675D01*
X152102863Y-82130304D01*
X152017659Y-81924602D01*
X151893961Y-81739476D01*
X151736524Y-81582039D01*
X151551398Y-81458341D01*
X151345696Y-81373137D01*
X151127325Y-81329700D01*
X150904675Y-81329700D01*
X150686304Y-81373137D01*
X150480602Y-81458341D01*
X150295476Y-81582039D01*
X150138039Y-81739476D01*
X150014341Y-81924602D01*
X150000000Y-81959224D01*
X149985659Y-81924602D01*
X149861961Y-81739476D01*
X149704524Y-81582039D01*
X149519398Y-81458341D01*
X149313696Y-81373137D01*
X149095325Y-81329700D01*
X148872675Y-81329700D01*
X148654304Y-81373137D01*
X148448602Y-81458341D01*
X148263476Y-81582039D01*
X148106039Y-81739476D01*
X147982341Y-81924602D01*
X147897137Y-82130304D01*
X147853700Y-82348675D01*
X136019918Y-82348675D01*
X135872240Y-82250000D01*
X136046632Y-82133475D01*
X136253475Y-81926632D01*
X136415990Y-81683411D01*
X136527932Y-81413158D01*
X136585000Y-81126260D01*
X136585000Y-80833740D01*
X136527932Y-80546842D01*
X136415990Y-80276589D01*
X136253475Y-80033368D01*
X136046632Y-79826525D01*
X135872240Y-79710000D01*
X136025019Y-79607916D01*
X139365009Y-79607916D01*
X139365009Y-79792094D01*
X139400941Y-79972734D01*
X139471423Y-80142894D01*
X139573747Y-80296033D01*
X139703981Y-80426267D01*
X139857120Y-80528591D01*
X140027280Y-80599073D01*
X140207920Y-80635005D01*
X140392098Y-80635005D01*
X140572738Y-80599073D01*
X140742898Y-80528591D01*
X140824992Y-80473738D01*
X140907098Y-80528599D01*
X141077258Y-80599081D01*
X141257898Y-80635013D01*
X141442076Y-80635013D01*
X141622716Y-80599081D01*
X141792876Y-80528599D01*
X141946015Y-80426275D01*
X142076249Y-80296041D01*
X142178573Y-80142902D01*
X142249055Y-79972742D01*
X142261950Y-79907911D01*
X160115000Y-79907911D01*
X160115000Y-80092089D01*
X160150932Y-80272729D01*
X160221414Y-80442889D01*
X160242870Y-80475000D01*
X160221414Y-80507111D01*
X160150932Y-80677271D01*
X160115000Y-80857911D01*
X160115000Y-81042089D01*
X160150932Y-81222729D01*
X160221414Y-81392889D01*
X160323738Y-81546028D01*
X160453972Y-81676262D01*
X160607111Y-81778586D01*
X160777271Y-81849068D01*
X160957911Y-81885000D01*
X161142089Y-81885000D01*
X161322729Y-81849068D01*
X161492889Y-81778586D01*
X161646028Y-81676262D01*
X161776262Y-81546028D01*
X161878586Y-81392889D01*
X161949068Y-81222729D01*
X161985000Y-81042089D01*
X161985000Y-80857911D01*
X161949068Y-80677271D01*
X161878586Y-80507111D01*
X161857130Y-80475000D01*
X161878586Y-80442889D01*
X161949068Y-80272729D01*
X161985000Y-80092089D01*
X161985000Y-79907911D01*
X161949068Y-79727271D01*
X161878586Y-79557111D01*
X161776262Y-79403972D01*
X161646028Y-79273738D01*
X161492889Y-79171414D01*
X161322729Y-79100932D01*
X161142089Y-79065000D01*
X160957911Y-79065000D01*
X160777271Y-79100932D01*
X160607111Y-79171414D01*
X160453972Y-79273738D01*
X160323738Y-79403972D01*
X160221414Y-79557111D01*
X160150932Y-79727271D01*
X160115000Y-79907911D01*
X142261950Y-79907911D01*
X142284987Y-79792102D01*
X142284987Y-79607924D01*
X142249055Y-79427284D01*
X142178573Y-79257124D01*
X142076249Y-79103985D01*
X141946015Y-78973751D01*
X141792876Y-78871427D01*
X141622716Y-78800945D01*
X141442076Y-78765013D01*
X141257898Y-78765013D01*
X141077258Y-78800945D01*
X140907098Y-78871427D01*
X140825004Y-78926280D01*
X140742898Y-78871419D01*
X140572738Y-78800937D01*
X140392098Y-78765005D01*
X140207920Y-78765005D01*
X140027280Y-78800937D01*
X139857120Y-78871419D01*
X139703981Y-78973743D01*
X139573747Y-79103977D01*
X139471423Y-79257116D01*
X139400941Y-79427276D01*
X139365009Y-79607916D01*
X136025019Y-79607916D01*
X136046632Y-79593475D01*
X136253475Y-79386632D01*
X136415990Y-79143411D01*
X136527932Y-78873158D01*
X136585000Y-78586260D01*
X136585000Y-78293740D01*
X136527932Y-78006842D01*
X136415990Y-77736589D01*
X136253475Y-77493368D01*
X136121620Y-77361513D01*
X136194180Y-77339502D01*
X136304494Y-77280537D01*
X136401185Y-77201185D01*
X136480537Y-77104494D01*
X136539502Y-76994180D01*
X136575812Y-76874482D01*
X136588072Y-76750000D01*
X136588072Y-75050000D01*
X136575812Y-74925518D01*
X136539502Y-74805820D01*
X136480537Y-74695506D01*
X136401185Y-74598815D01*
X136304494Y-74519463D01*
X136194180Y-74460498D01*
X136074482Y-74424188D01*
X135950000Y-74411928D01*
X134250000Y-74411928D01*
X134125518Y-74424188D01*
X134005820Y-74460498D01*
X133895506Y-74519463D01*
X133798815Y-74598815D01*
X133719463Y-74695506D01*
X133660498Y-74805820D01*
X133624188Y-74925518D01*
X133611928Y-75050000D01*
X126710000Y-75050000D01*
X126710000Y-74034722D01*
X126718863Y-73944335D01*
X126735030Y-73890786D01*
X126761288Y-73841403D01*
X126796641Y-73798055D01*
X126839740Y-73762400D01*
X126888937Y-73735799D01*
X126942375Y-73719258D01*
X127030455Y-73710000D01*
X148734667Y-73710000D01*
X148707111Y-73721414D01*
%TD*%
M02*
