%TF.GenerationSoftware,KiCad,Pcbnew,(5.1.6)-1*%
%TF.CreationDate,2021-07-30T18:26:22-07:00*%
%TF.ProjectId,Coil Driver,436f696c-2044-4726-9976-65722e6b6963,rev?*%
%TF.SameCoordinates,Original*%
%TF.FileFunction,Legend,Top*%
%TF.FilePolarity,Positive*%
%FSLAX46Y46*%
G04 Gerber Fmt 4.6, Leading zero omitted, Abs format (unit mm)*
G04 Created by KiCad (PCBNEW (5.1.6)-1) date 2021-07-30 18:26:22*
%MOMM*%
%LPD*%
G01*
G04 APERTURE LIST*
%ADD10C,0.150000*%
%ADD11C,0.160000*%
%ADD12C,0.200000*%
%ADD13C,0.127000*%
%ADD14C,0.254000*%
%ADD15C,0.120000*%
%ADD16C,0.152400*%
G04 APERTURE END LIST*
D10*
X163267619Y-120732380D02*
X163362857Y-120732380D01*
X163458095Y-120780000D01*
X163505714Y-120827619D01*
X163553333Y-120922857D01*
X163600952Y-121113333D01*
X163600952Y-121351428D01*
X163553333Y-121541904D01*
X163505714Y-121637142D01*
X163458095Y-121684761D01*
X163362857Y-121732380D01*
X163267619Y-121732380D01*
X163172380Y-121684761D01*
X163124761Y-121637142D01*
X163077142Y-121541904D01*
X163029523Y-121351428D01*
X163029523Y-121113333D01*
X163077142Y-120922857D01*
X163124761Y-120827619D01*
X163172380Y-120780000D01*
X163267619Y-120732380D01*
X164553333Y-121732380D02*
X163981904Y-121732380D01*
X164267619Y-121732380D02*
X164267619Y-120732380D01*
X164172380Y-120875238D01*
X164077142Y-120970476D01*
X163981904Y-121018095D01*
X165696190Y-120684761D02*
X164839047Y-121970476D01*
X165981904Y-120827619D02*
X166029523Y-120780000D01*
X166124761Y-120732380D01*
X166362857Y-120732380D01*
X166458095Y-120780000D01*
X166505714Y-120827619D01*
X166553333Y-120922857D01*
X166553333Y-121018095D01*
X166505714Y-121160952D01*
X165934285Y-121732380D01*
X166553333Y-121732380D01*
X167172380Y-120732380D02*
X167267619Y-120732380D01*
X167362857Y-120780000D01*
X167410476Y-120827619D01*
X167458095Y-120922857D01*
X167505714Y-121113333D01*
X167505714Y-121351428D01*
X167458095Y-121541904D01*
X167410476Y-121637142D01*
X167362857Y-121684761D01*
X167267619Y-121732380D01*
X167172380Y-121732380D01*
X167077142Y-121684761D01*
X167029523Y-121637142D01*
X166981904Y-121541904D01*
X166934285Y-121351428D01*
X166934285Y-121113333D01*
X166981904Y-120922857D01*
X167029523Y-120827619D01*
X167077142Y-120780000D01*
X167172380Y-120732380D01*
X167886666Y-120827619D02*
X167934285Y-120780000D01*
X168029523Y-120732380D01*
X168267619Y-120732380D01*
X168362857Y-120780000D01*
X168410476Y-120827619D01*
X168458095Y-120922857D01*
X168458095Y-121018095D01*
X168410476Y-121160952D01*
X167839047Y-121732380D01*
X168458095Y-121732380D01*
X169410476Y-121732380D02*
X168839047Y-121732380D01*
X169124761Y-121732380D02*
X169124761Y-120732380D01*
X169029523Y-120875238D01*
X168934285Y-120970476D01*
X168839047Y-121018095D01*
X163064285Y-119906666D02*
X163540476Y-119906666D01*
X162969047Y-120192380D02*
X163302380Y-119192380D01*
X163635714Y-120192380D01*
X163969047Y-120097142D02*
X164016666Y-120144761D01*
X163969047Y-120192380D01*
X163921428Y-120144761D01*
X163969047Y-120097142D01*
X163969047Y-120192380D01*
X165730952Y-119240000D02*
X165635714Y-119192380D01*
X165492857Y-119192380D01*
X165350000Y-119240000D01*
X165254761Y-119335238D01*
X165207142Y-119430476D01*
X165159523Y-119620952D01*
X165159523Y-119763809D01*
X165207142Y-119954285D01*
X165254761Y-120049523D01*
X165350000Y-120144761D01*
X165492857Y-120192380D01*
X165588095Y-120192380D01*
X165730952Y-120144761D01*
X165778571Y-120097142D01*
X165778571Y-119763809D01*
X165588095Y-119763809D01*
X166588095Y-120144761D02*
X166492857Y-120192380D01*
X166302380Y-120192380D01*
X166207142Y-120144761D01*
X166159523Y-120049523D01*
X166159523Y-119668571D01*
X166207142Y-119573333D01*
X166302380Y-119525714D01*
X166492857Y-119525714D01*
X166588095Y-119573333D01*
X166635714Y-119668571D01*
X166635714Y-119763809D01*
X166159523Y-119859047D01*
X162862857Y-117662380D02*
X163100952Y-118662380D01*
X163291428Y-117948095D01*
X163481904Y-118662380D01*
X163720000Y-117662380D01*
X164100952Y-118662380D02*
X164100952Y-117662380D01*
X164481904Y-117662380D01*
X164577142Y-117710000D01*
X164624761Y-117757619D01*
X164672380Y-117852857D01*
X164672380Y-117995714D01*
X164624761Y-118090952D01*
X164577142Y-118138571D01*
X164481904Y-118186190D01*
X164100952Y-118186190D01*
X164958095Y-117662380D02*
X165529523Y-117662380D01*
X165243809Y-118662380D02*
X165243809Y-117662380D01*
X166624761Y-118662380D02*
X166624761Y-117662380D01*
X166862857Y-117662380D01*
X167005714Y-117710000D01*
X167100952Y-117805238D01*
X167148571Y-117900476D01*
X167196190Y-118090952D01*
X167196190Y-118233809D01*
X167148571Y-118424285D01*
X167100952Y-118519523D01*
X167005714Y-118614761D01*
X166862857Y-118662380D01*
X166624761Y-118662380D01*
X167624761Y-118662380D02*
X167624761Y-117995714D01*
X167624761Y-118186190D02*
X167672380Y-118090952D01*
X167720000Y-118043333D01*
X167815238Y-117995714D01*
X167910476Y-117995714D01*
X168243809Y-118662380D02*
X168243809Y-117995714D01*
X168243809Y-117662380D02*
X168196190Y-117710000D01*
X168243809Y-117757619D01*
X168291428Y-117710000D01*
X168243809Y-117662380D01*
X168243809Y-117757619D01*
X168624761Y-117995714D02*
X168862857Y-118662380D01*
X169100952Y-117995714D01*
X169862857Y-118614761D02*
X169767619Y-118662380D01*
X169577142Y-118662380D01*
X169481904Y-118614761D01*
X169434285Y-118519523D01*
X169434285Y-118138571D01*
X169481904Y-118043333D01*
X169577142Y-117995714D01*
X169767619Y-117995714D01*
X169862857Y-118043333D01*
X169910476Y-118138571D01*
X169910476Y-118233809D01*
X169434285Y-118329047D01*
X170339047Y-118662380D02*
X170339047Y-117995714D01*
X170339047Y-118186190D02*
X170386666Y-118090952D01*
X170434285Y-118043333D01*
X170529523Y-117995714D01*
X170624761Y-117995714D01*
X171577142Y-117662380D02*
X171910476Y-118662380D01*
X172243809Y-117662380D01*
X173100952Y-118662380D02*
X172529523Y-118662380D01*
X172815238Y-118662380D02*
X172815238Y-117662380D01*
X172720000Y-117805238D01*
X172624761Y-117900476D01*
X172529523Y-117948095D01*
X173529523Y-118567142D02*
X173577142Y-118614761D01*
X173529523Y-118662380D01*
X173481904Y-118614761D01*
X173529523Y-118567142D01*
X173529523Y-118662380D01*
X174196190Y-117662380D02*
X174291428Y-117662380D01*
X174386666Y-117710000D01*
X174434285Y-117757619D01*
X174481904Y-117852857D01*
X174529523Y-118043333D01*
X174529523Y-118281428D01*
X174481904Y-118471904D01*
X174434285Y-118567142D01*
X174386666Y-118614761D01*
X174291428Y-118662380D01*
X174196190Y-118662380D01*
X174100952Y-118614761D01*
X174053333Y-118567142D01*
X174005714Y-118471904D01*
X173958095Y-118281428D01*
X173958095Y-118043333D01*
X174005714Y-117852857D01*
X174053333Y-117757619D01*
X174100952Y-117710000D01*
X174196190Y-117662380D01*
D11*
X153062297Y-78402380D02*
X152961107Y-79211904D01*
X152996821Y-79307142D01*
X153038488Y-79354761D01*
X153127773Y-79402380D01*
X153318250Y-79402380D01*
X153419440Y-79354761D01*
X153473011Y-79307142D01*
X153532535Y-79211904D01*
X153633726Y-78402380D01*
X154383726Y-78878571D02*
X154520630Y-78926190D01*
X154562297Y-78973809D01*
X154598011Y-79069047D01*
X154580154Y-79211904D01*
X154520630Y-79307142D01*
X154467059Y-79354761D01*
X154365869Y-79402380D01*
X153984916Y-79402380D01*
X154109916Y-78402380D01*
X154443250Y-78402380D01*
X154532535Y-78450000D01*
X154574202Y-78497619D01*
X154609916Y-78592857D01*
X154598011Y-78688095D01*
X154538488Y-78783333D01*
X154484916Y-78830952D01*
X154383726Y-78878571D01*
X154050392Y-78878571D01*
X155050392Y-78497619D02*
X155103964Y-78450000D01*
X155205154Y-78402380D01*
X155443250Y-78402380D01*
X155532535Y-78450000D01*
X155574202Y-78497619D01*
X155609916Y-78592857D01*
X155598011Y-78688095D01*
X155532535Y-78830952D01*
X154889678Y-79402380D01*
X155508726Y-79402380D01*
X160562297Y-78402380D02*
X160461107Y-79211904D01*
X160496821Y-79307142D01*
X160538488Y-79354761D01*
X160627773Y-79402380D01*
X160818250Y-79402380D01*
X160919440Y-79354761D01*
X160973011Y-79307142D01*
X161032535Y-79211904D01*
X161133726Y-78402380D01*
X161883726Y-78878571D02*
X162020630Y-78926190D01*
X162062297Y-78973809D01*
X162098011Y-79069047D01*
X162080154Y-79211904D01*
X162020630Y-79307142D01*
X161967059Y-79354761D01*
X161865869Y-79402380D01*
X161484916Y-79402380D01*
X161609916Y-78402380D01*
X161943250Y-78402380D01*
X162032535Y-78450000D01*
X162074202Y-78497619D01*
X162109916Y-78592857D01*
X162098011Y-78688095D01*
X162038488Y-78783333D01*
X161984916Y-78830952D01*
X161883726Y-78878571D01*
X161550392Y-78878571D01*
X163008726Y-79402380D02*
X162437297Y-79402380D01*
X162723011Y-79402380D02*
X162848011Y-78402380D01*
X162734916Y-78545238D01*
X162627773Y-78640476D01*
X162526583Y-78688095D01*
X168651583Y-79402380D02*
X168377773Y-78926190D01*
X168080154Y-79402380D02*
X168205154Y-78402380D01*
X168586107Y-78402380D01*
X168675392Y-78450000D01*
X168717059Y-78497619D01*
X168752773Y-78592857D01*
X168734916Y-78735714D01*
X168675392Y-78830952D01*
X168621821Y-78878571D01*
X168520630Y-78926190D01*
X168139678Y-78926190D01*
X169038488Y-79354761D02*
X169175392Y-79402380D01*
X169413488Y-79402380D01*
X169514678Y-79354761D01*
X169568250Y-79307142D01*
X169627773Y-79211904D01*
X169639678Y-79116666D01*
X169603964Y-79021428D01*
X169562297Y-78973809D01*
X169473011Y-78926190D01*
X169288488Y-78878571D01*
X169199202Y-78830952D01*
X169157535Y-78783333D01*
X169121821Y-78688095D01*
X169133726Y-78592857D01*
X169193250Y-78497619D01*
X169246821Y-78450000D01*
X169348011Y-78402380D01*
X169586107Y-78402380D01*
X169723011Y-78450000D01*
X170014678Y-78402380D02*
X170586107Y-78402380D01*
X170175392Y-79402380D02*
X170300392Y-78402380D01*
X148684916Y-97371428D02*
X149446821Y-97371428D01*
X149018250Y-97752380D02*
X149113488Y-96990476D01*
X150399202Y-97752380D02*
X149827773Y-97752380D01*
X150113488Y-97752380D02*
X150238488Y-96752380D01*
X150125392Y-96895238D01*
X150018250Y-96990476D01*
X149917059Y-97038095D01*
X150893250Y-96847619D02*
X150946821Y-96800000D01*
X151048011Y-96752380D01*
X151286107Y-96752380D01*
X151375392Y-96800000D01*
X151417059Y-96847619D01*
X151452773Y-96942857D01*
X151440869Y-97038095D01*
X151375392Y-97180952D01*
X150732535Y-97752380D01*
X151351583Y-97752380D01*
X151762297Y-96752380D02*
X151970630Y-97752380D01*
X152428964Y-96752380D01*
X145490869Y-96802380D02*
X145699202Y-97802380D01*
X146157535Y-96802380D01*
X146365869Y-97802380D02*
X146490869Y-96802380D01*
X146728964Y-96802380D01*
X146865869Y-96850000D01*
X146949202Y-96945238D01*
X146984916Y-97040476D01*
X147008726Y-97230952D01*
X146990869Y-97373809D01*
X146919440Y-97564285D01*
X146859916Y-97659523D01*
X146752773Y-97754761D01*
X146603964Y-97802380D01*
X146365869Y-97802380D01*
X147365869Y-97802380D02*
X147490869Y-96802380D01*
X147728964Y-96802380D01*
X147865869Y-96850000D01*
X147949202Y-96945238D01*
X147984916Y-97040476D01*
X148008726Y-97230952D01*
X147990869Y-97373809D01*
X147919440Y-97564285D01*
X147859916Y-97659523D01*
X147752773Y-97754761D01*
X147603964Y-97802380D01*
X147365869Y-97802380D01*
X140446821Y-97421428D02*
X141208726Y-97421428D01*
X140780154Y-97802380D02*
X140875392Y-97040476D01*
X141667059Y-96802380D02*
X142286107Y-96802380D01*
X141905154Y-97183333D01*
X142048011Y-97183333D01*
X142137297Y-97230952D01*
X142178964Y-97278571D01*
X142214678Y-97373809D01*
X142184916Y-97611904D01*
X142125392Y-97707142D01*
X142071821Y-97754761D01*
X141970630Y-97802380D01*
X141684916Y-97802380D01*
X141595630Y-97754761D01*
X141553964Y-97707142D01*
X142601583Y-97707142D02*
X142643250Y-97754761D01*
X142589678Y-97802380D01*
X142548011Y-97754761D01*
X142601583Y-97707142D01*
X142589678Y-97802380D01*
X143095630Y-96802380D02*
X143714678Y-96802380D01*
X143333726Y-97183333D01*
X143476583Y-97183333D01*
X143565869Y-97230952D01*
X143607535Y-97278571D01*
X143643250Y-97373809D01*
X143613488Y-97611904D01*
X143553964Y-97707142D01*
X143500392Y-97754761D01*
X143399202Y-97802380D01*
X143113488Y-97802380D01*
X143024202Y-97754761D01*
X142982535Y-97707142D01*
X144000392Y-96802380D02*
X144208726Y-97802380D01*
X144667059Y-96802380D01*
X126597619Y-87382535D02*
X126597619Y-86906345D01*
X127597619Y-87031345D01*
X126597619Y-87715869D02*
X127597619Y-87840869D01*
X127597619Y-88078964D01*
X127550000Y-88215869D01*
X127454761Y-88299202D01*
X127359523Y-88334916D01*
X127169047Y-88358726D01*
X127026190Y-88340869D01*
X126835714Y-88269440D01*
X126740476Y-88209916D01*
X126645238Y-88102773D01*
X126597619Y-87953964D01*
X126597619Y-87715869D01*
X127597619Y-88745630D02*
X127597619Y-89364678D01*
X127216666Y-88983726D01*
X127216666Y-89126583D01*
X127169047Y-89215869D01*
X127121428Y-89257535D01*
X127026190Y-89293250D01*
X126788095Y-89263488D01*
X126692857Y-89203964D01*
X126645238Y-89150392D01*
X126597619Y-89049202D01*
X126597619Y-88763488D01*
X126645238Y-88674202D01*
X126692857Y-88632535D01*
X126597619Y-81432535D02*
X126597619Y-80956345D01*
X127597619Y-81081345D01*
X126597619Y-81765869D02*
X127597619Y-81890869D01*
X127597619Y-82128964D01*
X127550000Y-82265869D01*
X127454761Y-82349202D01*
X127359523Y-82384916D01*
X127169047Y-82408726D01*
X127026190Y-82390869D01*
X126835714Y-82319440D01*
X126740476Y-82259916D01*
X126645238Y-82152773D01*
X126597619Y-82003964D01*
X126597619Y-81765869D01*
X127502380Y-82831345D02*
X127550000Y-82884916D01*
X127597619Y-82986107D01*
X127597619Y-83224202D01*
X127550000Y-83313488D01*
X127502380Y-83355154D01*
X127407142Y-83390869D01*
X127311904Y-83378964D01*
X127169047Y-83313488D01*
X126597619Y-82670630D01*
X126597619Y-83289678D01*
D12*
X150000000Y-75500000D02*
X150000000Y-76000000D01*
X150500000Y-76000000D02*
X150000000Y-75500000D01*
X150500000Y-78000000D02*
X150500000Y-76000000D01*
X146600000Y-82650000D02*
X146850000Y-82400000D01*
X148100000Y-88500000D02*
X148600000Y-89000000D01*
X148100000Y-83400000D02*
X148100000Y-88450000D01*
X147350000Y-82650000D02*
X148100000Y-83400000D01*
X146600000Y-82650000D02*
X147350000Y-82650000D01*
D11*
X126597619Y-75282535D02*
X126597619Y-74806345D01*
X127597619Y-74931345D01*
X126597619Y-75615869D02*
X127597619Y-75740869D01*
X127597619Y-75978964D01*
X127550000Y-76115869D01*
X127454761Y-76199202D01*
X127359523Y-76234916D01*
X127169047Y-76258726D01*
X127026190Y-76240869D01*
X126835714Y-76169440D01*
X126740476Y-76109916D01*
X126645238Y-76002773D01*
X126597619Y-75853964D01*
X126597619Y-75615869D01*
X126597619Y-77139678D02*
X126597619Y-76568250D01*
X126597619Y-76853964D02*
X127597619Y-76978964D01*
X127454761Y-76865869D01*
X127359523Y-76758726D01*
X127311904Y-76657535D01*
D13*
%TO.C,REF\u002A\u002A*%
X160026500Y-121450000D02*
X160026500Y-118402000D01*
X160026500Y-121450000D02*
X155073500Y-121450000D01*
X155073500Y-121450000D02*
X155073500Y-118402000D01*
X159455000Y-116751000D02*
X158947000Y-114973000D01*
X158947000Y-114973000D02*
X158439000Y-115989000D01*
X155772000Y-116624000D02*
X156280000Y-114973000D01*
X156280000Y-114973000D02*
X156788000Y-115989000D01*
D14*
X158566000Y-117386000D02*
G75*
G03*
X158566000Y-117386000I-127000J0D01*
G01*
X156915000Y-117386000D02*
G75*
G03*
X156915000Y-117386000I-127000J0D01*
G01*
D13*
X157550000Y-118275000D02*
X157042000Y-118910000D01*
X157550000Y-118275000D02*
X158058000Y-118910000D01*
X157550000Y-118402000D02*
X157550000Y-119291000D01*
X155073500Y-118402000D02*
G75*
G02*
X160026500Y-118402000I2476500J0D01*
G01*
X158058000Y-119799000D02*
G75*
G02*
X157550000Y-119291000I0J508000D01*
G01*
X157550000Y-119291000D02*
G75*
G02*
X157042000Y-119799000I-508000J0D01*
G01*
D15*
%TO.C,L2*%
X169900000Y-95370000D02*
X171230000Y-95370000D01*
X171230000Y-95370000D02*
X171230000Y-96700000D01*
X171230000Y-97970000D02*
X171230000Y-100570000D01*
X168570000Y-100570000D02*
X171230000Y-100570000D01*
X168570000Y-97970000D02*
X168570000Y-100570000D01*
X168570000Y-97970000D02*
X171230000Y-97970000D01*
%TO.C,R27*%
X145875279Y-87310000D02*
X145549721Y-87310000D01*
X145875279Y-86290000D02*
X145549721Y-86290000D01*
%TO.C,R18*%
X170210000Y-111771078D02*
X170210000Y-111253922D01*
X168790000Y-111771078D02*
X168790000Y-111253922D01*
%TO.C,R3*%
X159790000Y-84228922D02*
X159790000Y-84746078D01*
X161210000Y-84228922D02*
X161210000Y-84746078D01*
%TO.C,Y1*%
X139400000Y-77950000D02*
X145150000Y-77950000D01*
X139400000Y-74350000D02*
X139400000Y-77950000D01*
X145150000Y-74350000D02*
X139400000Y-74350000D01*
%TO.C,R29*%
X129137221Y-89810000D02*
X129462779Y-89810000D01*
X129137221Y-88790000D02*
X129462779Y-88790000D01*
%TO.C,R26*%
X129137221Y-83810000D02*
X129462779Y-83810000D01*
X129137221Y-82790000D02*
X129462779Y-82790000D01*
%TO.C,R25*%
X129137221Y-77810000D02*
X129462779Y-77810000D01*
X129137221Y-76790000D02*
X129462779Y-76790000D01*
%TO.C,R12*%
X144310000Y-99850279D02*
X144310000Y-99524721D01*
X143290000Y-99850279D02*
X143290000Y-99524721D01*
%TO.C,R11*%
X148310000Y-99862779D02*
X148310000Y-99537221D01*
X147290000Y-99862779D02*
X147290000Y-99537221D01*
%TO.C,R10*%
X152310000Y-99862779D02*
X152310000Y-99537221D01*
X151290000Y-99862779D02*
X151290000Y-99537221D01*
%TO.C,D12*%
X127815000Y-87535000D02*
X130100000Y-87535000D01*
X127815000Y-86065000D02*
X127815000Y-87535000D01*
X130100000Y-86065000D02*
X127815000Y-86065000D01*
%TO.C,D11*%
X127815000Y-81535000D02*
X130100000Y-81535000D01*
X127815000Y-80065000D02*
X127815000Y-81535000D01*
X130100000Y-80065000D02*
X127815000Y-80065000D01*
%TO.C,D10*%
X127815000Y-75535000D02*
X130100000Y-75535000D01*
X127815000Y-74065000D02*
X127815000Y-75535000D01*
X130100000Y-74065000D02*
X127815000Y-74065000D01*
%TO.C,D7*%
X142535000Y-101185000D02*
X142535000Y-98900000D01*
X141065000Y-101185000D02*
X142535000Y-101185000D01*
X141065000Y-98900000D02*
X141065000Y-101185000D01*
%TO.C,D6*%
X146535000Y-101185000D02*
X146535000Y-98900000D01*
X145065000Y-101185000D02*
X146535000Y-101185000D01*
X145065000Y-98900000D02*
X145065000Y-101185000D01*
%TO.C,D3*%
X150535000Y-101185000D02*
X150535000Y-98900000D01*
X149065000Y-101185000D02*
X150535000Y-101185000D01*
X149065000Y-98900000D02*
X149065000Y-101185000D01*
%TO.C,U4*%
X137115000Y-86300000D02*
X137115000Y-88500000D01*
X137115000Y-86300000D02*
X137115000Y-84100000D01*
X143885000Y-86300000D02*
X143885000Y-88500000D01*
X143885000Y-86300000D02*
X143885000Y-82700000D01*
D10*
%TO.C,U3*%
X168575000Y-113000000D02*
G75*
G03*
X168575000Y-113000000I-75000J0D01*
G01*
D15*
%TO.C,U2*%
X131500000Y-104910000D02*
X133300000Y-104910000D01*
X133300000Y-101690000D02*
X130850000Y-101690000D01*
D10*
%TO.C,U1*%
X161575000Y-83000000D02*
G75*
G03*
X161575000Y-83000000I-75000J0D01*
G01*
D15*
%TO.C,R28*%
X145850279Y-90110000D02*
X145524721Y-90110000D01*
X145850279Y-89090000D02*
X145524721Y-89090000D01*
%TO.C,R24*%
X145787779Y-94610000D02*
X145462221Y-94610000D01*
X145787779Y-93590000D02*
X145462221Y-93590000D01*
%TO.C,R23*%
X145787779Y-93060000D02*
X145462221Y-93060000D01*
X145787779Y-92040000D02*
X145462221Y-92040000D01*
%TO.C,R22*%
X158990000Y-111100279D02*
X158990000Y-110774721D01*
X160010000Y-111100279D02*
X160010000Y-110774721D01*
%TO.C,R21*%
X148512779Y-80110000D02*
X148187221Y-80110000D01*
X148512779Y-79090000D02*
X148187221Y-79090000D01*
%TO.C,R20*%
X148187221Y-77090000D02*
X148512779Y-77090000D01*
X148187221Y-78110000D02*
X148512779Y-78110000D01*
%TO.C,R19*%
X148512779Y-76110000D02*
X148187221Y-76110000D01*
X148512779Y-75090000D02*
X148187221Y-75090000D01*
%TO.C,R17*%
X161990000Y-112375279D02*
X161990000Y-112049721D01*
X163010000Y-112375279D02*
X163010000Y-112049721D01*
%TO.C,R16*%
X170740000Y-110875279D02*
X170740000Y-110549721D01*
X171760000Y-110875279D02*
X171760000Y-110549721D01*
%TO.C,R15*%
X145875279Y-84510000D02*
X145549721Y-84510000D01*
X145875279Y-83490000D02*
X145549721Y-83490000D01*
%TO.C,R14*%
X162010000Y-107224721D02*
X162010000Y-107550279D01*
X160990000Y-107224721D02*
X160990000Y-107550279D01*
%TO.C,R13*%
X173310000Y-110549721D02*
X173310000Y-110875279D01*
X172290000Y-110549721D02*
X172290000Y-110875279D01*
%TO.C,R9*%
X129190000Y-103762779D02*
X129190000Y-103437221D01*
X130210000Y-103762779D02*
X130210000Y-103437221D01*
%TO.C,R8*%
X128710000Y-103437221D02*
X128710000Y-103762779D01*
X127690000Y-103437221D02*
X127690000Y-103762779D01*
%TO.C,R7*%
X167990000Y-88775279D02*
X167990000Y-88449721D01*
X169010000Y-88775279D02*
X169010000Y-88449721D01*
%TO.C,R6*%
X156690000Y-85450279D02*
X156690000Y-85124721D01*
X157710000Y-85450279D02*
X157710000Y-85124721D01*
%TO.C,R5*%
X168010000Y-83624721D02*
X168010000Y-83950279D01*
X166990000Y-83624721D02*
X166990000Y-83950279D01*
%TO.C,R4*%
X159260000Y-85124721D02*
X159260000Y-85450279D01*
X158240000Y-85124721D02*
X158240000Y-85450279D01*
%TO.C,R2*%
X128787221Y-105390000D02*
X129112779Y-105390000D01*
X128787221Y-106410000D02*
X129112779Y-106410000D01*
%TO.C,R1*%
X171010000Y-84887221D02*
X171010000Y-85212779D01*
X169990000Y-84887221D02*
X169990000Y-85212779D01*
%TO.C,Q4*%
X164760000Y-108930000D02*
X164760000Y-108000000D01*
X164760000Y-105770000D02*
X164760000Y-106700000D01*
X164760000Y-105770000D02*
X162600000Y-105770000D01*
X164760000Y-108930000D02*
X163300000Y-108930000D01*
%TO.C,Q3*%
X168260000Y-108930000D02*
X168260000Y-108000000D01*
X168260000Y-105770000D02*
X168260000Y-106700000D01*
X168260000Y-105770000D02*
X166100000Y-105770000D01*
X168260000Y-108930000D02*
X166800000Y-108930000D01*
%TO.C,Q2*%
X165240000Y-87070000D02*
X165240000Y-88000000D01*
X165240000Y-90230000D02*
X165240000Y-89300000D01*
X165240000Y-90230000D02*
X167400000Y-90230000D01*
X165240000Y-87070000D02*
X166700000Y-87070000D01*
%TO.C,Q1*%
X161740000Y-87070000D02*
X161740000Y-88000000D01*
X161740000Y-90230000D02*
X161740000Y-89300000D01*
X161740000Y-90230000D02*
X163900000Y-90230000D01*
X161740000Y-87070000D02*
X163200000Y-87070000D01*
%TO.C,L1*%
X130450000Y-91400000D02*
X136550000Y-91400000D01*
X136550000Y-91400000D02*
X136550000Y-97800000D01*
D10*
X133575000Y-98100000D02*
G75*
G03*
X133575000Y-98100000I-75000J0D01*
G01*
D15*
X136550000Y-97800000D02*
X130450000Y-97800000D01*
X130450000Y-97800000D02*
X130450000Y-91400000D01*
%TO.C,J4*%
X133770000Y-89930000D02*
X136430000Y-89930000D01*
X133770000Y-77170000D02*
X133770000Y-89930000D01*
X136430000Y-77170000D02*
X136430000Y-89930000D01*
X133770000Y-77170000D02*
X136430000Y-77170000D01*
X133770000Y-75900000D02*
X133770000Y-74570000D01*
X133770000Y-74570000D02*
X135100000Y-74570000D01*
%TO.C,J2*%
X147670000Y-122130000D02*
X147670000Y-119470000D01*
X145070000Y-122130000D02*
X147670000Y-122130000D01*
X145070000Y-119470000D02*
X147670000Y-119470000D01*
X145070000Y-122130000D02*
X145070000Y-119470000D01*
X143800000Y-122130000D02*
X142470000Y-122130000D01*
X142470000Y-122130000D02*
X142470000Y-120800000D01*
%TO.C,J1*%
X132100000Y-120700000D02*
X123100000Y-120700000D01*
X123100000Y-120700000D02*
X123100000Y-111500000D01*
X123100000Y-111500000D02*
X137700000Y-111500000D01*
X137700000Y-111500000D02*
X137700000Y-114300000D01*
X137700000Y-117900000D02*
X137700000Y-120700000D01*
X137700000Y-120700000D02*
X135700000Y-120700000D01*
X136200000Y-111260000D02*
X137940000Y-111260000D01*
X137940000Y-111260000D02*
X137940000Y-113000000D01*
%TO.C,F1*%
X133300000Y-107400000D02*
X135900000Y-107400000D01*
X133300000Y-110800000D02*
X135900000Y-110800000D01*
%TO.C,D9*%
X164900000Y-105400000D02*
X164900000Y-102100000D01*
X164900000Y-102100000D02*
X159500000Y-102100000D01*
X164900000Y-105400000D02*
X159500000Y-105400000D01*
%TO.C,D8*%
X171900000Y-105400000D02*
X171900000Y-102100000D01*
X171900000Y-102100000D02*
X166500000Y-102100000D01*
X171900000Y-105400000D02*
X166500000Y-105400000D01*
%TO.C,D5*%
X165100000Y-90600000D02*
X165100000Y-93900000D01*
X165100000Y-93900000D02*
X170500000Y-93900000D01*
X165100000Y-90600000D02*
X170500000Y-90600000D01*
%TO.C,D4*%
X158100000Y-90600000D02*
X158100000Y-93900000D01*
X158100000Y-93900000D02*
X163500000Y-93900000D01*
X158100000Y-90600000D02*
X163500000Y-90600000D01*
%TO.C,D2*%
X132100000Y-98050000D02*
X132100000Y-101350000D01*
X132100000Y-101350000D02*
X137500000Y-101350000D01*
X132100000Y-98050000D02*
X137500000Y-98050000D01*
%TO.C,D1*%
X128200000Y-101250000D02*
X130200000Y-101250000D01*
X130200000Y-101250000D02*
X130200000Y-97350000D01*
X128200000Y-101250000D02*
X128200000Y-97350000D01*
%TO.C,C22*%
X140912779Y-92585000D02*
X140587221Y-92585000D01*
X140912779Y-91565000D02*
X140587221Y-91565000D01*
%TO.C,C18*%
X140175279Y-81110000D02*
X139849721Y-81110000D01*
X140175279Y-80090000D02*
X139849721Y-80090000D01*
%TO.C,C17*%
X158130000Y-101720000D02*
X158130000Y-94280000D01*
X166870000Y-101720000D02*
X166870000Y-94280000D01*
X158130000Y-101720000D02*
X166870000Y-101720000D01*
X158130000Y-94280000D02*
X166870000Y-94280000D01*
%TO.C,C16*%
X139410000Y-96137221D02*
X139410000Y-96462779D01*
X138390000Y-96137221D02*
X138390000Y-96462779D01*
%TO.C,C14*%
X137910000Y-96137221D02*
X137910000Y-96462779D01*
X136890000Y-96137221D02*
X136890000Y-96462779D01*
%TO.C,C15*%
X170587221Y-105790000D02*
X170912779Y-105790000D01*
X170587221Y-106810000D02*
X170912779Y-106810000D01*
%TO.C,C11*%
X148410000Y-118710000D02*
X148410000Y-116360000D01*
X148410000Y-111890000D02*
X148410000Y-114240000D01*
X142654437Y-111890000D02*
X148410000Y-111890000D01*
X142654437Y-118710000D02*
X148410000Y-118710000D01*
X141590000Y-117645563D02*
X141590000Y-116360000D01*
X141590000Y-112954437D02*
X141590000Y-114240000D01*
X141590000Y-112954437D02*
X142654437Y-111890000D01*
X141590000Y-117645563D02*
X142654437Y-118710000D01*
X140562500Y-113452500D02*
X141350000Y-113452500D01*
X140956250Y-113058750D02*
X140956250Y-113846250D01*
%TO.C,C13*%
X170587221Y-107290000D02*
X170912779Y-107290000D01*
X170587221Y-108310000D02*
X170912779Y-108310000D01*
%TO.C,C9*%
X148410000Y-111510000D02*
X148410000Y-109160000D01*
X148410000Y-104690000D02*
X148410000Y-107040000D01*
X142654437Y-104690000D02*
X148410000Y-104690000D01*
X142654437Y-111510000D02*
X148410000Y-111510000D01*
X141590000Y-110445563D02*
X141590000Y-109160000D01*
X141590000Y-105754437D02*
X141590000Y-107040000D01*
X141590000Y-105754437D02*
X142654437Y-104690000D01*
X141590000Y-110445563D02*
X142654437Y-111510000D01*
X140562500Y-106252500D02*
X141350000Y-106252500D01*
X140956250Y-105858750D02*
X140956250Y-106646250D01*
%TO.C,C12*%
X159412779Y-90210000D02*
X159087221Y-90210000D01*
X159412779Y-89190000D02*
X159087221Y-89190000D01*
%TO.C,C10*%
X159412779Y-88710000D02*
X159087221Y-88710000D01*
X159412779Y-87690000D02*
X159087221Y-87690000D01*
%TO.C,C5*%
X167275279Y-116110000D02*
X166949721Y-116110000D01*
X167275279Y-115090000D02*
X166949721Y-115090000D01*
%TO.C,C3*%
X135724721Y-103190000D02*
X136050279Y-103190000D01*
X135724721Y-104210000D02*
X136050279Y-104210000D01*
%TO.C,C2*%
X162724721Y-79890000D02*
X163050279Y-79890000D01*
X162724721Y-80910000D02*
X163050279Y-80910000D01*
%TO.C,C1*%
X135724721Y-101690000D02*
X136050279Y-101690000D01*
X135724721Y-102710000D02*
X136050279Y-102710000D01*
%TO.C,L2*%
D16*
X171947833Y-97651833D02*
X171947833Y-97228500D01*
X172836833Y-97228500D01*
X172752166Y-97905833D02*
X172794500Y-97948166D01*
X172836833Y-98032833D01*
X172836833Y-98244500D01*
X172794500Y-98329166D01*
X172752166Y-98371500D01*
X172667500Y-98413833D01*
X172582833Y-98413833D01*
X172455833Y-98371500D01*
X171947833Y-97863500D01*
X171947833Y-98413833D01*
%TO.C,R27*%
X149528500Y-93592166D02*
X149232166Y-93168833D01*
X149020500Y-93592166D02*
X149020500Y-92703166D01*
X149359166Y-92703166D01*
X149443833Y-92745500D01*
X149486166Y-92787833D01*
X149528500Y-92872500D01*
X149528500Y-92999500D01*
X149486166Y-93084166D01*
X149443833Y-93126500D01*
X149359166Y-93168833D01*
X149020500Y-93168833D01*
X149867166Y-92787833D02*
X149909500Y-92745500D01*
X149994166Y-92703166D01*
X150205833Y-92703166D01*
X150290500Y-92745500D01*
X150332833Y-92787833D01*
X150375166Y-92872500D01*
X150375166Y-92957166D01*
X150332833Y-93084166D01*
X149824833Y-93592166D01*
X150375166Y-93592166D01*
X150671500Y-92703166D02*
X151264166Y-92703166D01*
X150883166Y-93592166D01*
%TO.C,C8*%
X164651833Y-86667500D02*
X164609500Y-86709833D01*
X164482500Y-86752166D01*
X164397833Y-86752166D01*
X164270833Y-86709833D01*
X164186166Y-86625166D01*
X164143833Y-86540500D01*
X164101500Y-86371166D01*
X164101500Y-86244166D01*
X164143833Y-86074833D01*
X164186166Y-85990166D01*
X164270833Y-85905500D01*
X164397833Y-85863166D01*
X164482500Y-85863166D01*
X164609500Y-85905500D01*
X164651833Y-85947833D01*
X165159833Y-86244166D02*
X165075166Y-86201833D01*
X165032833Y-86159500D01*
X164990500Y-86074833D01*
X164990500Y-86032500D01*
X165032833Y-85947833D01*
X165075166Y-85905500D01*
X165159833Y-85863166D01*
X165329166Y-85863166D01*
X165413833Y-85905500D01*
X165456166Y-85947833D01*
X165498500Y-86032500D01*
X165498500Y-86074833D01*
X165456166Y-86159500D01*
X165413833Y-86201833D01*
X165329166Y-86244166D01*
X165159833Y-86244166D01*
X165075166Y-86286500D01*
X165032833Y-86328833D01*
X164990500Y-86413500D01*
X164990500Y-86582833D01*
X165032833Y-86667500D01*
X165075166Y-86709833D01*
X165159833Y-86752166D01*
X165329166Y-86752166D01*
X165413833Y-86709833D01*
X165456166Y-86667500D01*
X165498500Y-86582833D01*
X165498500Y-86413500D01*
X165456166Y-86328833D01*
X165413833Y-86286500D01*
X165329166Y-86244166D01*
%TO.C,C7*%
X129232500Y-92051833D02*
X129190166Y-92009500D01*
X129147833Y-91882500D01*
X129147833Y-91797833D01*
X129190166Y-91670833D01*
X129274833Y-91586166D01*
X129359500Y-91543833D01*
X129528833Y-91501500D01*
X129655833Y-91501500D01*
X129825166Y-91543833D01*
X129909833Y-91586166D01*
X129994500Y-91670833D01*
X130036833Y-91797833D01*
X130036833Y-91882500D01*
X129994500Y-92009500D01*
X129952166Y-92051833D01*
X130036833Y-92348166D02*
X130036833Y-92940833D01*
X129147833Y-92559833D01*
%TO.C,C6*%
X164551833Y-114667500D02*
X164509500Y-114709833D01*
X164382500Y-114752166D01*
X164297833Y-114752166D01*
X164170833Y-114709833D01*
X164086166Y-114625166D01*
X164043833Y-114540500D01*
X164001500Y-114371166D01*
X164001500Y-114244166D01*
X164043833Y-114074833D01*
X164086166Y-113990166D01*
X164170833Y-113905500D01*
X164297833Y-113863166D01*
X164382500Y-113863166D01*
X164509500Y-113905500D01*
X164551833Y-113947833D01*
X165313833Y-113863166D02*
X165144500Y-113863166D01*
X165059833Y-113905500D01*
X165017500Y-113947833D01*
X164932833Y-114074833D01*
X164890500Y-114244166D01*
X164890500Y-114582833D01*
X164932833Y-114667500D01*
X164975166Y-114709833D01*
X165059833Y-114752166D01*
X165229166Y-114752166D01*
X165313833Y-114709833D01*
X165356166Y-114667500D01*
X165398500Y-114582833D01*
X165398500Y-114371166D01*
X165356166Y-114286500D01*
X165313833Y-114244166D01*
X165229166Y-114201833D01*
X165059833Y-114201833D01*
X164975166Y-114244166D01*
X164932833Y-114286500D01*
X164890500Y-114371166D01*
%TO.C,R18*%
X169097833Y-113878500D02*
X169521166Y-113582166D01*
X169097833Y-113370500D02*
X169986833Y-113370500D01*
X169986833Y-113709166D01*
X169944500Y-113793833D01*
X169902166Y-113836166D01*
X169817500Y-113878500D01*
X169690500Y-113878500D01*
X169605833Y-113836166D01*
X169563500Y-113793833D01*
X169521166Y-113709166D01*
X169521166Y-113370500D01*
X169097833Y-114725166D02*
X169097833Y-114217166D01*
X169097833Y-114471166D02*
X169986833Y-114471166D01*
X169859833Y-114386500D01*
X169775166Y-114301833D01*
X169732833Y-114217166D01*
X169605833Y-115233166D02*
X169648166Y-115148500D01*
X169690500Y-115106166D01*
X169775166Y-115063833D01*
X169817500Y-115063833D01*
X169902166Y-115106166D01*
X169944500Y-115148500D01*
X169986833Y-115233166D01*
X169986833Y-115402500D01*
X169944500Y-115487166D01*
X169902166Y-115529500D01*
X169817500Y-115571833D01*
X169775166Y-115571833D01*
X169690500Y-115529500D01*
X169648166Y-115487166D01*
X169605833Y-115402500D01*
X169605833Y-115233166D01*
X169563500Y-115148500D01*
X169521166Y-115106166D01*
X169436500Y-115063833D01*
X169267166Y-115063833D01*
X169182500Y-115106166D01*
X169140166Y-115148500D01*
X169097833Y-115233166D01*
X169097833Y-115402500D01*
X169140166Y-115487166D01*
X169182500Y-115529500D01*
X169267166Y-115571833D01*
X169436500Y-115571833D01*
X169521166Y-115529500D01*
X169563500Y-115487166D01*
X169605833Y-115402500D01*
%TO.C,R3*%
X160097833Y-81751833D02*
X160521166Y-81455500D01*
X160097833Y-81243833D02*
X160986833Y-81243833D01*
X160986833Y-81582500D01*
X160944500Y-81667166D01*
X160902166Y-81709500D01*
X160817500Y-81751833D01*
X160690500Y-81751833D01*
X160605833Y-81709500D01*
X160563500Y-81667166D01*
X160521166Y-81582500D01*
X160521166Y-81243833D01*
X160986833Y-82048166D02*
X160986833Y-82598500D01*
X160648166Y-82302166D01*
X160648166Y-82429166D01*
X160605833Y-82513833D01*
X160563500Y-82556166D01*
X160478833Y-82598500D01*
X160267166Y-82598500D01*
X160182500Y-82556166D01*
X160140166Y-82513833D01*
X160097833Y-82429166D01*
X160097833Y-82175166D01*
X160140166Y-82090500D01*
X160182500Y-82048166D01*
%TO.C,Y1*%
X138721166Y-75776666D02*
X138297833Y-75776666D01*
X139186833Y-75480333D02*
X138721166Y-75776666D01*
X139186833Y-76073000D01*
X138297833Y-76835000D02*
X138297833Y-76327000D01*
X138297833Y-76581000D02*
X139186833Y-76581000D01*
X139059833Y-76496333D01*
X138975166Y-76411666D01*
X138932833Y-76327000D01*
%TO.C,R29*%
X131678500Y-89702166D02*
X131382166Y-89278833D01*
X131170500Y-89702166D02*
X131170500Y-88813166D01*
X131509166Y-88813166D01*
X131593833Y-88855500D01*
X131636166Y-88897833D01*
X131678500Y-88982500D01*
X131678500Y-89109500D01*
X131636166Y-89194166D01*
X131593833Y-89236500D01*
X131509166Y-89278833D01*
X131170500Y-89278833D01*
X132017166Y-88897833D02*
X132059500Y-88855500D01*
X132144166Y-88813166D01*
X132355833Y-88813166D01*
X132440500Y-88855500D01*
X132482833Y-88897833D01*
X132525166Y-88982500D01*
X132525166Y-89067166D01*
X132482833Y-89194166D01*
X131974833Y-89702166D01*
X132525166Y-89702166D01*
X132948500Y-89702166D02*
X133117833Y-89702166D01*
X133202500Y-89659833D01*
X133244833Y-89617500D01*
X133329500Y-89490500D01*
X133371833Y-89321166D01*
X133371833Y-88982500D01*
X133329500Y-88897833D01*
X133287166Y-88855500D01*
X133202500Y-88813166D01*
X133033166Y-88813166D01*
X132948500Y-88855500D01*
X132906166Y-88897833D01*
X132863833Y-88982500D01*
X132863833Y-89194166D01*
X132906166Y-89278833D01*
X132948500Y-89321166D01*
X133033166Y-89363500D01*
X133202500Y-89363500D01*
X133287166Y-89321166D01*
X133329500Y-89278833D01*
X133371833Y-89194166D01*
%TO.C,R26*%
X131678500Y-83702166D02*
X131382166Y-83278833D01*
X131170500Y-83702166D02*
X131170500Y-82813166D01*
X131509166Y-82813166D01*
X131593833Y-82855500D01*
X131636166Y-82897833D01*
X131678500Y-82982500D01*
X131678500Y-83109500D01*
X131636166Y-83194166D01*
X131593833Y-83236500D01*
X131509166Y-83278833D01*
X131170500Y-83278833D01*
X132017166Y-82897833D02*
X132059500Y-82855500D01*
X132144166Y-82813166D01*
X132355833Y-82813166D01*
X132440500Y-82855500D01*
X132482833Y-82897833D01*
X132525166Y-82982500D01*
X132525166Y-83067166D01*
X132482833Y-83194166D01*
X131974833Y-83702166D01*
X132525166Y-83702166D01*
X133287166Y-82813166D02*
X133117833Y-82813166D01*
X133033166Y-82855500D01*
X132990833Y-82897833D01*
X132906166Y-83024833D01*
X132863833Y-83194166D01*
X132863833Y-83532833D01*
X132906166Y-83617500D01*
X132948500Y-83659833D01*
X133033166Y-83702166D01*
X133202500Y-83702166D01*
X133287166Y-83659833D01*
X133329500Y-83617500D01*
X133371833Y-83532833D01*
X133371833Y-83321166D01*
X133329500Y-83236500D01*
X133287166Y-83194166D01*
X133202500Y-83151833D01*
X133033166Y-83151833D01*
X132948500Y-83194166D01*
X132906166Y-83236500D01*
X132863833Y-83321166D01*
%TO.C,R25*%
X131678500Y-77752166D02*
X131382166Y-77328833D01*
X131170500Y-77752166D02*
X131170500Y-76863166D01*
X131509166Y-76863166D01*
X131593833Y-76905500D01*
X131636166Y-76947833D01*
X131678500Y-77032500D01*
X131678500Y-77159500D01*
X131636166Y-77244166D01*
X131593833Y-77286500D01*
X131509166Y-77328833D01*
X131170500Y-77328833D01*
X132017166Y-76947833D02*
X132059500Y-76905500D01*
X132144166Y-76863166D01*
X132355833Y-76863166D01*
X132440500Y-76905500D01*
X132482833Y-76947833D01*
X132525166Y-77032500D01*
X132525166Y-77117166D01*
X132482833Y-77244166D01*
X131974833Y-77752166D01*
X132525166Y-77752166D01*
X133329500Y-76863166D02*
X132906166Y-76863166D01*
X132863833Y-77286500D01*
X132906166Y-77244166D01*
X132990833Y-77201833D01*
X133202500Y-77201833D01*
X133287166Y-77244166D01*
X133329500Y-77286500D01*
X133371833Y-77371166D01*
X133371833Y-77582833D01*
X133329500Y-77667500D01*
X133287166Y-77709833D01*
X133202500Y-77752166D01*
X132990833Y-77752166D01*
X132906166Y-77709833D01*
X132863833Y-77667500D01*
%TO.C,R12*%
X143397833Y-101928500D02*
X143821166Y-101632166D01*
X143397833Y-101420500D02*
X144286833Y-101420500D01*
X144286833Y-101759166D01*
X144244500Y-101843833D01*
X144202166Y-101886166D01*
X144117500Y-101928500D01*
X143990500Y-101928500D01*
X143905833Y-101886166D01*
X143863500Y-101843833D01*
X143821166Y-101759166D01*
X143821166Y-101420500D01*
X143397833Y-102775166D02*
X143397833Y-102267166D01*
X143397833Y-102521166D02*
X144286833Y-102521166D01*
X144159833Y-102436500D01*
X144075166Y-102351833D01*
X144032833Y-102267166D01*
X144202166Y-103113833D02*
X144244500Y-103156166D01*
X144286833Y-103240833D01*
X144286833Y-103452500D01*
X144244500Y-103537166D01*
X144202166Y-103579500D01*
X144117500Y-103621833D01*
X144032833Y-103621833D01*
X143905833Y-103579500D01*
X143397833Y-103071500D01*
X143397833Y-103621833D01*
%TO.C,R11*%
X147397833Y-101928500D02*
X147821166Y-101632166D01*
X147397833Y-101420500D02*
X148286833Y-101420500D01*
X148286833Y-101759166D01*
X148244500Y-101843833D01*
X148202166Y-101886166D01*
X148117500Y-101928500D01*
X147990500Y-101928500D01*
X147905833Y-101886166D01*
X147863500Y-101843833D01*
X147821166Y-101759166D01*
X147821166Y-101420500D01*
X147397833Y-102775166D02*
X147397833Y-102267166D01*
X147397833Y-102521166D02*
X148286833Y-102521166D01*
X148159833Y-102436500D01*
X148075166Y-102351833D01*
X148032833Y-102267166D01*
X147397833Y-103621833D02*
X147397833Y-103113833D01*
X147397833Y-103367833D02*
X148286833Y-103367833D01*
X148159833Y-103283166D01*
X148075166Y-103198500D01*
X148032833Y-103113833D01*
%TO.C,R10*%
X151397833Y-101928500D02*
X151821166Y-101632166D01*
X151397833Y-101420500D02*
X152286833Y-101420500D01*
X152286833Y-101759166D01*
X152244500Y-101843833D01*
X152202166Y-101886166D01*
X152117500Y-101928500D01*
X151990500Y-101928500D01*
X151905833Y-101886166D01*
X151863500Y-101843833D01*
X151821166Y-101759166D01*
X151821166Y-101420500D01*
X151397833Y-102775166D02*
X151397833Y-102267166D01*
X151397833Y-102521166D02*
X152286833Y-102521166D01*
X152159833Y-102436500D01*
X152075166Y-102351833D01*
X152032833Y-102267166D01*
X152286833Y-103325500D02*
X152286833Y-103410166D01*
X152244500Y-103494833D01*
X152202166Y-103537166D01*
X152117500Y-103579500D01*
X151948166Y-103621833D01*
X151736500Y-103621833D01*
X151567166Y-103579500D01*
X151482500Y-103537166D01*
X151440166Y-103494833D01*
X151397833Y-103410166D01*
X151397833Y-103325500D01*
X151440166Y-103240833D01*
X151482500Y-103198500D01*
X151567166Y-103156166D01*
X151736500Y-103113833D01*
X151948166Y-103113833D01*
X152117500Y-103156166D01*
X152202166Y-103198500D01*
X152244500Y-103240833D01*
X152286833Y-103325500D01*
%TO.C,D12*%
X131170500Y-87152166D02*
X131170500Y-86263166D01*
X131382166Y-86263166D01*
X131509166Y-86305500D01*
X131593833Y-86390166D01*
X131636166Y-86474833D01*
X131678500Y-86644166D01*
X131678500Y-86771166D01*
X131636166Y-86940500D01*
X131593833Y-87025166D01*
X131509166Y-87109833D01*
X131382166Y-87152166D01*
X131170500Y-87152166D01*
X132525166Y-87152166D02*
X132017166Y-87152166D01*
X132271166Y-87152166D02*
X132271166Y-86263166D01*
X132186500Y-86390166D01*
X132101833Y-86474833D01*
X132017166Y-86517166D01*
X132863833Y-86347833D02*
X132906166Y-86305500D01*
X132990833Y-86263166D01*
X133202500Y-86263166D01*
X133287166Y-86305500D01*
X133329500Y-86347833D01*
X133371833Y-86432500D01*
X133371833Y-86517166D01*
X133329500Y-86644166D01*
X132821500Y-87152166D01*
X133371833Y-87152166D01*
%TO.C,D11*%
X131170500Y-81202166D02*
X131170500Y-80313166D01*
X131382166Y-80313166D01*
X131509166Y-80355500D01*
X131593833Y-80440166D01*
X131636166Y-80524833D01*
X131678500Y-80694166D01*
X131678500Y-80821166D01*
X131636166Y-80990500D01*
X131593833Y-81075166D01*
X131509166Y-81159833D01*
X131382166Y-81202166D01*
X131170500Y-81202166D01*
X132525166Y-81202166D02*
X132017166Y-81202166D01*
X132271166Y-81202166D02*
X132271166Y-80313166D01*
X132186500Y-80440166D01*
X132101833Y-80524833D01*
X132017166Y-80567166D01*
X133371833Y-81202166D02*
X132863833Y-81202166D01*
X133117833Y-81202166D02*
X133117833Y-80313166D01*
X133033166Y-80440166D01*
X132948500Y-80524833D01*
X132863833Y-80567166D01*
%TO.C,D10*%
X131170500Y-75252166D02*
X131170500Y-74363166D01*
X131382166Y-74363166D01*
X131509166Y-74405500D01*
X131593833Y-74490166D01*
X131636166Y-74574833D01*
X131678500Y-74744166D01*
X131678500Y-74871166D01*
X131636166Y-75040500D01*
X131593833Y-75125166D01*
X131509166Y-75209833D01*
X131382166Y-75252166D01*
X131170500Y-75252166D01*
X132525166Y-75252166D02*
X132017166Y-75252166D01*
X132271166Y-75252166D02*
X132271166Y-74363166D01*
X132186500Y-74490166D01*
X132101833Y-74574833D01*
X132017166Y-74617166D01*
X133075500Y-74363166D02*
X133160166Y-74363166D01*
X133244833Y-74405500D01*
X133287166Y-74447833D01*
X133329500Y-74532500D01*
X133371833Y-74701833D01*
X133371833Y-74913500D01*
X133329500Y-75082833D01*
X133287166Y-75167500D01*
X133244833Y-75209833D01*
X133160166Y-75252166D01*
X133075500Y-75252166D01*
X132990833Y-75209833D01*
X132948500Y-75167500D01*
X132906166Y-75082833D01*
X132863833Y-74913500D01*
X132863833Y-74701833D01*
X132906166Y-74532500D01*
X132948500Y-74447833D01*
X132990833Y-74405500D01*
X133075500Y-74363166D01*
%TO.C,D7*%
X141347833Y-101443833D02*
X142236833Y-101443833D01*
X142236833Y-101655500D01*
X142194500Y-101782500D01*
X142109833Y-101867166D01*
X142025166Y-101909500D01*
X141855833Y-101951833D01*
X141728833Y-101951833D01*
X141559500Y-101909500D01*
X141474833Y-101867166D01*
X141390166Y-101782500D01*
X141347833Y-101655500D01*
X141347833Y-101443833D01*
X142236833Y-102248166D02*
X142236833Y-102840833D01*
X141347833Y-102459833D01*
%TO.C,D6*%
X145347833Y-101443833D02*
X146236833Y-101443833D01*
X146236833Y-101655500D01*
X146194500Y-101782500D01*
X146109833Y-101867166D01*
X146025166Y-101909500D01*
X145855833Y-101951833D01*
X145728833Y-101951833D01*
X145559500Y-101909500D01*
X145474833Y-101867166D01*
X145390166Y-101782500D01*
X145347833Y-101655500D01*
X145347833Y-101443833D01*
X146236833Y-102713833D02*
X146236833Y-102544500D01*
X146194500Y-102459833D01*
X146152166Y-102417500D01*
X146025166Y-102332833D01*
X145855833Y-102290500D01*
X145517166Y-102290500D01*
X145432500Y-102332833D01*
X145390166Y-102375166D01*
X145347833Y-102459833D01*
X145347833Y-102629166D01*
X145390166Y-102713833D01*
X145432500Y-102756166D01*
X145517166Y-102798500D01*
X145728833Y-102798500D01*
X145813500Y-102756166D01*
X145855833Y-102713833D01*
X145898166Y-102629166D01*
X145898166Y-102459833D01*
X145855833Y-102375166D01*
X145813500Y-102332833D01*
X145728833Y-102290500D01*
%TO.C,D3*%
X149397833Y-101443833D02*
X150286833Y-101443833D01*
X150286833Y-101655500D01*
X150244500Y-101782500D01*
X150159833Y-101867166D01*
X150075166Y-101909500D01*
X149905833Y-101951833D01*
X149778833Y-101951833D01*
X149609500Y-101909500D01*
X149524833Y-101867166D01*
X149440166Y-101782500D01*
X149397833Y-101655500D01*
X149397833Y-101443833D01*
X150286833Y-102248166D02*
X150286833Y-102798500D01*
X149948166Y-102502166D01*
X149948166Y-102629166D01*
X149905833Y-102713833D01*
X149863500Y-102756166D01*
X149778833Y-102798500D01*
X149567166Y-102798500D01*
X149482500Y-102756166D01*
X149440166Y-102713833D01*
X149397833Y-102629166D01*
X149397833Y-102375166D01*
X149440166Y-102290500D01*
X149482500Y-102248166D01*
%TO.C,U4*%
X137122666Y-81313166D02*
X137122666Y-82032833D01*
X137165000Y-82117500D01*
X137207333Y-82159833D01*
X137292000Y-82202166D01*
X137461333Y-82202166D01*
X137546000Y-82159833D01*
X137588333Y-82117500D01*
X137630666Y-82032833D01*
X137630666Y-81313166D01*
X138435000Y-81609500D02*
X138435000Y-82202166D01*
X138223333Y-81270833D02*
X138011666Y-81905833D01*
X138562000Y-81905833D01*
%TO.C,U3*%
X164336833Y-112222666D02*
X163617166Y-112222666D01*
X163532500Y-112265000D01*
X163490166Y-112307333D01*
X163447833Y-112392000D01*
X163447833Y-112561333D01*
X163490166Y-112646000D01*
X163532500Y-112688333D01*
X163617166Y-112730666D01*
X164336833Y-112730666D01*
X164336833Y-113069333D02*
X164336833Y-113619666D01*
X163998166Y-113323333D01*
X163998166Y-113450333D01*
X163955833Y-113535000D01*
X163913500Y-113577333D01*
X163828833Y-113619666D01*
X163617166Y-113619666D01*
X163532500Y-113577333D01*
X163490166Y-113535000D01*
X163447833Y-113450333D01*
X163447833Y-113196333D01*
X163490166Y-113111666D01*
X163532500Y-113069333D01*
%TO.C,U2*%
X131722666Y-105363166D02*
X131722666Y-106082833D01*
X131765000Y-106167500D01*
X131807333Y-106209833D01*
X131892000Y-106252166D01*
X132061333Y-106252166D01*
X132146000Y-106209833D01*
X132188333Y-106167500D01*
X132230666Y-106082833D01*
X132230666Y-105363166D01*
X132611666Y-105447833D02*
X132654000Y-105405500D01*
X132738666Y-105363166D01*
X132950333Y-105363166D01*
X133035000Y-105405500D01*
X133077333Y-105447833D01*
X133119666Y-105532500D01*
X133119666Y-105617166D01*
X133077333Y-105744166D01*
X132569333Y-106252166D01*
X133119666Y-106252166D01*
%TO.C,U1*%
X166536833Y-82422666D02*
X165817166Y-82422666D01*
X165732500Y-82465000D01*
X165690166Y-82507333D01*
X165647833Y-82592000D01*
X165647833Y-82761333D01*
X165690166Y-82846000D01*
X165732500Y-82888333D01*
X165817166Y-82930666D01*
X166536833Y-82930666D01*
X165647833Y-83819666D02*
X165647833Y-83311666D01*
X165647833Y-83565666D02*
X166536833Y-83565666D01*
X166409833Y-83481000D01*
X166325166Y-83396333D01*
X166282833Y-83311666D01*
%TO.C,SW3*%
X153214666Y-76409833D02*
X153341666Y-76452166D01*
X153553333Y-76452166D01*
X153638000Y-76409833D01*
X153680333Y-76367500D01*
X153722666Y-76282833D01*
X153722666Y-76198166D01*
X153680333Y-76113500D01*
X153638000Y-76071166D01*
X153553333Y-76028833D01*
X153384000Y-75986500D01*
X153299333Y-75944166D01*
X153257000Y-75901833D01*
X153214666Y-75817166D01*
X153214666Y-75732500D01*
X153257000Y-75647833D01*
X153299333Y-75605500D01*
X153384000Y-75563166D01*
X153595666Y-75563166D01*
X153722666Y-75605500D01*
X154019000Y-75563166D02*
X154230666Y-76452166D01*
X154400000Y-75817166D01*
X154569333Y-76452166D01*
X154781000Y-75563166D01*
X155035000Y-75563166D02*
X155585333Y-75563166D01*
X155289000Y-75901833D01*
X155416000Y-75901833D01*
X155500666Y-75944166D01*
X155543000Y-75986500D01*
X155585333Y-76071166D01*
X155585333Y-76282833D01*
X155543000Y-76367500D01*
X155500666Y-76409833D01*
X155416000Y-76452166D01*
X155162000Y-76452166D01*
X155077333Y-76409833D01*
X155035000Y-76367500D01*
%TO.C,SW2*%
X160714666Y-76309833D02*
X160841666Y-76352166D01*
X161053333Y-76352166D01*
X161138000Y-76309833D01*
X161180333Y-76267500D01*
X161222666Y-76182833D01*
X161222666Y-76098166D01*
X161180333Y-76013500D01*
X161138000Y-75971166D01*
X161053333Y-75928833D01*
X160884000Y-75886500D01*
X160799333Y-75844166D01*
X160757000Y-75801833D01*
X160714666Y-75717166D01*
X160714666Y-75632500D01*
X160757000Y-75547833D01*
X160799333Y-75505500D01*
X160884000Y-75463166D01*
X161095666Y-75463166D01*
X161222666Y-75505500D01*
X161519000Y-75463166D02*
X161730666Y-76352166D01*
X161900000Y-75717166D01*
X162069333Y-76352166D01*
X162281000Y-75463166D01*
X162577333Y-75547833D02*
X162619666Y-75505500D01*
X162704333Y-75463166D01*
X162916000Y-75463166D01*
X163000666Y-75505500D01*
X163043000Y-75547833D01*
X163085333Y-75632500D01*
X163085333Y-75717166D01*
X163043000Y-75844166D01*
X162535000Y-76352166D01*
X163085333Y-76352166D01*
%TO.C,SW1*%
X168214666Y-76309833D02*
X168341666Y-76352166D01*
X168553333Y-76352166D01*
X168638000Y-76309833D01*
X168680333Y-76267500D01*
X168722666Y-76182833D01*
X168722666Y-76098166D01*
X168680333Y-76013500D01*
X168638000Y-75971166D01*
X168553333Y-75928833D01*
X168384000Y-75886500D01*
X168299333Y-75844166D01*
X168257000Y-75801833D01*
X168214666Y-75717166D01*
X168214666Y-75632500D01*
X168257000Y-75547833D01*
X168299333Y-75505500D01*
X168384000Y-75463166D01*
X168595666Y-75463166D01*
X168722666Y-75505500D01*
X169019000Y-75463166D02*
X169230666Y-76352166D01*
X169400000Y-75717166D01*
X169569333Y-76352166D01*
X169781000Y-75463166D01*
X170585333Y-76352166D02*
X170077333Y-76352166D01*
X170331333Y-76352166D02*
X170331333Y-75463166D01*
X170246666Y-75590166D01*
X170162000Y-75674833D01*
X170077333Y-75717166D01*
%TO.C,R28*%
X149528500Y-96252166D02*
X149232166Y-95828833D01*
X149020500Y-96252166D02*
X149020500Y-95363166D01*
X149359166Y-95363166D01*
X149443833Y-95405500D01*
X149486166Y-95447833D01*
X149528500Y-95532500D01*
X149528500Y-95659500D01*
X149486166Y-95744166D01*
X149443833Y-95786500D01*
X149359166Y-95828833D01*
X149020500Y-95828833D01*
X149867166Y-95447833D02*
X149909500Y-95405500D01*
X149994166Y-95363166D01*
X150205833Y-95363166D01*
X150290500Y-95405500D01*
X150332833Y-95447833D01*
X150375166Y-95532500D01*
X150375166Y-95617166D01*
X150332833Y-95744166D01*
X149824833Y-96252166D01*
X150375166Y-96252166D01*
X150883166Y-95744166D02*
X150798500Y-95701833D01*
X150756166Y-95659500D01*
X150713833Y-95574833D01*
X150713833Y-95532500D01*
X150756166Y-95447833D01*
X150798500Y-95405500D01*
X150883166Y-95363166D01*
X151052500Y-95363166D01*
X151137166Y-95405500D01*
X151179500Y-95447833D01*
X151221833Y-95532500D01*
X151221833Y-95574833D01*
X151179500Y-95659500D01*
X151137166Y-95701833D01*
X151052500Y-95744166D01*
X150883166Y-95744166D01*
X150798500Y-95786500D01*
X150756166Y-95828833D01*
X150713833Y-95913500D01*
X150713833Y-96082833D01*
X150756166Y-96167500D01*
X150798500Y-96209833D01*
X150883166Y-96252166D01*
X151052500Y-96252166D01*
X151137166Y-96209833D01*
X151179500Y-96167500D01*
X151221833Y-96082833D01*
X151221833Y-95913500D01*
X151179500Y-95828833D01*
X151137166Y-95786500D01*
X151052500Y-95744166D01*
%TO.C,R24*%
X142178500Y-94952166D02*
X141882166Y-94528833D01*
X141670500Y-94952166D02*
X141670500Y-94063166D01*
X142009166Y-94063166D01*
X142093833Y-94105500D01*
X142136166Y-94147833D01*
X142178500Y-94232500D01*
X142178500Y-94359500D01*
X142136166Y-94444166D01*
X142093833Y-94486500D01*
X142009166Y-94528833D01*
X141670500Y-94528833D01*
X142517166Y-94147833D02*
X142559500Y-94105500D01*
X142644166Y-94063166D01*
X142855833Y-94063166D01*
X142940500Y-94105500D01*
X142982833Y-94147833D01*
X143025166Y-94232500D01*
X143025166Y-94317166D01*
X142982833Y-94444166D01*
X142474833Y-94952166D01*
X143025166Y-94952166D01*
X143787166Y-94359500D02*
X143787166Y-94952166D01*
X143575500Y-94020833D02*
X143363833Y-94655833D01*
X143914166Y-94655833D01*
%TO.C,R23*%
X142178500Y-93802166D02*
X141882166Y-93378833D01*
X141670500Y-93802166D02*
X141670500Y-92913166D01*
X142009166Y-92913166D01*
X142093833Y-92955500D01*
X142136166Y-92997833D01*
X142178500Y-93082500D01*
X142178500Y-93209500D01*
X142136166Y-93294166D01*
X142093833Y-93336500D01*
X142009166Y-93378833D01*
X141670500Y-93378833D01*
X142517166Y-92997833D02*
X142559500Y-92955500D01*
X142644166Y-92913166D01*
X142855833Y-92913166D01*
X142940500Y-92955500D01*
X142982833Y-92997833D01*
X143025166Y-93082500D01*
X143025166Y-93167166D01*
X142982833Y-93294166D01*
X142474833Y-93802166D01*
X143025166Y-93802166D01*
X143321500Y-92913166D02*
X143871833Y-92913166D01*
X143575500Y-93251833D01*
X143702500Y-93251833D01*
X143787166Y-93294166D01*
X143829500Y-93336500D01*
X143871833Y-93421166D01*
X143871833Y-93632833D01*
X143829500Y-93717500D01*
X143787166Y-93759833D01*
X143702500Y-93802166D01*
X143448500Y-93802166D01*
X143363833Y-93759833D01*
X143321500Y-93717500D01*
%TO.C,R22*%
X157667833Y-110366000D02*
X158091166Y-110069666D01*
X157667833Y-109858000D02*
X158556833Y-109858000D01*
X158556833Y-110196666D01*
X158514500Y-110281333D01*
X158472166Y-110323666D01*
X158387500Y-110366000D01*
X158260500Y-110366000D01*
X158175833Y-110323666D01*
X158133500Y-110281333D01*
X158091166Y-110196666D01*
X158091166Y-109858000D01*
X158472166Y-110704666D02*
X158514500Y-110747000D01*
X158556833Y-110831666D01*
X158556833Y-111043333D01*
X158514500Y-111128000D01*
X158472166Y-111170333D01*
X158387500Y-111212666D01*
X158302833Y-111212666D01*
X158175833Y-111170333D01*
X157667833Y-110662333D01*
X157667833Y-111212666D01*
X158472166Y-111551333D02*
X158514500Y-111593666D01*
X158556833Y-111678333D01*
X158556833Y-111890000D01*
X158514500Y-111974666D01*
X158472166Y-112017000D01*
X158387500Y-112059333D01*
X158302833Y-112059333D01*
X158175833Y-112017000D01*
X157667833Y-111509000D01*
X157667833Y-112059333D01*
%TO.C,R21*%
X151028500Y-81602166D02*
X150732166Y-81178833D01*
X150520500Y-81602166D02*
X150520500Y-80713166D01*
X150859166Y-80713166D01*
X150943833Y-80755500D01*
X150986166Y-80797833D01*
X151028500Y-80882500D01*
X151028500Y-81009500D01*
X150986166Y-81094166D01*
X150943833Y-81136500D01*
X150859166Y-81178833D01*
X150520500Y-81178833D01*
X151367166Y-80797833D02*
X151409500Y-80755500D01*
X151494166Y-80713166D01*
X151705833Y-80713166D01*
X151790500Y-80755500D01*
X151832833Y-80797833D01*
X151875166Y-80882500D01*
X151875166Y-80967166D01*
X151832833Y-81094166D01*
X151324833Y-81602166D01*
X151875166Y-81602166D01*
X152721833Y-81602166D02*
X152213833Y-81602166D01*
X152467833Y-81602166D02*
X152467833Y-80713166D01*
X152383166Y-80840166D01*
X152298500Y-80924833D01*
X152213833Y-80967166D01*
%TO.C,R20*%
X151028500Y-79202166D02*
X150732166Y-78778833D01*
X150520500Y-79202166D02*
X150520500Y-78313166D01*
X150859166Y-78313166D01*
X150943833Y-78355500D01*
X150986166Y-78397833D01*
X151028500Y-78482500D01*
X151028500Y-78609500D01*
X150986166Y-78694166D01*
X150943833Y-78736500D01*
X150859166Y-78778833D01*
X150520500Y-78778833D01*
X151367166Y-78397833D02*
X151409500Y-78355500D01*
X151494166Y-78313166D01*
X151705833Y-78313166D01*
X151790500Y-78355500D01*
X151832833Y-78397833D01*
X151875166Y-78482500D01*
X151875166Y-78567166D01*
X151832833Y-78694166D01*
X151324833Y-79202166D01*
X151875166Y-79202166D01*
X152425500Y-78313166D02*
X152510166Y-78313166D01*
X152594833Y-78355500D01*
X152637166Y-78397833D01*
X152679500Y-78482500D01*
X152721833Y-78651833D01*
X152721833Y-78863500D01*
X152679500Y-79032833D01*
X152637166Y-79117500D01*
X152594833Y-79159833D01*
X152510166Y-79202166D01*
X152425500Y-79202166D01*
X152340833Y-79159833D01*
X152298500Y-79117500D01*
X152256166Y-79032833D01*
X152213833Y-78863500D01*
X152213833Y-78651833D01*
X152256166Y-78482500D01*
X152298500Y-78397833D01*
X152340833Y-78355500D01*
X152425500Y-78313166D01*
%TO.C,R19*%
X151028500Y-80402166D02*
X150732166Y-79978833D01*
X150520500Y-80402166D02*
X150520500Y-79513166D01*
X150859166Y-79513166D01*
X150943833Y-79555500D01*
X150986166Y-79597833D01*
X151028500Y-79682500D01*
X151028500Y-79809500D01*
X150986166Y-79894166D01*
X150943833Y-79936500D01*
X150859166Y-79978833D01*
X150520500Y-79978833D01*
X151875166Y-80402166D02*
X151367166Y-80402166D01*
X151621166Y-80402166D02*
X151621166Y-79513166D01*
X151536500Y-79640166D01*
X151451833Y-79724833D01*
X151367166Y-79767166D01*
X152298500Y-80402166D02*
X152467833Y-80402166D01*
X152552500Y-80359833D01*
X152594833Y-80317500D01*
X152679500Y-80190500D01*
X152721833Y-80021166D01*
X152721833Y-79682500D01*
X152679500Y-79597833D01*
X152637166Y-79555500D01*
X152552500Y-79513166D01*
X152383166Y-79513166D01*
X152298500Y-79555500D01*
X152256166Y-79597833D01*
X152213833Y-79682500D01*
X152213833Y-79894166D01*
X152256166Y-79978833D01*
X152298500Y-80021166D01*
X152383166Y-80063500D01*
X152552500Y-80063500D01*
X152637166Y-80021166D01*
X152679500Y-79978833D01*
X152721833Y-79894166D01*
%TO.C,R17*%
X160667833Y-111641000D02*
X161091166Y-111344666D01*
X160667833Y-111133000D02*
X161556833Y-111133000D01*
X161556833Y-111471666D01*
X161514500Y-111556333D01*
X161472166Y-111598666D01*
X161387500Y-111641000D01*
X161260500Y-111641000D01*
X161175833Y-111598666D01*
X161133500Y-111556333D01*
X161091166Y-111471666D01*
X161091166Y-111133000D01*
X160667833Y-112487666D02*
X160667833Y-111979666D01*
X160667833Y-112233666D02*
X161556833Y-112233666D01*
X161429833Y-112149000D01*
X161345166Y-112064333D01*
X161302833Y-111979666D01*
X161556833Y-112784000D02*
X161556833Y-113376666D01*
X160667833Y-112995666D01*
%TO.C,R16*%
X170847833Y-112878500D02*
X171271166Y-112582166D01*
X170847833Y-112370500D02*
X171736833Y-112370500D01*
X171736833Y-112709166D01*
X171694500Y-112793833D01*
X171652166Y-112836166D01*
X171567500Y-112878500D01*
X171440500Y-112878500D01*
X171355833Y-112836166D01*
X171313500Y-112793833D01*
X171271166Y-112709166D01*
X171271166Y-112370500D01*
X170847833Y-113725166D02*
X170847833Y-113217166D01*
X170847833Y-113471166D02*
X171736833Y-113471166D01*
X171609833Y-113386500D01*
X171525166Y-113301833D01*
X171482833Y-113217166D01*
X171736833Y-114487166D02*
X171736833Y-114317833D01*
X171694500Y-114233166D01*
X171652166Y-114190833D01*
X171525166Y-114106166D01*
X171355833Y-114063833D01*
X171017166Y-114063833D01*
X170932500Y-114106166D01*
X170890166Y-114148500D01*
X170847833Y-114233166D01*
X170847833Y-114402500D01*
X170890166Y-114487166D01*
X170932500Y-114529500D01*
X171017166Y-114571833D01*
X171228833Y-114571833D01*
X171313500Y-114529500D01*
X171355833Y-114487166D01*
X171398166Y-114402500D01*
X171398166Y-114233166D01*
X171355833Y-114148500D01*
X171313500Y-114106166D01*
X171228833Y-114063833D01*
%TO.C,R15*%
X149528500Y-90932166D02*
X149232166Y-90508833D01*
X149020500Y-90932166D02*
X149020500Y-90043166D01*
X149359166Y-90043166D01*
X149443833Y-90085500D01*
X149486166Y-90127833D01*
X149528500Y-90212500D01*
X149528500Y-90339500D01*
X149486166Y-90424166D01*
X149443833Y-90466500D01*
X149359166Y-90508833D01*
X149020500Y-90508833D01*
X150375166Y-90932166D02*
X149867166Y-90932166D01*
X150121166Y-90932166D02*
X150121166Y-90043166D01*
X150036500Y-90170166D01*
X149951833Y-90254833D01*
X149867166Y-90297166D01*
X151179500Y-90043166D02*
X150756166Y-90043166D01*
X150713833Y-90466500D01*
X150756166Y-90424166D01*
X150840833Y-90381833D01*
X151052500Y-90381833D01*
X151137166Y-90424166D01*
X151179500Y-90466500D01*
X151221833Y-90551166D01*
X151221833Y-90762833D01*
X151179500Y-90847500D01*
X151137166Y-90889833D01*
X151052500Y-90932166D01*
X150840833Y-90932166D01*
X150756166Y-90889833D01*
X150713833Y-90847500D01*
%TO.C,R14*%
X156247833Y-107030666D02*
X156671166Y-106734332D01*
X156247833Y-106522666D02*
X157136833Y-106522666D01*
X157136833Y-106861332D01*
X157094500Y-106945999D01*
X157052166Y-106988332D01*
X156967500Y-107030666D01*
X156840500Y-107030666D01*
X156755833Y-106988332D01*
X156713500Y-106945999D01*
X156671166Y-106861332D01*
X156671166Y-106522666D01*
X156247833Y-107877332D02*
X156247833Y-107369332D01*
X156247833Y-107623332D02*
X157136833Y-107623332D01*
X157009833Y-107538666D01*
X156925166Y-107453999D01*
X156882833Y-107369332D01*
X156840500Y-108639332D02*
X156247833Y-108639332D01*
X157179166Y-108427666D02*
X156544166Y-108215999D01*
X156544166Y-108766332D01*
%TO.C,R13*%
X172347833Y-112878500D02*
X172771166Y-112582166D01*
X172347833Y-112370500D02*
X173236833Y-112370500D01*
X173236833Y-112709166D01*
X173194500Y-112793833D01*
X173152166Y-112836166D01*
X173067500Y-112878500D01*
X172940500Y-112878500D01*
X172855833Y-112836166D01*
X172813500Y-112793833D01*
X172771166Y-112709166D01*
X172771166Y-112370500D01*
X172347833Y-113725166D02*
X172347833Y-113217166D01*
X172347833Y-113471166D02*
X173236833Y-113471166D01*
X173109833Y-113386500D01*
X173025166Y-113301833D01*
X172982833Y-113217166D01*
X173236833Y-114021500D02*
X173236833Y-114571833D01*
X172898166Y-114275500D01*
X172898166Y-114402500D01*
X172855833Y-114487166D01*
X172813500Y-114529500D01*
X172728833Y-114571833D01*
X172517166Y-114571833D01*
X172432500Y-114529500D01*
X172390166Y-114487166D01*
X172347833Y-114402500D01*
X172347833Y-114148500D01*
X172390166Y-114063833D01*
X172432500Y-114021500D01*
%TO.C,R9*%
X127047833Y-93901833D02*
X127471166Y-93605500D01*
X127047833Y-93393833D02*
X127936833Y-93393833D01*
X127936833Y-93732500D01*
X127894500Y-93817166D01*
X127852166Y-93859500D01*
X127767500Y-93901833D01*
X127640500Y-93901833D01*
X127555833Y-93859500D01*
X127513500Y-93817166D01*
X127471166Y-93732500D01*
X127471166Y-93393833D01*
X127047833Y-94325166D02*
X127047833Y-94494500D01*
X127090166Y-94579166D01*
X127132500Y-94621500D01*
X127259500Y-94706166D01*
X127428833Y-94748500D01*
X127767500Y-94748500D01*
X127852166Y-94706166D01*
X127894500Y-94663833D01*
X127936833Y-94579166D01*
X127936833Y-94409833D01*
X127894500Y-94325166D01*
X127852166Y-94282833D01*
X127767500Y-94240500D01*
X127555833Y-94240500D01*
X127471166Y-94282833D01*
X127428833Y-94325166D01*
X127386500Y-94409833D01*
X127386500Y-94579166D01*
X127428833Y-94663833D01*
X127471166Y-94706166D01*
X127555833Y-94748500D01*
%TO.C,R8*%
X128247833Y-93901833D02*
X128671166Y-93605500D01*
X128247833Y-93393833D02*
X129136833Y-93393833D01*
X129136833Y-93732500D01*
X129094500Y-93817166D01*
X129052166Y-93859500D01*
X128967500Y-93901833D01*
X128840500Y-93901833D01*
X128755833Y-93859500D01*
X128713500Y-93817166D01*
X128671166Y-93732500D01*
X128671166Y-93393833D01*
X128755833Y-94409833D02*
X128798166Y-94325166D01*
X128840500Y-94282833D01*
X128925166Y-94240500D01*
X128967500Y-94240500D01*
X129052166Y-94282833D01*
X129094500Y-94325166D01*
X129136833Y-94409833D01*
X129136833Y-94579166D01*
X129094500Y-94663833D01*
X129052166Y-94706166D01*
X128967500Y-94748500D01*
X128925166Y-94748500D01*
X128840500Y-94706166D01*
X128798166Y-94663833D01*
X128755833Y-94579166D01*
X128755833Y-94409833D01*
X128713500Y-94325166D01*
X128671166Y-94282833D01*
X128586500Y-94240500D01*
X128417166Y-94240500D01*
X128332500Y-94282833D01*
X128290166Y-94325166D01*
X128247833Y-94409833D01*
X128247833Y-94579166D01*
X128290166Y-94663833D01*
X128332500Y-94706166D01*
X128417166Y-94748500D01*
X128586500Y-94748500D01*
X128671166Y-94706166D01*
X128713500Y-94663833D01*
X128755833Y-94579166D01*
%TO.C,R7*%
X172247833Y-88301833D02*
X172671166Y-88005500D01*
X172247833Y-87793833D02*
X173136833Y-87793833D01*
X173136833Y-88132500D01*
X173094500Y-88217166D01*
X173052166Y-88259500D01*
X172967500Y-88301833D01*
X172840500Y-88301833D01*
X172755833Y-88259500D01*
X172713500Y-88217166D01*
X172671166Y-88132500D01*
X172671166Y-87793833D01*
X173136833Y-88598166D02*
X173136833Y-89190833D01*
X172247833Y-88809833D01*
%TO.C,R6*%
X156797833Y-82751833D02*
X157221166Y-82455500D01*
X156797833Y-82243833D02*
X157686833Y-82243833D01*
X157686833Y-82582500D01*
X157644500Y-82667166D01*
X157602166Y-82709500D01*
X157517500Y-82751833D01*
X157390500Y-82751833D01*
X157305833Y-82709500D01*
X157263500Y-82667166D01*
X157221166Y-82582500D01*
X157221166Y-82243833D01*
X157686833Y-83513833D02*
X157686833Y-83344500D01*
X157644500Y-83259833D01*
X157602166Y-83217500D01*
X157475166Y-83132833D01*
X157305833Y-83090500D01*
X156967166Y-83090500D01*
X156882500Y-83132833D01*
X156840166Y-83175166D01*
X156797833Y-83259833D01*
X156797833Y-83429166D01*
X156840166Y-83513833D01*
X156882500Y-83556166D01*
X156967166Y-83598500D01*
X157178833Y-83598500D01*
X157263500Y-83556166D01*
X157305833Y-83513833D01*
X157348166Y-83429166D01*
X157348166Y-83259833D01*
X157305833Y-83175166D01*
X157263500Y-83132833D01*
X157178833Y-83090500D01*
%TO.C,R5*%
X168527833Y-83639333D02*
X168951166Y-83343000D01*
X168527833Y-83131333D02*
X169416833Y-83131333D01*
X169416833Y-83470000D01*
X169374500Y-83554666D01*
X169332166Y-83597000D01*
X169247500Y-83639333D01*
X169120500Y-83639333D01*
X169035833Y-83597000D01*
X168993500Y-83554666D01*
X168951166Y-83470000D01*
X168951166Y-83131333D01*
X169416833Y-84443666D02*
X169416833Y-84020333D01*
X168993500Y-83978000D01*
X169035833Y-84020333D01*
X169078166Y-84105000D01*
X169078166Y-84316666D01*
X169035833Y-84401333D01*
X168993500Y-84443666D01*
X168908833Y-84486000D01*
X168697166Y-84486000D01*
X168612500Y-84443666D01*
X168570166Y-84401333D01*
X168527833Y-84316666D01*
X168527833Y-84105000D01*
X168570166Y-84020333D01*
X168612500Y-83978000D01*
%TO.C,R4*%
X158347833Y-82751833D02*
X158771166Y-82455500D01*
X158347833Y-82243833D02*
X159236833Y-82243833D01*
X159236833Y-82582500D01*
X159194500Y-82667166D01*
X159152166Y-82709500D01*
X159067500Y-82751833D01*
X158940500Y-82751833D01*
X158855833Y-82709500D01*
X158813500Y-82667166D01*
X158771166Y-82582500D01*
X158771166Y-82243833D01*
X158940500Y-83513833D02*
X158347833Y-83513833D01*
X159279166Y-83302166D02*
X158644166Y-83090500D01*
X158644166Y-83640833D01*
%TO.C,R2*%
X128001833Y-96202166D02*
X127705500Y-95778833D01*
X127493833Y-96202166D02*
X127493833Y-95313166D01*
X127832500Y-95313166D01*
X127917166Y-95355500D01*
X127959500Y-95397833D01*
X128001833Y-95482500D01*
X128001833Y-95609500D01*
X127959500Y-95694166D01*
X127917166Y-95736500D01*
X127832500Y-95778833D01*
X127493833Y-95778833D01*
X128340500Y-95397833D02*
X128382833Y-95355500D01*
X128467500Y-95313166D01*
X128679166Y-95313166D01*
X128763833Y-95355500D01*
X128806166Y-95397833D01*
X128848500Y-95482500D01*
X128848500Y-95567166D01*
X128806166Y-95694166D01*
X128298166Y-96202166D01*
X128848500Y-96202166D01*
%TO.C,R1*%
X171527833Y-84901833D02*
X171951166Y-84605500D01*
X171527833Y-84393833D02*
X172416833Y-84393833D01*
X172416833Y-84732500D01*
X172374500Y-84817166D01*
X172332166Y-84859500D01*
X172247500Y-84901833D01*
X172120500Y-84901833D01*
X172035833Y-84859500D01*
X171993500Y-84817166D01*
X171951166Y-84732500D01*
X171951166Y-84393833D01*
X171527833Y-85748500D02*
X171527833Y-85240500D01*
X171527833Y-85494500D02*
X172416833Y-85494500D01*
X172289833Y-85409833D01*
X172205166Y-85325166D01*
X172162833Y-85240500D01*
%TO.C,Q4*%
X157513166Y-107115333D02*
X157555500Y-107030666D01*
X157640166Y-106946000D01*
X157767166Y-106819000D01*
X157809500Y-106734333D01*
X157809500Y-106649666D01*
X157597833Y-106692000D02*
X157640166Y-106607333D01*
X157724833Y-106522666D01*
X157894166Y-106480333D01*
X158190500Y-106480333D01*
X158359833Y-106522666D01*
X158444500Y-106607333D01*
X158486833Y-106692000D01*
X158486833Y-106861333D01*
X158444500Y-106946000D01*
X158359833Y-107030666D01*
X158190500Y-107073000D01*
X157894166Y-107073000D01*
X157724833Y-107030666D01*
X157640166Y-106946000D01*
X157597833Y-106861333D01*
X157597833Y-106692000D01*
X158190500Y-107835000D02*
X157597833Y-107835000D01*
X158529166Y-107623333D02*
X157894166Y-107411666D01*
X157894166Y-107962000D01*
%TO.C,Q3*%
X158963166Y-107115333D02*
X159005500Y-107030666D01*
X159090166Y-106946000D01*
X159217166Y-106819000D01*
X159259500Y-106734333D01*
X159259500Y-106649666D01*
X159047833Y-106692000D02*
X159090166Y-106607333D01*
X159174833Y-106522666D01*
X159344166Y-106480333D01*
X159640500Y-106480333D01*
X159809833Y-106522666D01*
X159894500Y-106607333D01*
X159936833Y-106692000D01*
X159936833Y-106861333D01*
X159894500Y-106946000D01*
X159809833Y-107030666D01*
X159640500Y-107073000D01*
X159344166Y-107073000D01*
X159174833Y-107030666D01*
X159090166Y-106946000D01*
X159047833Y-106861333D01*
X159047833Y-106692000D01*
X159936833Y-107369333D02*
X159936833Y-107919666D01*
X159598166Y-107623333D01*
X159598166Y-107750333D01*
X159555833Y-107835000D01*
X159513500Y-107877333D01*
X159428833Y-107919666D01*
X159217166Y-107919666D01*
X159132500Y-107877333D01*
X159090166Y-107835000D01*
X159047833Y-107750333D01*
X159047833Y-107496333D01*
X159090166Y-107411666D01*
X159132500Y-107369333D01*
%TO.C,Q2*%
X170913166Y-88386500D02*
X170955500Y-88301833D01*
X171040166Y-88217167D01*
X171167166Y-88090167D01*
X171209500Y-88005500D01*
X171209500Y-87920833D01*
X170997833Y-87963167D02*
X171040166Y-87878500D01*
X171124833Y-87793833D01*
X171294166Y-87751500D01*
X171590500Y-87751500D01*
X171759833Y-87793833D01*
X171844500Y-87878500D01*
X171886833Y-87963167D01*
X171886833Y-88132500D01*
X171844500Y-88217167D01*
X171759833Y-88301833D01*
X171590500Y-88344167D01*
X171294166Y-88344167D01*
X171124833Y-88301833D01*
X171040166Y-88217167D01*
X170997833Y-88132500D01*
X170997833Y-87963167D01*
X171802166Y-88682833D02*
X171844500Y-88725167D01*
X171886833Y-88809833D01*
X171886833Y-89021500D01*
X171844500Y-89106167D01*
X171802166Y-89148500D01*
X171717500Y-89190833D01*
X171632833Y-89190833D01*
X171505833Y-89148500D01*
X170997833Y-88640500D01*
X170997833Y-89190833D01*
%TO.C,Q1*%
X169563166Y-88386500D02*
X169605500Y-88301833D01*
X169690166Y-88217167D01*
X169817166Y-88090167D01*
X169859500Y-88005500D01*
X169859500Y-87920833D01*
X169647833Y-87963167D02*
X169690166Y-87878500D01*
X169774833Y-87793833D01*
X169944166Y-87751500D01*
X170240500Y-87751500D01*
X170409833Y-87793833D01*
X170494500Y-87878500D01*
X170536833Y-87963167D01*
X170536833Y-88132500D01*
X170494500Y-88217167D01*
X170409833Y-88301833D01*
X170240500Y-88344167D01*
X169944166Y-88344167D01*
X169774833Y-88301833D01*
X169690166Y-88217167D01*
X169647833Y-88132500D01*
X169647833Y-87963167D01*
X169647833Y-89190833D02*
X169647833Y-88682833D01*
X169647833Y-88936833D02*
X170536833Y-88936833D01*
X170409833Y-88852167D01*
X170325166Y-88767500D01*
X170282833Y-88682833D01*
%TO.C,L1*%
X131151833Y-91102166D02*
X130728500Y-91102166D01*
X130728500Y-90213166D01*
X131913833Y-91102166D02*
X131405833Y-91102166D01*
X131659833Y-91102166D02*
X131659833Y-90213166D01*
X131575166Y-90340166D01*
X131490500Y-90424833D01*
X131405833Y-90467166D01*
%TO.C,J4*%
X134853666Y-73313166D02*
X134853666Y-73948166D01*
X134811333Y-74075166D01*
X134726666Y-74159833D01*
X134599666Y-74202166D01*
X134515000Y-74202166D01*
X135658000Y-73609500D02*
X135658000Y-74202166D01*
X135446333Y-73270833D02*
X135234666Y-73905833D01*
X135785000Y-73905833D01*
%TO.C,J3*%
X152186833Y-87453666D02*
X151551833Y-87453666D01*
X151424833Y-87411333D01*
X151340166Y-87326666D01*
X151297833Y-87199666D01*
X151297833Y-87115000D01*
X152186833Y-87792333D02*
X152186833Y-88342666D01*
X151848166Y-88046333D01*
X151848166Y-88173333D01*
X151805833Y-88258000D01*
X151763500Y-88300333D01*
X151678833Y-88342666D01*
X151467166Y-88342666D01*
X151382500Y-88300333D01*
X151340166Y-88258000D01*
X151297833Y-88173333D01*
X151297833Y-87919333D01*
X151340166Y-87834666D01*
X151382500Y-87792333D01*
%TO.C,J2*%
X140983166Y-121096333D02*
X141618166Y-121096333D01*
X141745166Y-121138666D01*
X141829833Y-121223333D01*
X141872166Y-121350333D01*
X141872166Y-121435000D01*
X141067833Y-120715333D02*
X141025500Y-120673000D01*
X140983166Y-120588333D01*
X140983166Y-120376666D01*
X141025500Y-120292000D01*
X141067833Y-120249666D01*
X141152500Y-120207333D01*
X141237166Y-120207333D01*
X141364166Y-120249666D01*
X141872166Y-120757666D01*
X141872166Y-120207333D01*
%TO.C,J1*%
X128153666Y-121363166D02*
X128153666Y-121998166D01*
X128111333Y-122125166D01*
X128026666Y-122209833D01*
X127899666Y-122252166D01*
X127815000Y-122252166D01*
X129042666Y-122252166D02*
X128534666Y-122252166D01*
X128788666Y-122252166D02*
X128788666Y-121363166D01*
X128704000Y-121490166D01*
X128619333Y-121574833D01*
X128534666Y-121617166D01*
%TO.C,F1*%
X134303666Y-106186500D02*
X134007333Y-106186500D01*
X134007333Y-106652166D02*
X134007333Y-105763166D01*
X134430666Y-105763166D01*
X135235000Y-106652166D02*
X134727000Y-106652166D01*
X134981000Y-106652166D02*
X134981000Y-105763166D01*
X134896333Y-105890166D01*
X134811666Y-105974833D01*
X134727000Y-106017166D01*
%TO.C,D9*%
X156343833Y-104152166D02*
X156343833Y-103263166D01*
X156555500Y-103263166D01*
X156682500Y-103305500D01*
X156767166Y-103390166D01*
X156809500Y-103474833D01*
X156851833Y-103644166D01*
X156851833Y-103771166D01*
X156809500Y-103940500D01*
X156767166Y-104025166D01*
X156682500Y-104109833D01*
X156555500Y-104152166D01*
X156343833Y-104152166D01*
X157275166Y-104152166D02*
X157444500Y-104152166D01*
X157529166Y-104109833D01*
X157571500Y-104067500D01*
X157656166Y-103940500D01*
X157698500Y-103771166D01*
X157698500Y-103432500D01*
X157656166Y-103347833D01*
X157613833Y-103305500D01*
X157529166Y-103263166D01*
X157359833Y-103263166D01*
X157275166Y-103305500D01*
X157232833Y-103347833D01*
X157190500Y-103432500D01*
X157190500Y-103644166D01*
X157232833Y-103728833D01*
X157275166Y-103771166D01*
X157359833Y-103813500D01*
X157529166Y-103813500D01*
X157613833Y-103771166D01*
X157656166Y-103728833D01*
X157698500Y-103644166D01*
%TO.C,D8*%
X172293833Y-104102166D02*
X172293833Y-103213166D01*
X172505500Y-103213166D01*
X172632500Y-103255500D01*
X172717166Y-103340166D01*
X172759500Y-103424833D01*
X172801833Y-103594166D01*
X172801833Y-103721166D01*
X172759500Y-103890500D01*
X172717166Y-103975166D01*
X172632500Y-104059833D01*
X172505500Y-104102166D01*
X172293833Y-104102166D01*
X173309833Y-103594166D02*
X173225166Y-103551833D01*
X173182833Y-103509500D01*
X173140500Y-103424833D01*
X173140500Y-103382500D01*
X173182833Y-103297833D01*
X173225166Y-103255500D01*
X173309833Y-103213166D01*
X173479166Y-103213166D01*
X173563833Y-103255500D01*
X173606166Y-103297833D01*
X173648500Y-103382500D01*
X173648500Y-103424833D01*
X173606166Y-103509500D01*
X173563833Y-103551833D01*
X173479166Y-103594166D01*
X173309833Y-103594166D01*
X173225166Y-103636500D01*
X173182833Y-103678833D01*
X173140500Y-103763500D01*
X173140500Y-103932833D01*
X173182833Y-104017500D01*
X173225166Y-104059833D01*
X173309833Y-104102166D01*
X173479166Y-104102166D01*
X173563833Y-104059833D01*
X173606166Y-104017500D01*
X173648500Y-103932833D01*
X173648500Y-103763500D01*
X173606166Y-103678833D01*
X173563833Y-103636500D01*
X173479166Y-103594166D01*
%TO.C,D5*%
X172343833Y-92652166D02*
X172343833Y-91763166D01*
X172555500Y-91763166D01*
X172682500Y-91805500D01*
X172767166Y-91890166D01*
X172809500Y-91974833D01*
X172851833Y-92144166D01*
X172851833Y-92271166D01*
X172809500Y-92440500D01*
X172767166Y-92525166D01*
X172682500Y-92609833D01*
X172555500Y-92652166D01*
X172343833Y-92652166D01*
X173656166Y-91763166D02*
X173232833Y-91763166D01*
X173190500Y-92186500D01*
X173232833Y-92144166D01*
X173317500Y-92101833D01*
X173529166Y-92101833D01*
X173613833Y-92144166D01*
X173656166Y-92186500D01*
X173698500Y-92271166D01*
X173698500Y-92482833D01*
X173656166Y-92567500D01*
X173613833Y-92609833D01*
X173529166Y-92652166D01*
X173317500Y-92652166D01*
X173232833Y-92609833D01*
X173190500Y-92567500D01*
%TO.C,D4*%
X156343833Y-92652166D02*
X156343833Y-91763166D01*
X156555500Y-91763166D01*
X156682500Y-91805500D01*
X156767166Y-91890166D01*
X156809500Y-91974833D01*
X156851833Y-92144166D01*
X156851833Y-92271166D01*
X156809500Y-92440500D01*
X156767166Y-92525166D01*
X156682500Y-92609833D01*
X156555500Y-92652166D01*
X156343833Y-92652166D01*
X157613833Y-92059500D02*
X157613833Y-92652166D01*
X157402166Y-91720833D02*
X157190500Y-92355833D01*
X157740833Y-92355833D01*
%TO.C,D2*%
X139293833Y-100052166D02*
X139293833Y-99163166D01*
X139505500Y-99163166D01*
X139632500Y-99205500D01*
X139717166Y-99290166D01*
X139759500Y-99374833D01*
X139801833Y-99544166D01*
X139801833Y-99671166D01*
X139759500Y-99840500D01*
X139717166Y-99925166D01*
X139632500Y-100009833D01*
X139505500Y-100052166D01*
X139293833Y-100052166D01*
X140140500Y-99247833D02*
X140182833Y-99205500D01*
X140267500Y-99163166D01*
X140479166Y-99163166D01*
X140563833Y-99205500D01*
X140606166Y-99247833D01*
X140648500Y-99332500D01*
X140648500Y-99417166D01*
X140606166Y-99544166D01*
X140098166Y-100052166D01*
X140648500Y-100052166D01*
%TO.C,D1*%
X127647833Y-91093833D02*
X128536833Y-91093833D01*
X128536833Y-91305500D01*
X128494500Y-91432500D01*
X128409833Y-91517166D01*
X128325166Y-91559500D01*
X128155833Y-91601833D01*
X128028833Y-91601833D01*
X127859500Y-91559500D01*
X127774833Y-91517166D01*
X127690166Y-91432500D01*
X127647833Y-91305500D01*
X127647833Y-91093833D01*
X127647833Y-92448500D02*
X127647833Y-91940500D01*
X127647833Y-92194500D02*
X128536833Y-92194500D01*
X128409833Y-92109833D01*
X128325166Y-92025166D01*
X128282833Y-91940500D01*
%TO.C,C27*%
X149528500Y-94837500D02*
X149486166Y-94879833D01*
X149359166Y-94922166D01*
X149274500Y-94922166D01*
X149147500Y-94879833D01*
X149062833Y-94795166D01*
X149020500Y-94710500D01*
X148978166Y-94541166D01*
X148978166Y-94414166D01*
X149020500Y-94244833D01*
X149062833Y-94160166D01*
X149147500Y-94075500D01*
X149274500Y-94033166D01*
X149359166Y-94033166D01*
X149486166Y-94075500D01*
X149528500Y-94117833D01*
X149867166Y-94117833D02*
X149909500Y-94075500D01*
X149994166Y-94033166D01*
X150205833Y-94033166D01*
X150290500Y-94075500D01*
X150332833Y-94117833D01*
X150375166Y-94202500D01*
X150375166Y-94287166D01*
X150332833Y-94414166D01*
X149824833Y-94922166D01*
X150375166Y-94922166D01*
X150671500Y-94033166D02*
X151264166Y-94033166D01*
X150883166Y-94922166D01*
%TO.C,C26*%
X149528500Y-92177500D02*
X149486166Y-92219833D01*
X149359166Y-92262166D01*
X149274500Y-92262166D01*
X149147500Y-92219833D01*
X149062833Y-92135166D01*
X149020500Y-92050500D01*
X148978166Y-91881166D01*
X148978166Y-91754166D01*
X149020500Y-91584833D01*
X149062833Y-91500166D01*
X149147500Y-91415500D01*
X149274500Y-91373166D01*
X149359166Y-91373166D01*
X149486166Y-91415500D01*
X149528500Y-91457833D01*
X149867166Y-91457833D02*
X149909500Y-91415500D01*
X149994166Y-91373166D01*
X150205833Y-91373166D01*
X150290500Y-91415500D01*
X150332833Y-91457833D01*
X150375166Y-91542500D01*
X150375166Y-91627166D01*
X150332833Y-91754166D01*
X149824833Y-92262166D01*
X150375166Y-92262166D01*
X151137166Y-91373166D02*
X150967833Y-91373166D01*
X150883166Y-91415500D01*
X150840833Y-91457833D01*
X150756166Y-91584833D01*
X150713833Y-91754166D01*
X150713833Y-92092833D01*
X150756166Y-92177500D01*
X150798500Y-92219833D01*
X150883166Y-92262166D01*
X151052500Y-92262166D01*
X151137166Y-92219833D01*
X151179500Y-92177500D01*
X151221833Y-92092833D01*
X151221833Y-91881166D01*
X151179500Y-91796500D01*
X151137166Y-91754166D01*
X151052500Y-91711833D01*
X150883166Y-91711833D01*
X150798500Y-91754166D01*
X150756166Y-91796500D01*
X150713833Y-91881166D01*
%TO.C,C25*%
X164278500Y-110017500D02*
X164236166Y-110059833D01*
X164109166Y-110102166D01*
X164024500Y-110102166D01*
X163897500Y-110059833D01*
X163812833Y-109975166D01*
X163770500Y-109890500D01*
X163728166Y-109721166D01*
X163728166Y-109594166D01*
X163770500Y-109424833D01*
X163812833Y-109340166D01*
X163897500Y-109255500D01*
X164024500Y-109213166D01*
X164109166Y-109213166D01*
X164236166Y-109255500D01*
X164278500Y-109297833D01*
X164617166Y-109297833D02*
X164659500Y-109255500D01*
X164744166Y-109213166D01*
X164955833Y-109213166D01*
X165040500Y-109255500D01*
X165082833Y-109297833D01*
X165125166Y-109382500D01*
X165125166Y-109467166D01*
X165082833Y-109594166D01*
X164574833Y-110102166D01*
X165125166Y-110102166D01*
X165929500Y-109213166D02*
X165506166Y-109213166D01*
X165463833Y-109636500D01*
X165506166Y-109594166D01*
X165590833Y-109551833D01*
X165802500Y-109551833D01*
X165887166Y-109594166D01*
X165929500Y-109636500D01*
X165971833Y-109721166D01*
X165971833Y-109932833D01*
X165929500Y-110017500D01*
X165887166Y-110059833D01*
X165802500Y-110102166D01*
X165590833Y-110102166D01*
X165506166Y-110059833D01*
X165463833Y-110017500D01*
%TO.C,C23*%
X149528500Y-89517500D02*
X149486166Y-89559833D01*
X149359166Y-89602166D01*
X149274500Y-89602166D01*
X149147500Y-89559833D01*
X149062833Y-89475166D01*
X149020500Y-89390500D01*
X148978166Y-89221166D01*
X148978166Y-89094166D01*
X149020500Y-88924833D01*
X149062833Y-88840166D01*
X149147500Y-88755500D01*
X149274500Y-88713166D01*
X149359166Y-88713166D01*
X149486166Y-88755500D01*
X149528500Y-88797833D01*
X149867166Y-88797833D02*
X149909500Y-88755500D01*
X149994166Y-88713166D01*
X150205833Y-88713166D01*
X150290500Y-88755500D01*
X150332833Y-88797833D01*
X150375166Y-88882500D01*
X150375166Y-88967166D01*
X150332833Y-89094166D01*
X149824833Y-89602166D01*
X150375166Y-89602166D01*
X150671500Y-88713166D02*
X151221833Y-88713166D01*
X150925500Y-89051833D01*
X151052500Y-89051833D01*
X151137166Y-89094166D01*
X151179500Y-89136500D01*
X151221833Y-89221166D01*
X151221833Y-89432833D01*
X151179500Y-89517500D01*
X151137166Y-89559833D01*
X151052500Y-89602166D01*
X150798500Y-89602166D01*
X150713833Y-89559833D01*
X150671500Y-89517500D01*
%TO.C,C21*%
X138728500Y-78967500D02*
X138686166Y-79009833D01*
X138559166Y-79052166D01*
X138474500Y-79052166D01*
X138347500Y-79009833D01*
X138262833Y-78925166D01*
X138220500Y-78840500D01*
X138178166Y-78671166D01*
X138178166Y-78544166D01*
X138220500Y-78374833D01*
X138262833Y-78290166D01*
X138347500Y-78205500D01*
X138474500Y-78163166D01*
X138559166Y-78163166D01*
X138686166Y-78205500D01*
X138728500Y-78247833D01*
X139067166Y-78247833D02*
X139109500Y-78205500D01*
X139194166Y-78163166D01*
X139405833Y-78163166D01*
X139490500Y-78205500D01*
X139532833Y-78247833D01*
X139575166Y-78332500D01*
X139575166Y-78417166D01*
X139532833Y-78544166D01*
X139024833Y-79052166D01*
X139575166Y-79052166D01*
X140421833Y-79052166D02*
X139913833Y-79052166D01*
X140167833Y-79052166D02*
X140167833Y-78163166D01*
X140083166Y-78290166D01*
X139998500Y-78374833D01*
X139913833Y-78417166D01*
%TO.C,C20*%
X145028500Y-79017500D02*
X144986166Y-79059833D01*
X144859166Y-79102166D01*
X144774500Y-79102166D01*
X144647500Y-79059833D01*
X144562833Y-78975166D01*
X144520500Y-78890500D01*
X144478166Y-78721166D01*
X144478166Y-78594166D01*
X144520500Y-78424833D01*
X144562833Y-78340166D01*
X144647500Y-78255500D01*
X144774500Y-78213166D01*
X144859166Y-78213166D01*
X144986166Y-78255500D01*
X145028500Y-78297833D01*
X145367166Y-78297833D02*
X145409500Y-78255500D01*
X145494166Y-78213166D01*
X145705833Y-78213166D01*
X145790500Y-78255500D01*
X145832833Y-78297833D01*
X145875166Y-78382500D01*
X145875166Y-78467166D01*
X145832833Y-78594166D01*
X145324833Y-79102166D01*
X145875166Y-79102166D01*
X146425500Y-78213166D02*
X146510166Y-78213166D01*
X146594833Y-78255500D01*
X146637166Y-78297833D01*
X146679500Y-78382500D01*
X146721833Y-78551833D01*
X146721833Y-78763500D01*
X146679500Y-78932833D01*
X146637166Y-79017500D01*
X146594833Y-79059833D01*
X146510166Y-79102166D01*
X146425500Y-79102166D01*
X146340833Y-79059833D01*
X146298500Y-79017500D01*
X146256166Y-78932833D01*
X146213833Y-78763500D01*
X146213833Y-78551833D01*
X146256166Y-78382500D01*
X146298500Y-78297833D01*
X146340833Y-78255500D01*
X146425500Y-78213166D01*
%TO.C,C24*%
X137428500Y-91017500D02*
X137386166Y-91059833D01*
X137259166Y-91102166D01*
X137174500Y-91102166D01*
X137047500Y-91059833D01*
X136962833Y-90975166D01*
X136920500Y-90890500D01*
X136878166Y-90721166D01*
X136878166Y-90594166D01*
X136920500Y-90424833D01*
X136962833Y-90340166D01*
X137047500Y-90255500D01*
X137174500Y-90213166D01*
X137259166Y-90213166D01*
X137386166Y-90255500D01*
X137428500Y-90297833D01*
X137767166Y-90297833D02*
X137809500Y-90255500D01*
X137894166Y-90213166D01*
X138105833Y-90213166D01*
X138190500Y-90255500D01*
X138232833Y-90297833D01*
X138275166Y-90382500D01*
X138275166Y-90467166D01*
X138232833Y-90594166D01*
X137724833Y-91102166D01*
X138275166Y-91102166D01*
X139037166Y-90509500D02*
X139037166Y-91102166D01*
X138825500Y-90170833D02*
X138613833Y-90805833D01*
X139164166Y-90805833D01*
%TO.C,C19*%
X141978500Y-82217500D02*
X141936166Y-82259833D01*
X141809166Y-82302166D01*
X141724500Y-82302166D01*
X141597500Y-82259833D01*
X141512833Y-82175166D01*
X141470500Y-82090500D01*
X141428166Y-81921166D01*
X141428166Y-81794166D01*
X141470500Y-81624833D01*
X141512833Y-81540166D01*
X141597500Y-81455500D01*
X141724500Y-81413166D01*
X141809166Y-81413166D01*
X141936166Y-81455500D01*
X141978500Y-81497833D01*
X142825166Y-82302166D02*
X142317166Y-82302166D01*
X142571166Y-82302166D02*
X142571166Y-81413166D01*
X142486500Y-81540166D01*
X142401833Y-81624833D01*
X142317166Y-81667166D01*
X143248500Y-82302166D02*
X143417833Y-82302166D01*
X143502500Y-82259833D01*
X143544833Y-82217500D01*
X143629500Y-82090500D01*
X143671833Y-81921166D01*
X143671833Y-81582500D01*
X143629500Y-81497833D01*
X143587166Y-81455500D01*
X143502500Y-81413166D01*
X143333166Y-81413166D01*
X143248500Y-81455500D01*
X143206166Y-81497833D01*
X143163833Y-81582500D01*
X143163833Y-81794166D01*
X143206166Y-81878833D01*
X143248500Y-81921166D01*
X143333166Y-81963500D01*
X143502500Y-81963500D01*
X143587166Y-81921166D01*
X143629500Y-81878833D01*
X143671833Y-81794166D01*
%TO.C,C22*%
X137478500Y-92167500D02*
X137436166Y-92209833D01*
X137309166Y-92252166D01*
X137224500Y-92252166D01*
X137097500Y-92209833D01*
X137012833Y-92125166D01*
X136970500Y-92040500D01*
X136928166Y-91871166D01*
X136928166Y-91744166D01*
X136970500Y-91574833D01*
X137012833Y-91490166D01*
X137097500Y-91405500D01*
X137224500Y-91363166D01*
X137309166Y-91363166D01*
X137436166Y-91405500D01*
X137478500Y-91447833D01*
X137817166Y-91447833D02*
X137859500Y-91405500D01*
X137944166Y-91363166D01*
X138155833Y-91363166D01*
X138240500Y-91405500D01*
X138282833Y-91447833D01*
X138325166Y-91532500D01*
X138325166Y-91617166D01*
X138282833Y-91744166D01*
X137774833Y-92252166D01*
X138325166Y-92252166D01*
X138663833Y-91447833D02*
X138706166Y-91405500D01*
X138790833Y-91363166D01*
X139002500Y-91363166D01*
X139087166Y-91405500D01*
X139129500Y-91447833D01*
X139171833Y-91532500D01*
X139171833Y-91617166D01*
X139129500Y-91744166D01*
X138621500Y-92252166D01*
X139171833Y-92252166D01*
%TO.C,C18*%
X142178500Y-80917500D02*
X142136166Y-80959833D01*
X142009166Y-81002166D01*
X141924500Y-81002166D01*
X141797500Y-80959833D01*
X141712833Y-80875166D01*
X141670500Y-80790500D01*
X141628166Y-80621166D01*
X141628166Y-80494166D01*
X141670500Y-80324833D01*
X141712833Y-80240166D01*
X141797500Y-80155500D01*
X141924500Y-80113166D01*
X142009166Y-80113166D01*
X142136166Y-80155500D01*
X142178500Y-80197833D01*
X143025166Y-81002166D02*
X142517166Y-81002166D01*
X142771166Y-81002166D02*
X142771166Y-80113166D01*
X142686500Y-80240166D01*
X142601833Y-80324833D01*
X142517166Y-80367166D01*
X143533166Y-80494166D02*
X143448500Y-80451833D01*
X143406166Y-80409500D01*
X143363833Y-80324833D01*
X143363833Y-80282500D01*
X143406166Y-80197833D01*
X143448500Y-80155500D01*
X143533166Y-80113166D01*
X143702500Y-80113166D01*
X143787166Y-80155500D01*
X143829500Y-80197833D01*
X143871833Y-80282500D01*
X143871833Y-80324833D01*
X143829500Y-80409500D01*
X143787166Y-80451833D01*
X143702500Y-80494166D01*
X143533166Y-80494166D01*
X143448500Y-80536500D01*
X143406166Y-80578833D01*
X143363833Y-80663500D01*
X143363833Y-80832833D01*
X143406166Y-80917500D01*
X143448500Y-80959833D01*
X143533166Y-81002166D01*
X143702500Y-81002166D01*
X143787166Y-80959833D01*
X143829500Y-80917500D01*
X143871833Y-80832833D01*
X143871833Y-80663500D01*
X143829500Y-80578833D01*
X143787166Y-80536500D01*
X143702500Y-80494166D01*
%TO.C,C17*%
X156682500Y-97428500D02*
X156640166Y-97386166D01*
X156597833Y-97259166D01*
X156597833Y-97174500D01*
X156640166Y-97047500D01*
X156724833Y-96962833D01*
X156809500Y-96920500D01*
X156978833Y-96878166D01*
X157105833Y-96878166D01*
X157275166Y-96920500D01*
X157359833Y-96962833D01*
X157444500Y-97047500D01*
X157486833Y-97174500D01*
X157486833Y-97259166D01*
X157444500Y-97386166D01*
X157402166Y-97428500D01*
X156597833Y-98275166D02*
X156597833Y-97767166D01*
X156597833Y-98021166D02*
X157486833Y-98021166D01*
X157359833Y-97936500D01*
X157275166Y-97851833D01*
X157232833Y-97767166D01*
X157486833Y-98571500D02*
X157486833Y-99164166D01*
X156597833Y-98783166D01*
%TO.C,C16*%
X138382500Y-93028500D02*
X138340166Y-92986166D01*
X138297833Y-92859166D01*
X138297833Y-92774500D01*
X138340166Y-92647500D01*
X138424833Y-92562833D01*
X138509500Y-92520500D01*
X138678833Y-92478166D01*
X138805833Y-92478166D01*
X138975166Y-92520500D01*
X139059833Y-92562833D01*
X139144500Y-92647500D01*
X139186833Y-92774500D01*
X139186833Y-92859166D01*
X139144500Y-92986166D01*
X139102166Y-93028500D01*
X138297833Y-93875166D02*
X138297833Y-93367166D01*
X138297833Y-93621166D02*
X139186833Y-93621166D01*
X139059833Y-93536500D01*
X138975166Y-93451833D01*
X138932833Y-93367166D01*
X139186833Y-94637166D02*
X139186833Y-94467833D01*
X139144500Y-94383166D01*
X139102166Y-94340833D01*
X138975166Y-94256166D01*
X138805833Y-94213833D01*
X138467166Y-94213833D01*
X138382500Y-94256166D01*
X138340166Y-94298500D01*
X138297833Y-94383166D01*
X138297833Y-94552500D01*
X138340166Y-94637166D01*
X138382500Y-94679500D01*
X138467166Y-94721833D01*
X138678833Y-94721833D01*
X138763500Y-94679500D01*
X138805833Y-94637166D01*
X138848166Y-94552500D01*
X138848166Y-94383166D01*
X138805833Y-94298500D01*
X138763500Y-94256166D01*
X138678833Y-94213833D01*
%TO.C,C14*%
X137082500Y-93028500D02*
X137040166Y-92986166D01*
X136997833Y-92859166D01*
X136997833Y-92774500D01*
X137040166Y-92647500D01*
X137124833Y-92562833D01*
X137209500Y-92520500D01*
X137378833Y-92478166D01*
X137505833Y-92478166D01*
X137675166Y-92520500D01*
X137759833Y-92562833D01*
X137844500Y-92647500D01*
X137886833Y-92774500D01*
X137886833Y-92859166D01*
X137844500Y-92986166D01*
X137802166Y-93028500D01*
X136997833Y-93875166D02*
X136997833Y-93367166D01*
X136997833Y-93621166D02*
X137886833Y-93621166D01*
X137759833Y-93536500D01*
X137675166Y-93451833D01*
X137632833Y-93367166D01*
X137590500Y-94637166D02*
X136997833Y-94637166D01*
X137929166Y-94425500D02*
X137294166Y-94213833D01*
X137294166Y-94764166D01*
%TO.C,C15*%
X172928500Y-106617500D02*
X172886166Y-106659833D01*
X172759166Y-106702166D01*
X172674500Y-106702166D01*
X172547500Y-106659833D01*
X172462833Y-106575166D01*
X172420500Y-106490500D01*
X172378166Y-106321166D01*
X172378166Y-106194166D01*
X172420500Y-106024833D01*
X172462833Y-105940166D01*
X172547500Y-105855500D01*
X172674500Y-105813166D01*
X172759166Y-105813166D01*
X172886166Y-105855500D01*
X172928500Y-105897833D01*
X173775166Y-106702166D02*
X173267166Y-106702166D01*
X173521166Y-106702166D02*
X173521166Y-105813166D01*
X173436500Y-105940166D01*
X173351833Y-106024833D01*
X173267166Y-106067166D01*
X174579500Y-105813166D02*
X174156166Y-105813166D01*
X174113833Y-106236500D01*
X174156166Y-106194166D01*
X174240833Y-106151833D01*
X174452500Y-106151833D01*
X174537166Y-106194166D01*
X174579500Y-106236500D01*
X174621833Y-106321166D01*
X174621833Y-106532833D01*
X174579500Y-106617500D01*
X174537166Y-106659833D01*
X174452500Y-106702166D01*
X174240833Y-106702166D01*
X174156166Y-106659833D01*
X174113833Y-106617500D01*
%TO.C,C11*%
X150778500Y-115567500D02*
X150736166Y-115609833D01*
X150609166Y-115652166D01*
X150524500Y-115652166D01*
X150397500Y-115609833D01*
X150312833Y-115525166D01*
X150270500Y-115440500D01*
X150228166Y-115271166D01*
X150228166Y-115144166D01*
X150270500Y-114974833D01*
X150312833Y-114890166D01*
X150397500Y-114805500D01*
X150524500Y-114763166D01*
X150609166Y-114763166D01*
X150736166Y-114805500D01*
X150778500Y-114847833D01*
X151625166Y-115652166D02*
X151117166Y-115652166D01*
X151371166Y-115652166D02*
X151371166Y-114763166D01*
X151286500Y-114890166D01*
X151201833Y-114974833D01*
X151117166Y-115017166D01*
X152471833Y-115652166D02*
X151963833Y-115652166D01*
X152217833Y-115652166D02*
X152217833Y-114763166D01*
X152133166Y-114890166D01*
X152048500Y-114974833D01*
X151963833Y-115017166D01*
%TO.C,C13*%
X172928500Y-108117500D02*
X172886166Y-108159833D01*
X172759166Y-108202166D01*
X172674500Y-108202166D01*
X172547500Y-108159833D01*
X172462833Y-108075166D01*
X172420500Y-107990500D01*
X172378166Y-107821166D01*
X172378166Y-107694166D01*
X172420500Y-107524833D01*
X172462833Y-107440166D01*
X172547500Y-107355500D01*
X172674500Y-107313166D01*
X172759166Y-107313166D01*
X172886166Y-107355500D01*
X172928500Y-107397833D01*
X173775166Y-108202166D02*
X173267166Y-108202166D01*
X173521166Y-108202166D02*
X173521166Y-107313166D01*
X173436500Y-107440166D01*
X173351833Y-107524833D01*
X173267166Y-107567166D01*
X174071500Y-107313166D02*
X174621833Y-107313166D01*
X174325500Y-107651833D01*
X174452500Y-107651833D01*
X174537166Y-107694166D01*
X174579500Y-107736500D01*
X174621833Y-107821166D01*
X174621833Y-108032833D01*
X174579500Y-108117500D01*
X174537166Y-108159833D01*
X174452500Y-108202166D01*
X174198500Y-108202166D01*
X174113833Y-108159833D01*
X174071500Y-108117500D01*
%TO.C,C9*%
X150801833Y-108417500D02*
X150759500Y-108459833D01*
X150632500Y-108502166D01*
X150547833Y-108502166D01*
X150420833Y-108459833D01*
X150336166Y-108375166D01*
X150293833Y-108290500D01*
X150251500Y-108121166D01*
X150251500Y-107994166D01*
X150293833Y-107824833D01*
X150336166Y-107740166D01*
X150420833Y-107655500D01*
X150547833Y-107613166D01*
X150632500Y-107613166D01*
X150759500Y-107655500D01*
X150801833Y-107697833D01*
X151225166Y-108502166D02*
X151394500Y-108502166D01*
X151479166Y-108459833D01*
X151521500Y-108417500D01*
X151606166Y-108290500D01*
X151648500Y-108121166D01*
X151648500Y-107782500D01*
X151606166Y-107697833D01*
X151563833Y-107655500D01*
X151479166Y-107613166D01*
X151309833Y-107613166D01*
X151225166Y-107655500D01*
X151182833Y-107697833D01*
X151140500Y-107782500D01*
X151140500Y-107994166D01*
X151182833Y-108078833D01*
X151225166Y-108121166D01*
X151309833Y-108163500D01*
X151479166Y-108163500D01*
X151563833Y-108121166D01*
X151606166Y-108078833D01*
X151648500Y-107994166D01*
%TO.C,C12*%
X155878500Y-90017500D02*
X155836166Y-90059833D01*
X155709166Y-90102166D01*
X155624500Y-90102166D01*
X155497500Y-90059833D01*
X155412833Y-89975166D01*
X155370500Y-89890500D01*
X155328166Y-89721166D01*
X155328166Y-89594166D01*
X155370500Y-89424833D01*
X155412833Y-89340166D01*
X155497500Y-89255500D01*
X155624500Y-89213166D01*
X155709166Y-89213166D01*
X155836166Y-89255500D01*
X155878500Y-89297833D01*
X156725166Y-90102166D02*
X156217166Y-90102166D01*
X156471166Y-90102166D02*
X156471166Y-89213166D01*
X156386500Y-89340166D01*
X156301833Y-89424833D01*
X156217166Y-89467166D01*
X157063833Y-89297833D02*
X157106166Y-89255500D01*
X157190833Y-89213166D01*
X157402500Y-89213166D01*
X157487166Y-89255500D01*
X157529500Y-89297833D01*
X157571833Y-89382500D01*
X157571833Y-89467166D01*
X157529500Y-89594166D01*
X157021500Y-90102166D01*
X157571833Y-90102166D01*
%TO.C,C10*%
X155878500Y-88567500D02*
X155836166Y-88609833D01*
X155709166Y-88652166D01*
X155624500Y-88652166D01*
X155497500Y-88609833D01*
X155412833Y-88525166D01*
X155370500Y-88440500D01*
X155328166Y-88271166D01*
X155328166Y-88144166D01*
X155370500Y-87974833D01*
X155412833Y-87890166D01*
X155497500Y-87805500D01*
X155624500Y-87763166D01*
X155709166Y-87763166D01*
X155836166Y-87805500D01*
X155878500Y-87847833D01*
X156725166Y-88652166D02*
X156217166Y-88652166D01*
X156471166Y-88652166D02*
X156471166Y-87763166D01*
X156386500Y-87890166D01*
X156301833Y-87974833D01*
X156217166Y-88017166D01*
X157275500Y-87763166D02*
X157360166Y-87763166D01*
X157444833Y-87805500D01*
X157487166Y-87847833D01*
X157529500Y-87932500D01*
X157571833Y-88101833D01*
X157571833Y-88313500D01*
X157529500Y-88482833D01*
X157487166Y-88567500D01*
X157444833Y-88609833D01*
X157360166Y-88652166D01*
X157275500Y-88652166D01*
X157190833Y-88609833D01*
X157148500Y-88567500D01*
X157106166Y-88482833D01*
X157063833Y-88313500D01*
X157063833Y-88101833D01*
X157106166Y-87932500D01*
X157148500Y-87847833D01*
X157190833Y-87805500D01*
X157275500Y-87763166D01*
%TO.C,C5*%
X164551833Y-115917500D02*
X164509500Y-115959833D01*
X164382500Y-116002166D01*
X164297833Y-116002166D01*
X164170833Y-115959833D01*
X164086166Y-115875166D01*
X164043833Y-115790500D01*
X164001500Y-115621166D01*
X164001500Y-115494166D01*
X164043833Y-115324833D01*
X164086166Y-115240166D01*
X164170833Y-115155500D01*
X164297833Y-115113166D01*
X164382500Y-115113166D01*
X164509500Y-115155500D01*
X164551833Y-115197833D01*
X165356166Y-115113166D02*
X164932833Y-115113166D01*
X164890500Y-115536500D01*
X164932833Y-115494166D01*
X165017500Y-115451833D01*
X165229166Y-115451833D01*
X165313833Y-115494166D01*
X165356166Y-115536500D01*
X165398500Y-115621166D01*
X165398500Y-115832833D01*
X165356166Y-115917500D01*
X165313833Y-115959833D01*
X165229166Y-116002166D01*
X165017500Y-116002166D01*
X164932833Y-115959833D01*
X164890500Y-115917500D01*
%TO.C,C3*%
X138251833Y-104067500D02*
X138209500Y-104109833D01*
X138082500Y-104152166D01*
X137997833Y-104152166D01*
X137870833Y-104109833D01*
X137786166Y-104025166D01*
X137743833Y-103940500D01*
X137701500Y-103771166D01*
X137701500Y-103644166D01*
X137743833Y-103474833D01*
X137786166Y-103390166D01*
X137870833Y-103305500D01*
X137997833Y-103263166D01*
X138082500Y-103263166D01*
X138209500Y-103305500D01*
X138251833Y-103347833D01*
X138548166Y-103263166D02*
X139098500Y-103263166D01*
X138802166Y-103601833D01*
X138929166Y-103601833D01*
X139013833Y-103644166D01*
X139056166Y-103686500D01*
X139098500Y-103771166D01*
X139098500Y-103982833D01*
X139056166Y-104067500D01*
X139013833Y-104109833D01*
X138929166Y-104152166D01*
X138675166Y-104152166D01*
X138590500Y-104109833D01*
X138548166Y-104067500D01*
%TO.C,C4*%
X165201833Y-81967500D02*
X165159500Y-82009833D01*
X165032500Y-82052166D01*
X164947833Y-82052166D01*
X164820833Y-82009833D01*
X164736166Y-81925166D01*
X164693833Y-81840500D01*
X164651500Y-81671166D01*
X164651500Y-81544166D01*
X164693833Y-81374833D01*
X164736166Y-81290166D01*
X164820833Y-81205500D01*
X164947833Y-81163166D01*
X165032500Y-81163166D01*
X165159500Y-81205500D01*
X165201833Y-81247833D01*
X165963833Y-81459500D02*
X165963833Y-82052166D01*
X165752166Y-81120833D02*
X165540500Y-81755833D01*
X166090833Y-81755833D01*
%TO.C,C2*%
X165201833Y-80717500D02*
X165159500Y-80759833D01*
X165032500Y-80802166D01*
X164947833Y-80802166D01*
X164820833Y-80759833D01*
X164736166Y-80675166D01*
X164693833Y-80590500D01*
X164651500Y-80421166D01*
X164651500Y-80294166D01*
X164693833Y-80124833D01*
X164736166Y-80040166D01*
X164820833Y-79955500D01*
X164947833Y-79913166D01*
X165032500Y-79913166D01*
X165159500Y-79955500D01*
X165201833Y-79997833D01*
X165540500Y-79997833D02*
X165582833Y-79955500D01*
X165667500Y-79913166D01*
X165879166Y-79913166D01*
X165963833Y-79955500D01*
X166006166Y-79997833D01*
X166048500Y-80082500D01*
X166048500Y-80167166D01*
X166006166Y-80294166D01*
X165498166Y-80802166D01*
X166048500Y-80802166D01*
%TO.C,C1*%
X138251833Y-102517500D02*
X138209500Y-102559833D01*
X138082500Y-102602166D01*
X137997833Y-102602166D01*
X137870833Y-102559833D01*
X137786166Y-102475166D01*
X137743833Y-102390500D01*
X137701500Y-102221166D01*
X137701500Y-102094166D01*
X137743833Y-101924833D01*
X137786166Y-101840166D01*
X137870833Y-101755500D01*
X137997833Y-101713166D01*
X138082500Y-101713166D01*
X138209500Y-101755500D01*
X138251833Y-101797833D01*
X139098500Y-102602166D02*
X138590500Y-102602166D01*
X138844500Y-102602166D02*
X138844500Y-101713166D01*
X138759833Y-101840166D01*
X138675166Y-101924833D01*
X138590500Y-101967166D01*
%TD*%
M02*
