M48
INCH,TZ
T1C0.0118
T2C0.0315
T3C0.0394
T4C0.0630
%
G90
G05
T1
X50000Y-29134
X50000Y-30709
X50000Y-32677
X50000Y-34646
X50000Y-36614
X50000Y-38189
X50000Y-40945
X50000Y-44094
X50000Y-46063
X50000Y-48031
X50394Y-42520
X50394Y-42913
X50394Y-43307
X50394Y-44882
X50591Y-38878
X50591Y-39173
X50787Y-42520
X50787Y-42913
X50787Y-43307
X50787Y-43701
X50787Y-44094
X50787Y-47244
X50984Y-38878
X50984Y-39173
X51063Y-40079
X51181Y-42520
X51181Y-42913
X51181Y-43307
X51181Y-43701
X51181Y-44094
X51181Y-48031
X51220Y-30846
X51220Y-33189
X51220Y-35571
X51555Y-41417
X51575Y-44094
X51614Y-30433
X51614Y-32795
X51614Y-35157
X51969Y-29134
X51969Y-44094
X52126Y-40669
X52126Y-41161
X52362Y-32677
X52362Y-35039
X52362Y-44094
X52362Y-44882
X52362Y-46457
X53091Y-42106
X53386Y-39803
X53445Y-39252
X53799Y-41220
X53937Y-29134
X53937Y-29921
X53957Y-33287
X54094Y-38622
X54114Y-37205
X54173Y-35610
X54173Y-39803
X54193Y-40236
X54193Y-40827
X54331Y-31102
X54409Y-31732
X54665Y-39961
X54685Y-36142
X54685Y-38622
X54695Y-37205
X54724Y-30315
X54724Y-33819
X54744Y-32146
X54783Y-39272
X54803Y-31319
X54902Y-35728
X54931Y-34429
X54980Y-38917
X54980Y-39606
X55098Y-38228
X55118Y-37205
X55118Y-37598
X55118Y-41339
X55177Y-30965
X55217Y-36673
X55236Y-31378
X55374Y-34508
X55512Y-30650
X55512Y-37205
X55512Y-37598
X55650Y-31378
X55728Y-36673
X55817Y-33917
X55827Y-38563
X55906Y-29134
X56083Y-36260
X56201Y-33661
X56417Y-33996
X56467Y-33366
X56565Y-37047
X56575Y-37461
X56614Y-38543
X56654Y-30650
X56654Y-31319
X56693Y-40157
X56693Y-41339
X56988Y-30965
X57087Y-37795
X57480Y-29921
X57480Y-40157
X57480Y-41339
X57697Y-32539
X57697Y-33661
X57697Y-34764
X57874Y-29134
X58051Y-33071
X58051Y-34173
X58051Y-35276
X58150Y-42008
X58150Y-43091
X58150Y-44862
X58150Y-45945
X58189Y-38543
X58362Y-30154
X58398Y-36146
X58661Y-37795
X58720Y-29350
X58976Y-38563
X59055Y-32638
X59055Y-40551
X59055Y-48031
X59075Y-42559
X59075Y-45394
X59213Y-30984
X59232Y-29252
X59449Y-31890
X59606Y-33150
X59717Y-33965
X59754Y-29644
X59764Y-38543
X59843Y-44094
X59843Y-46457
X60094Y-32677
X60094Y-34252
X60236Y-36713
X60276Y-29252
X60433Y-38189
X60433Y-39764
X60433Y-41339
X60433Y-42126
X60630Y-31102
X60630Y-45276
X60807Y-37047
X60827Y-36437
X61016Y-31878
X61024Y-48031
X61240Y-42913
X61280Y-29252
X61398Y-33268
X61417Y-34646
X61417Y-35433
X61417Y-36220
X61417Y-37008
X61417Y-37795
X61417Y-38583
X61417Y-39370
X61417Y-40157
X61417Y-40945
X61417Y-44094
X61803Y-31091
X61811Y-41732
X61811Y-46457
X61988Y-34724
X61988Y-35315
X62028Y-43701
X62067Y-36319
X62087Y-40846
X62205Y-32283
X62205Y-45276
X62382Y-34331
X62382Y-35728
X62598Y-38583
X62598Y-42520
X62707Y-29872
X62795Y-36890
X62795Y-40276
X62795Y-41417
X62795Y-44370
X62992Y-48031
X63011Y-34326
X63012Y-35728
X63150Y-42579
X63268Y-29252
X63276Y-30768
X63366Y-43366
X63386Y-32283
X63386Y-44882
X63406Y-31496
X63406Y-31870
X63504Y-40846
X63583Y-35315
X63583Y-35728
X63583Y-42972
X63780Y-46457
X63917Y-43000
X64063Y-30768
X64094Y-42244
X64173Y-45669
X64232Y-29252
X64232Y-32421
X64437Y-43944
X64469Y-33583
X64508Y-32421
X64547Y-32146
X64596Y-43691
X64803Y-31969
X64823Y-31634
X64862Y-43366
X64961Y-34350
X64961Y-37795
X64961Y-40157
X64961Y-48031
X64992Y-42815
X65054Y-33808
X65118Y-45512
X65276Y-33425
X65335Y-45098
X65354Y-46457
X65374Y-44764
X65453Y-43504
X65472Y-45925
X65551Y-33571
X65602Y-32915
X65650Y-44705
X65659Y-30108
X65748Y-31496
X65748Y-31890
X65748Y-37008
X65748Y-39370
X65945Y-34902
X66004Y-34154
X66201Y-29252
X66339Y-34173
X66339Y-41437
X66339Y-41850
X66398Y-36319
X66516Y-45295
X66516Y-45728
X66535Y-31102
X66535Y-33799
X66752Y-34587
X66909Y-41437
X66909Y-42795
X66929Y-48031
X67126Y-32776
X67126Y-35728
X67126Y-36870
X67185Y-29252
X67323Y-31102
X67323Y-40157
X67539Y-33169
X67539Y-41437
X67539Y-42835
X67717Y-31890
X67717Y-35039
X67717Y-44882
X67717Y-46457
X67854Y-36319
X67933Y-41850
X67933Y-42441
X68110Y-31102
X68110Y-45276
X68268Y-29252
X68524Y-43898
X68898Y-29134
X68898Y-31102
X68898Y-31890
X68898Y-32677
X68898Y-33465
X68898Y-34252
X68898Y-35039
X68898Y-35827
X68898Y-36614
X68898Y-37402
X68898Y-38189
X68898Y-38976
X68898Y-39764
X68898Y-40551
X68898Y-41339
X68898Y-42126
X68898Y-42913
X68898Y-43701
X68898Y-44488
X68898Y-46850
X68898Y-48031
T2
X63976Y-37598
X63976Y-39567
T3
X53189Y-29882
X53189Y-30882
X53189Y-31882
X53189Y-32882
X53189Y-33882
X53189Y-34882
X56614Y-47559
X57614Y-47559
X66890Y-38071
X66890Y-39071
T4
X51535Y-45709
X52717Y-47559
X53898Y-45709
T0
M30
