%TF.GenerationSoftware,KiCad,Pcbnew,(5.1.6)-1*%
%TF.CreationDate,2021-07-30T18:26:22-07:00*%
%TF.ProjectId,Coil Driver,436f696c-2044-4726-9976-65722e6b6963,rev?*%
%TF.SameCoordinates,Original*%
%TF.FileFunction,Soldermask,Top*%
%TF.FilePolarity,Negative*%
%FSLAX46Y46*%
G04 Gerber Fmt 4.6, Leading zero omitted, Abs format (unit mm)*
G04 Created by KiCad (PCBNEW (5.1.6)-1) date 2021-07-30 18:26:22*
%MOMM*%
%LPD*%
G01*
G04 APERTURE LIST*
%ADD10O,1.800000X1.800000*%
%ADD11R,1.800000X1.800000*%
%ADD12R,2.100000X2.500000*%
%ADD13R,0.700000X0.400000*%
%ADD14R,1.750000X2.700000*%
%ADD15R,1.160000X0.750000*%
%ADD16R,1.650000X1.100000*%
%ADD17R,1.000000X0.900000*%
%ADD18C,0.100000*%
%ADD19C,1.090600*%
%ADD20C,0.887400*%
%ADD21C,2.700000*%
%ADD22R,2.700000X2.700000*%
%ADD23R,1.780000X3.250000*%
%ADD24R,2.600000X1.900000*%
%ADD25R,1.300000X1.000000*%
%ADD26C,1.700000*%
G04 APERTURE END LIST*
D10*
%TO.C,L2*%
X169900000Y-99240000D03*
D11*
X169900000Y-96700000D03*
%TD*%
%TO.C,R27*%
G36*
G01*
X145412500Y-86518750D02*
X145412500Y-87081250D01*
G75*
G02*
X145168750Y-87325000I-243750J0D01*
G01*
X144681250Y-87325000D01*
G75*
G02*
X144437500Y-87081250I0J243750D01*
G01*
X144437500Y-86518750D01*
G75*
G02*
X144681250Y-86275000I243750J0D01*
G01*
X145168750Y-86275000D01*
G75*
G02*
X145412500Y-86518750I0J-243750D01*
G01*
G37*
G36*
G01*
X146987500Y-86518750D02*
X146987500Y-87081250D01*
G75*
G02*
X146743750Y-87325000I-243750J0D01*
G01*
X146256250Y-87325000D01*
G75*
G02*
X146012500Y-87081250I0J243750D01*
G01*
X146012500Y-86518750D01*
G75*
G02*
X146256250Y-86275000I243750J0D01*
G01*
X146743750Y-86275000D01*
G75*
G02*
X146987500Y-86518750I0J-243750D01*
G01*
G37*
%TD*%
%TO.C,C8*%
G36*
G01*
X162860000Y-86152500D02*
X162860000Y-86547500D01*
G75*
G02*
X162687500Y-86720000I-172500J0D01*
G01*
X162342500Y-86720000D01*
G75*
G02*
X162170000Y-86547500I0J172500D01*
G01*
X162170000Y-86152500D01*
G75*
G02*
X162342500Y-85980000I172500J0D01*
G01*
X162687500Y-85980000D01*
G75*
G02*
X162860000Y-86152500I0J-172500D01*
G01*
G37*
G36*
G01*
X163830000Y-86152500D02*
X163830000Y-86547500D01*
G75*
G02*
X163657500Y-86720000I-172500J0D01*
G01*
X163312500Y-86720000D01*
G75*
G02*
X163140000Y-86547500I0J172500D01*
G01*
X163140000Y-86152500D01*
G75*
G02*
X163312500Y-85980000I172500J0D01*
G01*
X163657500Y-85980000D01*
G75*
G02*
X163830000Y-86152500I0J-172500D01*
G01*
G37*
%TD*%
%TO.C,C7*%
G36*
G01*
X131397500Y-99760000D02*
X131002500Y-99760000D01*
G75*
G02*
X130830000Y-99587500I0J172500D01*
G01*
X130830000Y-99242500D01*
G75*
G02*
X131002500Y-99070000I172500J0D01*
G01*
X131397500Y-99070000D01*
G75*
G02*
X131570000Y-99242500I0J-172500D01*
G01*
X131570000Y-99587500D01*
G75*
G02*
X131397500Y-99760000I-172500J0D01*
G01*
G37*
G36*
G01*
X131397500Y-100730000D02*
X131002500Y-100730000D01*
G75*
G02*
X130830000Y-100557500I0J172500D01*
G01*
X130830000Y-100212500D01*
G75*
G02*
X131002500Y-100040000I172500J0D01*
G01*
X131397500Y-100040000D01*
G75*
G02*
X131570000Y-100212500I0J-172500D01*
G01*
X131570000Y-100557500D01*
G75*
G02*
X131397500Y-100730000I-172500J0D01*
G01*
G37*
%TD*%
%TO.C,C6*%
G36*
G01*
X167210000Y-114152500D02*
X167210000Y-114547500D01*
G75*
G02*
X167037500Y-114720000I-172500J0D01*
G01*
X166692500Y-114720000D01*
G75*
G02*
X166520000Y-114547500I0J172500D01*
G01*
X166520000Y-114152500D01*
G75*
G02*
X166692500Y-113980000I172500J0D01*
G01*
X167037500Y-113980000D01*
G75*
G02*
X167210000Y-114152500I0J-172500D01*
G01*
G37*
G36*
G01*
X168180000Y-114152500D02*
X168180000Y-114547500D01*
G75*
G02*
X168007500Y-114720000I-172500J0D01*
G01*
X167662500Y-114720000D01*
G75*
G02*
X167490000Y-114547500I0J172500D01*
G01*
X167490000Y-114152500D01*
G75*
G02*
X167662500Y-113980000I172500J0D01*
G01*
X168007500Y-113980000D01*
G75*
G02*
X168180000Y-114152500I0J-172500D01*
G01*
G37*
%TD*%
%TO.C,R18*%
G36*
G01*
X169981250Y-111112500D02*
X169018750Y-111112500D01*
G75*
G02*
X168750000Y-110843750I0J268750D01*
G01*
X168750000Y-110306250D01*
G75*
G02*
X169018750Y-110037500I268750J0D01*
G01*
X169981250Y-110037500D01*
G75*
G02*
X170250000Y-110306250I0J-268750D01*
G01*
X170250000Y-110843750D01*
G75*
G02*
X169981250Y-111112500I-268750J0D01*
G01*
G37*
G36*
G01*
X169981250Y-112987500D02*
X169018750Y-112987500D01*
G75*
G02*
X168750000Y-112718750I0J268750D01*
G01*
X168750000Y-112181250D01*
G75*
G02*
X169018750Y-111912500I268750J0D01*
G01*
X169981250Y-111912500D01*
G75*
G02*
X170250000Y-112181250I0J-268750D01*
G01*
X170250000Y-112718750D01*
G75*
G02*
X169981250Y-112987500I-268750J0D01*
G01*
G37*
%TD*%
%TO.C,R3*%
G36*
G01*
X160018750Y-84887500D02*
X160981250Y-84887500D01*
G75*
G02*
X161250000Y-85156250I0J-268750D01*
G01*
X161250000Y-85693750D01*
G75*
G02*
X160981250Y-85962500I-268750J0D01*
G01*
X160018750Y-85962500D01*
G75*
G02*
X159750000Y-85693750I0J268750D01*
G01*
X159750000Y-85156250D01*
G75*
G02*
X160018750Y-84887500I268750J0D01*
G01*
G37*
G36*
G01*
X160018750Y-83012500D02*
X160981250Y-83012500D01*
G75*
G02*
X161250000Y-83281250I0J-268750D01*
G01*
X161250000Y-83818750D01*
G75*
G02*
X160981250Y-84087500I-268750J0D01*
G01*
X160018750Y-84087500D01*
G75*
G02*
X159750000Y-83818750I0J268750D01*
G01*
X159750000Y-83281250D01*
G75*
G02*
X160018750Y-83012500I268750J0D01*
G01*
G37*
%TD*%
D12*
%TO.C,Y1*%
X144300000Y-76150000D03*
X140600000Y-76150000D03*
%TD*%
%TO.C,R29*%
G36*
G01*
X129600000Y-89581250D02*
X129600000Y-89018750D01*
G75*
G02*
X129843750Y-88775000I243750J0D01*
G01*
X130331250Y-88775000D01*
G75*
G02*
X130575000Y-89018750I0J-243750D01*
G01*
X130575000Y-89581250D01*
G75*
G02*
X130331250Y-89825000I-243750J0D01*
G01*
X129843750Y-89825000D01*
G75*
G02*
X129600000Y-89581250I0J243750D01*
G01*
G37*
G36*
G01*
X128025000Y-89581250D02*
X128025000Y-89018750D01*
G75*
G02*
X128268750Y-88775000I243750J0D01*
G01*
X128756250Y-88775000D01*
G75*
G02*
X129000000Y-89018750I0J-243750D01*
G01*
X129000000Y-89581250D01*
G75*
G02*
X128756250Y-89825000I-243750J0D01*
G01*
X128268750Y-89825000D01*
G75*
G02*
X128025000Y-89581250I0J243750D01*
G01*
G37*
%TD*%
%TO.C,R26*%
G36*
G01*
X129600000Y-83581250D02*
X129600000Y-83018750D01*
G75*
G02*
X129843750Y-82775000I243750J0D01*
G01*
X130331250Y-82775000D01*
G75*
G02*
X130575000Y-83018750I0J-243750D01*
G01*
X130575000Y-83581250D01*
G75*
G02*
X130331250Y-83825000I-243750J0D01*
G01*
X129843750Y-83825000D01*
G75*
G02*
X129600000Y-83581250I0J243750D01*
G01*
G37*
G36*
G01*
X128025000Y-83581250D02*
X128025000Y-83018750D01*
G75*
G02*
X128268750Y-82775000I243750J0D01*
G01*
X128756250Y-82775000D01*
G75*
G02*
X129000000Y-83018750I0J-243750D01*
G01*
X129000000Y-83581250D01*
G75*
G02*
X128756250Y-83825000I-243750J0D01*
G01*
X128268750Y-83825000D01*
G75*
G02*
X128025000Y-83581250I0J243750D01*
G01*
G37*
%TD*%
%TO.C,R25*%
G36*
G01*
X129600000Y-77581250D02*
X129600000Y-77018750D01*
G75*
G02*
X129843750Y-76775000I243750J0D01*
G01*
X130331250Y-76775000D01*
G75*
G02*
X130575000Y-77018750I0J-243750D01*
G01*
X130575000Y-77581250D01*
G75*
G02*
X130331250Y-77825000I-243750J0D01*
G01*
X129843750Y-77825000D01*
G75*
G02*
X129600000Y-77581250I0J243750D01*
G01*
G37*
G36*
G01*
X128025000Y-77581250D02*
X128025000Y-77018750D01*
G75*
G02*
X128268750Y-76775000I243750J0D01*
G01*
X128756250Y-76775000D01*
G75*
G02*
X129000000Y-77018750I0J-243750D01*
G01*
X129000000Y-77581250D01*
G75*
G02*
X128756250Y-77825000I-243750J0D01*
G01*
X128268750Y-77825000D01*
G75*
G02*
X128025000Y-77581250I0J243750D01*
G01*
G37*
%TD*%
%TO.C,R12*%
G36*
G01*
X144081250Y-99387500D02*
X143518750Y-99387500D01*
G75*
G02*
X143275000Y-99143750I0J243750D01*
G01*
X143275000Y-98656250D01*
G75*
G02*
X143518750Y-98412500I243750J0D01*
G01*
X144081250Y-98412500D01*
G75*
G02*
X144325000Y-98656250I0J-243750D01*
G01*
X144325000Y-99143750D01*
G75*
G02*
X144081250Y-99387500I-243750J0D01*
G01*
G37*
G36*
G01*
X144081250Y-100962500D02*
X143518750Y-100962500D01*
G75*
G02*
X143275000Y-100718750I0J243750D01*
G01*
X143275000Y-100231250D01*
G75*
G02*
X143518750Y-99987500I243750J0D01*
G01*
X144081250Y-99987500D01*
G75*
G02*
X144325000Y-100231250I0J-243750D01*
G01*
X144325000Y-100718750D01*
G75*
G02*
X144081250Y-100962500I-243750J0D01*
G01*
G37*
%TD*%
%TO.C,R11*%
G36*
G01*
X148081250Y-99400000D02*
X147518750Y-99400000D01*
G75*
G02*
X147275000Y-99156250I0J243750D01*
G01*
X147275000Y-98668750D01*
G75*
G02*
X147518750Y-98425000I243750J0D01*
G01*
X148081250Y-98425000D01*
G75*
G02*
X148325000Y-98668750I0J-243750D01*
G01*
X148325000Y-99156250D01*
G75*
G02*
X148081250Y-99400000I-243750J0D01*
G01*
G37*
G36*
G01*
X148081250Y-100975000D02*
X147518750Y-100975000D01*
G75*
G02*
X147275000Y-100731250I0J243750D01*
G01*
X147275000Y-100243750D01*
G75*
G02*
X147518750Y-100000000I243750J0D01*
G01*
X148081250Y-100000000D01*
G75*
G02*
X148325000Y-100243750I0J-243750D01*
G01*
X148325000Y-100731250D01*
G75*
G02*
X148081250Y-100975000I-243750J0D01*
G01*
G37*
%TD*%
%TO.C,R10*%
G36*
G01*
X152081250Y-99400000D02*
X151518750Y-99400000D01*
G75*
G02*
X151275000Y-99156250I0J243750D01*
G01*
X151275000Y-98668750D01*
G75*
G02*
X151518750Y-98425000I243750J0D01*
G01*
X152081250Y-98425000D01*
G75*
G02*
X152325000Y-98668750I0J-243750D01*
G01*
X152325000Y-99156250D01*
G75*
G02*
X152081250Y-99400000I-243750J0D01*
G01*
G37*
G36*
G01*
X152081250Y-100975000D02*
X151518750Y-100975000D01*
G75*
G02*
X151275000Y-100731250I0J243750D01*
G01*
X151275000Y-100243750D01*
G75*
G02*
X151518750Y-100000000I243750J0D01*
G01*
X152081250Y-100000000D01*
G75*
G02*
X152325000Y-100243750I0J-243750D01*
G01*
X152325000Y-100731250D01*
G75*
G02*
X152081250Y-100975000I-243750J0D01*
G01*
G37*
%TD*%
%TO.C,D12*%
G36*
G01*
X129600000Y-87081250D02*
X129600000Y-86518750D01*
G75*
G02*
X129843750Y-86275000I243750J0D01*
G01*
X130331250Y-86275000D01*
G75*
G02*
X130575000Y-86518750I0J-243750D01*
G01*
X130575000Y-87081250D01*
G75*
G02*
X130331250Y-87325000I-243750J0D01*
G01*
X129843750Y-87325000D01*
G75*
G02*
X129600000Y-87081250I0J243750D01*
G01*
G37*
G36*
G01*
X128025000Y-87081250D02*
X128025000Y-86518750D01*
G75*
G02*
X128268750Y-86275000I243750J0D01*
G01*
X128756250Y-86275000D01*
G75*
G02*
X129000000Y-86518750I0J-243750D01*
G01*
X129000000Y-87081250D01*
G75*
G02*
X128756250Y-87325000I-243750J0D01*
G01*
X128268750Y-87325000D01*
G75*
G02*
X128025000Y-87081250I0J243750D01*
G01*
G37*
%TD*%
%TO.C,D11*%
G36*
G01*
X129600000Y-81081250D02*
X129600000Y-80518750D01*
G75*
G02*
X129843750Y-80275000I243750J0D01*
G01*
X130331250Y-80275000D01*
G75*
G02*
X130575000Y-80518750I0J-243750D01*
G01*
X130575000Y-81081250D01*
G75*
G02*
X130331250Y-81325000I-243750J0D01*
G01*
X129843750Y-81325000D01*
G75*
G02*
X129600000Y-81081250I0J243750D01*
G01*
G37*
G36*
G01*
X128025000Y-81081250D02*
X128025000Y-80518750D01*
G75*
G02*
X128268750Y-80275000I243750J0D01*
G01*
X128756250Y-80275000D01*
G75*
G02*
X129000000Y-80518750I0J-243750D01*
G01*
X129000000Y-81081250D01*
G75*
G02*
X128756250Y-81325000I-243750J0D01*
G01*
X128268750Y-81325000D01*
G75*
G02*
X128025000Y-81081250I0J243750D01*
G01*
G37*
%TD*%
%TO.C,D10*%
G36*
G01*
X129600000Y-75081250D02*
X129600000Y-74518750D01*
G75*
G02*
X129843750Y-74275000I243750J0D01*
G01*
X130331250Y-74275000D01*
G75*
G02*
X130575000Y-74518750I0J-243750D01*
G01*
X130575000Y-75081250D01*
G75*
G02*
X130331250Y-75325000I-243750J0D01*
G01*
X129843750Y-75325000D01*
G75*
G02*
X129600000Y-75081250I0J243750D01*
G01*
G37*
G36*
G01*
X128025000Y-75081250D02*
X128025000Y-74518750D01*
G75*
G02*
X128268750Y-74275000I243750J0D01*
G01*
X128756250Y-74275000D01*
G75*
G02*
X129000000Y-74518750I0J-243750D01*
G01*
X129000000Y-75081250D01*
G75*
G02*
X128756250Y-75325000I-243750J0D01*
G01*
X128268750Y-75325000D01*
G75*
G02*
X128025000Y-75081250I0J243750D01*
G01*
G37*
%TD*%
%TO.C,D7*%
G36*
G01*
X142081250Y-99400000D02*
X141518750Y-99400000D01*
G75*
G02*
X141275000Y-99156250I0J243750D01*
G01*
X141275000Y-98668750D01*
G75*
G02*
X141518750Y-98425000I243750J0D01*
G01*
X142081250Y-98425000D01*
G75*
G02*
X142325000Y-98668750I0J-243750D01*
G01*
X142325000Y-99156250D01*
G75*
G02*
X142081250Y-99400000I-243750J0D01*
G01*
G37*
G36*
G01*
X142081250Y-100975000D02*
X141518750Y-100975000D01*
G75*
G02*
X141275000Y-100731250I0J243750D01*
G01*
X141275000Y-100243750D01*
G75*
G02*
X141518750Y-100000000I243750J0D01*
G01*
X142081250Y-100000000D01*
G75*
G02*
X142325000Y-100243750I0J-243750D01*
G01*
X142325000Y-100731250D01*
G75*
G02*
X142081250Y-100975000I-243750J0D01*
G01*
G37*
%TD*%
%TO.C,D6*%
G36*
G01*
X146081250Y-99400000D02*
X145518750Y-99400000D01*
G75*
G02*
X145275000Y-99156250I0J243750D01*
G01*
X145275000Y-98668750D01*
G75*
G02*
X145518750Y-98425000I243750J0D01*
G01*
X146081250Y-98425000D01*
G75*
G02*
X146325000Y-98668750I0J-243750D01*
G01*
X146325000Y-99156250D01*
G75*
G02*
X146081250Y-99400000I-243750J0D01*
G01*
G37*
G36*
G01*
X146081250Y-100975000D02*
X145518750Y-100975000D01*
G75*
G02*
X145275000Y-100731250I0J243750D01*
G01*
X145275000Y-100243750D01*
G75*
G02*
X145518750Y-100000000I243750J0D01*
G01*
X146081250Y-100000000D01*
G75*
G02*
X146325000Y-100243750I0J-243750D01*
G01*
X146325000Y-100731250D01*
G75*
G02*
X146081250Y-100975000I-243750J0D01*
G01*
G37*
%TD*%
%TO.C,D3*%
G36*
G01*
X150081250Y-99400000D02*
X149518750Y-99400000D01*
G75*
G02*
X149275000Y-99156250I0J243750D01*
G01*
X149275000Y-98668750D01*
G75*
G02*
X149518750Y-98425000I243750J0D01*
G01*
X150081250Y-98425000D01*
G75*
G02*
X150325000Y-98668750I0J-243750D01*
G01*
X150325000Y-99156250D01*
G75*
G02*
X150081250Y-99400000I-243750J0D01*
G01*
G37*
G36*
G01*
X150081250Y-100975000D02*
X149518750Y-100975000D01*
G75*
G02*
X149275000Y-100731250I0J243750D01*
G01*
X149275000Y-100243750D01*
G75*
G02*
X149518750Y-100000000I243750J0D01*
G01*
X150081250Y-100000000D01*
G75*
G02*
X150325000Y-100243750I0J-243750D01*
G01*
X150325000Y-100731250D01*
G75*
G02*
X150081250Y-100975000I-243750J0D01*
G01*
G37*
%TD*%
%TO.C,U4*%
G36*
G01*
X143300000Y-88375000D02*
X143550000Y-88375000D01*
G75*
G02*
X143675000Y-88500000I0J-125000D01*
G01*
X143675000Y-89825000D01*
G75*
G02*
X143550000Y-89950000I-125000J0D01*
G01*
X143300000Y-89950000D01*
G75*
G02*
X143175000Y-89825000I0J125000D01*
G01*
X143175000Y-88500000D01*
G75*
G02*
X143300000Y-88375000I125000J0D01*
G01*
G37*
G36*
G01*
X142650000Y-88375000D02*
X142900000Y-88375000D01*
G75*
G02*
X143025000Y-88500000I0J-125000D01*
G01*
X143025000Y-89825000D01*
G75*
G02*
X142900000Y-89950000I-125000J0D01*
G01*
X142650000Y-89950000D01*
G75*
G02*
X142525000Y-89825000I0J125000D01*
G01*
X142525000Y-88500000D01*
G75*
G02*
X142650000Y-88375000I125000J0D01*
G01*
G37*
G36*
G01*
X142000000Y-88375000D02*
X142250000Y-88375000D01*
G75*
G02*
X142375000Y-88500000I0J-125000D01*
G01*
X142375000Y-89825000D01*
G75*
G02*
X142250000Y-89950000I-125000J0D01*
G01*
X142000000Y-89950000D01*
G75*
G02*
X141875000Y-89825000I0J125000D01*
G01*
X141875000Y-88500000D01*
G75*
G02*
X142000000Y-88375000I125000J0D01*
G01*
G37*
G36*
G01*
X141350000Y-88375000D02*
X141600000Y-88375000D01*
G75*
G02*
X141725000Y-88500000I0J-125000D01*
G01*
X141725000Y-89825000D01*
G75*
G02*
X141600000Y-89950000I-125000J0D01*
G01*
X141350000Y-89950000D01*
G75*
G02*
X141225000Y-89825000I0J125000D01*
G01*
X141225000Y-88500000D01*
G75*
G02*
X141350000Y-88375000I125000J0D01*
G01*
G37*
G36*
G01*
X140700000Y-88375000D02*
X140950000Y-88375000D01*
G75*
G02*
X141075000Y-88500000I0J-125000D01*
G01*
X141075000Y-89825000D01*
G75*
G02*
X140950000Y-89950000I-125000J0D01*
G01*
X140700000Y-89950000D01*
G75*
G02*
X140575000Y-89825000I0J125000D01*
G01*
X140575000Y-88500000D01*
G75*
G02*
X140700000Y-88375000I125000J0D01*
G01*
G37*
G36*
G01*
X140050000Y-88375000D02*
X140300000Y-88375000D01*
G75*
G02*
X140425000Y-88500000I0J-125000D01*
G01*
X140425000Y-89825000D01*
G75*
G02*
X140300000Y-89950000I-125000J0D01*
G01*
X140050000Y-89950000D01*
G75*
G02*
X139925000Y-89825000I0J125000D01*
G01*
X139925000Y-88500000D01*
G75*
G02*
X140050000Y-88375000I125000J0D01*
G01*
G37*
G36*
G01*
X139400000Y-88375000D02*
X139650000Y-88375000D01*
G75*
G02*
X139775000Y-88500000I0J-125000D01*
G01*
X139775000Y-89825000D01*
G75*
G02*
X139650000Y-89950000I-125000J0D01*
G01*
X139400000Y-89950000D01*
G75*
G02*
X139275000Y-89825000I0J125000D01*
G01*
X139275000Y-88500000D01*
G75*
G02*
X139400000Y-88375000I125000J0D01*
G01*
G37*
G36*
G01*
X138750000Y-88375000D02*
X139000000Y-88375000D01*
G75*
G02*
X139125000Y-88500000I0J-125000D01*
G01*
X139125000Y-89825000D01*
G75*
G02*
X139000000Y-89950000I-125000J0D01*
G01*
X138750000Y-89950000D01*
G75*
G02*
X138625000Y-89825000I0J125000D01*
G01*
X138625000Y-88500000D01*
G75*
G02*
X138750000Y-88375000I125000J0D01*
G01*
G37*
G36*
G01*
X138100000Y-88375000D02*
X138350000Y-88375000D01*
G75*
G02*
X138475000Y-88500000I0J-125000D01*
G01*
X138475000Y-89825000D01*
G75*
G02*
X138350000Y-89950000I-125000J0D01*
G01*
X138100000Y-89950000D01*
G75*
G02*
X137975000Y-89825000I0J125000D01*
G01*
X137975000Y-88500000D01*
G75*
G02*
X138100000Y-88375000I125000J0D01*
G01*
G37*
G36*
G01*
X137450000Y-88375000D02*
X137700000Y-88375000D01*
G75*
G02*
X137825000Y-88500000I0J-125000D01*
G01*
X137825000Y-89825000D01*
G75*
G02*
X137700000Y-89950000I-125000J0D01*
G01*
X137450000Y-89950000D01*
G75*
G02*
X137325000Y-89825000I0J125000D01*
G01*
X137325000Y-88500000D01*
G75*
G02*
X137450000Y-88375000I125000J0D01*
G01*
G37*
G36*
G01*
X137450000Y-82650000D02*
X137700000Y-82650000D01*
G75*
G02*
X137825000Y-82775000I0J-125000D01*
G01*
X137825000Y-84100000D01*
G75*
G02*
X137700000Y-84225000I-125000J0D01*
G01*
X137450000Y-84225000D01*
G75*
G02*
X137325000Y-84100000I0J125000D01*
G01*
X137325000Y-82775000D01*
G75*
G02*
X137450000Y-82650000I125000J0D01*
G01*
G37*
G36*
G01*
X138100000Y-82650000D02*
X138350000Y-82650000D01*
G75*
G02*
X138475000Y-82775000I0J-125000D01*
G01*
X138475000Y-84100000D01*
G75*
G02*
X138350000Y-84225000I-125000J0D01*
G01*
X138100000Y-84225000D01*
G75*
G02*
X137975000Y-84100000I0J125000D01*
G01*
X137975000Y-82775000D01*
G75*
G02*
X138100000Y-82650000I125000J0D01*
G01*
G37*
G36*
G01*
X138750000Y-82650000D02*
X139000000Y-82650000D01*
G75*
G02*
X139125000Y-82775000I0J-125000D01*
G01*
X139125000Y-84100000D01*
G75*
G02*
X139000000Y-84225000I-125000J0D01*
G01*
X138750000Y-84225000D01*
G75*
G02*
X138625000Y-84100000I0J125000D01*
G01*
X138625000Y-82775000D01*
G75*
G02*
X138750000Y-82650000I125000J0D01*
G01*
G37*
G36*
G01*
X139400000Y-82650000D02*
X139650000Y-82650000D01*
G75*
G02*
X139775000Y-82775000I0J-125000D01*
G01*
X139775000Y-84100000D01*
G75*
G02*
X139650000Y-84225000I-125000J0D01*
G01*
X139400000Y-84225000D01*
G75*
G02*
X139275000Y-84100000I0J125000D01*
G01*
X139275000Y-82775000D01*
G75*
G02*
X139400000Y-82650000I125000J0D01*
G01*
G37*
G36*
G01*
X140050000Y-82650000D02*
X140300000Y-82650000D01*
G75*
G02*
X140425000Y-82775000I0J-125000D01*
G01*
X140425000Y-84100000D01*
G75*
G02*
X140300000Y-84225000I-125000J0D01*
G01*
X140050000Y-84225000D01*
G75*
G02*
X139925000Y-84100000I0J125000D01*
G01*
X139925000Y-82775000D01*
G75*
G02*
X140050000Y-82650000I125000J0D01*
G01*
G37*
G36*
G01*
X140700000Y-82650000D02*
X140950000Y-82650000D01*
G75*
G02*
X141075000Y-82775000I0J-125000D01*
G01*
X141075000Y-84100000D01*
G75*
G02*
X140950000Y-84225000I-125000J0D01*
G01*
X140700000Y-84225000D01*
G75*
G02*
X140575000Y-84100000I0J125000D01*
G01*
X140575000Y-82775000D01*
G75*
G02*
X140700000Y-82650000I125000J0D01*
G01*
G37*
G36*
G01*
X141350000Y-82650000D02*
X141600000Y-82650000D01*
G75*
G02*
X141725000Y-82775000I0J-125000D01*
G01*
X141725000Y-84100000D01*
G75*
G02*
X141600000Y-84225000I-125000J0D01*
G01*
X141350000Y-84225000D01*
G75*
G02*
X141225000Y-84100000I0J125000D01*
G01*
X141225000Y-82775000D01*
G75*
G02*
X141350000Y-82650000I125000J0D01*
G01*
G37*
G36*
G01*
X142000000Y-82650000D02*
X142250000Y-82650000D01*
G75*
G02*
X142375000Y-82775000I0J-125000D01*
G01*
X142375000Y-84100000D01*
G75*
G02*
X142250000Y-84225000I-125000J0D01*
G01*
X142000000Y-84225000D01*
G75*
G02*
X141875000Y-84100000I0J125000D01*
G01*
X141875000Y-82775000D01*
G75*
G02*
X142000000Y-82650000I125000J0D01*
G01*
G37*
G36*
G01*
X142650000Y-82650000D02*
X142900000Y-82650000D01*
G75*
G02*
X143025000Y-82775000I0J-125000D01*
G01*
X143025000Y-84100000D01*
G75*
G02*
X142900000Y-84225000I-125000J0D01*
G01*
X142650000Y-84225000D01*
G75*
G02*
X142525000Y-84100000I0J125000D01*
G01*
X142525000Y-82775000D01*
G75*
G02*
X142650000Y-82650000I125000J0D01*
G01*
G37*
G36*
G01*
X143300000Y-82650000D02*
X143550000Y-82650000D01*
G75*
G02*
X143675000Y-82775000I0J-125000D01*
G01*
X143675000Y-84100000D01*
G75*
G02*
X143550000Y-84225000I-125000J0D01*
G01*
X143300000Y-84225000D01*
G75*
G02*
X143175000Y-84100000I0J125000D01*
G01*
X143175000Y-82775000D01*
G75*
G02*
X143300000Y-82650000I125000J0D01*
G01*
G37*
%TD*%
D13*
%TO.C,U3*%
X165150000Y-113000000D03*
X165150000Y-112500000D03*
X165150000Y-112000000D03*
X165150000Y-111500000D03*
X165150000Y-111000000D03*
X167850000Y-111000000D03*
X167850000Y-111500000D03*
X167850000Y-112000000D03*
X167850000Y-112500000D03*
X167850000Y-113000000D03*
D14*
X166500000Y-112000000D03*
%TD*%
D15*
%TO.C,U2*%
X133500000Y-103300000D03*
X133500000Y-102350000D03*
X133500000Y-104250000D03*
X131300000Y-104250000D03*
X131300000Y-103300000D03*
X131300000Y-102350000D03*
%TD*%
D13*
%TO.C,U1*%
X164850000Y-83000000D03*
X164850000Y-83500000D03*
X164850000Y-84000000D03*
X164850000Y-84500000D03*
X164850000Y-85000000D03*
X162150000Y-85000000D03*
X162150000Y-84500000D03*
X162150000Y-84000000D03*
X162150000Y-83500000D03*
X162150000Y-83000000D03*
D14*
X163500000Y-84000000D03*
%TD*%
D16*
%TO.C,SW3*%
X157025000Y-77500000D03*
X151775000Y-77500000D03*
X157025000Y-74300000D03*
X151775000Y-74300000D03*
%TD*%
%TO.C,SW2*%
X164525000Y-77500000D03*
X159275000Y-77500000D03*
X164525000Y-74300000D03*
X159275000Y-74300000D03*
%TD*%
%TO.C,SW1*%
X172025000Y-77500000D03*
X166775000Y-77500000D03*
X172025000Y-74300000D03*
X166775000Y-74300000D03*
%TD*%
%TO.C,R28*%
G36*
G01*
X145387500Y-89318750D02*
X145387500Y-89881250D01*
G75*
G02*
X145143750Y-90125000I-243750J0D01*
G01*
X144656250Y-90125000D01*
G75*
G02*
X144412500Y-89881250I0J243750D01*
G01*
X144412500Y-89318750D01*
G75*
G02*
X144656250Y-89075000I243750J0D01*
G01*
X145143750Y-89075000D01*
G75*
G02*
X145387500Y-89318750I0J-243750D01*
G01*
G37*
G36*
G01*
X146962500Y-89318750D02*
X146962500Y-89881250D01*
G75*
G02*
X146718750Y-90125000I-243750J0D01*
G01*
X146231250Y-90125000D01*
G75*
G02*
X145987500Y-89881250I0J243750D01*
G01*
X145987500Y-89318750D01*
G75*
G02*
X146231250Y-89075000I243750J0D01*
G01*
X146718750Y-89075000D01*
G75*
G02*
X146962500Y-89318750I0J-243750D01*
G01*
G37*
%TD*%
%TO.C,R24*%
G36*
G01*
X145325000Y-93818750D02*
X145325000Y-94381250D01*
G75*
G02*
X145081250Y-94625000I-243750J0D01*
G01*
X144593750Y-94625000D01*
G75*
G02*
X144350000Y-94381250I0J243750D01*
G01*
X144350000Y-93818750D01*
G75*
G02*
X144593750Y-93575000I243750J0D01*
G01*
X145081250Y-93575000D01*
G75*
G02*
X145325000Y-93818750I0J-243750D01*
G01*
G37*
G36*
G01*
X146900000Y-93818750D02*
X146900000Y-94381250D01*
G75*
G02*
X146656250Y-94625000I-243750J0D01*
G01*
X146168750Y-94625000D01*
G75*
G02*
X145925000Y-94381250I0J243750D01*
G01*
X145925000Y-93818750D01*
G75*
G02*
X146168750Y-93575000I243750J0D01*
G01*
X146656250Y-93575000D01*
G75*
G02*
X146900000Y-93818750I0J-243750D01*
G01*
G37*
%TD*%
%TO.C,R23*%
G36*
G01*
X145325000Y-92268750D02*
X145325000Y-92831250D01*
G75*
G02*
X145081250Y-93075000I-243750J0D01*
G01*
X144593750Y-93075000D01*
G75*
G02*
X144350000Y-92831250I0J243750D01*
G01*
X144350000Y-92268750D01*
G75*
G02*
X144593750Y-92025000I243750J0D01*
G01*
X145081250Y-92025000D01*
G75*
G02*
X145325000Y-92268750I0J-243750D01*
G01*
G37*
G36*
G01*
X146900000Y-92268750D02*
X146900000Y-92831250D01*
G75*
G02*
X146656250Y-93075000I-243750J0D01*
G01*
X146168750Y-93075000D01*
G75*
G02*
X145925000Y-92831250I0J243750D01*
G01*
X145925000Y-92268750D01*
G75*
G02*
X146168750Y-92025000I243750J0D01*
G01*
X146656250Y-92025000D01*
G75*
G02*
X146900000Y-92268750I0J-243750D01*
G01*
G37*
%TD*%
%TO.C,R22*%
G36*
G01*
X159781250Y-110637500D02*
X159218750Y-110637500D01*
G75*
G02*
X158975000Y-110393750I0J243750D01*
G01*
X158975000Y-109906250D01*
G75*
G02*
X159218750Y-109662500I243750J0D01*
G01*
X159781250Y-109662500D01*
G75*
G02*
X160025000Y-109906250I0J-243750D01*
G01*
X160025000Y-110393750D01*
G75*
G02*
X159781250Y-110637500I-243750J0D01*
G01*
G37*
G36*
G01*
X159781250Y-112212500D02*
X159218750Y-112212500D01*
G75*
G02*
X158975000Y-111968750I0J243750D01*
G01*
X158975000Y-111481250D01*
G75*
G02*
X159218750Y-111237500I243750J0D01*
G01*
X159781250Y-111237500D01*
G75*
G02*
X160025000Y-111481250I0J-243750D01*
G01*
X160025000Y-111968750D01*
G75*
G02*
X159781250Y-112212500I-243750J0D01*
G01*
G37*
%TD*%
%TO.C,R21*%
G36*
G01*
X148050000Y-79318750D02*
X148050000Y-79881250D01*
G75*
G02*
X147806250Y-80125000I-243750J0D01*
G01*
X147318750Y-80125000D01*
G75*
G02*
X147075000Y-79881250I0J243750D01*
G01*
X147075000Y-79318750D01*
G75*
G02*
X147318750Y-79075000I243750J0D01*
G01*
X147806250Y-79075000D01*
G75*
G02*
X148050000Y-79318750I0J-243750D01*
G01*
G37*
G36*
G01*
X149625000Y-79318750D02*
X149625000Y-79881250D01*
G75*
G02*
X149381250Y-80125000I-243750J0D01*
G01*
X148893750Y-80125000D01*
G75*
G02*
X148650000Y-79881250I0J243750D01*
G01*
X148650000Y-79318750D01*
G75*
G02*
X148893750Y-79075000I243750J0D01*
G01*
X149381250Y-79075000D01*
G75*
G02*
X149625000Y-79318750I0J-243750D01*
G01*
G37*
%TD*%
%TO.C,R20*%
G36*
G01*
X148650000Y-77881250D02*
X148650000Y-77318750D01*
G75*
G02*
X148893750Y-77075000I243750J0D01*
G01*
X149381250Y-77075000D01*
G75*
G02*
X149625000Y-77318750I0J-243750D01*
G01*
X149625000Y-77881250D01*
G75*
G02*
X149381250Y-78125000I-243750J0D01*
G01*
X148893750Y-78125000D01*
G75*
G02*
X148650000Y-77881250I0J243750D01*
G01*
G37*
G36*
G01*
X147075000Y-77881250D02*
X147075000Y-77318750D01*
G75*
G02*
X147318750Y-77075000I243750J0D01*
G01*
X147806250Y-77075000D01*
G75*
G02*
X148050000Y-77318750I0J-243750D01*
G01*
X148050000Y-77881250D01*
G75*
G02*
X147806250Y-78125000I-243750J0D01*
G01*
X147318750Y-78125000D01*
G75*
G02*
X147075000Y-77881250I0J243750D01*
G01*
G37*
%TD*%
%TO.C,R19*%
G36*
G01*
X148050000Y-75318750D02*
X148050000Y-75881250D01*
G75*
G02*
X147806250Y-76125000I-243750J0D01*
G01*
X147318750Y-76125000D01*
G75*
G02*
X147075000Y-75881250I0J243750D01*
G01*
X147075000Y-75318750D01*
G75*
G02*
X147318750Y-75075000I243750J0D01*
G01*
X147806250Y-75075000D01*
G75*
G02*
X148050000Y-75318750I0J-243750D01*
G01*
G37*
G36*
G01*
X149625000Y-75318750D02*
X149625000Y-75881250D01*
G75*
G02*
X149381250Y-76125000I-243750J0D01*
G01*
X148893750Y-76125000D01*
G75*
G02*
X148650000Y-75881250I0J243750D01*
G01*
X148650000Y-75318750D01*
G75*
G02*
X148893750Y-75075000I243750J0D01*
G01*
X149381250Y-75075000D01*
G75*
G02*
X149625000Y-75318750I0J-243750D01*
G01*
G37*
%TD*%
%TO.C,R17*%
G36*
G01*
X162781250Y-111912500D02*
X162218750Y-111912500D01*
G75*
G02*
X161975000Y-111668750I0J243750D01*
G01*
X161975000Y-111181250D01*
G75*
G02*
X162218750Y-110937500I243750J0D01*
G01*
X162781250Y-110937500D01*
G75*
G02*
X163025000Y-111181250I0J-243750D01*
G01*
X163025000Y-111668750D01*
G75*
G02*
X162781250Y-111912500I-243750J0D01*
G01*
G37*
G36*
G01*
X162781250Y-113487500D02*
X162218750Y-113487500D01*
G75*
G02*
X161975000Y-113243750I0J243750D01*
G01*
X161975000Y-112756250D01*
G75*
G02*
X162218750Y-112512500I243750J0D01*
G01*
X162781250Y-112512500D01*
G75*
G02*
X163025000Y-112756250I0J-243750D01*
G01*
X163025000Y-113243750D01*
G75*
G02*
X162781250Y-113487500I-243750J0D01*
G01*
G37*
%TD*%
%TO.C,R16*%
G36*
G01*
X171531250Y-110412500D02*
X170968750Y-110412500D01*
G75*
G02*
X170725000Y-110168750I0J243750D01*
G01*
X170725000Y-109681250D01*
G75*
G02*
X170968750Y-109437500I243750J0D01*
G01*
X171531250Y-109437500D01*
G75*
G02*
X171775000Y-109681250I0J-243750D01*
G01*
X171775000Y-110168750D01*
G75*
G02*
X171531250Y-110412500I-243750J0D01*
G01*
G37*
G36*
G01*
X171531250Y-111987500D02*
X170968750Y-111987500D01*
G75*
G02*
X170725000Y-111743750I0J243750D01*
G01*
X170725000Y-111256250D01*
G75*
G02*
X170968750Y-111012500I243750J0D01*
G01*
X171531250Y-111012500D01*
G75*
G02*
X171775000Y-111256250I0J-243750D01*
G01*
X171775000Y-111743750D01*
G75*
G02*
X171531250Y-111987500I-243750J0D01*
G01*
G37*
%TD*%
%TO.C,R15*%
G36*
G01*
X145412500Y-83718750D02*
X145412500Y-84281250D01*
G75*
G02*
X145168750Y-84525000I-243750J0D01*
G01*
X144681250Y-84525000D01*
G75*
G02*
X144437500Y-84281250I0J243750D01*
G01*
X144437500Y-83718750D01*
G75*
G02*
X144681250Y-83475000I243750J0D01*
G01*
X145168750Y-83475000D01*
G75*
G02*
X145412500Y-83718750I0J-243750D01*
G01*
G37*
G36*
G01*
X146987500Y-83718750D02*
X146987500Y-84281250D01*
G75*
G02*
X146743750Y-84525000I-243750J0D01*
G01*
X146256250Y-84525000D01*
G75*
G02*
X146012500Y-84281250I0J243750D01*
G01*
X146012500Y-83718750D01*
G75*
G02*
X146256250Y-83475000I243750J0D01*
G01*
X146743750Y-83475000D01*
G75*
G02*
X146987500Y-83718750I0J-243750D01*
G01*
G37*
%TD*%
%TO.C,R14*%
G36*
G01*
X161218750Y-107687500D02*
X161781250Y-107687500D01*
G75*
G02*
X162025000Y-107931250I0J-243750D01*
G01*
X162025000Y-108418750D01*
G75*
G02*
X161781250Y-108662500I-243750J0D01*
G01*
X161218750Y-108662500D01*
G75*
G02*
X160975000Y-108418750I0J243750D01*
G01*
X160975000Y-107931250D01*
G75*
G02*
X161218750Y-107687500I243750J0D01*
G01*
G37*
G36*
G01*
X161218750Y-106112500D02*
X161781250Y-106112500D01*
G75*
G02*
X162025000Y-106356250I0J-243750D01*
G01*
X162025000Y-106843750D01*
G75*
G02*
X161781250Y-107087500I-243750J0D01*
G01*
X161218750Y-107087500D01*
G75*
G02*
X160975000Y-106843750I0J243750D01*
G01*
X160975000Y-106356250D01*
G75*
G02*
X161218750Y-106112500I243750J0D01*
G01*
G37*
%TD*%
%TO.C,R13*%
G36*
G01*
X172518750Y-111012500D02*
X173081250Y-111012500D01*
G75*
G02*
X173325000Y-111256250I0J-243750D01*
G01*
X173325000Y-111743750D01*
G75*
G02*
X173081250Y-111987500I-243750J0D01*
G01*
X172518750Y-111987500D01*
G75*
G02*
X172275000Y-111743750I0J243750D01*
G01*
X172275000Y-111256250D01*
G75*
G02*
X172518750Y-111012500I243750J0D01*
G01*
G37*
G36*
G01*
X172518750Y-109437500D02*
X173081250Y-109437500D01*
G75*
G02*
X173325000Y-109681250I0J-243750D01*
G01*
X173325000Y-110168750D01*
G75*
G02*
X173081250Y-110412500I-243750J0D01*
G01*
X172518750Y-110412500D01*
G75*
G02*
X172275000Y-110168750I0J243750D01*
G01*
X172275000Y-109681250D01*
G75*
G02*
X172518750Y-109437500I243750J0D01*
G01*
G37*
%TD*%
%TO.C,R9*%
G36*
G01*
X129981250Y-103300000D02*
X129418750Y-103300000D01*
G75*
G02*
X129175000Y-103056250I0J243750D01*
G01*
X129175000Y-102568750D01*
G75*
G02*
X129418750Y-102325000I243750J0D01*
G01*
X129981250Y-102325000D01*
G75*
G02*
X130225000Y-102568750I0J-243750D01*
G01*
X130225000Y-103056250D01*
G75*
G02*
X129981250Y-103300000I-243750J0D01*
G01*
G37*
G36*
G01*
X129981250Y-104875000D02*
X129418750Y-104875000D01*
G75*
G02*
X129175000Y-104631250I0J243750D01*
G01*
X129175000Y-104143750D01*
G75*
G02*
X129418750Y-103900000I243750J0D01*
G01*
X129981250Y-103900000D01*
G75*
G02*
X130225000Y-104143750I0J-243750D01*
G01*
X130225000Y-104631250D01*
G75*
G02*
X129981250Y-104875000I-243750J0D01*
G01*
G37*
%TD*%
%TO.C,R8*%
G36*
G01*
X127918750Y-103900000D02*
X128481250Y-103900000D01*
G75*
G02*
X128725000Y-104143750I0J-243750D01*
G01*
X128725000Y-104631250D01*
G75*
G02*
X128481250Y-104875000I-243750J0D01*
G01*
X127918750Y-104875000D01*
G75*
G02*
X127675000Y-104631250I0J243750D01*
G01*
X127675000Y-104143750D01*
G75*
G02*
X127918750Y-103900000I243750J0D01*
G01*
G37*
G36*
G01*
X127918750Y-102325000D02*
X128481250Y-102325000D01*
G75*
G02*
X128725000Y-102568750I0J-243750D01*
G01*
X128725000Y-103056250D01*
G75*
G02*
X128481250Y-103300000I-243750J0D01*
G01*
X127918750Y-103300000D01*
G75*
G02*
X127675000Y-103056250I0J243750D01*
G01*
X127675000Y-102568750D01*
G75*
G02*
X127918750Y-102325000I243750J0D01*
G01*
G37*
%TD*%
%TO.C,R7*%
G36*
G01*
X168781250Y-88312500D02*
X168218750Y-88312500D01*
G75*
G02*
X167975000Y-88068750I0J243750D01*
G01*
X167975000Y-87581250D01*
G75*
G02*
X168218750Y-87337500I243750J0D01*
G01*
X168781250Y-87337500D01*
G75*
G02*
X169025000Y-87581250I0J-243750D01*
G01*
X169025000Y-88068750D01*
G75*
G02*
X168781250Y-88312500I-243750J0D01*
G01*
G37*
G36*
G01*
X168781250Y-89887500D02*
X168218750Y-89887500D01*
G75*
G02*
X167975000Y-89643750I0J243750D01*
G01*
X167975000Y-89156250D01*
G75*
G02*
X168218750Y-88912500I243750J0D01*
G01*
X168781250Y-88912500D01*
G75*
G02*
X169025000Y-89156250I0J-243750D01*
G01*
X169025000Y-89643750D01*
G75*
G02*
X168781250Y-89887500I-243750J0D01*
G01*
G37*
%TD*%
%TO.C,R6*%
G36*
G01*
X157481250Y-84987500D02*
X156918750Y-84987500D01*
G75*
G02*
X156675000Y-84743750I0J243750D01*
G01*
X156675000Y-84256250D01*
G75*
G02*
X156918750Y-84012500I243750J0D01*
G01*
X157481250Y-84012500D01*
G75*
G02*
X157725000Y-84256250I0J-243750D01*
G01*
X157725000Y-84743750D01*
G75*
G02*
X157481250Y-84987500I-243750J0D01*
G01*
G37*
G36*
G01*
X157481250Y-86562500D02*
X156918750Y-86562500D01*
G75*
G02*
X156675000Y-86318750I0J243750D01*
G01*
X156675000Y-85831250D01*
G75*
G02*
X156918750Y-85587500I243750J0D01*
G01*
X157481250Y-85587500D01*
G75*
G02*
X157725000Y-85831250I0J-243750D01*
G01*
X157725000Y-86318750D01*
G75*
G02*
X157481250Y-86562500I-243750J0D01*
G01*
G37*
%TD*%
%TO.C,R5*%
G36*
G01*
X167218750Y-84087500D02*
X167781250Y-84087500D01*
G75*
G02*
X168025000Y-84331250I0J-243750D01*
G01*
X168025000Y-84818750D01*
G75*
G02*
X167781250Y-85062500I-243750J0D01*
G01*
X167218750Y-85062500D01*
G75*
G02*
X166975000Y-84818750I0J243750D01*
G01*
X166975000Y-84331250D01*
G75*
G02*
X167218750Y-84087500I243750J0D01*
G01*
G37*
G36*
G01*
X167218750Y-82512500D02*
X167781250Y-82512500D01*
G75*
G02*
X168025000Y-82756250I0J-243750D01*
G01*
X168025000Y-83243750D01*
G75*
G02*
X167781250Y-83487500I-243750J0D01*
G01*
X167218750Y-83487500D01*
G75*
G02*
X166975000Y-83243750I0J243750D01*
G01*
X166975000Y-82756250D01*
G75*
G02*
X167218750Y-82512500I243750J0D01*
G01*
G37*
%TD*%
%TO.C,R4*%
G36*
G01*
X158468750Y-85587500D02*
X159031250Y-85587500D01*
G75*
G02*
X159275000Y-85831250I0J-243750D01*
G01*
X159275000Y-86318750D01*
G75*
G02*
X159031250Y-86562500I-243750J0D01*
G01*
X158468750Y-86562500D01*
G75*
G02*
X158225000Y-86318750I0J243750D01*
G01*
X158225000Y-85831250D01*
G75*
G02*
X158468750Y-85587500I243750J0D01*
G01*
G37*
G36*
G01*
X158468750Y-84012500D02*
X159031250Y-84012500D01*
G75*
G02*
X159275000Y-84256250I0J-243750D01*
G01*
X159275000Y-84743750D01*
G75*
G02*
X159031250Y-84987500I-243750J0D01*
G01*
X158468750Y-84987500D01*
G75*
G02*
X158225000Y-84743750I0J243750D01*
G01*
X158225000Y-84256250D01*
G75*
G02*
X158468750Y-84012500I243750J0D01*
G01*
G37*
%TD*%
%TO.C,R2*%
G36*
G01*
X129250000Y-106181250D02*
X129250000Y-105618750D01*
G75*
G02*
X129493750Y-105375000I243750J0D01*
G01*
X129981250Y-105375000D01*
G75*
G02*
X130225000Y-105618750I0J-243750D01*
G01*
X130225000Y-106181250D01*
G75*
G02*
X129981250Y-106425000I-243750J0D01*
G01*
X129493750Y-106425000D01*
G75*
G02*
X129250000Y-106181250I0J243750D01*
G01*
G37*
G36*
G01*
X127675000Y-106181250D02*
X127675000Y-105618750D01*
G75*
G02*
X127918750Y-105375000I243750J0D01*
G01*
X128406250Y-105375000D01*
G75*
G02*
X128650000Y-105618750I0J-243750D01*
G01*
X128650000Y-106181250D01*
G75*
G02*
X128406250Y-106425000I-243750J0D01*
G01*
X127918750Y-106425000D01*
G75*
G02*
X127675000Y-106181250I0J243750D01*
G01*
G37*
%TD*%
%TO.C,R1*%
G36*
G01*
X170218750Y-85350000D02*
X170781250Y-85350000D01*
G75*
G02*
X171025000Y-85593750I0J-243750D01*
G01*
X171025000Y-86081250D01*
G75*
G02*
X170781250Y-86325000I-243750J0D01*
G01*
X170218750Y-86325000D01*
G75*
G02*
X169975000Y-86081250I0J243750D01*
G01*
X169975000Y-85593750D01*
G75*
G02*
X170218750Y-85350000I243750J0D01*
G01*
G37*
G36*
G01*
X170218750Y-83775000D02*
X170781250Y-83775000D01*
G75*
G02*
X171025000Y-84018750I0J-243750D01*
G01*
X171025000Y-84506250D01*
G75*
G02*
X170781250Y-84750000I-243750J0D01*
G01*
X170218750Y-84750000D01*
G75*
G02*
X169975000Y-84506250I0J243750D01*
G01*
X169975000Y-84018750D01*
G75*
G02*
X170218750Y-83775000I243750J0D01*
G01*
G37*
%TD*%
D17*
%TO.C,Q4*%
X165000000Y-107350000D03*
X163000000Y-108300000D03*
X163000000Y-106400000D03*
%TD*%
%TO.C,Q3*%
X168500000Y-107350000D03*
X166500000Y-108300000D03*
X166500000Y-106400000D03*
%TD*%
%TO.C,Q2*%
X165000000Y-88650000D03*
X167000000Y-87700000D03*
X167000000Y-89600000D03*
%TD*%
%TO.C,Q1*%
X161500000Y-88650000D03*
X163500000Y-87700000D03*
X163500000Y-89600000D03*
%TD*%
D18*
%TO.C,L1*%
G36*
X136159956Y-91686189D02*
G01*
X136162434Y-91686433D01*
X136181987Y-91690324D01*
X136184369Y-91691047D01*
X136202729Y-91698650D01*
X136204925Y-91699823D01*
X136221535Y-91710922D01*
X136223459Y-91712502D01*
X136237498Y-91726541D01*
X136239078Y-91728465D01*
X136250177Y-91745075D01*
X136251350Y-91747271D01*
X136258953Y-91765631D01*
X136259676Y-91768013D01*
X136263567Y-91787566D01*
X136263811Y-91790044D01*
X136264300Y-91800000D01*
X136264300Y-93800000D01*
X136263811Y-93809956D01*
X136263567Y-93812434D01*
X136259676Y-93831987D01*
X136258953Y-93834369D01*
X136251350Y-93852729D01*
X136250177Y-93854925D01*
X136239078Y-93871535D01*
X136237498Y-93873459D01*
X136223459Y-93887498D01*
X136221535Y-93889078D01*
X136204925Y-93900177D01*
X136202729Y-93901350D01*
X136184369Y-93908953D01*
X136181987Y-93909676D01*
X136162434Y-93913567D01*
X136159956Y-93913811D01*
X136150000Y-93914300D01*
X135150000Y-93914300D01*
X135140044Y-93913811D01*
X135137566Y-93913567D01*
X135118013Y-93909676D01*
X135115631Y-93908953D01*
X135097271Y-93901350D01*
X135095075Y-93900177D01*
X135078465Y-93889078D01*
X135076541Y-93887498D01*
X135062502Y-93873459D01*
X135060922Y-93871535D01*
X135051578Y-93858075D01*
X135050779Y-93856699D01*
X135047767Y-93851117D01*
X134906061Y-93567705D01*
X134435769Y-93097413D01*
X133972552Y-92912125D01*
X133500000Y-92864870D01*
X133027448Y-92912125D01*
X132564231Y-93097413D01*
X132093939Y-93567705D01*
X131952233Y-93851117D01*
X131947348Y-93859795D01*
X131946022Y-93861902D01*
X131933788Y-93877664D01*
X131932076Y-93879471D01*
X131917039Y-93892509D01*
X131915007Y-93893948D01*
X131897715Y-93903804D01*
X131895442Y-93904819D01*
X131876540Y-93911120D01*
X131874112Y-93911672D01*
X131857973Y-93913999D01*
X131856385Y-93914099D01*
X131850000Y-93914300D01*
X130850000Y-93914300D01*
X130840044Y-93913811D01*
X130837566Y-93913567D01*
X130818013Y-93909676D01*
X130815631Y-93908953D01*
X130797271Y-93901350D01*
X130795075Y-93900177D01*
X130778465Y-93889078D01*
X130776541Y-93887498D01*
X130762502Y-93873459D01*
X130760922Y-93871535D01*
X130749823Y-93854925D01*
X130748650Y-93852729D01*
X130741047Y-93834369D01*
X130740324Y-93831987D01*
X130736433Y-93812434D01*
X130736189Y-93809956D01*
X130735700Y-93800000D01*
X130735700Y-91800000D01*
X130736189Y-91790044D01*
X130736433Y-91787566D01*
X130740324Y-91768013D01*
X130741047Y-91765631D01*
X130748650Y-91747271D01*
X130749823Y-91745075D01*
X130760922Y-91728465D01*
X130762502Y-91726541D01*
X130776541Y-91712502D01*
X130778465Y-91710922D01*
X130795075Y-91699823D01*
X130797271Y-91698650D01*
X130815631Y-91691047D01*
X130818013Y-91690324D01*
X130837566Y-91686433D01*
X130840044Y-91686189D01*
X130850000Y-91685700D01*
X136150000Y-91685700D01*
X136159956Y-91686189D01*
G37*
G36*
X130840044Y-97513811D02*
G01*
X130837566Y-97513567D01*
X130818013Y-97509676D01*
X130815631Y-97508953D01*
X130797271Y-97501350D01*
X130795075Y-97500177D01*
X130778465Y-97489078D01*
X130776541Y-97487498D01*
X130762502Y-97473459D01*
X130760922Y-97471535D01*
X130749823Y-97454925D01*
X130748650Y-97452729D01*
X130741047Y-97434369D01*
X130740324Y-97431987D01*
X130736433Y-97412434D01*
X130736189Y-97409956D01*
X130735700Y-97400000D01*
X130735700Y-95400000D01*
X130736189Y-95390044D01*
X130736433Y-95387566D01*
X130740324Y-95368013D01*
X130741047Y-95365631D01*
X130748650Y-95347271D01*
X130749823Y-95345075D01*
X130760922Y-95328465D01*
X130762502Y-95326541D01*
X130776541Y-95312502D01*
X130778465Y-95310922D01*
X130795075Y-95299823D01*
X130797271Y-95298650D01*
X130815631Y-95291047D01*
X130818013Y-95290324D01*
X130837566Y-95286433D01*
X130840044Y-95286189D01*
X130850000Y-95285700D01*
X131850000Y-95285700D01*
X131859956Y-95286189D01*
X131862434Y-95286433D01*
X131881987Y-95290324D01*
X131884369Y-95291047D01*
X131902729Y-95298650D01*
X131904925Y-95299823D01*
X131921535Y-95310922D01*
X131923459Y-95312502D01*
X131937498Y-95326541D01*
X131939078Y-95328465D01*
X131948422Y-95341925D01*
X131949221Y-95343301D01*
X131952233Y-95348883D01*
X132093939Y-95632295D01*
X132564231Y-96102587D01*
X133027448Y-96287875D01*
X133500000Y-96335130D01*
X133972552Y-96287875D01*
X134435769Y-96102587D01*
X134906061Y-95632295D01*
X135047767Y-95348883D01*
X135052652Y-95340205D01*
X135053978Y-95338098D01*
X135066212Y-95322336D01*
X135067924Y-95320529D01*
X135082961Y-95307491D01*
X135084993Y-95306052D01*
X135102285Y-95296196D01*
X135104558Y-95295181D01*
X135123460Y-95288880D01*
X135125888Y-95288328D01*
X135142027Y-95286001D01*
X135143615Y-95285901D01*
X135150000Y-95285700D01*
X136150000Y-95285700D01*
X136159956Y-95286189D01*
X136162434Y-95286433D01*
X136181987Y-95290324D01*
X136184369Y-95291047D01*
X136202729Y-95298650D01*
X136204925Y-95299823D01*
X136221535Y-95310922D01*
X136223459Y-95312502D01*
X136237498Y-95326541D01*
X136239078Y-95328465D01*
X136250177Y-95345075D01*
X136251350Y-95347271D01*
X136258953Y-95365631D01*
X136259676Y-95368013D01*
X136263567Y-95387566D01*
X136263811Y-95390044D01*
X136264300Y-95400000D01*
X136264300Y-97400000D01*
X136263811Y-97409956D01*
X136263567Y-97412434D01*
X136259676Y-97431987D01*
X136258953Y-97434369D01*
X136251350Y-97452729D01*
X136250177Y-97454925D01*
X136239078Y-97471535D01*
X136237498Y-97473459D01*
X136223459Y-97487498D01*
X136221535Y-97489078D01*
X136204925Y-97500177D01*
X136202729Y-97501350D01*
X136184369Y-97508953D01*
X136181987Y-97509676D01*
X136162434Y-97513567D01*
X136159956Y-97513811D01*
X136150000Y-97514300D01*
X130850000Y-97514300D01*
X130840044Y-97513811D01*
G37*
%TD*%
D10*
%TO.C,J4*%
X135100000Y-88600000D03*
X135100000Y-86060000D03*
X135100000Y-83520000D03*
X135100000Y-80980000D03*
X135100000Y-78440000D03*
D11*
X135100000Y-75900000D03*
%TD*%
D19*
%TO.C,J3*%
X151016000Y-82460000D03*
X148984000Y-82460000D03*
X150000000Y-87540000D03*
D20*
X149365000Y-86270000D03*
X150635000Y-86270000D03*
X149365000Y-83730000D03*
X150635000Y-83730000D03*
X149365000Y-85000000D03*
X150635000Y-85000000D03*
%TD*%
D10*
%TO.C,J2*%
X146340000Y-120800000D03*
D11*
X143800000Y-120800000D03*
%TD*%
D21*
%TO.C,J1*%
X133900000Y-120800000D03*
X130900000Y-116100000D03*
D22*
X136900000Y-116100000D03*
%TD*%
D23*
%TO.C,F1*%
X136990000Y-109100000D03*
X132210000Y-109100000D03*
%TD*%
D24*
%TO.C,D9*%
X159500000Y-103750000D03*
X163500000Y-103750000D03*
%TD*%
%TO.C,D8*%
X166500000Y-103750000D03*
X170500000Y-103750000D03*
%TD*%
%TO.C,D5*%
X170500000Y-92250000D03*
X166500000Y-92250000D03*
%TD*%
%TO.C,D4*%
X163500000Y-92250000D03*
X159500000Y-92250000D03*
%TD*%
%TO.C,D2*%
X137500000Y-99700000D03*
X133500000Y-99700000D03*
%TD*%
D25*
%TO.C,D1*%
X129200000Y-97350000D03*
X129200000Y-100650000D03*
%TD*%
%TO.C,C27*%
G36*
G01*
X145325000Y-88497500D02*
X145325000Y-88102500D01*
G75*
G02*
X145497500Y-87930000I172500J0D01*
G01*
X145842500Y-87930000D01*
G75*
G02*
X146015000Y-88102500I0J-172500D01*
G01*
X146015000Y-88497500D01*
G75*
G02*
X145842500Y-88670000I-172500J0D01*
G01*
X145497500Y-88670000D01*
G75*
G02*
X145325000Y-88497500I0J172500D01*
G01*
G37*
G36*
G01*
X144355000Y-88497500D02*
X144355000Y-88102500D01*
G75*
G02*
X144527500Y-87930000I172500J0D01*
G01*
X144872500Y-87930000D01*
G75*
G02*
X145045000Y-88102500I0J-172500D01*
G01*
X145045000Y-88497500D01*
G75*
G02*
X144872500Y-88670000I-172500J0D01*
G01*
X144527500Y-88670000D01*
G75*
G02*
X144355000Y-88497500I0J172500D01*
G01*
G37*
%TD*%
%TO.C,C26*%
G36*
G01*
X145355000Y-85697500D02*
X145355000Y-85302500D01*
G75*
G02*
X145527500Y-85130000I172500J0D01*
G01*
X145872500Y-85130000D01*
G75*
G02*
X146045000Y-85302500I0J-172500D01*
G01*
X146045000Y-85697500D01*
G75*
G02*
X145872500Y-85870000I-172500J0D01*
G01*
X145527500Y-85870000D01*
G75*
G02*
X145355000Y-85697500I0J172500D01*
G01*
G37*
G36*
G01*
X144385000Y-85697500D02*
X144385000Y-85302500D01*
G75*
G02*
X144557500Y-85130000I172500J0D01*
G01*
X144902500Y-85130000D01*
G75*
G02*
X145075000Y-85302500I0J-172500D01*
G01*
X145075000Y-85697500D01*
G75*
G02*
X144902500Y-85870000I-172500J0D01*
G01*
X144557500Y-85870000D01*
G75*
G02*
X144385000Y-85697500I0J172500D01*
G01*
G37*
%TD*%
%TO.C,C25*%
G36*
G01*
X167140000Y-109847500D02*
X167140000Y-109452500D01*
G75*
G02*
X167312500Y-109280000I172500J0D01*
G01*
X167657500Y-109280000D01*
G75*
G02*
X167830000Y-109452500I0J-172500D01*
G01*
X167830000Y-109847500D01*
G75*
G02*
X167657500Y-110020000I-172500J0D01*
G01*
X167312500Y-110020000D01*
G75*
G02*
X167140000Y-109847500I0J172500D01*
G01*
G37*
G36*
G01*
X166170000Y-109847500D02*
X166170000Y-109452500D01*
G75*
G02*
X166342500Y-109280000I172500J0D01*
G01*
X166687500Y-109280000D01*
G75*
G02*
X166860000Y-109452500I0J-172500D01*
G01*
X166860000Y-109847500D01*
G75*
G02*
X166687500Y-110020000I-172500J0D01*
G01*
X166342500Y-110020000D01*
G75*
G02*
X166170000Y-109847500I0J172500D01*
G01*
G37*
%TD*%
%TO.C,C23*%
G36*
G01*
X145325000Y-82897500D02*
X145325000Y-82502500D01*
G75*
G02*
X145497500Y-82330000I172500J0D01*
G01*
X145842500Y-82330000D01*
G75*
G02*
X146015000Y-82502500I0J-172500D01*
G01*
X146015000Y-82897500D01*
G75*
G02*
X145842500Y-83070000I-172500J0D01*
G01*
X145497500Y-83070000D01*
G75*
G02*
X145325000Y-82897500I0J172500D01*
G01*
G37*
G36*
G01*
X144355000Y-82897500D02*
X144355000Y-82502500D01*
G75*
G02*
X144527500Y-82330000I172500J0D01*
G01*
X144872500Y-82330000D01*
G75*
G02*
X145045000Y-82502500I0J-172500D01*
G01*
X145045000Y-82897500D01*
G75*
G02*
X144872500Y-83070000I-172500J0D01*
G01*
X144527500Y-83070000D01*
G75*
G02*
X144355000Y-82897500I0J172500D01*
G01*
G37*
%TD*%
%TO.C,C21*%
G36*
G01*
X141345000Y-78452500D02*
X141345000Y-78847500D01*
G75*
G02*
X141172500Y-79020000I-172500J0D01*
G01*
X140827500Y-79020000D01*
G75*
G02*
X140655000Y-78847500I0J172500D01*
G01*
X140655000Y-78452500D01*
G75*
G02*
X140827500Y-78280000I172500J0D01*
G01*
X141172500Y-78280000D01*
G75*
G02*
X141345000Y-78452500I0J-172500D01*
G01*
G37*
G36*
G01*
X142315000Y-78452500D02*
X142315000Y-78847500D01*
G75*
G02*
X142142500Y-79020000I-172500J0D01*
G01*
X141797500Y-79020000D01*
G75*
G02*
X141625000Y-78847500I0J172500D01*
G01*
X141625000Y-78452500D01*
G75*
G02*
X141797500Y-78280000I172500J0D01*
G01*
X142142500Y-78280000D01*
G75*
G02*
X142315000Y-78452500I0J-172500D01*
G01*
G37*
%TD*%
%TO.C,C20*%
G36*
G01*
X143555000Y-78847500D02*
X143555000Y-78452500D01*
G75*
G02*
X143727500Y-78280000I172500J0D01*
G01*
X144072500Y-78280000D01*
G75*
G02*
X144245000Y-78452500I0J-172500D01*
G01*
X144245000Y-78847500D01*
G75*
G02*
X144072500Y-79020000I-172500J0D01*
G01*
X143727500Y-79020000D01*
G75*
G02*
X143555000Y-78847500I0J172500D01*
G01*
G37*
G36*
G01*
X142585000Y-78847500D02*
X142585000Y-78452500D01*
G75*
G02*
X142757500Y-78280000I172500J0D01*
G01*
X143102500Y-78280000D01*
G75*
G02*
X143275000Y-78452500I0J-172500D01*
G01*
X143275000Y-78847500D01*
G75*
G02*
X143102500Y-79020000I-172500J0D01*
G01*
X142757500Y-79020000D01*
G75*
G02*
X142585000Y-78847500I0J172500D01*
G01*
G37*
%TD*%
%TO.C,C24*%
G36*
G01*
X140610000Y-90577500D02*
X140610000Y-90972500D01*
G75*
G02*
X140437500Y-91145000I-172500J0D01*
G01*
X140092500Y-91145000D01*
G75*
G02*
X139920000Y-90972500I0J172500D01*
G01*
X139920000Y-90577500D01*
G75*
G02*
X140092500Y-90405000I172500J0D01*
G01*
X140437500Y-90405000D01*
G75*
G02*
X140610000Y-90577500I0J-172500D01*
G01*
G37*
G36*
G01*
X141580000Y-90577500D02*
X141580000Y-90972500D01*
G75*
G02*
X141407500Y-91145000I-172500J0D01*
G01*
X141062500Y-91145000D01*
G75*
G02*
X140890000Y-90972500I0J172500D01*
G01*
X140890000Y-90577500D01*
G75*
G02*
X141062500Y-90405000I172500J0D01*
G01*
X141407500Y-90405000D01*
G75*
G02*
X141580000Y-90577500I0J-172500D01*
G01*
G37*
%TD*%
%TO.C,C19*%
G36*
G01*
X140175000Y-81702500D02*
X140175000Y-82097500D01*
G75*
G02*
X140002500Y-82270000I-172500J0D01*
G01*
X139657500Y-82270000D01*
G75*
G02*
X139485000Y-82097500I0J172500D01*
G01*
X139485000Y-81702500D01*
G75*
G02*
X139657500Y-81530000I172500J0D01*
G01*
X140002500Y-81530000D01*
G75*
G02*
X140175000Y-81702500I0J-172500D01*
G01*
G37*
G36*
G01*
X141145000Y-81702500D02*
X141145000Y-82097500D01*
G75*
G02*
X140972500Y-82270000I-172500J0D01*
G01*
X140627500Y-82270000D01*
G75*
G02*
X140455000Y-82097500I0J172500D01*
G01*
X140455000Y-81702500D01*
G75*
G02*
X140627500Y-81530000I172500J0D01*
G01*
X140972500Y-81530000D01*
G75*
G02*
X141145000Y-81702500I0J-172500D01*
G01*
G37*
%TD*%
%TO.C,C22*%
G36*
G01*
X140450000Y-91793750D02*
X140450000Y-92356250D01*
G75*
G02*
X140206250Y-92600000I-243750J0D01*
G01*
X139718750Y-92600000D01*
G75*
G02*
X139475000Y-92356250I0J243750D01*
G01*
X139475000Y-91793750D01*
G75*
G02*
X139718750Y-91550000I243750J0D01*
G01*
X140206250Y-91550000D01*
G75*
G02*
X140450000Y-91793750I0J-243750D01*
G01*
G37*
G36*
G01*
X142025000Y-91793750D02*
X142025000Y-92356250D01*
G75*
G02*
X141781250Y-92600000I-243750J0D01*
G01*
X141293750Y-92600000D01*
G75*
G02*
X141050000Y-92356250I0J243750D01*
G01*
X141050000Y-91793750D01*
G75*
G02*
X141293750Y-91550000I243750J0D01*
G01*
X141781250Y-91550000D01*
G75*
G02*
X142025000Y-91793750I0J-243750D01*
G01*
G37*
%TD*%
%TO.C,C18*%
G36*
G01*
X139712500Y-80318750D02*
X139712500Y-80881250D01*
G75*
G02*
X139468750Y-81125000I-243750J0D01*
G01*
X138981250Y-81125000D01*
G75*
G02*
X138737500Y-80881250I0J243750D01*
G01*
X138737500Y-80318750D01*
G75*
G02*
X138981250Y-80075000I243750J0D01*
G01*
X139468750Y-80075000D01*
G75*
G02*
X139712500Y-80318750I0J-243750D01*
G01*
G37*
G36*
G01*
X141287500Y-80318750D02*
X141287500Y-80881250D01*
G75*
G02*
X141043750Y-81125000I-243750J0D01*
G01*
X140556250Y-81125000D01*
G75*
G02*
X140312500Y-80881250I0J243750D01*
G01*
X140312500Y-80318750D01*
G75*
G02*
X140556250Y-80075000I243750J0D01*
G01*
X141043750Y-80075000D01*
G75*
G02*
X141287500Y-80318750I0J-243750D01*
G01*
G37*
%TD*%
D26*
%TO.C,C17*%
X162500000Y-95500000D03*
X162500000Y-100500000D03*
%TD*%
%TO.C,C16*%
G36*
G01*
X138618750Y-96600000D02*
X139181250Y-96600000D01*
G75*
G02*
X139425000Y-96843750I0J-243750D01*
G01*
X139425000Y-97331250D01*
G75*
G02*
X139181250Y-97575000I-243750J0D01*
G01*
X138618750Y-97575000D01*
G75*
G02*
X138375000Y-97331250I0J243750D01*
G01*
X138375000Y-96843750D01*
G75*
G02*
X138618750Y-96600000I243750J0D01*
G01*
G37*
G36*
G01*
X138618750Y-95025000D02*
X139181250Y-95025000D01*
G75*
G02*
X139425000Y-95268750I0J-243750D01*
G01*
X139425000Y-95756250D01*
G75*
G02*
X139181250Y-96000000I-243750J0D01*
G01*
X138618750Y-96000000D01*
G75*
G02*
X138375000Y-95756250I0J243750D01*
G01*
X138375000Y-95268750D01*
G75*
G02*
X138618750Y-95025000I243750J0D01*
G01*
G37*
%TD*%
%TO.C,C14*%
G36*
G01*
X137118750Y-96600000D02*
X137681250Y-96600000D01*
G75*
G02*
X137925000Y-96843750I0J-243750D01*
G01*
X137925000Y-97331250D01*
G75*
G02*
X137681250Y-97575000I-243750J0D01*
G01*
X137118750Y-97575000D01*
G75*
G02*
X136875000Y-97331250I0J243750D01*
G01*
X136875000Y-96843750D01*
G75*
G02*
X137118750Y-96600000I243750J0D01*
G01*
G37*
G36*
G01*
X137118750Y-95025000D02*
X137681250Y-95025000D01*
G75*
G02*
X137925000Y-95268750I0J-243750D01*
G01*
X137925000Y-95756250D01*
G75*
G02*
X137681250Y-96000000I-243750J0D01*
G01*
X137118750Y-96000000D01*
G75*
G02*
X136875000Y-95756250I0J243750D01*
G01*
X136875000Y-95268750D01*
G75*
G02*
X137118750Y-95025000I243750J0D01*
G01*
G37*
%TD*%
%TO.C,C15*%
G36*
G01*
X171050000Y-106581250D02*
X171050000Y-106018750D01*
G75*
G02*
X171293750Y-105775000I243750J0D01*
G01*
X171781250Y-105775000D01*
G75*
G02*
X172025000Y-106018750I0J-243750D01*
G01*
X172025000Y-106581250D01*
G75*
G02*
X171781250Y-106825000I-243750J0D01*
G01*
X171293750Y-106825000D01*
G75*
G02*
X171050000Y-106581250I0J243750D01*
G01*
G37*
G36*
G01*
X169475000Y-106581250D02*
X169475000Y-106018750D01*
G75*
G02*
X169718750Y-105775000I243750J0D01*
G01*
X170206250Y-105775000D01*
G75*
G02*
X170450000Y-106018750I0J-243750D01*
G01*
X170450000Y-106581250D01*
G75*
G02*
X170206250Y-106825000I-243750J0D01*
G01*
X169718750Y-106825000D01*
G75*
G02*
X169475000Y-106581250I0J243750D01*
G01*
G37*
%TD*%
%TO.C,C11*%
G36*
G01*
X145900000Y-115884375D02*
X145900000Y-114715625D01*
G75*
G02*
X146165625Y-114450000I265625J0D01*
G01*
X149234375Y-114450000D01*
G75*
G02*
X149500000Y-114715625I0J-265625D01*
G01*
X149500000Y-115884375D01*
G75*
G02*
X149234375Y-116150000I-265625J0D01*
G01*
X146165625Y-116150000D01*
G75*
G02*
X145900000Y-115884375I0J265625D01*
G01*
G37*
G36*
G01*
X140500000Y-115884375D02*
X140500000Y-114715625D01*
G75*
G02*
X140765625Y-114450000I265625J0D01*
G01*
X143834375Y-114450000D01*
G75*
G02*
X144100000Y-114715625I0J-265625D01*
G01*
X144100000Y-115884375D01*
G75*
G02*
X143834375Y-116150000I-265625J0D01*
G01*
X140765625Y-116150000D01*
G75*
G02*
X140500000Y-115884375I0J265625D01*
G01*
G37*
%TD*%
%TO.C,C13*%
G36*
G01*
X171050000Y-108081250D02*
X171050000Y-107518750D01*
G75*
G02*
X171293750Y-107275000I243750J0D01*
G01*
X171781250Y-107275000D01*
G75*
G02*
X172025000Y-107518750I0J-243750D01*
G01*
X172025000Y-108081250D01*
G75*
G02*
X171781250Y-108325000I-243750J0D01*
G01*
X171293750Y-108325000D01*
G75*
G02*
X171050000Y-108081250I0J243750D01*
G01*
G37*
G36*
G01*
X169475000Y-108081250D02*
X169475000Y-107518750D01*
G75*
G02*
X169718750Y-107275000I243750J0D01*
G01*
X170206250Y-107275000D01*
G75*
G02*
X170450000Y-107518750I0J-243750D01*
G01*
X170450000Y-108081250D01*
G75*
G02*
X170206250Y-108325000I-243750J0D01*
G01*
X169718750Y-108325000D01*
G75*
G02*
X169475000Y-108081250I0J243750D01*
G01*
G37*
%TD*%
%TO.C,C9*%
G36*
G01*
X145900000Y-108684375D02*
X145900000Y-107515625D01*
G75*
G02*
X146165625Y-107250000I265625J0D01*
G01*
X149234375Y-107250000D01*
G75*
G02*
X149500000Y-107515625I0J-265625D01*
G01*
X149500000Y-108684375D01*
G75*
G02*
X149234375Y-108950000I-265625J0D01*
G01*
X146165625Y-108950000D01*
G75*
G02*
X145900000Y-108684375I0J265625D01*
G01*
G37*
G36*
G01*
X140500000Y-108684375D02*
X140500000Y-107515625D01*
G75*
G02*
X140765625Y-107250000I265625J0D01*
G01*
X143834375Y-107250000D01*
G75*
G02*
X144100000Y-107515625I0J-265625D01*
G01*
X144100000Y-108684375D01*
G75*
G02*
X143834375Y-108950000I-265625J0D01*
G01*
X140765625Y-108950000D01*
G75*
G02*
X140500000Y-108684375I0J265625D01*
G01*
G37*
%TD*%
%TO.C,C12*%
G36*
G01*
X158950000Y-89418750D02*
X158950000Y-89981250D01*
G75*
G02*
X158706250Y-90225000I-243750J0D01*
G01*
X158218750Y-90225000D01*
G75*
G02*
X157975000Y-89981250I0J243750D01*
G01*
X157975000Y-89418750D01*
G75*
G02*
X158218750Y-89175000I243750J0D01*
G01*
X158706250Y-89175000D01*
G75*
G02*
X158950000Y-89418750I0J-243750D01*
G01*
G37*
G36*
G01*
X160525000Y-89418750D02*
X160525000Y-89981250D01*
G75*
G02*
X160281250Y-90225000I-243750J0D01*
G01*
X159793750Y-90225000D01*
G75*
G02*
X159550000Y-89981250I0J243750D01*
G01*
X159550000Y-89418750D01*
G75*
G02*
X159793750Y-89175000I243750J0D01*
G01*
X160281250Y-89175000D01*
G75*
G02*
X160525000Y-89418750I0J-243750D01*
G01*
G37*
%TD*%
%TO.C,C10*%
G36*
G01*
X158950000Y-87918750D02*
X158950000Y-88481250D01*
G75*
G02*
X158706250Y-88725000I-243750J0D01*
G01*
X158218750Y-88725000D01*
G75*
G02*
X157975000Y-88481250I0J243750D01*
G01*
X157975000Y-87918750D01*
G75*
G02*
X158218750Y-87675000I243750J0D01*
G01*
X158706250Y-87675000D01*
G75*
G02*
X158950000Y-87918750I0J-243750D01*
G01*
G37*
G36*
G01*
X160525000Y-87918750D02*
X160525000Y-88481250D01*
G75*
G02*
X160281250Y-88725000I-243750J0D01*
G01*
X159793750Y-88725000D01*
G75*
G02*
X159550000Y-88481250I0J243750D01*
G01*
X159550000Y-87918750D01*
G75*
G02*
X159793750Y-87675000I243750J0D01*
G01*
X160281250Y-87675000D01*
G75*
G02*
X160525000Y-87918750I0J-243750D01*
G01*
G37*
%TD*%
%TO.C,C5*%
G36*
G01*
X166812500Y-115318750D02*
X166812500Y-115881250D01*
G75*
G02*
X166568750Y-116125000I-243750J0D01*
G01*
X166081250Y-116125000D01*
G75*
G02*
X165837500Y-115881250I0J243750D01*
G01*
X165837500Y-115318750D01*
G75*
G02*
X166081250Y-115075000I243750J0D01*
G01*
X166568750Y-115075000D01*
G75*
G02*
X166812500Y-115318750I0J-243750D01*
G01*
G37*
G36*
G01*
X168387500Y-115318750D02*
X168387500Y-115881250D01*
G75*
G02*
X168143750Y-116125000I-243750J0D01*
G01*
X167656250Y-116125000D01*
G75*
G02*
X167412500Y-115881250I0J243750D01*
G01*
X167412500Y-115318750D01*
G75*
G02*
X167656250Y-115075000I243750J0D01*
G01*
X168143750Y-115075000D01*
G75*
G02*
X168387500Y-115318750I0J-243750D01*
G01*
G37*
%TD*%
%TO.C,C3*%
G36*
G01*
X136187500Y-103981250D02*
X136187500Y-103418750D01*
G75*
G02*
X136431250Y-103175000I243750J0D01*
G01*
X136918750Y-103175000D01*
G75*
G02*
X137162500Y-103418750I0J-243750D01*
G01*
X137162500Y-103981250D01*
G75*
G02*
X136918750Y-104225000I-243750J0D01*
G01*
X136431250Y-104225000D01*
G75*
G02*
X136187500Y-103981250I0J243750D01*
G01*
G37*
G36*
G01*
X134612500Y-103981250D02*
X134612500Y-103418750D01*
G75*
G02*
X134856250Y-103175000I243750J0D01*
G01*
X135343750Y-103175000D01*
G75*
G02*
X135587500Y-103418750I0J-243750D01*
G01*
X135587500Y-103981250D01*
G75*
G02*
X135343750Y-104225000I-243750J0D01*
G01*
X134856250Y-104225000D01*
G75*
G02*
X134612500Y-103981250I0J243750D01*
G01*
G37*
%TD*%
%TO.C,C4*%
G36*
G01*
X162790000Y-81847500D02*
X162790000Y-81452500D01*
G75*
G02*
X162962500Y-81280000I172500J0D01*
G01*
X163307500Y-81280000D01*
G75*
G02*
X163480000Y-81452500I0J-172500D01*
G01*
X163480000Y-81847500D01*
G75*
G02*
X163307500Y-82020000I-172500J0D01*
G01*
X162962500Y-82020000D01*
G75*
G02*
X162790000Y-81847500I0J172500D01*
G01*
G37*
G36*
G01*
X161820000Y-81847500D02*
X161820000Y-81452500D01*
G75*
G02*
X161992500Y-81280000I172500J0D01*
G01*
X162337500Y-81280000D01*
G75*
G02*
X162510000Y-81452500I0J-172500D01*
G01*
X162510000Y-81847500D01*
G75*
G02*
X162337500Y-82020000I-172500J0D01*
G01*
X161992500Y-82020000D01*
G75*
G02*
X161820000Y-81847500I0J172500D01*
G01*
G37*
%TD*%
%TO.C,C2*%
G36*
G01*
X163187500Y-80681250D02*
X163187500Y-80118750D01*
G75*
G02*
X163431250Y-79875000I243750J0D01*
G01*
X163918750Y-79875000D01*
G75*
G02*
X164162500Y-80118750I0J-243750D01*
G01*
X164162500Y-80681250D01*
G75*
G02*
X163918750Y-80925000I-243750J0D01*
G01*
X163431250Y-80925000D01*
G75*
G02*
X163187500Y-80681250I0J243750D01*
G01*
G37*
G36*
G01*
X161612500Y-80681250D02*
X161612500Y-80118750D01*
G75*
G02*
X161856250Y-79875000I243750J0D01*
G01*
X162343750Y-79875000D01*
G75*
G02*
X162587500Y-80118750I0J-243750D01*
G01*
X162587500Y-80681250D01*
G75*
G02*
X162343750Y-80925000I-243750J0D01*
G01*
X161856250Y-80925000D01*
G75*
G02*
X161612500Y-80681250I0J243750D01*
G01*
G37*
%TD*%
%TO.C,C1*%
G36*
G01*
X136187500Y-102481250D02*
X136187500Y-101918750D01*
G75*
G02*
X136431250Y-101675000I243750J0D01*
G01*
X136918750Y-101675000D01*
G75*
G02*
X137162500Y-101918750I0J-243750D01*
G01*
X137162500Y-102481250D01*
G75*
G02*
X136918750Y-102725000I-243750J0D01*
G01*
X136431250Y-102725000D01*
G75*
G02*
X136187500Y-102481250I0J243750D01*
G01*
G37*
G36*
G01*
X134612500Y-102481250D02*
X134612500Y-101918750D01*
G75*
G02*
X134856250Y-101675000I243750J0D01*
G01*
X135343750Y-101675000D01*
G75*
G02*
X135587500Y-101918750I0J-243750D01*
G01*
X135587500Y-102481250D01*
G75*
G02*
X135343750Y-102725000I-243750J0D01*
G01*
X134856250Y-102725000D01*
G75*
G02*
X134612500Y-102481250I0J243750D01*
G01*
G37*
%TD*%
M02*
