G04 #@! TF.GenerationSoftware,KiCad,Pcbnew,(5.1.6)-1*
G04 #@! TF.CreationDate,2021-07-30T18:51:46-07:00*
G04 #@! TF.ProjectId,Inductor Coils,496e6475-6374-46f7-9220-436f696c732e,rev?*
G04 #@! TF.SameCoordinates,Original*
G04 #@! TF.FileFunction,Copper,L2,Bot*
G04 #@! TF.FilePolarity,Positive*
%FSLAX46Y46*%
G04 Gerber Fmt 4.6, Leading zero omitted, Abs format (unit mm)*
G04 Created by KiCad (PCBNEW (5.1.6)-1) date 2021-07-30 18:51:46*
%MOMM*%
%LPD*%
G01*
G04 APERTURE LIST*
G04 #@! TA.AperFunction,NonConductor*
%ADD10C,0.381000*%
G04 #@! TD*
G04 #@! TA.AperFunction,ComponentPad*
%ADD11O,1.700000X1.700000*%
G04 #@! TD*
G04 #@! TA.AperFunction,ComponentPad*
%ADD12R,1.700000X1.700000*%
G04 #@! TD*
G04 #@! TA.AperFunction,ViaPad*
%ADD13C,0.800000*%
G04 #@! TD*
G04 #@! TA.AperFunction,Conductor*
%ADD14C,0.700000*%
G04 #@! TD*
G04 APERTURE END LIST*
D10*
X255955142Y-95189428D02*
X256680857Y-95189428D01*
X256680857Y-93665428D01*
X255447142Y-95189428D02*
X255447142Y-93665428D01*
X254939142Y-94754000D01*
X254431142Y-93665428D01*
X254431142Y-95189428D01*
X253778000Y-94754000D02*
X253052285Y-94754000D01*
X253923142Y-95189428D02*
X253415142Y-93665428D01*
X252907142Y-95189428D01*
X252108857Y-93665428D02*
X251818571Y-93665428D01*
X251673428Y-93738000D01*
X251528285Y-93883142D01*
X251455714Y-94173428D01*
X251455714Y-94681428D01*
X251528285Y-94971714D01*
X251673428Y-95116857D01*
X251818571Y-95189428D01*
X252108857Y-95189428D01*
X252254000Y-95116857D01*
X252399142Y-94971714D01*
X252471714Y-94681428D01*
X252471714Y-94173428D01*
X252399142Y-93883142D01*
X252254000Y-93738000D01*
X252108857Y-93665428D01*
X249641428Y-95189428D02*
X249641428Y-93665428D01*
X249641428Y-94391142D02*
X248770571Y-94391142D01*
X248770571Y-95189428D02*
X248770571Y-93665428D01*
X248044857Y-95189428D02*
X248044857Y-93665428D01*
X247319142Y-95044285D02*
X247246571Y-95116857D01*
X247319142Y-95189428D01*
X247391714Y-95116857D01*
X247319142Y-95044285D01*
X247319142Y-95189428D01*
X247319142Y-94608857D02*
X247391714Y-93738000D01*
X247319142Y-93665428D01*
X247246571Y-93738000D01*
X247319142Y-94608857D01*
X247319142Y-93665428D01*
D11*
X229870000Y-155000000D03*
D12*
X227330000Y-155000000D03*
D13*
X228600000Y-130400000D03*
D14*
X228600000Y-130400000D02*
X230783786Y-130149999D01*
X230783786Y-130149999D02*
X232837500Y-129339565D01*
X232837500Y-129339565D02*
X234619246Y-128019246D01*
X234619246Y-128019246D02*
X236004517Y-126275000D01*
X236004517Y-126275000D02*
X236894888Y-124222609D01*
X236894888Y-124222609D02*
X237225000Y-122000000D01*
X237225000Y-122000000D02*
X236967332Y-119757980D01*
X236967332Y-119757980D02*
X236134421Y-117650000D01*
X236134421Y-117650000D02*
X234778346Y-115821654D01*
X234778346Y-115821654D02*
X232987500Y-114400627D01*
X232987500Y-114400627D02*
X230880843Y-113487779D01*
X230880843Y-113487779D02*
X228600000Y-113150000D01*
X228600000Y-113150000D02*
X226299746Y-113415334D01*
X226299746Y-113415334D02*
X224137500Y-114270723D01*
X224137500Y-114270723D02*
X222262555Y-115662555D01*
X222262555Y-115662555D02*
X220805771Y-117500000D01*
X220805771Y-117500000D02*
X219870445Y-119660923D01*
X219870445Y-119660923D02*
X219525000Y-122000000D01*
X219525000Y-122000000D02*
X219798001Y-124358489D01*
X219798001Y-124358489D02*
X220675868Y-126575000D01*
X220675868Y-126575000D02*
X222103456Y-128496544D01*
X222103456Y-128496544D02*
X223987500Y-129989084D01*
X223987500Y-129989084D02*
X226202689Y-130946888D01*
X226202689Y-130946888D02*
X228600000Y-131300000D01*
X228600000Y-131300000D02*
X230676597Y-131098167D01*
X230676597Y-131098167D02*
X232663011Y-130436930D01*
X232663011Y-130436930D02*
X234458577Y-129346424D01*
X234458577Y-129346424D02*
X235971554Y-127878618D01*
X235971554Y-127878618D02*
X237123809Y-126104850D01*
X237123809Y-126104850D02*
X237854851Y-124112359D01*
X237854851Y-124112359D02*
X238125000Y-122000000D01*
X238125000Y-122000000D02*
X237917525Y-119873336D01*
X237917525Y-119873336D02*
X237239648Y-117839365D01*
X237239648Y-117839365D02*
X236122336Y-116001137D01*
X236122336Y-116001137D02*
X234618903Y-114452534D01*
X234618903Y-114452534D02*
X232802474Y-113273473D01*
X232802474Y-113273473D02*
X230762427Y-112525790D01*
X230762427Y-112525790D02*
X228600000Y-112250000D01*
X228600000Y-112250000D02*
X226423268Y-112463116D01*
X226423268Y-112463116D02*
X224341741Y-113157634D01*
X224341741Y-113157634D02*
X222460852Y-114301752D01*
X222460852Y-114301752D02*
X220876622Y-115840811D01*
X220876622Y-115840811D02*
X219670755Y-117699902D01*
X219670755Y-117699902D02*
X218906431Y-119787506D01*
X218906431Y-119787506D02*
X218625000Y-122000000D01*
X218625000Y-122000000D02*
X218843757Y-124226799D01*
X218843757Y-124226799D02*
X219554916Y-126355883D01*
X219554916Y-126355883D02*
X220725840Y-128279433D01*
X220725840Y-128279433D02*
X222300526Y-129899290D01*
X222300526Y-129899290D02*
X224202278Y-131131963D01*
X224202278Y-131131963D02*
X226337439Y-131912928D01*
X226337439Y-131912928D02*
X228600000Y-132200000D01*
X228600000Y-132200000D02*
X230595408Y-132031594D01*
X230595408Y-132031594D02*
X232524897Y-131475539D01*
X232524897Y-131475539D02*
X234313693Y-130551145D01*
X234313693Y-130551145D02*
X235892039Y-129292039D01*
X235892039Y-129292039D02*
X237197915Y-127744943D01*
X237197915Y-127744943D02*
X238179476Y-125967949D01*
X238179476Y-125967949D02*
X238797102Y-124028330D01*
X238797102Y-124028330D02*
X239025000Y-122000000D01*
X239025000Y-122000000D02*
X238852271Y-119960696D01*
X238852271Y-119960696D02*
X238283412Y-117988999D01*
X238283412Y-117988999D02*
X237338226Y-116161304D01*
X237338226Y-116161304D02*
X236051138Y-114548862D01*
X236051138Y-114548862D02*
X234469947Y-113215004D01*
X234469947Y-113215004D02*
X232654053Y-112212651D01*
X232654053Y-112212651D02*
X230672225Y-111582221D01*
X230672225Y-111582221D02*
X228600000Y-111350000D01*
X228600000Y-111350000D02*
X226516801Y-111527052D01*
X226516801Y-111527052D02*
X224502896Y-112108715D01*
X224502896Y-112108715D02*
X222636301Y-113074693D01*
X222636301Y-113074693D02*
X220989763Y-114389763D01*
X220989763Y-114389763D02*
X219627923Y-116005050D01*
X219627923Y-116005050D02*
X218604778Y-117859844D01*
X218604778Y-117859844D02*
X217961545Y-119883880D01*
X217961545Y-119883880D02*
X217725000Y-122000000D01*
X217725000Y-122000000D02*
X217906375Y-124127094D01*
X217906375Y-124127094D02*
X218500842Y-126183208D01*
X218500842Y-126183208D02*
X219487613Y-128088703D01*
X219487613Y-128088703D02*
X220830664Y-129769336D01*
X220830664Y-129769336D02*
X222480047Y-131159157D01*
X222480047Y-131159157D02*
X224373740Y-132203095D01*
X224373740Y-132203095D02*
X226439984Y-132859132D01*
X226439984Y-132859132D02*
X228600000Y-133100000D01*
X228600000Y-133100000D02*
X230531836Y-132955986D01*
X230531836Y-132955986D02*
X232413525Y-132477573D01*
X232413525Y-132477573D02*
X234187500Y-131677834D01*
X234187500Y-131677834D02*
X235799221Y-130579698D01*
X235799221Y-130579698D02*
X237198849Y-129215291D01*
X237198849Y-129215291D02*
X238342786Y-127625000D01*
X238342786Y-127625000D02*
X239195034Y-125856277D01*
X239195034Y-125856277D02*
X239728328Y-123962224D01*
X239728328Y-123962224D02*
X239925000Y-122000000D01*
X239925000Y-122000000D02*
X239777568Y-120029093D01*
X239777568Y-120029093D02*
X239289004Y-118109521D01*
X239289004Y-118109521D02*
X238472690Y-116300000D01*
X238472690Y-116300000D02*
X237352058Y-114656152D01*
X237352058Y-114656152D02*
X235959918Y-113228791D01*
X235959918Y-113228791D02*
X234337500Y-112062358D01*
X234337500Y-112062358D02*
X232533232Y-111193535D01*
X232533232Y-111193535D02*
X230601295Y-110650091D01*
X230601295Y-110650091D02*
X228600000Y-110450000D01*
X228600000Y-110450000D02*
X226590022Y-110600850D01*
X226590022Y-110600850D02*
X224632566Y-111099566D01*
X224632566Y-111099566D02*
X222787500Y-111932455D01*
X222787500Y-111932455D02*
X221111524Y-113075582D01*
X221111524Y-113075582D02*
X219656431Y-114495455D01*
X219656431Y-114495455D02*
X218467503Y-116150000D01*
X218467503Y-116150000D02*
X217582104Y-117989814D01*
X217582104Y-117989814D02*
X217028509Y-119959634D01*
X217028509Y-119959634D02*
X216825000Y-122000000D01*
X216825000Y-122000000D02*
X216979269Y-124049048D01*
X216979269Y-124049048D02*
X217488135Y-126044388D01*
X217488135Y-126044388D02*
X218337599Y-127925000D01*
X218337599Y-127925000D02*
X219503222Y-129633103D01*
X219503222Y-129633103D02*
X220950827Y-131115929D01*
X220950827Y-131115929D02*
X222637500Y-132327353D01*
X222637500Y-132327353D02*
X224512859Y-133229327D01*
X224512859Y-133229327D02*
X226520563Y-133793073D01*
X226520563Y-133793073D02*
X228600000Y-134000000D01*
X228600000Y-134000000D02*
X230480733Y-133874483D01*
X230480733Y-133874483D02*
X232322110Y-133455476D01*
X232322110Y-133455476D02*
X234078530Y-132752221D01*
X234078530Y-132752221D02*
X235706324Y-131781015D01*
X235706324Y-131781015D02*
X237164831Y-130564831D01*
X237164831Y-130564831D02*
X238417421Y-129132774D01*
X238417421Y-129132774D02*
X239432412Y-127519390D01*
X239432412Y-127519390D02*
X240183868Y-125763827D01*
X240183868Y-125763827D02*
X240652267Y-123908892D01*
X240652267Y-123908892D02*
X240825000Y-122000000D01*
X240825000Y-122000000D02*
X240696713Y-120084069D01*
X240696713Y-120084069D02*
X240269463Y-118208361D01*
X240269463Y-118208361D02*
X239552698Y-116419322D01*
X239552698Y-116419322D02*
X238563044Y-114761425D01*
X238563044Y-114761425D02*
X237323930Y-113276070D01*
X237323930Y-113276070D02*
X235865026Y-112000550D01*
X235865026Y-112000550D02*
X234221537Y-110967112D01*
X234221537Y-110967112D02*
X232433356Y-110202144D01*
X232433356Y-110202144D02*
X230544089Y-109725503D01*
X230544089Y-109725503D02*
X228600000Y-109550000D01*
X228600000Y-109550000D02*
X226648871Y-109681057D01*
X226648871Y-109681057D02*
X224738833Y-110116549D01*
X224738833Y-110116549D02*
X222917174Y-110846826D01*
X222917174Y-110846826D02*
X221229173Y-111854927D01*
X221229173Y-111854927D02*
X219716971Y-113116971D01*
X219716971Y-113116971D02*
X218418521Y-114602723D01*
X218418521Y-114602723D02*
X217366635Y-116276315D01*
X217366635Y-116276315D02*
X216588156Y-118097115D01*
X216588156Y-118097115D02*
X216103273Y-120020713D01*
X216103273Y-120020713D02*
X215925000Y-122000000D01*
X215925000Y-122000000D02*
X216058827Y-123986327D01*
X216058827Y-123986327D02*
X216502561Y-125930696D01*
X216502561Y-125930696D02*
X217246349Y-127784974D01*
X217246349Y-127784974D02*
X218272898Y-129503079D01*
X218272898Y-129503079D02*
X219557872Y-131042128D01*
X219557872Y-131042128D02*
X221070471Y-132363508D01*
X221070471Y-132363508D02*
X222774167Y-133433841D01*
X222774167Y-133433841D02*
X224627587Y-134225832D01*
X224627587Y-134225832D02*
X226585515Y-134718957D01*
X226585515Y-134718957D02*
X228600000Y-134900000D01*
X228600000Y-134900000D02*
X230438772Y-134788943D01*
X230438772Y-134788943D02*
X232245875Y-134416711D01*
X232245875Y-134416711D02*
X233984345Y-133790071D01*
X233984345Y-133790071D02*
X235618501Y-132921000D01*
X235618501Y-132921000D02*
X237114678Y-131826462D01*
X237114678Y-131826462D02*
X238441921Y-130528073D01*
X238441921Y-130528073D02*
X239572623Y-129051676D01*
X239572623Y-129051676D02*
X240483102Y-127426831D01*
X240483102Y-127426831D02*
X241154093Y-125686214D01*
X241154093Y-125686214D02*
X241571160Y-123864971D01*
X241571160Y-123864971D02*
X241725000Y-122000000D01*
X241725000Y-122000000D02*
X241611653Y-120129207D01*
X241611653Y-120129207D02*
X241232597Y-118290735D01*
X241232597Y-118290735D02*
X240594738Y-116522187D01*
X240594738Y-116522187D02*
X239710282Y-114859855D01*
X239710282Y-114859855D02*
X238596506Y-113337978D01*
X238596506Y-113337978D02*
X237275416Y-111988036D01*
X237275416Y-111988036D02*
X235773321Y-110838095D01*
X235773321Y-110838095D02*
X234120299Y-109912231D01*
X234120299Y-109912231D02*
X232349604Y-109230021D01*
X232349604Y-109230021D02*
X230496992Y-108806130D01*
X230496992Y-108806130D02*
X228600000Y-108650000D01*
X228600000Y-108650000D02*
X226697186Y-108765637D01*
X226697186Y-108765637D02*
X224827345Y-109151517D01*
X224827345Y-109151517D02*
X223028718Y-109800595D01*
X223028718Y-109800595D02*
X221338211Y-110700436D01*
X221338211Y-110700436D02*
X219790635Y-111833451D01*
X219790635Y-111833451D02*
X218417992Y-113177240D01*
X218417992Y-113177240D02*
X217248813Y-114705035D01*
X217248813Y-114705035D02*
X216307564Y-116386233D01*
X216307564Y-116386233D02*
X215614135Y-118187006D01*
X215614135Y-118187006D02*
X215183420Y-120070987D01*
X215183420Y-120070987D02*
X215025000Y-122000000D01*
X215025000Y-122000000D02*
X215142928Y-123934835D01*
X215142928Y-123934835D02*
X215535631Y-125836045D01*
X215535631Y-125836045D02*
X216195927Y-127664750D01*
X216195927Y-127664750D02*
X217111153Y-129383433D01*
X217111153Y-129383433D02*
X218263407Y-130956709D01*
X218263407Y-130956709D02*
X219629896Y-132352052D01*
X219629896Y-132352052D02*
X221183391Y-133540469D01*
X221183391Y-133540469D02*
X222892764Y-134497103D01*
X222892764Y-134497103D02*
X224723616Y-135201751D01*
X224723616Y-135201751D02*
X226638966Y-135639290D01*
X226638966Y-135639290D02*
X228600000Y-135800000D01*
X228600000Y-135800000D02*
X230403709Y-135700529D01*
X230403709Y-135700529D02*
X232181409Y-135365999D01*
X232181409Y-135365999D02*
X233902557Y-134801506D01*
X233902557Y-134801506D02*
X235537500Y-134016102D01*
X235537500Y-134016102D02*
X237057979Y-133022653D01*
X237057979Y-133022653D02*
X238437623Y-131837623D01*
X238437623Y-131837623D02*
X239652404Y-130480808D01*
X239652404Y-130480808D02*
X240681054Y-128975000D01*
X240681054Y-128975000D02*
X241505442Y-127345609D01*
X241505442Y-127345609D02*
X242110887Y-125620231D01*
X242110887Y-125620231D02*
X242486425Y-123828182D01*
X242486425Y-123828182D02*
X242625000Y-122000000D01*
X242625000Y-122000000D02*
X242523604Y-120166923D01*
X242523604Y-120166923D02*
X242183332Y-118360357D01*
X242183332Y-118360357D02*
X241609379Y-116611339D01*
X241609379Y-116611339D02*
X240810958Y-114950000D01*
X240810958Y-114950000D02*
X239801157Y-113405050D01*
X239801157Y-113405050D02*
X238596722Y-112003278D01*
X238596722Y-112003278D02*
X237217779Y-110769092D01*
X237217779Y-110769092D02*
X235687500Y-109724090D01*
X235687500Y-109724090D02*
X234031713Y-108886685D01*
X234031713Y-108886685D02*
X232278466Y-108271779D01*
X232278466Y-108271779D02*
X230457551Y-107890500D01*
X230457551Y-107890500D02*
X228600000Y-107750000D01*
X228600000Y-107750000D02*
X226737554Y-107853321D01*
X226737554Y-107853321D02*
X224902123Y-108199335D01*
X224902123Y-108199335D02*
X223125235Y-108782748D01*
X223125235Y-108782748D02*
X221437500Y-109594186D01*
X221437500Y-109594186D02*
X219868078Y-110620338D01*
X219868078Y-110620338D02*
X218444179Y-111844179D01*
X218444179Y-111844179D02*
X217190587Y-113245250D01*
X217190587Y-113245250D02*
X216129234Y-114800000D01*
X216129234Y-114800000D02*
X215278812Y-116482183D01*
X215278812Y-116482183D02*
X214654446Y-118263300D01*
X214654446Y-118263300D02*
X214267425Y-120113081D01*
X214267425Y-120113081D02*
X214125000Y-122000000D01*
X214125000Y-122000000D02*
X214230246Y-123891814D01*
X214230246Y-123891814D02*
X214582001Y-125756111D01*
X214582001Y-125756111D02*
X215174876Y-127560869D01*
X215174876Y-127560869D02*
X215999330Y-129275000D01*
X215999330Y-129275000D02*
X217041834Y-130868893D01*
X217041834Y-130868893D02*
X218285080Y-132314920D01*
X218285080Y-132314920D02*
X219708278Y-133587917D01*
X219708278Y-133587917D02*
X221287500Y-134665622D01*
X221287500Y-134665622D02*
X222996079Y-135529061D01*
X222996079Y-135529061D02*
X224805066Y-136162887D01*
X224805066Y-136162887D02*
X226683712Y-136555650D01*
X226683712Y-136555650D02*
X228600000Y-136700000D01*
X228600000Y-136700000D02*
X230373975Y-136610002D01*
X230373975Y-136610002D02*
X232126224Y-136306454D01*
X232126224Y-136306454D02*
X233831104Y-135793288D01*
X233831104Y-135793288D02*
X235463604Y-135077504D01*
X235463604Y-135077504D02*
X236999711Y-134169083D01*
X236999711Y-134169083D02*
X238416766Y-133080838D01*
X238416766Y-133080838D02*
X239693793Y-131828243D01*
X239693793Y-131828243D02*
X240811814Y-130429207D01*
X240811814Y-130429207D02*
X241754130Y-128903820D01*
X241754130Y-128903820D02*
X242506569Y-127274066D01*
X242506569Y-127274066D02*
X243057697Y-125563502D01*
X243057697Y-125563502D02*
X243398998Y-123796924D01*
X243398998Y-123796924D02*
X243525000Y-122000000D01*
X243525000Y-122000000D02*
X243433361Y-120198904D01*
X243433361Y-120198904D02*
X243124916Y-118419930D01*
X243124916Y-118419930D02*
X242603666Y-116689110D01*
X242603666Y-116689110D02*
X241876732Y-115031834D01*
X241876732Y-115031834D02*
X240954254Y-113472474D01*
X240954254Y-113472474D02*
X239849253Y-112034032D01*
X239849253Y-112034032D02*
X238577446Y-110737792D01*
X238577446Y-110737792D02*
X237157021Y-109603014D01*
X237157021Y-109603014D02*
X235608383Y-108646642D01*
X235608383Y-108646642D02*
X233953852Y-107883053D01*
X233953852Y-107883053D02*
X232217348Y-107323841D01*
X232217348Y-107323841D02*
X230424044Y-106977642D01*
X230424044Y-106977642D02*
X228600000Y-106850000D01*
X228600000Y-106850000D02*
X226771783Y-106943279D01*
X226771783Y-106943279D02*
X224966084Y-107256622D01*
X224966084Y-107256622D02*
X223209324Y-107785955D01*
X223209324Y-107785955D02*
X221527271Y-108524040D01*
X221527271Y-108524040D02*
X219944660Y-109460575D01*
X219944660Y-109460575D02*
X218484829Y-110582332D01*
X218484829Y-110582332D02*
X217169377Y-111873352D01*
X217169377Y-111873352D02*
X216017843Y-113315164D01*
X216017843Y-113315164D02*
X215047414Y-114887054D01*
X215047414Y-114887054D02*
X214272674Y-116566362D01*
X214272674Y-116566362D02*
X213705379Y-118328806D01*
X213705379Y-118328806D02*
X213354283Y-120148835D01*
X213354283Y-120148835D02*
X213225000Y-122000000D01*
X213225000Y-122000000D02*
X213319920Y-123855338D01*
X213319920Y-123855338D02*
X213638160Y-125687762D01*
X213638160Y-125687762D02*
X214175576Y-127470462D01*
X214175576Y-127470462D02*
X214924813Y-129177292D01*
X214924813Y-129177292D02*
X215875403Y-130783155D01*
X215875403Y-130783155D02*
X217013917Y-132264374D01*
X217013917Y-132264374D02*
X218324149Y-133599038D01*
X218324149Y-133599038D02*
X219787349Y-134767329D01*
X219787349Y-134767329D02*
X221382492Y-135751813D01*
X221382492Y-135751813D02*
X223086576Y-136537704D01*
X223086576Y-136537704D02*
X224874960Y-137113083D01*
X224874960Y-137113083D02*
X226721714Y-137469077D01*
X226721714Y-137469077D02*
X228600000Y-137600000D01*
X228600000Y-137600000D02*
X230348445Y-137517881D01*
X230348445Y-137517881D02*
X232078479Y-137240212D01*
X232078479Y-137240212D02*
X233768278Y-136770089D01*
X233768278Y-136770089D02*
X235396479Y-136113034D01*
X235396479Y-136113034D02*
X236942453Y-135276938D01*
X236942453Y-135276938D02*
X238386563Y-134271962D01*
X238386563Y-134271962D02*
X239710415Y-133110415D01*
X239710415Y-133110415D02*
X240897092Y-131806604D01*
X240897092Y-131806604D02*
X241931370Y-130376655D01*
X241931370Y-130376655D02*
X242799913Y-128838318D01*
X242799913Y-128838318D02*
X243491445Y-127210742D01*
X243491445Y-127210742D02*
X243996897Y-125514241D01*
X243996897Y-125514241D02*
X244309525Y-123770038D01*
X244309525Y-123770038D02*
X244425000Y-122000000D01*
X244425000Y-122000000D02*
X244341466Y-120226363D01*
X244341466Y-120226363D02*
X244059571Y-118471454D01*
X244059571Y-118471454D02*
X243582462Y-116757410D01*
X243582462Y-116757410D02*
X242915752Y-115105897D01*
X242915752Y-115105897D02*
X242067451Y-113537840D01*
X242067451Y-113537840D02*
X241047874Y-112073152D01*
X241047874Y-112073152D02*
X239869514Y-110730486D01*
X239869514Y-110730486D02*
X238546889Y-109526996D01*
X238546889Y-109526996D02*
X237096362Y-108478117D01*
X237096362Y-108478117D02*
X235535941Y-107597369D01*
X235535941Y-107597369D02*
X233885055Y-106896181D01*
X233885055Y-106896181D02*
X232164309Y-106383744D01*
X232164309Y-106383744D02*
X230395230Y-106066889D01*
X230395230Y-106066889D02*
X228600000Y-105950000D01*
X228600000Y-105950000D02*
X226801171Y-106034949D01*
X226801171Y-106034949D02*
X225021387Y-106321070D01*
X225021387Y-106321070D02*
X223283097Y-106805164D01*
X223283097Y-106805164D02*
X221608273Y-107481530D01*
X221608273Y-107481530D02*
X220018133Y-108342036D01*
X220018133Y-108342036D02*
X218532866Y-109376214D01*
X218532866Y-109376214D02*
X217171387Y-110571387D01*
X217171387Y-110571387D02*
X215951084Y-111912826D01*
X215951084Y-111912826D02*
X214887604Y-113383931D01*
X214887604Y-113383931D02*
X213994651Y-114966435D01*
X213994651Y-114966435D02*
X213283807Y-116640632D01*
X213283807Y-116640632D02*
X212764385Y-118385624D01*
X212764385Y-118385624D02*
X212443304Y-120179578D01*
X212443304Y-120179578D02*
X212325000Y-122000000D01*
X212325000Y-122000000D02*
X212411363Y-123824021D01*
X212411363Y-123824021D02*
X212701711Y-125628681D01*
X212701711Y-125628681D02*
X213192790Y-127391216D01*
X213192790Y-127391216D02*
X213878812Y-129089350D01*
X213878812Y-129089350D02*
X214751523Y-130701575D01*
X214751523Y-130701575D02*
X215800302Y-132207419D01*
X215800302Y-132207419D02*
X217012288Y-133587712D01*
X217012288Y-133587712D02*
X218372541Y-134824829D01*
X218372541Y-134824829D02*
X219864223Y-135902909D01*
X219864223Y-135902909D02*
X221468811Y-136808067D01*
X221468811Y-136808067D02*
X223166320Y-137528566D01*
X223166320Y-137528566D02*
X224935557Y-138054974D01*
X224935557Y-138054974D02*
X226754386Y-138380281D01*
X226754386Y-138380281D02*
X228600000Y-138500000D01*
X228600000Y-138500000D02*
X230326288Y-138424529D01*
X230326288Y-138424529D02*
X232036780Y-138168780D01*
X232036780Y-138168780D02*
X233712686Y-137735230D01*
X233712686Y-137735230D02*
X235335559Y-137128313D01*
X235335559Y-137128313D02*
X236887500Y-136354371D01*
X236887500Y-136354371D02*
X238351357Y-135421592D01*
X238351357Y-135421592D02*
X239710914Y-134339920D01*
X239710914Y-134339920D02*
X240951067Y-133120951D01*
X240951067Y-133120951D02*
X242057998Y-131777808D01*
X242057998Y-131777808D02*
X243019323Y-130325000D01*
X243019323Y-130325000D02*
X243824235Y-128778266D01*
X243824235Y-128778266D02*
X244463623Y-127154403D01*
X244463623Y-127154403D02*
X244930174Y-125471086D01*
X244930174Y-125471086D02*
X245218461Y-123746671D01*
X245218461Y-123746671D02*
X245325000Y-122000000D01*
X245325000Y-122000000D02*
X245248297Y-120250194D01*
X245248297Y-120250194D02*
X244988863Y-118516440D01*
X244988863Y-118516440D02*
X244549218Y-116817785D01*
X244549218Y-116817785D02*
X243933861Y-115172925D01*
X243933861Y-115172925D02*
X243149227Y-113600000D01*
X243149227Y-113600000D02*
X242203621Y-112116391D01*
X242203621Y-112116391D02*
X241107127Y-110738532D01*
X241107127Y-110738532D02*
X239871505Y-109481725D01*
X239871505Y-109481725D02*
X238510059Y-108359973D01*
X238510059Y-108359973D02*
X237037500Y-107385821D01*
X237037500Y-107385821D02*
X235469782Y-106570217D01*
X235469782Y-106570217D02*
X233823932Y-105922390D01*
X233823932Y-105922390D02*
X232117866Y-105449743D01*
X232117866Y-105449743D02*
X230370190Y-105157772D01*
X230370190Y-105157772D02*
X228600000Y-105050000D01*
X228600000Y-105050000D02*
X226826675Y-105127936D01*
X226826675Y-105127936D02*
X225069659Y-105391054D01*
X225069659Y-105391054D02*
X223348256Y-105836795D01*
X223348256Y-105836795D02*
X221681410Y-106460592D01*
X221681410Y-106460592D02*
X220087500Y-107255918D01*
X220087500Y-107255918D02*
X218584139Y-108214350D01*
X218584139Y-108214350D02*
X217187978Y-109325665D01*
X217187978Y-109325665D02*
X215914518Y-110577941D01*
X215914518Y-110577941D02*
X214777945Y-111957689D01*
X214777945Y-111957689D02*
X213790966Y-113450000D01*
X213790966Y-113450000D02*
X212964669Y-115038702D01*
X212964669Y-115038702D02*
X212308402Y-116706539D01*
X212308402Y-116706539D02*
X211829659Y-118435354D01*
X211829659Y-118435354D02*
X211534004Y-120206292D01*
X211534004Y-120206292D02*
X211425000Y-122000000D01*
X211425000Y-122000000D02*
X211504169Y-123796844D01*
X211504169Y-123796844D02*
X211770971Y-125577121D01*
X211770971Y-125577121D02*
X212222807Y-127321273D01*
X212222807Y-127321273D02*
X212855044Y-129010106D01*
X212855044Y-129010106D02*
X213661062Y-130625000D01*
X213661062Y-130625000D02*
X214632322Y-132148112D01*
X214632322Y-132148112D02*
X215758457Y-133562577D01*
X215758457Y-133562577D02*
X217027386Y-134852690D01*
X217027386Y-134852690D02*
X218425437Y-136004084D01*
X218425437Y-136004084D02*
X219937500Y-137003890D01*
X219937500Y-137003890D02*
X221547187Y-137840878D01*
X221547187Y-137840878D02*
X223237010Y-138505586D01*
X223237010Y-138505586D02*
X224988574Y-138990424D01*
X224988574Y-138990424D02*
X226782773Y-139289763D01*
X226782773Y-139289763D02*
X228600000Y-139400000D01*
X228600000Y-139400000D02*
X230306877Y-139330209D01*
X230306877Y-139330209D02*
X232000059Y-139093248D01*
X232000059Y-139093248D02*
X233663200Y-138691133D01*
X233663200Y-138691133D02*
X235280218Y-138127472D01*
X235280218Y-138127472D02*
X236835448Y-137407440D01*
X236835448Y-137407440D02*
X238313798Y-136537727D01*
X238313798Y-136537727D02*
X239700891Y-135526475D01*
X239700891Y-135526475D02*
X240983208Y-134383208D01*
X240983208Y-134383208D02*
X242148216Y-133118734D01*
X242148216Y-133118734D02*
X243184497Y-131745049D01*
X243184497Y-131745049D02*
X244081852Y-130275222D01*
X244081852Y-130275222D02*
X244831409Y-128723270D01*
X244831409Y-128723270D02*
X245425702Y-127104021D01*
X245425702Y-127104021D02*
X245858756Y-125432980D01*
X245858756Y-125432980D02*
X246126136Y-123726174D01*
X246126136Y-123726174D02*
X246225000Y-122000000D01*
X246225000Y-122000000D02*
X246154126Y-120271070D01*
X246154126Y-120271070D02*
X245913925Y-118556046D01*
X245913925Y-118556046D02*
X245506444Y-116871486D01*
X245506444Y-116871486D02*
X244935345Y-115233679D01*
X244935345Y-115233679D02*
X244205872Y-113658487D01*
X244205872Y-113658487D02*
X243324807Y-112161198D01*
X243324807Y-112161198D02*
X242300402Y-110756370D01*
X242300402Y-110756370D02*
X241142307Y-109457693D01*
X241142307Y-109457693D02*
X239861472Y-108277857D01*
X239861472Y-108277857D02*
X238470052Y-107228423D01*
X238470052Y-107228423D02*
X236981287Y-106319716D01*
X236981287Y-106319716D02*
X235409373Y-105560719D01*
X235409373Y-105560719D02*
X233769335Y-104958986D01*
X233769335Y-104958986D02*
X232076875Y-104520567D01*
X232076875Y-104520567D02*
X230348228Y-104249947D01*
X230348228Y-104249947D02*
X228600000Y-104150000D01*
X228600000Y-104150000D02*
X226849016Y-104221958D01*
X226849016Y-104221958D02*
X225112151Y-104465398D01*
X225112151Y-104465398D02*
X223406172Y-104878244D01*
X223406172Y-104878244D02*
X221747575Y-105456782D01*
X221747575Y-105456782D02*
X220152423Y-106195695D01*
X220152423Y-106195695D02*
X218636195Y-107088112D01*
X218636195Y-107088112D02*
X217213632Y-108125670D01*
X217213632Y-108125670D02*
X215898594Y-109298594D01*
X215898594Y-109298594D02*
X214703929Y-110595789D01*
X214703929Y-110595789D02*
X213641342Y-112004944D01*
X213641342Y-112004944D02*
X212721283Y-113512649D01*
X212721283Y-113512649D02*
X211952846Y-115104523D01*
X211952846Y-115104523D02*
X211343674Y-116765351D01*
X211343674Y-116765351D02*
X210899891Y-118479229D01*
X210899891Y-118479229D02*
X210626031Y-120229719D01*
X210626031Y-120229719D02*
X210525000Y-122000000D01*
X210525000Y-122000000D02*
X210598041Y-123773038D01*
X210598041Y-123773038D02*
X210844721Y-125531744D01*
X210844721Y-125531744D02*
X211262933Y-127259142D01*
X211262933Y-127259142D02*
X211848909Y-128938529D01*
X211848909Y-128938529D02*
X212597263Y-130553641D01*
X212597263Y-130553641D02*
X213501032Y-132088808D01*
X213501032Y-132088808D02*
X214551743Y-133529107D01*
X214551743Y-133529107D02*
X215739495Y-134860505D01*
X215739495Y-134860505D02*
X217053051Y-136069998D01*
X217053051Y-136069998D02*
X218479941Y-137145739D01*
X218479941Y-137145739D02*
X220006585Y-138077149D01*
X220006585Y-138077149D02*
X221618419Y-138855027D01*
X221618419Y-138855027D02*
X223300037Y-139471637D01*
X223300037Y-139471637D02*
X225035334Y-139920786D01*
X225035334Y-139920786D02*
X226807665Y-140197886D01*
X226807665Y-140197886D02*
X228600000Y-140300000D01*
X228600000Y-140300000D02*
X230289732Y-140235114D01*
X230289732Y-140235114D02*
X231967480Y-140014428D01*
X231967480Y-140014428D02*
X233618899Y-139639599D01*
X233618899Y-139639599D02*
X235229847Y-139113608D01*
X235229847Y-139113608D02*
X236786509Y-138440727D01*
X236786509Y-138440727D02*
X238275513Y-137626491D01*
X238275513Y-137626491D02*
X239684046Y-136677649D01*
X239684046Y-136677649D02*
X240999963Y-135602111D01*
X240999963Y-135602111D02*
X242211892Y-134408879D01*
X242211892Y-134408879D02*
X243309335Y-133107974D01*
X243309335Y-133107974D02*
X244282755Y-131710351D01*
X244282755Y-131710351D02*
X245123661Y-130227806D01*
X245123661Y-130227806D02*
X245824682Y-128672877D01*
X245824682Y-128672877D02*
X246379630Y-127058741D01*
X246379630Y-127058741D02*
X246783557Y-125399096D01*
X246783557Y-125399096D02*
X247032797Y-123708050D01*
X247032797Y-123708050D02*
X247125000Y-122000000D01*
X247125000Y-122000000D02*
X247059154Y-120289507D01*
X247059154Y-120289507D02*
X246835597Y-118591176D01*
X246835597Y-118591176D02*
X246456010Y-116919527D01*
X246456010Y-116919527D02*
X245923414Y-115288874D01*
X245923414Y-115288874D02*
X245242139Y-113713200D01*
X245242139Y-113713200D02*
X244417790Y-112206039D01*
X244417790Y-112206039D02*
X243457203Y-110780361D01*
X243457203Y-110780361D02*
X242368388Y-109448456D01*
X242368388Y-109448456D02*
X241160461Y-108221831D01*
X241160461Y-108221831D02*
X239843567Y-107111111D01*
X239843567Y-107111111D02*
X238428798Y-106125946D01*
X238428798Y-106125946D02*
X236928097Y-105274927D01*
X236928097Y-105274927D02*
X235354157Y-104565512D01*
X235354157Y-104565512D02*
X233720315Y-104003959D01*
X233720315Y-104003959D02*
X232040440Y-103595274D01*
X232040440Y-103595274D02*
X230328811Y-103343163D01*
X230328811Y-103343163D02*
X228600000Y-103250000D01*
X228600000Y-103250000D02*
X226868747Y-103316805D01*
X226868747Y-103316805D02*
X225149833Y-103543235D01*
X225149833Y-103543235D02*
X223457953Y-103927579D01*
X223457953Y-103927579D02*
X221807594Y-104466780D01*
X221807594Y-104466780D02*
X220212908Y-105156450D01*
X220212908Y-105156450D02*
X218687592Y-105990911D01*
X218687592Y-105990911D02*
X217244768Y-106963243D01*
X217244768Y-106963243D02*
X215896874Y-108065335D01*
X215896874Y-108065335D02*
X214655554Y-109287958D01*
X214655554Y-109287958D02*
X213531557Y-110620840D01*
X213531557Y-110620840D02*
X212534647Y-112052755D01*
X212534647Y-112052755D02*
X211673515Y-113571612D01*
X211673515Y-113571612D02*
X210955706Y-115164564D01*
X210955706Y-115164564D02*
X210387549Y-116818111D01*
X210387549Y-116818111D02*
X209974105Y-118518217D01*
X209974105Y-118518217D02*
X209719123Y-120250429D01*
X209719123Y-120250429D02*
X209625000Y-122000000D01*
X209625000Y-122000000D02*
X209692765Y-123752013D01*
X209692765Y-123752013D02*
X209922066Y-125491511D01*
X209922066Y-125491511D02*
X210311168Y-127203621D01*
X210311168Y-127203621D02*
X210856973Y-128873685D01*
X210856973Y-128873685D02*
X211555038Y-130487383D01*
X211555038Y-130487383D02*
X212399613Y-132030855D01*
X212399613Y-132030855D02*
X213383689Y-133490825D01*
X213383689Y-133490825D02*
X214499058Y-134854707D01*
X214499058Y-134854707D02*
X215736376Y-136110723D01*
X215736376Y-136110723D02*
X217085247Y-137247997D01*
X217085247Y-137247997D02*
X218534307Y-138256652D01*
X218534307Y-138256652D02*
X220071321Y-139127896D01*
X220071321Y-139127896D02*
X221683285Y-139854101D01*
X221683285Y-139854101D02*
X223356537Y-140428862D01*
X223356537Y-140428862D02*
X225076873Y-140847064D01*
X225076873Y-140847064D02*
X226829669Y-141104917D01*
X226829669Y-141104917D02*
X228600000Y-141200000D01*
X228600000Y-141200000D02*
X230274480Y-141139391D01*
X230274480Y-141139391D02*
X231938386Y-140932929D01*
X231938386Y-140932929D02*
X233579031Y-140581998D01*
X233579031Y-140581998D02*
X235183888Y-140089083D01*
X235183888Y-140089083D02*
X236740684Y-139457754D01*
X236740684Y-139457754D02*
X238237500Y-138692640D01*
X238237500Y-138692640D02*
X239662856Y-137799395D01*
X239662856Y-137799395D02*
X241005801Y-136784658D01*
X241005801Y-136784658D02*
X242256000Y-135656000D01*
X242256000Y-135656000D02*
X243403809Y-134421871D01*
X243403809Y-134421871D02*
X244440353Y-133091534D01*
X244440353Y-133091534D02*
X245357592Y-131675000D01*
X245357592Y-131675000D02*
X246148385Y-130182946D01*
X246148385Y-130182946D02*
X246806545Y-128626640D01*
X246806545Y-128626640D02*
X247326887Y-127017854D01*
X247326887Y-127017854D02*
X247705270Y-125368775D01*
X247705270Y-125368775D02*
X247938630Y-123691911D01*
X247938630Y-123691911D02*
X248025000Y-122000000D01*
X248025000Y-122000000D02*
X247963534Y-120305910D01*
X247963534Y-120305910D02*
X247754511Y-118622543D01*
X247754511Y-118622543D02*
X247399331Y-116962734D01*
X247399331Y-116962734D02*
X246900514Y-115339158D01*
X246900514Y-115339158D02*
X246261673Y-113764227D01*
X246261673Y-113764227D02*
X245487495Y-112250000D01*
X245487495Y-112250000D02*
X244583704Y-110808090D01*
X244583704Y-110808090D02*
X243557018Y-109449572D01*
X243557018Y-109449572D02*
X242415099Y-108184901D01*
X242415099Y-108184901D02*
X241166498Y-107023831D01*
X241166498Y-107023831D02*
X239820589Y-105975338D01*
X239820589Y-105975338D02*
X238387500Y-105047553D01*
X238387500Y-105047553D02*
X236878035Y-104247696D01*
X236878035Y-104247696D02*
X235303595Y-103582025D01*
X235303595Y-103582025D02*
X233676089Y-103055780D01*
X233676089Y-103055780D02*
X232007845Y-102673148D01*
X232007845Y-102673148D02*
X230311521Y-102437227D01*
X230311521Y-102437227D02*
X228600000Y-102350000D01*
X228600000Y-102350000D02*
X226886300Y-102412322D01*
X226886300Y-102412322D02*
X225183472Y-102623907D01*
X225183472Y-102623907D02*
X223504500Y-102983335D01*
X223504500Y-102983335D02*
X221862203Y-103488055D01*
X221862203Y-103488055D02*
X220269138Y-104134408D01*
X220269138Y-104134408D02*
X218737500Y-104917649D01*
X218737500Y-104917649D02*
X217279035Y-105831987D01*
X217279035Y-105831987D02*
X215904945Y-106870622D01*
X215904945Y-106870622D02*
X214625802Y-108025802D01*
X214625802Y-108025802D02*
X213451471Y-109288875D01*
X213451471Y-109288875D02*
X212391029Y-110650356D01*
X212391029Y-110650356D02*
X211452697Y-112100000D01*
X211452697Y-112100000D02*
X210643777Y-113626876D01*
X210643777Y-113626876D02*
X209970594Y-115219451D01*
X209970594Y-115219451D02*
X209438446Y-116865677D01*
X209438446Y-116865677D02*
X209051566Y-118553084D01*
X209051566Y-118553084D02*
X208813083Y-120268869D01*
X208813083Y-120268869D02*
X208725000Y-122000000D01*
X208725000Y-122000000D02*
X208788178Y-123733310D01*
X208788178Y-123733310D02*
X209002326Y-125455599D01*
X209002326Y-125455599D02*
X209366002Y-127153734D01*
X209366002Y-127153734D02*
X209876625Y-128814751D01*
X209876625Y-128814751D02*
X210530488Y-130425952D01*
X210530488Y-130425952D02*
X211322793Y-131975000D01*
X211322793Y-131975000D02*
X212247677Y-133450020D01*
X212247677Y-133450020D02*
X213298262Y-134839683D01*
X213298262Y-134839683D02*
X214466703Y-136133297D01*
X214466703Y-136133297D02*
X215744248Y-137320889D01*
X215744248Y-137320889D02*
X217121302Y-138393280D01*
X217121302Y-138393280D02*
X218587500Y-139342159D01*
X218587500Y-139342159D02*
X220131787Y-140160142D01*
X220131787Y-140160142D02*
X221742496Y-140840837D01*
X221742496Y-140840837D02*
X223407443Y-141378887D01*
X223407443Y-141378887D02*
X225114013Y-141770016D01*
X225114013Y-141770016D02*
X226849259Y-142011061D01*
X226849259Y-142011061D02*
X228600000Y-142100000D01*
X228600000Y-142100000D02*
X230260823Y-142043150D01*
X230260823Y-142043150D02*
X231912250Y-141849223D01*
X231912250Y-141849223D02*
X233542979Y-141519385D01*
X233542979Y-141519385D02*
X235141840Y-141055728D01*
X235141840Y-141055728D02*
X236697863Y-140461267D01*
X236697863Y-140461267D02*
X238200360Y-139739911D01*
X238200360Y-139739911D02*
X239638997Y-138896443D01*
X239638997Y-138896443D02*
X241003864Y-137936485D01*
X241003864Y-137936485D02*
X242285544Y-136866463D01*
X242285544Y-136866463D02*
X243475176Y-135693564D01*
X243475176Y-135693564D02*
X244564520Y-134425685D01*
X244564520Y-134425685D02*
X245546012Y-133071382D01*
X245546012Y-133071382D02*
X246412815Y-131639813D01*
X246412815Y-131639813D02*
X247158869Y-130140675D01*
X247158869Y-130140675D02*
X247778934Y-128584136D01*
X247778934Y-128584136D02*
X248268621Y-126980771D01*
X248268621Y-126980771D02*
X248624432Y-125341487D01*
X248624432Y-125341487D02*
X248843778Y-123677447D01*
X248843778Y-123677447D02*
X248925000Y-122000000D01*
X248925000Y-122000000D02*
X248867381Y-120320597D01*
X248867381Y-120320597D02*
X248671155Y-118650717D01*
X248671155Y-118650717D02*
X248337500Y-117001786D01*
X248337500Y-117001786D02*
X247868537Y-115385103D01*
X247868537Y-115385103D02*
X247267316Y-113811756D01*
X247267316Y-113811756D02*
X246537793Y-112292552D01*
X246537793Y-112292552D02*
X245684805Y-110837940D01*
X245684805Y-110837940D02*
X244714042Y-109457938D01*
X244714042Y-109457938D02*
X243632001Y-108162068D01*
X243632001Y-108162068D02*
X242445952Y-106959286D01*
X242445952Y-106959286D02*
X241163883Y-105857923D01*
X241163883Y-105857923D02*
X239794446Y-104865626D01*
X239794446Y-104865626D02*
X238346902Y-103989303D01*
X238346902Y-103989303D02*
X236831056Y-103235082D01*
X236831056Y-103235082D02*
X235257194Y-102608258D01*
X235257194Y-102608258D02*
X233636006Y-102113264D01*
X233636006Y-102113264D02*
X231978521Y-101753636D01*
X231978521Y-101753636D02*
X230296028Y-101531990D01*
X230296028Y-101531990D02*
X228600000Y-101450000D01*
X228600000Y-101450000D02*
X226902017Y-101508387D01*
X226902017Y-101508387D02*
X225213683Y-101706914D01*
X225213683Y-101706914D02*
X223546552Y-102044385D01*
X223546552Y-102044385D02*
X221912045Y-102518654D01*
X221912045Y-102518654D02*
X220321374Y-103126635D01*
X220321374Y-103126635D02*
X218785464Y-103864325D01*
X218785464Y-103864325D02*
X217314876Y-104726832D01*
X217314876Y-104726832D02*
X215919740Y-105708402D01*
X215919740Y-105708402D02*
X214609680Y-106802461D01*
X214609680Y-106802461D02*
X213393748Y-108001659D01*
X213393748Y-108001659D02*
X212280367Y-109297919D01*
X212280367Y-109297919D02*
X211277263Y-110682491D01*
X211277263Y-110682491D02*
X210391422Y-112146010D01*
X210391422Y-112146010D02*
X209629033Y-113678562D01*
X209629033Y-113678562D02*
X208995449Y-115269749D01*
X208995449Y-115269749D02*
X208495149Y-116908760D01*
X208495149Y-116908760D02*
X208131705Y-118584446D01*
X208131705Y-118584446D02*
X207907759Y-120285392D01*
X207907759Y-120285392D02*
X207825000Y-122000000D01*
X207825000Y-122000000D02*
X207884155Y-123716564D01*
X207884155Y-123716564D02*
X208084983Y-125423351D01*
X208084983Y-125423351D02*
X208426270Y-127108682D01*
X208426270Y-127108682D02*
X208905845Y-128761012D01*
X208905845Y-128761012D02*
X209520586Y-130369007D01*
X209520586Y-130369007D02*
X210266444Y-131921624D01*
X210266444Y-131921624D02*
X211138470Y-133408187D01*
X211138470Y-133408187D02*
X212130845Y-134818458D01*
X212130845Y-134818458D02*
X213236923Y-136142709D01*
X213236923Y-136142709D02*
X214449271Y-137371789D01*
X214449271Y-137371789D02*
X215759722Y-138497190D01*
X215759722Y-138497190D02*
X217159428Y-139511099D01*
X217159428Y-139511099D02*
X218638922Y-140406460D01*
X218638922Y-140406460D02*
X220188181Y-141177016D01*
X220188181Y-141177016D02*
X221796692Y-141817360D01*
X221796692Y-141817360D02*
X223453526Y-142322966D01*
X223453526Y-142322966D02*
X225147412Y-142690226D01*
X225147412Y-142690226D02*
X226866812Y-142916473D01*
X226866812Y-142916473D02*
X228600000Y-143000000D01*
X228600000Y-143000000D02*
X230248524Y-142946479D01*
X230248524Y-142946479D02*
X231888644Y-142763678D01*
X231888644Y-142763678D02*
X233510231Y-142452586D01*
X233510231Y-142452586D02*
X235103263Y-142014984D01*
X235103263Y-142014984D02*
X236657878Y-141453438D01*
X236657878Y-141453438D02*
X238164445Y-140771280D01*
X238164445Y-140771280D02*
X239613617Y-139972589D01*
X239613617Y-139972589D02*
X240996391Y-139062168D01*
X240996391Y-139062168D02*
X242304166Y-138045516D01*
X242304166Y-138045516D02*
X243528792Y-136928792D01*
X243528792Y-136928792D02*
X244662626Y-135718778D01*
X244662626Y-135718778D02*
X245698574Y-134422841D01*
X245698574Y-134422841D02*
X246630142Y-133048885D01*
X246630142Y-133048885D02*
X247451471Y-131605304D01*
X247451471Y-131605304D02*
X248157375Y-130100930D01*
X248157375Y-130100930D02*
X248743377Y-128544980D01*
X248743377Y-128544980D02*
X249205734Y-126946999D01*
X249205734Y-126946999D02*
X249541462Y-125316802D01*
X249541462Y-125316802D02*
X249748355Y-123664412D01*
X249748355Y-123664412D02*
X249825000Y-122000000D01*
X249825000Y-122000000D02*
X249770786Y-120333823D01*
X249770786Y-120333823D02*
X249585908Y-118676159D01*
X249585908Y-118676159D02*
X249271369Y-117037243D01*
X249271369Y-117037243D02*
X248828972Y-115427209D01*
X248828972Y-115427209D02*
X248261311Y-113856018D01*
X248261311Y-113856018D02*
X247571756Y-112333407D01*
X247571756Y-112333407D02*
X246764433Y-110868821D01*
X246764433Y-110868821D02*
X245844197Y-109471357D01*
X245844197Y-109471357D02*
X244816608Y-108149709D01*
X244816608Y-108149709D02*
X243687891Y-106912109D01*
X243687891Y-106912109D02*
X242464904Y-105766283D01*
X242464904Y-105766283D02*
X241155093Y-104719397D01*
X241155093Y-104719397D02*
X239766447Y-103778014D01*
X239766447Y-103778014D02*
X238307452Y-102948053D01*
X238307452Y-102948053D02*
X236787034Y-102234752D01*
X236787034Y-102234752D02*
X235214509Y-101642635D01*
X235214509Y-101642635D02*
X233599524Y-101175483D01*
X233599524Y-101175483D02*
X231951999Y-100836308D01*
X231951999Y-100836308D02*
X230282065Y-100627339D01*
X230282065Y-100627339D02*
X228600000Y-100550000D01*
X228600000Y-100550000D02*
X226916170Y-100604908D01*
X226916170Y-100604908D02*
X225240961Y-100791862D01*
X225240961Y-100791862D02*
X223584718Y-101109848D01*
X223584718Y-101109848D02*
X221957680Y-101557040D01*
X221957680Y-101557040D02*
X220369914Y-102130816D01*
X220369914Y-102130816D02*
X218831259Y-102827767D01*
X218831259Y-102827767D02*
X217351259Y-103643723D01*
X217351259Y-103643723D02*
X215939106Y-104573774D01*
X215939106Y-104573774D02*
X214603583Y-105612301D01*
X214603583Y-105612301D02*
X213353010Y-106753010D01*
X213353010Y-106753010D02*
X212195192Y-107988970D01*
X212195192Y-107988970D02*
X211137368Y-109312655D01*
X211137368Y-109312655D02*
X210186170Y-110715990D01*
X210186170Y-110715990D02*
X209347577Y-112190400D01*
X209347577Y-112190400D02*
X208626879Y-113726863D01*
X208626879Y-113726863D02*
X208028648Y-115315962D01*
X208028648Y-115315962D02*
X207556699Y-116947951D01*
X207556699Y-116947951D02*
X207214078Y-118612803D01*
X207214078Y-118612803D02*
X207003032Y-120300282D01*
X207003032Y-120300282D02*
X206925000Y-122000000D01*
X206925000Y-122000000D02*
X206980601Y-123701484D01*
X206980601Y-123701484D02*
X207169632Y-125394237D01*
X207169632Y-125394237D02*
X207491064Y-127067807D01*
X207491064Y-127067807D02*
X207943052Y-128711849D01*
X207943052Y-128711849D02*
X208522943Y-130316189D01*
X208522943Y-130316189D02*
X209227291Y-131870888D01*
X209227291Y-131870888D02*
X210051879Y-133366303D01*
X210051879Y-133366303D02*
X210991745Y-134793146D01*
X210991745Y-134793146D02*
X212041210Y-136142543D01*
X212041210Y-136142543D02*
X213193911Y-137406089D01*
X213193911Y-137406089D02*
X214442844Y-138575900D01*
X214442844Y-138575900D02*
X215780404Y-139644661D01*
X215780404Y-139644661D02*
X217198428Y-140605674D01*
X217198428Y-140605674D02*
X218688252Y-141452900D01*
X218688252Y-141452900D02*
X220240759Y-142180994D01*
X220240759Y-142180994D02*
X221846434Y-142785340D01*
X221846434Y-142785340D02*
X223495425Y-143262084D01*
X223495425Y-143262084D02*
X225177605Y-143608152D01*
X225177605Y-143608152D02*
X226882628Y-143821274D01*
X226882628Y-143821274D02*
X228600000Y-143900000D01*
X228600000Y-143900000D02*
X230237390Y-143849447D01*
X230237390Y-143849447D02*
X231867219Y-143676584D01*
X231867219Y-143676584D02*
X233480361Y-143382258D01*
X233480361Y-143382258D02*
X235067771Y-142967998D01*
X235067771Y-142967998D02*
X236620540Y-142436003D01*
X236620540Y-142436003D02*
X238129946Y-141789138D01*
X238129946Y-141789138D02*
X239587500Y-141030908D01*
X239587500Y-141030908D02*
X240984994Y-140165450D01*
X240984994Y-140165450D02*
X242314549Y-139197500D01*
X242314549Y-139197500D02*
X243568659Y-138132377D01*
X243568659Y-138132377D02*
X244740231Y-136975946D01*
X244740231Y-136975946D02*
X245822631Y-135734590D01*
X245822631Y-135734590D02*
X246809712Y-134415172D01*
X246809712Y-134415172D02*
X247695860Y-133025000D01*
X247695860Y-133025000D02*
X248476017Y-131571785D01*
X248476017Y-131571785D02*
X249145713Y-130063598D01*
X249145713Y-130063598D02*
X249701095Y-128508826D01*
X249701095Y-128508826D02*
X250138943Y-126916123D01*
X250138943Y-126916123D02*
X250456693Y-125294366D01*
X250456693Y-125294366D02*
X250652450Y-123652603D01*
X250652450Y-123652603D02*
X250725000Y-122000000D01*
X250725000Y-122000000D02*
X250673818Y-120345796D01*
X250673818Y-120345796D02*
X250499071Y-118699246D01*
X250499071Y-118699246D02*
X250201617Y-117069572D01*
X250201617Y-117069572D02*
X249783001Y-115465909D01*
X249783001Y-115465909D02*
X249245450Y-113897258D01*
X249245450Y-113897258D02*
X248591856Y-112372430D01*
X248591856Y-112372430D02*
X247825764Y-110900000D01*
X247825764Y-110900000D02*
X246951353Y-109488259D01*
X246951353Y-109488259D02*
X245973412Y-108145166D01*
X245973412Y-108145166D02*
X244897314Y-106878303D01*
X244897314Y-106878303D02*
X243728985Y-105694832D01*
X243728985Y-105694832D02*
X242474875Y-104601457D01*
X242474875Y-104601457D02*
X241141919Y-103604384D01*
X241141919Y-103604384D02*
X239737500Y-102709284D01*
X239737500Y-102709284D02*
X238269409Y-101921265D01*
X238269409Y-101921265D02*
X236745800Y-101244840D01*
X236745800Y-101244840D02*
X235175146Y-100683901D01*
X235175146Y-100683901D02*
X233566190Y-100241698D01*
X233566190Y-100241698D02*
X231927901Y-99920820D01*
X231927901Y-99920820D02*
X230269417Y-99723179D01*
X230269417Y-99723179D02*
X228600000Y-99650000D01*
X228600000Y-99650000D02*
X226928982Y-99701811D01*
X226928982Y-99701811D02*
X225265712Y-99878442D01*
X225265712Y-99878442D02*
X223619505Y-100179024D01*
X223619505Y-100179024D02*
X221999589Y-100601995D01*
X221999589Y-100601995D02*
X220415056Y-101145103D01*
X220415056Y-101145103D02*
X218874806Y-101805426D01*
X218874806Y-101805426D02*
X217387500Y-102579380D01*
X217387500Y-102579380D02*
X215961512Y-103462743D01*
X215961512Y-103462743D02*
X214604881Y-104450675D01*
X214604881Y-104450675D02*
X213325264Y-105537749D01*
X213325264Y-105537749D02*
X212129895Y-106717976D01*
X212129895Y-106717976D02*
X211025545Y-107984840D01*
X211025545Y-107984840D02*
X210018480Y-109331334D01*
X210018480Y-109331334D02*
X209114428Y-110750000D01*
X209114428Y-110750000D02*
X208318547Y-112232967D01*
X208318547Y-112232967D02*
X207635393Y-113771998D01*
X207635393Y-113771998D02*
X207068897Y-115358534D01*
X207068897Y-115358534D02*
X206622339Y-116983742D01*
X206622339Y-116983742D02*
X206298333Y-118638565D01*
X206298333Y-118638565D02*
X206098809Y-120313769D01*
X206098809Y-120313769D02*
X206025000Y-122000000D01*
X206025000Y-122000000D02*
X206077440Y-123687833D01*
X206077440Y-123687833D02*
X206255955Y-125367823D01*
X206255955Y-125367823D02*
X206559665Y-127030563D01*
X206559665Y-127030563D02*
X206986991Y-128666730D01*
X206986991Y-128666730D02*
X207535657Y-130267145D01*
X207535657Y-130267145D02*
X208202708Y-131822818D01*
X208202708Y-131822818D02*
X208984525Y-133325000D01*
X208984525Y-133325000D02*
X209876839Y-134765235D01*
X209876839Y-134765235D02*
X210874763Y-136135405D01*
X210874763Y-136135405D02*
X211972813Y-137427775D01*
X211972813Y-137427775D02*
X213164937Y-138635041D01*
X213164937Y-138635041D02*
X214444555Y-139750367D01*
X214444555Y-139750367D02*
X215804587Y-140767424D01*
X215804587Y-140767424D02*
X217237500Y-141680427D01*
X217237500Y-141680427D02*
X218735343Y-142484171D01*
X218735343Y-142484171D02*
X220289796Y-143174053D01*
X220289796Y-143174053D02*
X221892214Y-143746107D01*
X221892214Y-143746107D02*
X223533675Y-144197019D01*
X223533675Y-144197019D02*
X225205030Y-144524154D01*
X225205030Y-144524154D02*
X226896955Y-144725562D01*
X226896955Y-144725562D02*
X228600000Y-144800000D01*
X228600000Y-144800000D02*
X230227263Y-144752109D01*
X230227263Y-144752109D02*
X231847689Y-144588175D01*
X231847689Y-144588175D02*
X233453010Y-144308929D01*
X233453010Y-144308929D02*
X235035028Y-143915692D01*
X235035028Y-143915692D02*
X236585654Y-143410366D01*
X236585654Y-143410366D02*
X238096954Y-142795428D01*
X238096954Y-142795428D02*
X239561187Y-142073915D01*
X239561187Y-142073915D02*
X240970845Y-141249410D01*
X240970845Y-141249410D02*
X242318692Y-140326026D01*
X242318692Y-140326026D02*
X243597799Y-139308383D01*
X243597799Y-139308383D02*
X244801584Y-138201584D01*
X244801584Y-138201584D02*
X245923841Y-137011194D01*
X245923841Y-137011194D02*
X246958776Y-135743207D01*
X246958776Y-135743207D02*
X247901033Y-134404021D01*
X247901033Y-134404021D02*
X248745725Y-133000398D01*
X248745725Y-133000398D02*
X249488458Y-131539439D01*
X249488458Y-131539439D02*
X250125355Y-130028542D01*
X250125355Y-130028542D02*
X250653074Y-128475367D01*
X250653074Y-128475367D02*
X251068826Y-126887794D01*
X251068826Y-126887794D02*
X251370392Y-125273888D01*
X251370392Y-125273888D02*
X251556134Y-123641855D01*
X251556134Y-123641855D02*
X251625000Y-122000000D01*
X251625000Y-122000000D02*
X251576536Y-120356686D01*
X251576536Y-120356686D02*
X251410885Y-118720290D01*
X251410885Y-118720290D02*
X251128787Y-117099162D01*
X251128787Y-117099162D02*
X250731578Y-115501582D01*
X250731578Y-115501582D02*
X250221180Y-113935717D01*
X250221180Y-113935717D02*
X249600095Y-112409578D01*
X249600095Y-112409578D02*
X248871393Y-110930982D01*
X248871393Y-110930982D02*
X248038692Y-109507511D01*
X248038692Y-109507511D02*
X247106148Y-108146471D01*
X247106148Y-108146471D02*
X246078427Y-106854857D01*
X246078427Y-106854857D02*
X244960683Y-105639317D01*
X244960683Y-105639317D02*
X243758538Y-104506115D01*
X243758538Y-104506115D02*
X242478045Y-103461102D01*
X242478045Y-103461102D02*
X241125665Y-102509685D01*
X241125665Y-102509685D02*
X239708229Y-101656797D01*
X239708229Y-101656797D02*
X238232908Y-100906874D01*
X238232908Y-100906874D02*
X236707172Y-100263831D01*
X236707172Y-100263831D02*
X235138757Y-99731040D01*
X235138757Y-99731040D02*
X233535621Y-99311316D01*
X233535621Y-99311316D02*
X231905909Y-99006898D01*
X231905909Y-99006898D02*
X230257906Y-98819440D01*
X230257906Y-98819440D02*
X228600000Y-98750000D01*
X228600000Y-98750000D02*
X226940634Y-98799037D01*
X226940634Y-98799037D02*
X225288269Y-98966405D01*
X225288269Y-98966405D02*
X223651335Y-99251355D01*
X223651335Y-99251355D02*
X222038193Y-99652536D01*
X222038193Y-99652536D02*
X220457087Y-100168007D01*
X220457087Y-100168007D02*
X218916110Y-100795238D01*
X218916110Y-100795238D02*
X217423151Y-101531130D01*
X217423151Y-101531130D02*
X215985867Y-102372026D01*
X215985867Y-102372026D02*
X214611633Y-103313730D01*
X214611633Y-103313730D02*
X213307514Y-104351530D01*
X213307514Y-104351530D02*
X212080218Y-105480218D01*
X212080218Y-105480218D02*
X210936071Y-106694119D01*
X210936071Y-106694119D02*
X209880981Y-107987118D01*
X209880981Y-107987118D02*
X208920403Y-109352691D01*
X208920403Y-109352691D02*
X208059320Y-110783940D01*
X208059320Y-110783940D02*
X207302207Y-112273624D01*
X207302207Y-112273624D02*
X206653017Y-113814199D01*
X206653017Y-113814199D02*
X206115154Y-115397854D01*
X206115154Y-115397854D02*
X205691458Y-117016552D01*
X205691458Y-117016552D02*
X205384188Y-118662070D01*
X205384188Y-118662070D02*
X205195013Y-120326042D01*
X205195013Y-120326042D02*
X205125000Y-122000000D01*
X205125000Y-122000000D02*
X205174610Y-123675417D01*
X205174610Y-123675417D02*
X205343695Y-125343752D01*
X205343695Y-125343752D02*
X205631497Y-126996492D01*
X205631497Y-126996492D02*
X206036650Y-128625197D01*
X206036650Y-128625197D02*
X206557193Y-130221542D01*
X206557193Y-130221542D02*
X207190571Y-131777359D01*
X207190571Y-131777359D02*
X207933652Y-133284680D01*
X207933652Y-133284680D02*
X208782743Y-134735777D01*
X208782743Y-134735777D02*
X209733608Y-136123204D01*
X209733608Y-136123204D02*
X210781486Y-137439830D01*
X210781486Y-137439830D02*
X211921119Y-138678881D01*
X211921119Y-138678881D02*
X213146775Y-139833972D01*
X213146775Y-139833972D02*
X214452280Y-140899141D01*
X214452280Y-140899141D02*
X215831047Y-141868879D01*
X215831047Y-141868879D02*
X217276109Y-142738158D01*
X217276109Y-142738158D02*
X218780156Y-143502460D01*
X218780156Y-143502460D02*
X220335569Y-144157796D01*
X220335569Y-144157796D02*
X221934464Y-144700731D01*
X221934464Y-144700731D02*
X223568725Y-145128400D01*
X223568725Y-145128400D02*
X225230049Y-145438522D01*
X225230049Y-145438522D02*
X226909991Y-145629414D01*
X226909991Y-145629414D02*
X228600000Y-145700000D01*
X228600000Y-145700000D02*
X230218013Y-145654510D01*
X230218013Y-145654510D02*
X231829814Y-145498640D01*
X231829814Y-145498640D02*
X233427879Y-145233027D01*
X233427879Y-145233027D02*
X235004741Y-144858819D01*
X235004741Y-144858819D02*
X236553027Y-144377673D01*
X236553027Y-144377673D02*
X238065490Y-143791744D01*
X238065490Y-143791744D02*
X239535046Y-143103681D01*
X239535046Y-143103681D02*
X240954803Y-142316607D01*
X240954803Y-142316607D02*
X242318097Y-141434115D01*
X242318097Y-141434115D02*
X243618521Y-140460242D01*
X243618521Y-140460242D02*
X244849958Y-139399457D01*
X244849958Y-139399457D02*
X246006606Y-138256635D01*
X246006606Y-138256635D02*
X247083008Y-137037042D01*
X247083008Y-137037042D02*
X248074076Y-135746304D01*
X248074076Y-135746304D02*
X248975117Y-134390383D01*
X248975117Y-134390383D02*
X249781853Y-132975552D01*
X249781853Y-132975552D02*
X250490444Y-131508362D01*
X250490444Y-131508362D02*
X251097504Y-129995615D01*
X251097504Y-129995615D02*
X251600117Y-128444330D01*
X251600117Y-128444330D02*
X251995853Y-126861714D01*
X251995853Y-126861714D02*
X252282778Y-125255123D01*
X252282778Y-125255123D02*
X252459465Y-123632032D01*
X252459465Y-123632032D02*
X252525000Y-122000000D01*
X252525000Y-122000000D02*
X252478985Y-120366633D01*
X252478985Y-120366633D02*
X252321544Y-118739549D01*
X252321544Y-118739549D02*
X252053321Y-117126344D01*
X252053321Y-117126344D02*
X251675475Y-115534555D01*
X251675475Y-115534555D02*
X251189681Y-113971625D01*
X251189681Y-113971625D02*
X250598117Y-112444870D01*
X250598117Y-112444870D02*
X249903455Y-110961440D01*
X249903455Y-110961440D02*
X249108852Y-109528291D01*
X249108852Y-109528291D02*
X248217934Y-108152150D01*
X248217934Y-108152150D02*
X247234777Y-106839484D01*
X247234777Y-106839484D02*
X246163895Y-105596467D01*
X246163895Y-105596467D02*
X245010210Y-104428956D01*
X245010210Y-104428956D02*
X243779037Y-103342457D01*
X243779037Y-103342457D02*
X242476057Y-102342106D01*
X242476057Y-102342106D02*
X241107289Y-101432639D01*
X241107289Y-101432639D02*
X239679066Y-100618373D01*
X239679066Y-100618373D02*
X238198002Y-99903183D01*
X238198002Y-99903183D02*
X236670963Y-99290488D01*
X236670963Y-99290488D02*
X235105035Y-98783227D01*
X235105035Y-98783227D02*
X233507492Y-98383853D01*
X233507492Y-98383853D02*
X231885760Y-98094317D01*
X231885760Y-98094317D02*
X230247387Y-97916059D01*
X230247387Y-97916059D02*
X228600000Y-97850000D01*
X228600000Y-97850000D02*
X226951278Y-97896539D01*
X226951278Y-97896539D02*
X225308911Y-98055551D01*
X225308911Y-98055551D02*
X223680566Y-98326385D01*
X223680566Y-98326385D02*
X222073851Y-98707868D01*
X222073851Y-98707868D02*
X220496277Y-99198310D01*
X220496277Y-99198310D02*
X218955229Y-99795511D01*
X218955229Y-99795511D02*
X217457925Y-100496771D01*
X217457925Y-100496771D02*
X216011385Y-101298904D01*
X216011385Y-101298904D02*
X214622397Y-102198248D01*
X214622397Y-102198248D02*
X213297489Y-103190688D01*
X213297489Y-103190688D02*
X212042893Y-104271667D01*
X212042893Y-104271667D02*
X210864518Y-105436216D01*
X210864518Y-105436216D02*
X209767922Y-106678968D01*
X209767922Y-106678968D02*
X208758288Y-107994190D01*
X208758288Y-107994190D02*
X207840395Y-109375804D01*
X207840395Y-109375804D02*
X207018599Y-110817419D01*
X207018599Y-110817419D02*
X206296811Y-112312358D01*
X206296811Y-112312358D02*
X205678479Y-113853689D01*
X205678479Y-113853689D02*
X205166570Y-115434261D01*
X205166570Y-115434261D02*
X204763559Y-117046731D01*
X204763559Y-117046731D02*
X204471413Y-118683602D01*
X204471413Y-118683602D02*
X204291584Y-120337259D01*
X204291584Y-120337259D02*
X204225000Y-122000000D01*
X204225000Y-122000000D02*
X204272064Y-123664076D01*
X204272064Y-123664076D02*
X204432647Y-125321726D01*
X204432647Y-125321726D02*
X204706091Y-126965211D01*
X204706091Y-126965211D02*
X205091212Y-128586854D01*
X205091212Y-128586854D02*
X205586301Y-130179071D01*
X205586301Y-130179071D02*
X206189138Y-131734411D01*
X206189138Y-131734411D02*
X206896997Y-133245590D01*
X206896997Y-133245590D02*
X207706659Y-134705522D01*
X207706659Y-134705522D02*
X208614430Y-136107356D01*
X208614430Y-136107356D02*
X209616152Y-137444506D01*
X209616152Y-137444506D02*
X210707229Y-138710682D01*
X210707229Y-138710682D02*
X211882641Y-139899920D01*
X211882641Y-139899920D02*
X213136973Y-141006613D01*
X213136973Y-141006613D02*
X214464437Y-142025530D01*
X214464437Y-142025530D02*
X215858898Y-142951850D01*
X215858898Y-142951850D02*
X217313905Y-143781176D01*
X217313905Y-143781176D02*
X218822718Y-144509562D01*
X218822718Y-144509562D02*
X220378342Y-145133530D01*
X220378342Y-145133530D02*
X221973557Y-145650086D01*
X221973557Y-145650086D02*
X223600953Y-146056735D01*
X223600953Y-146056735D02*
X225252965Y-146351491D01*
X225252965Y-146351491D02*
X226921904Y-146532892D01*
X226921904Y-146532892D02*
X228600000Y-146600000D01*
X228600000Y-146600000D02*
X230209530Y-146556684D01*
X230209530Y-146556684D02*
X231813392Y-146408133D01*
X231813392Y-146408133D02*
X233404709Y-146154902D01*
X233404709Y-146154902D02*
X234976654Y-145797998D01*
X234976654Y-145797998D02*
X236522478Y-145338869D01*
X236522478Y-145338869D02*
X238035538Y-144779405D01*
X238035538Y-144779405D02*
X239509327Y-144121927D01*
X239509327Y-144121927D02*
X240937500Y-143369177D01*
X240937500Y-143369177D02*
X242313904Y-142524308D01*
X242313904Y-142524308D02*
X243632603Y-141590869D01*
X243632603Y-141590869D02*
X244887902Y-140572793D01*
X244887902Y-140572793D02*
X246074376Y-139474376D01*
X246074376Y-139474376D02*
X247186890Y-138300265D01*
X247186890Y-138300265D02*
X248220620Y-137055431D01*
X248220620Y-137055431D02*
X249171078Y-135745155D01*
X249171078Y-135745155D02*
X250034129Y-134375000D01*
X250034129Y-134375000D02*
X250806009Y-132950792D01*
X250806009Y-132950792D02*
X251483341Y-131478590D01*
X251483341Y-131478590D02*
X252063153Y-129964667D01*
X252063153Y-129964667D02*
X252542886Y-128415477D01*
X252542886Y-128415477D02*
X252920410Y-126837630D01*
X252920410Y-126837630D02*
X253194029Y-125237865D01*
X253194029Y-125237865D02*
X253362493Y-123623020D01*
X253362493Y-123623020D02*
X253425000Y-122000000D01*
X253425000Y-122000000D02*
X253381203Y-120375754D01*
X253381203Y-120375754D02*
X253231208Y-118757240D01*
X253231208Y-118757240D02*
X252975579Y-117151396D01*
X252975579Y-117151396D02*
X252615331Y-115565111D01*
X252615331Y-115565111D02*
X252151928Y-114005198D01*
X252151928Y-114005198D02*
X251587278Y-112478358D01*
X251587278Y-112478358D02*
X250923723Y-110991158D01*
X250923723Y-110991158D02*
X250164033Y-109550000D01*
X250164033Y-109550000D02*
X249311388Y-108161093D01*
X249311388Y-108161093D02*
X248369374Y-106830426D01*
X248369374Y-106830426D02*
X247341957Y-105563745D01*
X247341957Y-105563745D02*
X246233475Y-104366525D01*
X246233475Y-104366525D02*
X245048618Y-103243946D01*
X245048618Y-103243946D02*
X243792402Y-102200876D01*
X243792402Y-102200876D02*
X242470158Y-101241841D01*
X242470158Y-101241841D02*
X241087500Y-100371016D01*
X241087500Y-100371016D02*
X239650306Y-99592195D01*
X239650306Y-99592195D02*
X238164694Y-98908786D01*
X238164694Y-98908786D02*
X236636991Y-98323788D01*
X236636991Y-98323788D02*
X235073711Y-97839780D01*
X235073711Y-97839780D02*
X233481526Y-97458913D01*
X233481526Y-97458913D02*
X231867234Y-97182896D01*
X231867234Y-97182896D02*
X230237735Y-97012989D01*
X230237735Y-97012989D02*
X228600000Y-96950000D01*
X228600000Y-96950000D02*
X226961038Y-96994279D01*
X226961038Y-96994279D02*
X225327872Y-97145717D01*
X225327872Y-97145717D02*
X223707501Y-97403744D01*
X223707501Y-97403744D02*
X222106877Y-97767336D01*
X222106877Y-97767336D02*
X220532874Y-98235013D01*
X220532874Y-98235013D02*
X218992254Y-98804849D01*
X218992254Y-98804849D02*
X217491643Y-99474481D01*
X217491643Y-99474481D02*
X216037500Y-100241112D01*
X216037500Y-100241112D02*
X214636089Y-101101531D01*
X214636089Y-101101531D02*
X213293455Y-102052122D01*
X213293455Y-102052122D02*
X212015392Y-103088879D01*
X212015392Y-103088879D02*
X210807426Y-104207426D01*
X210807426Y-104207426D02*
X209674782Y-105403030D01*
X209674782Y-105403030D02*
X208622371Y-106670626D01*
X208622371Y-106670626D02*
X207654761Y-108004839D01*
X207654761Y-108004839D02*
X206776160Y-109400000D01*
X206776160Y-109400000D02*
X205990399Y-110850179D01*
X205990399Y-110850179D02*
X205300913Y-112349202D01*
X205300913Y-112349202D02*
X204710728Y-113890685D01*
X204710728Y-113890685D02*
X204222447Y-115468054D01*
X204222447Y-115468054D02*
X203838237Y-117074579D01*
X203838237Y-117074579D02*
X203559821Y-118703398D01*
X203559821Y-118703398D02*
X203388471Y-120347549D01*
X203388471Y-120347549D02*
X203325000Y-122000000D01*
X203325000Y-122000000D02*
X203369761Y-123653677D01*
X203369761Y-123653677D02*
X203522642Y-125301497D01*
X203522642Y-125301497D02*
X203783067Y-126936395D01*
X203783067Y-126936395D02*
X204150003Y-128551357D01*
X204150003Y-128551357D02*
X204621954Y-130139450D01*
X204621954Y-130139450D02*
X205196977Y-131693850D01*
X205196977Y-131693850D02*
X205872684Y-133207872D01*
X205872684Y-133207872D02*
X206646256Y-134675000D01*
X206646256Y-134675000D02*
X207514450Y-136088914D01*
X207514450Y-136088914D02*
X208473617Y-137443517D01*
X208473617Y-137443517D02*
X209519715Y-138732961D01*
X209519715Y-138732961D02*
X210648327Y-139951673D01*
X210648327Y-139951673D02*
X211854677Y-141094382D01*
X211854677Y-141094382D02*
X213133655Y-142156133D01*
X213133655Y-142156133D02*
X214479835Y-143132320D01*
X214479835Y-143132320D02*
X215887500Y-144018696D01*
X215887500Y-144018696D02*
X217350664Y-144811398D01*
X217350664Y-144811398D02*
X218863098Y-145506960D01*
X218863098Y-145506960D02*
X220418361Y-146102331D01*
X220418361Y-146102331D02*
X222009820Y-146594886D01*
X222009820Y-146594886D02*
X223630684Y-146982440D01*
X223630684Y-146982440D02*
X225274029Y-147263254D01*
X225274029Y-147263254D02*
X226932833Y-147436048D01*
X226932833Y-147436048D02*
X228600000Y-147500000D01*
X228600000Y-147500000D02*
X230201723Y-147458664D01*
X230201723Y-147458664D02*
X231798253Y-147316783D01*
X231798253Y-147316783D02*
X233383283Y-147074847D01*
X233383283Y-147074847D02*
X234950545Y-146733740D01*
X234950545Y-146733740D02*
X236493839Y-146294739D01*
X236493839Y-146294739D02*
X238007055Y-145759508D01*
X238007055Y-145759508D02*
X239484196Y-145130094D01*
X239484196Y-145130094D02*
X240919405Y-144408914D01*
X240919405Y-144408914D02*
X242306985Y-143598753D01*
X242306985Y-143598753D02*
X243641425Y-142702745D01*
X243641425Y-142702745D02*
X244917417Y-141724369D01*
X244917417Y-141724369D02*
X246129882Y-140667429D01*
X246129882Y-140667429D02*
X247273989Y-139536043D01*
X247273989Y-139536043D02*
X248345172Y-138334627D01*
X248345172Y-138334627D02*
X249339151Y-137067875D01*
X249339151Y-137067875D02*
X250251945Y-135740742D01*
X250251945Y-135740742D02*
X251079895Y-134358427D01*
X251079895Y-134358427D02*
X251819672Y-132926348D01*
X251819672Y-132926348D02*
X252468292Y-131450125D01*
X252468292Y-131450125D02*
X253023131Y-129935556D01*
X253023131Y-129935556D02*
X253481933Y-128388595D01*
X253481933Y-128388595D02*
X253842818Y-126815325D01*
X253842818Y-126815325D02*
X254104293Y-125221941D01*
X254104293Y-125221941D02*
X254265255Y-123614721D01*
X254265255Y-123614721D02*
X254325000Y-122000000D01*
X254325000Y-122000000D02*
X254283220Y-120384149D01*
X254283220Y-120384149D02*
X254140009Y-118773547D01*
X254140009Y-118773547D02*
X253895861Y-117174556D01*
X253895861Y-117174556D02*
X253551671Y-115593500D01*
X253551671Y-115593500D02*
X253108726Y-114036632D01*
X253108726Y-114036632D02*
X252568708Y-112510117D01*
X252568708Y-112510117D02*
X251933680Y-111020004D01*
X251933680Y-111020004D02*
X251206083Y-109572200D01*
X251206083Y-109572200D02*
X250388726Y-108172454D01*
X250388726Y-108172454D02*
X249484774Y-106826324D01*
X249484774Y-106826324D02*
X248497734Y-105539163D01*
X248497734Y-105539163D02*
X247431447Y-104316095D01*
X247431447Y-104316095D02*
X246290066Y-103161993D01*
X246290066Y-103161993D02*
X245078048Y-102081462D01*
X245078048Y-102081462D02*
X243800127Y-101078821D01*
X243800127Y-101078821D02*
X242461303Y-100158081D01*
X242461303Y-100158081D02*
X241066822Y-99322936D01*
X241066822Y-99322936D02*
X239622149Y-98576742D01*
X239622149Y-98576742D02*
X238132953Y-97922508D01*
X238132953Y-97922508D02*
X236605085Y-97362881D01*
X236605085Y-97362881D02*
X235044550Y-96900136D01*
X235044550Y-96900136D02*
X233457486Y-96536168D01*
X233457486Y-96536168D02*
X231850141Y-96272482D01*
X231850141Y-96272482D02*
X230228849Y-96110189D01*
X230228849Y-96110189D02*
X228600000Y-96050000D01*
X228600000Y-96050000D02*
X226970021Y-96092224D01*
X226970021Y-96092224D02*
X225345347Y-96236765D01*
X225345347Y-96236765D02*
X223732396Y-96483124D01*
X223732396Y-96483124D02*
X222137545Y-96830398D01*
X222137545Y-96830398D02*
X220567103Y-97277286D01*
X220567103Y-97277286D02*
X219027289Y-97822092D01*
X219027289Y-97822092D02*
X217524203Y-98462734D01*
X217524203Y-98462734D02*
X216063806Y-99196748D01*
X216063806Y-99196748D02*
X214651893Y-100021300D01*
X214651893Y-100021300D02*
X213294072Y-100933197D01*
X213294072Y-100933197D02*
X211995742Y-101928901D01*
X211995742Y-101928901D02*
X210762072Y-103004536D01*
X210762072Y-103004536D02*
X209597975Y-104155911D01*
X209597975Y-104155911D02*
X208508097Y-105378532D01*
X208508097Y-105378532D02*
X207496792Y-106667622D01*
X207496792Y-106667622D02*
X206568107Y-108018136D01*
X206568107Y-108018136D02*
X205725767Y-109424784D01*
X205725767Y-109424784D02*
X204973156Y-110882051D01*
X204973156Y-110882051D02*
X204313308Y-112384219D01*
X204313308Y-112384219D02*
X203748893Y-113925386D01*
X203748893Y-113925386D02*
X203282205Y-115499495D01*
X203282205Y-115499495D02*
X202915153Y-117100353D01*
X202915153Y-117100353D02*
X202649256Y-118721659D01*
X202649256Y-118721659D02*
X202485633Y-120357023D01*
X202485633Y-120357023D02*
X202425000Y-122000000D01*
X202425000Y-122000000D02*
X202467668Y-123644107D01*
X202467668Y-123644107D02*
X202613540Y-125282853D01*
X202613540Y-125282853D02*
X202862109Y-126909765D01*
X202862109Y-126909765D02*
X203212467Y-128518411D01*
X203212467Y-128518411D02*
X203663298Y-130102426D01*
X203663298Y-130102426D02*
X204212893Y-131655539D01*
X204212893Y-131655539D02*
X204859148Y-133171597D01*
X204859148Y-133171597D02*
X205599579Y-134644589D01*
X205599579Y-134644589D02*
X206431326Y-136068668D01*
X206431326Y-136068668D02*
X207351169Y-137438180D01*
X207351169Y-137438180D02*
X208355535Y-138747678D01*
X208355535Y-138747678D02*
X209440518Y-139991952D01*
X209440518Y-139991952D02*
X210601887Y-141166043D01*
X210601887Y-141166043D02*
X211835112Y-142265269D01*
X211835112Y-142265269D02*
X213135370Y-143285237D01*
X213135370Y-143285237D02*
X214497575Y-144221867D01*
X214497575Y-144221867D02*
X215916389Y-145071402D01*
X215916389Y-145071402D02*
X217386251Y-145830430D01*
X217386251Y-145830430D02*
X218901391Y-146495891D01*
X218901391Y-146495891D02*
X220455857Y-147065094D01*
X220455857Y-147065094D02*
X222043540Y-147535726D01*
X222043540Y-147535726D02*
X223658193Y-147905862D01*
X223658193Y-147905862D02*
X225293459Y-148173970D01*
X225293459Y-148173970D02*
X226942895Y-148338923D01*
X227330000Y-148726028D02*
X227330000Y-150956000D01*
X226942895Y-148338923D02*
X227330000Y-148726028D01*
X227330000Y-150956000D02*
X227330000Y-155000000D01*
M02*
