G04 #@! TF.GenerationSoftware,KiCad,Pcbnew,(5.1.6)-1*
G04 #@! TF.CreationDate,2021-07-30T18:51:46-07:00*
G04 #@! TF.ProjectId,Inductor Coils,496e6475-6374-46f7-9220-436f696c732e,rev?*
G04 #@! TF.SameCoordinates,Original*
G04 #@! TF.FileFunction,Legend,Top*
G04 #@! TF.FilePolarity,Positive*
%FSLAX46Y46*%
G04 Gerber Fmt 4.6, Leading zero omitted, Abs format (unit mm)*
G04 Created by KiCad (PCBNEW (5.1.6)-1) date 2021-07-30 18:51:46*
%MOMM*%
%LPD*%
G01*
G04 APERTURE LIST*
%ADD10C,0.100000*%
%ADD11C,0.203200*%
%ADD12C,0.120000*%
G04 APERTURE END LIST*
D10*
G36*
X259080000Y-159385000D02*
G01*
X252730000Y-159385000D01*
X252730000Y-155575000D01*
X259080000Y-155575000D01*
X259080000Y-159385000D01*
G37*
X259080000Y-159385000D02*
X252730000Y-159385000D01*
X252730000Y-155575000D01*
X259080000Y-155575000D01*
X259080000Y-159385000D01*
G36*
X259080000Y-155575000D02*
G01*
X252730000Y-155575000D01*
X252730000Y-151765000D01*
X259080000Y-151765000D01*
X259080000Y-155575000D01*
G37*
X259080000Y-155575000D02*
X252730000Y-155575000D01*
X252730000Y-151765000D01*
X259080000Y-151765000D01*
X259080000Y-155575000D01*
D11*
X240063539Y-93063828D02*
X239724872Y-93063828D01*
X239724872Y-93596019D02*
X239724872Y-92580019D01*
X240208681Y-92580019D01*
X241031158Y-93596019D02*
X241031158Y-93063828D01*
X240982777Y-92967066D01*
X240886015Y-92918685D01*
X240692491Y-92918685D01*
X240595729Y-92967066D01*
X241031158Y-93547638D02*
X240934396Y-93596019D01*
X240692491Y-93596019D01*
X240595729Y-93547638D01*
X240547348Y-93450876D01*
X240547348Y-93354114D01*
X240595729Y-93257352D01*
X240692491Y-93208971D01*
X240934396Y-93208971D01*
X241031158Y-93160590D01*
X241514967Y-93596019D02*
X241514967Y-92580019D01*
X241514967Y-92967066D02*
X241611729Y-92918685D01*
X241805253Y-92918685D01*
X241902015Y-92967066D01*
X241950396Y-93015447D01*
X241998777Y-93112209D01*
X241998777Y-93402495D01*
X241950396Y-93499257D01*
X241902015Y-93547638D01*
X241805253Y-93596019D01*
X241611729Y-93596019D01*
X241514967Y-93547638D01*
X242434205Y-93596019D02*
X242434205Y-92918685D01*
X242434205Y-93112209D02*
X242482586Y-93015447D01*
X242530967Y-92967066D01*
X242627729Y-92918685D01*
X242724491Y-92918685D01*
X243063158Y-93596019D02*
X243063158Y-92918685D01*
X243063158Y-92580019D02*
X243014777Y-92628400D01*
X243063158Y-92676780D01*
X243111539Y-92628400D01*
X243063158Y-92580019D01*
X243063158Y-92676780D01*
X243982396Y-93547638D02*
X243885634Y-93596019D01*
X243692110Y-93596019D01*
X243595348Y-93547638D01*
X243546967Y-93499257D01*
X243498586Y-93402495D01*
X243498586Y-93112209D01*
X243546967Y-93015447D01*
X243595348Y-92967066D01*
X243692110Y-92918685D01*
X243885634Y-92918685D01*
X243982396Y-92967066D01*
X244853253Y-93596019D02*
X244853253Y-93063828D01*
X244804872Y-92967066D01*
X244708110Y-92918685D01*
X244514586Y-92918685D01*
X244417824Y-92967066D01*
X244853253Y-93547638D02*
X244756491Y-93596019D01*
X244514586Y-93596019D01*
X244417824Y-93547638D01*
X244369443Y-93450876D01*
X244369443Y-93354114D01*
X244417824Y-93257352D01*
X244514586Y-93208971D01*
X244756491Y-93208971D01*
X244853253Y-93160590D01*
X245191920Y-92918685D02*
X245578967Y-92918685D01*
X245337062Y-92580019D02*
X245337062Y-93450876D01*
X245385443Y-93547638D01*
X245482205Y-93596019D01*
X245578967Y-93596019D01*
X246304681Y-93547638D02*
X246207920Y-93596019D01*
X246014396Y-93596019D01*
X245917634Y-93547638D01*
X245869253Y-93450876D01*
X245869253Y-93063828D01*
X245917634Y-92967066D01*
X246014396Y-92918685D01*
X246207920Y-92918685D01*
X246304681Y-92967066D01*
X246353062Y-93063828D01*
X246353062Y-93160590D01*
X245869253Y-93257352D01*
X247223920Y-93596019D02*
X247223920Y-92580019D01*
X247223920Y-93547638D02*
X247127158Y-93596019D01*
X246933634Y-93596019D01*
X246836872Y-93547638D01*
X246788491Y-93499257D01*
X246740110Y-93402495D01*
X246740110Y-93112209D01*
X246788491Y-93015447D01*
X246836872Y-92967066D01*
X246933634Y-92918685D01*
X247127158Y-92918685D01*
X247223920Y-92967066D01*
X248481824Y-93596019D02*
X248481824Y-92580019D01*
X248481824Y-92967066D02*
X248578586Y-92918685D01*
X248772110Y-92918685D01*
X248868872Y-92967066D01*
X248917253Y-93015447D01*
X248965634Y-93112209D01*
X248965634Y-93402495D01*
X248917253Y-93499257D01*
X248868872Y-93547638D01*
X248772110Y-93596019D01*
X248578586Y-93596019D01*
X248481824Y-93547638D01*
X249304300Y-92918685D02*
X249546205Y-93596019D01*
X249788110Y-92918685D02*
X249546205Y-93596019D01*
X249449443Y-93837923D01*
X249401062Y-93886304D01*
X249304300Y-93934685D01*
X251239539Y-92580019D02*
X251239539Y-93305733D01*
X251191158Y-93450876D01*
X251094396Y-93547638D01*
X250949253Y-93596019D01*
X250852491Y-93596019D01*
X252207158Y-93596019D02*
X251723348Y-93596019D01*
X251723348Y-92580019D01*
X253126396Y-93499257D02*
X253078015Y-93547638D01*
X252932872Y-93596019D01*
X252836110Y-93596019D01*
X252690967Y-93547638D01*
X252594205Y-93450876D01*
X252545824Y-93354114D01*
X252497443Y-93160590D01*
X252497443Y-93015447D01*
X252545824Y-92821923D01*
X252594205Y-92725161D01*
X252690967Y-92628400D01*
X252836110Y-92580019D01*
X252932872Y-92580019D01*
X253078015Y-92628400D01*
X253126396Y-92676780D01*
X253561824Y-93596019D02*
X253561824Y-92580019D01*
X253948872Y-92580019D01*
X254045634Y-92628400D01*
X254094015Y-92676780D01*
X254142396Y-92773542D01*
X254142396Y-92918685D01*
X254094015Y-93015447D01*
X254045634Y-93063828D01*
X253948872Y-93112209D01*
X253561824Y-93112209D01*
X255158396Y-93499257D02*
X255110015Y-93547638D01*
X254964872Y-93596019D01*
X254868110Y-93596019D01*
X254722967Y-93547638D01*
X254626205Y-93450876D01*
X254577824Y-93354114D01*
X254529443Y-93160590D01*
X254529443Y-93015447D01*
X254577824Y-92821923D01*
X254626205Y-92725161D01*
X254722967Y-92628400D01*
X254868110Y-92580019D01*
X254964872Y-92580019D01*
X255110015Y-92628400D01*
X255158396Y-92676780D01*
X255932491Y-93063828D02*
X256077634Y-93112209D01*
X256126015Y-93160590D01*
X256174396Y-93257352D01*
X256174396Y-93402495D01*
X256126015Y-93499257D01*
X256077634Y-93547638D01*
X255980872Y-93596019D01*
X255593824Y-93596019D01*
X255593824Y-92580019D01*
X255932491Y-92580019D01*
X256029253Y-92628400D01*
X256077634Y-92676780D01*
X256126015Y-92773542D01*
X256126015Y-92870304D01*
X256077634Y-92967066D01*
X256029253Y-93015447D01*
X255932491Y-93063828D01*
X255593824Y-93063828D01*
X248530205Y-95323219D02*
X247949634Y-95323219D01*
X248239920Y-95323219D02*
X248239920Y-94307219D01*
X248143158Y-94452361D01*
X248046396Y-94549123D01*
X247949634Y-94597504D01*
X249110777Y-95323219D02*
X249014015Y-95274838D01*
X248965634Y-95226457D01*
X248917253Y-95129695D01*
X248917253Y-94839409D01*
X248965634Y-94742647D01*
X249014015Y-94694266D01*
X249110777Y-94645885D01*
X249255920Y-94645885D01*
X249352681Y-94694266D01*
X249401062Y-94742647D01*
X249449443Y-94839409D01*
X249449443Y-95129695D01*
X249401062Y-95226457D01*
X249352681Y-95274838D01*
X249255920Y-95323219D01*
X249110777Y-95323219D01*
X249788110Y-94645885D02*
X250320300Y-94645885D01*
X249788110Y-95323219D01*
X250320300Y-95323219D01*
X251916872Y-95274838D02*
X251820110Y-95323219D01*
X251626586Y-95323219D01*
X251529824Y-95274838D01*
X251481443Y-95226457D01*
X251433062Y-95129695D01*
X251433062Y-94839409D01*
X251481443Y-94742647D01*
X251529824Y-94694266D01*
X251626586Y-94645885D01*
X251820110Y-94645885D01*
X251916872Y-94694266D01*
X252497443Y-95323219D02*
X252400681Y-95274838D01*
X252352300Y-95226457D01*
X252303920Y-95129695D01*
X252303920Y-94839409D01*
X252352300Y-94742647D01*
X252400681Y-94694266D01*
X252497443Y-94645885D01*
X252642586Y-94645885D01*
X252739348Y-94694266D01*
X252787729Y-94742647D01*
X252836110Y-94839409D01*
X252836110Y-95129695D01*
X252787729Y-95226457D01*
X252739348Y-95274838D01*
X252642586Y-95323219D01*
X252497443Y-95323219D01*
X253271539Y-94645885D02*
X253271539Y-95661885D01*
X253271539Y-94694266D02*
X253368300Y-94645885D01*
X253561824Y-94645885D01*
X253658586Y-94694266D01*
X253706967Y-94742647D01*
X253755348Y-94839409D01*
X253755348Y-95129695D01*
X253706967Y-95226457D01*
X253658586Y-95274838D01*
X253561824Y-95323219D01*
X253368300Y-95323219D01*
X253271539Y-95274838D01*
X254190777Y-94645885D02*
X254190777Y-95661885D01*
X254190777Y-94694266D02*
X254287539Y-94645885D01*
X254481062Y-94645885D01*
X254577824Y-94694266D01*
X254626205Y-94742647D01*
X254674586Y-94839409D01*
X254674586Y-95129695D01*
X254626205Y-95226457D01*
X254577824Y-95274838D01*
X254481062Y-95323219D01*
X254287539Y-95323219D01*
X254190777Y-95274838D01*
X255497062Y-95274838D02*
X255400300Y-95323219D01*
X255206777Y-95323219D01*
X255110015Y-95274838D01*
X255061634Y-95178076D01*
X255061634Y-94791028D01*
X255110015Y-94694266D01*
X255206777Y-94645885D01*
X255400300Y-94645885D01*
X255497062Y-94694266D01*
X255545443Y-94791028D01*
X255545443Y-94887790D01*
X255061634Y-94984552D01*
X255980872Y-95323219D02*
X255980872Y-94645885D01*
X255980872Y-94839409D02*
X256029253Y-94742647D01*
X256077634Y-94694266D01*
X256174396Y-94645885D01*
X256271158Y-94645885D01*
X246449824Y-96143619D02*
X246449824Y-96869333D01*
X246401443Y-97014476D01*
X246304681Y-97111238D01*
X246159539Y-97159619D01*
X246062777Y-97159619D01*
X247417443Y-97159619D02*
X246933634Y-97159619D01*
X246933634Y-96143619D01*
X248336681Y-97062857D02*
X248288300Y-97111238D01*
X248143158Y-97159619D01*
X248046396Y-97159619D01*
X247901253Y-97111238D01*
X247804491Y-97014476D01*
X247756110Y-96917714D01*
X247707729Y-96724190D01*
X247707729Y-96579047D01*
X247756110Y-96385523D01*
X247804491Y-96288761D01*
X247901253Y-96192000D01*
X248046396Y-96143619D01*
X248143158Y-96143619D01*
X248288300Y-96192000D01*
X248336681Y-96240380D01*
X249062396Y-96143619D02*
X249062396Y-96869333D01*
X249014015Y-97014476D01*
X248917253Y-97111238D01*
X248772110Y-97159619D01*
X248675348Y-97159619D01*
X250030015Y-97159619D02*
X249546205Y-97159619D01*
X249546205Y-96143619D01*
X250949253Y-97062857D02*
X250900872Y-97111238D01*
X250755729Y-97159619D01*
X250658967Y-97159619D01*
X250513824Y-97111238D01*
X250417062Y-97014476D01*
X250368681Y-96917714D01*
X250320300Y-96724190D01*
X250320300Y-96579047D01*
X250368681Y-96385523D01*
X250417062Y-96288761D01*
X250513824Y-96192000D01*
X250658967Y-96143619D01*
X250755729Y-96143619D01*
X250900872Y-96192000D01*
X250949253Y-96240380D01*
X251674967Y-96143619D02*
X251674967Y-96869333D01*
X251626586Y-97014476D01*
X251529824Y-97111238D01*
X251384681Y-97159619D01*
X251287920Y-97159619D01*
X252642586Y-97159619D02*
X252158777Y-97159619D01*
X252158777Y-96143619D01*
X253561824Y-97062857D02*
X253513443Y-97111238D01*
X253368300Y-97159619D01*
X253271539Y-97159619D01*
X253126396Y-97111238D01*
X253029634Y-97014476D01*
X252981253Y-96917714D01*
X252932872Y-96724190D01*
X252932872Y-96579047D01*
X252981253Y-96385523D01*
X253029634Y-96288761D01*
X253126396Y-96192000D01*
X253271539Y-96143619D01*
X253368300Y-96143619D01*
X253513443Y-96192000D01*
X253561824Y-96240380D01*
X254287539Y-96143619D02*
X254287539Y-96869333D01*
X254239158Y-97014476D01*
X254142396Y-97111238D01*
X253997253Y-97159619D01*
X253900491Y-97159619D01*
X255255158Y-97159619D02*
X254771348Y-97159619D01*
X254771348Y-96143619D01*
X256174396Y-97062857D02*
X256126015Y-97111238D01*
X255980872Y-97159619D01*
X255884110Y-97159619D01*
X255738967Y-97111238D01*
X255642205Y-97014476D01*
X255593824Y-96917714D01*
X255545443Y-96724190D01*
X255545443Y-96579047D01*
X255593824Y-96385523D01*
X255642205Y-96288761D01*
X255738967Y-96192000D01*
X255884110Y-96143619D01*
X255980872Y-96143619D01*
X256126015Y-96192000D01*
X256174396Y-96240380D01*
X200373984Y-93505219D02*
X200373984Y-92489219D01*
X200857794Y-92827885D02*
X200857794Y-93505219D01*
X200857794Y-92924647D02*
X200906175Y-92876266D01*
X201002937Y-92827885D01*
X201148080Y-92827885D01*
X201244841Y-92876266D01*
X201293222Y-92973028D01*
X201293222Y-93505219D01*
X201777032Y-92827885D02*
X201777032Y-93505219D01*
X201777032Y-92924647D02*
X201825413Y-92876266D01*
X201922175Y-92827885D01*
X202067318Y-92827885D01*
X202164080Y-92876266D01*
X202212460Y-92973028D01*
X202212460Y-93505219D01*
X203083318Y-93456838D02*
X202986556Y-93505219D01*
X202793032Y-93505219D01*
X202696270Y-93456838D01*
X202647889Y-93360076D01*
X202647889Y-92973028D01*
X202696270Y-92876266D01*
X202793032Y-92827885D01*
X202986556Y-92827885D01*
X203083318Y-92876266D01*
X203131699Y-92973028D01*
X203131699Y-93069790D01*
X202647889Y-93166552D01*
X203567127Y-93505219D02*
X203567127Y-92827885D01*
X203567127Y-93021409D02*
X203615508Y-92924647D01*
X203663889Y-92876266D01*
X203760651Y-92827885D01*
X203857413Y-92827885D01*
X205405603Y-93505219D02*
X205405603Y-92489219D01*
X205405603Y-93456838D02*
X205308841Y-93505219D01*
X205115318Y-93505219D01*
X205018556Y-93456838D01*
X204970175Y-93408457D01*
X204921794Y-93311695D01*
X204921794Y-93021409D01*
X204970175Y-92924647D01*
X205018556Y-92876266D01*
X205115318Y-92827885D01*
X205308841Y-92827885D01*
X205405603Y-92876266D01*
X205889413Y-93505219D02*
X205889413Y-92827885D01*
X205889413Y-92489219D02*
X205841032Y-92537600D01*
X205889413Y-92585980D01*
X205937794Y-92537600D01*
X205889413Y-92489219D01*
X205889413Y-92585980D01*
X206808651Y-93505219D02*
X206808651Y-92973028D01*
X206760270Y-92876266D01*
X206663508Y-92827885D01*
X206469984Y-92827885D01*
X206373222Y-92876266D01*
X206808651Y-93456838D02*
X206711889Y-93505219D01*
X206469984Y-93505219D01*
X206373222Y-93456838D01*
X206324841Y-93360076D01*
X206324841Y-93263314D01*
X206373222Y-93166552D01*
X206469984Y-93118171D01*
X206711889Y-93118171D01*
X206808651Y-93069790D01*
X207292460Y-93505219D02*
X207292460Y-92827885D01*
X207292460Y-92924647D02*
X207340841Y-92876266D01*
X207437603Y-92827885D01*
X207582746Y-92827885D01*
X207679508Y-92876266D01*
X207727889Y-92973028D01*
X207727889Y-93505219D01*
X207727889Y-92973028D02*
X207776270Y-92876266D01*
X207873032Y-92827885D01*
X208018175Y-92827885D01*
X208114937Y-92876266D01*
X208163318Y-92973028D01*
X208163318Y-93505219D01*
X209034175Y-93456838D02*
X208937413Y-93505219D01*
X208743889Y-93505219D01*
X208647127Y-93456838D01*
X208598746Y-93360076D01*
X208598746Y-92973028D01*
X208647127Y-92876266D01*
X208743889Y-92827885D01*
X208937413Y-92827885D01*
X209034175Y-92876266D01*
X209082556Y-92973028D01*
X209082556Y-93069790D01*
X208598746Y-93166552D01*
X209372841Y-92827885D02*
X209759889Y-92827885D01*
X209517984Y-92489219D02*
X209517984Y-93360076D01*
X209566365Y-93456838D01*
X209663127Y-93505219D01*
X209759889Y-93505219D01*
X210485603Y-93456838D02*
X210388841Y-93505219D01*
X210195318Y-93505219D01*
X210098556Y-93456838D01*
X210050175Y-93360076D01*
X210050175Y-92973028D01*
X210098556Y-92876266D01*
X210195318Y-92827885D01*
X210388841Y-92827885D01*
X210485603Y-92876266D01*
X210533984Y-92973028D01*
X210533984Y-93069790D01*
X210050175Y-93166552D01*
X210969413Y-93505219D02*
X210969413Y-92827885D01*
X210969413Y-93021409D02*
X211017794Y-92924647D01*
X211066175Y-92876266D01*
X211162937Y-92827885D01*
X211259699Y-92827885D01*
X211598365Y-93408457D02*
X211646746Y-93456838D01*
X211598365Y-93505219D01*
X211549984Y-93456838D01*
X211598365Y-93408457D01*
X211598365Y-93505219D01*
X211598365Y-92876266D02*
X211646746Y-92924647D01*
X211598365Y-92973028D01*
X211549984Y-92924647D01*
X211598365Y-92876266D01*
X211598365Y-92973028D01*
X213388460Y-93505219D02*
X212807889Y-93505219D01*
X213098175Y-93505219D02*
X213098175Y-92489219D01*
X213001413Y-92634361D01*
X212904651Y-92731123D01*
X212807889Y-92779504D01*
X214307699Y-92489219D02*
X213823889Y-92489219D01*
X213775508Y-92973028D01*
X213823889Y-92924647D01*
X213920651Y-92876266D01*
X214162556Y-92876266D01*
X214259318Y-92924647D01*
X214307699Y-92973028D01*
X214356080Y-93069790D01*
X214356080Y-93311695D01*
X214307699Y-93408457D01*
X214259318Y-93456838D01*
X214162556Y-93505219D01*
X213920651Y-93505219D01*
X213823889Y-93456838D01*
X213775508Y-93408457D01*
X214791508Y-93505219D02*
X214791508Y-92827885D01*
X214791508Y-92924647D02*
X214839889Y-92876266D01*
X214936651Y-92827885D01*
X215081794Y-92827885D01*
X215178556Y-92876266D01*
X215226937Y-92973028D01*
X215226937Y-93505219D01*
X215226937Y-92973028D02*
X215275318Y-92876266D01*
X215372080Y-92827885D01*
X215517222Y-92827885D01*
X215613984Y-92876266D01*
X215662365Y-92973028D01*
X215662365Y-93505219D01*
X216146175Y-93505219D02*
X216146175Y-92827885D01*
X216146175Y-92924647D02*
X216194556Y-92876266D01*
X216291318Y-92827885D01*
X216436460Y-92827885D01*
X216533222Y-92876266D01*
X216581603Y-92973028D01*
X216581603Y-93505219D01*
X216581603Y-92973028D02*
X216629984Y-92876266D01*
X216726746Y-92827885D01*
X216871889Y-92827885D01*
X216968651Y-92876266D01*
X217017032Y-92973028D01*
X217017032Y-93505219D01*
X200228841Y-94216419D02*
X200809413Y-94216419D01*
X200519127Y-95232419D02*
X200519127Y-94216419D01*
X201148080Y-95232419D02*
X201148080Y-94555085D01*
X201148080Y-94748609D02*
X201196460Y-94651847D01*
X201244841Y-94603466D01*
X201341603Y-94555085D01*
X201438365Y-94555085D01*
X202212460Y-95232419D02*
X202212460Y-94700228D01*
X202164080Y-94603466D01*
X202067318Y-94555085D01*
X201873794Y-94555085D01*
X201777032Y-94603466D01*
X202212460Y-95184038D02*
X202115699Y-95232419D01*
X201873794Y-95232419D01*
X201777032Y-95184038D01*
X201728651Y-95087276D01*
X201728651Y-94990514D01*
X201777032Y-94893752D01*
X201873794Y-94845371D01*
X202115699Y-94845371D01*
X202212460Y-94796990D01*
X203131699Y-95184038D02*
X203034937Y-95232419D01*
X202841413Y-95232419D01*
X202744651Y-95184038D01*
X202696270Y-95135657D01*
X202647889Y-95038895D01*
X202647889Y-94748609D01*
X202696270Y-94651847D01*
X202744651Y-94603466D01*
X202841413Y-94555085D01*
X203034937Y-94555085D01*
X203131699Y-94603466D01*
X203954175Y-95184038D02*
X203857413Y-95232419D01*
X203663889Y-95232419D01*
X203567127Y-95184038D01*
X203518746Y-95087276D01*
X203518746Y-94700228D01*
X203567127Y-94603466D01*
X203663889Y-94555085D01*
X203857413Y-94555085D01*
X203954175Y-94603466D01*
X204002556Y-94700228D01*
X204002556Y-94796990D01*
X203518746Y-94893752D01*
X205115318Y-94555085D02*
X205308841Y-95232419D01*
X205502365Y-94748609D01*
X205695889Y-95232419D01*
X205889413Y-94555085D01*
X206276460Y-95232419D02*
X206276460Y-94555085D01*
X206276460Y-94216419D02*
X206228080Y-94264800D01*
X206276460Y-94313180D01*
X206324841Y-94264800D01*
X206276460Y-94216419D01*
X206276460Y-94313180D01*
X207195699Y-95232419D02*
X207195699Y-94216419D01*
X207195699Y-95184038D02*
X207098937Y-95232419D01*
X206905413Y-95232419D01*
X206808651Y-95184038D01*
X206760270Y-95135657D01*
X206711889Y-95038895D01*
X206711889Y-94748609D01*
X206760270Y-94651847D01*
X206808651Y-94603466D01*
X206905413Y-94555085D01*
X207098937Y-94555085D01*
X207195699Y-94603466D01*
X207534365Y-94555085D02*
X207921413Y-94555085D01*
X207679508Y-94216419D02*
X207679508Y-95087276D01*
X207727889Y-95184038D01*
X207824651Y-95232419D01*
X207921413Y-95232419D01*
X208260080Y-95232419D02*
X208260080Y-94216419D01*
X208695508Y-95232419D02*
X208695508Y-94700228D01*
X208647127Y-94603466D01*
X208550365Y-94555085D01*
X208405222Y-94555085D01*
X208308460Y-94603466D01*
X208260080Y-94651847D01*
X209179318Y-95135657D02*
X209227699Y-95184038D01*
X209179318Y-95232419D01*
X209130937Y-95184038D01*
X209179318Y-95135657D01*
X209179318Y-95232419D01*
X209179318Y-94603466D02*
X209227699Y-94651847D01*
X209179318Y-94700228D01*
X209130937Y-94651847D01*
X209179318Y-94603466D01*
X209179318Y-94700228D01*
X210630746Y-94216419D02*
X210727508Y-94216419D01*
X210824270Y-94264800D01*
X210872651Y-94313180D01*
X210921032Y-94409942D01*
X210969413Y-94603466D01*
X210969413Y-94845371D01*
X210921032Y-95038895D01*
X210872651Y-95135657D01*
X210824270Y-95184038D01*
X210727508Y-95232419D01*
X210630746Y-95232419D01*
X210533984Y-95184038D01*
X210485603Y-95135657D01*
X210437222Y-95038895D01*
X210388841Y-94845371D01*
X210388841Y-94603466D01*
X210437222Y-94409942D01*
X210485603Y-94313180D01*
X210533984Y-94264800D01*
X210630746Y-94216419D01*
X211404841Y-95135657D02*
X211453222Y-95184038D01*
X211404841Y-95232419D01*
X211356460Y-95184038D01*
X211404841Y-95135657D01*
X211404841Y-95232419D01*
X211791889Y-94216419D02*
X212469222Y-94216419D01*
X212033794Y-95232419D01*
X212856270Y-95232419D02*
X212856270Y-94555085D01*
X212856270Y-94651847D02*
X212904651Y-94603466D01*
X213001413Y-94555085D01*
X213146556Y-94555085D01*
X213243318Y-94603466D01*
X213291699Y-94700228D01*
X213291699Y-95232419D01*
X213291699Y-94700228D02*
X213340080Y-94603466D01*
X213436841Y-94555085D01*
X213581984Y-94555085D01*
X213678746Y-94603466D01*
X213727127Y-94700228D01*
X213727127Y-95232419D01*
X214210937Y-95232419D02*
X214210937Y-94555085D01*
X214210937Y-94651847D02*
X214259318Y-94603466D01*
X214356080Y-94555085D01*
X214501222Y-94555085D01*
X214597984Y-94603466D01*
X214646365Y-94700228D01*
X214646365Y-95232419D01*
X214646365Y-94700228D02*
X214694746Y-94603466D01*
X214791508Y-94555085D01*
X214936651Y-94555085D01*
X215033413Y-94603466D01*
X215081794Y-94700228D01*
X215081794Y-95232419D01*
X200228841Y-95943619D02*
X200809413Y-95943619D01*
X200519127Y-96959619D02*
X200519127Y-95943619D01*
X201148080Y-96959619D02*
X201148080Y-96282285D01*
X201148080Y-96475809D02*
X201196460Y-96379047D01*
X201244841Y-96330666D01*
X201341603Y-96282285D01*
X201438365Y-96282285D01*
X202212460Y-96959619D02*
X202212460Y-96427428D01*
X202164080Y-96330666D01*
X202067318Y-96282285D01*
X201873794Y-96282285D01*
X201777032Y-96330666D01*
X202212460Y-96911238D02*
X202115699Y-96959619D01*
X201873794Y-96959619D01*
X201777032Y-96911238D01*
X201728651Y-96814476D01*
X201728651Y-96717714D01*
X201777032Y-96620952D01*
X201873794Y-96572571D01*
X202115699Y-96572571D01*
X202212460Y-96524190D01*
X203131699Y-96911238D02*
X203034937Y-96959619D01*
X202841413Y-96959619D01*
X202744651Y-96911238D01*
X202696270Y-96862857D01*
X202647889Y-96766095D01*
X202647889Y-96475809D01*
X202696270Y-96379047D01*
X202744651Y-96330666D01*
X202841413Y-96282285D01*
X203034937Y-96282285D01*
X203131699Y-96330666D01*
X203954175Y-96911238D02*
X203857413Y-96959619D01*
X203663889Y-96959619D01*
X203567127Y-96911238D01*
X203518746Y-96814476D01*
X203518746Y-96427428D01*
X203567127Y-96330666D01*
X203663889Y-96282285D01*
X203857413Y-96282285D01*
X203954175Y-96330666D01*
X204002556Y-96427428D01*
X204002556Y-96524190D01*
X203518746Y-96620952D01*
X205163699Y-96911238D02*
X205260460Y-96959619D01*
X205453984Y-96959619D01*
X205550746Y-96911238D01*
X205599127Y-96814476D01*
X205599127Y-96766095D01*
X205550746Y-96669333D01*
X205453984Y-96620952D01*
X205308841Y-96620952D01*
X205212080Y-96572571D01*
X205163699Y-96475809D01*
X205163699Y-96427428D01*
X205212080Y-96330666D01*
X205308841Y-96282285D01*
X205453984Y-96282285D01*
X205550746Y-96330666D01*
X206034556Y-96282285D02*
X206034556Y-97298285D01*
X206034556Y-96330666D02*
X206131318Y-96282285D01*
X206324841Y-96282285D01*
X206421603Y-96330666D01*
X206469984Y-96379047D01*
X206518365Y-96475809D01*
X206518365Y-96766095D01*
X206469984Y-96862857D01*
X206421603Y-96911238D01*
X206324841Y-96959619D01*
X206131318Y-96959619D01*
X206034556Y-96911238D01*
X207389222Y-96959619D02*
X207389222Y-96427428D01*
X207340841Y-96330666D01*
X207244080Y-96282285D01*
X207050556Y-96282285D01*
X206953794Y-96330666D01*
X207389222Y-96911238D02*
X207292460Y-96959619D01*
X207050556Y-96959619D01*
X206953794Y-96911238D01*
X206905413Y-96814476D01*
X206905413Y-96717714D01*
X206953794Y-96620952D01*
X207050556Y-96572571D01*
X207292460Y-96572571D01*
X207389222Y-96524190D01*
X208308460Y-96911238D02*
X208211699Y-96959619D01*
X208018175Y-96959619D01*
X207921413Y-96911238D01*
X207873032Y-96862857D01*
X207824651Y-96766095D01*
X207824651Y-96475809D01*
X207873032Y-96379047D01*
X207921413Y-96330666D01*
X208018175Y-96282285D01*
X208211699Y-96282285D01*
X208308460Y-96330666D01*
X208743889Y-96959619D02*
X208743889Y-96282285D01*
X208743889Y-95943619D02*
X208695508Y-95992000D01*
X208743889Y-96040380D01*
X208792270Y-95992000D01*
X208743889Y-95943619D01*
X208743889Y-96040380D01*
X209227699Y-96282285D02*
X209227699Y-96959619D01*
X209227699Y-96379047D02*
X209276080Y-96330666D01*
X209372841Y-96282285D01*
X209517984Y-96282285D01*
X209614746Y-96330666D01*
X209663127Y-96427428D01*
X209663127Y-96959619D01*
X210582365Y-96282285D02*
X210582365Y-97104761D01*
X210533984Y-97201523D01*
X210485603Y-97249904D01*
X210388841Y-97298285D01*
X210243699Y-97298285D01*
X210146937Y-97249904D01*
X210582365Y-96911238D02*
X210485603Y-96959619D01*
X210292080Y-96959619D01*
X210195318Y-96911238D01*
X210146937Y-96862857D01*
X210098556Y-96766095D01*
X210098556Y-96475809D01*
X210146937Y-96379047D01*
X210195318Y-96330666D01*
X210292080Y-96282285D01*
X210485603Y-96282285D01*
X210582365Y-96330666D01*
X211066175Y-96862857D02*
X211114556Y-96911238D01*
X211066175Y-96959619D01*
X211017794Y-96911238D01*
X211066175Y-96862857D01*
X211066175Y-96959619D01*
X211066175Y-96330666D02*
X211114556Y-96379047D01*
X211066175Y-96427428D01*
X211017794Y-96379047D01*
X211066175Y-96330666D01*
X211066175Y-96427428D01*
X212517603Y-95943619D02*
X212614365Y-95943619D01*
X212711127Y-95992000D01*
X212759508Y-96040380D01*
X212807889Y-96137142D01*
X212856270Y-96330666D01*
X212856270Y-96572571D01*
X212807889Y-96766095D01*
X212759508Y-96862857D01*
X212711127Y-96911238D01*
X212614365Y-96959619D01*
X212517603Y-96959619D01*
X212420841Y-96911238D01*
X212372460Y-96862857D01*
X212324080Y-96766095D01*
X212275699Y-96572571D01*
X212275699Y-96330666D01*
X212324080Y-96137142D01*
X212372460Y-96040380D01*
X212420841Y-95992000D01*
X212517603Y-95943619D01*
X213291699Y-96862857D02*
X213340080Y-96911238D01*
X213291699Y-96959619D01*
X213243318Y-96911238D01*
X213291699Y-96862857D01*
X213291699Y-96959619D01*
X213727127Y-96040380D02*
X213775508Y-95992000D01*
X213872270Y-95943619D01*
X214114175Y-95943619D01*
X214210937Y-95992000D01*
X214259318Y-96040380D01*
X214307699Y-96137142D01*
X214307699Y-96233904D01*
X214259318Y-96379047D01*
X213678746Y-96959619D01*
X214307699Y-96959619D01*
X214743127Y-96959619D02*
X214743127Y-96282285D01*
X214743127Y-96379047D02*
X214791508Y-96330666D01*
X214888270Y-96282285D01*
X215033413Y-96282285D01*
X215130175Y-96330666D01*
X215178556Y-96427428D01*
X215178556Y-96959619D01*
X215178556Y-96427428D02*
X215226937Y-96330666D01*
X215323699Y-96282285D01*
X215468841Y-96282285D01*
X215565603Y-96330666D01*
X215613984Y-96427428D01*
X215613984Y-96959619D01*
X216097794Y-96959619D02*
X216097794Y-96282285D01*
X216097794Y-96379047D02*
X216146175Y-96330666D01*
X216242937Y-96282285D01*
X216388080Y-96282285D01*
X216484841Y-96330666D01*
X216533222Y-96427428D01*
X216533222Y-96959619D01*
X216533222Y-96427428D02*
X216581603Y-96330666D01*
X216678365Y-96282285D01*
X216823508Y-96282285D01*
X216920270Y-96330666D01*
X216968651Y-96427428D01*
X216968651Y-96959619D01*
X200373984Y-98686819D02*
X200373984Y-97670819D01*
X200954556Y-98686819D01*
X200954556Y-97670819D01*
X201873794Y-98009485D02*
X201873794Y-98686819D01*
X201438365Y-98009485D02*
X201438365Y-98541676D01*
X201486746Y-98638438D01*
X201583508Y-98686819D01*
X201728651Y-98686819D01*
X201825413Y-98638438D01*
X201873794Y-98590057D01*
X202357603Y-98686819D02*
X202357603Y-98009485D01*
X202357603Y-98106247D02*
X202405984Y-98057866D01*
X202502746Y-98009485D01*
X202647889Y-98009485D01*
X202744651Y-98057866D01*
X202793032Y-98154628D01*
X202793032Y-98686819D01*
X202793032Y-98154628D02*
X202841413Y-98057866D01*
X202938175Y-98009485D01*
X203083318Y-98009485D01*
X203180080Y-98057866D01*
X203228460Y-98154628D01*
X203228460Y-98686819D01*
X203712270Y-98686819D02*
X203712270Y-97670819D01*
X203712270Y-98057866D02*
X203809032Y-98009485D01*
X204002556Y-98009485D01*
X204099318Y-98057866D01*
X204147699Y-98106247D01*
X204196080Y-98203009D01*
X204196080Y-98493295D01*
X204147699Y-98590057D01*
X204099318Y-98638438D01*
X204002556Y-98686819D01*
X203809032Y-98686819D01*
X203712270Y-98638438D01*
X205018556Y-98638438D02*
X204921794Y-98686819D01*
X204728270Y-98686819D01*
X204631508Y-98638438D01*
X204583127Y-98541676D01*
X204583127Y-98154628D01*
X204631508Y-98057866D01*
X204728270Y-98009485D01*
X204921794Y-98009485D01*
X205018556Y-98057866D01*
X205066937Y-98154628D01*
X205066937Y-98251390D01*
X204583127Y-98348152D01*
X205502365Y-98686819D02*
X205502365Y-98009485D01*
X205502365Y-98203009D02*
X205550746Y-98106247D01*
X205599127Y-98057866D01*
X205695889Y-98009485D01*
X205792651Y-98009485D01*
X206760270Y-98009485D02*
X207147318Y-98009485D01*
X206905413Y-97670819D02*
X206905413Y-98541676D01*
X206953794Y-98638438D01*
X207050556Y-98686819D01*
X207147318Y-98686819D01*
X207921413Y-98009485D02*
X207921413Y-98686819D01*
X207485984Y-98009485D02*
X207485984Y-98541676D01*
X207534365Y-98638438D01*
X207631127Y-98686819D01*
X207776270Y-98686819D01*
X207873032Y-98638438D01*
X207921413Y-98590057D01*
X208405222Y-98686819D02*
X208405222Y-98009485D01*
X208405222Y-98203009D02*
X208453603Y-98106247D01*
X208501984Y-98057866D01*
X208598746Y-98009485D01*
X208695508Y-98009485D01*
X209034175Y-98009485D02*
X209034175Y-98686819D01*
X209034175Y-98106247D02*
X209082556Y-98057866D01*
X209179318Y-98009485D01*
X209324460Y-98009485D01*
X209421222Y-98057866D01*
X209469603Y-98154628D01*
X209469603Y-98686819D01*
X209905032Y-98638438D02*
X210001794Y-98686819D01*
X210195318Y-98686819D01*
X210292080Y-98638438D01*
X210340460Y-98541676D01*
X210340460Y-98493295D01*
X210292080Y-98396533D01*
X210195318Y-98348152D01*
X210050175Y-98348152D01*
X209953413Y-98299771D01*
X209905032Y-98203009D01*
X209905032Y-98154628D01*
X209953413Y-98057866D01*
X210050175Y-98009485D01*
X210195318Y-98009485D01*
X210292080Y-98057866D01*
X210775889Y-98590057D02*
X210824270Y-98638438D01*
X210775889Y-98686819D01*
X210727508Y-98638438D01*
X210775889Y-98590057D01*
X210775889Y-98686819D01*
X210775889Y-98057866D02*
X210824270Y-98106247D01*
X210775889Y-98154628D01*
X210727508Y-98106247D01*
X210775889Y-98057866D01*
X210775889Y-98154628D01*
X211985413Y-97767580D02*
X212033794Y-97719200D01*
X212130556Y-97670819D01*
X212372460Y-97670819D01*
X212469222Y-97719200D01*
X212517603Y-97767580D01*
X212565984Y-97864342D01*
X212565984Y-97961104D01*
X212517603Y-98106247D01*
X211937032Y-98686819D01*
X212565984Y-98686819D01*
X213194937Y-97670819D02*
X213291699Y-97670819D01*
X213388460Y-97719200D01*
X213436841Y-97767580D01*
X213485222Y-97864342D01*
X213533603Y-98057866D01*
X213533603Y-98299771D01*
X213485222Y-98493295D01*
X213436841Y-98590057D01*
X213388460Y-98638438D01*
X213291699Y-98686819D01*
X213194937Y-98686819D01*
X213098175Y-98638438D01*
X213049794Y-98590057D01*
X213001413Y-98493295D01*
X212953032Y-98299771D01*
X212953032Y-98057866D01*
X213001413Y-97864342D01*
X213049794Y-97767580D01*
X213098175Y-97719200D01*
X213194937Y-97670819D01*
X200857794Y-100414019D02*
X200373984Y-100414019D01*
X200373984Y-99398019D01*
X201631889Y-100414019D02*
X201631889Y-99881828D01*
X201583508Y-99785066D01*
X201486746Y-99736685D01*
X201293222Y-99736685D01*
X201196460Y-99785066D01*
X201631889Y-100365638D02*
X201535127Y-100414019D01*
X201293222Y-100414019D01*
X201196460Y-100365638D01*
X201148080Y-100268876D01*
X201148080Y-100172114D01*
X201196460Y-100075352D01*
X201293222Y-100026971D01*
X201535127Y-100026971D01*
X201631889Y-99978590D01*
X202018937Y-99736685D02*
X202260841Y-100414019D01*
X202502746Y-99736685D02*
X202260841Y-100414019D01*
X202164080Y-100655923D01*
X202115699Y-100704304D01*
X202018937Y-100752685D01*
X203276841Y-100365638D02*
X203180080Y-100414019D01*
X202986556Y-100414019D01*
X202889794Y-100365638D01*
X202841413Y-100268876D01*
X202841413Y-99881828D01*
X202889794Y-99785066D01*
X202986556Y-99736685D01*
X203180080Y-99736685D01*
X203276841Y-99785066D01*
X203325222Y-99881828D01*
X203325222Y-99978590D01*
X202841413Y-100075352D01*
X203760651Y-100414019D02*
X203760651Y-99736685D01*
X203760651Y-99930209D02*
X203809032Y-99833447D01*
X203857413Y-99785066D01*
X203954175Y-99736685D01*
X204050937Y-99736685D01*
X204341222Y-100365638D02*
X204437984Y-100414019D01*
X204631508Y-100414019D01*
X204728270Y-100365638D01*
X204776651Y-100268876D01*
X204776651Y-100220495D01*
X204728270Y-100123733D01*
X204631508Y-100075352D01*
X204486365Y-100075352D01*
X204389603Y-100026971D01*
X204341222Y-99930209D01*
X204341222Y-99881828D01*
X204389603Y-99785066D01*
X204486365Y-99736685D01*
X204631508Y-99736685D01*
X204728270Y-99785066D01*
X205212080Y-100317257D02*
X205260460Y-100365638D01*
X205212080Y-100414019D01*
X205163699Y-100365638D01*
X205212080Y-100317257D01*
X205212080Y-100414019D01*
X205212080Y-99785066D02*
X205260460Y-99833447D01*
X205212080Y-99881828D01*
X205163699Y-99833447D01*
X205212080Y-99785066D01*
X205212080Y-99881828D01*
X206421603Y-99494780D02*
X206469984Y-99446400D01*
X206566746Y-99398019D01*
X206808651Y-99398019D01*
X206905413Y-99446400D01*
X206953794Y-99494780D01*
X207002175Y-99591542D01*
X207002175Y-99688304D01*
X206953794Y-99833447D01*
X206373222Y-100414019D01*
X207002175Y-100414019D01*
X235373984Y-150143028D02*
X235712651Y-150143028D01*
X235857794Y-150675219D02*
X235373984Y-150675219D01*
X235373984Y-149659219D01*
X235857794Y-149659219D01*
X236244841Y-150626838D02*
X236341603Y-150675219D01*
X236535127Y-150675219D01*
X236631889Y-150626838D01*
X236680270Y-150530076D01*
X236680270Y-150481695D01*
X236631889Y-150384933D01*
X236535127Y-150336552D01*
X236389984Y-150336552D01*
X236293222Y-150288171D01*
X236244841Y-150191409D01*
X236244841Y-150143028D01*
X236293222Y-150046266D01*
X236389984Y-149997885D01*
X236535127Y-149997885D01*
X236631889Y-150046266D01*
X236970556Y-149997885D02*
X237357603Y-149997885D01*
X237115699Y-149659219D02*
X237115699Y-150530076D01*
X237164080Y-150626838D01*
X237260841Y-150675219D01*
X237357603Y-150675219D01*
X237696270Y-150675219D02*
X237696270Y-149997885D01*
X237696270Y-149659219D02*
X237647889Y-149707600D01*
X237696270Y-149755980D01*
X237744651Y-149707600D01*
X237696270Y-149659219D01*
X237696270Y-149755980D01*
X238180080Y-150675219D02*
X238180080Y-149997885D01*
X238180080Y-150094647D02*
X238228460Y-150046266D01*
X238325222Y-149997885D01*
X238470365Y-149997885D01*
X238567127Y-150046266D01*
X238615508Y-150143028D01*
X238615508Y-150675219D01*
X238615508Y-150143028D02*
X238663889Y-150046266D01*
X238760651Y-149997885D01*
X238905794Y-149997885D01*
X239002556Y-150046266D01*
X239050937Y-150143028D01*
X239050937Y-150675219D01*
X239970175Y-150675219D02*
X239970175Y-150143028D01*
X239921794Y-150046266D01*
X239825032Y-149997885D01*
X239631508Y-149997885D01*
X239534746Y-150046266D01*
X239970175Y-150626838D02*
X239873413Y-150675219D01*
X239631508Y-150675219D01*
X239534746Y-150626838D01*
X239486365Y-150530076D01*
X239486365Y-150433314D01*
X239534746Y-150336552D01*
X239631508Y-150288171D01*
X239873413Y-150288171D01*
X239970175Y-150239790D01*
X240308841Y-149997885D02*
X240695889Y-149997885D01*
X240453984Y-149659219D02*
X240453984Y-150530076D01*
X240502365Y-150626838D01*
X240599127Y-150675219D01*
X240695889Y-150675219D01*
X241421603Y-150626838D02*
X241324841Y-150675219D01*
X241131318Y-150675219D01*
X241034556Y-150626838D01*
X240986175Y-150530076D01*
X240986175Y-150143028D01*
X241034556Y-150046266D01*
X241131318Y-149997885D01*
X241324841Y-149997885D01*
X241421603Y-150046266D01*
X241469984Y-150143028D01*
X241469984Y-150239790D01*
X240986175Y-150336552D01*
X242340841Y-150675219D02*
X242340841Y-149659219D01*
X242340841Y-150626838D02*
X242244080Y-150675219D01*
X242050556Y-150675219D01*
X241953794Y-150626838D01*
X241905413Y-150578457D01*
X241857032Y-150481695D01*
X241857032Y-150191409D01*
X241905413Y-150094647D01*
X241953794Y-150046266D01*
X242050556Y-149997885D01*
X242244080Y-149997885D01*
X242340841Y-150046266D01*
X243598746Y-150675219D02*
X243598746Y-149659219D01*
X244082556Y-149997885D02*
X244082556Y-150675219D01*
X244082556Y-150094647D02*
X244130937Y-150046266D01*
X244227699Y-149997885D01*
X244372841Y-149997885D01*
X244469603Y-150046266D01*
X244517984Y-150143028D01*
X244517984Y-150675219D01*
X245437222Y-150675219D02*
X245437222Y-149659219D01*
X245437222Y-150626838D02*
X245340460Y-150675219D01*
X245146937Y-150675219D01*
X245050175Y-150626838D01*
X245001794Y-150578457D01*
X244953413Y-150481695D01*
X244953413Y-150191409D01*
X245001794Y-150094647D01*
X245050175Y-150046266D01*
X245146937Y-149997885D01*
X245340460Y-149997885D01*
X245437222Y-150046266D01*
X246356460Y-149997885D02*
X246356460Y-150675219D01*
X245921032Y-149997885D02*
X245921032Y-150530076D01*
X245969413Y-150626838D01*
X246066175Y-150675219D01*
X246211318Y-150675219D01*
X246308080Y-150626838D01*
X246356460Y-150578457D01*
X247275699Y-150626838D02*
X247178937Y-150675219D01*
X246985413Y-150675219D01*
X246888651Y-150626838D01*
X246840270Y-150578457D01*
X246791889Y-150481695D01*
X246791889Y-150191409D01*
X246840270Y-150094647D01*
X246888651Y-150046266D01*
X246985413Y-149997885D01*
X247178937Y-149997885D01*
X247275699Y-150046266D01*
X247565984Y-149997885D02*
X247953032Y-149997885D01*
X247711127Y-149659219D02*
X247711127Y-150530076D01*
X247759508Y-150626838D01*
X247856270Y-150675219D01*
X247953032Y-150675219D01*
X248727127Y-150675219D02*
X248727127Y-150143028D01*
X248678746Y-150046266D01*
X248581984Y-149997885D01*
X248388460Y-149997885D01*
X248291699Y-150046266D01*
X248727127Y-150626838D02*
X248630365Y-150675219D01*
X248388460Y-150675219D01*
X248291699Y-150626838D01*
X248243318Y-150530076D01*
X248243318Y-150433314D01*
X248291699Y-150336552D01*
X248388460Y-150288171D01*
X248630365Y-150288171D01*
X248727127Y-150239790D01*
X249210937Y-149997885D02*
X249210937Y-150675219D01*
X249210937Y-150094647D02*
X249259318Y-150046266D01*
X249356080Y-149997885D01*
X249501222Y-149997885D01*
X249597984Y-150046266D01*
X249646365Y-150143028D01*
X249646365Y-150675219D01*
X250565603Y-150626838D02*
X250468841Y-150675219D01*
X250275318Y-150675219D01*
X250178556Y-150626838D01*
X250130175Y-150578457D01*
X250081794Y-150481695D01*
X250081794Y-150191409D01*
X250130175Y-150094647D01*
X250178556Y-150046266D01*
X250275318Y-149997885D01*
X250468841Y-149997885D01*
X250565603Y-150046266D01*
X251388080Y-150626838D02*
X251291318Y-150675219D01*
X251097794Y-150675219D01*
X251001032Y-150626838D01*
X250952651Y-150530076D01*
X250952651Y-150143028D01*
X251001032Y-150046266D01*
X251097794Y-149997885D01*
X251291318Y-149997885D01*
X251388080Y-150046266D01*
X251436460Y-150143028D01*
X251436460Y-150239790D01*
X250952651Y-150336552D01*
X251871889Y-150578457D02*
X251920270Y-150626838D01*
X251871889Y-150675219D01*
X251823508Y-150626838D01*
X251871889Y-150578457D01*
X251871889Y-150675219D01*
X251871889Y-150046266D02*
X251920270Y-150094647D01*
X251871889Y-150143028D01*
X251823508Y-150094647D01*
X251871889Y-150046266D01*
X251871889Y-150143028D01*
X253081413Y-149755980D02*
X253129794Y-149707600D01*
X253226556Y-149659219D01*
X253468460Y-149659219D01*
X253565222Y-149707600D01*
X253613603Y-149755980D01*
X253661984Y-149852742D01*
X253661984Y-149949504D01*
X253613603Y-150094647D01*
X253033032Y-150675219D01*
X253661984Y-150675219D01*
X254532841Y-149659219D02*
X254339318Y-149659219D01*
X254242556Y-149707600D01*
X254194175Y-149755980D01*
X254097413Y-149901123D01*
X254049032Y-150094647D01*
X254049032Y-150481695D01*
X254097413Y-150578457D01*
X254145794Y-150626838D01*
X254242556Y-150675219D01*
X254436080Y-150675219D01*
X254532841Y-150626838D01*
X254581222Y-150578457D01*
X254629603Y-150481695D01*
X254629603Y-150239790D01*
X254581222Y-150143028D01*
X254532841Y-150094647D01*
X254436080Y-150046266D01*
X254242556Y-150046266D01*
X254145794Y-150094647D01*
X254097413Y-150143028D01*
X254049032Y-150239790D01*
X255065032Y-150578457D02*
X255113413Y-150626838D01*
X255065032Y-150675219D01*
X255016651Y-150626838D01*
X255065032Y-150578457D01*
X255065032Y-150675219D01*
X255742365Y-149659219D02*
X255839127Y-149659219D01*
X255935889Y-149707600D01*
X255984270Y-149755980D01*
X256032651Y-149852742D01*
X256081032Y-150046266D01*
X256081032Y-150288171D01*
X256032651Y-150481695D01*
X255984270Y-150578457D01*
X255935889Y-150626838D01*
X255839127Y-150675219D01*
X255742365Y-150675219D01*
X255645603Y-150626838D01*
X255597222Y-150578457D01*
X255548841Y-150481695D01*
X255500460Y-150288171D01*
X255500460Y-150046266D01*
X255548841Y-149852742D01*
X255597222Y-149755980D01*
X255645603Y-149707600D01*
X255742365Y-149659219D01*
X257725984Y-149997885D02*
X257725984Y-150675219D01*
X257290556Y-149997885D02*
X257290556Y-150530076D01*
X257338937Y-150626838D01*
X257435699Y-150675219D01*
X257580841Y-150675219D01*
X257677603Y-150626838D01*
X257725984Y-150578457D01*
X258209794Y-150675219D02*
X258209794Y-149659219D01*
X258209794Y-150143028D02*
X258790365Y-150143028D01*
X258790365Y-150675219D02*
X258790365Y-149659219D01*
X235373984Y-154129619D02*
X235373984Y-153113619D01*
X235712651Y-153839333D01*
X236051318Y-153113619D01*
X236051318Y-154129619D01*
X236922175Y-154081238D02*
X236825413Y-154129619D01*
X236631889Y-154129619D01*
X236535127Y-154081238D01*
X236486746Y-153984476D01*
X236486746Y-153597428D01*
X236535127Y-153500666D01*
X236631889Y-153452285D01*
X236825413Y-153452285D01*
X236922175Y-153500666D01*
X236970556Y-153597428D01*
X236970556Y-153694190D01*
X236486746Y-153790952D01*
X237841413Y-154129619D02*
X237841413Y-153597428D01*
X237793032Y-153500666D01*
X237696270Y-153452285D01*
X237502746Y-153452285D01*
X237405984Y-153500666D01*
X237841413Y-154081238D02*
X237744651Y-154129619D01*
X237502746Y-154129619D01*
X237405984Y-154081238D01*
X237357603Y-153984476D01*
X237357603Y-153887714D01*
X237405984Y-153790952D01*
X237502746Y-153742571D01*
X237744651Y-153742571D01*
X237841413Y-153694190D01*
X238276841Y-154081238D02*
X238373603Y-154129619D01*
X238567127Y-154129619D01*
X238663889Y-154081238D01*
X238712270Y-153984476D01*
X238712270Y-153936095D01*
X238663889Y-153839333D01*
X238567127Y-153790952D01*
X238421984Y-153790952D01*
X238325222Y-153742571D01*
X238276841Y-153645809D01*
X238276841Y-153597428D01*
X238325222Y-153500666D01*
X238421984Y-153452285D01*
X238567127Y-153452285D01*
X238663889Y-153500666D01*
X239583127Y-153452285D02*
X239583127Y-154129619D01*
X239147699Y-153452285D02*
X239147699Y-153984476D01*
X239196080Y-154081238D01*
X239292841Y-154129619D01*
X239437984Y-154129619D01*
X239534746Y-154081238D01*
X239583127Y-154032857D01*
X240066937Y-154129619D02*
X240066937Y-153452285D01*
X240066937Y-153645809D02*
X240115318Y-153549047D01*
X240163699Y-153500666D01*
X240260460Y-153452285D01*
X240357222Y-153452285D01*
X241082937Y-154081238D02*
X240986175Y-154129619D01*
X240792651Y-154129619D01*
X240695889Y-154081238D01*
X240647508Y-153984476D01*
X240647508Y-153597428D01*
X240695889Y-153500666D01*
X240792651Y-153452285D01*
X240986175Y-153452285D01*
X241082937Y-153500666D01*
X241131318Y-153597428D01*
X241131318Y-153694190D01*
X240647508Y-153790952D01*
X242002175Y-154129619D02*
X242002175Y-153113619D01*
X242002175Y-154081238D02*
X241905413Y-154129619D01*
X241711889Y-154129619D01*
X241615127Y-154081238D01*
X241566746Y-154032857D01*
X241518365Y-153936095D01*
X241518365Y-153645809D01*
X241566746Y-153549047D01*
X241615127Y-153500666D01*
X241711889Y-153452285D01*
X241905413Y-153452285D01*
X242002175Y-153500666D01*
X243260080Y-154129619D02*
X243260080Y-153113619D01*
X243743889Y-153452285D02*
X243743889Y-154129619D01*
X243743889Y-153549047D02*
X243792270Y-153500666D01*
X243889032Y-153452285D01*
X244034175Y-153452285D01*
X244130937Y-153500666D01*
X244179318Y-153597428D01*
X244179318Y-154129619D01*
X245098556Y-154129619D02*
X245098556Y-153113619D01*
X245098556Y-154081238D02*
X245001794Y-154129619D01*
X244808270Y-154129619D01*
X244711508Y-154081238D01*
X244663127Y-154032857D01*
X244614746Y-153936095D01*
X244614746Y-153645809D01*
X244663127Y-153549047D01*
X244711508Y-153500666D01*
X244808270Y-153452285D01*
X245001794Y-153452285D01*
X245098556Y-153500666D01*
X246017794Y-153452285D02*
X246017794Y-154129619D01*
X245582365Y-153452285D02*
X245582365Y-153984476D01*
X245630746Y-154081238D01*
X245727508Y-154129619D01*
X245872651Y-154129619D01*
X245969413Y-154081238D01*
X246017794Y-154032857D01*
X246937032Y-154081238D02*
X246840270Y-154129619D01*
X246646746Y-154129619D01*
X246549984Y-154081238D01*
X246501603Y-154032857D01*
X246453222Y-153936095D01*
X246453222Y-153645809D01*
X246501603Y-153549047D01*
X246549984Y-153500666D01*
X246646746Y-153452285D01*
X246840270Y-153452285D01*
X246937032Y-153500666D01*
X247227318Y-153452285D02*
X247614365Y-153452285D01*
X247372460Y-153113619D02*
X247372460Y-153984476D01*
X247420841Y-154081238D01*
X247517603Y-154129619D01*
X247614365Y-154129619D01*
X248388460Y-154129619D02*
X248388460Y-153597428D01*
X248340080Y-153500666D01*
X248243318Y-153452285D01*
X248049794Y-153452285D01*
X247953032Y-153500666D01*
X248388460Y-154081238D02*
X248291699Y-154129619D01*
X248049794Y-154129619D01*
X247953032Y-154081238D01*
X247904651Y-153984476D01*
X247904651Y-153887714D01*
X247953032Y-153790952D01*
X248049794Y-153742571D01*
X248291699Y-153742571D01*
X248388460Y-153694190D01*
X248872270Y-153452285D02*
X248872270Y-154129619D01*
X248872270Y-153549047D02*
X248920651Y-153500666D01*
X249017413Y-153452285D01*
X249162556Y-153452285D01*
X249259318Y-153500666D01*
X249307699Y-153597428D01*
X249307699Y-154129619D01*
X250226937Y-154081238D02*
X250130175Y-154129619D01*
X249936651Y-154129619D01*
X249839889Y-154081238D01*
X249791508Y-154032857D01*
X249743127Y-153936095D01*
X249743127Y-153645809D01*
X249791508Y-153549047D01*
X249839889Y-153500666D01*
X249936651Y-153452285D01*
X250130175Y-153452285D01*
X250226937Y-153500666D01*
X251049413Y-154081238D02*
X250952651Y-154129619D01*
X250759127Y-154129619D01*
X250662365Y-154081238D01*
X250613984Y-153984476D01*
X250613984Y-153597428D01*
X250662365Y-153500666D01*
X250759127Y-153452285D01*
X250952651Y-153452285D01*
X251049413Y-153500666D01*
X251097794Y-153597428D01*
X251097794Y-153694190D01*
X250613984Y-153790952D01*
X251533222Y-154032857D02*
X251581603Y-154081238D01*
X251533222Y-154129619D01*
X251484841Y-154081238D01*
X251533222Y-154032857D01*
X251533222Y-154129619D01*
X251533222Y-153500666D02*
X251581603Y-153549047D01*
X251533222Y-153597428D01*
X251484841Y-153549047D01*
X251533222Y-153500666D01*
X251533222Y-153597428D01*
X235373984Y-157584019D02*
X235373984Y-156568019D01*
X235615889Y-156568019D01*
X235761032Y-156616400D01*
X235857794Y-156713161D01*
X235906175Y-156809923D01*
X235954556Y-157003447D01*
X235954556Y-157148590D01*
X235906175Y-157342114D01*
X235857794Y-157438876D01*
X235761032Y-157535638D01*
X235615889Y-157584019D01*
X235373984Y-157584019D01*
X236970556Y-157487257D02*
X236922175Y-157535638D01*
X236777032Y-157584019D01*
X236680270Y-157584019D01*
X236535127Y-157535638D01*
X236438365Y-157438876D01*
X236389984Y-157342114D01*
X236341603Y-157148590D01*
X236341603Y-157003447D01*
X236389984Y-156809923D01*
X236438365Y-156713161D01*
X236535127Y-156616400D01*
X236680270Y-156568019D01*
X236777032Y-156568019D01*
X236922175Y-156616400D01*
X236970556Y-156664780D01*
X238760651Y-157584019D02*
X238421984Y-157100209D01*
X238180080Y-157584019D02*
X238180080Y-156568019D01*
X238567127Y-156568019D01*
X238663889Y-156616400D01*
X238712270Y-156664780D01*
X238760651Y-156761542D01*
X238760651Y-156906685D01*
X238712270Y-157003447D01*
X238663889Y-157051828D01*
X238567127Y-157100209D01*
X238180080Y-157100209D01*
X239583127Y-157535638D02*
X239486365Y-157584019D01*
X239292841Y-157584019D01*
X239196080Y-157535638D01*
X239147699Y-157438876D01*
X239147699Y-157051828D01*
X239196080Y-156955066D01*
X239292841Y-156906685D01*
X239486365Y-156906685D01*
X239583127Y-156955066D01*
X239631508Y-157051828D01*
X239631508Y-157148590D01*
X239147699Y-157245352D01*
X240018556Y-157535638D02*
X240115318Y-157584019D01*
X240308841Y-157584019D01*
X240405603Y-157535638D01*
X240453984Y-157438876D01*
X240453984Y-157390495D01*
X240405603Y-157293733D01*
X240308841Y-157245352D01*
X240163699Y-157245352D01*
X240066937Y-157196971D01*
X240018556Y-157100209D01*
X240018556Y-157051828D01*
X240066937Y-156955066D01*
X240163699Y-156906685D01*
X240308841Y-156906685D01*
X240405603Y-156955066D01*
X240889413Y-157584019D02*
X240889413Y-156906685D01*
X240889413Y-156568019D02*
X240841032Y-156616400D01*
X240889413Y-156664780D01*
X240937794Y-156616400D01*
X240889413Y-156568019D01*
X240889413Y-156664780D01*
X241324841Y-157535638D02*
X241421603Y-157584019D01*
X241615127Y-157584019D01*
X241711889Y-157535638D01*
X241760270Y-157438876D01*
X241760270Y-157390495D01*
X241711889Y-157293733D01*
X241615127Y-157245352D01*
X241469984Y-157245352D01*
X241373222Y-157196971D01*
X241324841Y-157100209D01*
X241324841Y-157051828D01*
X241373222Y-156955066D01*
X241469984Y-156906685D01*
X241615127Y-156906685D01*
X241711889Y-156955066D01*
X242050556Y-156906685D02*
X242437603Y-156906685D01*
X242195699Y-156568019D02*
X242195699Y-157438876D01*
X242244080Y-157535638D01*
X242340841Y-157584019D01*
X242437603Y-157584019D01*
X243211699Y-157584019D02*
X243211699Y-157051828D01*
X243163318Y-156955066D01*
X243066556Y-156906685D01*
X242873032Y-156906685D01*
X242776270Y-156955066D01*
X243211699Y-157535638D02*
X243114937Y-157584019D01*
X242873032Y-157584019D01*
X242776270Y-157535638D01*
X242727889Y-157438876D01*
X242727889Y-157342114D01*
X242776270Y-157245352D01*
X242873032Y-157196971D01*
X243114937Y-157196971D01*
X243211699Y-157148590D01*
X243695508Y-156906685D02*
X243695508Y-157584019D01*
X243695508Y-157003447D02*
X243743889Y-156955066D01*
X243840651Y-156906685D01*
X243985794Y-156906685D01*
X244082556Y-156955066D01*
X244130937Y-157051828D01*
X244130937Y-157584019D01*
X245050175Y-157535638D02*
X244953413Y-157584019D01*
X244759889Y-157584019D01*
X244663127Y-157535638D01*
X244614746Y-157487257D01*
X244566365Y-157390495D01*
X244566365Y-157100209D01*
X244614746Y-157003447D01*
X244663127Y-156955066D01*
X244759889Y-156906685D01*
X244953413Y-156906685D01*
X245050175Y-156955066D01*
X245872651Y-157535638D02*
X245775889Y-157584019D01*
X245582365Y-157584019D01*
X245485603Y-157535638D01*
X245437222Y-157438876D01*
X245437222Y-157051828D01*
X245485603Y-156955066D01*
X245582365Y-156906685D01*
X245775889Y-156906685D01*
X245872651Y-156955066D01*
X245921032Y-157051828D01*
X245921032Y-157148590D01*
X245437222Y-157245352D01*
X246356460Y-157487257D02*
X246404841Y-157535638D01*
X246356460Y-157584019D01*
X246308080Y-157535638D01*
X246356460Y-157487257D01*
X246356460Y-157584019D01*
X246356460Y-156955066D02*
X246404841Y-157003447D01*
X246356460Y-157051828D01*
X246308080Y-157003447D01*
X246356460Y-156955066D01*
X246356460Y-157051828D01*
X200373984Y-153732419D02*
X200373984Y-152716419D01*
X200761032Y-152716419D01*
X200857794Y-152764800D01*
X200906175Y-152813180D01*
X200954556Y-152909942D01*
X200954556Y-153055085D01*
X200906175Y-153151847D01*
X200857794Y-153200228D01*
X200761032Y-153248609D01*
X200373984Y-153248609D01*
X201970556Y-153635657D02*
X201922175Y-153684038D01*
X201777032Y-153732419D01*
X201680270Y-153732419D01*
X201535127Y-153684038D01*
X201438365Y-153587276D01*
X201389984Y-153490514D01*
X201341603Y-153296990D01*
X201341603Y-153151847D01*
X201389984Y-152958323D01*
X201438365Y-152861561D01*
X201535127Y-152764800D01*
X201680270Y-152716419D01*
X201777032Y-152716419D01*
X201922175Y-152764800D01*
X201970556Y-152813180D01*
X202744651Y-153200228D02*
X202889794Y-153248609D01*
X202938175Y-153296990D01*
X202986556Y-153393752D01*
X202986556Y-153538895D01*
X202938175Y-153635657D01*
X202889794Y-153684038D01*
X202793032Y-153732419D01*
X202405984Y-153732419D01*
X202405984Y-152716419D01*
X202744651Y-152716419D01*
X202841413Y-152764800D01*
X202889794Y-152813180D01*
X202938175Y-152909942D01*
X202938175Y-153006704D01*
X202889794Y-153103466D01*
X202841413Y-153151847D01*
X202744651Y-153200228D01*
X202405984Y-153200228D01*
X204776651Y-153635657D02*
X204728270Y-153684038D01*
X204583127Y-153732419D01*
X204486365Y-153732419D01*
X204341222Y-153684038D01*
X204244460Y-153587276D01*
X204196080Y-153490514D01*
X204147699Y-153296990D01*
X204147699Y-153151847D01*
X204196080Y-152958323D01*
X204244460Y-152861561D01*
X204341222Y-152764800D01*
X204486365Y-152716419D01*
X204583127Y-152716419D01*
X204728270Y-152764800D01*
X204776651Y-152813180D01*
X205357222Y-153732419D02*
X205260460Y-153684038D01*
X205212080Y-153635657D01*
X205163699Y-153538895D01*
X205163699Y-153248609D01*
X205212080Y-153151847D01*
X205260460Y-153103466D01*
X205357222Y-153055085D01*
X205502365Y-153055085D01*
X205599127Y-153103466D01*
X205647508Y-153151847D01*
X205695889Y-153248609D01*
X205695889Y-153538895D01*
X205647508Y-153635657D01*
X205599127Y-153684038D01*
X205502365Y-153732419D01*
X205357222Y-153732419D01*
X206131318Y-153732419D02*
X206131318Y-153055085D01*
X206131318Y-152716419D02*
X206082937Y-152764800D01*
X206131318Y-152813180D01*
X206179699Y-152764800D01*
X206131318Y-152716419D01*
X206131318Y-152813180D01*
X206760270Y-153732419D02*
X206663508Y-153684038D01*
X206615127Y-153587276D01*
X206615127Y-152716419D01*
X207776270Y-152716419D02*
X208114937Y-153732419D01*
X208453603Y-152716419D01*
X208743889Y-152813180D02*
X208792270Y-152764800D01*
X208889032Y-152716419D01*
X209130937Y-152716419D01*
X209227699Y-152764800D01*
X209276080Y-152813180D01*
X209324460Y-152909942D01*
X209324460Y-153006704D01*
X209276080Y-153151847D01*
X208695508Y-153732419D01*
X209324460Y-153732419D01*
X209759889Y-153635657D02*
X209808270Y-153684038D01*
X209759889Y-153732419D01*
X209711508Y-153684038D01*
X209759889Y-153635657D01*
X209759889Y-153732419D01*
X210437222Y-152716419D02*
X210533984Y-152716419D01*
X210630746Y-152764800D01*
X210679127Y-152813180D01*
X210727508Y-152909942D01*
X210775889Y-153103466D01*
X210775889Y-153345371D01*
X210727508Y-153538895D01*
X210679127Y-153635657D01*
X210630746Y-153684038D01*
X210533984Y-153732419D01*
X210437222Y-153732419D01*
X210340460Y-153684038D01*
X210292080Y-153635657D01*
X210243699Y-153538895D01*
X210195318Y-153345371D01*
X210195318Y-153103466D01*
X210243699Y-152909942D01*
X210292080Y-152813180D01*
X210340460Y-152764800D01*
X210437222Y-152716419D01*
X200325603Y-155169333D02*
X200809413Y-155169333D01*
X200228841Y-155459619D02*
X200567508Y-154443619D01*
X200906175Y-155459619D01*
X201244841Y-155362857D02*
X201293222Y-155411238D01*
X201244841Y-155459619D01*
X201196460Y-155411238D01*
X201244841Y-155362857D01*
X201244841Y-155459619D01*
X202260841Y-154492000D02*
X202164080Y-154443619D01*
X202018937Y-154443619D01*
X201873794Y-154492000D01*
X201777032Y-154588761D01*
X201728651Y-154685523D01*
X201680270Y-154879047D01*
X201680270Y-155024190D01*
X201728651Y-155217714D01*
X201777032Y-155314476D01*
X201873794Y-155411238D01*
X202018937Y-155459619D01*
X202115699Y-155459619D01*
X202260841Y-155411238D01*
X202309222Y-155362857D01*
X202309222Y-155024190D01*
X202115699Y-155024190D01*
X203131699Y-155411238D02*
X203034937Y-155459619D01*
X202841413Y-155459619D01*
X202744651Y-155411238D01*
X202696270Y-155314476D01*
X202696270Y-154927428D01*
X202744651Y-154830666D01*
X202841413Y-154782285D01*
X203034937Y-154782285D01*
X203131699Y-154830666D01*
X203180080Y-154927428D01*
X203180080Y-155024190D01*
X202696270Y-155120952D01*
X200277222Y-156170819D02*
X200954556Y-156170819D01*
X200519127Y-157186819D01*
X201341603Y-156799771D02*
X202115699Y-156799771D01*
X202551127Y-156267580D02*
X202599508Y-156219200D01*
X202696270Y-156170819D01*
X202938175Y-156170819D01*
X203034937Y-156219200D01*
X203083318Y-156267580D01*
X203131699Y-156364342D01*
X203131699Y-156461104D01*
X203083318Y-156606247D01*
X202502746Y-157186819D01*
X203131699Y-157186819D01*
X203760651Y-156170819D02*
X203857413Y-156170819D01*
X203954175Y-156219200D01*
X204002556Y-156267580D01*
X204050937Y-156364342D01*
X204099318Y-156557866D01*
X204099318Y-156799771D01*
X204050937Y-156993295D01*
X204002556Y-157090057D01*
X203954175Y-157138438D01*
X203857413Y-157186819D01*
X203760651Y-157186819D01*
X203663889Y-157138438D01*
X203615508Y-157090057D01*
X203567127Y-156993295D01*
X203518746Y-156799771D01*
X203518746Y-156557866D01*
X203567127Y-156364342D01*
X203615508Y-156267580D01*
X203663889Y-156219200D01*
X203760651Y-156170819D01*
X204486365Y-156267580D02*
X204534746Y-156219200D01*
X204631508Y-156170819D01*
X204873413Y-156170819D01*
X204970175Y-156219200D01*
X205018556Y-156267580D01*
X205066937Y-156364342D01*
X205066937Y-156461104D01*
X205018556Y-156606247D01*
X204437984Y-157186819D01*
X205066937Y-157186819D01*
X206034556Y-157186819D02*
X205453984Y-157186819D01*
X205744270Y-157186819D02*
X205744270Y-156170819D01*
X205647508Y-156315961D01*
X205550746Y-156412723D01*
X205453984Y-156461104D01*
D12*
X231200000Y-156330000D02*
X231200000Y-153670000D01*
X228600000Y-156330000D02*
X231200000Y-156330000D01*
X228600000Y-153670000D02*
X231200000Y-153670000D01*
X228600000Y-156330000D02*
X228600000Y-153670000D01*
X227330000Y-156330000D02*
X226000000Y-156330000D01*
X226000000Y-156330000D02*
X226000000Y-155000000D01*
M02*
