G04 #@! TF.GenerationSoftware,KiCad,Pcbnew,(5.1.6)-1*
G04 #@! TF.CreationDate,2021-07-30T18:51:46-07:00*
G04 #@! TF.ProjectId,Inductor Coils,496e6475-6374-46f7-9220-436f696c732e,rev?*
G04 #@! TF.SameCoordinates,Original*
G04 #@! TF.FileFunction,Soldermask,Top*
G04 #@! TF.FilePolarity,Negative*
%FSLAX46Y46*%
G04 Gerber Fmt 4.6, Leading zero omitted, Abs format (unit mm)*
G04 Created by KiCad (PCBNEW (5.1.6)-1) date 2021-07-30 18:51:46*
%MOMM*%
%LPD*%
G01*
G04 APERTURE LIST*
%ADD10C,0.100000*%
G04 APERTURE END LIST*
D10*
G36*
X229983512Y-154103927D02*
G01*
X230132812Y-154133624D01*
X230296784Y-154201544D01*
X230444354Y-154300147D01*
X230569853Y-154425646D01*
X230668456Y-154573216D01*
X230736376Y-154737188D01*
X230771000Y-154911259D01*
X230771000Y-155088741D01*
X230736376Y-155262812D01*
X230668456Y-155426784D01*
X230569853Y-155574354D01*
X230444354Y-155699853D01*
X230296784Y-155798456D01*
X230132812Y-155866376D01*
X229983512Y-155896073D01*
X229958742Y-155901000D01*
X229781258Y-155901000D01*
X229756488Y-155896073D01*
X229607188Y-155866376D01*
X229443216Y-155798456D01*
X229295646Y-155699853D01*
X229170147Y-155574354D01*
X229071544Y-155426784D01*
X229003624Y-155262812D01*
X228969000Y-155088741D01*
X228969000Y-154911259D01*
X229003624Y-154737188D01*
X229071544Y-154573216D01*
X229170147Y-154425646D01*
X229295646Y-154300147D01*
X229443216Y-154201544D01*
X229607188Y-154133624D01*
X229756488Y-154103927D01*
X229781258Y-154099000D01*
X229958742Y-154099000D01*
X229983512Y-154103927D01*
G37*
G36*
X228231000Y-155901000D02*
G01*
X226429000Y-155901000D01*
X226429000Y-154099000D01*
X228231000Y-154099000D01*
X228231000Y-155901000D01*
G37*
M02*
