G04 #@! TF.GenerationSoftware,KiCad,Pcbnew,(5.1.6)-1*
G04 #@! TF.CreationDate,2021-07-30T18:53:30-07:00*
G04 #@! TF.ProjectId,Inductor Coils,496e6475-6374-46f7-9220-436f696c732e,rev?*
G04 #@! TF.SameCoordinates,Original*
G04 #@! TF.FileFunction,Copper,L1,Top*
G04 #@! TF.FilePolarity,Positive*
%FSLAX46Y46*%
G04 Gerber Fmt 4.6, Leading zero omitted, Abs format (unit mm)*
G04 Created by KiCad (PCBNEW (5.1.6)-1) date 2021-07-30 18:53:30*
%MOMM*%
%LPD*%
G01*
G04 APERTURE LIST*
G04 #@! TA.AperFunction,ComponentPad*
%ADD10O,1.700000X1.700000*%
G04 #@! TD*
G04 #@! TA.AperFunction,ComponentPad*
%ADD11R,1.700000X1.700000*%
G04 #@! TD*
G04 #@! TA.AperFunction,ViaPad*
%ADD12C,0.800000*%
G04 #@! TD*
G04 #@! TA.AperFunction,Conductor*
%ADD13C,0.700000*%
G04 #@! TD*
G04 APERTURE END LIST*
D10*
X229870000Y-155000000D03*
D11*
X227330000Y-155000000D03*
D12*
X228600000Y-130400000D03*
D13*
X228600000Y-130400000D02*
X228600000Y-130400000D01*
X226416214Y-130149999D02*
X224362500Y-129339565D01*
X224362500Y-129339565D02*
X222580754Y-128019246D01*
X222580754Y-128019246D02*
X221195483Y-126275000D01*
X221195483Y-126275000D02*
X220305112Y-124222609D01*
X220305112Y-124222609D02*
X219975000Y-122000000D01*
X219975000Y-122000000D02*
X220232668Y-119757980D01*
X220232668Y-119757980D02*
X221065579Y-117650000D01*
X221065579Y-117650000D02*
X222421654Y-115821654D01*
X222421654Y-115821654D02*
X224212500Y-114400627D01*
X224212500Y-114400627D02*
X226319157Y-113487779D01*
X226319157Y-113487779D02*
X228600000Y-113150000D01*
X228600000Y-113150000D02*
X230900254Y-113415334D01*
X230900254Y-113415334D02*
X233062500Y-114270723D01*
X233062500Y-114270723D02*
X234937445Y-115662555D01*
X234937445Y-115662555D02*
X236394229Y-117500000D01*
X236394229Y-117500000D02*
X237329555Y-119660923D01*
X237329555Y-119660923D02*
X237675000Y-122000000D01*
X237675000Y-122000000D02*
X237401999Y-124358489D01*
X237401999Y-124358489D02*
X236524132Y-126575000D01*
X236524132Y-126575000D02*
X235096544Y-128496544D01*
X235096544Y-128496544D02*
X233212500Y-129989084D01*
X233212500Y-129989084D02*
X230997311Y-130946888D01*
X230997311Y-130946888D02*
X228600000Y-131300000D01*
X228600000Y-131300000D02*
X226523403Y-131098167D01*
X226523403Y-131098167D02*
X224536989Y-130436930D01*
X224536989Y-130436930D02*
X222741423Y-129346424D01*
X222741423Y-129346424D02*
X221228446Y-127878618D01*
X221228446Y-127878618D02*
X220076191Y-126104850D01*
X220076191Y-126104850D02*
X219345149Y-124112359D01*
X219345149Y-124112359D02*
X219075000Y-122000000D01*
X219075000Y-122000000D02*
X219282475Y-119873336D01*
X219282475Y-119873336D02*
X219960352Y-117839365D01*
X219960352Y-117839365D02*
X221077664Y-116001137D01*
X221077664Y-116001137D02*
X222581097Y-114452534D01*
X222581097Y-114452534D02*
X224397526Y-113273473D01*
X224397526Y-113273473D02*
X226437573Y-112525790D01*
X226437573Y-112525790D02*
X228600000Y-112250000D01*
X228600000Y-112250000D02*
X230776732Y-112463116D01*
X230776732Y-112463116D02*
X232858259Y-113157634D01*
X232858259Y-113157634D02*
X234739148Y-114301752D01*
X234739148Y-114301752D02*
X236323378Y-115840811D01*
X236323378Y-115840811D02*
X237529245Y-117699902D01*
X237529245Y-117699902D02*
X238293569Y-119787506D01*
X238293569Y-119787506D02*
X238575000Y-122000000D01*
X238575000Y-122000000D02*
X238356243Y-124226799D01*
X238356243Y-124226799D02*
X237645084Y-126355883D01*
X237645084Y-126355883D02*
X236474160Y-128279433D01*
X236474160Y-128279433D02*
X234899474Y-129899290D01*
X234899474Y-129899290D02*
X232997722Y-131131963D01*
X232997722Y-131131963D02*
X230862561Y-131912928D01*
X230862561Y-131912928D02*
X228600000Y-132200000D01*
X228600000Y-132200000D02*
X226604592Y-132031594D01*
X226604592Y-132031594D02*
X224675103Y-131475539D01*
X224675103Y-131475539D02*
X222886307Y-130551145D01*
X222886307Y-130551145D02*
X221307961Y-129292039D01*
X221307961Y-129292039D02*
X220002085Y-127744943D01*
X220002085Y-127744943D02*
X219020524Y-125967949D01*
X219020524Y-125967949D02*
X218402898Y-124028330D01*
X218402898Y-124028330D02*
X218175000Y-122000000D01*
X218175000Y-122000000D02*
X218347729Y-119960696D01*
X218347729Y-119960696D02*
X218916588Y-117988999D01*
X218916588Y-117988999D02*
X219861774Y-116161304D01*
X219861774Y-116161304D02*
X221148862Y-114548862D01*
X221148862Y-114548862D02*
X222730053Y-113215004D01*
X222730053Y-113215004D02*
X224545947Y-112212651D01*
X224545947Y-112212651D02*
X226527775Y-111582221D01*
X226527775Y-111582221D02*
X228600000Y-111350000D01*
X228600000Y-111350000D02*
X230683199Y-111527052D01*
X230683199Y-111527052D02*
X232697104Y-112108715D01*
X232697104Y-112108715D02*
X234563699Y-113074693D01*
X234563699Y-113074693D02*
X236210237Y-114389763D01*
X236210237Y-114389763D02*
X237572077Y-116005050D01*
X237572077Y-116005050D02*
X238595222Y-117859844D01*
X238595222Y-117859844D02*
X239238455Y-119883880D01*
X239238455Y-119883880D02*
X239475000Y-122000000D01*
X239475000Y-122000000D02*
X239293625Y-124127094D01*
X239293625Y-124127094D02*
X238699158Y-126183208D01*
X238699158Y-126183208D02*
X237712387Y-128088703D01*
X237712387Y-128088703D02*
X236369336Y-129769336D01*
X236369336Y-129769336D02*
X234719953Y-131159157D01*
X234719953Y-131159157D02*
X232826260Y-132203095D01*
X232826260Y-132203095D02*
X230760016Y-132859132D01*
X230760016Y-132859132D02*
X228600000Y-133100000D01*
X228600000Y-133100000D02*
X226668164Y-132955986D01*
X226668164Y-132955986D02*
X224786475Y-132477573D01*
X224786475Y-132477573D02*
X223012500Y-131677834D01*
X223012500Y-131677834D02*
X221400779Y-130579698D01*
X221400779Y-130579698D02*
X220001151Y-129215291D01*
X220001151Y-129215291D02*
X218857214Y-127625000D01*
X218857214Y-127625000D02*
X218004966Y-125856277D01*
X218004966Y-125856277D02*
X217471672Y-123962224D01*
X217471672Y-123962224D02*
X217275000Y-122000000D01*
X217275000Y-122000000D02*
X217422432Y-120029093D01*
X217422432Y-120029093D02*
X217910996Y-118109521D01*
X217910996Y-118109521D02*
X218727310Y-116300000D01*
X218727310Y-116300000D02*
X219847942Y-114656152D01*
X219847942Y-114656152D02*
X221240082Y-113228791D01*
X221240082Y-113228791D02*
X222862500Y-112062358D01*
X222862500Y-112062358D02*
X224666768Y-111193535D01*
X224666768Y-111193535D02*
X226598705Y-110650091D01*
X226598705Y-110650091D02*
X228600000Y-110450000D01*
X228600000Y-110450000D02*
X230609978Y-110600850D01*
X230609978Y-110600850D02*
X232567434Y-111099566D01*
X232567434Y-111099566D02*
X234412500Y-111932455D01*
X234412500Y-111932455D02*
X236088476Y-113075582D01*
X236088476Y-113075582D02*
X237543569Y-114495455D01*
X237543569Y-114495455D02*
X238732497Y-116150000D01*
X238732497Y-116150000D02*
X239617896Y-117989814D01*
X239617896Y-117989814D02*
X240171491Y-119959634D01*
X240171491Y-119959634D02*
X240375000Y-122000000D01*
X240375000Y-122000000D02*
X240220731Y-124049048D01*
X240220731Y-124049048D02*
X239711865Y-126044388D01*
X239711865Y-126044388D02*
X238862401Y-127925000D01*
X238862401Y-127925000D02*
X237696778Y-129633103D01*
X237696778Y-129633103D02*
X236249173Y-131115929D01*
X236249173Y-131115929D02*
X234562500Y-132327353D01*
X234562500Y-132327353D02*
X232687141Y-133229327D01*
X232687141Y-133229327D02*
X230679437Y-133793073D01*
X230679437Y-133793073D02*
X228600000Y-134000000D01*
X228600000Y-134000000D02*
X226719267Y-133874483D01*
X226719267Y-133874483D02*
X224877890Y-133455476D01*
X224877890Y-133455476D02*
X223121470Y-132752221D01*
X223121470Y-132752221D02*
X221493676Y-131781015D01*
X221493676Y-131781015D02*
X220035169Y-130564831D01*
X220035169Y-130564831D02*
X218782579Y-129132774D01*
X218782579Y-129132774D02*
X217767588Y-127519390D01*
X217767588Y-127519390D02*
X217016132Y-125763827D01*
X217016132Y-125763827D02*
X216547733Y-123908892D01*
X216547733Y-123908892D02*
X216375000Y-122000000D01*
X216375000Y-122000000D02*
X216503287Y-120084069D01*
X216503287Y-120084069D02*
X216930537Y-118208361D01*
X216930537Y-118208361D02*
X217647302Y-116419322D01*
X217647302Y-116419322D02*
X218636956Y-114761425D01*
X218636956Y-114761425D02*
X219876070Y-113276070D01*
X219876070Y-113276070D02*
X221334974Y-112000550D01*
X221334974Y-112000550D02*
X222978463Y-110967112D01*
X222978463Y-110967112D02*
X224766644Y-110202144D01*
X224766644Y-110202144D02*
X226655911Y-109725503D01*
X226655911Y-109725503D02*
X228600000Y-109550000D01*
X228600000Y-109550000D02*
X230551129Y-109681057D01*
X230551129Y-109681057D02*
X232461167Y-110116549D01*
X232461167Y-110116549D02*
X234282826Y-110846826D01*
X234282826Y-110846826D02*
X235970827Y-111854927D01*
X235970827Y-111854927D02*
X237483029Y-113116971D01*
X237483029Y-113116971D02*
X238781479Y-114602723D01*
X238781479Y-114602723D02*
X239833365Y-116276315D01*
X239833365Y-116276315D02*
X240611844Y-118097115D01*
X240611844Y-118097115D02*
X241096727Y-120020713D01*
X241096727Y-120020713D02*
X241275000Y-122000000D01*
X241275000Y-122000000D02*
X241141173Y-123986327D01*
X241141173Y-123986327D02*
X240697439Y-125930696D01*
X240697439Y-125930696D02*
X239953651Y-127784974D01*
X239953651Y-127784974D02*
X238927102Y-129503079D01*
X238927102Y-129503079D02*
X237642128Y-131042128D01*
X237642128Y-131042128D02*
X236129529Y-132363508D01*
X236129529Y-132363508D02*
X234425833Y-133433841D01*
X234425833Y-133433841D02*
X232572413Y-134225832D01*
X232572413Y-134225832D02*
X230614485Y-134718957D01*
X230614485Y-134718957D02*
X228600000Y-134900000D01*
X228600000Y-134900000D02*
X226761228Y-134788943D01*
X226761228Y-134788943D02*
X224954125Y-134416711D01*
X224954125Y-134416711D02*
X223215655Y-133790071D01*
X223215655Y-133790071D02*
X221581499Y-132921000D01*
X221581499Y-132921000D02*
X220085322Y-131826462D01*
X220085322Y-131826462D02*
X218758079Y-130528073D01*
X218758079Y-130528073D02*
X217627377Y-129051676D01*
X217627377Y-129051676D02*
X216716898Y-127426831D01*
X216716898Y-127426831D02*
X216045907Y-125686214D01*
X216045907Y-125686214D02*
X215628840Y-123864971D01*
X215628840Y-123864971D02*
X215475000Y-122000000D01*
X215475000Y-122000000D02*
X215588347Y-120129207D01*
X215588347Y-120129207D02*
X215967403Y-118290735D01*
X215967403Y-118290735D02*
X216605262Y-116522187D01*
X216605262Y-116522187D02*
X217489718Y-114859855D01*
X217489718Y-114859855D02*
X218603494Y-113337978D01*
X218603494Y-113337978D02*
X219924584Y-111988036D01*
X219924584Y-111988036D02*
X221426679Y-110838095D01*
X221426679Y-110838095D02*
X223079701Y-109912231D01*
X223079701Y-109912231D02*
X224850396Y-109230021D01*
X224850396Y-109230021D02*
X226703008Y-108806130D01*
X226703008Y-108806130D02*
X228600000Y-108650000D01*
X228600000Y-108650000D02*
X230502814Y-108765637D01*
X230502814Y-108765637D02*
X232372655Y-109151517D01*
X232372655Y-109151517D02*
X234171282Y-109800595D01*
X234171282Y-109800595D02*
X235861789Y-110700436D01*
X235861789Y-110700436D02*
X237409365Y-111833451D01*
X237409365Y-111833451D02*
X238782008Y-113177240D01*
X238782008Y-113177240D02*
X239951187Y-114705035D01*
X239951187Y-114705035D02*
X240892436Y-116386233D01*
X240892436Y-116386233D02*
X241585865Y-118187006D01*
X241585865Y-118187006D02*
X242016580Y-120070987D01*
X242016580Y-120070987D02*
X242175000Y-122000000D01*
X242175000Y-122000000D02*
X242057072Y-123934835D01*
X242057072Y-123934835D02*
X241664369Y-125836045D01*
X241664369Y-125836045D02*
X241004073Y-127664750D01*
X241004073Y-127664750D02*
X240088847Y-129383433D01*
X240088847Y-129383433D02*
X238936593Y-130956709D01*
X238936593Y-130956709D02*
X237570104Y-132352052D01*
X237570104Y-132352052D02*
X236016609Y-133540469D01*
X236016609Y-133540469D02*
X234307236Y-134497103D01*
X234307236Y-134497103D02*
X232476384Y-135201751D01*
X232476384Y-135201751D02*
X230561034Y-135639290D01*
X230561034Y-135639290D02*
X228600000Y-135800000D01*
X228600000Y-135800000D02*
X226796291Y-135700529D01*
X226796291Y-135700529D02*
X225018591Y-135365999D01*
X225018591Y-135365999D02*
X223297443Y-134801506D01*
X223297443Y-134801506D02*
X221662500Y-134016102D01*
X221662500Y-134016102D02*
X220142021Y-133022653D01*
X220142021Y-133022653D02*
X218762377Y-131837623D01*
X218762377Y-131837623D02*
X217547596Y-130480808D01*
X217547596Y-130480808D02*
X216518946Y-128975000D01*
X216518946Y-128975000D02*
X215694558Y-127345609D01*
X215694558Y-127345609D02*
X215089113Y-125620231D01*
X215089113Y-125620231D02*
X214713575Y-123828182D01*
X214713575Y-123828182D02*
X214575000Y-122000000D01*
X214575000Y-122000000D02*
X214676396Y-120166923D01*
X214676396Y-120166923D02*
X215016668Y-118360357D01*
X215016668Y-118360357D02*
X215590621Y-116611339D01*
X215590621Y-116611339D02*
X216389042Y-114950000D01*
X216389042Y-114950000D02*
X217398843Y-113405050D01*
X217398843Y-113405050D02*
X218603278Y-112003278D01*
X218603278Y-112003278D02*
X219982221Y-110769092D01*
X219982221Y-110769092D02*
X221512500Y-109724090D01*
X221512500Y-109724090D02*
X223168287Y-108886685D01*
X223168287Y-108886685D02*
X224921534Y-108271779D01*
X224921534Y-108271779D02*
X226742449Y-107890500D01*
X226742449Y-107890500D02*
X228600000Y-107750000D01*
X228600000Y-107750000D02*
X230462446Y-107853321D01*
X230462446Y-107853321D02*
X232297877Y-108199335D01*
X232297877Y-108199335D02*
X234074765Y-108782748D01*
X234074765Y-108782748D02*
X235762500Y-109594186D01*
X235762500Y-109594186D02*
X237331922Y-110620338D01*
X237331922Y-110620338D02*
X238755821Y-111844179D01*
X238755821Y-111844179D02*
X240009413Y-113245250D01*
X240009413Y-113245250D02*
X241070766Y-114800000D01*
X241070766Y-114800000D02*
X241921188Y-116482183D01*
X241921188Y-116482183D02*
X242545554Y-118263300D01*
X242545554Y-118263300D02*
X242932575Y-120113081D01*
X242932575Y-120113081D02*
X243075000Y-122000000D01*
X243075000Y-122000000D02*
X242969754Y-123891814D01*
X242969754Y-123891814D02*
X242617999Y-125756111D01*
X242617999Y-125756111D02*
X242025124Y-127560869D01*
X242025124Y-127560869D02*
X241200670Y-129275000D01*
X241200670Y-129275000D02*
X240158166Y-130868893D01*
X240158166Y-130868893D02*
X238914920Y-132314920D01*
X238914920Y-132314920D02*
X237491722Y-133587917D01*
X237491722Y-133587917D02*
X235912500Y-134665622D01*
X235912500Y-134665622D02*
X234203921Y-135529061D01*
X234203921Y-135529061D02*
X232394934Y-136162887D01*
X232394934Y-136162887D02*
X230516288Y-136555650D01*
X230516288Y-136555650D02*
X228600000Y-136700000D01*
X228600000Y-136700000D02*
X226826025Y-136610002D01*
X226826025Y-136610002D02*
X225073776Y-136306454D01*
X225073776Y-136306454D02*
X223368896Y-135793288D01*
X223368896Y-135793288D02*
X221736396Y-135077504D01*
X221736396Y-135077504D02*
X220200289Y-134169083D01*
X220200289Y-134169083D02*
X218783234Y-133080838D01*
X218783234Y-133080838D02*
X217506207Y-131828243D01*
X217506207Y-131828243D02*
X216388186Y-130429207D01*
X216388186Y-130429207D02*
X215445870Y-128903820D01*
X215445870Y-128903820D02*
X214693431Y-127274066D01*
X214693431Y-127274066D02*
X214142303Y-125563502D01*
X214142303Y-125563502D02*
X213801002Y-123796924D01*
X213801002Y-123796924D02*
X213675000Y-122000000D01*
X213675000Y-122000000D02*
X213766639Y-120198904D01*
X213766639Y-120198904D02*
X214075084Y-118419930D01*
X214075084Y-118419930D02*
X214596334Y-116689110D01*
X214596334Y-116689110D02*
X215323268Y-115031834D01*
X215323268Y-115031834D02*
X216245746Y-113472474D01*
X216245746Y-113472474D02*
X217350747Y-112034032D01*
X217350747Y-112034032D02*
X218622554Y-110737792D01*
X218622554Y-110737792D02*
X220042979Y-109603014D01*
X220042979Y-109603014D02*
X221591617Y-108646642D01*
X221591617Y-108646642D02*
X223246148Y-107883053D01*
X223246148Y-107883053D02*
X224982652Y-107323841D01*
X224982652Y-107323841D02*
X226775956Y-106977642D01*
X226775956Y-106977642D02*
X228600000Y-106850000D01*
X228600000Y-106850000D02*
X230428217Y-106943279D01*
X230428217Y-106943279D02*
X232233916Y-107256622D01*
X232233916Y-107256622D02*
X233990676Y-107785955D01*
X233990676Y-107785955D02*
X235672729Y-108524040D01*
X235672729Y-108524040D02*
X237255340Y-109460575D01*
X237255340Y-109460575D02*
X238715171Y-110582332D01*
X238715171Y-110582332D02*
X240030623Y-111873352D01*
X240030623Y-111873352D02*
X241182157Y-113315164D01*
X241182157Y-113315164D02*
X242152586Y-114887054D01*
X242152586Y-114887054D02*
X242927326Y-116566362D01*
X242927326Y-116566362D02*
X243494621Y-118328806D01*
X243494621Y-118328806D02*
X243845717Y-120148835D01*
X243845717Y-120148835D02*
X243975000Y-122000000D01*
X243975000Y-122000000D02*
X243880080Y-123855338D01*
X243880080Y-123855338D02*
X243561840Y-125687762D01*
X243561840Y-125687762D02*
X243024424Y-127470462D01*
X243024424Y-127470462D02*
X242275187Y-129177292D01*
X242275187Y-129177292D02*
X241324597Y-130783155D01*
X241324597Y-130783155D02*
X240186083Y-132264374D01*
X240186083Y-132264374D02*
X238875851Y-133599038D01*
X238875851Y-133599038D02*
X237412651Y-134767329D01*
X237412651Y-134767329D02*
X235817508Y-135751813D01*
X235817508Y-135751813D02*
X234113424Y-136537704D01*
X234113424Y-136537704D02*
X232325040Y-137113083D01*
X232325040Y-137113083D02*
X230478286Y-137469077D01*
X230478286Y-137469077D02*
X228600000Y-137600000D01*
X228600000Y-137600000D02*
X226851555Y-137517881D01*
X226851555Y-137517881D02*
X225121521Y-137240212D01*
X225121521Y-137240212D02*
X223431722Y-136770089D01*
X223431722Y-136770089D02*
X221803521Y-136113034D01*
X221803521Y-136113034D02*
X220257547Y-135276938D01*
X220257547Y-135276938D02*
X218813437Y-134271962D01*
X218813437Y-134271962D02*
X217489585Y-133110415D01*
X217489585Y-133110415D02*
X216302908Y-131806604D01*
X216302908Y-131806604D02*
X215268630Y-130376655D01*
X215268630Y-130376655D02*
X214400087Y-128838318D01*
X214400087Y-128838318D02*
X213708555Y-127210742D01*
X213708555Y-127210742D02*
X213203103Y-125514241D01*
X213203103Y-125514241D02*
X212890475Y-123770038D01*
X212890475Y-123770038D02*
X212775000Y-122000000D01*
X212775000Y-122000000D02*
X212858534Y-120226363D01*
X212858534Y-120226363D02*
X213140429Y-118471454D01*
X213140429Y-118471454D02*
X213617538Y-116757410D01*
X213617538Y-116757410D02*
X214284248Y-115105897D01*
X214284248Y-115105897D02*
X215132549Y-113537840D01*
X215132549Y-113537840D02*
X216152126Y-112073152D01*
X216152126Y-112073152D02*
X217330486Y-110730486D01*
X217330486Y-110730486D02*
X218653111Y-109526996D01*
X218653111Y-109526996D02*
X220103638Y-108478117D01*
X220103638Y-108478117D02*
X221664059Y-107597369D01*
X221664059Y-107597369D02*
X223314945Y-106896181D01*
X223314945Y-106896181D02*
X225035691Y-106383744D01*
X225035691Y-106383744D02*
X226804770Y-106066889D01*
X226804770Y-106066889D02*
X228600000Y-105950000D01*
X228600000Y-105950000D02*
X230398829Y-106034949D01*
X230398829Y-106034949D02*
X232178613Y-106321070D01*
X232178613Y-106321070D02*
X233916903Y-106805164D01*
X233916903Y-106805164D02*
X235591727Y-107481530D01*
X235591727Y-107481530D02*
X237181867Y-108342036D01*
X237181867Y-108342036D02*
X238667134Y-109376214D01*
X238667134Y-109376214D02*
X240028613Y-110571387D01*
X240028613Y-110571387D02*
X241248916Y-111912826D01*
X241248916Y-111912826D02*
X242312396Y-113383931D01*
X242312396Y-113383931D02*
X243205349Y-114966435D01*
X243205349Y-114966435D02*
X243916193Y-116640632D01*
X243916193Y-116640632D02*
X244435615Y-118385624D01*
X244435615Y-118385624D02*
X244756696Y-120179578D01*
X244756696Y-120179578D02*
X244875000Y-122000000D01*
X244875000Y-122000000D02*
X244788637Y-123824021D01*
X244788637Y-123824021D02*
X244498289Y-125628681D01*
X244498289Y-125628681D02*
X244007210Y-127391216D01*
X244007210Y-127391216D02*
X243321188Y-129089350D01*
X243321188Y-129089350D02*
X242448477Y-130701575D01*
X242448477Y-130701575D02*
X241399698Y-132207419D01*
X241399698Y-132207419D02*
X240187712Y-133587712D01*
X240187712Y-133587712D02*
X238827459Y-134824829D01*
X238827459Y-134824829D02*
X237335777Y-135902909D01*
X237335777Y-135902909D02*
X235731189Y-136808067D01*
X235731189Y-136808067D02*
X234033680Y-137528566D01*
X234033680Y-137528566D02*
X232264443Y-138054974D01*
X232264443Y-138054974D02*
X230445614Y-138380281D01*
X230445614Y-138380281D02*
X228600000Y-138500000D01*
X228600000Y-138500000D02*
X226873712Y-138424529D01*
X226873712Y-138424529D02*
X225163220Y-138168780D01*
X225163220Y-138168780D02*
X223487314Y-137735230D01*
X223487314Y-137735230D02*
X221864441Y-137128313D01*
X221864441Y-137128313D02*
X220312500Y-136354371D01*
X220312500Y-136354371D02*
X218848643Y-135421592D01*
X218848643Y-135421592D02*
X217489086Y-134339920D01*
X217489086Y-134339920D02*
X216248933Y-133120951D01*
X216248933Y-133120951D02*
X215142002Y-131777808D01*
X215142002Y-131777808D02*
X214180677Y-130325000D01*
X214180677Y-130325000D02*
X213375765Y-128778266D01*
X213375765Y-128778266D02*
X212736377Y-127154403D01*
X212736377Y-127154403D02*
X212269826Y-125471086D01*
X212269826Y-125471086D02*
X211981539Y-123746671D01*
X211981539Y-123746671D02*
X211875000Y-122000000D01*
X211875000Y-122000000D02*
X211951703Y-120250194D01*
X211951703Y-120250194D02*
X212211137Y-118516440D01*
X212211137Y-118516440D02*
X212650782Y-116817785D01*
X212650782Y-116817785D02*
X213266139Y-115172925D01*
X213266139Y-115172925D02*
X214050773Y-113600000D01*
X214050773Y-113600000D02*
X214996379Y-112116391D01*
X214996379Y-112116391D02*
X216092873Y-110738532D01*
X216092873Y-110738532D02*
X217328495Y-109481725D01*
X217328495Y-109481725D02*
X218689941Y-108359973D01*
X218689941Y-108359973D02*
X220162500Y-107385821D01*
X220162500Y-107385821D02*
X221730218Y-106570217D01*
X221730218Y-106570217D02*
X223376068Y-105922390D01*
X223376068Y-105922390D02*
X225082134Y-105449743D01*
X225082134Y-105449743D02*
X226829810Y-105157772D01*
X226829810Y-105157772D02*
X228600000Y-105050000D01*
X228600000Y-105050000D02*
X230373325Y-105127936D01*
X230373325Y-105127936D02*
X232130341Y-105391054D01*
X232130341Y-105391054D02*
X233851744Y-105836795D01*
X233851744Y-105836795D02*
X235518590Y-106460592D01*
X235518590Y-106460592D02*
X237112500Y-107255918D01*
X237112500Y-107255918D02*
X238615861Y-108214350D01*
X238615861Y-108214350D02*
X240012022Y-109325665D01*
X240012022Y-109325665D02*
X241285482Y-110577941D01*
X241285482Y-110577941D02*
X242422055Y-111957689D01*
X242422055Y-111957689D02*
X243409034Y-113450000D01*
X243409034Y-113450000D02*
X244235331Y-115038702D01*
X244235331Y-115038702D02*
X244891598Y-116706539D01*
X244891598Y-116706539D02*
X245370341Y-118435354D01*
X245370341Y-118435354D02*
X245665996Y-120206292D01*
X245665996Y-120206292D02*
X245775000Y-122000000D01*
X245775000Y-122000000D02*
X245695831Y-123796844D01*
X245695831Y-123796844D02*
X245429029Y-125577121D01*
X245429029Y-125577121D02*
X244977193Y-127321273D01*
X244977193Y-127321273D02*
X244344956Y-129010106D01*
X244344956Y-129010106D02*
X243538938Y-130625000D01*
X243538938Y-130625000D02*
X242567678Y-132148112D01*
X242567678Y-132148112D02*
X241441543Y-133562577D01*
X241441543Y-133562577D02*
X240172614Y-134852690D01*
X240172614Y-134852690D02*
X238774563Y-136004084D01*
X238774563Y-136004084D02*
X237262500Y-137003890D01*
X237262500Y-137003890D02*
X235652813Y-137840878D01*
X235652813Y-137840878D02*
X233962990Y-138505586D01*
X233962990Y-138505586D02*
X232211426Y-138990424D01*
X232211426Y-138990424D02*
X230417227Y-139289763D01*
X230417227Y-139289763D02*
X228600000Y-139400000D01*
X228600000Y-139400000D02*
X226893123Y-139330209D01*
X226893123Y-139330209D02*
X225199941Y-139093248D01*
X225199941Y-139093248D02*
X223536800Y-138691133D01*
X223536800Y-138691133D02*
X221919782Y-138127472D01*
X221919782Y-138127472D02*
X220364552Y-137407440D01*
X220364552Y-137407440D02*
X218886202Y-136537727D01*
X218886202Y-136537727D02*
X217499109Y-135526475D01*
X217499109Y-135526475D02*
X216216792Y-134383208D01*
X216216792Y-134383208D02*
X215051784Y-133118734D01*
X215051784Y-133118734D02*
X214015503Y-131745049D01*
X214015503Y-131745049D02*
X213118148Y-130275222D01*
X213118148Y-130275222D02*
X212368591Y-128723270D01*
X212368591Y-128723270D02*
X211774298Y-127104021D01*
X211774298Y-127104021D02*
X211341244Y-125432980D01*
X211341244Y-125432980D02*
X211073864Y-123726174D01*
X211073864Y-123726174D02*
X210975000Y-122000000D01*
X210975000Y-122000000D02*
X211045874Y-120271070D01*
X211045874Y-120271070D02*
X211286075Y-118556046D01*
X211286075Y-118556046D02*
X211693556Y-116871486D01*
X211693556Y-116871486D02*
X212264655Y-115233679D01*
X212264655Y-115233679D02*
X212994128Y-113658487D01*
X212994128Y-113658487D02*
X213875193Y-112161198D01*
X213875193Y-112161198D02*
X214899598Y-110756370D01*
X214899598Y-110756370D02*
X216057693Y-109457693D01*
X216057693Y-109457693D02*
X217338528Y-108277857D01*
X217338528Y-108277857D02*
X218729948Y-107228423D01*
X218729948Y-107228423D02*
X220218713Y-106319716D01*
X220218713Y-106319716D02*
X221790627Y-105560719D01*
X221790627Y-105560719D02*
X223430665Y-104958986D01*
X223430665Y-104958986D02*
X225123125Y-104520567D01*
X225123125Y-104520567D02*
X226851772Y-104249947D01*
X226851772Y-104249947D02*
X228600000Y-104150000D01*
X228600000Y-104150000D02*
X230350984Y-104221958D01*
X230350984Y-104221958D02*
X232087849Y-104465398D01*
X232087849Y-104465398D02*
X233793828Y-104878244D01*
X233793828Y-104878244D02*
X235452425Y-105456782D01*
X235452425Y-105456782D02*
X237047577Y-106195695D01*
X237047577Y-106195695D02*
X238563805Y-107088112D01*
X238563805Y-107088112D02*
X239986368Y-108125670D01*
X239986368Y-108125670D02*
X241301406Y-109298594D01*
X241301406Y-109298594D02*
X242496071Y-110595789D01*
X242496071Y-110595789D02*
X243558658Y-112004944D01*
X243558658Y-112004944D02*
X244478717Y-113512649D01*
X244478717Y-113512649D02*
X245247154Y-115104523D01*
X245247154Y-115104523D02*
X245856326Y-116765351D01*
X245856326Y-116765351D02*
X246300109Y-118479229D01*
X246300109Y-118479229D02*
X246573969Y-120229719D01*
X246573969Y-120229719D02*
X246675000Y-122000000D01*
X246675000Y-122000000D02*
X246601959Y-123773038D01*
X246601959Y-123773038D02*
X246355279Y-125531744D01*
X246355279Y-125531744D02*
X245937067Y-127259142D01*
X245937067Y-127259142D02*
X245351091Y-128938529D01*
X245351091Y-128938529D02*
X244602737Y-130553641D01*
X244602737Y-130553641D02*
X243698968Y-132088808D01*
X243698968Y-132088808D02*
X242648257Y-133529107D01*
X242648257Y-133529107D02*
X241460505Y-134860505D01*
X241460505Y-134860505D02*
X240146949Y-136069998D01*
X240146949Y-136069998D02*
X238720059Y-137145739D01*
X238720059Y-137145739D02*
X237193415Y-138077149D01*
X237193415Y-138077149D02*
X235581581Y-138855027D01*
X235581581Y-138855027D02*
X233899963Y-139471637D01*
X233899963Y-139471637D02*
X232164666Y-139920786D01*
X232164666Y-139920786D02*
X230392335Y-140197886D01*
X230392335Y-140197886D02*
X228600000Y-140300000D01*
X228600000Y-140300000D02*
X226910268Y-140235114D01*
X226910268Y-140235114D02*
X225232520Y-140014428D01*
X225232520Y-140014428D02*
X223581101Y-139639599D01*
X223581101Y-139639599D02*
X221970153Y-139113608D01*
X221970153Y-139113608D02*
X220413491Y-138440727D01*
X220413491Y-138440727D02*
X218924487Y-137626491D01*
X218924487Y-137626491D02*
X217515954Y-136677649D01*
X217515954Y-136677649D02*
X216200037Y-135602111D01*
X216200037Y-135602111D02*
X214988108Y-134408879D01*
X214988108Y-134408879D02*
X213890665Y-133107974D01*
X213890665Y-133107974D02*
X212917245Y-131710351D01*
X212917245Y-131710351D02*
X212076339Y-130227806D01*
X212076339Y-130227806D02*
X211375318Y-128672877D01*
X211375318Y-128672877D02*
X210820370Y-127058741D01*
X210820370Y-127058741D02*
X210416443Y-125399096D01*
X210416443Y-125399096D02*
X210167203Y-123708050D01*
X210167203Y-123708050D02*
X210075000Y-122000000D01*
X210075000Y-122000000D02*
X210140846Y-120289507D01*
X210140846Y-120289507D02*
X210364403Y-118591176D01*
X210364403Y-118591176D02*
X210743990Y-116919527D01*
X210743990Y-116919527D02*
X211276586Y-115288874D01*
X211276586Y-115288874D02*
X211957861Y-113713200D01*
X211957861Y-113713200D02*
X212782210Y-112206039D01*
X212782210Y-112206039D02*
X213742797Y-110780361D01*
X213742797Y-110780361D02*
X214831612Y-109448456D01*
X214831612Y-109448456D02*
X216039539Y-108221831D01*
X216039539Y-108221831D02*
X217356433Y-107111111D01*
X217356433Y-107111111D02*
X218771202Y-106125946D01*
X218771202Y-106125946D02*
X220271903Y-105274927D01*
X220271903Y-105274927D02*
X221845843Y-104565512D01*
X221845843Y-104565512D02*
X223479685Y-104003959D01*
X223479685Y-104003959D02*
X225159560Y-103595274D01*
X225159560Y-103595274D02*
X226871189Y-103343163D01*
X226871189Y-103343163D02*
X228600000Y-103250000D01*
X228600000Y-103250000D02*
X230331253Y-103316805D01*
X230331253Y-103316805D02*
X232050167Y-103543235D01*
X232050167Y-103543235D02*
X233742047Y-103927579D01*
X233742047Y-103927579D02*
X235392406Y-104466780D01*
X235392406Y-104466780D02*
X236987092Y-105156450D01*
X236987092Y-105156450D02*
X238512408Y-105990911D01*
X238512408Y-105990911D02*
X239955232Y-106963243D01*
X239955232Y-106963243D02*
X241303126Y-108065335D01*
X241303126Y-108065335D02*
X242544446Y-109287958D01*
X242544446Y-109287958D02*
X243668443Y-110620840D01*
X243668443Y-110620840D02*
X244665353Y-112052755D01*
X244665353Y-112052755D02*
X245526485Y-113571612D01*
X245526485Y-113571612D02*
X246244294Y-115164564D01*
X246244294Y-115164564D02*
X246812451Y-116818111D01*
X246812451Y-116818111D02*
X247225895Y-118518217D01*
X247225895Y-118518217D02*
X247480877Y-120250429D01*
X247480877Y-120250429D02*
X247575000Y-122000000D01*
X247575000Y-122000000D02*
X247507235Y-123752013D01*
X247507235Y-123752013D02*
X247277934Y-125491511D01*
X247277934Y-125491511D02*
X246888832Y-127203621D01*
X246888832Y-127203621D02*
X246343027Y-128873685D01*
X246343027Y-128873685D02*
X245644962Y-130487383D01*
X245644962Y-130487383D02*
X244800387Y-132030855D01*
X244800387Y-132030855D02*
X243816311Y-133490825D01*
X243816311Y-133490825D02*
X242700942Y-134854707D01*
X242700942Y-134854707D02*
X241463624Y-136110723D01*
X241463624Y-136110723D02*
X240114753Y-137247997D01*
X240114753Y-137247997D02*
X238665693Y-138256652D01*
X238665693Y-138256652D02*
X237128679Y-139127896D01*
X237128679Y-139127896D02*
X235516715Y-139854101D01*
X235516715Y-139854101D02*
X233843463Y-140428862D01*
X233843463Y-140428862D02*
X232123127Y-140847064D01*
X232123127Y-140847064D02*
X230370331Y-141104917D01*
X230370331Y-141104917D02*
X228600000Y-141200000D01*
X228600000Y-141200000D02*
X226925520Y-141139391D01*
X226925520Y-141139391D02*
X225261614Y-140932929D01*
X225261614Y-140932929D02*
X223620969Y-140581998D01*
X223620969Y-140581998D02*
X222016112Y-140089083D01*
X222016112Y-140089083D02*
X220459316Y-139457754D01*
X220459316Y-139457754D02*
X218962500Y-138692640D01*
X218962500Y-138692640D02*
X217537144Y-137799395D01*
X217537144Y-137799395D02*
X216194199Y-136784658D01*
X216194199Y-136784658D02*
X214944000Y-135656000D01*
X214944000Y-135656000D02*
X213796191Y-134421871D01*
X213796191Y-134421871D02*
X212759647Y-133091534D01*
X212759647Y-133091534D02*
X211842408Y-131675000D01*
X211842408Y-131675000D02*
X211051615Y-130182946D01*
X211051615Y-130182946D02*
X210393455Y-128626640D01*
X210393455Y-128626640D02*
X209873113Y-127017854D01*
X209873113Y-127017854D02*
X209494730Y-125368775D01*
X209494730Y-125368775D02*
X209261370Y-123691911D01*
X209261370Y-123691911D02*
X209175000Y-122000000D01*
X209175000Y-122000000D02*
X209236466Y-120305910D01*
X209236466Y-120305910D02*
X209445489Y-118622543D01*
X209445489Y-118622543D02*
X209800669Y-116962734D01*
X209800669Y-116962734D02*
X210299486Y-115339158D01*
X210299486Y-115339158D02*
X210938327Y-113764227D01*
X210938327Y-113764227D02*
X211712505Y-112250000D01*
X211712505Y-112250000D02*
X212616296Y-110808090D01*
X212616296Y-110808090D02*
X213642982Y-109449572D01*
X213642982Y-109449572D02*
X214784901Y-108184901D01*
X214784901Y-108184901D02*
X216033502Y-107023831D01*
X216033502Y-107023831D02*
X217379411Y-105975338D01*
X217379411Y-105975338D02*
X218812500Y-105047553D01*
X218812500Y-105047553D02*
X220321965Y-104247696D01*
X220321965Y-104247696D02*
X221896405Y-103582025D01*
X221896405Y-103582025D02*
X223523911Y-103055780D01*
X223523911Y-103055780D02*
X225192155Y-102673148D01*
X225192155Y-102673148D02*
X226888479Y-102437227D01*
X226888479Y-102437227D02*
X228600000Y-102350000D01*
X228600000Y-102350000D02*
X230313700Y-102412322D01*
X230313700Y-102412322D02*
X232016528Y-102623907D01*
X232016528Y-102623907D02*
X233695500Y-102983335D01*
X233695500Y-102983335D02*
X235337797Y-103488055D01*
X235337797Y-103488055D02*
X236930862Y-104134408D01*
X236930862Y-104134408D02*
X238462500Y-104917649D01*
X238462500Y-104917649D02*
X239920965Y-105831987D01*
X239920965Y-105831987D02*
X241295055Y-106870622D01*
X241295055Y-106870622D02*
X242574198Y-108025802D01*
X242574198Y-108025802D02*
X243748529Y-109288875D01*
X243748529Y-109288875D02*
X244808971Y-110650356D01*
X244808971Y-110650356D02*
X245747303Y-112100000D01*
X245747303Y-112100000D02*
X246556223Y-113626876D01*
X246556223Y-113626876D02*
X247229406Y-115219451D01*
X247229406Y-115219451D02*
X247761554Y-116865677D01*
X247761554Y-116865677D02*
X248148434Y-118553084D01*
X248148434Y-118553084D02*
X248386917Y-120268869D01*
X248386917Y-120268869D02*
X248475000Y-122000000D01*
X248475000Y-122000000D02*
X248411822Y-123733310D01*
X248411822Y-123733310D02*
X248197674Y-125455599D01*
X248197674Y-125455599D02*
X247833998Y-127153734D01*
X247833998Y-127153734D02*
X247323375Y-128814751D01*
X247323375Y-128814751D02*
X246669512Y-130425952D01*
X246669512Y-130425952D02*
X245877207Y-131975000D01*
X245877207Y-131975000D02*
X244952323Y-133450020D01*
X244952323Y-133450020D02*
X243901738Y-134839683D01*
X243901738Y-134839683D02*
X242733297Y-136133297D01*
X242733297Y-136133297D02*
X241455752Y-137320889D01*
X241455752Y-137320889D02*
X240078698Y-138393280D01*
X240078698Y-138393280D02*
X238612500Y-139342159D01*
X238612500Y-139342159D02*
X237068213Y-140160142D01*
X237068213Y-140160142D02*
X235457504Y-140840837D01*
X235457504Y-140840837D02*
X233792557Y-141378887D01*
X233792557Y-141378887D02*
X232085987Y-141770016D01*
X232085987Y-141770016D02*
X230350741Y-142011061D01*
X230350741Y-142011061D02*
X228600000Y-142100000D01*
X228600000Y-142100000D02*
X226939177Y-142043150D01*
X226939177Y-142043150D02*
X225287750Y-141849223D01*
X225287750Y-141849223D02*
X223657021Y-141519385D01*
X223657021Y-141519385D02*
X222058160Y-141055728D01*
X222058160Y-141055728D02*
X220502137Y-140461267D01*
X220502137Y-140461267D02*
X218999640Y-139739911D01*
X218999640Y-139739911D02*
X217561003Y-138896443D01*
X217561003Y-138896443D02*
X216196136Y-137936485D01*
X216196136Y-137936485D02*
X214914456Y-136866463D01*
X214914456Y-136866463D02*
X213724824Y-135693564D01*
X213724824Y-135693564D02*
X212635480Y-134425685D01*
X212635480Y-134425685D02*
X211653988Y-133071382D01*
X211653988Y-133071382D02*
X210787185Y-131639813D01*
X210787185Y-131639813D02*
X210041131Y-130140675D01*
X210041131Y-130140675D02*
X209421066Y-128584136D01*
X209421066Y-128584136D02*
X208931379Y-126980771D01*
X208931379Y-126980771D02*
X208575568Y-125341487D01*
X208575568Y-125341487D02*
X208356222Y-123677447D01*
X208356222Y-123677447D02*
X208275000Y-122000000D01*
X208275000Y-122000000D02*
X208332619Y-120320597D01*
X208332619Y-120320597D02*
X208528845Y-118650717D01*
X208528845Y-118650717D02*
X208862500Y-117001786D01*
X208862500Y-117001786D02*
X209331463Y-115385103D01*
X209331463Y-115385103D02*
X209932684Y-113811756D01*
X209932684Y-113811756D02*
X210662207Y-112292552D01*
X210662207Y-112292552D02*
X211515195Y-110837940D01*
X211515195Y-110837940D02*
X212485958Y-109457938D01*
X212485958Y-109457938D02*
X213567999Y-108162068D01*
X213567999Y-108162068D02*
X214754048Y-106959286D01*
X214754048Y-106959286D02*
X216036117Y-105857923D01*
X216036117Y-105857923D02*
X217405554Y-104865626D01*
X217405554Y-104865626D02*
X218853098Y-103989303D01*
X218853098Y-103989303D02*
X220368944Y-103235082D01*
X220368944Y-103235082D02*
X221942806Y-102608258D01*
X221942806Y-102608258D02*
X223563994Y-102113264D01*
X223563994Y-102113264D02*
X225221479Y-101753636D01*
X225221479Y-101753636D02*
X226903972Y-101531990D01*
X226903972Y-101531990D02*
X228600000Y-101450000D01*
X228600000Y-101450000D02*
X230297983Y-101508387D01*
X230297983Y-101508387D02*
X231986317Y-101706914D01*
X231986317Y-101706914D02*
X233653448Y-102044385D01*
X233653448Y-102044385D02*
X235287955Y-102518654D01*
X235287955Y-102518654D02*
X236878626Y-103126635D01*
X236878626Y-103126635D02*
X238414536Y-103864325D01*
X238414536Y-103864325D02*
X239885124Y-104726832D01*
X239885124Y-104726832D02*
X241280260Y-105708402D01*
X241280260Y-105708402D02*
X242590320Y-106802461D01*
X242590320Y-106802461D02*
X243806252Y-108001659D01*
X243806252Y-108001659D02*
X244919633Y-109297919D01*
X244919633Y-109297919D02*
X245922737Y-110682491D01*
X245922737Y-110682491D02*
X246808578Y-112146010D01*
X246808578Y-112146010D02*
X247570967Y-113678562D01*
X247570967Y-113678562D02*
X248204551Y-115269749D01*
X248204551Y-115269749D02*
X248704851Y-116908760D01*
X248704851Y-116908760D02*
X249068295Y-118584446D01*
X249068295Y-118584446D02*
X249292241Y-120285392D01*
X249292241Y-120285392D02*
X249375000Y-122000000D01*
X249375000Y-122000000D02*
X249315845Y-123716564D01*
X249315845Y-123716564D02*
X249115017Y-125423351D01*
X249115017Y-125423351D02*
X248773730Y-127108682D01*
X248773730Y-127108682D02*
X248294155Y-128761012D01*
X248294155Y-128761012D02*
X247679414Y-130369007D01*
X247679414Y-130369007D02*
X246933556Y-131921624D01*
X246933556Y-131921624D02*
X246061530Y-133408187D01*
X246061530Y-133408187D02*
X245069155Y-134818458D01*
X245069155Y-134818458D02*
X243963077Y-136142709D01*
X243963077Y-136142709D02*
X242750729Y-137371789D01*
X242750729Y-137371789D02*
X241440278Y-138497190D01*
X241440278Y-138497190D02*
X240040572Y-139511099D01*
X240040572Y-139511099D02*
X238561078Y-140406460D01*
X238561078Y-140406460D02*
X237011819Y-141177016D01*
X237011819Y-141177016D02*
X235403308Y-141817360D01*
X235403308Y-141817360D02*
X233746474Y-142322966D01*
X233746474Y-142322966D02*
X232052588Y-142690226D01*
X232052588Y-142690226D02*
X230333188Y-142916473D01*
X230333188Y-142916473D02*
X228600000Y-143000000D01*
X228600000Y-143000000D02*
X226951476Y-142946479D01*
X226951476Y-142946479D02*
X225311356Y-142763678D01*
X225311356Y-142763678D02*
X223689769Y-142452586D01*
X223689769Y-142452586D02*
X222096737Y-142014984D01*
X222096737Y-142014984D02*
X220542122Y-141453438D01*
X220542122Y-141453438D02*
X219035555Y-140771280D01*
X219035555Y-140771280D02*
X217586383Y-139972589D01*
X217586383Y-139972589D02*
X216203609Y-139062168D01*
X216203609Y-139062168D02*
X214895834Y-138045516D01*
X214895834Y-138045516D02*
X213671208Y-136928792D01*
X213671208Y-136928792D02*
X212537374Y-135718778D01*
X212537374Y-135718778D02*
X211501426Y-134422841D01*
X211501426Y-134422841D02*
X210569858Y-133048885D01*
X210569858Y-133048885D02*
X209748529Y-131605304D01*
X209748529Y-131605304D02*
X209042625Y-130100930D01*
X209042625Y-130100930D02*
X208456623Y-128544980D01*
X208456623Y-128544980D02*
X207994266Y-126946999D01*
X207994266Y-126946999D02*
X207658538Y-125316802D01*
X207658538Y-125316802D02*
X207451645Y-123664412D01*
X207451645Y-123664412D02*
X207375000Y-122000000D01*
X207375000Y-122000000D02*
X207429214Y-120333823D01*
X207429214Y-120333823D02*
X207614092Y-118676159D01*
X207614092Y-118676159D02*
X207928631Y-117037243D01*
X207928631Y-117037243D02*
X208371028Y-115427209D01*
X208371028Y-115427209D02*
X208938689Y-113856018D01*
X208938689Y-113856018D02*
X209628244Y-112333407D01*
X209628244Y-112333407D02*
X210435567Y-110868821D01*
X210435567Y-110868821D02*
X211355803Y-109471357D01*
X211355803Y-109471357D02*
X212383392Y-108149709D01*
X212383392Y-108149709D02*
X213512109Y-106912109D01*
X213512109Y-106912109D02*
X214735096Y-105766283D01*
X214735096Y-105766283D02*
X216044907Y-104719397D01*
X216044907Y-104719397D02*
X217433553Y-103778014D01*
X217433553Y-103778014D02*
X218892548Y-102948053D01*
X218892548Y-102948053D02*
X220412966Y-102234752D01*
X220412966Y-102234752D02*
X221985491Y-101642635D01*
X221985491Y-101642635D02*
X223600476Y-101175483D01*
X223600476Y-101175483D02*
X225248001Y-100836308D01*
X225248001Y-100836308D02*
X226917935Y-100627339D01*
X226917935Y-100627339D02*
X228600000Y-100550000D01*
X228600000Y-100550000D02*
X230283830Y-100604908D01*
X230283830Y-100604908D02*
X231959039Y-100791862D01*
X231959039Y-100791862D02*
X233615282Y-101109848D01*
X233615282Y-101109848D02*
X235242320Y-101557040D01*
X235242320Y-101557040D02*
X236830086Y-102130816D01*
X236830086Y-102130816D02*
X238368741Y-102827767D01*
X238368741Y-102827767D02*
X239848741Y-103643723D01*
X239848741Y-103643723D02*
X241260894Y-104573774D01*
X241260894Y-104573774D02*
X242596417Y-105612301D01*
X242596417Y-105612301D02*
X243846990Y-106753010D01*
X243846990Y-106753010D02*
X245004808Y-107988970D01*
X245004808Y-107988970D02*
X246062632Y-109312655D01*
X246062632Y-109312655D02*
X247013830Y-110715990D01*
X247013830Y-110715990D02*
X247852423Y-112190400D01*
X247852423Y-112190400D02*
X248573121Y-113726863D01*
X248573121Y-113726863D02*
X249171352Y-115315962D01*
X249171352Y-115315962D02*
X249643301Y-116947951D01*
X249643301Y-116947951D02*
X249985922Y-118612803D01*
X249985922Y-118612803D02*
X250196968Y-120300282D01*
X250196968Y-120300282D02*
X250275000Y-122000000D01*
X250275000Y-122000000D02*
X250219399Y-123701484D01*
X250219399Y-123701484D02*
X250030368Y-125394237D01*
X250030368Y-125394237D02*
X249708936Y-127067807D01*
X249708936Y-127067807D02*
X249256948Y-128711849D01*
X249256948Y-128711849D02*
X248677057Y-130316189D01*
X248677057Y-130316189D02*
X247972709Y-131870888D01*
X247972709Y-131870888D02*
X247148121Y-133366303D01*
X247148121Y-133366303D02*
X246208255Y-134793146D01*
X246208255Y-134793146D02*
X245158790Y-136142543D01*
X245158790Y-136142543D02*
X244006089Y-137406089D01*
X244006089Y-137406089D02*
X242757156Y-138575900D01*
X242757156Y-138575900D02*
X241419596Y-139644661D01*
X241419596Y-139644661D02*
X240001572Y-140605674D01*
X240001572Y-140605674D02*
X238511748Y-141452900D01*
X238511748Y-141452900D02*
X236959241Y-142180994D01*
X236959241Y-142180994D02*
X235353566Y-142785340D01*
X235353566Y-142785340D02*
X233704575Y-143262084D01*
X233704575Y-143262084D02*
X232022395Y-143608152D01*
X232022395Y-143608152D02*
X230317372Y-143821274D01*
X230317372Y-143821274D02*
X228600000Y-143900000D01*
X228600000Y-143900000D02*
X226962610Y-143849447D01*
X226962610Y-143849447D02*
X225332781Y-143676584D01*
X225332781Y-143676584D02*
X223719639Y-143382258D01*
X223719639Y-143382258D02*
X222132229Y-142967998D01*
X222132229Y-142967998D02*
X220579460Y-142436003D01*
X220579460Y-142436003D02*
X219070054Y-141789138D01*
X219070054Y-141789138D02*
X217612500Y-141030908D01*
X217612500Y-141030908D02*
X216215006Y-140165450D01*
X216215006Y-140165450D02*
X214885451Y-139197500D01*
X214885451Y-139197500D02*
X213631341Y-138132377D01*
X213631341Y-138132377D02*
X212459769Y-136975946D01*
X212459769Y-136975946D02*
X211377369Y-135734590D01*
X211377369Y-135734590D02*
X210390288Y-134415172D01*
X210390288Y-134415172D02*
X209504140Y-133025000D01*
X209504140Y-133025000D02*
X208723983Y-131571785D01*
X208723983Y-131571785D02*
X208054287Y-130063598D01*
X208054287Y-130063598D02*
X207498905Y-128508826D01*
X207498905Y-128508826D02*
X207061057Y-126916123D01*
X207061057Y-126916123D02*
X206743307Y-125294366D01*
X206743307Y-125294366D02*
X206547550Y-123652603D01*
X206547550Y-123652603D02*
X206475000Y-122000000D01*
X206475000Y-122000000D02*
X206526182Y-120345796D01*
X206526182Y-120345796D02*
X206700929Y-118699246D01*
X206700929Y-118699246D02*
X206998383Y-117069572D01*
X206998383Y-117069572D02*
X207416999Y-115465909D01*
X207416999Y-115465909D02*
X207954550Y-113897258D01*
X207954550Y-113897258D02*
X208608144Y-112372430D01*
X208608144Y-112372430D02*
X209374236Y-110900000D01*
X209374236Y-110900000D02*
X210248647Y-109488259D01*
X210248647Y-109488259D02*
X211226588Y-108145166D01*
X211226588Y-108145166D02*
X212302686Y-106878303D01*
X212302686Y-106878303D02*
X213471015Y-105694832D01*
X213471015Y-105694832D02*
X214725125Y-104601457D01*
X214725125Y-104601457D02*
X216058081Y-103604384D01*
X216058081Y-103604384D02*
X217462500Y-102709284D01*
X217462500Y-102709284D02*
X218930591Y-101921265D01*
X218930591Y-101921265D02*
X220454200Y-101244840D01*
X220454200Y-101244840D02*
X222024854Y-100683901D01*
X222024854Y-100683901D02*
X223633810Y-100241698D01*
X223633810Y-100241698D02*
X225272099Y-99920820D01*
X225272099Y-99920820D02*
X226930583Y-99723179D01*
X226930583Y-99723179D02*
X228600000Y-99650000D01*
X228600000Y-99650000D02*
X230271018Y-99701811D01*
X230271018Y-99701811D02*
X231934288Y-99878442D01*
X231934288Y-99878442D02*
X233580495Y-100179024D01*
X233580495Y-100179024D02*
X235200411Y-100601995D01*
X235200411Y-100601995D02*
X236784944Y-101145103D01*
X236784944Y-101145103D02*
X238325194Y-101805426D01*
X238325194Y-101805426D02*
X239812500Y-102579380D01*
X239812500Y-102579380D02*
X241238488Y-103462743D01*
X241238488Y-103462743D02*
X242595119Y-104450675D01*
X242595119Y-104450675D02*
X243874736Y-105537749D01*
X243874736Y-105537749D02*
X245070105Y-106717976D01*
X245070105Y-106717976D02*
X246174455Y-107984840D01*
X246174455Y-107984840D02*
X247181520Y-109331334D01*
X247181520Y-109331334D02*
X248085572Y-110750000D01*
X248085572Y-110750000D02*
X248881453Y-112232967D01*
X248881453Y-112232967D02*
X249564607Y-113771998D01*
X249564607Y-113771998D02*
X250131103Y-115358534D01*
X250131103Y-115358534D02*
X250577661Y-116983742D01*
X250577661Y-116983742D02*
X250901667Y-118638565D01*
X250901667Y-118638565D02*
X251101191Y-120313769D01*
X251101191Y-120313769D02*
X251175000Y-122000000D01*
X251175000Y-122000000D02*
X251122560Y-123687833D01*
X251122560Y-123687833D02*
X250944045Y-125367823D01*
X250944045Y-125367823D02*
X250640335Y-127030563D01*
X250640335Y-127030563D02*
X250213009Y-128666730D01*
X250213009Y-128666730D02*
X249664343Y-130267145D01*
X249664343Y-130267145D02*
X248997292Y-131822818D01*
X248997292Y-131822818D02*
X248215475Y-133325000D01*
X248215475Y-133325000D02*
X247323161Y-134765235D01*
X247323161Y-134765235D02*
X246325237Y-136135405D01*
X246325237Y-136135405D02*
X245227187Y-137427775D01*
X245227187Y-137427775D02*
X244035063Y-138635041D01*
X244035063Y-138635041D02*
X242755445Y-139750367D01*
X242755445Y-139750367D02*
X241395413Y-140767424D01*
X241395413Y-140767424D02*
X239962500Y-141680427D01*
X239962500Y-141680427D02*
X238464657Y-142484171D01*
X238464657Y-142484171D02*
X236910204Y-143174053D01*
X236910204Y-143174053D02*
X235307786Y-143746107D01*
X235307786Y-143746107D02*
X233666325Y-144197019D01*
X233666325Y-144197019D02*
X231994970Y-144524154D01*
X231994970Y-144524154D02*
X230303045Y-144725562D01*
X230303045Y-144725562D02*
X228600000Y-144800000D01*
X228600000Y-144800000D02*
X226972737Y-144752109D01*
X226972737Y-144752109D02*
X225352311Y-144588175D01*
X225352311Y-144588175D02*
X223746990Y-144308929D01*
X223746990Y-144308929D02*
X222164972Y-143915692D01*
X222164972Y-143915692D02*
X220614346Y-143410366D01*
X220614346Y-143410366D02*
X219103046Y-142795428D01*
X219103046Y-142795428D02*
X217638813Y-142073915D01*
X217638813Y-142073915D02*
X216229155Y-141249410D01*
X216229155Y-141249410D02*
X214881308Y-140326026D01*
X214881308Y-140326026D02*
X213602201Y-139308383D01*
X213602201Y-139308383D02*
X212398416Y-138201584D01*
X212398416Y-138201584D02*
X211276159Y-137011194D01*
X211276159Y-137011194D02*
X210241224Y-135743207D01*
X210241224Y-135743207D02*
X209298967Y-134404021D01*
X209298967Y-134404021D02*
X208454275Y-133000398D01*
X208454275Y-133000398D02*
X207711542Y-131539439D01*
X207711542Y-131539439D02*
X207074645Y-130028542D01*
X207074645Y-130028542D02*
X206546926Y-128475367D01*
X206546926Y-128475367D02*
X206131174Y-126887794D01*
X206131174Y-126887794D02*
X205829608Y-125273888D01*
X205829608Y-125273888D02*
X205643866Y-123641855D01*
X205643866Y-123641855D02*
X205575000Y-122000000D01*
X205575000Y-122000000D02*
X205623464Y-120356686D01*
X205623464Y-120356686D02*
X205789115Y-118720290D01*
X205789115Y-118720290D02*
X206071213Y-117099162D01*
X206071213Y-117099162D02*
X206468422Y-115501582D01*
X206468422Y-115501582D02*
X206978820Y-113935717D01*
X206978820Y-113935717D02*
X207599905Y-112409578D01*
X207599905Y-112409578D02*
X208328607Y-110930982D01*
X208328607Y-110930982D02*
X209161308Y-109507511D01*
X209161308Y-109507511D02*
X210093852Y-108146471D01*
X210093852Y-108146471D02*
X211121573Y-106854857D01*
X211121573Y-106854857D02*
X212239317Y-105639317D01*
X212239317Y-105639317D02*
X213441462Y-104506115D01*
X213441462Y-104506115D02*
X214721955Y-103461102D01*
X214721955Y-103461102D02*
X216074335Y-102509685D01*
X216074335Y-102509685D02*
X217491771Y-101656797D01*
X217491771Y-101656797D02*
X218967092Y-100906874D01*
X218967092Y-100906874D02*
X220492828Y-100263831D01*
X220492828Y-100263831D02*
X222061243Y-99731040D01*
X222061243Y-99731040D02*
X223664379Y-99311316D01*
X223664379Y-99311316D02*
X225294091Y-99006898D01*
X225294091Y-99006898D02*
X226942094Y-98819440D01*
X226942094Y-98819440D02*
X228600000Y-98750000D01*
X228600000Y-98750000D02*
X230259366Y-98799037D01*
X230259366Y-98799037D02*
X231911731Y-98966405D01*
X231911731Y-98966405D02*
X233548665Y-99251355D01*
X233548665Y-99251355D02*
X235161807Y-99652536D01*
X235161807Y-99652536D02*
X236742913Y-100168007D01*
X236742913Y-100168007D02*
X238283890Y-100795238D01*
X238283890Y-100795238D02*
X239776849Y-101531130D01*
X239776849Y-101531130D02*
X241214133Y-102372026D01*
X241214133Y-102372026D02*
X242588367Y-103313730D01*
X242588367Y-103313730D02*
X243892486Y-104351530D01*
X243892486Y-104351530D02*
X245119782Y-105480218D01*
X245119782Y-105480218D02*
X246263929Y-106694119D01*
X246263929Y-106694119D02*
X247319019Y-107987118D01*
X247319019Y-107987118D02*
X248279597Y-109352691D01*
X248279597Y-109352691D02*
X249140680Y-110783940D01*
X249140680Y-110783940D02*
X249897793Y-112273624D01*
X249897793Y-112273624D02*
X250546983Y-113814199D01*
X250546983Y-113814199D02*
X251084846Y-115397854D01*
X251084846Y-115397854D02*
X251508542Y-117016552D01*
X251508542Y-117016552D02*
X251815812Y-118662070D01*
X251815812Y-118662070D02*
X252004987Y-120326042D01*
X252004987Y-120326042D02*
X252075000Y-122000000D01*
X252075000Y-122000000D02*
X252025390Y-123675417D01*
X252025390Y-123675417D02*
X251856305Y-125343752D01*
X251856305Y-125343752D02*
X251568503Y-126996492D01*
X251568503Y-126996492D02*
X251163350Y-128625197D01*
X251163350Y-128625197D02*
X250642807Y-130221542D01*
X250642807Y-130221542D02*
X250009429Y-131777359D01*
X250009429Y-131777359D02*
X249266348Y-133284680D01*
X249266348Y-133284680D02*
X248417257Y-134735777D01*
X248417257Y-134735777D02*
X247466392Y-136123204D01*
X247466392Y-136123204D02*
X246418514Y-137439830D01*
X246418514Y-137439830D02*
X245278881Y-138678881D01*
X245278881Y-138678881D02*
X244053225Y-139833972D01*
X244053225Y-139833972D02*
X242747720Y-140899141D01*
X242747720Y-140899141D02*
X241368953Y-141868879D01*
X241368953Y-141868879D02*
X239923891Y-142738158D01*
X239923891Y-142738158D02*
X238419844Y-143502460D01*
X238419844Y-143502460D02*
X236864431Y-144157796D01*
X236864431Y-144157796D02*
X235265536Y-144700731D01*
X235265536Y-144700731D02*
X233631275Y-145128400D01*
X233631275Y-145128400D02*
X231969951Y-145438522D01*
X231969951Y-145438522D02*
X230290009Y-145629414D01*
X230290009Y-145629414D02*
X228600000Y-145700000D01*
X228600000Y-145700000D02*
X226981987Y-145654510D01*
X226981987Y-145654510D02*
X225370186Y-145498640D01*
X225370186Y-145498640D02*
X223772121Y-145233027D01*
X223772121Y-145233027D02*
X222195259Y-144858819D01*
X222195259Y-144858819D02*
X220646973Y-144377673D01*
X220646973Y-144377673D02*
X219134510Y-143791744D01*
X219134510Y-143791744D02*
X217664954Y-143103681D01*
X217664954Y-143103681D02*
X216245197Y-142316607D01*
X216245197Y-142316607D02*
X214881903Y-141434115D01*
X214881903Y-141434115D02*
X213581479Y-140460242D01*
X213581479Y-140460242D02*
X212350042Y-139399457D01*
X212350042Y-139399457D02*
X211193394Y-138256635D01*
X211193394Y-138256635D02*
X210116992Y-137037042D01*
X210116992Y-137037042D02*
X209125924Y-135746304D01*
X209125924Y-135746304D02*
X208224883Y-134390383D01*
X208224883Y-134390383D02*
X207418147Y-132975552D01*
X207418147Y-132975552D02*
X206709556Y-131508362D01*
X206709556Y-131508362D02*
X206102496Y-129995615D01*
X206102496Y-129995615D02*
X205599883Y-128444330D01*
X205599883Y-128444330D02*
X205204147Y-126861714D01*
X205204147Y-126861714D02*
X204917222Y-125255123D01*
X204917222Y-125255123D02*
X204740535Y-123632032D01*
X204740535Y-123632032D02*
X204675000Y-122000000D01*
X204675000Y-122000000D02*
X204721015Y-120366633D01*
X204721015Y-120366633D02*
X204878456Y-118739549D01*
X204878456Y-118739549D02*
X205146679Y-117126344D01*
X205146679Y-117126344D02*
X205524525Y-115534555D01*
X205524525Y-115534555D02*
X206010319Y-113971625D01*
X206010319Y-113971625D02*
X206601883Y-112444870D01*
X206601883Y-112444870D02*
X207296545Y-110961440D01*
X207296545Y-110961440D02*
X208091148Y-109528291D01*
X208091148Y-109528291D02*
X208982066Y-108152150D01*
X208982066Y-108152150D02*
X209965223Y-106839484D01*
X209965223Y-106839484D02*
X211036105Y-105596467D01*
X211036105Y-105596467D02*
X212189790Y-104428956D01*
X212189790Y-104428956D02*
X213420963Y-103342457D01*
X213420963Y-103342457D02*
X214723943Y-102342106D01*
X214723943Y-102342106D02*
X216092711Y-101432639D01*
X216092711Y-101432639D02*
X217520934Y-100618373D01*
X217520934Y-100618373D02*
X219001998Y-99903183D01*
X219001998Y-99903183D02*
X220529037Y-99290488D01*
X220529037Y-99290488D02*
X222094965Y-98783227D01*
X222094965Y-98783227D02*
X223692508Y-98383853D01*
X223692508Y-98383853D02*
X225314240Y-98094317D01*
X225314240Y-98094317D02*
X226952613Y-97916059D01*
X226952613Y-97916059D02*
X228600000Y-97850000D01*
X228600000Y-97850000D02*
X230248722Y-97896539D01*
X230248722Y-97896539D02*
X231891089Y-98055551D01*
X231891089Y-98055551D02*
X233519434Y-98326385D01*
X233519434Y-98326385D02*
X235126149Y-98707868D01*
X235126149Y-98707868D02*
X236703723Y-99198310D01*
X236703723Y-99198310D02*
X238244771Y-99795511D01*
X238244771Y-99795511D02*
X239742075Y-100496771D01*
X239742075Y-100496771D02*
X241188615Y-101298904D01*
X241188615Y-101298904D02*
X242577603Y-102198248D01*
X242577603Y-102198248D02*
X243902511Y-103190688D01*
X243902511Y-103190688D02*
X245157107Y-104271667D01*
X245157107Y-104271667D02*
X246335482Y-105436216D01*
X246335482Y-105436216D02*
X247432078Y-106678968D01*
X247432078Y-106678968D02*
X248441712Y-107994190D01*
X248441712Y-107994190D02*
X249359605Y-109375804D01*
X249359605Y-109375804D02*
X250181401Y-110817419D01*
X250181401Y-110817419D02*
X250903189Y-112312358D01*
X250903189Y-112312358D02*
X251521521Y-113853689D01*
X251521521Y-113853689D02*
X252033430Y-115434261D01*
X252033430Y-115434261D02*
X252436441Y-117046731D01*
X252436441Y-117046731D02*
X252728587Y-118683602D01*
X252728587Y-118683602D02*
X252908416Y-120337259D01*
X252908416Y-120337259D02*
X252975000Y-122000000D01*
X252975000Y-122000000D02*
X252927936Y-123664076D01*
X252927936Y-123664076D02*
X252767353Y-125321726D01*
X252767353Y-125321726D02*
X252493909Y-126965211D01*
X252493909Y-126965211D02*
X252108788Y-128586854D01*
X252108788Y-128586854D02*
X251613699Y-130179071D01*
X251613699Y-130179071D02*
X251010862Y-131734411D01*
X251010862Y-131734411D02*
X250303003Y-133245590D01*
X250303003Y-133245590D02*
X249493341Y-134705522D01*
X249493341Y-134705522D02*
X248585570Y-136107356D01*
X248585570Y-136107356D02*
X247583848Y-137444506D01*
X247583848Y-137444506D02*
X246492771Y-138710682D01*
X246492771Y-138710682D02*
X245317359Y-139899920D01*
X245317359Y-139899920D02*
X244063027Y-141006613D01*
X244063027Y-141006613D02*
X242735563Y-142025530D01*
X242735563Y-142025530D02*
X241341102Y-142951850D01*
X241341102Y-142951850D02*
X239886095Y-143781176D01*
X239886095Y-143781176D02*
X238377282Y-144509562D01*
X238377282Y-144509562D02*
X236821658Y-145133530D01*
X236821658Y-145133530D02*
X235226443Y-145650086D01*
X235226443Y-145650086D02*
X233599047Y-146056735D01*
X233599047Y-146056735D02*
X231947035Y-146351491D01*
X231947035Y-146351491D02*
X230278096Y-146532892D01*
X230278096Y-146532892D02*
X228600000Y-146600000D01*
X228600000Y-146600000D02*
X226990470Y-146556684D01*
X226990470Y-146556684D02*
X225386608Y-146408133D01*
X225386608Y-146408133D02*
X223795291Y-146154902D01*
X223795291Y-146154902D02*
X222223346Y-145797998D01*
X222223346Y-145797998D02*
X220677522Y-145338869D01*
X220677522Y-145338869D02*
X219164462Y-144779405D01*
X219164462Y-144779405D02*
X217690673Y-144121927D01*
X217690673Y-144121927D02*
X216262500Y-143369177D01*
X216262500Y-143369177D02*
X214886096Y-142524308D01*
X214886096Y-142524308D02*
X213567397Y-141590869D01*
X213567397Y-141590869D02*
X212312098Y-140572793D01*
X212312098Y-140572793D02*
X211125624Y-139474376D01*
X211125624Y-139474376D02*
X210013110Y-138300265D01*
X210013110Y-138300265D02*
X208979380Y-137055431D01*
X208979380Y-137055431D02*
X208028922Y-135745155D01*
X208028922Y-135745155D02*
X207165871Y-134375000D01*
X207165871Y-134375000D02*
X206393991Y-132950792D01*
X206393991Y-132950792D02*
X205716659Y-131478590D01*
X205716659Y-131478590D02*
X205136847Y-129964667D01*
X205136847Y-129964667D02*
X204657114Y-128415477D01*
X204657114Y-128415477D02*
X204279590Y-126837630D01*
X204279590Y-126837630D02*
X204005971Y-125237865D01*
X204005971Y-125237865D02*
X203837507Y-123623020D01*
X203837507Y-123623020D02*
X203775000Y-122000000D01*
X203775000Y-122000000D02*
X203818797Y-120375754D01*
X203818797Y-120375754D02*
X203968792Y-118757240D01*
X203968792Y-118757240D02*
X204224421Y-117151396D01*
X204224421Y-117151396D02*
X204584669Y-115565111D01*
X204584669Y-115565111D02*
X205048072Y-114005198D01*
X205048072Y-114005198D02*
X205612722Y-112478358D01*
X205612722Y-112478358D02*
X206276277Y-110991158D01*
X206276277Y-110991158D02*
X207035967Y-109550000D01*
X207035967Y-109550000D02*
X207888612Y-108161093D01*
X207888612Y-108161093D02*
X208830626Y-106830426D01*
X208830626Y-106830426D02*
X209858043Y-105563745D01*
X209858043Y-105563745D02*
X210966525Y-104366525D01*
X210966525Y-104366525D02*
X212151382Y-103243946D01*
X212151382Y-103243946D02*
X213407598Y-102200876D01*
X213407598Y-102200876D02*
X214729842Y-101241841D01*
X214729842Y-101241841D02*
X216112500Y-100371016D01*
X216112500Y-100371016D02*
X217549694Y-99592195D01*
X217549694Y-99592195D02*
X219035306Y-98908786D01*
X219035306Y-98908786D02*
X220563009Y-98323788D01*
X220563009Y-98323788D02*
X222126289Y-97839780D01*
X222126289Y-97839780D02*
X223718474Y-97458913D01*
X223718474Y-97458913D02*
X225332766Y-97182896D01*
X225332766Y-97182896D02*
X226962265Y-97012989D01*
X226962265Y-97012989D02*
X228600000Y-96950000D01*
X228600000Y-96950000D02*
X230238962Y-96994279D01*
X230238962Y-96994279D02*
X231872128Y-97145717D01*
X231872128Y-97145717D02*
X233492499Y-97403744D01*
X233492499Y-97403744D02*
X235093123Y-97767336D01*
X235093123Y-97767336D02*
X236667126Y-98235013D01*
X236667126Y-98235013D02*
X238207746Y-98804849D01*
X238207746Y-98804849D02*
X239708357Y-99474481D01*
X239708357Y-99474481D02*
X241162500Y-100241112D01*
X241162500Y-100241112D02*
X242563911Y-101101531D01*
X242563911Y-101101531D02*
X243906545Y-102052122D01*
X243906545Y-102052122D02*
X245184608Y-103088879D01*
X245184608Y-103088879D02*
X246392574Y-104207426D01*
X246392574Y-104207426D02*
X247525218Y-105403030D01*
X247525218Y-105403030D02*
X248577629Y-106670626D01*
X248577629Y-106670626D02*
X249545239Y-108004839D01*
X249545239Y-108004839D02*
X250423840Y-109400000D01*
X250423840Y-109400000D02*
X251209601Y-110850179D01*
X251209601Y-110850179D02*
X251899087Y-112349202D01*
X251899087Y-112349202D02*
X252489272Y-113890685D01*
X252489272Y-113890685D02*
X252977553Y-115468054D01*
X252977553Y-115468054D02*
X253361763Y-117074579D01*
X253361763Y-117074579D02*
X253640179Y-118703398D01*
X253640179Y-118703398D02*
X253811529Y-120347549D01*
X253811529Y-120347549D02*
X253875000Y-122000000D01*
X253875000Y-122000000D02*
X253830239Y-123653677D01*
X253830239Y-123653677D02*
X253677358Y-125301497D01*
X253677358Y-125301497D02*
X253416933Y-126936395D01*
X253416933Y-126936395D02*
X253049997Y-128551357D01*
X253049997Y-128551357D02*
X252578046Y-130139450D01*
X252578046Y-130139450D02*
X252003023Y-131693850D01*
X252003023Y-131693850D02*
X251327316Y-133207872D01*
X251327316Y-133207872D02*
X250553744Y-134675000D01*
X250553744Y-134675000D02*
X249685550Y-136088914D01*
X249685550Y-136088914D02*
X248726383Y-137443517D01*
X248726383Y-137443517D02*
X247680285Y-138732961D01*
X247680285Y-138732961D02*
X246551673Y-139951673D01*
X246551673Y-139951673D02*
X245345323Y-141094382D01*
X245345323Y-141094382D02*
X244066345Y-142156133D01*
X244066345Y-142156133D02*
X242720165Y-143132320D01*
X242720165Y-143132320D02*
X241312500Y-144018696D01*
X241312500Y-144018696D02*
X239849336Y-144811398D01*
X239849336Y-144811398D02*
X238336902Y-145506960D01*
X238336902Y-145506960D02*
X236781639Y-146102331D01*
X236781639Y-146102331D02*
X235190180Y-146594886D01*
X235190180Y-146594886D02*
X233569316Y-146982440D01*
X233569316Y-146982440D02*
X231925971Y-147263254D01*
X231925971Y-147263254D02*
X230267167Y-147436048D01*
X230267167Y-147436048D02*
X228600000Y-147500000D01*
X228600000Y-147500000D02*
X226998277Y-147458664D01*
X226998277Y-147458664D02*
X225401747Y-147316783D01*
X225401747Y-147316783D02*
X223816717Y-147074847D01*
X223816717Y-147074847D02*
X222249455Y-146733740D01*
X222249455Y-146733740D02*
X220706161Y-146294739D01*
X220706161Y-146294739D02*
X219192945Y-145759508D01*
X219192945Y-145759508D02*
X217715804Y-145130094D01*
X217715804Y-145130094D02*
X216280595Y-144408914D01*
X216280595Y-144408914D02*
X214893015Y-143598753D01*
X214893015Y-143598753D02*
X213558575Y-142702745D01*
X213558575Y-142702745D02*
X212282583Y-141724369D01*
X212282583Y-141724369D02*
X211070118Y-140667429D01*
X211070118Y-140667429D02*
X209926011Y-139536043D01*
X209926011Y-139536043D02*
X208854828Y-138334627D01*
X208854828Y-138334627D02*
X207860849Y-137067875D01*
X207860849Y-137067875D02*
X206948055Y-135740742D01*
X206948055Y-135740742D02*
X206120105Y-134358427D01*
X206120105Y-134358427D02*
X205380328Y-132926348D01*
X205380328Y-132926348D02*
X204731708Y-131450125D01*
X204731708Y-131450125D02*
X204176869Y-129935556D01*
X204176869Y-129935556D02*
X203718067Y-128388595D01*
X203718067Y-128388595D02*
X203357182Y-126815325D01*
X203357182Y-126815325D02*
X203095707Y-125221941D01*
X203095707Y-125221941D02*
X202934745Y-123614721D01*
X202934745Y-123614721D02*
X202875000Y-122000000D01*
X202875000Y-122000000D02*
X202916780Y-120384149D01*
X202916780Y-120384149D02*
X203059991Y-118773547D01*
X203059991Y-118773547D02*
X203304139Y-117174556D01*
X203304139Y-117174556D02*
X203648329Y-115593500D01*
X203648329Y-115593500D02*
X204091274Y-114036632D01*
X204091274Y-114036632D02*
X204631292Y-112510117D01*
X204631292Y-112510117D02*
X205266320Y-111020004D01*
X205266320Y-111020004D02*
X205993917Y-109572200D01*
X205993917Y-109572200D02*
X206811274Y-108172454D01*
X206811274Y-108172454D02*
X207715226Y-106826324D01*
X207715226Y-106826324D02*
X208702266Y-105539163D01*
X208702266Y-105539163D02*
X209768553Y-104316095D01*
X209768553Y-104316095D02*
X210909934Y-103161993D01*
X210909934Y-103161993D02*
X212121952Y-102081462D01*
X212121952Y-102081462D02*
X213399873Y-101078821D01*
X213399873Y-101078821D02*
X214738697Y-100158081D01*
X214738697Y-100158081D02*
X216133178Y-99322936D01*
X216133178Y-99322936D02*
X217577851Y-98576742D01*
X217577851Y-98576742D02*
X219067047Y-97922508D01*
X219067047Y-97922508D02*
X220594915Y-97362881D01*
X220594915Y-97362881D02*
X222155450Y-96900136D01*
X222155450Y-96900136D02*
X223742514Y-96536168D01*
X223742514Y-96536168D02*
X225349859Y-96272482D01*
X225349859Y-96272482D02*
X226971151Y-96110189D01*
X226971151Y-96110189D02*
X228600000Y-96050000D01*
X228600000Y-96050000D02*
X230229979Y-96092224D01*
X230229979Y-96092224D02*
X231854653Y-96236765D01*
X231854653Y-96236765D02*
X233467604Y-96483124D01*
X233467604Y-96483124D02*
X235062455Y-96830398D01*
X235062455Y-96830398D02*
X236632897Y-97277286D01*
X236632897Y-97277286D02*
X238172711Y-97822092D01*
X238172711Y-97822092D02*
X239675797Y-98462734D01*
X239675797Y-98462734D02*
X241136194Y-99196748D01*
X241136194Y-99196748D02*
X242548107Y-100021300D01*
X242548107Y-100021300D02*
X243905928Y-100933197D01*
X243905928Y-100933197D02*
X245204258Y-101928901D01*
X245204258Y-101928901D02*
X246437928Y-103004536D01*
X246437928Y-103004536D02*
X247602025Y-104155911D01*
X247602025Y-104155911D02*
X248691903Y-105378532D01*
X248691903Y-105378532D02*
X249703208Y-106667622D01*
X249703208Y-106667622D02*
X250631893Y-108018136D01*
X250631893Y-108018136D02*
X251474233Y-109424784D01*
X251474233Y-109424784D02*
X252226844Y-110882051D01*
X252226844Y-110882051D02*
X252886692Y-112384219D01*
X252886692Y-112384219D02*
X253451107Y-113925386D01*
X253451107Y-113925386D02*
X253917795Y-115499495D01*
X253917795Y-115499495D02*
X254284847Y-117100353D01*
X254284847Y-117100353D02*
X254550744Y-118721659D01*
X254550744Y-118721659D02*
X254714367Y-120357023D01*
X254714367Y-120357023D02*
X254775000Y-122000000D01*
X254775000Y-122000000D02*
X254732332Y-123644107D01*
X254732332Y-123644107D02*
X254586460Y-125282853D01*
X254586460Y-125282853D02*
X254337891Y-126909765D01*
X254337891Y-126909765D02*
X253987533Y-128518411D01*
X253987533Y-128518411D02*
X253536702Y-130102426D01*
X253536702Y-130102426D02*
X252987107Y-131655539D01*
X252987107Y-131655539D02*
X252340852Y-133171597D01*
X252340852Y-133171597D02*
X251600421Y-134644589D01*
X251600421Y-134644589D02*
X250768674Y-136068668D01*
X250768674Y-136068668D02*
X249848831Y-137438180D01*
X249848831Y-137438180D02*
X248844465Y-138747678D01*
X248844465Y-138747678D02*
X247759482Y-139991952D01*
X247759482Y-139991952D02*
X246598113Y-141166043D01*
X246598113Y-141166043D02*
X245364888Y-142265269D01*
X245364888Y-142265269D02*
X244064630Y-143285237D01*
X244064630Y-143285237D02*
X242702425Y-144221867D01*
X242702425Y-144221867D02*
X241283611Y-145071402D01*
X241283611Y-145071402D02*
X239813749Y-145830430D01*
X239813749Y-145830430D02*
X238298609Y-146495891D01*
X238298609Y-146495891D02*
X236744143Y-147065094D01*
X236744143Y-147065094D02*
X235156460Y-147535726D01*
X235156460Y-147535726D02*
X233541807Y-147905862D01*
X233541807Y-147905862D02*
X231906541Y-148173970D01*
X231906541Y-148173970D02*
X230257105Y-148338923D01*
X228600000Y-130400000D02*
X226416214Y-130149999D01*
X229870000Y-148726028D02*
X229870000Y-150956000D01*
X230257105Y-148338923D02*
X229870000Y-148726028D01*
X229870000Y-150956000D02*
X229870000Y-155000000D01*
X228600000Y-130400000D02*
X228600000Y-130400000D01*
M02*
