G04 #@! TF.GenerationSoftware,KiCad,Pcbnew,(5.1.6)-1*
G04 #@! TF.CreationDate,2021-07-30T18:53:30-07:00*
G04 #@! TF.ProjectId,Inductor Coils,496e6475-6374-46f7-9220-436f696c732e,rev?*
G04 #@! TF.SameCoordinates,Original*
G04 #@! TF.FileFunction,Copper,L2,Bot*
G04 #@! TF.FilePolarity,Positive*
%FSLAX46Y46*%
G04 Gerber Fmt 4.6, Leading zero omitted, Abs format (unit mm)*
G04 Created by KiCad (PCBNEW (5.1.6)-1) date 2021-07-30 18:53:30*
%MOMM*%
%LPD*%
G01*
G04 APERTURE LIST*
G04 #@! TA.AperFunction,NonConductor*
%ADD10C,0.381000*%
G04 #@! TD*
G04 #@! TA.AperFunction,ComponentPad*
%ADD11O,1.700000X1.700000*%
G04 #@! TD*
G04 #@! TA.AperFunction,ComponentPad*
%ADD12R,1.700000X1.700000*%
G04 #@! TD*
G04 #@! TA.AperFunction,ViaPad*
%ADD13C,0.800000*%
G04 #@! TD*
G04 #@! TA.AperFunction,Conductor*
%ADD14C,0.700000*%
G04 #@! TD*
G04 APERTURE END LIST*
D10*
X255955142Y-95189428D02*
X256680857Y-95189428D01*
X256680857Y-93665428D01*
X255447142Y-95189428D02*
X255447142Y-93665428D01*
X254939142Y-94754000D01*
X254431142Y-93665428D01*
X254431142Y-95189428D01*
X253778000Y-94754000D02*
X253052285Y-94754000D01*
X253923142Y-95189428D02*
X253415142Y-93665428D01*
X252907142Y-95189428D01*
X252108857Y-93665428D02*
X251818571Y-93665428D01*
X251673428Y-93738000D01*
X251528285Y-93883142D01*
X251455714Y-94173428D01*
X251455714Y-94681428D01*
X251528285Y-94971714D01*
X251673428Y-95116857D01*
X251818571Y-95189428D01*
X252108857Y-95189428D01*
X252254000Y-95116857D01*
X252399142Y-94971714D01*
X252471714Y-94681428D01*
X252471714Y-94173428D01*
X252399142Y-93883142D01*
X252254000Y-93738000D01*
X252108857Y-93665428D01*
X249641428Y-95189428D02*
X249641428Y-93665428D01*
X249641428Y-94391142D02*
X248770571Y-94391142D01*
X248770571Y-95189428D02*
X248770571Y-93665428D01*
X248044857Y-95189428D02*
X248044857Y-93665428D01*
X247319142Y-95044285D02*
X247246571Y-95116857D01*
X247319142Y-95189428D01*
X247391714Y-95116857D01*
X247319142Y-95044285D01*
X247319142Y-95189428D01*
X247319142Y-94608857D02*
X247391714Y-93738000D01*
X247319142Y-93665428D01*
X247246571Y-93738000D01*
X247319142Y-94608857D01*
X247319142Y-93665428D01*
D11*
X229870000Y-155000000D03*
D12*
X227330000Y-155000000D03*
D13*
X228600000Y-130400000D03*
D14*
X228600000Y-130400000D02*
X228600000Y-151130000D01*
X227330000Y-152400000D02*
X227330000Y-155000000D01*
X228600000Y-151130000D02*
X227330000Y-152400000D01*
M02*
